<?xml version="1.0" standalone="no"?>
<!DOCTYPE svg PUBLIC "-//W3C//DTD SVG 1.1//EN" "http://www.w3.org/Graphics/SVG/1.1/DTD/svg11.dtd" >
<svg xmlns="http://www.w3.org/2000/svg" xmlns:xlink="http://www.w3.org/1999/xlink" version="1.1">
<metadata>
Created by FontForge 20170924 at Mon Apr 21 19:17:28 2014
 By www-data
Copyright C 2010, 2014 Hoefler &#38; Co. http:www.typography.com
</metadata>
<defs>
<font id="ArcherSSm-Light" horiz-adv-x="590" >
  <font-face 
    font-family="Archer SSm"
    font-weight="300"
    font-stretch="normal"
    units-per-em="1000"
    panose-1="0 0 0 0 0 0 0 0 0 0"
    ascent="800"
    descent="-200"
    x-height="483"
    cap-height="724"
    bbox="-47 -284 1603 1090"
    underline-thickness="50"
    underline-position="-100"
    stemh="41"
    stemv="48"
    unicode-range="U+0020-FB04"
  />
<missing-glyph horiz-adv-x="506" 
d="M3 -200v1000h500v-1000h-500zM74 750l179 -390l179 390h-358zM453 676l-172 -376l172 -376v752zM53 -76l172 376l-172 376v-752zM253 240l-179 -390h358z" />
    <glyph glyph-name="f_b" unicode="fb" horiz-adv-x="974" 
d="M447 0v444h-259v-405h96v-39h-224v39h83v405h-90v39h90v178c0 67 19 116 52 148c32 33 77 48 128 48c48 0 92 -16 126 -54l18 48h25v-444c44 48 101 84 184 84c131 0 234 -103 234 -250c0 -140 -101 -249 -244 -249c-68 0 -131 28 -175 67l-19 -59h-25zM411 726
c0 13 4 23 15 32c-20 37 -63 60 -108 60c-35 0 -68 -14 -91 -36c-26 -27 -39 -68 -39 -119v-180h259v203c-20 1 -36 19 -36 40zM668 31c113 0 195 88 195 210s-78 211 -191 211c-77 0 -136 -38 -180 -89v-262c41 -38 101 -70 176 -70z" />
    <glyph glyph-name="f_f" unicode="ff" horiz-adv-x="666" 
d="M188 483h266v186c0 69 14 119 46 150c25 25 53 38 92 38c41 0 70 -18 70 -49c0 -21 -15 -36 -36 -36c-25 0 -40 19 -44 45c-19 -1 -36 -9 -51 -25c-21 -22 -32 -59 -32 -112v-197h128v-39h-128v-405h96v-39h-224v39h83v405h-266v-405h96v-39h-224v39h83v405h-90v39h90
v162c0 70 14 120 46 151c25 25 53 38 92 38c41 0 70 -18 70 -49c0 -21 -15 -37 -36 -37c-24 0 -40 18 -44 46c-18 -2 -36 -8 -51 -25c-20 -21 -32 -58 -32 -113v-173z" />
    <glyph glyph-name="f_h" unicode="fh" horiz-adv-x="959" 
d="M411 726c0 13 4 23 15 32c-20 37 -63 60 -108 60c-35 0 -68 -14 -91 -36c-26 -27 -39 -68 -39 -119v-180h259v203c-20 1 -36 19 -36 40zM447 39v405h-259v-405h96v-39h-224v39h83v405h-90v39h90v178c0 67 19 116 52 148c32 33 77 48 128 48c48 0 92 -16 126 -54l18 48h25
v-464c45 56 114 104 189 104c59 0 98 -20 122 -54c21 -28 30 -68 30 -112v-286h84v-39h-212v39h84v281c0 40 -8 70 -24 92c-19 25 -50 38 -91 38c-71 0 -134 -47 -182 -105v-306h83v-39h-212v39h84z" />
    <glyph glyph-name="fi" unicode="fi" horiz-adv-x="615" 
d="M481 483v-444h90v-39h-223v39h88v405h-248v-405h95v-39h-223v39h83v405h-90v39h90v168c0 78 21 135 58 167c28 26 63 38 100 38c63 0 98 -31 98 -65c0 -21 -16 -39 -37 -39c-30 0 -45 30 -37 58c-8 3 -18 6 -29 6c-25 0 -51 -12 -72 -36c-22 -25 -36 -65 -36 -118v-179
h293z" />
    <glyph glyph-name="f_j" unicode="fj" horiz-adv-x="582" 
d="M436 444h-248v-405h95v-39h-223v39h83v405h-90v39h90v168c0 78 21 135 58 167c28 26 63 38 100 38c63 0 98 -31 98 -65c0 -21 -16 -39 -37 -39c-30 0 -45 30 -37 58c-8 3 -18 6 -29 6c-25 0 -51 -12 -72 -36c-22 -25 -36 -65 -36 -118v-179h293v-483
c0 -56 -6 -99 -17 -133c-22 -70 -68 -99 -124 -99c-52 0 -87 27 -87 64c0 18 13 39 36 39c21 0 34 -15 34 -34c0 -7 -2 -17 -8 -25c6 -5 16 -7 27 -7c37 0 67 24 82 77c8 29 12 66 12 112v450z" />
    <glyph glyph-name="f_k" unicode="fk" horiz-adv-x="922" 
d="M188 663v-180h259v203c-20 1 -36 19 -36 40c0 15 6 24 15 32c-20 37 -63 60 -108 60c-35 0 -68 -14 -91 -36c-26 -27 -39 -68 -39 -119zM492 851v-632l250 226h-114v38h258v-39h-86l-175 -158l173 -247h88v-39h-114l-179 262l-101 -91v-132h86v-39h-215v39h84v405h-259
v-405h96v-39h-224v39h83v405h-90v39h90v178c0 67 19 116 52 148c32 33 77 48 128 48c48 0 96 -18 126 -54l18 48h25z" />
    <glyph glyph-name="fl" unicode="fl" horiz-adv-x="626" 
d="M318 818c-35 0 -68 -14 -91 -36c-26 -27 -39 -68 -39 -119v-180h259v203c-20 1 -36 19 -36 40c0 14 6 24 15 32c-20 37 -63 60 -108 60zM358 39h89v405h-259v-405h96v-39h-224v39h83v405h-90v39h90v178c0 67 19 116 52 148c32 33 77 48 128 48c48 0 92 -16 126 -54l18 48
h25v-812h90v-39h-224v39z" />
    <glyph glyph-name="f_f_b" unicode="ffb" horiz-adv-x="1281" 
d="M719 726c0 13 5 24 15 32c-21 38 -64 60 -109 60c-35 0 -67 -14 -90 -36c-27 -27 -40 -68 -40 -119v-180h260v203c-20 1 -36 19 -36 40zM755 0v444h-260v-405h96v-39h-224v39h84v405h-263v-405h96v-39h-224v39h83v405h-90v39h90v161c0 62 14 110 47 144
c29 29 68 46 117 46c22 0 47 -5 67 -14c27 -11 47 -30 47 -59c0 -21 -13 -37 -36 -37c-31 0 -46 32 -38 63c-13 5 -29 8 -43 8c-36 0 -65 -13 -85 -37c-23 -29 -31 -66 -31 -114v-161h263v178c0 67 18 116 51 148c33 33 78 48 128 48c49 0 97 -18 127 -54l17 48h25v-444
c45 48 101 84 185 84c131 0 234 -103 234 -250c0 -140 -102 -249 -244 -249c-68 0 -132 28 -175 67l-20 -59h-24zM975 31c113 0 196 88 196 210s-78 211 -191 211c-77 0 -137 -38 -181 -89v-262c42 -38 101 -70 176 -70z" />
    <glyph glyph-name="f_f_h" unicode="ffh" horiz-adv-x="1267" 
d="M495 663v-180h260v203c-20 1 -36 19 -36 40c0 13 5 24 15 32c-21 38 -64 60 -109 60c-35 0 -67 -14 -90 -36c-27 -27 -40 -68 -40 -119zM799 851v-464c46 56 115 104 190 104c58 0 97 -20 122 -54c21 -28 30 -68 30 -112v-286h84v-39h-212v39h83v281c0 40 -7 70 -24 92
c-18 25 -49 38 -90 38c-71 0 -135 -47 -183 -105v-306h84v-39h-212v39h84v405h-260v-405h96v-39h-224v39h84v405h-263v-405h96v-39h-224v39h83v405h-90v39h90v161c0 62 14 110 47 144c29 29 68 46 117 46c22 0 47 -5 67 -14c27 -11 47 -30 47 -59c0 -21 -13 -37 -36 -37
c-31 0 -46 32 -38 63c-13 5 -29 8 -43 8c-36 0 -65 -13 -85 -37c-23 -29 -31 -66 -31 -114v-161h263v178c0 67 18 116 51 148c33 33 78 48 128 48c49 0 97 -18 127 -54l17 48h25z" />
    <glyph glyph-name="f_f_i" unicode="ffi" horiz-adv-x="922" 
d="M707 791c0 -21 -16 -39 -38 -39c-30 0 -44 30 -37 58c-7 3 -17 6 -28 6c-23 0 -48 -10 -68 -30c-23 -25 -41 -67 -41 -124v-179h293v-444h90v-39h-223v39h89v405h-249v-405h95v-39h-223v39h84v405h-263v-405h96v-39h-224v39h83v405h-90v39h90v161c0 62 14 110 47 144
c29 29 68 46 117 46c21 0 46 -5 65 -13c28 -11 49 -31 49 -60c0 -21 -13 -37 -36 -37c-31 0 -46 32 -38 62c-14 6 -29 9 -43 9c-36 0 -65 -13 -85 -37c-23 -29 -31 -66 -31 -114v-161h263v168c0 78 21 135 57 167c29 26 64 38 101 38c62 0 98 -31 98 -65z" />
    <glyph glyph-name="f_f_j" unicode="ffj" horiz-adv-x="890" 
d="M788 483v-483c0 -56 -6 -99 -16 -133c-23 -70 -68 -99 -124 -99c-53 0 -87 27 -87 64c0 18 12 39 36 39c20 0 33 -15 33 -34c0 -7 -2 -17 -8 -25c7 -5 16 -7 28 -7c37 0 67 24 81 77c9 29 13 66 13 112v450h-249v-405h95v-39h-223v39h84v405h-263v-405h96v-39h-224v39h83
v405h-90v39h90v161c0 62 14 110 47 144c29 29 68 46 117 46c21 0 46 -5 65 -13c28 -11 49 -31 49 -60c0 -21 -13 -37 -36 -37c-31 0 -46 32 -38 62c-13 6 -29 9 -43 9c-36 0 -65 -13 -85 -37c-23 -29 -31 -66 -31 -114v-161h263v168c0 78 21 135 57 167c29 26 64 38 101 38
c62 0 98 -31 98 -65c0 -21 -16 -39 -38 -39c-30 0 -44 30 -37 58c-7 3 -17 6 -28 6c-23 0 -48 -10 -68 -30c-23 -25 -41 -67 -41 -124v-179h293z" />
    <glyph glyph-name="f_f_k" unicode="ffk" horiz-adv-x="1229" 
d="M495 663v-180h260v203c-20 1 -36 19 -36 40c0 13 5 24 15 32c-21 38 -64 60 -109 60c-35 0 -67 -14 -90 -36c-27 -27 -40 -68 -40 -119zM799 851v-632l251 226h-114v38h258v-39h-87l-175 -158l174 -247h88v-39h-114l-180 262l-101 -91v-132h87v-39h-215v39h84v405h-260
v-405h96v-39h-224v39h84v405h-263v-405h96v-39h-224v39h83v405h-90v39h90v161c0 62 14 110 47 144c29 29 68 46 117 46c22 0 47 -5 67 -14c27 -11 47 -30 47 -59c0 -21 -13 -37 -36 -37c-31 0 -46 32 -38 63c-13 5 -29 8 -43 8c-36 0 -65 -13 -85 -37
c-23 -29 -31 -66 -31 -114v-161h263v178c0 67 18 116 51 148c33 33 78 48 128 48c49 0 97 -18 127 -54l17 48h25z" />
    <glyph glyph-name="f_f_l" unicode="ffl" horiz-adv-x="932" 
d="M495 663v-180h260v203c-20 1 -36 19 -36 40c0 13 5 24 15 32c-21 38 -64 60 -109 60c-35 0 -67 -14 -90 -36c-27 -27 -40 -68 -40 -119zM188 644v-161h263v178c0 67 18 116 51 148c33 33 78 48 128 48c49 0 97 -18 127 -54l17 48h25v-812h91v-39h-225v39h90v405h-260
v-405h96v-39h-224v39h84v405h-263v-405h96v-39h-224v39h83v405h-90v39h90v161c0 62 14 110 47 144c29 29 68 46 117 46c22 0 47 -5 67 -14c27 -11 47 -30 47 -59c0 -21 -13 -37 -36 -37c-31 0 -46 32 -38 63c-13 5 -29 8 -43 8c-36 0 -65 -13 -85 -37
c-23 -29 -31 -66 -31 -114z" />
    <glyph glyph-name=".notdef" horiz-adv-x="506" 
d="M3 -200v1000h500v-1000h-500zM74 750l179 -390l179 390h-358zM453 676l-172 -376l172 -376v752zM53 -76l172 376l-172 376v-752zM253 240l-179 -390h358z" />
    <glyph glyph-name="A" unicode="A" horiz-adv-x="789" 
d="M253 307h282l-141 380zM27 0v41h79l241 642h-91v41h277v-41h-90l241 -642h79v-41h-224v41h94l-84 226h-311l-84 -226h96v-41h-223z" />
    <glyph glyph-name="B" unicode="B" horiz-adv-x="672" 
d="M61 0v41h100v642h-100v41h289c162 0 229 -87 229 -181c0 -88 -59 -152 -145 -172c104 -21 166 -81 166 -175c0 -116 -95 -196 -242 -196h-297zM209 390h132c133 0 192 66 192 151c0 82 -61 142 -186 142h-138v-293zM209 41h150c121 0 195 64 195 155
c0 97 -76 154 -214 154h-131v-309z" />
    <glyph glyph-name="C" unicode="C" horiz-adv-x="785" 
d="M435 -12c-220 0 -363 176 -363 368c0 219 164 380 359 380c149 0 267 -94 267 -182c0 -31 -20 -53 -48 -53c-22 0 -40 18 -40 41c0 21 15 38 35 42c-15 46 -95 111 -214 111c-182 0 -310 -157 -310 -337c0 -175 128 -329 314 -329c93 0 171 35 238 98l25 -33
c-72 -70 -163 -106 -263 -106z" />
    <glyph glyph-name="D" unicode="D" horiz-adv-x="810" 
d="M61 0v41h100v642h-100v41h269c252 0 406 -145 406 -357c0 -216 -148 -367 -404 -367h-271zM209 41h127c234 0 353 134 353 327c0 189 -132 315 -360 315h-120v-642z" />
    <glyph glyph-name="E" unicode="E" horiz-adv-x="656" 
d="M61 0v41h100v642h-100v41h510v-162h-45v121h-317v-292h254v-42h-254v-308h317v120h45v-161h-510z" />
    <glyph glyph-name="F" unicode="F" horiz-adv-x="629" 
d="M61 0v41h100v642h-100v41h500v-162h-45v121h-307v-305h250v-40h-250v-297h106v-41h-254z" />
    <glyph glyph-name="G" unicode="G" horiz-adv-x="823" 
d="M425 -12c-185 0 -352 137 -352 366c0 232 175 381 369 382c160 0 268 -92 268 -163c0 -30 -19 -49 -44 -49c-22 0 -39 18 -39 41c0 17 8 31 23 39c-26 44 -106 90 -209 90c-194 0 -320 -154 -320 -340c0 -195 137 -325 307 -325c87 0 169 29 246 87v178h-220v40h266v-334
h-44v74c-75 -56 -152 -86 -251 -86z" />
    <glyph glyph-name="H" unicode="H" horiz-adv-x="864" 
d="M61 0v41h100v642h-100v41h249v-41h-101v-290h446v290h-101v41h249v-41h-101v-642h101v-41h-249v41h101v310h-446v-310h101v-41h-249z" />
    <glyph glyph-name="I" unicode="I" horiz-adv-x="383" 
d="M62 0v41h106v642h-106v41h259v-41h-106v-642h106v-41h-259z" />
    <glyph glyph-name="J" unicode="J" horiz-adv-x="580" 
d="M233 -12c-103 0 -190 75 -190 175c0 41 20 68 50 68c20 0 40 -16 40 -40c0 -22 -16 -41 -43 -42c0 -56 57 -118 143 -118c43 0 80 15 107 42c34 35 52 92 52 171v439h-118v41h258v-41h-93v-441c0 -86 -21 -156 -65 -199c-34 -35 -81 -55 -141 -55z" />
    <glyph glyph-name="K" unicode="K" horiz-adv-x="744" 
d="M61 0v41h100v642h-100v41h249v-41h-101v-377l368 377h-110v41h251v-41h-85l-261 -267l261 -375h93v-41h-124l-263 385l-130 -132v-212h101v-41h-249z" />
    <glyph glyph-name="L" unicode="L" horiz-adv-x="610" 
d="M61 0v41h100v642h-100v41h252v-41h-104v-642h291v126h45v-167h-484z" />
    <glyph glyph-name="M" unicode="M" horiz-adv-x="969" 
d="M52 0v41h104l26 642h-103v41h155l250 -552l250 552h152v-41h-103l26 -642h104v-41h-244v41h95l-21 604l-251 -549h-19l-251 550l-22 -605h96v-41h-244z" />
    <glyph glyph-name="N" unicode="N" horiz-adv-x="852" 
d="M680 -3l-474 646v-602h102v-41h-247v41h100v642h-100v41h141l461 -630v589h-101v41h244v-41h-98v-686h-28z" />
    <glyph glyph-name="O" unicode="O" horiz-adv-x="869" 
d="M433 -12c-206 0 -361 165 -361 373c0 210 156 375 364 375c206 0 361 -165 361 -374s-156 -374 -364 -374zM435 30c183 0 314 146 314 331c0 186 -131 333 -314 333c-184 0 -314 -146 -314 -332c0 -185 130 -332 314 -332z" />
    <glyph glyph-name="P" unicode="P" horiz-adv-x="641" 
d="M333 318c133 0 209 72 209 183c0 110 -88 182 -210 182h-123v-363c26 -1 79 -2 124 -2zM61 0v41h100v642h-100v41h268c151 0 260 -90 260 -222c0 -137 -100 -225 -257 -225c-44 0 -99 1 -123 2v-238h104v-41h-252z" />
    <glyph glyph-name="Q" unicode="Q" horiz-adv-x="869" 
d="M744 -153c-85 0 -141 49 -213 95c-43 28 -83 41 -138 50c-78 14 -146 43 -198 88c-75 65 -123 166 -123 281c0 210 156 375 364 375c206 0 361 -165 361 -374c0 -185 -120 -337 -298 -362c31 -9 58 -24 95 -49c63 -42 96 -61 150 -61c32 0 53 7 81 25l19 -38
c-34 -21 -65 -30 -100 -30zM436 30c182 0 313 146 313 331c0 186 -131 333 -314 333c-184 0 -314 -146 -314 -332c0 -104 38 -192 104 -252c54 -49 129 -80 211 -80z" />
    <glyph glyph-name="Q.alt" horiz-adv-x="869" 
d="M656 -113l-82 128c-43 -17 -90 -27 -141 -27c-206 0 -361 165 -361 373c0 210 156 375 364 375c206 0 361 -165 361 -374c0 -143 -73 -265 -186 -328l80 -126zM435 30c42 0 81 7 117 21l-92 146l36 21l93 -149c99 55 160 163 160 292c0 186 -131 333 -314 333
c-184 0 -314 -146 -314 -332c0 -185 130 -332 314 -332z" />
    <glyph glyph-name="R" unicode="R" horiz-adv-x="682" 
d="M317 352c126 0 215 57 215 168c0 101 -78 163 -203 163h-120v-329c31 -1 70 -2 108 -2zM61 0v41h100v642h-100v41h271c153 0 248 -84 248 -203c0 -105 -70 -174 -174 -199l179 -281h89v-41h-120l-196 313c-13 -1 -28 -2 -42 -2c-40 0 -79 1 -107 2v-272h101v-41h-249z
" />
    <glyph glyph-name="S" unicode="S" horiz-adv-x="600" 
d="M299 -11c-137 0 -225 79 -225 141c0 32 19 52 42 52c21 0 38 -17 38 -38c0 -18 -10 -34 -23 -43c22 -37 85 -71 170 -71c110 0 178 62 178 152s-82 129 -172 165c-110 43 -206 89 -206 206c0 106 87 182 210 182c111 0 201 -68 201 -134c0 -30 -19 -47 -41 -47
s-40 17 -40 39c0 17 9 31 21 40c-18 35 -84 61 -142 61c-98 0 -163 -59 -163 -137c0 -92 81 -128 178 -167c106 -42 200 -90 200 -205c0 -119 -96 -196 -226 -196z" />
    <glyph glyph-name="T" unicode="T" horiz-adv-x="706" 
d="M223 0v41h107v643h-225v-127h-46v167h588v-167h-46v127h-224v-643h106v-41h-260z" />
    <glyph glyph-name="U" unicode="U" horiz-adv-x="789" 
d="M393 -12c-161 0 -249 95 -249 258v437h-100v41h249v-41h-103v-433c0 -145 72 -220 204 -220s205 73 205 219v434h-103v41h249v-41h-100v-434c0 -165 -91 -261 -252 -261z" />
    <glyph glyph-name="V" unicode="V" horiz-adv-x="771" 
d="M371 -13l-268 696h-80v41h223v-41h-93l234 -623l235 623h-97v41h223v-41h-80l-268 -696h-29z" />
    <glyph glyph-name="W" unicode="W" horiz-adv-x="1076" 
d="M324 -14l-210 697h-91v41h236v-41h-96l178 -613l187 555h27l187 -554l178 612h-100v41h236v-41h-91l-208 -697h-29l-187 551l-188 -551h-29z" />
    <glyph glyph-name="X" unicode="X" horiz-adv-x="801" 
d="M54 0v41h77l241 329l-226 313h-79v41h216v-40h-84l201 -286l204 286h-87v40h216v-41h-79l-227 -312l242 -330h77v-41h-216v40h86l-216 303l-218 -303h88v-40h-216z" />
    <glyph glyph-name="Y" unicode="Y" horiz-adv-x="715" 
d="M222 0v41h111v260l-224 382h-82v41h225v-41h-89l195 -342l196 342h-91v41h224v-41h-83l-223 -381v-261h111v-41h-270z" />
    <glyph glyph-name="Z" unicode="Z" horiz-adv-x="659" 
d="M55 0v20l471 665h-401v-123h-45v162h513v-21l-471 -664h435v122h46v-161h-548z" />
    <glyph glyph-name="a" unicode="a" horiz-adv-x="564" 
d="M229 30c68 0 126 38 167 84v99c-44 15 -99 25 -152 25c-94 0 -138 -49 -138 -105c0 -54 39 -103 123 -103zM223 -8c-101 0 -161 61 -161 139c0 86 75 145 180 145c55 0 119 -14 154 -28v87c0 30 -9 56 -25 75c-22 26 -60 42 -113 42c-55 0 -86 -17 -105 -35
c7 -8 11 -19 11 -31c0 -19 -14 -36 -36 -36c-23 0 -37 17 -37 39c0 47 62 102 171 102c63 0 113 -19 143 -52c22 -25 34 -57 34 -96v-304h83v-39h-125v72c-39 -42 -104 -80 -174 -80z" />
    <glyph glyph-name="b" unicode="b" horiz-adv-x="633" 
d="M326 -8c-69 0 -132 28 -176 67l-19 -59h-24v808h-84v39h128v-440c45 48 101 84 185 84c130 0 234 -103 234 -250c0 -140 -102 -249 -244 -249zM327 31c113 0 196 88 196 210s-78 211 -192 211c-76 0 -136 -38 -180 -89v-262c42 -38 101 -70 176 -70z" />
    <glyph glyph-name="c" unicode="c" horiz-adv-x="544" 
d="M311 -8c-142 0 -251 101 -251 245c0 143 109 254 238 254c103 0 185 -67 185 -135c0 -26 -18 -48 -44 -48c-17 0 -34 11 -34 35c0 17 9 30 28 38c-14 41 -73 71 -134 71c-95 0 -192 -81 -192 -216c0 -121 87 -204 209 -204c54 0 105 16 157 51l-4 -44
c-45 -32 -108 -47 -158 -47z" />
    <glyph glyph-name="d" unicode="d" horiz-adv-x="642" 
d="M297 31c74 0 133 38 178 89v262c-43 38 -101 70 -173 70c-114 0 -193 -92 -194 -212c0 -122 78 -209 189 -209zM294 -8c-130 0 -232 101 -232 248c0 139 98 251 241 251c65 0 128 -27 172 -69v386h-101v39h145v-808h84v-39h-127v80c-44 -52 -105 -88 -182 -88z" />
    <glyph glyph-name="e" unicode="e" horiz-adv-x="563" 
d="M501 236h-395c5 -134 85 -204 207 -204c65 0 116 21 168 55l-4 -45c-46 -32 -107 -50 -169 -50c-148 0 -248 99 -248 250c0 137 95 249 229 249c138 0 215 -108 215 -226c0 -13 -1 -22 -3 -29zM285 452c-91 0 -167 -72 -178 -178h352c-5 100 -63 178 -174 178z" />
    <glyph glyph-name="f" unicode="f" horiz-adv-x="355" 
d="M315 772c-25 0 -40 18 -44 45c-20 -1 -39 -10 -53 -26c-19 -23 -30 -59 -30 -111v-197h128v-39h-128v-405h96v-39h-224v39h83v405h-90v39h90v186c0 69 14 119 46 150c25 25 53 38 92 38c41 0 70 -18 70 -49c0 -21 -15 -36 -36 -36z" />
    <glyph glyph-name="g" unicode="g" horiz-adv-x="649" 
d="M304 452c-115 0 -194 -93 -194 -208c0 -117 77 -206 189 -206c76 0 133 39 177 89v253c-41 39 -98 72 -172 72zM520 444v-473c0 -59 -14 -103 -42 -135c-40 -47 -104 -68 -180 -68c-77 0 -132 24 -158 53c-14 14 -21 31 -21 47c0 27 18 45 42 45c20 0 34 -17 34 -37
c0 -12 -6 -25 -17 -34c15 -17 58 -35 124 -35c60 0 110 17 141 55c21 25 33 59 33 105v116c-43 -47 -100 -84 -179 -84c-132 0 -233 104 -233 244c0 133 97 248 241 248c70 0 130 -30 173 -71v63h126v-39h-84z" />
    <glyph glyph-name="h" unicode="h" horiz-adv-x="639" 
d="M127 808h-84v39h128v-460c46 56 115 104 190 104c59 0 98 -20 122 -54c21 -28 30 -68 30 -112v-286h84v-39h-212v39h83v281c0 40 -7 70 -24 92c-18 25 -49 38 -90 38c-71 0 -135 -47 -183 -105v-306h84v-39h-212v39h84v769z" />
    <glyph glyph-name="i" unicode="i" horiz-adv-x="326" 
d="M160 644c-24 0 -43 20 -43 45c0 24 19 44 43 44s42 -20 42 -44c0 -25 -18 -45 -42 -45zM58 0v39h89v405h-89v39h134v-444h90v-39h-224z" />
    <glyph glyph-name="j" unicode="j" horiz-adv-x="281" 
d="M148 644c-24 0 -43 20 -43 45c0 24 19 44 43 44c23 0 42 -20 42 -44c0 -25 -19 -45 -42 -45zM-47 -168c0 18 12 39 35 39c21 0 34 -15 34 -34c0 -7 -2 -17 -8 -25c6 -5 16 -7 27 -7c37 0 67 24 82 77c9 29 13 66 13 112v450h-99v39h143v-483c0 -56 -6 -99 -16 -133
c-23 -70 -68 -99 -124 -99c-53 0 -87 27 -87 64z" />
    <glyph glyph-name="k" unicode="k" horiz-adv-x="597" 
d="M43 0v39h84v769h-84v39h128v-628l251 226h-114v38h258v-39h-87l-175 -158l174 -247h88v-39h-114l-180 262l-101 -91v-132h87v-39h-215z" />
    <glyph glyph-name="l" unicode="l" horiz-adv-x="313" 
d="M45 0v39h89v769h-89v39h133v-808h91v-39h-224z" />
    <glyph glyph-name="m" unicode="m" horiz-adv-x="964" 
d="M56 0v39h84v405h-84v39h127v-97c44 55 114 105 185 105c62 0 101 -23 122 -61c7 -14 12 -29 15 -44c54 60 122 105 190 105c67 0 106 -27 126 -71c12 -26 17 -58 17 -95v-286h84v-39h-212v39h83v281c0 31 -4 57 -12 76c-15 36 -45 54 -93 54c-66 0 -126 -44 -177 -103
v-308h84v-39h-212v39h84v281c0 31 -4 56 -12 76c-15 36 -45 54 -93 54c-68 0 -129 -47 -177 -104v-307h83v-39h-212z" />
    <glyph glyph-name="n" unicode="n" horiz-adv-x="649" 
d="M183 483v-98c45 56 116 106 191 106c64 0 104 -24 127 -63c16 -27 22 -63 22 -103v-286h84v-39h-212v39h84v281c0 31 -4 57 -14 78c-17 34 -49 52 -98 52c-71 0 -135 -47 -182 -105v-306h83v-39h-212v39h84v405h-84v39h127z" />
    <glyph glyph-name="o" unicode="o" horiz-adv-x="612" 
d="M306 -8c-144 0 -244 109 -244 249s101 250 244 250s244 -109 244 -250c0 -139 -102 -249 -244 -249zM306 31c115 0 197 89 197 210s-82 211 -197 211c-116 0 -198 -90 -198 -211s82 -210 198 -210z" />
    <glyph glyph-name="p" unicode="p" horiz-adv-x="644" 
d="M344 31c113 0 190 91 191 212c0 122 -76 209 -186 209c-75 0 -131 -38 -176 -89v-263c42 -39 98 -69 171 -69zM45 -227v39h84v632h-84v39h126v-80c45 52 103 88 180 88c130 0 230 -101 230 -248c0 -139 -96 -251 -239 -251c-64 0 -126 27 -169 67v-247h94v-39h-222z" />
    <glyph glyph-name="q" unicode="q" horiz-adv-x="625" 
d="M387 -227v39h94v264c-46 -48 -101 -84 -185 -84c-131 0 -234 102 -234 250c0 140 101 249 244 249c68 0 132 -28 175 -67l20 59h24v-671h84v-39h-222zM300 31c77 0 136 38 181 89v262c-43 38 -102 70 -176 70c-113 0 -197 -88 -197 -210c0 -123 78 -211 192 -211z" />
    <glyph glyph-name="r" unicode="r" horiz-adv-x="413" 
d="M328 491c37 0 57 -22 57 -47c0 -21 -16 -39 -38 -39c-23 0 -40 17 -42 39c-44 -8 -89 -56 -120 -113v-292h95v-39h-224v39h84v405h-84v39h127v-108c35 64 95 116 145 116z" />
    <glyph glyph-name="s" unicode="s" horiz-adv-x="496" 
d="M416 394c0 -22 -15 -38 -35 -38c-21 0 -37 16 -37 37c0 8 2 20 11 29c-14 17 -53 31 -109 31c-78 0 -126 -42 -126 -90c0 -56 59 -72 140 -93c87 -22 174 -48 174 -143c0 -82 -79 -135 -184 -135c-70 0 -135 23 -167 58c-14 14 -23 31 -23 51c0 22 16 40 36 40
c23 0 37 -16 37 -36c0 -13 -5 -23 -14 -31c16 -21 66 -44 130 -44c87 0 141 39 141 95c0 64 -64 83 -138 101c-97 24 -176 49 -176 135c0 73 72 130 171 130c69 0 120 -21 147 -48c15 -15 22 -31 22 -49z" />
    <glyph glyph-name="t" unicode="t" horiz-adv-x="365" 
d="M219 -8c-45 0 -77 18 -92 53c-8 16 -12 38 -12 61v338h-88v39h88v129l45 15v-144h154v-39h-154v-334c0 -18 2 -32 7 -44c10 -22 30 -33 62 -33c30 0 60 13 88 31l-7 -46c-23 -13 -51 -26 -91 -26z" />
    <glyph glyph-name="u" unicode="u" horiz-adv-x="637" 
d="M275 -8c-65 0 -106 25 -128 65c-15 27 -21 61 -21 101v286h-84v39h128v-320c0 -33 5 -60 16 -81c16 -33 48 -49 96 -49c70 0 133 50 182 108v303h-84v39h128v-444h84v-39h-126v102c-45 -58 -117 -110 -191 -110z" />
    <glyph glyph-name="v" unicode="v" horiz-adv-x="593" 
d="M288 -20l-206 464h-70v39h207v-39h-87l166 -390l165 390h-89v39h207v-39h-70l-206 -464h-17z" />
    <glyph glyph-name="w" unicode="w" horiz-adv-x="787" 
d="M222 -20l-137 464h-73v39h205v-38h-87l106 -378l149 358h19l149 -357l106 377h-89v38h206v-39h-75l-135 -464h-19l-153 368l-154 -368h-18z" />
    <glyph glyph-name="x" unicode="x" horiz-adv-x="569" 
d="M31 0v39h68l161 208l-150 197h-71v39h189v-38h-70l127 -173l128 173h-71v38h188v-39h-71l-149 -195l160 -210h68v-39h-195v37h79l-137 186l-140 -186h81v-37h-195z" />
    <glyph glyph-name="y" unicode="y" horiz-adv-x="580" 
d="M227 -148c-37 -57 -74 -84 -121 -84c-38 0 -66 20 -66 49c0 22 15 37 36 37c25 0 42 -24 41 -47c26 5 52 23 80 68c14 22 29 51 45 87l27 60l-186 422h-72v39h207v-39h-85l158 -375l162 375h-88v39h204v-39h-72l-227 -510c-15 -32 -28 -58 -43 -82z" />
    <glyph glyph-name="z" unicode="z" horiz-adv-x="498" 
d="M48 0v16l328 429h-265v-99h-42v137h376v-16l-328 -429h291v98h41v-136h-401z" />
    <glyph glyph-name="a.sc" horiz-adv-x="685" 
d="M341 543l-113 -297h226zM200 579h285v-39h-99l193 -501h85v-39h-237v39h106l-64 166h-256l-63 -166h106v-39h-236v39h86l192 501h-98v39z" />
    <glyph glyph-name="b.sc" horiz-adv-x="613" 
d="M339 0h-286v39h109v501h-109v39h280c138 0 192 -68 192 -145c0 -71 -47 -121 -120 -137c82 -16 136 -61 136 -140c0 -94 -72 -157 -202 -157zM207 315h123c102 0 150 49 150 115c0 64 -49 110 -148 110h-125v-225zM207 39h135c98 0 153 48 153 120c0 79 -62 117 -165 117
h-123v-237z" />
    <glyph glyph-name="c.sc" horiz-adv-x="651" 
d="M551 113l26 -32c-56 -57 -135 -91 -219 -91c-173 0 -293 131 -293 300c0 165 123 300 295 300c120 0 214 -75 214 -143c0 -31 -17 -52 -43 -52c-21 0 -37 15 -37 37c0 19 11 30 26 36c-13 36 -74 81 -160 81c-143 0 -248 -113 -248 -259c0 -149 104 -259 246 -259
c77 0 141 31 193 82z" />
    <glyph glyph-name="d.sc" horiz-adv-x="707" 
d="M308 0h-253v39h110v501h-110v39h253c203 0 333 -110 333 -283c0 -175 -121 -296 -333 -296zM210 39h103c184 0 282 106 282 257s-113 244 -287 244h-98v-501z" />
    <glyph glyph-name="e.sc" 
d="M513 0h-460v39h109v501h-109v39h460v-152h-43v113h-263v-226h210v-41h-210v-234h263v113h43v-152z" />
    <glyph glyph-name="f.sc" horiz-adv-x="566" 
d="M322 0h-269v39h109v501h-109v39h458v-152h-43v113h-261v-233h204v-40h-204v-228h115v-39z" />
    <glyph glyph-name="g.sc" horiz-adv-x="690" 
d="M363 550c-149 0 -251 -117 -251 -263c0 -151 108 -256 244 -256c77 0 140 26 194 68v138h-172v39h216v-276h-43v58c-52 -43 -116 -68 -199 -68c-152 0 -287 116 -287 297c0 178 136 303 300 303c134 0 222 -75 222 -134c0 -31 -18 -51 -43 -51c-20 0 -36 14 -36 36
c0 18 10 29 24 35c-19 33 -82 74 -169 74z" />
    <glyph glyph-name="h.sc" horiz-adv-x="777" 
d="M53 0v39h109v501h-109v39h265v-39h-111v-227h362v227h-110v39h265v-39h-110v-501h110v-39h-265v39h110v233h-362v-233h111v-39h-265z" />
    <glyph glyph-name="i.sc" horiz-adv-x="376" 
d="M323 0h-270v39h112v501h-112v39h270v-39h-113v-501h113v-39z" />
    <glyph glyph-name="j.sc" horiz-adv-x="518" 
d="M208 32c36 0 67 12 90 36c27 29 41 76 41 140v332h-112v39h257v-39h-100v-334c0 -73 -16 -131 -53 -167c-31 -32 -73 -49 -124 -49c-91 0 -165 64 -165 145c0 34 18 56 44 56c20 0 37 -14 37 -37c0 -19 -13 -34 -33 -39c3 -36 48 -83 118 -83z" />
    <glyph glyph-name="k.sc" horiz-adv-x="668" 
d="M556 539l-213 -215l201 -285h104v-39h-131l-205 293l-103 -103v-151h108l1 -39h-265v39h111v501h-111v39h260v-39h-104v-297l294 297h-104v39h238v-40h-81z" />
    <glyph glyph-name="l.sc" horiz-adv-x="554" 
d="M460 39v117h43v-156h-450v39h109v501h-109v39h268v-39h-114v-501h253z" />
    <glyph glyph-name="m.sc" horiz-adv-x="854" 
d="M635 579h152v-39h-105l23 -501h103v-39h-258v39h109l-17 465l-206 -423h-18l-207 423l-17 -465h110v-39h-257v39h104l21 501h-105v39h152l208 -427z" />
    <glyph glyph-name="n.sc" horiz-adv-x="764" 
d="M203 579l369 -489v450h-111v39h263v-39h-109v-543h-27l-383 507v-465h111v-39h-263v39h109v501h-109v39h150z" />
    <glyph glyph-name="o.sc" horiz-adv-x="718" 
d="M359 590c174 0 294 -132 294 -299c0 -169 -120 -301 -295 -301c-173 0 -293 132 -293 301c0 167 120 299 294 299zM358 31c146 0 248 110 248 260c0 147 -102 258 -247 258s-247 -110 -247 -258c0 -150 102 -260 246 -260z" />
    <glyph glyph-name="p.sc" horiz-adv-x="569" 
d="M308 257c105 0 164 57 164 144c0 85 -69 139 -166 139h-99v-281c27 -1 62 -2 101 -2zM53 579h253c123 0 212 -70 212 -178c0 -113 -80 -183 -213 -183c-36 0 -72 0 -98 2v-181h112v-39h-266v39h109v501h-109v39z" />
    <glyph glyph-name="q.sc" horiz-adv-x="718" 
d="M599 -121c-76 0 -131 53 -185 84c-29 17 -58 24 -94 30c-63 11 -118 34 -159 71c-60 52 -96 135 -96 227c0 167 120 299 294 299s294 -132 294 -299c0 -150 -97 -268 -239 -288c20 -6 35 -13 59 -27c47 -29 79 -54 125 -54c26 0 45 6 71 22l20 -37
c-28 -21 -58 -28 -90 -28zM358 31c144 0 248 113 248 260s-102 258 -247 258s-247 -110 -247 -258c0 -80 30 -150 80 -196c42 -40 100 -64 166 -64z" />
    <glyph glyph-name="q.sc_alt" horiz-adv-x="718" 
d="M653 291c0 -116 -56 -214 -147 -264l63 -101l-35 -22l-66 105c-34 -12 -70 -19 -110 -19c-173 0 -293 132 -293 301c0 167 120 299 294 299s294 -132 294 -299zM606 291c0 147 -102 258 -247 258s-247 -110 -247 -258c0 -150 102 -260 246 -260c31 0 60 5 87 14l-72 115
l35 23l75 -120c76 43 123 126 123 228z" />
    <glyph glyph-name="r.sc" horiz-adv-x="621" 
d="M307 540h-100v-255c29 -1 63 -2 94 -2c102 0 173 47 173 132c0 78 -65 125 -167 125zM207 244v-205h112v-39h-266v39h109v501h-109v39h256c129 0 209 -64 209 -164c0 -82 -56 -140 -137 -160l134 -216h93v-39h-124l-148 244c-16 -1 -30 -1 -40 -1c-27 0 -64 0 -89 1z" />
    <glyph glyph-name="s.sc" horiz-adv-x="531" 
d="M377 472c0 14 8 27 17 34c-12 24 -65 46 -120 46c-86 0 -142 -45 -142 -107c0 -71 75 -99 150 -128c92 -34 183 -70 183 -168c0 -97 -87 -159 -202 -159c-120 0 -197 61 -197 113c0 29 16 48 38 48s37 -15 37 -36c0 -15 -7 -28 -17 -36c18 -23 66 -49 140 -49
c96 0 156 47 156 117c0 69 -77 100 -148 126c-95 36 -186 70 -186 168c0 88 75 149 190 149c99 0 177 -50 177 -110c0 -27 -18 -45 -37 -45c-24 0 -39 16 -39 37z" />
    <glyph glyph-name="t.sc" horiz-adv-x="609" 
d="M170 0v39h112v501h-183v-113h-43v152h497v-152h-44v113h-182v-501h112v-39h-269z" />
    <glyph glyph-name="u.sc" horiz-adv-x="717" 
d="M186 540v-332c0 -113 65 -178 173 -178c107 0 172 64 172 178v332h-111v39h260v-39h-104v-332c0 -141 -81 -218 -218 -218s-217 76 -217 217v333h-104v39h260v-39h-111z" />
    <glyph glyph-name="v.sc" horiz-adv-x="663" 
d="M318 -10l-218 550h-84v39h238v-39h-106l185 -477l185 477h-105v39h234v-39h-83l-218 -550h-28z" />
    <glyph glyph-name="w.sc" horiz-adv-x="922" 
d="M278 -14l-169 554h-92v39h247v-39h-107l140 -467l155 426h21l156 -426l140 467h-107v39h243v-39h-92l-168 -554h-27l-157 432l-156 -432h-27z" />
    <glyph glyph-name="x.sc" horiz-adv-x="659" 
d="M629 40v-40h-229v39h90l-164 230l-166 -230h98v-39h-231v40h83l189 255l-177 245h-83v39h232v-39h-96l152 -216l155 216h-95v39h230v-39h-86l-178 -243l189 -257h87z" />
    <glyph glyph-name="y.sc" horiz-adv-x="630" 
d="M616 579v-39h-88l-191 -320v-181h111v-39h-267v39h111v181l-189 320h-90v39h242v-39h-102l163 -282l164 282h-102v39h238z" />
    <glyph glyph-name="z.sc" horiz-adv-x="564" 
d="M59 0v24l384 516h-327v-110h-43v149h434v-24l-383 -516h343v110h44v-149h-452z" />
    <glyph glyph-name="Aacute" unicode="&#xc1;" horiz-adv-x="789" 
d="M358 791l-11 17l136 110c13 11 24 18 36 18c15 0 30 -13 30 -33c0 -12 -13 -26 -32 -36zM253 307h282l-141 380zM27 0v41h79l241 642h-91v41h277v-41h-90l241 -642h79v-41h-224v41h94l-84 226h-311l-84 -226h96v-41h-223z" />
    <glyph glyph-name="aacute" unicode="&#xe1;" horiz-adv-x="564" 
d="M231 584l-11 18l144 116c14 11 25 18 37 18c17 0 32 -13 32 -35c0 -12 -14 -26 -34 -37zM229 30c68 0 126 38 167 84v99c-44 15 -99 25 -152 25c-94 0 -138 -49 -138 -105c0 -54 39 -103 123 -103zM223 -8c-101 0 -161 61 -161 139c0 86 75 145 180 145
c55 0 119 -14 154 -28v87c0 30 -9 56 -25 75c-22 26 -60 42 -113 42c-55 0 -86 -17 -105 -35c7 -8 11 -19 11 -31c0 -19 -14 -36 -36 -36c-23 0 -37 17 -37 39c0 47 62 102 171 102c63 0 113 -19 143 -52c22 -25 34 -57 34 -96v-304h83v-39h-125v72
c-39 -42 -104 -80 -174 -80z" />
    <glyph glyph-name="aacute.sc" horiz-adv-x="685" 
d="M305 660l-11 18l144 116c14 11 25 18 37 18c17 0 32 -13 32 -35c0 -12 -14 -26 -34 -37zM341 543l-113 -297h226zM200 579h285v-39h-99l193 -501h85v-39h-237v39h106l-64 166h-256l-63 -166h106v-39h-236v39h86l192 501h-98v39z" />
    <glyph glyph-name="Abreve" unicode="&#x102;" horiz-adv-x="789" 
d="M395 791c-73 0 -128 52 -153 120l33 15c22 -54 66 -86 120 -86c56 0 98 35 119 86l33 -15c-25 -68 -80 -120 -152 -120zM253 307h282l-141 380zM27 0v41h79l241 642h-91v41h277v-41h-90l241 -642h79v-41h-224v41h94l-84 226h-311l-84 -226h96v-41h-223z" />
    <glyph glyph-name="abreve" unicode="&#x103;" horiz-adv-x="564" 
d="M271 584c-76 0 -135 55 -161 126l34 16c24 -57 71 -91 127 -91c59 0 103 37 126 91l34 -16c-26 -71 -85 -126 -160 -126zM229 30c68 0 126 38 167 84v99c-44 15 -99 25 -152 25c-94 0 -138 -49 -138 -105c0 -54 39 -103 123 -103zM223 -8c-101 0 -161 61 -161 139
c0 86 75 145 180 145c55 0 119 -14 154 -28v87c0 30 -9 56 -25 75c-22 26 -60 42 -113 42c-55 0 -86 -17 -105 -35c7 -8 11 -19 11 -31c0 -19 -14 -36 -36 -36c-23 0 -37 17 -37 39c0 47 62 102 171 102c63 0 113 -19 143 -52c22 -25 34 -57 34 -96v-304h83v-39h-125v72
c-39 -42 -104 -80 -174 -80z" />
    <glyph glyph-name="abreve.sc" horiz-adv-x="685" 
d="M346 660c-76 0 -135 55 -161 126l34 16c24 -57 71 -91 127 -91c59 0 103 37 126 91l34 -16c-26 -71 -85 -126 -160 -126zM341 543l-113 -297h226zM200 579h285v-39h-99l193 -501h85v-39h-237v39h106l-64 166h-256l-63 -166h106v-39h-236v39h86l192 501h-98v39z" />
    <glyph glyph-name="Acircumflex" unicode="&#xc2;" horiz-adv-x="789" 
d="M264 784l-19 23l150 140l149 -140l-19 -23l-130 99zM253 307h282l-141 380zM27 0v41h79l241 642h-91v41h277v-41h-90l241 -642h79v-41h-224v41h94l-84 226h-311l-84 -226h96v-41h-223z" />
    <glyph glyph-name="acircumflex" unicode="&#xe2;" horiz-adv-x="564" 
d="M133 577l-20 24l158 147l157 -147l-20 -24l-137 104zM229 30c68 0 126 38 167 84v99c-44 15 -99 25 -152 25c-94 0 -138 -49 -138 -105c0 -54 39 -103 123 -103zM223 -8c-101 0 -161 61 -161 139c0 86 75 145 180 145c55 0 119 -14 154 -28v87c0 30 -9 56 -25 75
c-22 26 -60 42 -113 42c-55 0 -86 -17 -105 -35c7 -8 11 -19 11 -31c0 -19 -14 -36 -36 -36c-23 0 -37 17 -37 39c0 47 62 102 171 102c63 0 113 -19 143 -52c22 -25 34 -57 34 -96v-304h83v-39h-125v72c-39 -42 -104 -80 -174 -80z" />
    <glyph glyph-name="acircumflex.sc" horiz-adv-x="685" 
d="M208 653l-20 24l158 147l157 -147l-20 -24l-137 104zM341 543l-113 -297h226zM200 579h285v-39h-99l193 -501h85v-39h-237v39h106l-64 166h-256l-63 -166h106v-39h-236v39h86l192 501h-98v39z" />
    <glyph glyph-name="Adieresis" unicode="&#xc4;" horiz-adv-x="789" 
d="M318 809c-24 0 -42 20 -42 43c0 25 18 44 42 44s42 -19 42 -44c0 -23 -18 -43 -42 -43zM471 809c-24 0 -42 20 -42 43c0 25 18 44 42 44s42 -19 42 -44c0 -23 -18 -43 -42 -43zM253 307h282l-141 380zM27 0v41h79l241 642h-91v41h277v-41h-90l241 -642h79v-41h-224v41h94
l-84 226h-311l-84 -226h96v-41h-223z" />
    <glyph glyph-name="adieresis" unicode="&#xe4;" horiz-adv-x="564" 
d="M190 603c-25 0 -44 21 -44 46s19 46 44 46c26 0 45 -21 45 -46s-19 -46 -45 -46zM351 603c-25 0 -44 21 -44 46s19 46 44 46s44 -21 44 -46s-19 -46 -44 -46zM229 30c68 0 126 38 167 84v99c-44 15 -99 25 -152 25c-94 0 -138 -49 -138 -105c0 -54 39 -103 123 -103z
M223 -8c-101 0 -161 61 -161 139c0 86 75 145 180 145c55 0 119 -14 154 -28v87c0 30 -9 56 -25 75c-22 26 -60 42 -113 42c-55 0 -86 -17 -105 -35c7 -8 11 -19 11 -31c0 -19 -14 -36 -36 -36c-23 0 -37 17 -37 39c0 47 62 102 171 102c63 0 113 -19 143 -52
c22 -25 34 -57 34 -96v-304h83v-39h-125v72c-39 -42 -104 -80 -174 -80z" />
    <glyph glyph-name="adieresis.sc" horiz-adv-x="685" 
d="M265 679c-25 0 -44 21 -44 46s19 46 44 46c26 0 45 -21 45 -46s-19 -46 -45 -46zM426 679c-25 0 -44 21 -44 46s19 46 44 46s44 -21 44 -46s-19 -46 -44 -46zM341 543l-113 -297h226zM200 579h285v-39h-99l193 -501h85v-39h-237v39h106l-64 166h-256l-63 -166h106v-39
h-236v39h86l192 501h-98v39z" />
    <glyph glyph-name="AE" unicode="&#xc6;" horiz-adv-x="958" 
d="M256 308h208v375h-16zM-12 0v41h86l327 642h-86v41h558v-162h-45v121h-317v-292h255v-42h-255v-308h317v120h45v-161h-504v41h95v227h-228l-115 -227h84v-41h-217z" />
    <glyph glyph-name="ae" unicode="&#xe6;" horiz-adv-x="887" 
d="M611 452c-91 0 -167 -72 -178 -178h351c-5 100 -62 178 -173 178zM258 452c-55 0 -86 -17 -105 -35c7 -8 11 -19 11 -31c0 -19 -14 -36 -36 -36c-23 0 -37 17 -37 39c0 47 62 102 171 102c62 0 111 -19 140 -55c13 -16 21 -34 26 -55c38 67 105 110 186 110
c139 0 215 -108 215 -226c0 -13 -1 -22 -3 -29h-394c5 -136 84 -204 206 -204c66 0 116 21 169 55l-5 -45c-47 -32 -106 -50 -169 -50c-91 0 -161 36 -200 100c-64 -69 -137 -100 -210 -100c-101 0 -161 61 -161 139c0 86 75 145 180 145c55 0 119 -14 154 -28v83
c0 31 -9 57 -25 76c-22 27 -61 45 -113 45zM229 30c68 0 130 29 189 89c-12 28 -20 59 -22 94c-50 16 -101 25 -152 25c-94 0 -138 -49 -138 -105c0 -54 39 -103 123 -103z" />
    <glyph glyph-name="ae.sc" horiz-adv-x="812" 
d="M377 540l-157 -290h164v290h-7zM275 0v39h109v171h-185l-92 -171h96v-39h-217v39h75l272 501h-93v39h494v-152h-42v113h-263v-226h209v-41h-209v-234h263v113h42v-152h-459z" />
    <glyph glyph-name="AEacute" unicode="&#x1fc;" horiz-adv-x="958" 
d="M490 791l-11 17l136 110c13 11 24 18 36 18c15 0 30 -13 30 -33c0 -12 -13 -26 -32 -36zM256 308h208v375h-16zM-12 0v41h86l327 642h-86v41h558v-162h-45v121h-317v-292h255v-42h-255v-308h317v120h45v-161h-504v41h95v227h-228l-115 -227h84v-41h-217z" />
    <glyph glyph-name="aeacute" unicode="&#x1fd;" horiz-adv-x="887" 
d="M399 584l-11 18l144 116c14 11 25 18 37 18c17 0 32 -13 32 -35c0 -12 -14 -26 -34 -37zM611 452c-91 0 -167 -72 -178 -178h351c-5 100 -62 178 -173 178zM258 452c-55 0 -86 -17 -105 -35c7 -8 11 -19 11 -31c0 -19 -14 -36 -36 -36c-23 0 -37 17 -37 39
c0 47 62 102 171 102c62 0 111 -19 140 -55c13 -16 21 -34 26 -55c38 67 105 110 186 110c139 0 215 -108 215 -226c0 -13 -1 -22 -3 -29h-394c5 -136 84 -204 206 -204c66 0 116 21 169 55l-5 -45c-47 -32 -106 -50 -169 -50c-91 0 -161 36 -200 100
c-64 -69 -137 -100 -210 -100c-101 0 -161 61 -161 139c0 86 75 145 180 145c55 0 119 -14 154 -28v83c0 31 -9 57 -25 76c-22 27 -61 45 -113 45zM229 30c68 0 130 29 189 89c-12 28 -20 59 -22 94c-50 16 -101 25 -152 25c-94 0 -138 -49 -138 -105
c0 -54 39 -103 123 -103z" />
    <glyph glyph-name="aeacute.sc" horiz-adv-x="812" 
d="M408 660l-11 18l144 116c14 11 25 18 37 18c17 0 32 -13 32 -35c0 -12 -14 -26 -34 -37zM377 540l-157 -290h164v290h-7zM275 0v39h109v171h-185l-92 -171h96v-39h-217v39h75l272 501h-93v39h494v-152h-42v113h-263v-226h209v-41h-209v-234h263v113h42v-152h-459z" />
    <glyph glyph-name="Agrave" unicode="&#xc0;" horiz-adv-x="789" 
d="M431 791l-159 76c-19 10 -32 24 -32 36c0 20 15 33 30 33c12 0 23 -7 36 -18l136 -110zM253 307h282l-141 380zM27 0v41h79l241 642h-91v41h277v-41h-90l241 -642h79v-41h-224v41h94l-84 226h-311l-84 -226h96v-41h-223z" />
    <glyph glyph-name="agrave" unicode="&#xe0;" horiz-adv-x="564" 
d="M309 584l-168 80c-20 11 -34 25 -34 37c0 22 16 35 32 35c12 0 24 -7 37 -18l144 -116zM229 30c68 0 126 38 167 84v99c-44 15 -99 25 -152 25c-94 0 -138 -49 -138 -105c0 -54 39 -103 123 -103zM223 -8c-101 0 -161 61 -161 139c0 86 75 145 180 145
c55 0 119 -14 154 -28v87c0 30 -9 56 -25 75c-22 26 -60 42 -113 42c-55 0 -86 -17 -105 -35c7 -8 11 -19 11 -31c0 -19 -14 -36 -36 -36c-23 0 -37 17 -37 39c0 47 62 102 171 102c63 0 113 -19 143 -52c22 -25 34 -57 34 -96v-304h83v-39h-125v72
c-39 -42 -104 -80 -174 -80z" />
    <glyph glyph-name="agrave.sc" horiz-adv-x="685" 
d="M387 660l-168 80c-20 11 -34 25 -34 37c0 22 16 35 32 35c12 0 24 -7 37 -18l144 -116zM341 543l-113 -297h226zM200 579h285v-39h-99l193 -501h85v-39h-237v39h106l-64 166h-256l-63 -166h106v-39h-236v39h86l192 501h-98v39z" />
    <glyph glyph-name="Amacron" unicode="&#x100;" horiz-adv-x="789" 
d="M239 825v43h311v-43h-311zM253 307h282l-141 380zM27 0v41h79l241 642h-91v41h277v-41h-90l241 -642h79v-41h-224v41h94l-84 226h-311l-84 -226h96v-41h-223z" />
    <glyph glyph-name="amacron" unicode="&#x101;" horiz-adv-x="564" 
d="M107 620v45h327v-45h-327zM229 30c68 0 126 38 167 84v99c-44 15 -99 25 -152 25c-94 0 -138 -49 -138 -105c0 -54 39 -103 123 -103zM223 -8c-101 0 -161 61 -161 139c0 86 75 145 180 145c55 0 119 -14 154 -28v87c0 30 -9 56 -25 75c-22 26 -60 42 -113 42
c-55 0 -86 -17 -105 -35c7 -8 11 -19 11 -31c0 -19 -14 -36 -36 -36c-23 0 -37 17 -37 39c0 47 62 102 171 102c63 0 113 -19 143 -52c22 -25 34 -57 34 -96v-304h83v-39h-125v72c-39 -42 -104 -80 -174 -80z" />
    <glyph glyph-name="amacron.sc" horiz-adv-x="685" 
d="M182 696v45h327v-45h-327zM341 543l-113 -297h226zM200 579h285v-39h-99l193 -501h85v-39h-237v39h106l-64 166h-256l-63 -166h106v-39h-236v39h86l192 501h-98v39z" />
    <glyph glyph-name="Aogonek" unicode="&#x104;" horiz-adv-x="789" 
d="M656 -221c-69 0 -105 39 -105 94c0 51 34 96 83 127h-95v41h94l-84 226h-311l-84 -226h96v-41h-223v41h79l241 642h-91v41h277v-41h-90l241 -642h79v-41h-72c-62 -29 -99 -74 -99 -120c0 -38 23 -64 68 -64c34 0 61 10 84 23l-3 -34c-14 -11 -46 -26 -85 -26zM253 307
h282l-141 380z" />
    <glyph glyph-name="aogonek" unicode="&#x105;" horiz-adv-x="564" 
d="M420 -233c-73 0 -111 41 -111 99c0 53 36 102 88 134v72c-39 -42 -104 -80 -174 -80c-101 0 -161 61 -161 139c0 86 75 145 180 145c55 0 119 -14 154 -28v87c0 30 -9 56 -25 75c-22 26 -60 42 -113 42c-55 0 -86 -17 -105 -35c7 -8 11 -19 11 -31c0 -19 -14 -36 -36 -36
c-23 0 -37 17 -37 39c0 47 62 102 171 102c63 0 113 -19 143 -52c22 -25 34 -57 34 -96v-304h83v-39h-66c-66 -31 -104 -77 -104 -127c0 -40 25 -68 72 -68c36 0 64 11 88 25l-3 -36c-15 -12 -48 -27 -89 -27zM229 30c68 0 126 38 167 84v99c-44 15 -99 25 -152 25
c-94 0 -138 -49 -138 -105c0 -54 39 -103 123 -103z" />
    <glyph glyph-name="aogonek.sc" horiz-adv-x="685" 
d="M554 -233c-73 0 -111 41 -111 99c0 53 35 101 87 134h-103v39h106l-64 166h-256l-63 -166h106v-39h-236v39h86l192 501h-98v39h285v-39h-99l193 -501h85v-39h-74c-66 -31 -104 -77 -104 -127c0 -40 25 -68 72 -68c36 0 64 11 88 25l-3 -36c-15 -12 -48 -27 -89 -27z
M341 543l-113 -297h226z" />
    <glyph glyph-name="Aring" unicode="&#xc5;" horiz-adv-x="789" 
d="M394 726c38 0 65 31 65 69s-27 70 -65 70c-37 0 -64 -32 -64 -70s27 -69 64 -69zM253 307h282l-141 380zM496 799c0 -29 -13 -57 -37 -75h74v-41h-90l241 -642h79v-41h-224v41h94l-84 226h-311l-84 -226h96v-41h-223v41h79l241 642h-91v41h73c-23 18 -36 45 -36 75
c0 53 44 100 101 100s102 -47 102 -100z" />
    <glyph glyph-name="aring" unicode="&#xe5;" horiz-adv-x="564" 
d="M271 573c-60 0 -107 49 -107 109c0 59 47 109 107 109s106 -50 106 -109c0 -60 -46 -109 -106 -109zM271 609c40 0 67 32 67 73c0 40 -27 73 -67 73s-68 -33 -68 -73c0 -41 28 -73 68 -73zM229 30c68 0 126 38 167 84v99c-44 15 -99 25 -152 25c-94 0 -138 -49 -138 -105
c0 -54 39 -103 123 -103zM223 -8c-101 0 -161 61 -161 139c0 86 75 145 180 145c55 0 119 -14 154 -28v87c0 30 -9 56 -25 75c-22 26 -60 42 -113 42c-55 0 -86 -17 -105 -35c7 -8 11 -19 11 -31c0 -19 -14 -36 -36 -36c-23 0 -37 17 -37 39c0 47 62 102 171 102
c63 0 113 -19 143 -52c22 -25 34 -57 34 -96v-304h83v-39h-125v72c-39 -42 -104 -80 -174 -80z" />
    <glyph glyph-name="aring.sc" horiz-adv-x="685" 
d="M341 581c39 0 67 31 67 71c0 39 -28 70 -67 70s-67 -31 -67 -70c0 -40 28 -71 67 -71zM341 543l-113 -297h226zM256 0h-236v39h86l192 501h-98v39h70c-20 18 -33 43 -33 73c0 58 46 106 104 106c59 0 104 -48 104 -106c0 -30 -13 -56 -34 -73h74v-39h-99l193 -501h85v-39
h-237v39h106l-64 166h-256l-63 -166h106v-39z" />
    <glyph glyph-name="Aringacute" unicode="&#x1fa;" horiz-adv-x="789" 
d="M357 945l-11 17l136 110c13 11 24 18 36 18c15 0 30 -13 30 -33c0 -12 -13 -26 -32 -36zM394 726c38 0 65 31 65 69s-27 70 -65 70c-37 0 -64 -32 -64 -70s27 -69 64 -69zM253 307h282l-141 380zM496 799c0 -29 -13 -57 -37 -75h74v-41h-90l241 -642h79v-41h-224v41h94
l-84 226h-311l-84 -226h96v-41h-223v41h79l241 642h-91v41h73c-23 18 -36 45 -36 75c0 53 44 100 101 100s102 -47 102 -100z" />
    <glyph glyph-name="aringacute" unicode="&#x1fb;" horiz-adv-x="564" 
d="M242 855l-11 18l144 116c14 11 25 18 37 18c17 0 32 -13 32 -35c0 -12 -14 -26 -34 -37zM282 573c-60 0 -107 49 -107 109c0 59 47 109 107 109s106 -50 106 -109c0 -60 -46 -109 -106 -109zM282 609c40 0 67 32 67 73c0 40 -27 73 -67 73s-68 -33 -68 -73
c0 -41 28 -73 68 -73zM229 30c68 0 126 38 167 84v99c-44 15 -99 25 -152 25c-94 0 -138 -49 -138 -105c0 -54 39 -103 123 -103zM223 -8c-101 0 -161 61 -161 139c0 86 75 145 180 145c55 0 119 -14 154 -28v87c0 30 -9 56 -25 75c-22 26 -60 42 -113 42
c-55 0 -86 -17 -105 -35c7 -8 11 -19 11 -31c0 -19 -14 -36 -36 -36c-23 0 -37 17 -37 39c0 47 62 102 171 102c63 0 113 -19 143 -52c22 -25 34 -57 34 -96v-304h83v-39h-125v72c-39 -42 -104 -80 -174 -80z" />
    <glyph glyph-name="aringacute.sc" horiz-adv-x="685" 
d="M298 817l-11 18l144 116c14 11 25 18 37 18c17 0 32 -13 32 -35c0 -12 -14 -26 -34 -37zM341 581c39 0 67 31 67 71c0 39 -28 70 -67 70s-67 -31 -67 -70c0 -40 28 -71 67 -71zM341 543l-113 -297h226zM256 0h-236v39h86l192 501h-98v39h70c-20 18 -33 43 -33 73
c0 58 46 106 104 106c59 0 104 -48 104 -106c0 -30 -13 -56 -34 -73h74v-39h-99l193 -501h85v-39h-237v39h106l-64 166h-256l-63 -166h106v-39z" />
    <glyph glyph-name="Atilde" unicode="&#xc3;" horiz-adv-x="789" 
d="M473 792c-37 0 -61 17 -91 41c-27 21 -42 30 -60 30c-29 0 -46 -24 -55 -65l-35 7c6 58 41 103 88 103c37 0 61 -16 91 -40c27 -22 42 -30 60 -30c29 0 46 23 55 64l35 -7c-6 -57 -41 -103 -88 -103zM253 307h282l-141 380zM27 0v41h79l241 642h-91v41h277v-41h-90
l241 -642h79v-41h-224v41h94l-84 226h-311l-84 -226h96v-41h-223z" />
    <glyph glyph-name="atilde" unicode="&#xe3;" horiz-adv-x="564" 
d="M352 586c-38 0 -64 17 -95 42c-29 22 -45 32 -64 32c-30 0 -48 -25 -58 -69l-37 8c7 60 44 108 93 108c39 0 64 -17 96 -42c28 -23 44 -32 63 -32c30 0 48 25 58 68l37 -8c-6 -59 -43 -107 -93 -107zM229 30c68 0 126 38 167 84v99c-44 15 -99 25 -152 25
c-94 0 -138 -49 -138 -105c0 -54 39 -103 123 -103zM223 -8c-101 0 -161 61 -161 139c0 86 75 145 180 145c55 0 119 -14 154 -28v87c0 30 -9 56 -25 75c-22 26 -60 42 -113 42c-55 0 -86 -17 -105 -35c7 -8 11 -19 11 -31c0 -19 -14 -36 -36 -36c-23 0 -37 17 -37 39
c0 47 62 102 171 102c63 0 113 -19 143 -52c22 -25 34 -57 34 -96v-304h83v-39h-125v72c-39 -42 -104 -80 -174 -80z" />
    <glyph glyph-name="atilde.sc" horiz-adv-x="685" 
d="M429 662c-38 0 -64 17 -95 42c-29 22 -45 32 -64 32c-30 0 -48 -25 -58 -69l-37 8c7 60 44 108 93 108c39 0 64 -17 96 -42c28 -23 44 -32 63 -32c30 0 48 25 58 68l37 -8c-6 -59 -43 -107 -93 -107zM341 543l-113 -297h226zM200 579h285v-39h-99l193 -501h85v-39h-237
v39h106l-64 166h-256l-63 -166h106v-39h-236v39h86l192 501h-98v39z" />
    <glyph glyph-name="Cacute" unicode="&#x106;" horiz-adv-x="785" 
d="M396 791l-11 17l136 110c13 11 24 18 36 18c15 0 30 -13 30 -33c0 -12 -13 -26 -32 -36zM435 -12c-220 0 -363 176 -363 368c0 219 164 380 359 380c149 0 267 -94 267 -182c0 -31 -20 -53 -48 -53c-22 0 -40 18 -40 41c0 21 15 38 35 42c-15 46 -95 111 -214 111
c-182 0 -310 -157 -310 -337c0 -175 128 -329 314 -329c93 0 171 35 238 98l25 -33c-72 -70 -163 -106 -263 -106z" />
    <glyph glyph-name="cacute" unicode="&#x107;" horiz-adv-x="544" 
d="M255 584l-11 18l144 116c14 11 25 18 37 18c17 0 32 -13 32 -35c0 -12 -14 -26 -34 -37zM311 -8c-142 0 -251 101 -251 245c0 143 109 254 238 254c103 0 185 -67 185 -135c0 -26 -18 -48 -44 -48c-17 0 -34 11 -34 35c0 17 9 30 28 38c-14 41 -73 71 -134 71
c-95 0 -192 -81 -192 -216c0 -121 87 -204 209 -204c54 0 105 16 157 51l-4 -44c-45 -32 -108 -47 -158 -47z" />
    <glyph glyph-name="cacute.sc" horiz-adv-x="651" 
d="M310 660l-11 18l144 116c14 11 25 18 37 18c17 0 32 -13 32 -35c0 -12 -14 -26 -34 -37zM551 113l26 -32c-56 -57 -135 -91 -219 -91c-173 0 -293 131 -293 300c0 165 123 300 295 300c120 0 214 -75 214 -143c0 -31 -17 -52 -43 -52c-21 0 -37 15 -37 37
c0 19 11 30 26 36c-13 36 -74 81 -160 81c-143 0 -248 -113 -248 -259c0 -149 104 -259 246 -259c77 0 141 31 193 82z" />
    <glyph glyph-name="Ccaron" unicode="&#x10c;" horiz-adv-x="785" 
d="M562 950l19 -23l-149 -140l-150 140l19 23l131 -99zM435 -12c-220 0 -363 176 -363 368c0 219 164 380 359 380c149 0 267 -94 267 -182c0 -31 -20 -53 -48 -53c-22 0 -40 18 -40 41c0 21 15 38 35 42c-15 46 -95 111 -214 111c-182 0 -310 -157 -310 -337
c0 -175 128 -329 314 -329c93 0 171 35 238 98l25 -33c-72 -70 -163 -106 -263 -106z" />
    <glyph glyph-name="ccaron" unicode="&#x10d;" horiz-adv-x="544" 
d="M431 751l20 -24l-157 -147l-158 147l20 24l138 -104zM311 -8c-142 0 -251 101 -251 245c0 143 109 254 238 254c103 0 185 -67 185 -135c0 -26 -18 -48 -44 -48c-17 0 -34 11 -34 35c0 17 9 30 28 38c-14 41 -73 71 -134 71c-95 0 -192 -81 -192 -216
c0 -121 87 -204 209 -204c54 0 105 16 157 51l-4 -44c-45 -32 -108 -47 -158 -47z" />
    <glyph glyph-name="ccaron.sc" horiz-adv-x="651" 
d="M489 827l20 -24l-157 -147l-158 147l20 24l138 -104zM551 113l26 -32c-56 -57 -135 -91 -219 -91c-173 0 -293 131 -293 300c0 165 123 300 295 300c120 0 214 -75 214 -143c0 -31 -17 -52 -43 -52c-21 0 -37 15 -37 37c0 19 11 30 26 36c-13 36 -74 81 -160 81
c-143 0 -248 -113 -248 -259c0 -149 104 -259 246 -259c77 0 141 31 193 82z" />
    <glyph glyph-name="Ccedilla" unicode="&#xc7;" horiz-adv-x="785" 
d="M428 -220c-38 0 -76 9 -108 25l11 28c26 -12 66 -21 93 -21c40 0 61 19 61 43s-20 42 -67 43c-7 0 -16 -1 -21 -2l-13 9l22 85c-204 14 -334 182 -334 366c0 219 164 380 359 380c149 0 267 -94 267 -182c0 -31 -20 -53 -48 -53c-22 0 -40 18 -40 41c0 21 15 38 35 42
c-15 46 -95 111 -214 111c-182 0 -310 -157 -310 -337c0 -175 128 -329 314 -329c93 0 171 35 238 98l25 -33c-72 -70 -163 -106 -262 -106h-1l-7 -53c66 -1 99 -34 99 -77c0 -45 -33 -78 -99 -78z" />
    <glyph glyph-name="ccedilla" unicode="&#xe7;" horiz-adv-x="593" 
d="M299 -231c-41 0 -80 10 -115 27l13 28c27 -12 69 -21 97 -21c43 0 65 19 65 45s-22 45 -72 46c-7 0 -16 -2 -21 -3l-14 10l24 93c-125 15 -216 111 -216 243c0 143 109 254 238 254c103 0 185 -67 185 -135c0 -26 -18 -48 -44 -48c-17 0 -34 11 -34 35c0 17 9 30 28 38
c-14 41 -73 71 -134 71c-95 0 -192 -81 -192 -216c0 -121 87 -204 209 -204c54 0 105 16 157 51l-4 -44c-45 -32 -108 -47 -158 -47h-5l-8 -60c70 -1 105 -35 105 -81c0 -47 -35 -82 -104 -82z" />
    <glyph glyph-name="ccedilla.sc" horiz-adv-x="651" 
d="M347 -231c-41 0 -80 10 -115 27l13 28c27 -12 69 -21 97 -21c43 0 65 19 65 45s-22 45 -72 46c-7 0 -16 -2 -21 -3l-14 10l23 91c-154 15 -258 140 -258 298c0 165 123 300 295 300c120 0 214 -75 214 -143c0 -31 -17 -52 -43 -52c-21 0 -37 15 -37 37c0 19 11 30 26 36
c-13 36 -74 81 -160 81c-143 0 -248 -113 -248 -259c0 -149 104 -259 246 -259c77 0 141 31 193 82l26 -32c-56 -57 -135 -91 -219 -91h-4l-8 -58c70 -1 105 -35 105 -81c0 -47 -35 -82 -104 -82z" />
    <glyph glyph-name="Cdotaccent" unicode="&#x10a;" horiz-adv-x="785" 
d="M432 807c-26 0 -45 21 -45 45c0 26 19 47 45 47c25 0 44 -21 44 -47c0 -24 -19 -45 -44 -45zM435 -12c-220 0 -363 176 -363 368c0 219 164 380 359 380c149 0 267 -94 267 -182c0 -31 -20 -53 -48 -53c-22 0 -40 18 -40 41c0 21 15 38 35 42c-15 46 -95 111 -214 111
c-182 0 -310 -157 -310 -337c0 -175 128 -329 314 -329c93 0 171 35 238 98l25 -33c-72 -70 -163 -106 -263 -106z" />
    <glyph glyph-name="cdotaccent" unicode="&#x10b;" horiz-adv-x="544" 
d="M294 601c-27 0 -47 22 -47 48s20 48 47 48c26 0 46 -22 46 -48s-20 -48 -46 -48zM311 -8c-142 0 -251 101 -251 245c0 143 109 254 238 254c103 0 185 -67 185 -135c0 -26 -18 -48 -44 -48c-17 0 -34 11 -34 35c0 17 9 30 28 38c-14 41 -73 71 -134 71
c-95 0 -192 -81 -192 -216c0 -121 87 -204 209 -204c54 0 105 16 157 51l-4 -44c-45 -32 -108 -47 -158 -47z" />
    <glyph glyph-name="cdotaccent.sc" horiz-adv-x="651" 
d="M352 677c-27 0 -47 22 -47 48s20 48 47 48c26 0 46 -22 46 -48s-20 -48 -46 -48zM551 113l26 -32c-56 -57 -135 -91 -219 -91c-173 0 -293 131 -293 300c0 165 123 300 295 300c120 0 214 -75 214 -143c0 -31 -17 -52 -43 -52c-21 0 -37 15 -37 37c0 19 11 30 26 36
c-13 36 -74 81 -160 81c-143 0 -248 -113 -248 -259c0 -149 104 -259 246 -259c77 0 141 31 193 82z" />
    <glyph glyph-name="Dcaron" unicode="&#x10e;" horiz-adv-x="810" 
d="M512 950l19 -23l-149 -140l-150 140l19 23l131 -99zM61 0v41h100v642h-100v41h269c252 0 406 -145 406 -357c0 -216 -148 -367 -404 -367h-271zM209 41h127c234 0 353 134 353 327c0 189 -132 315 -360 315h-120v-642z" />
    <glyph glyph-name="dcaron" unicode="&#x10f;" horiz-adv-x="642" 
d="M584 624l-17 13c25 39 36 73 36 113c0 26 -5 41 -5 61s11 36 33 36c21 0 32 -15 32 -39c0 -64 -34 -132 -79 -184zM297 31c74 0 133 38 178 89v262c-43 38 -101 70 -173 70c-114 0 -193 -92 -194 -212c0 -122 78 -209 189 -209zM294 -8c-130 0 -232 101 -232 248
c0 139 98 251 241 251c65 0 128 -27 172 -69v386h-101v39h145v-808h84v-39h-127v80c-44 -52 -105 -88 -182 -88z" />
    <glyph glyph-name="dcaron.sc" horiz-adv-x="709" 
d="M473 827l20 -24l-157 -147l-158 147l20 24l138 -104zM310 0h-253v39h110v501h-110v39h253c203 0 333 -110 333 -283c0 -175 -121 -296 -333 -296zM212 39h103c184 0 282 106 282 257s-113 244 -287 244h-98v-501z" />
    <glyph glyph-name="Dcroat" unicode="&#x110;" horiz-adv-x="813" 
d="M164 350h-78v42h78v291h-100v41h269c252 0 406 -145 406 -357c0 -216 -148 -367 -404 -367h-271v41h100v309zM211 41h128c234 0 353 134 353 327c0 189 -132 315 -360 315h-121v-291h176v-42h-176v-309z" />
    <glyph glyph-name="dcroat" unicode="&#x111;" horiz-adv-x="642" 
d="M297 31c74 0 133 38 178 89v262c-43 38 -101 70 -173 70c-114 0 -193 -92 -194 -212c0 -122 78 -209 189 -209zM286 630v39h189v139h-101v39h145v-178h84v-39h-84v-591h84v-39h-127v80c-44 -52 -105 -88 -182 -88c-130 0 -232 101 -232 248c0 139 98 251 241 251
c65 0 128 -27 172 -69v208h-189z" />
    <glyph glyph-name="dcroat.sc" horiz-adv-x="709" 
d="M310 0h-253v39h109v238h-86v39h86v224h-109v39h253c203 0 333 -110 333 -283c0 -175 -122 -296 -333 -296zM211 39h104c184 0 282 106 282 257s-113 244 -287 244h-99v-224h138v-39h-138v-238z" />
    <glyph glyph-name="Eacute" unicode="&#xc9;" horiz-adv-x="656" 
d="M290 791l-11 17l136 110c13 11 24 18 36 18c15 0 30 -13 30 -33c0 -12 -13 -26 -32 -36zM62 0v41h100v642h-100v41h510v-162h-45v121h-317v-292h254v-42h-254v-308h317v120h45v-161h-510z" />
    <glyph glyph-name="eacute" unicode="&#xe9;" horiz-adv-x="563" 
d="M246 584l-11 18l144 116c14 11 25 18 37 18c17 0 32 -13 32 -35c0 -12 -14 -26 -34 -37zM501 236h-395c5 -134 85 -204 207 -204c65 0 116 21 168 55l-4 -45c-46 -32 -107 -50 -169 -50c-148 0 -248 99 -248 250c0 137 95 249 229 249c138 0 215 -108 215 -226
c0 -13 -1 -22 -3 -29zM285 452c-91 0 -167 -72 -178 -178h352c-5 100 -63 178 -174 178z" />
    <glyph glyph-name="eacute.sc" horiz-adv-x="593" 
d="M254 660l-11 18l144 116c14 11 25 18 37 18c17 0 32 -13 32 -35c0 -12 -14 -26 -34 -37zM515 0h-460v39h109v501h-109v39h460v-152h-43v113h-263v-226h210v-41h-210v-234h263v113h43v-152z" />
    <glyph glyph-name="Ebreve" unicode="&#x114;" horiz-adv-x="656" 
d="M326 791c-73 0 -128 52 -153 120l33 15c22 -54 66 -86 120 -86c56 0 98 35 119 86l33 -15c-25 -68 -80 -120 -152 -120zM62 0v41h100v642h-100v41h510v-162h-45v121h-317v-292h254v-42h-254v-308h317v120h45v-161h-510z" />
    <glyph glyph-name="ebreve" unicode="&#x115;" horiz-adv-x="563" 
d="M286 584c-76 0 -135 55 -161 126l34 16c24 -57 71 -91 127 -91c59 0 103 37 126 91l34 -16c-26 -71 -85 -126 -160 -126zM501 236h-395c5 -134 85 -204 207 -204c65 0 116 21 168 55l-4 -45c-46 -32 -107 -50 -169 -50c-148 0 -248 99 -248 250c0 137 95 249 229 249
c138 0 215 -108 215 -226c0 -13 -1 -22 -3 -29zM285 452c-91 0 -167 -72 -178 -178h352c-5 100 -63 178 -174 178z" />
    <glyph glyph-name="ebreve.sc" horiz-adv-x="593" 
d="M295 660c-76 0 -135 55 -161 126l34 16c24 -57 71 -91 127 -91c59 0 103 37 126 91l34 -16c-26 -71 -85 -126 -160 -126zM515 0h-460v39h109v501h-109v39h460v-152h-43v113h-263v-226h210v-41h-210v-234h263v113h43v-152z" />
    <glyph glyph-name="Ecaron" unicode="&#x11a;" horiz-adv-x="656" 
d="M456 950l19 -23l-149 -140l-150 140l19 23l131 -99zM62 0v41h100v642h-100v41h510v-162h-45v121h-317v-292h254v-42h-254v-308h317v120h45v-161h-510z" />
    <glyph glyph-name="ecaron" unicode="&#x11b;" horiz-adv-x="563" 
d="M423 751l20 -24l-157 -147l-158 147l20 24l138 -104zM501 236h-395c5 -134 85 -204 207 -204c65 0 116 21 168 55l-4 -45c-46 -32 -107 -50 -169 -50c-148 0 -248 99 -248 250c0 137 95 249 229 249c138 0 215 -108 215 -226c0 -13 -1 -22 -3 -29zM285 452
c-91 0 -167 -72 -178 -178h352c-5 100 -63 178 -174 178z" />
    <glyph glyph-name="ecaron.sc" horiz-adv-x="593" 
d="M432 827l20 -24l-157 -147l-158 147l20 24l138 -104zM515 0h-460v39h109v501h-109v39h460v-152h-43v113h-263v-226h210v-41h-210v-234h263v113h43v-152z" />
    <glyph glyph-name="Ecircumflex" unicode="&#xca;" horiz-adv-x="656" 
d="M195 784l-19 23l150 140l149 -140l-19 -23l-130 99zM62 0v41h100v642h-100v41h510v-162h-45v121h-317v-292h254v-42h-254v-308h317v120h45v-161h-510z" />
    <glyph glyph-name="ecircumflex" unicode="&#xea;" horiz-adv-x="563" 
d="M148 577l-20 24l158 147l157 -147l-20 -24l-137 104zM501 236h-395c5 -134 85 -204 207 -204c65 0 116 21 168 55l-4 -45c-46 -32 -107 -50 -169 -50c-148 0 -248 99 -248 250c0 137 95 249 229 249c138 0 215 -108 215 -226c0 -13 -1 -22 -3 -29zM285 452
c-91 0 -167 -72 -178 -178h352c-5 100 -63 178 -174 178z" />
    <glyph glyph-name="ecircumflex.sc" horiz-adv-x="593" 
d="M157 653l-20 24l158 147l157 -147l-20 -24l-137 104zM515 0h-460v39h109v501h-109v39h460v-152h-43v113h-263v-226h210v-41h-210v-234h263v113h43v-152z" />
    <glyph glyph-name="Edieresis" unicode="&#xcb;" horiz-adv-x="656" 
d="M249 809c-24 0 -42 20 -42 43c0 25 18 44 42 44s42 -19 42 -44c0 -23 -18 -43 -42 -43zM402 809c-24 0 -42 20 -42 43c0 25 18 44 42 44s42 -19 42 -44c0 -23 -18 -43 -42 -43zM62 0v41h100v642h-100v41h510v-162h-45v121h-317v-292h254v-42h-254v-308h317v120h45v-161
h-510z" />
    <glyph glyph-name="edieresis" unicode="&#xeb;" horiz-adv-x="563" 
d="M205 603c-25 0 -44 21 -44 46s19 46 44 46c26 0 45 -21 45 -46s-19 -46 -45 -46zM366 603c-25 0 -44 21 -44 46s19 46 44 46s44 -21 44 -46s-19 -46 -44 -46zM501 236h-395c5 -134 85 -204 207 -204c65 0 116 21 168 55l-4 -45c-46 -32 -107 -50 -169 -50
c-148 0 -248 99 -248 250c0 137 95 249 229 249c138 0 215 -108 215 -226c0 -13 -1 -22 -3 -29zM285 452c-91 0 -167 -72 -178 -178h352c-5 100 -63 178 -174 178z" />
    <glyph glyph-name="edieresis.sc" horiz-adv-x="593" 
d="M214 679c-25 0 -44 21 -44 46s19 46 44 46c26 0 45 -21 45 -46s-19 -46 -45 -46zM375 679c-25 0 -44 21 -44 46s19 46 44 46s44 -21 44 -46s-19 -46 -44 -46zM515 0h-460v39h109v501h-109v39h460v-152h-43v113h-263v-226h210v-41h-210v-234h263v113h43v-152z" />
    <glyph glyph-name="Edotaccent" unicode="&#x116;" horiz-adv-x="656" 
d="M326 807c-26 0 -45 21 -45 45c0 26 19 47 45 47c25 0 44 -21 44 -47c0 -24 -19 -45 -44 -45zM62 0v41h100v642h-100v41h510v-162h-45v121h-317v-292h254v-42h-254v-308h317v120h45v-161h-510z" />
    <glyph glyph-name="edotaccent" unicode="&#x117;" horiz-adv-x="563" 
d="M286 601c-27 0 -47 22 -47 48s20 48 47 48c26 0 46 -22 46 -48s-20 -48 -46 -48zM501 236h-395c5 -134 85 -204 207 -204c65 0 116 21 168 55l-4 -45c-46 -32 -107 -50 -169 -50c-148 0 -248 99 -248 250c0 137 95 249 229 249c138 0 215 -108 215 -226
c0 -13 -1 -22 -3 -29zM285 452c-91 0 -167 -72 -178 -178h352c-5 100 -63 178 -174 178z" />
    <glyph glyph-name="edotaccent.sc" horiz-adv-x="593" 
d="M295 677c-27 0 -47 22 -47 48s20 48 47 48c26 0 46 -22 46 -48s-20 -48 -46 -48zM515 0h-460v39h109v501h-109v39h460v-152h-43v113h-263v-226h210v-41h-210v-234h263v113h43v-152z" />
    <glyph glyph-name="Egrave" unicode="&#xc8;" horiz-adv-x="656" 
d="M362 791l-159 76c-19 10 -32 24 -32 36c0 20 15 33 30 33c12 0 23 -7 36 -18l136 -110zM62 0v41h100v642h-100v41h510v-162h-45v121h-317v-292h254v-42h-254v-308h317v120h45v-161h-510z" />
    <glyph glyph-name="egrave" unicode="&#xe8;" horiz-adv-x="563" 
d="M324 584l-168 80c-20 11 -34 25 -34 37c0 22 16 35 32 35c12 0 24 -7 37 -18l144 -116zM501 236h-395c5 -134 85 -204 207 -204c65 0 116 21 168 55l-4 -45c-46 -32 -107 -50 -169 -50c-148 0 -248 99 -248 250c0 137 95 249 229 249c138 0 215 -108 215 -226
c0 -13 -1 -22 -3 -29zM285 452c-91 0 -167 -72 -178 -178h352c-5 100 -63 178 -174 178z" />
    <glyph glyph-name="egrave.sc" horiz-adv-x="593" 
d="M335 660l-168 80c-20 11 -34 25 -34 37c0 22 16 35 32 35c12 0 24 -7 37 -18l144 -116zM515 0h-460v39h109v501h-109v39h460v-152h-43v113h-263v-226h210v-41h-210v-234h263v113h43v-152z" />
    <glyph glyph-name="Emacron" unicode="&#x112;" horiz-adv-x="656" 
d="M170 825v43h311v-43h-311zM62 0v41h100v642h-100v41h510v-162h-45v121h-317v-292h254v-42h-254v-308h317v120h45v-161h-510z" />
    <glyph glyph-name="emacron" unicode="&#x113;" horiz-adv-x="563" 
d="M122 620v45h327v-45h-327zM501 236h-395c5 -134 85 -204 207 -204c65 0 116 21 168 55l-4 -45c-46 -32 -107 -50 -169 -50c-148 0 -248 99 -248 250c0 137 95 249 229 249c138 0 215 -108 215 -226c0 -13 -1 -22 -3 -29zM285 452c-91 0 -167 -72 -178 -178h352
c-5 100 -63 178 -174 178z" />
    <glyph glyph-name="emacron.sc" horiz-adv-x="593" 
d="M131 696v45h327v-45h-327zM515 0h-460v39h109v501h-109v39h460v-152h-43v113h-263v-226h210v-41h-210v-234h263v113h43v-152z" />
    <glyph glyph-name="Eogonek" unicode="&#x118;" horiz-adv-x="656" 
d="M62 0v41h100v642h-100v41h510v-162h-45v121h-317v-292h254v-42h-254v-308h317v120h45v-161h-54c-62 -29 -99 -74 -99 -120c0 -38 23 -64 68 -64c34 0 61 10 84 23l-3 -34c-14 -11 -46 -26 -85 -26c-69 0 -105 39 -105 94c0 51 34 96 83 127h-399z" />
    <glyph glyph-name="eogonek" unicode="&#x119;" horiz-adv-x="563" 
d="M501 236h-395c5 -134 85 -204 207 -204c65 0 116 21 168 55l-4 -45c-91 -50 -171 -98 -171 -170c0 -39 25 -67 72 -67c36 0 64 11 88 25l-3 -36c-15 -12 -48 -27 -89 -27c-73 0 -111 41 -111 98c0 52 30 97 78 130c-11 -2 -22 -3 -33 -3c-148 0 -248 99 -248 250
c0 137 95 249 229 249c138 0 215 -108 215 -226c0 -13 -1 -22 -3 -29zM285 452c-91 0 -167 -72 -178 -178h352c-5 100 -63 178 -174 178z" />
    <glyph glyph-name="eogonek.sc" horiz-adv-x="592" 
d="M515 0h-59c-66 -31 -104 -77 -104 -127c0 -40 25 -68 72 -68c36 0 64 11 88 25l-3 -36c-15 -12 -48 -27 -89 -27c-73 0 -111 41 -111 99c0 53 35 101 87 134h-341v39h109v501h-109v39h460v-152h-43v113h-263v-226h210v-41h-210v-234h263v113h43v-152z" />
    <glyph glyph-name="Eth" unicode="&#xd0;" horiz-adv-x="813" 
d="M164 350h-78v42h78v291h-100v41h269c252 0 406 -145 406 -357c0 -216 -148 -367 -404 -367h-271v41h100v309zM211 41h128c234 0 353 134 353 327c0 189 -132 315 -360 315h-121v-291h176v-42h-176v-309z" />
    <glyph glyph-name="eth" unicode="&#xf0;" horiz-adv-x="611" 
d="M207 542l-25 31l153 138c-61 60 -125 97 -171 103c0 -22 -15 -43 -39 -43c-21 0 -38 16 -38 40c0 25 21 46 56 46c21 0 47 -6 75 -18c44 -18 96 -51 146 -101l115 105l26 -30l-115 -104c88 -98 161 -240 161 -422c0 -99 -27 -177 -78 -228c-41 -44 -100 -67 -169 -67
c-143 0 -242 106 -242 239s100 241 243 241c92 0 170 -52 203 -126c-9 132 -69 247 -147 337zM503 242c0 103 -82 190 -198 190c-117 0 -197 -87 -197 -201c0 -115 81 -200 196 -200c59 0 107 23 141 60c38 40 58 95 58 151z" />
    <glyph glyph-name="eth.sc" horiz-adv-x="709" 
d="M310 0h-253v39h109v238h-86v39h86v224h-109v39h253c203 0 333 -110 333 -283c0 -175 -122 -296 -333 -296zM211 39h104c184 0 282 106 282 257s-113 244 -287 244h-99v-224h138v-39h-138v-238z" />
    <glyph glyph-name="Gbreve" unicode="&#x11e;" horiz-adv-x="823" 
d="M431 791c-73 0 -128 52 -153 120l33 15c22 -54 66 -86 120 -86c56 0 98 35 119 86l33 -15c-25 -68 -80 -120 -152 -120zM425 -12c-185 0 -352 137 -352 366c0 232 175 381 369 382c160 0 268 -92 268 -163c0 -30 -19 -49 -44 -49c-22 0 -39 18 -39 41c0 17 8 31 23 39
c-26 44 -106 90 -209 90c-194 0 -320 -154 -320 -340c0 -195 137 -325 307 -325c87 0 169 29 246 87v178h-220v40h266v-334h-44v74c-75 -56 -152 -86 -251 -86z" />
    <glyph glyph-name="gbreve" unicode="&#x11f;" horiz-adv-x="649" 
d="M327 584c-76 0 -135 55 -161 126l34 16c24 -57 71 -91 127 -91c59 0 103 37 126 91l34 -16c-26 -71 -85 -126 -160 -126zM304 452c-115 0 -194 -93 -194 -208c0 -117 77 -206 189 -206c76 0 133 39 177 89v253c-41 39 -98 72 -172 72zM520 444v-473
c0 -59 -14 -103 -42 -135c-40 -47 -104 -68 -180 -68c-77 0 -132 24 -158 53c-14 14 -21 31 -21 47c0 27 18 45 42 45c20 0 34 -17 34 -37c0 -12 -6 -25 -17 -34c15 -17 58 -35 124 -35c60 0 110 17 141 55c21 25 33 59 33 105v116c-43 -47 -100 -84 -179 -84
c-132 0 -233 104 -233 244c0 133 97 248 241 248c70 0 130 -30 173 -71v63h126v-39h-84z" />
    <glyph glyph-name="gbreve.sc" horiz-adv-x="690" 
d="M356 660c-76 0 -135 55 -161 126l34 16c24 -57 71 -91 127 -91c59 0 103 37 126 91l34 -16c-26 -71 -85 -126 -160 -126zM363 550c-149 0 -251 -117 -251 -263c0 -151 108 -256 244 -256c77 0 140 26 194 68v138h-172v39h216v-276h-43v58c-52 -43 -116 -68 -199 -68
c-152 0 -287 116 -287 297c0 178 136 303 300 303c134 0 222 -75 222 -134c0 -31 -18 -51 -43 -51c-20 0 -36 14 -36 36c0 18 10 29 24 35c-19 33 -82 74 -169 74z" />
    <glyph glyph-name="Gcommaaccent" unicode="&#x122;" horiz-adv-x="823" 
d="M425 -12c-185 0 -352 137 -352 366c0 232 175 381 369 382c160 0 268 -92 268 -163c0 -30 -19 -49 -44 -49c-22 0 -39 18 -39 41c0 17 8 31 23 39c-26 44 -106 90 -209 90c-194 0 -320 -154 -320 -340c0 -195 137 -325 307 -325c87 0 169 29 246 87v178h-220v40h266v-334
h-44v74c-75 -56 -152 -86 -251 -86zM369 -269l-10 15c51 40 71 80 72 110c-23 2 -40 19 -40 41s18 39 38 39c25 0 45 -21 45 -55c0 -53 -34 -112 -105 -150z" />
    <glyph glyph-name="gcommaaccent" unicode="&#x123;" horiz-adv-x="649" 
d="M382 827l10 -16c-54 -42 -75 -84 -76 -116c25 -2 42 -20 42 -43s-18 -41 -40 -41c-26 0 -46 22 -46 58c0 56 35 118 110 158zM304 452c-115 0 -194 -93 -194 -208c0 -117 77 -206 189 -206c76 0 133 39 177 89v253c-41 39 -98 72 -172 72zM520 444v-473
c0 -59 -14 -103 -42 -135c-40 -47 -104 -68 -180 -68c-77 0 -132 24 -158 53c-14 14 -21 31 -21 47c0 27 18 45 42 45c20 0 34 -17 34 -37c0 -12 -6 -25 -17 -34c15 -17 58 -35 124 -35c60 0 110 17 141 55c21 25 33 59 33 105v116c-43 -47 -100 -84 -179 -84
c-132 0 -233 104 -233 244c0 133 97 248 241 248c70 0 130 -30 173 -71v63h126v-39h-84z" />
    <glyph glyph-name="gcommaaccent.sc" horiz-adv-x="690" 
d="M363 550c-149 0 -251 -117 -251 -263c0 -151 108 -256 244 -256c77 0 140 26 194 68v138h-172v39h216v-276h-43v58c-52 -43 -116 -68 -199 -68c-152 0 -287 116 -287 297c0 178 136 303 300 303c134 0 222 -75 222 -134c0 -31 -18 -51 -43 -51c-20 0 -36 14 -36 36
c0 18 10 29 24 35c-19 33 -82 74 -169 74zM285 -284l-10 17c54 42 75 83 76 115c-25 3 -42 20 -42 43c0 24 18 41 40 41c26 0 46 -21 46 -58c0 -55 -35 -117 -110 -158z" />
    <glyph glyph-name="Gdotaccent" unicode="&#x120;" horiz-adv-x="823" 
d="M431 807c-26 0 -45 21 -45 45c0 26 19 47 45 47c25 0 44 -21 44 -47c0 -24 -19 -45 -44 -45zM425 -12c-185 0 -352 137 -352 366c0 232 175 381 369 382c160 0 268 -92 268 -163c0 -30 -19 -49 -44 -49c-22 0 -39 18 -39 41c0 17 8 31 23 39c-26 44 -106 90 -209 90
c-194 0 -320 -154 -320 -340c0 -195 137 -325 307 -325c87 0 169 29 246 87v178h-220v40h266v-334h-44v74c-75 -56 -152 -86 -251 -86z" />
    <glyph glyph-name="gdotaccent" unicode="&#x121;" horiz-adv-x="649" 
d="M327 601c-27 0 -47 22 -47 48s20 48 47 48c26 0 46 -22 46 -48s-20 -48 -46 -48zM304 452c-115 0 -194 -93 -194 -208c0 -117 77 -206 189 -206c76 0 133 39 177 89v253c-41 39 -98 72 -172 72zM520 444v-473c0 -59 -14 -103 -42 -135c-40 -47 -104 -68 -180 -68
c-77 0 -132 24 -158 53c-14 14 -21 31 -21 47c0 27 18 45 42 45c20 0 34 -17 34 -37c0 -12 -6 -25 -17 -34c15 -17 58 -35 124 -35c60 0 110 17 141 55c21 25 33 59 33 105v116c-43 -47 -100 -84 -179 -84c-132 0 -233 104 -233 244c0 133 97 248 241 248
c70 0 130 -30 173 -71v63h126v-39h-84z" />
    <glyph glyph-name="gdotaccent.sc" horiz-adv-x="690" 
d="M356 677c-27 0 -47 22 -47 48s20 48 47 48c26 0 46 -22 46 -48s-20 -48 -46 -48zM363 550c-149 0 -251 -117 -251 -263c0 -151 108 -256 244 -256c77 0 140 26 194 68v138h-172v39h216v-276h-43v58c-52 -43 -116 -68 -199 -68c-152 0 -287 116 -287 297
c0 178 136 303 300 303c134 0 222 -75 222 -134c0 -31 -18 -51 -43 -51c-20 0 -36 14 -36 36c0 18 10 29 24 35c-19 33 -82 74 -169 74z" />
    <glyph glyph-name="Hbar" unicode="&#x126;" horiz-adv-x="864" 
d="M209 393h446v129h-446v-129zM83 522v40h78v121h-100v41h249v-41h-101v-121h446v121h-101v41h249v-41h-101v-121h79v-40h-79v-481h101v-41h-249v41h101v310h-446v-310h101v-41h-249v41h100v481h-78z" />
    <glyph glyph-name="hbar" unicode="&#x127;" horiz-adv-x="639" 
d="M127 808h-84v39h128v-178h189v-39h-189v-243c46 56 115 104 190 104c59 0 98 -20 122 -54c21 -28 30 -68 30 -112v-286h84v-39h-212v39h83v281c0 40 -7 70 -24 92c-18 25 -49 38 -90 38c-71 0 -135 -47 -183 -105v-306h84v-39h-212v39h84v591h-84v39h84v139z" />
    <glyph glyph-name="hbar.sc" horiz-adv-x="780" 
d="M209 313h362v94h-362v-94zM702 446v-39h-86v-368h109v-39h-264v39h110v233h-362v-233h111v-39h-265v39h109v368h-86v39h86v94h-109v39h265v-39h-111v-94h362v94h-110v39h264v-39h-109v-94h86z" />
    <glyph glyph-name="Iacute" unicode="&#xcd;" horiz-adv-x="383" 
d="M155 791l-11 17l136 110c13 11 24 18 36 18c15 0 30 -13 30 -33c0 -12 -13 -26 -32 -36zM62 0v41h106v642h-106v41h259v-41h-106v-642h106v-41h-259z" />
    <glyph glyph-name="iacute" unicode="&#xed;" horiz-adv-x="329" 
d="M125 584l-11 18l144 116c14 11 25 18 37 18c17 0 32 -13 32 -35c0 -12 -14 -26 -34 -37zM58 0v39h89v405h-89v39h134v-444h90v-39h-224z" />
    <glyph glyph-name="iacute.sc" horiz-adv-x="379" 
d="M151 660l-11 18l144 116c14 11 25 18 37 18c17 0 32 -13 32 -35c0 -12 -14 -26 -34 -37zM325 0h-270v39h112v501h-112v39h270v-39h-113v-501h113v-39z" />
    <glyph glyph-name="Ibreve" unicode="&#x12c;" horiz-adv-x="383" 
d="M192 791c-73 0 -128 52 -153 120l33 15c22 -54 66 -86 120 -86c56 0 98 35 119 86l33 -15c-25 -68 -80 -120 -152 -120zM62 0v41h106v642h-106v41h259v-41h-106v-642h106v-41h-259z" />
    <glyph glyph-name="ibreve" unicode="&#x12d;" horiz-adv-x="329" 
d="M164 584c-76 0 -135 55 -161 126l34 16c24 -57 71 -91 127 -91c59 0 103 37 126 91l34 -16c-26 -71 -85 -126 -160 -126zM58 0v39h89v405h-89v39h134v-444h90v-39h-224z" />
    <glyph glyph-name="ibreve.sc" horiz-adv-x="379" 
d="M192 660c-76 0 -135 55 -161 126l34 16c24 -57 71 -91 127 -91c59 0 103 37 126 91l34 -16c-26 -71 -85 -126 -160 -126zM325 0h-270v39h112v501h-112v39h270v-39h-113v-501h113v-39z" />
    <glyph glyph-name="Icircumflex" unicode="&#xce;" horiz-adv-x="383" 
d="M61 784l-19 23l150 140l149 -140l-19 -23l-130 99zM62 0v41h106v642h-106v41h259v-41h-106v-642h106v-41h-259z" />
    <glyph glyph-name="icircumflex" unicode="&#xee;" horiz-adv-x="329" 
d="M26 577l-20 24l158 147l157 -147l-20 -24l-137 104zM58 0v39h89v405h-89v39h134v-444h90v-39h-224z" />
    <glyph glyph-name="icircumflex.sc" horiz-adv-x="379" 
d="M54 653l-20 24l158 147l157 -147l-20 -24l-137 104zM325 0h-270v39h112v501h-112v39h270v-39h-113v-501h113v-39z" />
    <glyph glyph-name="Idieresis" unicode="&#xcf;" horiz-adv-x="383" 
d="M115 809c-24 0 -42 20 -42 43c0 25 18 44 42 44s42 -19 42 -44c0 -23 -18 -43 -42 -43zM268 809c-24 0 -42 20 -42 43c0 25 18 44 42 44s42 -19 42 -44c0 -23 -18 -43 -42 -43zM62 0v41h106v642h-106v41h259v-41h-106v-642h106v-41h-259z" />
    <glyph glyph-name="idieresis" unicode="&#xef;" horiz-adv-x="329" 
d="M83 603c-25 0 -44 21 -44 46s19 46 44 46c26 0 45 -21 45 -46s-19 -46 -45 -46zM244 603c-25 0 -44 21 -44 46s19 46 44 46s44 -21 44 -46s-19 -46 -44 -46zM58 0v39h89v405h-89v39h134v-444h90v-39h-224z" />
    <glyph glyph-name="idieresis.sc" horiz-adv-x="379" 
d="M111 679c-25 0 -44 21 -44 46s19 46 44 46c26 0 45 -21 45 -46s-19 -46 -45 -46zM272 679c-25 0 -44 21 -44 46s19 46 44 46s44 -21 44 -46s-19 -46 -44 -46zM325 0h-270v39h112v501h-112v39h270v-39h-113v-501h113v-39z" />
    <glyph glyph-name="Idotaccent" unicode="&#x130;" horiz-adv-x="383" 
d="M192 807c-26 0 -45 21 -45 45c0 26 19 47 45 47c25 0 44 -21 44 -47c0 -24 -19 -45 -44 -45zM62 0v41h106v642h-106v41h259v-41h-106v-642h106v-41h-259z" />
    <glyph glyph-name="idotaccent.sc" horiz-adv-x="381" 
d="M193 677c-27 0 -47 22 -47 48s20 48 47 48c26 0 46 -22 46 -48s-20 -48 -46 -48zM325 0h-270v39h112v501h-112v39h270v-39h-113v-501h113v-39z" />
    <glyph glyph-name="dotlessi" unicode="&#x131;" horiz-adv-x="329" 
d="M58 0v39h89v405h-89v39h134v-444h90v-39h-224z" />
    <glyph glyph-name="dotlessi.sc" horiz-adv-x="379" 
d="M325 0h-270v39h112v501h-112v39h270v-39h-113v-501h113v-39z" />
    <glyph glyph-name="Igrave" unicode="&#xcc;" horiz-adv-x="383" 
d="M227 791l-159 76c-19 10 -32 24 -32 36c0 20 15 33 30 33c12 0 23 -7 36 -18l136 -110zM62 0v41h106v642h-106v41h259v-41h-106v-642h106v-41h-259z" />
    <glyph glyph-name="igrave" unicode="&#xec;" horiz-adv-x="329" 
d="M202 584l-168 80c-20 11 -34 25 -34 37c0 22 16 35 32 35c12 0 24 -7 37 -18l144 -116zM58 0v39h89v405h-89v39h134v-444h90v-39h-224z" />
    <glyph glyph-name="igrave.sc" horiz-adv-x="379" 
d="M233 660l-168 80c-20 11 -34 25 -34 37c0 22 16 35 32 35c12 0 24 -7 37 -18l144 -116zM325 0h-270v39h112v501h-112v39h270v-39h-113v-501h113v-39z" />
    <glyph glyph-name="Imacron" unicode="&#x12a;" horiz-adv-x="383" 
d="M36 825v43h311v-43h-311zM62 0v41h106v642h-106v41h259v-41h-106v-642h106v-41h-259z" />
    <glyph glyph-name="imacron" unicode="&#x12b;" horiz-adv-x="329" 
d="M0 620v45h327v-45h-327zM58 0v39h89v405h-89v39h134v-444h90v-39h-224z" />
    <glyph glyph-name="imacron.sc" horiz-adv-x="379" 
d="M28 696v45h327v-45h-327zM325 0h-270v39h112v501h-112v39h270v-39h-113v-501h113v-39z" />
    <glyph glyph-name="Iogonek" unicode="&#x12e;" horiz-adv-x="383" 
d="M62 0v41h106v642h-106v41h259v-41h-106v-642h106v-41h-82c-62 -29 -99 -74 -99 -120c0 -38 23 -64 68 -64c34 0 61 10 84 23l-3 -34c-14 -11 -46 -26 -85 -26c-69 0 -105 39 -105 94c0 51 34 96 83 127h-120z" />
    <glyph glyph-name="iogonek" unicode="&#x12f;" horiz-adv-x="326" 
d="M160 644c-24 0 -43 20 -43 45c0 24 19 44 43 44s42 -20 42 -44c0 -25 -18 -45 -42 -45zM58 0v39h89v405h-89v39h134v-444h90v-39h-79c-62 -30 -100 -78 -100 -127c0 -40 25 -68 72 -68c36 0 64 11 88 25l-3 -36c-15 -12 -48 -27 -89 -27c-73 0 -111 41 -111 99
c0 53 35 101 84 134h-86z" />
    <glyph glyph-name="iogonek.sc" horiz-adv-x="379" 
d="M186 -233c-73 0 -111 41 -111 99c0 53 35 101 87 134h-107v39h112v501h-112v39h270v-39h-113v-501h113v-39h-103c-66 -31 -104 -77 -104 -127c0 -40 25 -68 72 -68c36 0 64 11 88 25l-3 -36c-15 -12 -48 -27 -89 -27z" />
    <glyph glyph-name="Kcommaaccent" unicode="&#x136;" horiz-adv-x="744" 
d="M61 0v41h100v642h-100v41h249v-41h-101v-377l368 377h-110v41h251v-41h-85l-261 -267l261 -375h93v-41h-124l-263 385l-130 -132v-212h101v-41h-249zM332 -269l-10 15c51 40 71 80 72 110c-23 2 -40 19 -40 41s18 39 38 39c25 0 45 -21 45 -55c0 -53 -34 -112 -105 -150z
" />
    <glyph glyph-name="kcommaaccent" unicode="&#x137;" horiz-adv-x="597" 
d="M43 0v39h84v769h-84v39h128v-628l251 226h-114v38h258v-39h-87l-175 -158l174 -247h88v-39h-114l-180 262l-101 -91v-132h87v-39h-215zM240 -284l-10 17c54 42 75 83 76 115c-25 3 -42 20 -42 43c0 24 18 41 40 41c26 0 46 -21 46 -58c0 -55 -35 -117 -110 -158z" />
    <glyph glyph-name="kcommaaccent.sc" horiz-adv-x="670" 
d="M558 539l-213 -215l201 -285h104v-39h-131l-205 293l-103 -103v-151h108l1 -39h-265v39h111v501h-111v39h260v-39h-104v-297l294 297h-104v39h238v-40h-81zM284 -284l-10 17c54 42 75 83 76 115c-25 3 -42 20 -42 43c0 24 18 41 40 41c26 0 46 -21 46 -58
c0 -55 -35 -117 -110 -158z" />
    <glyph glyph-name="Lacute" unicode="&#x139;" horiz-adv-x="610" 
d="M172 802l-11 17l136 110c13 11 24 18 36 18c15 0 30 -13 30 -33c0 -12 -13 -26 -32 -36zM62 0v41h100v642h-100v41h252v-41h-104v-642h291v126h45v-167h-484z" />
    <glyph glyph-name="lacute" unicode="&#x13a;" horiz-adv-x="313" 
d="M128 890l-11 18l144 116c14 11 25 18 37 18c17 0 32 -13 32 -35c0 -12 -14 -26 -34 -37zM45 0v39h89v769h-89v39h133v-808h91v-39h-224z" />
    <glyph glyph-name="lacute.sc" horiz-adv-x="556" 
d="M165 660l-11 18l144 116c14 11 25 18 37 18c17 0 32 -13 32 -35c0 -12 -14 -26 -34 -37zM462 39v117h43v-156h-450v39h109v501h-109v39h268v-39h-114v-501h253z" />
    <glyph glyph-name="Lcaron" unicode="&#x13d;" horiz-adv-x="610" 
d="M373 514l-16 12c24 36 35 69 35 107c0 25 -5 39 -5 58s10 34 31 34s31 -14 31 -37c0 -60 -33 -125 -76 -174zM62 0v41h100v642h-100v41h252v-41h-104v-642h291v126h45v-167h-484z" />
    <glyph glyph-name="lcaron" unicode="&#x13e;" horiz-adv-x="313" 
d="M45 0v39h89v769h-89v39h133v-808h91v-39h-224zM244 624l-17 13c25 39 36 73 36 113c0 26 -5 41 -5 61s11 36 33 36c21 0 32 -15 32 -39c0 -64 -34 -132 -79 -184z" />
    <glyph glyph-name="lcaron.sc" horiz-adv-x="556" 
d="M369 356l-17 13c25 39 36 73 36 113c0 26 -5 41 -5 61s11 36 33 36c21 0 32 -15 32 -39c0 -64 -34 -132 -79 -184zM462 39v117h43v-156h-450v39h109v501h-109v39h268v-39h-114v-501h253z" />
    <glyph glyph-name="Lcommaaccent" unicode="&#x13b;" horiz-adv-x="610" 
d="M62 0v41h100v642h-100v41h252v-41h-104v-642h291v126h45v-167h-484zM243 -269l-10 15c51 40 71 80 72 110c-23 2 -40 19 -40 41s18 39 38 39c25 0 45 -21 45 -55c0 -53 -34 -112 -105 -150z" />
    <glyph glyph-name="lcommaaccent" unicode="&#x13c;" horiz-adv-x="313" 
d="M45 0v39h89v769h-89v39h133v-808h91v-39h-224zM92 -284l-10 17c54 42 75 83 76 115c-25 3 -42 20 -42 43c0 24 18 41 40 41c26 0 46 -21 46 -58c0 -55 -35 -117 -110 -158z" />
    <glyph glyph-name="lcommaaccent.sc" horiz-adv-x="556" 
d="M462 39v117h43v-156h-450v39h109v501h-109v39h268v-39h-114v-501h253zM213 -284l-10 17c54 42 75 83 76 115c-25 3 -42 20 -42 43c0 24 18 41 40 41c26 0 46 -21 46 -58c0 -55 -35 -117 -110 -158z" />
    <glyph glyph-name="Ldot" unicode="&#x13f;" horiz-adv-x="610" 
d="M62 0v41h100v642h-100v41h252v-41h-104v-642h291v126h45v-167h-484zM481 338c-26 0 -45 21 -45 45c0 26 19 47 45 47c25 0 44 -21 44 -47c0 -24 -19 -45 -44 -45z" />
    <glyph glyph-name="ldot" unicode="&#x140;" horiz-adv-x="341" 
d="M45 0v39h89v769h-89v39h133v-808h91v-39h-224zM318 352c-27 0 -47 22 -47 48s20 48 47 48c26 0 46 -22 46 -48s-20 -48 -46 -48z" />
    <glyph glyph-name="ldot.sc" horiz-adv-x="556" 
d="M462 39v117h43v-156h-450v39h109v501h-109v39h268v-39h-114v-501h253zM460 269c-27 0 -47 22 -47 48s20 48 47 48c26 0 46 -22 46 -48s-20 -48 -46 -48z" />
    <glyph glyph-name="Lslash" unicode="&#x141;" horiz-adv-x="620" 
d="M70 0v41h100v267l-97 -58l-21 34l118 70v329h-100v41h252v-41h-104v-300l178 106l21 -34l-199 -119v-295h291v126h45v-167h-484z" />
    <glyph glyph-name="lslash" unicode="&#x142;" horiz-adv-x="336" 
d="M56 0v39h90v399l-111 -66l-20 33l131 78v325h-90v39h134v-338l97 58l20 -33l-117 -70v-425h90v-39h-224z" />
    <glyph glyph-name="lslash.sc" horiz-adv-x="565" 
d="M471 39v117h43v-156h-450v39h109v204l-106 -58l-20 35l126 69v251h-109v39h268v-39h-114v-227l168 93l19 -35l-187 -103v-229h253z" />
    <glyph glyph-name="Nacute" unicode="&#x143;" horiz-adv-x="853" 
d="M391 791l-11 17l136 110c13 11 24 18 36 18c15 0 30 -13 30 -33c0 -12 -13 -26 -32 -36zM681 -3l-474 646v-602h102v-41h-247v41h100v642h-100v41h141l461 -630v589h-101v41h244v-41h-98v-686h-28z" />
    <glyph glyph-name="nacute" unicode="&#x144;" horiz-adv-x="649" 
d="M294 584l-11 18l144 116c14 11 25 18 37 18c17 0 32 -13 32 -35c0 -12 -14 -26 -34 -37zM183 483v-98c45 56 116 106 191 106c64 0 104 -24 127 -63c16 -27 22 -63 22 -103v-286h84v-39h-212v39h84v281c0 31 -4 57 -14 78c-17 34 -49 52 -98 52c-71 0 -135 -47 -182 -105
v-306h83v-39h-212v39h84v405h-84v39h127z" />
    <glyph glyph-name="nacute.sc" horiz-adv-x="766" 
d="M343 660l-11 18l144 116c14 11 25 18 37 18c17 0 32 -13 32 -35c0 -12 -14 -26 -34 -37zM204 579l369 -489v450h-111v39h263v-39h-109v-543h-27l-383 507v-465h111v-39h-263v39h109v501h-109v39h150z" />
    <glyph glyph-name="Ncaron" unicode="&#x147;" horiz-adv-x="853" 
d="M558 950l19 -23l-149 -140l-150 140l19 23l131 -99zM681 -3l-474 646v-602h102v-41h-247v41h100v642h-100v41h141l461 -630v589h-101v41h244v-41h-98v-686h-28z" />
    <glyph glyph-name="ncaron" unicode="&#x148;" horiz-adv-x="649" 
d="M470 751l20 -24l-157 -147l-158 147l20 24l138 -104zM183 483v-98c45 56 116 106 191 106c64 0 104 -24 127 -63c16 -27 22 -63 22 -103v-286h84v-39h-212v39h84v281c0 31 -4 57 -14 78c-17 34 -49 52 -98 52c-71 0 -135 -47 -182 -105v-306h83v-39h-212v39h84v405h-84
v39h127z" />
    <glyph glyph-name="ncaron.sc" horiz-adv-x="766" 
d="M521 827l20 -24l-157 -147l-158 147l20 24l138 -104zM204 579l369 -489v450h-111v39h263v-39h-109v-543h-27l-383 507v-465h111v-39h-263v39h109v501h-109v39h150z" />
    <glyph glyph-name="Ncommaaccent" unicode="&#x145;" horiz-adv-x="853" 
d="M681 -3l-474 646v-602h102v-41h-247v41h100v642h-100v41h141l461 -630v589h-101v41h244v-41h-98v-686h-28zM367 -269l-10 15c51 40 71 80 72 110c-23 2 -40 19 -40 41s18 39 38 39c25 0 45 -21 45 -55c0 -53 -34 -112 -105 -150z" />
    <glyph glyph-name="ncommaaccent" unicode="&#x146;" horiz-adv-x="649" 
d="M183 483v-98c45 56 116 106 191 106c64 0 104 -24 127 -63c16 -27 22 -63 22 -103v-286h84v-39h-212v39h84v281c0 31 -4 57 -14 78c-17 34 -49 52 -98 52c-71 0 -135 -47 -182 -105v-306h83v-39h-212v39h84v405h-84v39h127zM268 -284l-10 17c54 42 75 83 76 115
c-25 3 -42 20 -42 43c0 24 18 41 40 41c26 0 46 -21 46 -58c0 -55 -35 -117 -110 -158z" />
    <glyph glyph-name="ncommaaccent.sc" horiz-adv-x="766" 
d="M204 579l369 -489v450h-111v39h263v-39h-109v-543h-27l-383 507v-465h111v-39h-263v39h109v501h-109v39h150zM313 -284l-10 17c54 42 75 83 76 115c-25 3 -42 20 -42 43c0 24 18 41 40 41c26 0 46 -21 46 -58c0 -55 -35 -117 -110 -158z" />
    <glyph glyph-name="Ntilde" unicode="&#xd1;" horiz-adv-x="853" 
d="M506 792c-37 0 -61 17 -91 41c-27 21 -42 30 -60 30c-29 0 -46 -24 -55 -65l-35 7c6 58 41 103 88 103c37 0 61 -16 91 -40c27 -22 42 -30 60 -30c29 0 46 23 55 64l35 -7c-6 -57 -41 -103 -88 -103zM681 -3l-474 646v-602h102v-41h-247v41h100v642h-100v41h141l461 -630
v589h-101v41h244v-41h-98v-686h-28z" />
    <glyph glyph-name="ntilde" unicode="&#xf1;" horiz-adv-x="649" 
d="M415 586c-38 0 -64 17 -95 42c-29 22 -45 32 -64 32c-30 0 -48 -25 -58 -69l-37 8c7 60 44 108 93 108c39 0 64 -17 96 -42c28 -23 44 -32 63 -32c30 0 48 25 58 68l37 -8c-6 -59 -43 -107 -93 -107zM183 483v-98c45 56 116 106 191 106c64 0 104 -24 127 -63
c16 -27 22 -63 22 -103v-286h84v-39h-212v39h84v281c0 31 -4 57 -14 78c-17 34 -49 52 -98 52c-71 0 -135 -47 -182 -105v-306h83v-39h-212v39h84v405h-84v39h127z" />
    <glyph glyph-name="ntilde.sc" horiz-adv-x="766" 
d="M467 662c-38 0 -64 17 -95 42c-29 22 -45 32 -64 32c-30 0 -48 -25 -58 -69l-37 8c7 60 44 108 93 108c39 0 64 -17 96 -42c28 -23 44 -32 63 -32c30 0 48 25 58 68l37 -8c-6 -59 -43 -107 -93 -107zM204 579l369 -489v450h-111v39h263v-39h-109v-543h-27l-383 507v-465
h111v-39h-263v39h109v501h-109v39h150z" />
    <glyph glyph-name="Oacute" unicode="&#xd3;" horiz-adv-x="869" 
d="M398 791l-11 17l136 110c13 11 24 18 36 18c15 0 30 -13 30 -33c0 -12 -13 -26 -32 -36zM433 -12c-206 0 -361 165 -361 373c0 210 156 375 364 375c206 0 361 -165 361 -374s-156 -374 -364 -374zM435 30c183 0 314 146 314 331c0 186 -131 333 -314 333
c-184 0 -314 -146 -314 -332c0 -185 130 -332 314 -332z" />
    <glyph glyph-name="oacute" unicode="&#xf3;" horiz-adv-x="612" 
d="M266 584l-11 18l144 116c14 11 25 18 37 18c17 0 32 -13 32 -35c0 -12 -14 -26 -34 -37zM306 -8c-144 0 -244 109 -244 249s101 250 244 250s244 -109 244 -250c0 -139 -102 -249 -244 -249zM306 31c115 0 197 89 197 210s-82 211 -197 211c-116 0 -198 -90 -198 -211
s82 -210 198 -210z" />
    <glyph glyph-name="oacute.sc" horiz-adv-x="718" 
d="M319 660l-11 18l144 116c14 11 25 18 37 18c17 0 32 -13 32 -35c0 -12 -14 -26 -34 -37zM359 590c174 0 294 -132 294 -299c0 -169 -120 -301 -295 -301c-173 0 -293 132 -293 301c0 167 120 299 294 299zM358 31c146 0 248 110 248 260c0 147 -102 258 -247 258
s-247 -110 -247 -258c0 -150 102 -260 246 -260z" />
    <glyph glyph-name="Obreve" unicode="&#x14e;" horiz-adv-x="869" 
d="M435 791c-73 0 -128 52 -153 120l33 15c22 -54 66 -86 120 -86c56 0 98 35 119 86l33 -15c-25 -68 -80 -120 -152 -120zM433 -12c-206 0 -361 165 -361 373c0 210 156 375 364 375c206 0 361 -165 361 -374s-156 -374 -364 -374zM435 30c183 0 314 146 314 331
c0 186 -131 333 -314 333c-184 0 -314 -146 -314 -332c0 -185 130 -332 314 -332z" />
    <glyph glyph-name="obreve" unicode="&#x14f;" horiz-adv-x="612" 
d="M306 584c-76 0 -135 55 -161 126l34 16c24 -57 71 -91 127 -91c59 0 103 37 126 91l34 -16c-26 -71 -85 -126 -160 -126zM306 -8c-144 0 -244 109 -244 249s101 250 244 250s244 -109 244 -250c0 -139 -102 -249 -244 -249zM306 31c115 0 197 89 197 210
s-82 211 -197 211c-116 0 -198 -90 -198 -211s82 -210 198 -210z" />
    <glyph glyph-name="obreve.sc" horiz-adv-x="718" 
d="M361 660c-76 0 -135 55 -161 126l34 16c24 -57 71 -91 127 -91c59 0 103 37 126 91l34 -16c-26 -71 -85 -126 -160 -126zM359 590c174 0 294 -132 294 -299c0 -169 -120 -301 -295 -301c-173 0 -293 132 -293 301c0 167 120 299 294 299zM358 31c146 0 248 110 248 260
c0 147 -102 258 -247 258s-247 -110 -247 -258c0 -150 102 -260 246 -260z" />
    <glyph glyph-name="Ocircumflex" unicode="&#xd4;" horiz-adv-x="869" 
d="M304 784l-19 23l150 140l149 -140l-19 -23l-130 99zM433 -12c-206 0 -361 165 -361 373c0 210 156 375 364 375c206 0 361 -165 361 -374s-156 -374 -364 -374zM435 30c183 0 314 146 314 331c0 186 -131 333 -314 333c-184 0 -314 -146 -314 -332
c0 -185 130 -332 314 -332z" />
    <glyph glyph-name="ocircumflex" unicode="&#xf4;" horiz-adv-x="612" 
d="M168 577l-20 24l158 147l157 -147l-20 -24l-137 104zM306 -8c-144 0 -244 109 -244 249s101 250 244 250s244 -109 244 -250c0 -139 -102 -249 -244 -249zM306 31c115 0 197 89 197 210s-82 211 -197 211c-116 0 -198 -90 -198 -211s82 -210 198 -210z" />
    <glyph glyph-name="ocircumflex.sc" horiz-adv-x="718" 
d="M223 653l-20 24l158 147l157 -147l-20 -24l-137 104zM359 590c174 0 294 -132 294 -299c0 -169 -120 -301 -295 -301c-173 0 -293 132 -293 301c0 167 120 299 294 299zM358 31c146 0 248 110 248 260c0 147 -102 258 -247 258s-247 -110 -247 -258
c0 -150 102 -260 246 -260z" />
    <glyph glyph-name="Odieresis" unicode="&#xd6;" horiz-adv-x="869" 
d="M358 809c-24 0 -42 20 -42 43c0 25 18 44 42 44s42 -19 42 -44c0 -23 -18 -43 -42 -43zM511 809c-24 0 -42 20 -42 43c0 25 18 44 42 44s42 -19 42 -44c0 -23 -18 -43 -42 -43zM433 -12c-206 0 -361 165 -361 373c0 210 156 375 364 375c206 0 361 -165 361 -374
s-156 -374 -364 -374zM435 30c183 0 314 146 314 331c0 186 -131 333 -314 333c-184 0 -314 -146 -314 -332c0 -185 130 -332 314 -332z" />
    <glyph glyph-name="odieresis" unicode="&#xf6;" horiz-adv-x="612" 
d="M225 603c-25 0 -44 21 -44 46s19 46 44 46c26 0 45 -21 45 -46s-19 -46 -45 -46zM386 603c-25 0 -44 21 -44 46s19 46 44 46s44 -21 44 -46s-19 -46 -44 -46zM306 -8c-144 0 -244 109 -244 249s101 250 244 250s244 -109 244 -250c0 -139 -102 -249 -244 -249zM306 31
c115 0 197 89 197 210s-82 211 -197 211c-116 0 -198 -90 -198 -211s82 -210 198 -210z" />
    <glyph glyph-name="odieresis.sc" horiz-adv-x="718" 
d="M280 679c-25 0 -44 21 -44 46s19 46 44 46c26 0 45 -21 45 -46s-19 -46 -45 -46zM441 679c-25 0 -44 21 -44 46s19 46 44 46s44 -21 44 -46s-19 -46 -44 -46zM359 590c174 0 294 -132 294 -299c0 -169 -120 -301 -295 -301c-173 0 -293 132 -293 301
c0 167 120 299 294 299zM358 31c146 0 248 110 248 260c0 147 -102 258 -247 258s-247 -110 -247 -258c0 -150 102 -260 246 -260z" />
    <glyph glyph-name="OE" unicode="&#x152;" horiz-adv-x="1027" 
d="M468 41h64v642h-71c-221 0 -340 -134 -340 -327c0 -189 131 -315 347 -315zM467 0c-240 0 -395 144 -395 357c0 215 149 367 393 367h478v-162h-46v121h-317v-292h255v-42h-255v-308h317v120h46v-161h-476z" />
    <glyph glyph-name="oe" unicode="&#x153;" horiz-adv-x="998" 
d="M750 32c65 0 117 21 169 55l-5 -45c-46 -32 -106 -50 -169 -50c-112 0 -190 57 -223 149c-32 -88 -111 -149 -216 -149c-144 0 -244 109 -244 249s101 250 244 250c106 0 185 -61 216 -150c30 86 102 150 204 150c139 0 215 -108 215 -226c0 -13 -1 -22 -3 -29h-394
c5 -134 85 -204 206 -204zM723 452c-91 0 -167 -72 -178 -178h351c-5 100 -63 178 -173 178zM306 31c115 0 197 89 197 210s-82 211 -197 211c-116 0 -198 -90 -198 -211s82 -210 198 -210z" />
    <glyph glyph-name="oe.sc" horiz-adv-x="896" 
d="M410 579h409v-152h-44v112h-261v-225h208v-41h-208v-233h261v112h44v-152h-409c-201 0 -325 118 -325 293c0 173 128 286 325 286zM468 40v499h-58c-169 0 -278 -97 -278 -245c0 -151 99 -254 273 -254h63z" />
    <glyph glyph-name="Ograve" unicode="&#xd2;" horiz-adv-x="869" 
d="M470 791l-159 76c-19 10 -32 24 -32 36c0 20 15 33 30 33c12 0 23 -7 36 -18l136 -110zM433 -12c-206 0 -361 165 -361 373c0 210 156 375 364 375c206 0 361 -165 361 -374s-156 -374 -364 -374zM435 30c183 0 314 146 314 331c0 186 -131 333 -314 333
c-184 0 -314 -146 -314 -332c0 -185 130 -332 314 -332z" />
    <glyph glyph-name="ograve" unicode="&#xf2;" horiz-adv-x="612" 
d="M344 584l-168 80c-20 11 -34 25 -34 37c0 22 16 35 32 35c12 0 24 -7 37 -18l144 -116zM306 -8c-144 0 -244 109 -244 249s101 250 244 250s244 -109 244 -250c0 -139 -102 -249 -244 -249zM306 31c115 0 197 89 197 210s-82 211 -197 211c-116 0 -198 -90 -198 -211
s82 -210 198 -210z" />
    <glyph glyph-name="ograve.sc" horiz-adv-x="718" 
d="M401 660l-168 80c-20 11 -34 25 -34 37c0 22 16 35 32 35c12 0 24 -7 37 -18l144 -116zM359 590c174 0 294 -132 294 -299c0 -169 -120 -301 -295 -301c-173 0 -293 132 -293 301c0 167 120 299 294 299zM358 31c146 0 248 110 248 260c0 147 -102 258 -247 258
s-247 -110 -247 -258c0 -150 102 -260 246 -260z" />
    <glyph glyph-name="Ohungarumlaut" unicode="&#x150;" horiz-adv-x="869" 
d="M315 792l-10 15l134 115c13 11 24 18 36 18c15 0 29 -12 29 -30c0 -13 -12 -26 -32 -36zM502 797l-10 16l142 106c13 10 25 16 35 16c18 0 29 -14 29 -30c0 -14 -12 -27 -35 -37zM433 -12c-206 0 -361 165 -361 373c0 210 156 375 364 375c206 0 361 -165 361 -374
s-156 -374 -364 -374zM435 30c183 0 314 146 314 331c0 186 -131 333 -314 333c-184 0 -314 -146 -314 -332c0 -185 130 -332 314 -332z" />
    <glyph glyph-name="ohungarumlaut" unicode="&#x151;" horiz-adv-x="612" 
d="M181 585l-11 16l142 121c13 12 25 19 37 19c16 0 31 -12 31 -32c0 -13 -14 -27 -34 -38zM377 590l-10 17l150 112c14 11 26 16 37 16c18 0 30 -14 30 -31c0 -15 -13 -29 -37 -39zM306 -8c-144 0 -244 109 -244 249s101 250 244 250s244 -109 244 -250
c0 -139 -102 -249 -244 -249zM306 31c115 0 197 89 197 210s-82 211 -197 211c-116 0 -198 -90 -198 -211s82 -210 198 -210z" />
    <glyph glyph-name="ohungarumlaut.sc" horiz-adv-x="718" 
d="M243 661l-11 16l142 121c13 12 25 19 37 19c16 0 31 -12 31 -32c0 -13 -14 -27 -34 -38zM439 666l-10 17l150 112c14 11 26 16 37 16c18 0 30 -14 30 -31c0 -15 -13 -29 -37 -39zM359 590c174 0 294 -132 294 -299c0 -169 -120 -301 -295 -301c-173 0 -293 132 -293 301
c0 167 120 299 294 299zM358 31c146 0 248 110 248 260c0 147 -102 258 -247 258s-247 -110 -247 -258c0 -150 102 -260 246 -260z" />
    <glyph glyph-name="Omacron" unicode="&#x14c;" horiz-adv-x="869" 
d="M279 825v43h311v-43h-311zM433 -12c-206 0 -361 165 -361 373c0 210 156 375 364 375c206 0 361 -165 361 -374s-156 -374 -364 -374zM435 30c183 0 314 146 314 331c0 186 -131 333 -314 333c-184 0 -314 -146 -314 -332c0 -185 130 -332 314 -332z" />
    <glyph glyph-name="omacron" unicode="&#x14d;" horiz-adv-x="612" 
d="M142 620v45h327v-45h-327zM306 -8c-144 0 -244 109 -244 249s101 250 244 250s244 -109 244 -250c0 -139 -102 -249 -244 -249zM306 31c115 0 197 89 197 210s-82 211 -197 211c-116 0 -198 -90 -198 -211s82 -210 198 -210z" />
    <glyph glyph-name="omacron.sc" horiz-adv-x="718" 
d="M197 696v45h327v-45h-327zM359 590c174 0 294 -132 294 -299c0 -169 -120 -301 -295 -301c-173 0 -293 132 -293 301c0 167 120 299 294 299zM358 31c146 0 248 110 248 260c0 147 -102 258 -247 258s-247 -110 -247 -258c0 -150 102 -260 246 -260z" />
    <glyph glyph-name="Oslash" unicode="&#xd8;" horiz-adv-x="869" 
d="M121 362c0 -92 31 -174 84 -233l424 499c-52 41 -118 66 -194 66c-184 0 -314 -146 -314 -332zM435 30c183 0 314 146 314 331c0 97 -34 182 -92 242l-427 -500c53 -46 123 -73 205 -73zM433 -12c-90 0 -169 31 -231 83l-92 -108l-29 25l93 109c-64 67 -102 160 -102 264
c0 210 156 375 364 375c85 0 161 -28 221 -76l88 102l29 -25l-88 -102c69 -68 111 -165 111 -273c0 -209 -156 -374 -364 -374z" />
    <glyph glyph-name="oslash" unicode="&#xf8;" horiz-adv-x="612" 
d="M108 241c0 -58 18 -108 50 -145l270 314c-33 27 -75 42 -122 42c-116 0 -198 -90 -198 -211zM306 31c115 0 197 89 197 210c0 57 -19 107 -50 144l-269 -314c33 -26 75 -40 122 -40zM306 -8c-57 0 -108 18 -148 48l-58 -68l-31 27l59 69c-42 45 -66 106 -66 173
c0 140 101 250 244 250c57 0 107 -19 148 -50l59 70l30 -26l-60 -70c42 -45 67 -107 67 -174c0 -139 -102 -249 -244 -249z" />
    <glyph glyph-name="oslash.sc" horiz-adv-x="723" 
d="M114 291c0 -73 23 -135 64 -181l336 388c-41 32 -93 51 -153 51c-145 0 -247 -110 -247 -258zM361 31c146 0 248 110 248 260c0 73 -25 137 -68 183l-338 -389c42 -34 96 -54 158 -54zM361 -10c-73 0 -136 23 -185 62l-73 -83l-29 26l73 84c-50 54 -79 128 -79 212
c0 167 119 299 293 299c71 0 133 -22 181 -59l72 83l30 -26l-73 -83c53 -54 84 -130 84 -214c0 -169 -119 -301 -294 -301z" />
    <glyph glyph-name="Oslashacute" unicode="&#x1fe;" horiz-adv-x="869" 
d="M398 791l-11 17l136 110c13 11 24 18 36 18c15 0 30 -13 30 -33c0 -12 -13 -26 -32 -36zM121 362c0 -92 31 -174 84 -233l424 499c-52 41 -118 66 -194 66c-184 0 -314 -146 -314 -332zM435 30c183 0 314 146 314 331c0 97 -34 182 -92 242l-427 -500
c53 -46 123 -73 205 -73zM433 -12c-90 0 -169 31 -231 83l-92 -108l-29 25l93 109c-64 67 -102 160 -102 264c0 210 156 375 364 375c85 0 161 -28 221 -76l88 102l29 -25l-88 -102c69 -68 111 -165 111 -273c0 -209 -156 -374 -364 -374z" />
    <glyph glyph-name="oslashacute" unicode="&#x1ff;" horiz-adv-x="612" 
d="M266 584l-11 18l144 116c14 11 25 18 37 18c17 0 32 -13 32 -35c0 -12 -14 -26 -34 -37zM108 241c0 -58 18 -108 50 -145l270 314c-33 27 -75 42 -122 42c-116 0 -198 -90 -198 -211zM306 31c115 0 197 89 197 210c0 57 -19 107 -50 144l-269 -314c33 -26 75 -40 122 -40
zM306 -8c-57 0 -108 18 -148 48l-58 -68l-31 27l59 69c-42 45 -66 106 -66 173c0 140 101 250 244 250c57 0 107 -19 148 -50l59 70l30 -26l-60 -70c42 -45 67 -107 67 -174c0 -139 -102 -249 -244 -249z" />
    <glyph glyph-name="oslashacute.sc" horiz-adv-x="723" 
d="M322 660l-11 18l144 116c14 11 25 18 37 18c17 0 32 -13 32 -35c0 -12 -14 -26 -34 -37zM114 291c0 -73 23 -135 64 -181l336 388c-41 32 -93 51 -153 51c-145 0 -247 -110 -247 -258zM361 31c146 0 248 110 248 260c0 73 -25 137 -68 183l-338 -389
c42 -34 96 -54 158 -54zM361 -10c-73 0 -136 23 -185 62l-73 -83l-29 26l73 84c-50 54 -79 128 -79 212c0 167 119 299 293 299c71 0 133 -22 181 -59l72 83l30 -26l-73 -83c53 -54 84 -130 84 -214c0 -169 -119 -301 -294 -301z" />
    <glyph glyph-name="Otilde" unicode="&#xd5;" horiz-adv-x="869" 
d="M512 792c-37 0 -61 17 -91 41c-27 21 -42 30 -60 30c-29 0 -46 -24 -55 -65l-35 7c6 58 41 103 88 103c37 0 61 -16 91 -40c27 -22 42 -30 60 -30c29 0 46 23 55 64l35 -7c-6 -57 -41 -103 -88 -103zM433 -12c-206 0 -361 165 -361 373c0 210 156 375 364 375
c206 0 361 -165 361 -374s-156 -374 -364 -374zM435 30c183 0 314 146 314 331c0 186 -131 333 -314 333c-184 0 -314 -146 -314 -332c0 -185 130 -332 314 -332z" />
    <glyph glyph-name="otilde" unicode="&#xf5;" horiz-adv-x="612" 
d="M388 586c-38 0 -64 17 -95 42c-29 22 -45 32 -64 32c-30 0 -48 -25 -58 -69l-37 8c7 60 44 108 93 108c39 0 64 -17 96 -42c28 -23 44 -32 63 -32c30 0 48 25 58 68l37 -8c-6 -59 -43 -107 -93 -107zM306 -8c-144 0 -244 109 -244 249s101 250 244 250s244 -109 244 -250
c0 -139 -102 -249 -244 -249zM306 31c115 0 197 89 197 210s-82 211 -197 211c-116 0 -198 -90 -198 -211s82 -210 198 -210z" />
    <glyph glyph-name="otilde.sc" horiz-adv-x="718" 
d="M443 662c-38 0 -64 17 -95 42c-29 22 -45 32 -64 32c-30 0 -48 -25 -58 -69l-37 8c7 60 44 108 93 108c39 0 64 -17 96 -42c28 -23 44 -32 63 -32c30 0 48 25 58 68l37 -8c-6 -59 -43 -107 -93 -107zM359 590c174 0 294 -132 294 -299c0 -169 -120 -301 -295 -301
c-173 0 -293 132 -293 301c0 167 120 299 294 299zM358 31c146 0 248 110 248 260c0 147 -102 258 -247 258s-247 -110 -247 -258c0 -150 102 -260 246 -260z" />
    <glyph glyph-name="Racute" unicode="&#x154;" horiz-adv-x="683" 
d="M305 791l-11 17l136 110c13 11 24 18 36 18c15 0 30 -13 30 -33c0 -12 -13 -26 -32 -36zM318 352c126 0 215 57 215 168c0 101 -78 163 -203 163h-120v-329c31 -1 70 -2 108 -2zM62 0v41h100v642h-100v41h271c153 0 248 -84 248 -203c0 -105 -70 -174 -174 -199l179 -281
h89v-41h-120l-196 313c-13 -1 -28 -2 -42 -2c-40 0 -79 1 -107 2v-272h101v-41h-249z" />
    <glyph glyph-name="racute" unicode="&#x155;" horiz-adv-x="413" 
d="M182 584l-11 18l144 116c14 11 25 18 37 18c17 0 32 -13 32 -35c0 -12 -14 -26 -34 -37zM328 491c37 0 57 -22 57 -47c0 -21 -16 -39 -38 -39c-23 0 -40 17 -42 39c-44 -8 -89 -56 -120 -113v-292h95v-39h-224v39h84v405h-84v39h127v-108c35 64 95 116 145 116z" />
    <glyph glyph-name="racute.sc" horiz-adv-x="623" 
d="M270 660l-11 18l144 116c14 11 25 18 37 18c17 0 32 -13 32 -35c0 -12 -14 -26 -34 -37zM309 540h-100v-255c29 -1 63 -2 94 -2c102 0 173 47 173 132c0 78 -65 125 -167 125zM209 244v-205h112v-39h-266v39h109v501h-109v39h256c129 0 209 -64 209 -164
c0 -82 -56 -140 -137 -160l134 -216h93v-39h-124l-148 244c-16 -1 -30 -1 -40 -1c-27 0 -64 0 -89 1z" />
    <glyph glyph-name="Rcaron" unicode="&#x158;" horiz-adv-x="683" 
d="M471 950l19 -23l-149 -140l-150 140l19 23l131 -99zM318 352c126 0 215 57 215 168c0 101 -78 163 -203 163h-120v-329c31 -1 70 -2 108 -2zM62 0v41h100v642h-100v41h271c153 0 248 -84 248 -203c0 -105 -70 -174 -174 -199l179 -281h89v-41h-120l-196 313
c-13 -1 -28 -2 -42 -2c-40 0 -79 1 -107 2v-272h101v-41h-249z" />
    <glyph glyph-name="rcaron" unicode="&#x159;" horiz-adv-x="413" 
d="M358 751l20 -24l-157 -147l-158 147l20 24l138 -104zM328 491c37 0 57 -22 57 -47c0 -21 -16 -39 -38 -39c-23 0 -40 17 -42 39c-44 -8 -89 -56 -120 -113v-292h95v-39h-224v39h84v405h-84v39h127v-108c35 64 95 116 145 116z" />
    <glyph glyph-name="rcaron.sc" horiz-adv-x="623" 
d="M449 827l20 -24l-157 -147l-158 147l20 24l138 -104zM309 540h-100v-255c29 -1 63 -2 94 -2c102 0 173 47 173 132c0 78 -65 125 -167 125zM209 244v-205h112v-39h-266v39h109v501h-109v39h256c129 0 209 -64 209 -164c0 -82 -56 -140 -137 -160l134 -216h93v-39h-124
l-148 244c-16 -1 -30 -1 -40 -1c-27 0 -64 0 -89 1z" />
    <glyph glyph-name="Rcommaaccent" unicode="&#x156;" horiz-adv-x="683" 
d="M318 352c126 0 215 57 215 168c0 101 -78 163 -203 163h-120v-329c31 -1 70 -2 108 -2zM62 0v41h100v642h-100v41h271c153 0 248 -84 248 -203c0 -105 -70 -174 -174 -199l179 -281h89v-41h-120l-196 313c-13 -1 -28 -2 -42 -2c-40 0 -79 1 -107 2v-272h101v-41h-249z
M281 -269l-10 15c51 40 71 80 72 110c-23 2 -40 19 -40 41s18 39 38 39c25 0 45 -21 45 -55c0 -53 -34 -112 -105 -150z" />
    <glyph glyph-name="rcommaaccent" unicode="&#x157;" horiz-adv-x="413" 
d="M328 491c37 0 57 -22 57 -47c0 -21 -16 -39 -38 -39c-23 0 -40 17 -42 39c-44 -8 -89 -56 -120 -113v-292h95v-39h-224v39h84v405h-84v39h127v-108c35 64 95 116 145 116zM95 -284l-10 17c54 42 75 83 76 115c-25 3 -42 20 -42 43c0 24 18 41 40 41c26 0 46 -21 46 -58
c0 -55 -35 -117 -110 -158z" />
    <glyph glyph-name="rcommaaccent.sc" horiz-adv-x="623" 
d="M309 540h-100v-255c29 -1 63 -2 94 -2c102 0 173 47 173 132c0 78 -65 125 -167 125zM209 244v-205h112v-39h-266v39h109v501h-109v39h256c129 0 209 -64 209 -164c0 -82 -56 -140 -137 -160l134 -216h93v-39h-124l-148 244c-16 -1 -30 -1 -40 -1c-27 0 -64 0 -89 1z
M257 -284l-10 17c54 42 75 83 76 115c-25 3 -42 20 -42 43c0 24 18 41 40 41c26 0 46 -21 46 -58c0 -55 -35 -117 -110 -158z" />
    <glyph glyph-name="Sacute" unicode="&#x15a;" horiz-adv-x="600" 
d="M279 791l-11 17l136 110c13 11 24 18 36 18c15 0 30 -13 30 -33c0 -12 -13 -26 -32 -36zM299 -11c-137 0 -225 79 -225 141c0 32 19 52 42 52c21 0 38 -17 38 -38c0 -18 -10 -34 -23 -43c22 -37 85 -71 170 -71c110 0 178 62 178 152s-82 129 -172 165
c-110 43 -206 89 -206 206c0 106 87 182 210 182c111 0 201 -68 201 -134c0 -30 -19 -47 -41 -47s-40 17 -40 39c0 17 9 31 21 40c-18 35 -84 61 -142 61c-98 0 -163 -59 -163 -137c0 -92 81 -128 178 -167c106 -42 200 -90 200 -205c0 -119 -96 -196 -226 -196z" />
    <glyph glyph-name="sacute" unicode="&#x15b;" horiz-adv-x="496" 
d="M211 584l-11 18l144 116c14 11 25 18 37 18c17 0 32 -13 32 -35c0 -12 -14 -26 -34 -37zM416 394c0 -22 -15 -38 -35 -38c-21 0 -37 16 -37 37c0 8 2 20 11 29c-14 17 -53 31 -109 31c-78 0 -126 -42 -126 -90c0 -56 59 -72 140 -93c87 -22 174 -48 174 -143
c0 -82 -79 -135 -184 -135c-70 0 -135 23 -167 58c-14 14 -23 31 -23 51c0 22 16 40 36 40c23 0 37 -16 37 -36c0 -13 -5 -23 -14 -31c16 -21 66 -44 130 -44c87 0 141 39 141 95c0 64 -64 83 -138 101c-97 24 -176 49 -176 135c0 73 72 130 171 130c69 0 120 -21 147 -48
c15 -15 22 -31 22 -49z" />
    <glyph glyph-name="sacute.sc" horiz-adv-x="531" 
d="M238 660l-11 18l144 116c14 11 25 18 37 18c17 0 32 -13 32 -35c0 -12 -14 -26 -34 -37zM377 472c0 14 8 27 17 34c-12 24 -65 46 -120 46c-86 0 -142 -45 -142 -107c0 -71 75 -99 150 -128c92 -34 183 -70 183 -168c0 -97 -87 -159 -202 -159c-120 0 -197 61 -197 113
c0 29 16 48 38 48s37 -15 37 -36c0 -15 -7 -28 -17 -36c18 -23 66 -49 140 -49c96 0 156 47 156 117c0 69 -77 100 -148 126c-95 36 -186 70 -186 168c0 88 75 149 190 149c99 0 177 -50 177 -110c0 -27 -18 -45 -37 -45c-24 0 -39 16 -39 37z" />
    <glyph glyph-name="Scaron" unicode="&#x160;" horiz-adv-x="600" 
d="M446 950l19 -23l-149 -140l-150 140l19 23l131 -99zM299 -11c-137 0 -225 79 -225 141c0 32 19 52 42 52c21 0 38 -17 38 -38c0 -18 -10 -34 -23 -43c22 -37 85 -71 170 -71c110 0 178 62 178 152s-82 129 -172 165c-110 43 -206 89 -206 206c0 106 87 182 210 182
c111 0 201 -68 201 -134c0 -30 -19 -47 -41 -47s-40 17 -40 39c0 17 9 31 21 40c-18 35 -84 61 -142 61c-98 0 -163 -59 -163 -137c0 -92 81 -128 178 -167c106 -42 200 -90 200 -205c0 -119 -96 -196 -226 -196z" />
    <glyph glyph-name="scaron" unicode="&#x161;" horiz-adv-x="496" 
d="M388 751l20 -24l-157 -147l-158 147l20 24l138 -104zM416 394c0 -22 -15 -38 -35 -38c-21 0 -37 16 -37 37c0 8 2 20 11 29c-14 17 -53 31 -109 31c-78 0 -126 -42 -126 -90c0 -56 59 -72 140 -93c87 -22 174 -48 174 -143c0 -82 -79 -135 -184 -135
c-70 0 -135 23 -167 58c-14 14 -23 31 -23 51c0 22 16 40 36 40c23 0 37 -16 37 -36c0 -13 -5 -23 -14 -31c16 -21 66 -44 130 -44c87 0 141 39 141 95c0 64 -64 83 -138 101c-97 24 -176 49 -176 135c0 73 72 130 171 130c69 0 120 -21 147 -48c15 -15 22 -31 22 -49z" />
    <glyph glyph-name="scaron.sc" horiz-adv-x="531" 
d="M416 827l20 -24l-157 -147l-158 147l20 24l138 -104zM377 472c0 14 8 27 17 34c-12 24 -65 46 -120 46c-86 0 -142 -45 -142 -107c0 -71 75 -99 150 -128c92 -34 183 -70 183 -168c0 -97 -87 -159 -202 -159c-120 0 -197 61 -197 113c0 29 16 48 38 48s37 -15 37 -36
c0 -15 -7 -28 -17 -36c18 -23 66 -49 140 -49c96 0 156 47 156 117c0 69 -77 100 -148 126c-95 36 -186 70 -186 168c0 88 75 149 190 149c99 0 177 -50 177 -110c0 -27 -18 -45 -37 -45c-24 0 -39 16 -39 37z" />
    <glyph glyph-name="Scedilla" unicode="&#x15e;" horiz-adv-x="600" 
d="M303 -220c-38 0 -76 9 -108 25l11 28c26 -12 66 -21 93 -21c40 0 61 19 61 43s-20 42 -67 43c-7 0 -16 -1 -21 -2l-13 9l22 85c-127 6 -207 81 -207 140c0 32 19 52 42 52c21 0 38 -17 38 -38c0 -18 -10 -34 -23 -43c22 -37 85 -71 170 -71c110 0 178 62 178 152
s-82 129 -172 165c-110 43 -206 89 -206 206c0 106 87 182 210 182c111 0 201 -68 201 -134c0 -30 -19 -47 -41 -47s-40 17 -40 39c0 17 9 31 21 40c-18 35 -84 61 -142 61c-98 0 -163 -59 -163 -137c0 -92 81 -128 178 -167c106 -42 200 -90 200 -205
c0 -116 -91 -191 -215 -196l-7 -54c66 -1 99 -34 99 -77c0 -45 -33 -78 -99 -78z" />
    <glyph glyph-name="scedilla" unicode="&#x15f;" horiz-adv-x="496" 
d="M253 -231c-41 0 -80 10 -115 27l13 28c27 -12 69 -21 97 -21c43 0 65 19 65 45s-22 45 -72 46c-7 0 -16 -2 -21 -3l-14 10l23 92c-62 4 -117 25 -146 57c-14 14 -23 31 -23 51c0 22 16 40 36 40c23 0 37 -16 37 -36c0 -13 -5 -23 -14 -31c16 -21 66 -44 130 -44
c87 0 141 39 141 95c0 64 -64 83 -138 101c-97 24 -176 49 -176 135c0 73 72 130 171 130c69 0 120 -21 147 -48c15 -15 22 -31 22 -49c0 -22 -15 -38 -35 -38c-21 0 -37 16 -37 37c0 8 2 20 11 29c-14 17 -53 31 -109 31c-78 0 -126 -42 -126 -90c0 -56 59 -72 140 -93
c87 -22 174 -48 174 -143c0 -80 -74 -132 -174 -135l-8 -60c70 -1 105 -35 105 -81c0 -47 -35 -82 -104 -82z" />
    <glyph glyph-name="scedilla.sc" horiz-adv-x="539" 
d="M260 -231c-41 0 -80 10 -115 27l13 28c27 -12 69 -21 97 -21c43 0 65 19 65 45s-22 45 -72 46c-7 0 -16 -2 -21 -3l-14 10l23 91c-102 9 -166 63 -166 111c0 29 16 48 38 48s37 -15 37 -36c0 -15 -7 -28 -17 -36c18 -23 66 -49 140 -49c96 0 156 47 156 117
c0 69 -77 100 -148 126c-95 36 -186 70 -186 168c0 88 75 149 190 149c99 0 177 -50 177 -110c0 -27 -18 -45 -37 -45c-24 0 -39 16 -39 37c0 14 8 27 17 34c-12 24 -65 46 -120 46c-86 0 -142 -45 -142 -107c0 -71 75 -99 150 -128c92 -34 183 -70 183 -168
c0 -97 -87 -159 -202 -159l-8 -58c70 -1 105 -35 105 -81c0 -47 -35 -82 -104 -82z" />
    <glyph glyph-name="Scommaaccent" unicode="&#x218;" horiz-adv-x="600" 
d="M299 -11c-137 0 -225 79 -225 141c0 32 19 52 42 52c21 0 38 -17 38 -38c0 -18 -10 -34 -23 -43c22 -37 85 -71 170 -71c110 0 178 62 178 152s-82 129 -172 165c-110 43 -206 89 -206 206c0 106 87 182 210 182c111 0 201 -68 201 -134c0 -30 -19 -47 -41 -47
s-40 17 -40 39c0 17 9 31 21 40c-18 35 -84 61 -142 61c-98 0 -163 -59 -163 -137c0 -92 81 -128 178 -167c106 -42 200 -90 200 -205c0 -119 -96 -196 -226 -196zM252 -269l-10 15c51 40 71 80 72 110c-23 2 -40 19 -40 41s18 39 38 39c25 0 45 -21 45 -55
c0 -53 -34 -112 -105 -150z" />
    <glyph glyph-name="scommaaccent" unicode="&#x219;" horiz-adv-x="496" 
d="M416 394c0 -22 -15 -38 -35 -38c-21 0 -37 16 -37 37c0 8 2 20 11 29c-14 17 -53 31 -109 31c-78 0 -126 -42 -126 -90c0 -56 59 -72 140 -93c87 -22 174 -48 174 -143c0 -82 -79 -135 -184 -135c-70 0 -135 23 -167 58c-14 14 -23 31 -23 51c0 22 16 40 36 40
c23 0 37 -16 37 -36c0 -13 -5 -23 -14 -31c16 -21 66 -44 130 -44c87 0 141 39 141 95c0 64 -64 83 -138 101c-97 24 -176 49 -176 135c0 73 72 130 171 130c69 0 120 -21 147 -48c15 -15 22 -31 22 -49zM185 -284l-10 17c54 42 75 83 76 115c-25 3 -42 20 -42 43
c0 24 18 41 40 41c26 0 46 -21 46 -58c0 -55 -35 -117 -110 -158z" />
    <glyph glyph-name="scommaaccent.sc" horiz-adv-x="531" 
d="M377 472c0 14 8 27 17 34c-12 24 -65 46 -120 46c-86 0 -142 -45 -142 -107c0 -71 75 -99 150 -128c92 -34 183 -70 183 -168c0 -97 -87 -159 -202 -159c-120 0 -197 61 -197 113c0 29 16 48 38 48s37 -15 37 -36c0 -15 -7 -28 -17 -36c18 -23 66 -49 140 -49
c96 0 156 47 156 117c0 69 -77 100 -148 126c-95 36 -186 70 -186 168c0 88 75 149 190 149c99 0 177 -50 177 -110c0 -27 -18 -45 -37 -45c-24 0 -39 16 -39 37zM207 -284l-10 17c54 42 75 83 76 115c-25 3 -42 20 -42 43c0 24 18 41 40 41c26 0 46 -21 46 -58
c0 -55 -35 -117 -110 -158z" />
    <glyph glyph-name="Tcaron" unicode="&#x164;" horiz-adv-x="706" 
d="M483 950l19 -23l-149 -140l-150 140l19 23l131 -99zM223 0v41h107v643h-225v-127h-46v167h588v-167h-46v127h-224v-643h106v-41h-260z" />
    <glyph glyph-name="tcaron" unicode="&#x165;" horiz-adv-x="365" 
d="M236 555l-17 13c25 39 36 73 36 113c0 26 -5 41 -5 61s11 36 33 36c21 0 32 -15 32 -39c0 -64 -34 -132 -79 -184zM219 -8c-45 0 -77 18 -92 53c-8 16 -12 38 -12 61v338h-88v39h88v129l45 15v-144h154v-39h-154v-334c0 -18 2 -32 7 -44c10 -22 30 -33 62 -33
c30 0 60 13 88 31l-7 -46c-23 -13 -51 -26 -91 -26z" />
    <glyph glyph-name="tcaron.sc" horiz-adv-x="609" 
d="M444 827l20 -24l-157 -147l-158 147l20 24l138 -104zM170 0v39h112v501h-183v-113h-43v152h497v-152h-44v113h-182v-501h112v-39h-269z" />
    <glyph glyph-name="Tcommaaccent" unicode="&#x162;" horiz-adv-x="706" 
d="M223 0v41h107v643h-225v-127h-46v167h588v-167h-46v127h-224v-643h106v-41h-260zM291 -269l-10 15c51 40 71 80 72 110c-23 2 -40 19 -40 41s18 39 38 39c25 0 45 -21 45 -55c0 -53 -34 -112 -105 -150z" />
    <glyph glyph-name="tcommaaccent" unicode="&#x163;" horiz-adv-x="365" 
d="M219 -8c-45 0 -77 18 -92 53c-8 16 -12 38 -12 61v338h-88v39h88v129l45 15v-144h154v-39h-154v-334c0 -18 2 -32 7 -44c10 -22 30 -33 62 -33c30 0 60 13 88 31l-7 -46c-23 -13 -51 -26 -91 -26zM136 -284l-10 17c54 42 75 83 76 115c-25 3 -42 20 -42 43
c0 24 18 41 40 41c26 0 46 -21 46 -58c0 -55 -35 -117 -110 -158z" />
    <glyph glyph-name="tcommaaccent.sc" horiz-adv-x="609" 
d="M170 0v39h112v501h-183v-113h-43v152h497v-152h-44v113h-182v-501h112v-39h-269zM234 -284l-10 17c54 42 75 83 76 115c-25 3 -42 20 -42 43c0 24 18 41 40 41c26 0 46 -21 46 -58c0 -55 -35 -117 -110 -158z" />
    <glyph glyph-name="Thorn" unicode="&#xde;" horiz-adv-x="655" 
d="M336 195c133 0 207 67 207 172c0 104 -79 171 -207 171c-45 0 -103 -2 -127 -3v-338c27 -1 83 -2 127 -2zM61 0v41h101v642h-101v41h250v-40h-102v-108c22 1 80 3 125 3c154 0 256 -85 256 -211c0 -132 -97 -214 -255 -214c-43 0 -101 1 -126 2v-116h105v-40h-253z" />
    <glyph glyph-name="thorn" unicode="&#xfe;" horiz-adv-x="616" 
d="M315 31c113 0 191 91 192 212c0 122 -77 209 -187 209c-75 0 -132 -38 -176 -89v-262c41 -38 98 -70 171 -70zM15 -227v39h84v996h-84v39h129l-1 -441c45 49 102 85 179 85c130 0 231 -101 231 -248c0 -139 -97 -251 -240 -251c-64 0 -125 27 -169 65v-245h93v-39h-222z
" />
    <glyph glyph-name="thorn.sc" horiz-adv-x="573" 
d="M209 164c29 -1 62 -1 101 -1c104 0 164 54 164 132c0 79 -64 133 -164 133c-35 0 -65 -1 -101 -2v-262zM209 466c35 2 66 2 99 2c128 0 212 -68 212 -173c0 -104 -80 -172 -213 -172c-36 0 -69 0 -98 2v-86h111v-39h-265v39h109v501h-109v39h265v-39h-111v-74z" />
    <glyph glyph-name="Uacute" unicode="&#xda;" horiz-adv-x="789" 
d="M358 791l-11 17l136 110c13 11 24 18 36 18c15 0 30 -13 30 -33c0 -12 -13 -26 -32 -36zM393 -12c-161 0 -249 95 -249 258v437h-100v41h249v-41h-103v-433c0 -145 72 -220 204 -220s205 73 205 219v434h-103v41h249v-41h-100v-434c0 -165 -91 -261 -252 -261z" />
    <glyph glyph-name="uacute" unicode="&#xfa;" horiz-adv-x="637" 
d="M275 584l-11 18l144 116c14 11 25 18 37 18c17 0 32 -13 32 -35c0 -12 -14 -26 -34 -37zM275 -8c-65 0 -106 25 -128 65c-15 27 -21 61 -21 101v286h-84v39h128v-320c0 -33 5 -60 16 -81c16 -33 48 -49 96 -49c70 0 133 50 182 108v303h-84v39h128v-444h84v-39h-126v102
c-45 -58 -117 -110 -191 -110z" />
    <glyph glyph-name="uacute.sc" horiz-adv-x="717" 
d="M319 660l-11 18l144 116c14 11 25 18 37 18c17 0 32 -13 32 -35c0 -12 -14 -26 -34 -37zM186 540v-332c0 -113 65 -178 173 -178c107 0 172 64 172 178v332h-111v39h260v-39h-104v-332c0 -141 -81 -218 -218 -218s-217 76 -217 217v333h-104v39h260v-39h-111z" />
    <glyph glyph-name="Ubreve" unicode="&#x16c;" horiz-adv-x="789" 
d="M395 791c-73 0 -128 52 -153 120l33 15c22 -54 66 -86 120 -86c56 0 98 35 119 86l33 -15c-25 -68 -80 -120 -152 -120zM393 -12c-161 0 -249 95 -249 258v437h-100v41h249v-41h-103v-433c0 -145 72 -220 204 -220s205 73 205 219v434h-103v41h249v-41h-100v-434
c0 -165 -91 -261 -252 -261z" />
    <glyph glyph-name="ubreve" unicode="&#x16d;" horiz-adv-x="637" 
d="M314 584c-76 0 -135 55 -161 126l34 16c24 -57 71 -91 127 -91c59 0 103 37 126 91l34 -16c-26 -71 -85 -126 -160 -126zM275 -8c-65 0 -106 25 -128 65c-15 27 -21 61 -21 101v286h-84v39h128v-320c0 -33 5 -60 16 -81c16 -33 48 -49 96 -49c70 0 133 50 182 108v303
h-84v39h128v-444h84v-39h-126v102c-45 -58 -117 -110 -191 -110z" />
    <glyph glyph-name="ubreve.sc" horiz-adv-x="717" 
d="M361 660c-76 0 -135 55 -161 126l34 16c24 -57 71 -91 127 -91c59 0 103 37 126 91l34 -16c-26 -71 -85 -126 -160 -126zM186 540v-332c0 -113 65 -178 173 -178c107 0 172 64 172 178v332h-111v39h260v-39h-104v-332c0 -141 -81 -218 -218 -218s-217 76 -217 217v333
h-104v39h260v-39h-111z" />
    <glyph glyph-name="Ucircumflex" unicode="&#xdb;" horiz-adv-x="789" 
d="M264 784l-19 23l150 140l149 -140l-19 -23l-130 99zM393 -12c-161 0 -249 95 -249 258v437h-100v41h249v-41h-103v-433c0 -145 72 -220 204 -220s205 73 205 219v434h-103v41h249v-41h-100v-434c0 -165 -91 -261 -252 -261z" />
    <glyph glyph-name="ucircumflex" unicode="&#xfb;" horiz-adv-x="637" 
d="M176 577l-20 24l158 147l157 -147l-20 -24l-137 104zM275 -8c-65 0 -106 25 -128 65c-15 27 -21 61 -21 101v286h-84v39h128v-320c0 -33 5 -60 16 -81c16 -33 48 -49 96 -49c70 0 133 50 182 108v303h-84v39h128v-444h84v-39h-126v102c-45 -58 -117 -110 -191 -110z" />
    <glyph glyph-name="ucircumflex.sc" horiz-adv-x="717" 
d="M223 653l-20 24l158 147l157 -147l-20 -24l-137 104zM186 540v-332c0 -113 65 -178 173 -178c107 0 172 64 172 178v332h-111v39h260v-39h-104v-332c0 -141 -81 -218 -218 -218s-217 76 -217 217v333h-104v39h260v-39h-111z" />
    <glyph glyph-name="Udieresis" unicode="&#xdc;" horiz-adv-x="789" 
d="M318 809c-24 0 -42 20 -42 43c0 25 18 44 42 44s42 -19 42 -44c0 -23 -18 -43 -42 -43zM471 809c-24 0 -42 20 -42 43c0 25 18 44 42 44s42 -19 42 -44c0 -23 -18 -43 -42 -43zM393 -12c-161 0 -249 95 -249 258v437h-100v41h249v-41h-103v-433c0 -145 72 -220 204 -220
s205 73 205 219v434h-103v41h249v-41h-100v-434c0 -165 -91 -261 -252 -261z" />
    <glyph glyph-name="udieresis" unicode="&#xfc;" horiz-adv-x="637" 
d="M233 603c-25 0 -44 21 -44 46s19 46 44 46c26 0 45 -21 45 -46s-19 -46 -45 -46zM394 603c-25 0 -44 21 -44 46s19 46 44 46s44 -21 44 -46s-19 -46 -44 -46zM275 -8c-65 0 -106 25 -128 65c-15 27 -21 61 -21 101v286h-84v39h128v-320c0 -33 5 -60 16 -81
c16 -33 48 -49 96 -49c70 0 133 50 182 108v303h-84v39h128v-444h84v-39h-126v102c-45 -58 -117 -110 -191 -110z" />
    <glyph glyph-name="udieresis.sc" horiz-adv-x="717" 
d="M280 679c-25 0 -44 21 -44 46s19 46 44 46c26 0 45 -21 45 -46s-19 -46 -45 -46zM441 679c-25 0 -44 21 -44 46s19 46 44 46s44 -21 44 -46s-19 -46 -44 -46zM186 540v-332c0 -113 65 -178 173 -178c107 0 172 64 172 178v332h-111v39h260v-39h-104v-332
c0 -141 -81 -218 -218 -218s-217 76 -217 217v333h-104v39h260v-39h-111z" />
    <glyph glyph-name="Ugrave" unicode="&#xd9;" horiz-adv-x="789" 
d="M430 791l-159 76c-19 10 -32 24 -32 36c0 20 15 33 30 33c12 0 23 -7 36 -18l136 -110zM393 -12c-161 0 -249 95 -249 258v437h-100v41h249v-41h-103v-433c0 -145 72 -220 204 -220s205 73 205 219v434h-103v41h249v-41h-100v-434c0 -165 -91 -261 -252 -261z" />
    <glyph glyph-name="ugrave" unicode="&#xf9;" horiz-adv-x="637" 
d="M353 584l-168 80c-20 11 -34 25 -34 37c0 22 16 35 32 35c12 0 24 -7 37 -18l144 -116zM275 -8c-65 0 -106 25 -128 65c-15 27 -21 61 -21 101v286h-84v39h128v-320c0 -33 5 -60 16 -81c16 -33 48 -49 96 -49c70 0 133 50 182 108v303h-84v39h128v-444h84v-39h-126v102
c-45 -58 -117 -110 -191 -110z" />
    <glyph glyph-name="ugrave.sc" horiz-adv-x="717" 
d="M400 660l-168 80c-20 11 -34 25 -34 37c0 22 16 35 32 35c12 0 24 -7 37 -18l144 -116zM186 540v-332c0 -113 65 -178 173 -178c107 0 172 64 172 178v332h-111v39h260v-39h-104v-332c0 -141 -81 -218 -218 -218s-217 76 -217 217v333h-104v39h260v-39h-111z" />
    <glyph glyph-name="Uhungarumlaut" unicode="&#x170;" horiz-adv-x="789" 
d="M276 792l-10 15l134 115c13 11 24 18 36 18c15 0 29 -12 29 -30c0 -13 -12 -26 -32 -36zM463 797l-10 16l142 106c13 10 25 16 35 16c18 0 29 -14 29 -30c0 -14 -12 -27 -35 -37zM393 -12c-161 0 -249 95 -249 258v437h-100v41h249v-41h-103v-433
c0 -145 72 -220 204 -220s205 73 205 219v434h-103v41h249v-41h-100v-434c0 -165 -91 -261 -252 -261z" />
    <glyph glyph-name="uhungarumlaut" unicode="&#x171;" horiz-adv-x="637" 
d="M190 585l-11 16l142 121c13 12 25 19 37 19c16 0 31 -12 31 -32c0 -13 -14 -27 -34 -38zM386 590l-10 17l150 112c14 11 26 16 37 16c18 0 30 -14 30 -31c0 -15 -13 -29 -37 -39zM275 -8c-65 0 -106 25 -128 65c-15 27 -21 61 -21 101v286h-84v39h128v-320
c0 -33 5 -60 16 -81c16 -33 48 -49 96 -49c70 0 133 50 182 108v303h-84v39h128v-444h84v-39h-126v102c-45 -58 -117 -110 -191 -110z" />
    <glyph glyph-name="uhungarumlaut.sc" horiz-adv-x="717" 
d="M243 661l-11 16l142 121c13 12 25 19 37 19c16 0 31 -12 31 -32c0 -13 -14 -27 -34 -38zM439 666l-10 17l150 112c14 11 26 16 37 16c18 0 30 -14 30 -31c0 -15 -13 -29 -37 -39zM186 540v-332c0 -113 65 -178 173 -178c107 0 172 64 172 178v332h-111v39h260v-39h-104
v-332c0 -141 -81 -218 -218 -218s-217 76 -217 217v333h-104v39h260v-39h-111z" />
    <glyph glyph-name="Umacron" unicode="&#x16a;" horiz-adv-x="789" 
d="M239 825v43h311v-43h-311zM393 -12c-161 0 -249 95 -249 258v437h-100v41h249v-41h-103v-433c0 -145 72 -220 204 -220s205 73 205 219v434h-103v41h249v-41h-100v-434c0 -165 -91 -261 -252 -261z" />
    <glyph glyph-name="umacron" unicode="&#x16b;" horiz-adv-x="637" 
d="M150 620v45h327v-45h-327zM275 -8c-65 0 -106 25 -128 65c-15 27 -21 61 -21 101v286h-84v39h128v-320c0 -33 5 -60 16 -81c16 -33 48 -49 96 -49c70 0 133 50 182 108v303h-84v39h128v-444h84v-39h-126v102c-45 -58 -117 -110 -191 -110z" />
    <glyph glyph-name="umacron.sc" horiz-adv-x="717" 
d="M197 696v45h327v-45h-327zM186 540v-332c0 -113 65 -178 173 -178c107 0 172 64 172 178v332h-111v39h260v-39h-104v-332c0 -141 -81 -218 -218 -218s-217 76 -217 217v333h-104v39h260v-39h-111z" />
    <glyph glyph-name="Uogonek" unicode="&#x172;" horiz-adv-x="789" 
d="M421 -221c-69 0 -105 39 -105 94c0 45 26 85 66 115c-154 4 -238 98 -238 258v437h-100v41h249v-41h-103v-433c0 -145 72 -220 204 -220s205 73 205 219v434h-103v41h249v-41h-100v-434c0 -149 -75 -242 -207 -258c-51 -28 -81 -69 -81 -111c0 -38 23 -64 68 -64
c34 0 61 10 84 23l-3 -34c-14 -11 -46 -26 -85 -26z" />
    <glyph glyph-name="uogonek" unicode="&#x173;" horiz-adv-x="637" 
d="M275 -8c-65 0 -106 25 -128 65c-15 27 -21 61 -21 101v286h-84v39h128v-320c0 -33 5 -60 16 -81c16 -33 48 -49 96 -49c70 0 133 50 182 108v303h-84v39h128v-444h84v-39h-68c-66 -31 -104 -77 -104 -127c0 -40 25 -68 72 -68c36 0 64 11 88 25l-3 -36
c-15 -12 -48 -27 -89 -27c-73 0 -111 41 -111 99c0 54 36 103 89 135v101c-45 -58 -117 -110 -191 -110z" />
    <glyph glyph-name="uogonek.sc" horiz-adv-x="717" 
d="M186 540v-332c0 -113 65 -178 173 -178c107 0 172 64 172 178v332h-111v39h260v-39h-104v-332c0 -130 -68 -205 -185 -216c-53 -28 -87 -70 -87 -116c0 -41 24 -70 73 -70c37 0 67 11 89 24l-2 -37c-16 -12 -51 -26 -91 -26c-74 0 -113 41 -113 100c0 49 31 93 74 124
c-123 9 -193 83 -193 216v333h-104v39h260v-39h-111z" />
    <glyph glyph-name="Uring" unicode="&#x16e;" horiz-adv-x="789" 
d="M395 781c-57 0 -102 46 -102 103c0 56 45 103 102 103c56 0 101 -47 101 -103c0 -57 -45 -103 -101 -103zM395 815c37 0 64 30 64 69c0 38 -27 69 -64 69c-38 0 -65 -31 -65 -69c0 -39 27 -69 65 -69zM393 -12c-161 0 -249 95 -249 258v437h-100v41h249v-41h-103v-433
c0 -145 72 -220 204 -220s205 73 205 219v434h-103v41h249v-41h-100v-434c0 -165 -91 -261 -252 -261z" />
    <glyph glyph-name="uring" unicode="&#x16f;" horiz-adv-x="637" 
d="M314 573c-60 0 -107 49 -107 109c0 59 47 109 107 109s106 -50 106 -109c0 -60 -46 -109 -106 -109zM314 609c40 0 67 32 67 73c0 40 -27 73 -67 73s-68 -33 -68 -73c0 -41 28 -73 68 -73zM275 -8c-65 0 -106 25 -128 65c-15 27 -21 61 -21 101v286h-84v39h128v-320
c0 -33 5 -60 16 -81c16 -33 48 -49 96 -49c70 0 133 50 182 108v303h-84v39h128v-444h84v-39h-126v102c-45 -58 -117 -110 -191 -110z" />
    <glyph glyph-name="uring.sc" horiz-adv-x="717" 
d="M361 649c-60 0 -107 49 -107 109c0 59 47 109 107 109s106 -50 106 -109c0 -60 -46 -109 -106 -109zM361 685c40 0 67 32 67 73c0 40 -27 73 -67 73s-68 -33 -68 -73c0 -41 28 -73 68 -73zM186 540v-332c0 -113 65 -178 173 -178c107 0 172 64 172 178v332h-111v39h260
v-39h-104v-332c0 -141 -81 -218 -218 -218s-217 76 -217 217v333h-104v39h260v-39h-111z" />
    <glyph glyph-name="Wacute" unicode="&#x1e82;" horiz-adv-x="1076" 
d="M503 790l-11 17l136 110c13 11 24 18 36 18c15 0 30 -13 30 -33c0 -12 -13 -26 -32 -36zM324 -14l-210 697h-91v41h236v-41h-96l178 -613l187 555h27l187 -554l178 612h-100v41h236v-41h-91l-208 -697h-29l-187 551l-188 -551h-29z" />
    <glyph glyph-name="wacute" unicode="&#x1e83;" horiz-adv-x="787" 
d="M355 583l-11 18l144 116c14 11 25 18 37 18c17 0 32 -13 32 -35c0 -12 -14 -26 -34 -37zM222 -20l-137 464h-73v39h205v-38h-87l106 -378l149 358h19l149 -357l106 377h-89v38h206v-39h-75l-135 -464h-19l-153 368l-154 -368h-18z" />
    <glyph glyph-name="wacute.sc" horiz-adv-x="922" 
d="M422 660l-11 18l144 116c14 11 25 18 37 18c17 0 32 -13 32 -35c0 -12 -14 -26 -34 -37zM278 -14l-169 554h-92v39h247v-39h-107l140 -467l155 426h21l156 -426l140 467h-107v39h243v-39h-92l-168 -554h-27l-157 432l-156 -432h-27z" />
    <glyph glyph-name="Wcircumflex" unicode="&#x174;" horiz-adv-x="1076" 
d="M408 783l-19 23l150 140l149 -140l-19 -23l-130 99zM324 -14l-210 697h-91v41h236v-41h-96l178 -613l187 555h27l187 -554l178 612h-100v41h236v-41h-91l-208 -697h-29l-187 551l-188 -551h-29z" />
    <glyph glyph-name="wcircumflex" unicode="&#x175;" horiz-adv-x="787" 
d="M256 576l-20 24l158 147l157 -147l-20 -24l-137 104zM222 -20l-137 464h-73v39h205v-38h-87l106 -378l149 358h19l149 -357l106 377h-89v38h206v-39h-75l-135 -464h-19l-153 368l-154 -368h-18z" />
    <glyph glyph-name="wcircumflex.sc" horiz-adv-x="922" 
d="M326 653l-20 24l158 147l157 -147l-20 -24l-137 104zM278 -14l-169 554h-92v39h247v-39h-107l140 -467l155 426h21l156 -426l140 467h-107v39h243v-39h-92l-168 -554h-27l-157 432l-156 -432h-27z" />
    <glyph glyph-name="Wdieresis" unicode="&#x1e84;" horiz-adv-x="1076" 
d="M462 808c-24 0 -42 20 -42 43c0 25 18 44 42 44s42 -19 42 -44c0 -23 -18 -43 -42 -43zM615 808c-24 0 -42 20 -42 43c0 25 18 44 42 44s42 -19 42 -44c0 -23 -18 -43 -42 -43zM324 -14l-210 697h-91v41h236v-41h-96l178 -613l187 555h27l187 -554l178 612h-100v41h236
v-41h-91l-208 -697h-29l-187 551l-188 -551h-29z" />
    <glyph glyph-name="wdieresis" unicode="&#x1e85;" horiz-adv-x="787" 
d="M313 602c-25 0 -44 21 -44 46s19 46 44 46c26 0 45 -21 45 -46s-19 -46 -45 -46zM474 602c-25 0 -44 21 -44 46s19 46 44 46s44 -21 44 -46s-19 -46 -44 -46zM222 -20l-137 464h-73v39h205v-38h-87l106 -378l149 358h19l149 -357l106 377h-89v38h206v-39h-75l-135 -464
h-19l-153 368l-154 -368h-18z" />
    <glyph glyph-name="wdieresis.sc" horiz-adv-x="922" 
d="M383 679c-25 0 -44 21 -44 46s19 46 44 46c26 0 45 -21 45 -46s-19 -46 -45 -46zM544 679c-25 0 -44 21 -44 46s19 46 44 46s44 -21 44 -46s-19 -46 -44 -46zM278 -14l-169 554h-92v39h247v-39h-107l140 -467l155 426h21l156 -426l140 467h-107v39h243v-39h-92l-168 -554
h-27l-157 432l-156 -432h-27z" />
    <glyph glyph-name="Wgrave" unicode="&#x1e80;" horiz-adv-x="1076" 
d="M575 790l-159 76c-19 10 -32 24 -32 36c0 20 15 33 30 33c12 0 23 -7 36 -18l136 -110zM324 -14l-210 697h-91v41h236v-41h-96l178 -613l187 555h27l187 -554l178 612h-100v41h236v-41h-91l-208 -697h-29l-187 551l-188 -551h-29z" />
    <glyph glyph-name="wgrave" unicode="&#x1e81;" horiz-adv-x="787" 
d="M432 583l-168 80c-20 11 -34 25 -34 37c0 22 16 35 32 35c12 0 24 -7 37 -18l144 -116zM222 -20l-137 464h-73v39h205v-38h-87l106 -378l149 358h19l149 -357l106 377h-89v38h206v-39h-75l-135 -464h-19l-153 368l-154 -368h-18z" />
    <glyph glyph-name="wgrave.sc" horiz-adv-x="922" 
d="M504 660l-168 80c-20 11 -34 25 -34 37c0 22 16 35 32 35c12 0 24 -7 37 -18l144 -116zM278 -14l-169 554h-92v39h247v-39h-107l140 -467l155 426h21l156 -426l140 467h-107v39h243v-39h-92l-168 -554h-27l-157 432l-156 -432h-27z" />
    <glyph glyph-name="Yacute" unicode="&#xdd;" horiz-adv-x="715" 
d="M320 791l-11 17l136 110c13 11 24 18 36 18c15 0 30 -13 30 -33c0 -12 -13 -26 -32 -36zM222 0v41h111v260l-224 382h-82v41h225v-41h-89l195 -342l196 342h-91v41h224v-41h-83l-223 -381v-261h111v-41h-270z" />
    <glyph glyph-name="yacute" unicode="&#xfd;" horiz-adv-x="580" 
d="M252 584l-11 18l144 116c14 11 25 18 37 18c17 0 32 -13 32 -35c0 -12 -14 -26 -34 -37zM227 -148c-37 -57 -74 -84 -121 -84c-38 0 -66 20 -66 49c0 22 15 37 36 37c25 0 42 -24 41 -47c26 5 52 23 80 68c14 22 29 51 45 87l27 60l-186 422h-72v39h207v-39h-85l158 -375
l162 375h-88v39h204v-39h-72l-227 -510c-15 -32 -28 -58 -43 -82z" />
    <glyph glyph-name="yacute.sc" horiz-adv-x="630" 
d="M276 660l-11 18l144 116c14 11 25 18 37 18c17 0 32 -13 32 -35c0 -12 -14 -26 -34 -37zM616 579v-39h-88l-191 -320v-181h111v-39h-267v39h111v181l-189 320h-90v39h242v-39h-102l163 -282l164 282h-102v39h238z" />
    <glyph glyph-name="Ycircumflex" unicode="&#x176;" horiz-adv-x="715" 
d="M226 784l-19 23l150 140l149 -140l-19 -23l-130 99zM222 0v41h111v260l-224 382h-82v41h225v-41h-89l195 -342l196 342h-91v41h224v-41h-83l-223 -381v-261h111v-41h-270z" />
    <glyph glyph-name="ycircumflex" unicode="&#x177;" horiz-adv-x="580" 
d="M153 577l-20 24l158 147l157 -147l-20 -24l-137 104zM227 -148c-37 -57 -74 -84 -121 -84c-38 0 -66 20 -66 49c0 22 15 37 36 37c25 0 42 -24 41 -47c26 5 52 23 80 68c14 22 29 51 45 87l27 60l-186 422h-72v39h207v-39h-85l158 -375l162 375h-88v39h204v-39h-72
l-227 -510c-15 -32 -28 -58 -43 -82z" />
    <glyph glyph-name="ycircumflex.sc" horiz-adv-x="630" 
d="M180 653l-20 24l158 147l157 -147l-20 -24l-137 104zM616 579v-39h-88l-191 -320v-181h111v-39h-267v39h111v181l-189 320h-90v39h242v-39h-102l163 -282l164 282h-102v39h238z" />
    <glyph glyph-name="Ydieresis" unicode="&#x178;" horiz-adv-x="715" 
d="M280 809c-24 0 -42 20 -42 43c0 25 18 44 42 44s42 -19 42 -44c0 -23 -18 -43 -42 -43zM433 809c-24 0 -42 20 -42 43c0 25 18 44 42 44s42 -19 42 -44c0 -23 -18 -43 -42 -43zM222 0v41h111v260l-224 382h-82v41h225v-41h-89l195 -342l196 342h-91v41h224v-41h-83
l-223 -381v-261h111v-41h-270z" />
    <glyph glyph-name="ydieresis" unicode="&#xff;" horiz-adv-x="580" 
d="M210 603c-25 0 -44 21 -44 46s19 46 44 46c26 0 45 -21 45 -46s-19 -46 -45 -46zM371 603c-25 0 -44 21 -44 46s19 46 44 46s44 -21 44 -46s-19 -46 -44 -46zM227 -148c-37 -57 -74 -84 -121 -84c-38 0 -66 20 -66 49c0 22 15 37 36 37c25 0 42 -24 41 -47
c26 5 52 23 80 68c14 22 29 51 45 87l27 60l-186 422h-72v39h207v-39h-85l158 -375l162 375h-88v39h204v-39h-72l-227 -510c-15 -32 -28 -58 -43 -82z" />
    <glyph glyph-name="ydieresis.sc" horiz-adv-x="630" 
d="M237 679c-25 0 -44 21 -44 46s19 46 44 46c26 0 45 -21 45 -46s-19 -46 -45 -46zM398 679c-25 0 -44 21 -44 46s19 46 44 46s44 -21 44 -46s-19 -46 -44 -46zM616 579v-39h-88l-191 -320v-181h111v-39h-267v39h111v181l-189 320h-90v39h242v-39h-102l163 -282l164 282
h-102v39h238z" />
    <glyph glyph-name="Ygrave" unicode="&#x1ef2;" horiz-adv-x="715" 
d="M393 791l-159 76c-19 10 -32 24 -32 36c0 20 15 33 30 33c12 0 23 -7 36 -18l136 -110zM222 0v41h111v260l-224 382h-82v41h225v-41h-89l195 -342l196 342h-91v41h224v-41h-83l-223 -381v-261h111v-41h-270z" />
    <glyph glyph-name="ygrave" unicode="&#x1ef3;" horiz-adv-x="580" 
d="M329 584l-168 80c-20 11 -34 25 -34 37c0 22 16 35 32 35c12 0 24 -7 37 -18l144 -116zM227 -148c-37 -57 -74 -84 -121 -84c-38 0 -66 20 -66 49c0 22 15 37 36 37c25 0 42 -24 41 -47c26 5 52 23 80 68c14 22 29 51 45 87l27 60l-186 422h-72v39h207v-39h-85l158 -375
l162 375h-88v39h204v-39h-72l-227 -510c-15 -32 -28 -58 -43 -82z" />
    <glyph glyph-name="ygrave.sc" horiz-adv-x="630" 
d="M358 660l-168 80c-20 11 -34 25 -34 37c0 22 16 35 32 35c12 0 24 -7 37 -18l144 -116zM616 579v-39h-88l-191 -320v-181h111v-39h-267v39h111v181l-189 320h-90v39h242v-39h-102l163 -282l164 282h-102v39h238z" />
    <glyph glyph-name="Zacute" unicode="&#x179;" horiz-adv-x="659" 
d="M292 791l-11 17l136 110c13 11 24 18 36 18c15 0 30 -13 30 -33c0 -12 -13 -26 -32 -36zM55 0v20l471 665h-401v-123h-45v162h513v-21l-471 -664h435v122h46v-161h-548z" />
    <glyph glyph-name="zacute" unicode="&#x17a;" horiz-adv-x="498" 
d="M211 584l-11 18l144 116c14 11 25 18 37 18c17 0 32 -13 32 -35c0 -12 -14 -26 -34 -37zM48 0v16l328 429h-265v-99h-42v137h376v-16l-328 -429h291v98h41v-136h-401z" />
    <glyph glyph-name="zacute.sc" horiz-adv-x="564" 
d="M246 660l-11 18l144 116c14 11 25 18 37 18c17 0 32 -13 32 -35c0 -12 -14 -26 -34 -37zM59 0v24l384 516h-327v-110h-43v149h434v-24l-383 -516h343v110h44v-149h-452z" />
    <glyph glyph-name="Zcaron" unicode="&#x17d;" horiz-adv-x="659" 
d="M459 950l19 -23l-149 -140l-150 140l19 23l131 -99zM55 0v20l471 665h-401v-123h-45v162h513v-21l-471 -664h435v122h46v-161h-548z" />
    <glyph glyph-name="zcaron" unicode="&#x17e;" horiz-adv-x="498" 
d="M387 751l20 -24l-157 -147l-158 147l20 24l138 -104zM48 0v16l328 429h-265v-99h-42v137h376v-16l-328 -429h291v98h41v-136h-401z" />
    <glyph glyph-name="zcaron.sc" horiz-adv-x="564" 
d="M424 827l20 -24l-157 -147l-158 147l20 24l138 -104zM59 0v24l384 516h-327v-110h-43v149h434v-24l-383 -516h343v110h44v-149h-452z" />
    <glyph glyph-name="Zdotaccent" unicode="&#x17b;" horiz-adv-x="659" 
d="M329 807c-26 0 -45 21 -45 45c0 26 19 47 45 47c25 0 44 -21 44 -47c0 -24 -19 -45 -44 -45zM55 0v20l471 665h-401v-123h-45v162h513v-21l-471 -664h435v122h46v-161h-548z" />
    <glyph glyph-name="zdotaccent" unicode="&#x17c;" horiz-adv-x="498" 
d="M250 601c-27 0 -47 22 -47 48s20 48 47 48c26 0 46 -22 46 -48s-20 -48 -46 -48zM48 0v16l328 429h-265v-99h-42v137h376v-16l-328 -429h291v98h41v-136h-401z" />
    <glyph glyph-name="zdotaccent.sc" horiz-adv-x="564" 
d="M287 677c-27 0 -47 22 -47 48s20 48 47 48c26 0 46 -22 46 -48s-20 -48 -46 -48zM59 0v24l384 516h-327v-110h-43v149h434v-24l-383 -516h343v110h44v-149h-452z" />
    <glyph glyph-name="schwa" unicode="&#x259;" horiz-adv-x="563" 
d="M274 -8c-138 0 -214 108 -214 226c0 13 0 21 2 29h395c-5 133 -85 204 -207 204c-65 0 -116 -21 -168 -55l4 45c47 32 107 50 169 50c148 0 249 -99 249 -251c0 -136 -96 -248 -230 -248zM277 31c92 0 168 71 178 178h-350c4 -100 62 -178 172 -178z" />
    <glyph glyph-name="germandbls" unicode="&#xdf;" horiz-adv-x="619" 
d="M395 -9c-74 0 -119 34 -119 73c0 24 16 39 35 39c21 0 36 -16 36 -35c0 -11 -5 -22 -9 -26c9 -7 33 -14 58 -14c77 0 130 46 130 119c0 64 -48 104 -107 139c-69 39 -120 77 -120 146c0 44 22 78 65 121c45 44 71 88 71 145c0 70 -54 120 -125 120
c-46 0 -82 -23 -104 -63c-12 -24 -18 -55 -18 -92v-663h-128v39h83v405h-90v39h90v176c0 50 11 91 29 122c31 50 81 76 142 76c94 0 166 -65 166 -159c0 -71 -33 -122 -79 -168c-39 -38 -58 -63 -58 -98c0 -45 39 -74 100 -110c68 -40 127 -91 127 -175
c0 -92 -70 -156 -175 -156z" />
    <glyph glyph-name="zero" unicode="0" horiz-adv-x="627" 
d="M314 -9c-148 0 -251 129 -251 299s103 298 251 298c146 0 251 -128 251 -298c0 -171 -104 -299 -251 -299zM314 32c121 0 203 108 203 258c0 148 -82 257 -203 257s-203 -108 -203 -257c0 -150 82 -258 203 -258z" />
    <glyph glyph-name="one" unicode="1" horiz-adv-x="457" 
d="M81 0v40h139v491l-129 -35l-9 39l166 48h18v-543h137v-40h-322z" />
    <glyph glyph-name="two" unicode="2" horiz-adv-x="555" 
d="M261 548c-56 0 -106 -26 -130 -60c-4 -7 -8 -14 -10 -21c18 -4 32 -19 32 -37c0 -22 -16 -39 -38 -39c-24 0 -41 20 -41 51c0 20 7 41 19 60c31 48 95 86 171 86c126 0 192 -73 192 -160c0 -93 -75 -148 -161 -206c-71 -46 -143 -101 -184 -182h321v107h42v-147h-415
l-4 20c45 113 135 179 219 236c80 54 136 96 136 172c0 70 -52 120 -149 120z" />
    <glyph glyph-name="three" unicode="3" horiz-adv-x="563" 
d="M57 -4c0 30 19 51 43 51c22 0 36 -17 36 -35c0 -16 -11 -34 -32 -39c3 -10 9 -18 15 -25c28 -31 81 -51 149 -51c110 0 181 70 181 155c0 65 -37 111 -95 137c-36 18 -83 26 -134 26h-20v41h23c51 0 98 13 136 35c47 29 78 71 78 123c0 78 -62 132 -163 132
c-64 0 -111 -22 -136 -54c-5 -7 -10 -16 -13 -25c19 -4 33 -21 33 -37c0 -23 -18 -36 -37 -36c-23 0 -43 20 -43 50c0 19 7 40 21 61c32 48 97 83 178 83c126 0 206 -81 206 -174c0 -66 -42 -121 -101 -152c-23 -11 -48 -20 -76 -24c26 -3 51 -11 73 -20
c68 -30 115 -87 115 -163c0 -119 -99 -200 -227 -200c-83 0 -157 33 -190 81c-13 18 -20 39 -20 60z" />
    <glyph glyph-name="four" unicode="4" horiz-adv-x="568" 
d="M363 -139v219h-332l-7 15l361 492l35 -25l-325 -443h268v201l43 18v-219h137v-39h-137v-219h-43z" />
    <glyph glyph-name="five" unicode="5" horiz-adv-x="545" 
d="M57 -24c0 23 17 47 42 47c21 0 37 -14 37 -36c0 -14 -10 -29 -25 -35c5 -7 9 -12 17 -19c27 -24 69 -38 130 -38c105 0 184 75 184 183c0 107 -74 176 -187 176c-58 0 -109 -13 -154 -32l-19 12l39 345h328v-43h-291l-30 -264c38 14 82 23 129 23c134 0 232 -83 232 -217
c0 -130 -102 -223 -230 -223c-72 0 -134 22 -170 55c-20 20 -32 42 -32 66z" />
    <glyph glyph-name="six" unicode="6" horiz-adv-x="599" 
d="M342 694c-115 0 -222 -123 -226 -377c28 68 106 125 197 125c131 0 224 -97 224 -218c0 -129 -96 -233 -226 -233c-67 0 -125 24 -165 65c-52 52 -74 131 -74 242c0 312 142 437 274 437c53 0 102 -20 132 -50c17 -18 27 -39 27 -60c0 -34 -21 -51 -43 -51
c-23 0 -36 17 -36 37c0 17 7 28 21 36c-18 29 -55 47 -105 47zM311 32c106 0 179 82 179 192c0 102 -69 177 -177 177c-113 0 -190 -90 -190 -186c0 -48 18 -96 52 -130c33 -33 79 -53 136 -53z" />
    <glyph glyph-name="seven" unicode="7" horiz-adv-x="512" 
d="M163 -141l-41 17l289 664h-320v-121h-42v160h413l8 -15z" />
    <glyph glyph-name="eight" unicode="8" horiz-adv-x="571" 
d="M285 -9c-127 0 -224 85 -224 200c0 86 65 159 150 183c-82 28 -135 99 -135 168c0 112 92 193 209 193c118 0 208 -80 208 -193c0 -73 -54 -140 -134 -168c84 -24 150 -96 150 -183c0 -114 -97 -200 -224 -200zM285 393c91 0 162 64 162 149c0 84 -70 152 -162 152
s-161 -67 -161 -152s71 -149 161 -149zM285 31c99 0 175 69 175 161c0 94 -79 161 -175 161c-97 0 -174 -67 -174 -161c0 -92 76 -161 174 -161z" />
    <glyph glyph-name="nine" unicode="9" horiz-adv-x="599" 
d="M422 495c-31 32 -77 52 -133 52c-107 0 -180 -84 -180 -193c0 -102 69 -175 177 -175c113 0 191 88 191 184c0 49 -19 97 -55 132zM247 -145c-55 0 -105 20 -135 51c-17 18 -26 38 -26 58c0 34 21 51 43 51c23 0 37 -16 37 -37c0 -18 -9 -29 -22 -36
c17 -28 55 -47 107 -47c125 0 231 120 233 370c-27 -71 -105 -127 -198 -127c-131 0 -224 95 -224 216c0 128 97 233 227 233c67 0 124 -24 165 -65c51 -52 73 -131 73 -242c0 -315 -146 -425 -280 -425z" />
    <glyph glyph-name="zero.lin" horiz-adv-x="685" 
d="M341 -12c-152 0 -268 149 -268 373c0 226 118 375 271 375c151 0 269 -149 269 -374c0 -226 -119 -374 -272 -374zM342 30c133 0 223 136 223 331c0 197 -91 333 -222 333c-133 0 -222 -136 -222 -332s90 -332 221 -332z" />
    <glyph glyph-name="one.lin" horiz-adv-x="452" 
d="M59 0v41h153v635l-147 -39l-10 43l184 49h20v-688h150v-41h-350z" />
    <glyph glyph-name="two.lin" horiz-adv-x="603" 
d="M82 570c0 19 5 41 17 62c31 55 100 104 196 104c121 0 214 -82 214 -190c0 -112 -70 -171 -178 -249c-100 -72 -183 -149 -213 -256h358v129h45v-170h-447l-12 20c37 148 139 235 242 310c94 70 157 123 157 216c0 84 -73 148 -167 148c-76 0 -132 -35 -154 -76
c-5 -8 -8 -16 -9 -23c22 -4 36 -22 36 -41c0 -23 -18 -40 -40 -40c-26 0 -45 19 -45 56z" />
    <glyph glyph-name="three.lin" horiz-adv-x="568" 
d="M269 30c120 0 185 77 185 159c0 66 -36 116 -99 143c-36 15 -80 24 -131 24h-20v41h23c51 0 97 13 132 35c47 29 77 74 77 125c0 81 -61 136 -165 136c-68 0 -118 -25 -142 -55c-5 -6 -9 -13 -12 -18c17 -5 32 -18 32 -39s-17 -38 -37 -38c-23 0 -44 19 -44 50
c0 18 6 36 18 55c31 50 99 88 188 88c122 0 209 -75 209 -179c0 -65 -38 -119 -96 -152c-22 -11 -46 -21 -72 -26c26 -4 50 -10 72 -20c71 -31 113 -91 113 -167c0 -118 -94 -204 -233 -204c-80 0 -159 33 -195 83c-13 19 -21 40 -21 62c0 29 18 50 42 50
c22 0 39 -17 39 -39c0 -18 -13 -33 -31 -37c3 -8 8 -16 15 -22c28 -30 86 -55 153 -55z" />
    <glyph glyph-name="four.lin" horiz-adv-x="602" 
d="M230 0v41h137v180h-333l-7 17l366 500l35 -25l-332 -452h271v199l47 21v-220h131v-40h-131v-180h110v-41h-294z" />
    <glyph glyph-name="five.lin" horiz-adv-x="563" 
d="M261 30c110 0 191 79 191 192c0 105 -69 179 -188 179c-58 0 -112 -16 -153 -35l-21 11l37 347h331v-47h-294l-27 -257c31 14 70 25 129 25c132 0 234 -78 234 -222c0 -145 -111 -235 -242 -235c-72 0 -135 24 -170 60c-18 19 -29 40 -29 64c0 23 15 47 43 47
c21 0 38 -19 38 -39c0 -14 -8 -30 -24 -36c5 -6 9 -11 16 -16c25 -22 69 -38 129 -38z" />
    <glyph glyph-name="six.lin" horiz-adv-x="626" 
d="M517 622c0 -29 -16 -47 -40 -47c-22 0 -40 17 -40 40c0 15 7 26 17 33c-15 26 -55 45 -106 45c-135 0 -228 -144 -230 -391c10 27 27 52 47 72c41 40 98 65 158 65c141 0 232 -96 232 -223c0 -128 -99 -228 -231 -228c-70 0 -129 24 -173 68c-51 49 -78 131 -78 245
c0 313 137 435 277 435c54 0 98 -17 128 -41c25 -21 39 -47 39 -73zM324 30c105 0 184 79 184 184c0 104 -75 183 -185 183c-106 0 -192 -82 -192 -182c0 -48 21 -96 55 -130c35 -34 83 -55 138 -55z" />
    <glyph glyph-name="seven.lin" horiz-adv-x="539" 
d="M140 0l295 683h-343v-122h-45v163h441l8 -15l-307 -709h-49z" />
    <glyph glyph-name="eight.lin" horiz-adv-x="612" 
d="M306 -12c-133 0 -236 81 -236 204c0 92 78 167 156 185c-80 22 -141 88 -141 169c0 117 101 190 221 190s221 -72 221 -190c0 -81 -61 -147 -141 -169c79 -18 155 -93 155 -185c0 -123 -102 -204 -235 -204zM306 397c99 0 174 63 174 147c0 85 -75 150 -174 150
c-100 0 -174 -65 -174 -150c0 -83 76 -147 174 -147zM306 30c107 0 189 64 189 162c0 88 -84 164 -189 164s-189 -75 -189 -164c0 -97 83 -162 189 -162z" />
    <glyph glyph-name="nine.lin" horiz-adv-x="626" 
d="M302 320c107 0 193 80 193 181c0 53 -19 102 -54 137c-36 35 -84 56 -139 56c-104 0 -184 -78 -184 -189c0 -108 75 -185 184 -185zM102 103c0 28 17 46 41 46c22 0 39 -17 39 -39c0 -15 -7 -27 -19 -34c6 -8 14 -16 24 -22c22 -14 53 -25 95 -25c121 0 227 114 227 379
c-4 -10 -9 -20 -14 -28c-40 -62 -112 -102 -193 -102c-140 0 -232 91 -232 226c0 133 100 232 232 232c69 0 129 -24 171 -67c51 -51 80 -133 80 -250c0 -323 -128 -431 -274 -431c-51 0 -99 17 -132 42c-27 20 -45 47 -45 73z" />
    <glyph glyph-name="period" unicode="." horiz-adv-x="211" 
d="M106 -9c-28 0 -48 22 -48 49c0 28 20 50 48 50c27 0 48 -22 48 -50c0 -27 -21 -49 -48 -49z" />
    <glyph glyph-name="comma" unicode="," horiz-adv-x="211" 
d="M32 -148l-12 19c60 45 82 91 84 126c-26 2 -47 23 -47 47c0 25 21 45 45 45c29 0 52 -23 52 -63c0 -61 -39 -129 -122 -174z" />
    <glyph glyph-name="colon" unicode=":" horiz-adv-x="232" 
d="M117 314c-28 0 -48 21 -48 49s20 50 48 50c27 0 48 -22 48 -50s-21 -49 -48 -49zM117 -9c-28 0 -48 22 -48 49c0 28 20 50 48 50c27 0 48 -22 48 -50c0 -27 -21 -49 -48 -49z" />
    <glyph glyph-name="semicolon" unicode=";" horiz-adv-x="232" 
d="M117 314c-28 0 -48 21 -48 49s20 50 48 50c27 0 48 -22 48 -50s-21 -49 -48 -49zM41 -149l-12 19c61 47 83 94 85 125c-26 2 -48 23 -48 49c0 25 22 46 46 46c30 0 53 -24 53 -66c0 -55 -40 -127 -124 -173z" />
    <glyph glyph-name="ellipsis" unicode="&#x2026;" horiz-adv-x="633" 
d="M116 -9c-27 0 -48 22 -48 49c0 28 21 50 48 50c28 0 48 -22 48 -50c0 -27 -20 -49 -48 -49zM316 -9c-27 0 -47 22 -47 49c0 28 20 50 47 50c28 0 48 -22 48 -50c0 -27 -20 -49 -48 -49zM517 -9c-28 0 -48 22 -48 49c0 28 20 50 48 50c27 0 48 -22 48 -50
c0 -27 -21 -49 -48 -49z" />
    <glyph glyph-name="periodcentered" unicode="&#xb7;" horiz-adv-x="304" 
d="M152 236c-27 0 -48 22 -48 50c0 27 21 49 48 49c28 0 48 -22 48 -49c0 -28 -20 -50 -48 -50z" />
    <glyph glyph-name="bullet" unicode="&#x2022;" horiz-adv-x="292" 
d="M146 206c-49 0 -87 39 -87 89c0 51 38 90 87 90s87 -39 87 -90c0 -50 -38 -89 -87 -89z" />
    <glyph glyph-name="bullet.alt" horiz-adv-x="731" 
d="M366 -55c-170 0 -296 135 -296 300c0 166 126 300 296 300s296 -134 296 -300c0 -165 -126 -300 -296 -300z" />
    <glyph glyph-name="ampersand" unicode="&#x26;" horiz-adv-x="662" 
d="M630 300h-66c-20 -62 -46 -116 -77 -164c39 -37 121 -114 129 -120l-27 -30c-8 7 -87 81 -125 118c-59 -71 -136 -112 -228 -112c-125 0 -193 78 -193 167c0 90 63 149 155 206c-56 64 -75 106 -75 160c0 78 59 155 154 155c76 0 138 -53 138 -132
c0 -67 -46 -122 -157 -189c22 -22 46 -47 77 -75c0 0 84 -81 125 -121c29 43 51 92 66 137h-68v37h172v-37zM167 523c0 -43 18 -80 67 -137c101 63 136 104 136 162c0 56 -39 94 -93 94c-65 0 -110 -50 -110 -119zM236 31c85 0 150 41 200 100c-42 40 -129 124 -129 124
c-33 32 -60 58 -83 83c-88 -54 -135 -105 -135 -180c0 -66 49 -127 147 -127z" />
    <glyph glyph-name="exclam" unicode="!" horiz-adv-x="268" 
d="M122 184l-17 539h57l-16 -539h-24zM134 -9c-25 0 -45 20 -45 46c0 25 20 46 45 46s44 -21 44 -46c0 -26 -19 -46 -44 -46z" />
    <glyph glyph-name="exclamdown" unicode="&#xa1;" horiz-adv-x="268" 
d="M134 640c-25 0 -45 21 -45 47c0 25 20 45 45 45s44 -20 44 -45c0 -26 -19 -47 -44 -47zM105 0l17 539h24l16 -539h-57z" />
    <glyph glyph-name="question" unicode="?" horiz-adv-x="474" 
d="M32 582c0 26 8 51 25 74c33 47 96 79 172 79c125 0 208 -82 208 -189c0 -97 -75 -181 -201 -212l-8 -150h-24l-11 177c130 27 199 96 199 184c0 90 -64 150 -163 150c-63 0 -114 -24 -139 -62c-6 -8 -10 -19 -12 -26c25 -4 38 -21 38 -41c0 -21 -18 -38 -38 -38
c-24 0 -46 21 -46 54zM218 -7c-24 -1 -44 18 -45 42c0 25 18 46 42 46c25 1 44 -19 45 -43c1 -25 -18 -45 -42 -45z" />
    <glyph glyph-name="questiondown" unicode="&#xbf;" horiz-adv-x="474" 
d="M258 732c24 -1 43 -21 42 -46c0 -24 -20 -44 -44 -43c-25 1 -43 21 -42 46c1 24 21 44 44 43zM443 143c0 -26 -9 -52 -26 -75c-33 -46 -96 -79 -172 -79c-125 0 -208 82 -208 190c0 96 74 180 201 211l9 150h23l11 -177c-130 -27 -199 -96 -199 -183
c0 -91 64 -151 163 -151c63 0 113 24 139 62c6 8 10 19 12 27c-25 4 -38 20 -38 40c0 21 17 38 38 38c24 0 47 -21 47 -53z" />
    <glyph glyph-name="quotedblleft" unicode="&#x201c;" horiz-adv-x="393" 
d="M105 538c-30 0 -53 25 -53 67c0 65 41 144 125 191l12 -19c-59 -45 -84 -101 -85 -142c27 -3 49 -24 49 -49c0 -27 -22 -48 -48 -48zM280 538c-30 0 -54 25 -54 67c0 65 43 144 126 191l12 -19c-59 -45 -84 -101 -84 -142c26 -3 48 -24 48 -49c0 -27 -22 -48 -48 -48z
" />
    <glyph glyph-name="quotedblright" unicode="&#x201d;" horiz-adv-x="393" 
d="M41 527l-11 19c58 45 83 101 84 142c-27 3 -49 24 -49 49c0 26 23 47 48 47c30 0 54 -24 54 -67c0 -65 -42 -144 -126 -190zM217 527l-12 19c58 45 83 101 84 142c-27 3 -48 24 -48 49c0 26 22 47 47 47c30 0 54 -24 54 -67c0 -65 -42 -144 -125 -190z" />
    <glyph glyph-name="quoteleft" unicode="&#x2018;" horiz-adv-x="218" 
d="M105 538c-30 0 -53 25 -53 67c0 65 41 144 125 191l12 -19c-59 -45 -84 -101 -85 -142c27 -3 49 -24 49 -49c0 -27 -22 -48 -48 -48z" />
    <glyph glyph-name="quoteright" unicode="&#x2019;" horiz-adv-x="218" 
d="M41 527l-11 19c58 45 83 101 84 142c-27 3 -49 24 -49 49c0 26 23 47 48 47c30 0 54 -24 54 -67c0 -65 -42 -144 -126 -190z" />
    <glyph glyph-name="quotedblbase" unicode="&#x201e;" horiz-adv-x="386" 
d="M32 -148l-12 19c60 45 82 91 84 126c-26 2 -47 23 -47 47c0 25 21 45 45 45c29 0 52 -23 52 -63c0 -61 -39 -129 -122 -174zM205 -148l-11 19c60 45 82 91 84 126c-26 2 -47 23 -47 47c0 25 21 45 45 45c29 0 51 -23 51 -63c0 -61 -38 -129 -122 -174z" />
    <glyph glyph-name="quotesinglbase" unicode="&#x201a;" horiz-adv-x="211" 
d="M32 -148l-12 19c60 45 82 91 84 126c-26 2 -47 23 -47 47c0 25 21 45 45 45c29 0 52 -23 52 -63c0 -61 -39 -129 -122 -174z" />
    <glyph glyph-name="guillemotleft" unicode="&#xab;" horiz-adv-x="506" 
d="M234 131l-189 181l189 182l27 -27l-158 -155l158 -154zM415 131l-189 181l189 182l28 -27l-158 -155l158 -154z" />
    <glyph glyph-name="guillemotright" unicode="&#xbb;" horiz-adv-x="506" 
d="M90 131l-28 27l159 154l-159 155l28 27l190 -182zM272 131l-28 27l158 154l-158 155l28 27l189 -182z" />
    <glyph glyph-name="guilsinglleft" unicode="&#x2039;" horiz-adv-x="324" 
d="M234 131l-189 181l189 182l27 -27l-158 -155l158 -154z" />
    <glyph glyph-name="guilsinglright" unicode="&#x203a;" horiz-adv-x="324" 
d="M90 131l-28 27l159 154l-159 155l28 27l190 -182z" />
    <glyph glyph-name="hyphen" unicode="-" horiz-adv-x="321" 
d="M48 294v45h225v-45h-225z" />
    <glyph glyph-name="endash" unicode="&#x2013;" horiz-adv-x="491" 
d="M32 294v45h428v-45h-428z" />
    <glyph glyph-name="emdash" unicode="&#x2014;" horiz-adv-x="809" 
d="M32 294v45h745v-45h-745z" />
    <glyph glyph-name="hyphen.lin" horiz-adv-x="305" 
d="M48 361v45h225v-45h-225z" />
    <glyph glyph-name="endash.lin" horiz-adv-x="467" 
d="M32 361v45h428v-45h-428z" />
    <glyph glyph-name="emdash.lin" horiz-adv-x="769" 
d="M32 361v45h745v-45h-745z" />
    <glyph glyph-name="underscore" unicode="_" horiz-adv-x="604" 
d="M4 -155v45h596v-45h-596z" />
    <glyph glyph-name="slash" unicode="/" horiz-adv-x="517" 
d="M8 -237l-41 18l476 1074l41 -18z" />
    <glyph glyph-name="backslash" unicode="\" horiz-adv-x="517" 
d="M508 -237l-476 1074l42 18l475 -1074z" />
    <glyph glyph-name="bar" unicode="|" horiz-adv-x="308" 
d="M132 -232v1081h43v-1081h-43z" />
    <glyph glyph-name="parenleft" unicode="(" horiz-adv-x="389" 
d="M383 -262c-201 134 -296 358 -296 564c0 205 95 429 296 563l26 -35c-188 -128 -274 -337 -274 -528s86 -401 274 -529z" />
    <glyph glyph-name="parenright" unicode=")" horiz-adv-x="389" 
d="M6 -262l-26 35c188 128 274 337 274 529c0 190 -86 400 -274 528l26 35c201 -134 295 -358 295 -563c0 -206 -94 -430 -295 -564z" />
    <glyph glyph-name="parenleft.lin" horiz-adv-x="370" 
d="M364 -182c-191 127 -281 339 -281 534s90 407 281 534l25 -33c-179 -121 -260 -319 -260 -501c0 -181 81 -380 260 -501z" />
    <glyph glyph-name="parenright.lin" horiz-adv-x="370" 
d="M6 -182l-25 33c178 121 260 319 260 501c0 181 -82 380 -260 501l25 33c190 -127 280 -339 280 -534s-90 -407 -280 -534z" />
    <glyph glyph-name="bracketleft" unicode="[" horiz-adv-x="396" 
d="M132 -232v1081h235v-43h-188v-995h188v-43h-235z" />
    <glyph glyph-name="bracketright" unicode="]" horiz-adv-x="396" 
d="M28 -232v43h189v995h-189v43h237v-1081h-237z" />
    <glyph glyph-name="bracketleft.lin" horiz-adv-x="377" 
d="M125 -154v1025h224v-41h-179v-943h179v-41h-224z" />
    <glyph glyph-name="bracketright.lin" horiz-adv-x="377" 
d="M27 -154v41h179v943h-179v41h225v-1025h-225z" />
    <glyph glyph-name="braceleft" unicode="{" horiz-adv-x="381" 
d="M312 -252c-142 3 -231 79 -231 172c0 57 35 98 83 150c33 36 63 71 63 110c0 62 -62 105 -137 105h-26v43h26c75 0 137 43 137 106c0 37 -30 73 -63 108c-48 52 -83 93 -83 151c0 92 89 168 231 171v-37c-128 -5 -185 -73 -185 -134c0 -40 34 -83 73 -126
c38 -41 73 -87 73 -133c0 -50 -37 -110 -130 -128c93 -17 130 -78 130 -127c0 -47 -35 -92 -73 -133c-39 -44 -73 -86 -73 -126c0 -62 57 -129 185 -134v-38z" />
    <glyph glyph-name="braceright" unicode="}" horiz-adv-x="381" 
d="M70 -252v38c127 5 183 72 183 134c0 40 -33 82 -72 126c-38 41 -74 86 -74 133c0 49 38 110 130 127c-92 18 -130 78 -130 128c0 46 36 92 74 133c39 43 72 86 72 126c0 61 -56 129 -183 134v37c141 -3 230 -79 230 -171c0 -58 -35 -99 -84 -151
c-33 -35 -62 -71 -62 -108c0 -63 62 -106 137 -106h26v-43h-26c-75 0 -137 -43 -137 -105c0 -39 29 -74 62 -110c49 -52 84 -93 84 -150c0 -93 -89 -169 -230 -172z" />
    <glyph glyph-name="braceleft.lin" horiz-adv-x="363" 
d="M312 -186c-142 3 -231 79 -231 172c0 57 35 98 83 150c33 36 63 71 63 110c0 62 -62 105 -137 105h-26v43h26c75 0 137 43 137 106c0 37 -30 73 -63 108c-48 52 -83 93 -83 151c0 92 89 168 231 171v-37c-128 -5 -185 -73 -185 -134c0 -40 34 -83 73 -126
c38 -41 73 -87 73 -133c0 -50 -37 -110 -130 -128c93 -17 130 -78 130 -127c0 -47 -35 -92 -73 -133c-39 -44 -73 -86 -73 -126c0 -62 57 -129 185 -134v-38z" />
    <glyph glyph-name="braceright.lin" horiz-adv-x="363" 
d="M70 -186v38c127 5 183 72 183 134c0 40 -33 82 -72 126c-38 41 -74 86 -74 133c0 49 38 110 130 127c-92 18 -130 78 -130 128c0 46 36 92 74 133c39 43 72 86 72 126c0 61 -56 129 -183 134v37c141 -3 230 -79 230 -171c0 -58 -35 -99 -84 -151
c-33 -35 -62 -71 -62 -108c0 -63 62 -106 137 -106h26v-43h-26c-75 0 -137 -43 -137 -105c0 -39 29 -74 62 -110c49 -52 84 -93 84 -150c0 -93 -89 -169 -230 -172z" />
    <glyph glyph-name="at" unicode="@" horiz-adv-x="931" 
d="M382 -201c-195 0 -319 145 -319 338c0 313 228 560 490 560c198 0 320 -129 320 -323c0 -179 -96 -328 -208 -328c-70 0 -99 47 -91 100c-27 -56 -88 -102 -156 -102c-85 0 -147 57 -147 161c0 134 100 243 212 243c80 0 122 -52 130 -112l27 109h41l-64 -258
c-18 -66 -2 -106 50 -106c93 0 170 143 170 294c0 170 -106 290 -284 290c-247 0 -454 -235 -454 -528c0 -171 108 -305 284 -305c69 0 136 17 192 47l15 -29c-61 -33 -133 -51 -208 -51zM426 82c104 0 170 113 170 209c0 74 -44 119 -112 119c-95 0 -167 -94 -167 -204
c0 -77 38 -124 109 -124z" />
    <glyph glyph-name="copyright" unicode="&#xa9;" horiz-adv-x="665" 
d="M332 -9c-161 0 -277 126 -277 284s116 285 277 285s277 -127 277 -284c0 -158 -116 -285 -277 -285zM332 18c143 0 246 117 246 258s-103 258 -246 258c-142 0 -246 -117 -246 -258s104 -258 246 -258zM342 399c-64 0 -111 -54 -111 -119c0 -62 46 -118 114 -118
c34 0 62 13 88 37l18 -22c-29 -29 -68 -43 -106 -43c-88 0 -146 66 -146 145c0 88 70 148 143 148c63 0 107 -38 107 -69c0 -15 -10 -28 -24 -28c-12 0 -22 10 -22 22c0 8 5 15 10 17c-8 14 -33 30 -71 30z" />
    <glyph glyph-name="published" unicode="&#x2117;" horiz-adv-x="665" 
d="M332 -9c-161 0 -277 126 -277 284s116 285 277 285s277 -127 277 -284c0 -158 -116 -285 -277 -285zM332 18c143 0 246 117 246 258s-103 258 -246 258c-142 0 -246 -117 -246 -258s104 -258 246 -258zM353 258c47 0 76 26 76 68c0 40 -34 64 -77 64h-43v-131
c10 0 25 -1 44 -1zM351 232c-16 0 -32 0 -42 1v-80h41v-26h-109v26h39v237h-39v27h111c61 0 107 -36 107 -91c0 -59 -43 -94 -108 -94z" />
    <glyph glyph-name="registered.alt" horiz-adv-x="665" 
d="M332 -9c-161 0 -277 126 -277 284s116 285 277 285s277 -127 277 -284c0 -158 -116 -285 -277 -285zM332 18c143 0 246 117 246 258s-103 258 -246 258c-142 0 -246 -117 -246 -258s104 -258 246 -258zM326 400h-40v-119h37c46 0 79 22 79 61c0 37 -31 58 -76 58z
M325 136h-107v27h39v237h-39v26h109c64 0 105 -33 105 -83c0 -40 -26 -69 -64 -80l63 -100h35v-27h-56l-71 119h-53v-92h39v-27z" />
    <glyph glyph-name="registered" unicode="&#xae;" horiz-adv-x="458" 
d="M229 390c-116 0 -203 92 -203 206c0 116 87 208 203 208s203 -92 203 -208c0 -113 -88 -206 -203 -206zM229 776c-98 0 -172 -79 -172 -179s74 -180 172 -180c97 0 172 80 172 180s-74 179 -172 179zM202 603h24c30 0 51 14 51 38c0 25 -19 38 -51 38h-24v-76zM148 498
v24h27v157h-27v24h80c46 0 77 -21 77 -61c0 -27 -18 -46 -41 -56l36 -64h26v-24h-44l-47 81h-33v-57h28v-24h-82z" />
    <glyph glyph-name="copyright.lin" horiz-adv-x="871" 
d="M436 -11c-207 0 -364 166 -364 373s158 373 364 373s363 -166 363 -373s-158 -373 -363 -373zM436 17c187 0 331 153 331 345c0 191 -144 345 -331 345s-332 -153 -332 -345s145 -345 332 -345zM448 522c-85 0 -146 -70 -146 -156c0 -81 60 -153 148 -153
c44 0 82 17 114 48l21 -25c-36 -36 -84 -55 -135 -55c-111 0 -184 85 -184 185c0 110 83 189 182 189c76 0 135 -46 135 -90c0 -19 -12 -33 -29 -33c-16 0 -27 12 -27 27c0 10 7 18 14 21c-9 19 -44 42 -93 42z" />
    <glyph glyph-name="published.lin" horiz-adv-x="871" 
d="M436 -11c-207 0 -364 166 -364 373s158 373 364 373s363 -166 363 -373s-158 -373 -363 -373zM436 17c187 0 331 153 331 345c0 191 -144 345 -331 345s-332 -153 -332 -345s145 -345 332 -345zM455 345c60 0 96 33 96 85c0 51 -41 82 -97 82h-54v-166c12 0 33 -1 55 -1z
M453 314c-19 0 -41 1 -53 1v-102h51v-31h-134v31h48v299h-48v31h137c76 0 133 -44 133 -113c0 -73 -53 -116 -134 -116z" />
    <glyph glyph-name="registered.lin" horiz-adv-x="871" 
d="M436 -11c-207 0 -364 166 -364 373s158 373 364 373s363 -166 363 -373s-158 -373 -363 -373zM436 17c187 0 331 153 331 345c0 191 -144 345 -331 345s-332 -153 -332 -345s145 -345 332 -345zM382 368h50c56 0 98 27 98 77c0 47 -37 74 -96 74h-52v-151zM382 337v-118
h49v-31h-131v31h48v300h-48v31h136c78 0 130 -41 130 -104c0 -51 -35 -87 -82 -99l80 -128h44v-31h-66l-90 149h-70z" />
    <glyph glyph-name="servicemark" unicode="&#x2120;" horiz-adv-x="646" 
d="M259 479v29h44l9 227h-43v28h81l90 -199l92 199h80v-28h-44l10 -227h44v-29h-111v29h38l-8 210l-94 -203h-14l-95 203l-6 -210h38v-29h-111zM122 473c-58 0 -98 32 -98 61c0 16 9 27 22 27c14 0 22 -10 22 -21c0 -8 -2 -13 -6 -18c10 -11 31 -21 60 -21c40 0 65 21 65 51
c0 31 -30 44 -64 56c-49 18 -88 37 -88 85c0 42 37 75 91 75c48 0 88 -27 88 -57c0 -15 -10 -25 -23 -25c-14 0 -23 10 -23 22c0 6 4 11 8 15c-9 10 -31 18 -50 18c-37 0 -60 -20 -60 -46c0 -31 32 -45 67 -58c49 -17 86 -35 86 -82c0 -49 -41 -82 -97 -82z" />
    <glyph glyph-name="trademark" unicode="&#x2122;" horiz-adv-x="695" 
d="M87 479v29h46v229h-82v-49h-30v75h255v-75h-31v49h-81v-229h44v-29h-121zM308 479v29h43l11 227h-44v28h81l91 -199l91 199h80v-28h-44l10 -227h44v-29h-111v29h38l-8 210l-93 -203h-15l-95 203l-6 -210h38v-29h-111z" />
    <glyph glyph-name="asterisk" unicode="*" horiz-adv-x="440" 
d="M347 655l-113 -17l81 -79c18 -17 22 -40 7 -53c-18 -15 -40 -4 -51 20l-51 103l-51 -103c-10 -23 -31 -34 -49 -21c-16 12 -14 35 6 54l81 79l-114 17c-26 4 -42 22 -35 42c7 19 31 21 52 10l102 -53l-19 114c-5 26 7 46 27 46s33 -20 27 -46l-19 -114l102 53
c21 12 46 8 52 -10c6 -20 -7 -38 -35 -42z" />
    <glyph glyph-name="dagger" unicode="&#x2020;" horiz-adv-x="504" 
d="M239 -2l-9 463l-118 13c2 -30 -17 -53 -41 -53c-27 0 -41 21 -41 42c0 27 18 49 53 49c8 0 19 -1 30 -3l127 -26l-20 192c-5 39 5 61 32 61s37 -22 32 -61l-20 -192l127 26c10 2 21 3 30 3c35 0 53 -22 53 -49c0 -21 -15 -42 -41 -42c-25 0 -44 22 -42 53l-117 -13
l-10 -463h-25z" />
    <glyph glyph-name="daggerdbl" unicode="&#x2021;" horiz-adv-x="504" 
d="M252 -143c-27 0 -37 22 -32 61l18 156l-111 -23c-10 -2 -22 -4 -30 -4c-34 0 -54 22 -54 49c0 20 15 41 42 41c24 0 43 -21 42 -52l102 12l12 199l-12 200l-102 12c1 -31 -18 -52 -42 -52c-27 0 -42 21 -42 41c0 26 20 48 54 48c8 0 20 -1 30 -3l111 -23l-18 156
c-5 39 5 61 32 61s37 -23 31 -61l-17 -156l111 23c10 2 21 3 30 3c34 0 54 -22 54 -48c0 -20 -16 -41 -43 -41c-24 0 -43 21 -41 52l-102 -12l-12 -200l12 -199l102 -12c-2 31 17 52 41 52c27 0 43 -21 43 -41c0 -27 -20 -49 -54 -49c-9 0 -20 2 -30 4l-111 23l17 -156
c6 -39 -4 -61 -31 -61z" />
    <glyph glyph-name="asciicircum" unicode="^" horiz-adv-x="509" 
d="M118 443l-21 24l158 147l157 -147l-20 -24l-137 104z" />
    <glyph glyph-name="asciitilde" unicode="~" horiz-adv-x="491" 
d="M326 233c-39 0 -65 18 -96 43c-28 23 -44 33 -64 33c-30 0 -48 -24 -58 -68l-37 8c7 60 45 107 95 107c38 0 64 -18 95 -43c28 -23 44 -32 63 -32c30 0 48 24 58 67l37 -9c-6 -59 -45 -106 -93 -106z" />
    <glyph glyph-name="dollar" unicode="$" horiz-adv-x="517" 
d="M124 435c0 -59 58 -85 125 -108l15 215c-81 -1 -140 -41 -140 -107zM412 152c0 66 -57 95 -132 120l-17 -236c90 1 149 45 149 116zM311 659l-6 -83c85 -10 143 -52 143 -98c0 -25 -15 -39 -35 -39c-19 0 -37 14 -37 36c0 11 4 22 12 30c-12 14 -47 29 -88 35l-17 -225
c93 -32 172 -68 172 -163c0 -100 -83 -151 -194 -152l-9 -121l-38 3l8 119c-92 9 -166 53 -166 112c0 23 15 41 36 41c23 0 37 -17 37 -36c0 -12 -6 -23 -15 -32c13 -21 54 -43 113 -49l19 247c-86 29 -164 62 -164 151c0 83 80 142 185 143l6 84z" />
    <glyph glyph-name="dollar.lin" horiz-adv-x="617" 
d="M148 547c0 -78 58 -114 147 -146l24 284c-105 0 -171 -60 -171 -138zM500 188c0 86 -69 123 -173 158l-26 -308c120 -3 199 56 199 150zM290 -108l-41 4l9 108c-120 15 -195 84 -195 137c0 32 19 51 42 51c21 0 38 -15 38 -38c0 -17 -9 -32 -21 -43
c18 -29 71 -60 140 -69l28 316c-104 36 -187 81 -187 186c0 104 84 180 218 179l9 98l40 -4l-8 -97c97 -12 169 -72 169 -130c0 -30 -18 -46 -40 -46s-39 16 -39 39c0 16 8 31 19 41c-15 27 -62 49 -114 58l-26 -294c117 -40 214 -83 214 -197c0 -122 -108 -194 -246 -190z
" />
    <glyph glyph-name="sterling" unicode="&#xa3;" horiz-adv-x="531" 
d="M396 154h-193c1 -13 2 -26 2 -40c0 -72 -28 -123 -66 -162c38 -2 87 -14 122 -27c49 -17 77 -22 110 -22c54 0 84 21 107 65l34 -19c-29 -56 -72 -87 -140 -87c-37 0 -76 9 -125 27c-38 14 -76 24 -118 24h-18c-23 -34 -54 -49 -76 -49c-19 0 -35 12 -35 28
c0 27 29 54 95 58c42 44 67 100 67 164c0 14 -1 27 -3 40h-110v38h103l-13 44c-13 41 -26 83 -26 149c0 106 73 202 195 202c98 0 168 -57 168 -114c0 -34 -20 -48 -39 -48c-20 0 -35 14 -35 36c0 17 10 32 20 36c-14 27 -49 51 -114 51c-96 0 -152 -80 -152 -163
c0 -62 13 -103 26 -142c5 -17 10 -34 14 -51h200v-38z" />
    <glyph glyph-name="sterling.lin" horiz-adv-x="606" 
d="M54 22c0 24 28 54 97 55c37 46 58 104 58 167c0 14 -1 30 -4 45h-115v39h107c-4 17 -9 33 -15 50c-18 52 -32 98 -32 158c0 110 82 198 193 198c108 0 176 -63 176 -123c0 -31 -21 -46 -41 -46c-22 0 -39 16 -39 39c0 16 12 31 21 38c-15 29 -56 52 -118 52
c-85 0 -148 -71 -148 -157c0 -53 14 -100 29 -146c7 -22 13 -42 18 -63h189v-39h-182c2 -15 3 -31 3 -46c0 -73 -26 -132 -58 -165c34 -1 76 -11 114 -23c52 -16 83 -25 121 -25c55 0 81 25 99 77l37 -16c-19 -65 -62 -103 -134 -103c-47 0 -84 11 -136 29
c-41 13 -76 24 -127 25h-1c-22 -36 -54 -53 -77 -53c-22 0 -35 13 -35 33z" />
    <glyph glyph-name="Euro" unicode="&#x20ac;" horiz-adv-x="658" 
d="M47 339v38h76c37 128 147 210 269 210c116 0 207 -74 207 -144c0 -27 -17 -47 -42 -47c-18 0 -34 14 -34 35c0 15 10 31 25 35c-12 35 -70 81 -156 81c-104 -1 -189 -70 -221 -170h242v-38h-252c-3 -18 -4 -36 -4 -55c0 -17 1 -34 4 -50h252v-38h-242
c31 -95 114 -166 224 -166c69 0 128 26 180 74l26 -32c-57 -54 -130 -82 -206 -82c-136 0 -238 88 -272 206h-76v38h68c-3 16 -4 33 -4 50c0 19 1 37 4 55h-68z" />
    <glyph glyph-name="Euro.lin" horiz-adv-x="783" 
d="M39 420v40h110c35 170 161 274 316 274c135 1 237 -91 237 -177c0 -29 -17 -53 -45 -53c-23 0 -39 19 -39 39s13 37 32 43c-11 44 -86 107 -187 107c-134 0 -236 -87 -268 -233h295v-40h-301c-3 -20 -4 -41 -4 -62c0 -24 1 -47 4 -68h301v-40h-293
c31 -132 120 -220 256 -220c89 0 155 32 213 88l28 -31c-58 -60 -139 -99 -242 -99c-160 0 -269 107 -302 262h-111v40h104c-3 21 -5 44 -5 67c0 22 1 42 4 63h-103z" />
    <glyph glyph-name="yen" unicode="&#xa5;" horiz-adv-x="564" 
d="M396 0h-229v39h95v102h-166v37h166v89h-166v37h143l-146 236h-71v39h191v-39h-73l143 -236l141 236h-74v39h191v-39h-72l-146 -236h143v-37h-164v-89h164v-37h-164v-102h94v-39z" />
    <glyph glyph-name="yen.lin" horiz-adv-x="715" 
d="M222 0v40h112v128h-189v39h189v90h-189v39h168l-204 347h-82v41h225v-41h-89l196 -343l194 343h-90v41h224v-41h-83l-203 -347h168v-39h-189v-90h189v-39h-189v-128h112v-40h-270z" />
    <glyph glyph-name="cent" unicode="&#xa2;" horiz-adv-x="554" 
d="M105 285c0 -101 61 -174 154 -198l36 412c-96 -6 -190 -86 -190 -214zM500 404c0 -24 -18 -49 -45 -49c-16 0 -34 11 -34 36c0 12 10 29 28 37c-12 35 -61 63 -116 70l-37 -417c10 -1 20 -2 31 -2c58 0 109 17 162 51l-4 -44c-46 -32 -108 -46 -160 -46
c-11 0 -22 0 -32 1l-14 -162l-38 4l14 164c-115 27 -196 119 -196 239c0 138 109 247 239 252l11 126l38 -3l-11 -125c92 -11 164 -72 164 -132z" />
    <glyph glyph-name="cent.lin" horiz-adv-x="533" 
d="M98 370c0 -93 55 -162 141 -185l34 387c-93 -6 -175 -79 -175 -202zM221 -16l15 160c-109 26 -185 112 -185 227c0 134 102 235 226 240l12 127l39 -4l-11 -125c86 -12 152 -70 152 -126c0 -23 -16 -49 -43 -49c-15 0 -33 11 -33 34c0 11 9 30 27 37
c-12 32 -56 59 -108 66l-34 -393c9 -1 19 -2 30 -2c49 0 99 15 151 51l-3 -45c-43 -29 -102 -45 -152 -45c-10 0 -21 0 -30 1l-14 -158z" />
    <glyph glyph-name="numbersign" unicode="#" horiz-adv-x="581" 
d="M219 387l-29 -188h171l28 188h-170zM63 387v40h122l24 152h40l-23 -152h171l23 152h40l-24 -152h117v-40h-123l-29 -188h116v-40h-122l-24 -159h-41l24 159h-170l-24 -159h-41l24 159h-116v40h122l30 188h-116z" />
    <glyph glyph-name="numbersign.lin" horiz-adv-x="623" 
d="M250 471l-35 -226h156l34 226h-155zM71 471v35h145l34 217h39l-33 -217h156l33 217h39l-34 -217h146v-35h-151l-35 -226h141v-36h-146l-32 -209h-40l32 209h-155l-32 -209h-40l32 209h-143v36h149l35 226h-140z" />
    <glyph glyph-name="paragraph" unicode="&#xb6;" horiz-adv-x="631" 
d="M248 0v39h92v183c-21 -1 -54 -1 -88 -1c-118 0 -205 69 -205 182c0 103 90 176 209 176h323v-39h-87v-500h87v-40h-331zM382 39h67v502h-67v-502z" />
    <glyph glyph-name="paragraph.lin" horiz-adv-x="720" 
d="M289 0v41h102v231c-22 -1 -42 -1 -80 -1c-157 0 -261 89 -261 228c0 137 115 225 266 225h342v-41h-96v-642h96v-41h-369zM438 39h77v646h-77v-646z" />
    <glyph glyph-name="section" unicode="&#xa7;" horiz-adv-x="523" 
d="M260 212c13 -4 26 -7 38 -11c56 15 97 42 97 80c0 42 -40 61 -131 83c-15 3 -29 7 -41 10c-55 -15 -93 -44 -93 -79c0 -43 38 -61 130 -83zM271 587c87 0 155 -39 155 -87c0 -21 -12 -38 -34 -38c-20 0 -34 14 -34 36c0 8 2 16 7 22c-13 15 -53 29 -94 29
c-70 0 -112 -28 -112 -67s33 -56 128 -81c89 -23 156 -51 156 -115c0 -51 -42 -83 -101 -101c45 -19 72 -45 72 -89c0 -59 -64 -108 -160 -108c-88 0 -157 40 -157 88c0 20 13 37 34 37s35 -14 35 -35c0 -8 -1 -16 -7 -22c13 -17 53 -29 94 -29c69 0 113 28 113 65
c0 41 -34 57 -129 82c-89 24 -156 51 -156 114c0 49 40 84 100 101c-46 20 -71 47 -71 90c0 58 64 108 161 108z" />
    <glyph glyph-name="section.lin" horiz-adv-x="594" 
d="M299 464c-19 4 -36 9 -52 14c-80 -23 -123 -62 -123 -111c0 -51 48 -78 171 -108l50 -13c76 22 124 59 124 111s-48 77 -170 107zM133 137c22 0 39 -14 39 -37c0 -11 -3 -22 -11 -31c16 -21 69 -41 124 -41c89 0 149 37 149 89s-36 72 -165 105c-108 28 -193 61 -193 140
c0 60 49 106 129 131c-60 24 -92 55 -92 111c0 74 82 131 194 131c54 0 99 -13 131 -31c37 -20 59 -48 59 -75c0 -24 -16 -41 -37 -41c-22 0 -39 14 -39 37c0 10 3 21 11 30c-4 6 -13 13 -24 19c-25 12 -62 21 -99 21c-88 0 -149 -36 -149 -89c0 -52 38 -72 164 -104
c108 -28 194 -61 194 -140c0 -62 -52 -107 -128 -131c57 -23 90 -53 90 -110c0 -76 -81 -132 -194 -132c-71 0 -127 22 -159 51c-20 17 -31 36 -31 56c0 23 16 41 37 41z" />
    <glyph glyph-name="ordfeminine" unicode="&#xaa;" horiz-adv-x="390" 
d="M155 505c38 0 72 20 95 46v55c-24 8 -55 14 -86 14c-51 0 -77 -27 -77 -59c0 -31 23 -56 68 -56zM149 475c-60 0 -97 36 -97 84c0 52 46 87 110 87c32 0 70 -7 88 -15v44c0 25 -8 43 -22 54c-12 11 -32 17 -57 17c-30 0 -47 -8 -57 -17c4 -4 6 -10 6 -18
c0 -14 -10 -24 -25 -24c-16 0 -26 12 -26 27c0 29 38 63 105 63c31 0 57 -8 75 -21c22 -16 35 -43 35 -76v-170h49v-29h-82v41c-24 -25 -62 -47 -102 -47zM59 365v32h274v-32h-274z" />
    <glyph glyph-name="ordmasculine" unicode="&#xba;" horiz-adv-x="409" 
d="M205 475c-88 0 -148 67 -148 151s60 152 148 152c87 0 148 -66 148 -152c0 -84 -61 -151 -148 -151zM205 505c65 0 111 52 111 121s-46 121 -111 121c-66 0 -112 -52 -112 -121s46 -121 112 -121zM73 365v32h262v-32h-262z" />
    <glyph glyph-name="ordfeminine.lin" horiz-adv-x="371" 
d="M155 585c38 0 72 20 95 46v55c-24 8 -55 14 -86 14c-51 0 -77 -27 -77 -59c0 -31 23 -56 68 -56zM149 555c-60 0 -97 36 -97 84c0 52 46 87 110 87c32 0 70 -7 88 -15v44c0 25 -8 43 -22 54c-12 11 -32 17 -57 17c-30 0 -47 -8 -57 -17c4 -4 6 -10 6 -18
c0 -14 -10 -24 -25 -24c-16 0 -26 12 -26 27c0 29 38 63 105 63c31 0 57 -8 75 -21c22 -16 35 -43 35 -76v-170h49v-29h-82v41c-24 -25 -62 -47 -102 -47zM59 445v32h274v-32h-274z" />
    <glyph glyph-name="ordmasculine.lin" horiz-adv-x="389" 
d="M205 555c-88 0 -148 67 -148 151s60 152 148 152c87 0 148 -66 148 -152c0 -84 -61 -151 -148 -151zM205 585c65 0 111 52 111 121s-46 121 -111 121c-66 0 -112 -52 -112 -121s46 -121 112 -121zM73 445v32h262v-32h-262z" />
    <glyph glyph-name="degree" unicode="&#xb0;" horiz-adv-x="347" 
d="M173 489c-82 0 -140 65 -140 143c0 79 58 143 140 143c81 0 139 -64 139 -143c0 -78 -58 -143 -139 -143zM173 522c60 0 101 48 101 110s-41 111 -101 111c-61 0 -103 -49 -103 -111s42 -110 103 -110z" />
    <glyph glyph-name="degree.lin" horiz-adv-x="330" 
d="M173 568c-82 0 -140 65 -140 143c0 79 58 143 140 143c81 0 139 -64 139 -143c0 -78 -58 -143 -139 -143zM173 601c60 0 101 48 101 110s-41 111 -101 111c-61 0 -103 -49 -103 -111s42 -110 103 -110z" />
    <glyph glyph-name="percent" unicode="%" horiz-adv-x="722" 
d="M199 321c-73 0 -129 60 -129 133c0 74 56 134 129 134s128 -60 128 -134c0 -73 -55 -133 -128 -133zM147 -25l-30 23l224 292l223 293l31 -22c-5 -7 -179 -233 -225 -294c-47 -60 -218 -285 -223 -292zM199 357c52 0 88 45 88 97c0 53 -36 98 -88 98s-88 -45 -88 -98
c0 -52 36 -97 88 -97zM523 259c72 0 128 -60 128 -134c0 -73 -56 -133 -128 -133c-73 0 -129 60 -129 133c0 74 56 134 129 134zM523 223c-52 0 -88 -44 -88 -98c0 -53 36 -97 88 -97s88 44 88 97c0 54 -36 98 -88 98z" />
    <glyph glyph-name="perthousand" unicode="&#x2030;" horiz-adv-x="1021" 
d="M199 321c-73 0 -129 60 -129 133c0 74 56 134 129 134s128 -60 128 -134c0 -73 -55 -133 -128 -133zM147 -25l-30 23l224 292l223 293l31 -22c-5 -7 -179 -233 -225 -294c-47 -60 -218 -285 -223 -292zM199 357c52 0 88 45 88 97c0 53 -36 98 -88 98s-88 -45 -88 -98
c0 -52 36 -97 88 -97zM523 -8c-73 0 -129 60 -129 133c0 74 56 134 129 134c72 0 128 -60 128 -134c0 -73 -56 -133 -128 -133zM822 -8c-73 0 -128 60 -128 133c0 74 55 134 128 134s129 -60 129 -134c0 -73 -56 -133 -129 -133zM822 28c52 0 88 44 88 97
c0 54 -36 98 -88 98s-88 -44 -88 -98c0 -53 36 -97 88 -97zM523 28c52 0 88 44 88 97c0 54 -36 98 -88 98s-88 -44 -88 -98c0 -53 36 -97 88 -97z" />
    <glyph glyph-name="percent.lin" horiz-adv-x="708" 
d="M43 578c0 87 66 157 152 157s151 -70 151 -157s-65 -157 -151 -157s-152 70 -152 157zM120 -8l-33 22c5 6 196 282 250 358l252 360l32 -21c-6 -9 -198 -286 -252 -362c-53 -74 -245 -351 -249 -357zM85 578c0 -66 46 -121 110 -121s110 55 110 121s-46 121 -110 121
s-110 -55 -110 -121zM362 146c0 87 65 157 151 157s152 -70 152 -157s-66 -158 -152 -158s-151 71 -151 158zM403 146c0 -66 46 -121 110 -121s110 55 110 121s-46 121 -110 121s-110 -55 -110 -121z" />
    <glyph glyph-name="perthousand.lin" horiz-adv-x="1067" 
d="M43 578c0 87 66 157 152 157s151 -70 151 -157s-65 -157 -151 -157s-152 70 -152 157zM120 -8l-33 22c5 6 196 282 250 358l252 360l32 -21c-6 -9 -198 -286 -252 -362c-53 -74 -245 -351 -249 -357zM85 578c0 -66 46 -121 110 -121s110 55 110 121s-46 121 -110 121
s-110 -55 -110 -121zM362 146c0 87 65 157 151 157s152 -70 152 -157s-66 -158 -152 -158s-151 71 -151 158zM720 146c0 87 66 157 152 157s152 -70 152 -157s-66 -158 -152 -158s-152 71 -152 158zM762 146c0 -66 46 -121 110 -121s110 55 110 121s-46 121 -110 121
s-110 -55 -110 -121zM403 146c0 -66 46 -121 110 -121s110 55 110 121s-46 121 -110 121s-110 -55 -110 -121z" />
    <glyph glyph-name="quotedbl" unicode="&#x22;" horiz-adv-x="330" 
d="M78 538l-25 181c-5 34 9 57 34 57c26 0 41 -22 35 -57l-26 -181h-18zM232 538l-25 181c-6 34 9 57 34 57c26 0 40 -22 34 -57l-25 -181h-18z" />
    <glyph glyph-name="quotesingle" unicode="'" horiz-adv-x="176" 
d="M78 538l-25 181c-5 34 9 57 34 57c26 0 41 -22 35 -57l-26 -181h-18z" />
    <glyph glyph-name="quotedbl.lin" horiz-adv-x="314" 
d="M78 618l-25 181c-5 34 9 57 34 57c26 0 41 -22 35 -57l-26 -181h-18zM232 618l-25 181c-6 34 9 57 34 57c26 0 40 -22 34 -57l-25 -181h-18z" />
    <glyph glyph-name="quotesingle.lin" horiz-adv-x="168" 
d="M78 618l-25 181c-5 34 9 57 34 57c26 0 41 -22 35 -57l-26 -181h-18z" />
    <glyph glyph-name="plus" unicode="+" horiz-adv-x="469" 
d="M212 126v159h-156v42h156v158h44v-158h156v-42h-156v-159h-44z" />
    <glyph glyph-name="plus.lin" horiz-adv-x="445" 
d="M212 206v159h-156v42h156v158h44v-158h156v-42h-156v-159h-44z" />
    <glyph glyph-name="minus" unicode="&#x2212;" horiz-adv-x="469" 
d="M56 285v42h356v-42h-356z" />
    <glyph glyph-name="minus.lin" horiz-adv-x="445" 
d="M56 365v42h356v-42h-356z" />
    <glyph glyph-name="divide" unicode="&#xf7;" horiz-adv-x="469" 
d="M234 410c-22 0 -40 19 -40 41c0 23 18 41 40 41s40 -18 40 -41c0 -22 -18 -41 -40 -41zM412 285h-356v42h356v-42zM234 119c-22 0 -40 19 -40 41c0 23 18 42 40 42s40 -19 40 -42c0 -22 -18 -41 -40 -41z" />
    <glyph glyph-name="divide.lin" horiz-adv-x="445" 
d="M234 490c-22 0 -40 19 -40 41c0 23 18 41 40 41s40 -18 40 -41c0 -22 -18 -41 -40 -41zM412 365h-356v42h356v-42zM234 199c-22 0 -40 19 -40 41c0 23 18 42 40 42s40 -19 40 -42c0 -22 -18 -41 -40 -41z" />
    <glyph glyph-name="equal" unicode="=" horiz-adv-x="469" 
d="M56 356v42h356v-42h-356zM56 190v42h356v-42h-356z" />
    <glyph glyph-name="equal.lin" horiz-adv-x="445" 
d="M56 436v42h356v-42h-356zM56 270v42h356v-42h-356z" />
    <glyph glyph-name="multiply" unicode="&#xd7;" horiz-adv-x="469" 
d="M364 145l-130 131l-130 -130l-30 29l131 130l-131 131l30 31l130 -132l130 131l30 -30l-131 -130l132 -131z" />
    <glyph glyph-name="multiply.lin" horiz-adv-x="445" 
d="M364 225l-130 131l-130 -130l-30 29l131 130l-131 131l30 31l130 -132l130 131l30 -30l-131 -130l132 -131z" />
    <glyph glyph-name="less" unicode="&#x3c;" horiz-adv-x="445" 
d="M336 103l-278 184v16l278 183l23 -34l-240 -157l240 -158z" />
    <glyph glyph-name="less.lin" horiz-adv-x="423" 
d="M336 183l-278 184v16l278 183l23 -34l-240 -157l240 -158z" />
    <glyph glyph-name="greater" unicode="&#x3e;" horiz-adv-x="445" 
d="M109 103l-23 34l240 158l-240 157l23 34l279 -183v-16z" />
    <glyph glyph-name="greater.lin" horiz-adv-x="423" 
d="M109 183l-23 34l240 158l-240 157l23 34l279 -183v-16z" />
    <glyph glyph-name="plusminus" unicode="&#xb1;" horiz-adv-x="469" 
d="M212 174v159h-156v41h156v159h44v-159h156v-41h-156v-159h-44zM56 50v42h356v-42h-356z" />
    <glyph glyph-name="plusminus.lin" horiz-adv-x="445" 
d="M212 254v159h-156v41h156v159h44v-159h156v-41h-156v-159h-44zM56 130v42h356v-42h-356z" />
    <glyph glyph-name="onehalf" unicode="&#xbd;" horiz-adv-x="885" 
d="M248 -12l-28 16c34 57 136 223 216 355l214 353l28 -17l-215 -353c-78 -130 -180 -298 -215 -354zM65 309v33h109v327l-106 -26l-8 33l133 34h18v-368h108v-33h-254zM554 -1l-11 17c25 80 84 131 141 169c53 36 89 64 89 112c0 43 -39 76 -90 76c-53 0 -85 -28 -90 -46
c12 -4 19 -14 19 -26c0 -16 -12 -28 -27 -28c-19 0 -31 14 -31 37c0 44 49 95 130 95c71 0 127 -45 127 -108s-45 -96 -106 -136c-53 -35 -100 -79 -117 -131h196v68h34v-99h-264z" />
    <glyph glyph-name="onethird" unicode="&#x2153;" horiz-adv-x="885" 
d="M249 -12l-28 16c34 57 136 223 216 355l214 353l28 -17l-215 -353c-78 -130 -180 -298 -215 -354zM69 309v33h109v327l-106 -26l-8 33l133 34h18v-368h108v-33h-254zM685 -7c-70 0 -137 37 -137 84c0 19 13 34 30 34c16 0 26 -12 26 -27c0 -10 -5 -19 -14 -23
c9 -15 47 -37 95 -37c62 0 105 37 105 81c0 51 -46 84 -124 84h-23v33h25c63 0 112 33 112 80c0 44 -40 70 -93 70c-45 0 -75 -18 -84 -34c7 -4 13 -12 13 -22c0 -15 -11 -27 -25 -27c-16 0 -30 12 -30 33c0 37 47 81 127 81c76 0 129 -43 129 -99c0 -48 -46 -88 -99 -97
c62 -9 109 -51 109 -102c0 -65 -59 -112 -142 -112z" />
    <glyph glyph-name="twothirds" unicode="&#x2154;" horiz-adv-x="885" 
d="M70 309l-11 17c25 80 84 131 141 169c53 36 89 64 89 112c0 43 -39 76 -90 76c-53 0 -85 -28 -90 -46c12 -4 19 -14 19 -26c0 -16 -12 -28 -27 -28c-19 0 -31 14 -31 37c0 44 49 95 130 95c71 0 127 -45 127 -108s-45 -96 -106 -136c-53 -35 -100 -79 -117 -131h196v68
h34v-99h-264zM263 -12l-28 16c34 57 136 223 216 355l214 353l28 -17l-215 -353c-78 -130 -180 -298 -215 -354zM688 -7c-70 0 -137 37 -137 84c0 19 13 34 30 34c16 0 26 -12 26 -27c0 -10 -5 -19 -14 -23c9 -15 47 -37 95 -37c62 0 105 37 105 81c0 51 -46 84 -124 84h-23
v33h25c63 0 112 33 112 80c0 44 -40 70 -93 70c-45 0 -75 -18 -84 -34c7 -4 13 -12 13 -22c0 -15 -11 -27 -25 -27c-16 0 -30 12 -30 33c0 37 47 81 127 81c76 0 129 -43 129 -99c0 -48 -46 -88 -99 -97c62 -9 109 -51 109 -102c0 -65 -59 -112 -142 -112z" />
    <glyph glyph-name="onequarter" unicode="&#xbc;" horiz-adv-x="885" 
d="M262 -12l-28 16c34 57 136 223 216 355l214 353l28 -17l-215 -353c-78 -130 -180 -298 -215 -354zM72 309v33h109v327l-106 -26l-8 33l133 34h18v-368h108v-33h-254zM637 -1v31h75v88h-193l-8 15l213 273l28 -21l-189 -237h149v97l35 14v-111h70v-30h-70v-88h57v-31h-167
z" />
    <glyph glyph-name="threequarters" unicode="&#xbe;" horiz-adv-x="885" 
d="M268 -12l-28 16c34 57 136 223 216 355l214 353l28 -17l-215 -353c-78 -130 -180 -298 -215 -354zM213 303c-70 0 -137 37 -137 84c0 19 13 34 30 34c16 0 26 -12 26 -27c0 -10 -5 -19 -14 -23c9 -15 47 -37 95 -37c62 0 105 37 105 81c0 51 -46 84 -124 84h-23v33h25
c63 0 112 33 112 80c0 44 -40 70 -93 70c-45 0 -75 -18 -84 -34c7 -4 13 -12 13 -22c0 -15 -11 -27 -25 -27c-16 0 -30 12 -30 33c0 37 47 81 127 81c76 0 129 -43 129 -99c0 -48 -46 -88 -99 -97c62 -9 109 -51 109 -102c0 -65 -59 -112 -142 -112zM637 -1v31h75v88h-193
l-8 15l213 273l28 -21l-189 -237h149v97l35 14v-111h70v-30h-70v-88h57v-31h-167z" />
    <glyph glyph-name="onefifth" unicode="&#x2155;" horiz-adv-x="885" 
d="M251 -12l-28 16c34 57 136 223 216 355l214 353l28 -17l-215 -353c-78 -130 -180 -298 -215 -354zM68 309v33h109v327l-106 -26l-8 33l133 34h18v-368h108v-33h-254zM689 -9c-74 0 -128 36 -128 74c0 16 13 30 30 30c16 0 26 -12 26 -27c0 -7 -2 -13 -8 -17
c10 -14 41 -27 78 -27c69 0 112 42 112 101c0 51 -38 89 -107 89c-33 0 -69 -10 -93 -22l-17 9l20 196h209v-35h-178l-13 -128c17 6 43 13 75 13c83 0 141 -46 141 -122c0 -81 -66 -134 -147 -134z" />
    <glyph glyph-name="twofifths" unicode="&#x2156;" horiz-adv-x="885" 
d="M74 309l-11 17c25 80 84 131 141 169c53 36 89 64 89 112c0 43 -39 76 -90 76c-53 0 -85 -28 -90 -46c12 -4 19 -14 19 -26c0 -16 -12 -28 -27 -28c-19 0 -31 14 -31 37c0 44 49 95 130 95c71 0 127 -45 127 -108s-45 -96 -106 -136c-53 -35 -100 -79 -117 -131h196v68
h34v-99h-264zM269 -12l-28 16c34 57 136 223 216 355l214 353l28 -17l-215 -353c-78 -130 -180 -298 -215 -354zM695 -9c-74 0 -128 36 -128 74c0 16 13 30 30 30c16 0 26 -12 26 -27c0 -7 -2 -13 -8 -17c10 -14 41 -27 78 -27c69 0 112 42 112 101c0 51 -38 89 -107 89
c-33 0 -69 -10 -93 -22l-17 9l20 196h209v-35h-178l-13 -128c17 6 43 13 75 13c83 0 141 -46 141 -122c0 -81 -66 -134 -147 -134z" />
    <glyph glyph-name="threefifths" unicode="&#x2157;" horiz-adv-x="885" 
d="M247 -12l-28 16c34 57 136 223 216 355l214 353l28 -17l-215 -353c-78 -130 -180 -298 -215 -354zM201 303c-70 0 -137 37 -137 84c0 19 13 34 30 34c16 0 26 -12 26 -27c0 -10 -5 -19 -14 -23c9 -15 47 -37 95 -37c62 0 105 37 105 81c0 51 -46 84 -124 84h-23v33h25
c63 0 112 33 112 80c0 44 -40 70 -93 70c-45 0 -75 -18 -84 -34c7 -4 13 -12 13 -22c0 -15 -11 -27 -25 -27c-16 0 -30 12 -30 33c0 37 47 81 127 81c76 0 129 -43 129 -99c0 -48 -46 -88 -99 -97c62 -9 109 -51 109 -102c0 -65 -59 -112 -142 -112zM688 -9
c-74 0 -128 36 -128 74c0 16 13 30 30 30c16 0 26 -12 26 -27c0 -7 -2 -13 -8 -17c10 -14 41 -27 78 -27c69 0 112 42 112 101c0 51 -38 89 -107 89c-33 0 -69 -10 -93 -22l-17 9l20 196h209v-35h-178l-13 -128c17 6 43 13 75 13c83 0 141 -46 141 -122
c0 -81 -66 -134 -147 -134z" />
    <glyph glyph-name="fourfifths" unicode="&#x2158;" horiz-adv-x="885" 
d="M173 309v31h75v88h-193l-8 15l213 273l28 -21l-189 -237h149v97l35 14v-111h70v-30h-70v-88h57v-31h-167zM268 -12l-28 16c34 57 136 223 216 355l214 353l28 -17l-215 -353c-78 -130 -180 -298 -215 -354zM689 -9c-74 0 -128 36 -128 74c0 16 13 30 30 30
c16 0 26 -12 26 -27c0 -7 -2 -13 -8 -17c10 -14 41 -27 78 -27c69 0 112 42 112 101c0 51 -38 89 -107 89c-33 0 -69 -10 -93 -22l-17 9l20 196h209v-35h-178l-13 -128c17 6 43 13 75 13c83 0 141 -46 141 -122c0 -81 -66 -134 -147 -134z" />
    <glyph glyph-name="onesixth" unicode="&#x2159;" horiz-adv-x="885" 
d="M246 -12l-28 16c34 57 136 223 216 355l214 353l28 -17l-215 -353c-78 -130 -180 -298 -215 -354zM63 309v33h109v327l-106 -26l-8 33l133 34h18v-368h108v-33h-254zM804 338c0 -18 -11 -29 -27 -29c-17 0 -27 11 -27 25c0 7 3 14 7 18c-7 13 -29 21 -53 21
c-72 0 -129 -72 -129 -198c21 43 67 69 118 69c80 0 133 -53 133 -124s-57 -129 -138 -129c-44 0 -78 15 -106 42c-30 31 -42 72 -42 137c0 163 79 235 164 235c38 0 66 -12 83 -29c13 -13 17 -25 17 -38zM688 24c59 0 101 42 101 95s-39 93 -100 93s-105 -41 -105 -92
c0 -25 9 -49 26 -66c19 -19 48 -30 78 -30z" />
    <glyph glyph-name="fivesixths" unicode="&#x215a;" horiz-adv-x="885" 
d="M248 -12l-28 16c34 57 136 223 216 355l214 353l28 -17l-215 -353c-78 -130 -180 -298 -215 -354zM193 301c-74 0 -128 36 -128 74c0 16 13 30 30 30c16 0 26 -12 26 -27c0 -7 -2 -13 -8 -17c10 -14 41 -27 78 -27c69 0 112 42 112 101c0 51 -38 89 -107 89
c-33 0 -69 -10 -93 -22l-17 9l20 196h209v-35h-178l-13 -128c17 6 43 13 75 13c83 0 141 -46 141 -122c0 -81 -66 -134 -147 -134zM805 338c0 -18 -11 -29 -27 -29c-17 0 -27 11 -27 25c0 7 3 14 7 18c-7 13 -29 21 -53 21c-72 0 -129 -72 -129 -198c21 43 67 69 118 69
c80 0 133 -53 133 -124s-57 -129 -138 -129c-44 0 -78 15 -106 42c-30 31 -42 72 -42 137c0 163 79 235 164 235c38 0 66 -12 83 -29c13 -13 17 -25 17 -38zM689 24c59 0 101 42 101 95s-39 93 -100 93s-105 -41 -105 -92c0 -25 9 -49 26 -66c19 -19 48 -30 78 -30z" />
    <glyph glyph-name="oneeighth" unicode="&#x215b;" horiz-adv-x="885" 
d="M242 -12l-28 16c34 57 136 223 216 355l214 353l28 -17l-215 -353c-78 -130 -180 -298 -215 -354zM67 309v33h109v327l-106 -26l-8 33l133 34h18v-368h108v-33h-254zM690 -7c-82 0 -141 45 -141 108c0 50 41 93 97 105c-54 14 -87 52 -87 95c0 62 59 102 131 102
s132 -40 132 -102c0 -43 -34 -81 -88 -95c55 -12 97 -55 97 -105c0 -63 -59 -108 -141 -108zM690 220c51 0 94 32 94 75c0 46 -41 76 -94 76s-94 -30 -94 -76c0 -43 42 -75 94 -75zM690 25c60 0 104 34 104 82c0 46 -47 83 -104 83c-58 0 -102 -37 -102 -83
c0 -48 43 -82 102 -82z" />
    <glyph glyph-name="threeeighths" unicode="&#x215c;" horiz-adv-x="885" 
d="M242 -12l-28 16c34 57 136 223 216 355l214 353l28 -17l-215 -353c-78 -130 -180 -298 -215 -354zM200 303c-70 0 -137 37 -137 84c0 19 13 34 30 34c16 0 26 -12 26 -27c0 -10 -5 -19 -14 -23c9 -15 47 -37 95 -37c62 0 105 37 105 81c0 51 -46 84 -124 84h-23v33h25
c63 0 112 33 112 80c0 44 -40 70 -93 70c-45 0 -75 -18 -84 -34c7 -4 13 -12 13 -22c0 -15 -11 -27 -25 -27c-16 0 -30 12 -30 33c0 37 47 81 127 81c76 0 129 -43 129 -99c0 -48 -46 -88 -99 -97c62 -9 109 -51 109 -102c0 -65 -59 -112 -142 -112zM692 -7
c-82 0 -141 45 -141 108c0 50 41 93 97 105c-54 14 -87 52 -87 95c0 62 59 102 131 102s132 -40 132 -102c0 -43 -34 -81 -88 -95c55 -12 97 -55 97 -105c0 -63 -59 -108 -141 -108zM692 220c51 0 94 32 94 75c0 46 -41 76 -94 76s-94 -30 -94 -76c0 -43 42 -75 94 -75z
M692 25c60 0 104 34 104 82c0 46 -47 83 -104 83c-58 0 -102 -37 -102 -83c0 -48 43 -82 102 -82z" />
    <glyph glyph-name="fiveeighths" unicode="&#x215d;" horiz-adv-x="885" 
d="M233 -12l-28 16c34 57 136 223 216 355l214 353l28 -17l-215 -353c-78 -130 -180 -298 -215 -354zM186 301c-74 0 -128 36 -128 74c0 16 13 30 30 30c16 0 26 -12 26 -27c0 -7 -2 -13 -8 -17c10 -14 41 -27 78 -27c69 0 112 42 112 101c0 51 -38 89 -107 89
c-33 0 -69 -10 -93 -22l-17 9l20 196h209v-35h-178l-13 -128c17 6 43 13 75 13c83 0 141 -46 141 -122c0 -81 -66 -134 -147 -134zM683 -7c-82 0 -141 45 -141 108c0 50 41 93 97 105c-54 14 -87 52 -87 95c0 62 59 102 131 102s132 -40 132 -102c0 -43 -34 -81 -88 -95
c55 -12 97 -55 97 -105c0 -63 -59 -108 -141 -108zM683 220c51 0 94 32 94 75c0 46 -41 76 -94 76s-94 -30 -94 -76c0 -43 42 -75 94 -75zM683 25c60 0 104 34 104 82c0 46 -47 83 -104 83c-58 0 -102 -37 -102 -83c0 -48 43 -82 102 -82z" />
    <glyph glyph-name="seveneighths" unicode="&#x215e;" horiz-adv-x="885" 
d="M196 -12l-28 16c34 57 136 223 216 355l214 353l28 -17l-215 -353c-78 -130 -180 -298 -215 -354zM143 309l171 367h-196v-69h-34v100h266l8 -16l-177 -382h-38zM664 -7c-82 0 -141 45 -141 108c0 50 41 93 97 105c-54 14 -87 52 -87 95c0 62 59 102 131 102
s132 -40 132 -102c0 -43 -34 -81 -88 -95c55 -12 97 -55 97 -105c0 -63 -59 -108 -141 -108zM664 220c51 0 94 32 94 75c0 46 -41 76 -94 76s-94 -30 -94 -76c0 -43 42 -75 94 -75zM664 25c60 0 104 34 104 82c0 46 -47 83 -104 83c-58 0 -102 -37 -102 -83
c0 -48 43 -82 102 -82z" />
    <glyph glyph-name="zero.sup" unicode="&#x2070;" horiz-adv-x="425" 
d="M202 476c-87 0 -149 82 -149 205c0 125 63 206 150 206c85 0 148 -81 148 -204c0 -126 -63 -207 -149 -207zM202 509c65 0 111 70 111 172c0 103 -46 173 -111 173s-111 -70 -111 -172c0 -103 46 -173 111 -173z" />
    <glyph glyph-name="one.sup" unicode="&#xb9;" horiz-adv-x="425" 
d="M84 483v33h109v327l-106 -26l-8 33l133 34h18v-368h108v-33h-254z" />
    <glyph glyph-name="two.sup" unicode="&#xb2;" horiz-adv-x="425" 
d="M75 483l-11 17c25 80 84 131 141 169c53 36 89 64 89 112c0 43 -39 76 -90 76c-53 0 -85 -28 -90 -46c12 -4 19 -14 19 -26c0 -16 -12 -28 -27 -28c-19 0 -31 14 -31 37c0 44 49 95 130 95c71 0 127 -45 127 -108s-45 -96 -106 -136c-53 -35 -100 -79 -117 -131h196v68
h34v-99h-264z" />
    <glyph glyph-name="three.sup" unicode="&#xb3;" horiz-adv-x="425" 
d="M199 477c-70 0 -137 37 -137 84c0 19 13 34 30 34c16 0 26 -12 26 -27c0 -10 -5 -19 -14 -23c9 -15 47 -37 95 -37c62 0 105 37 105 81c0 51 -46 84 -124 84h-23v33h25c63 0 112 33 112 80c0 44 -40 70 -93 70c-45 0 -75 -18 -84 -34c7 -4 13 -12 13 -22
c0 -15 -11 -27 -25 -27c-16 0 -30 12 -30 33c0 37 47 81 127 81c76 0 129 -43 129 -99c0 -48 -46 -88 -99 -97c62 -9 109 -51 109 -102c0 -65 -59 -112 -142 -112z" />
    <glyph glyph-name="four.sup" unicode="&#x2074;" horiz-adv-x="425" 
d="M173 483v31h75v88h-193l-8 15l213 273l28 -21l-189 -237h149v97l35 14v-111h70v-30h-70v-88h57v-31h-167z" />
    <glyph glyph-name="five.sup" unicode="&#x2075;" horiz-adv-x="425" 
d="M192 475c-74 0 -128 36 -128 74c0 16 13 30 30 30c16 0 26 -12 26 -27c0 -7 -2 -13 -8 -17c10 -14 41 -27 78 -27c69 0 112 42 112 101c0 51 -38 89 -107 89c-33 0 -69 -10 -93 -22l-17 9l20 196h209v-35h-178l-13 -128c17 6 43 13 75 13c83 0 141 -46 141 -122
c0 -81 -66 -134 -147 -134z" />
    <glyph glyph-name="six.sup" unicode="&#x2076;" horiz-adv-x="425" 
d="M325 822c0 -18 -11 -29 -27 -29c-17 0 -27 11 -27 25c0 7 3 14 7 18c-7 13 -29 21 -53 21c-72 0 -129 -72 -129 -198c21 43 67 69 118 69c80 0 133 -53 133 -124s-57 -129 -138 -129c-44 0 -78 15 -106 42c-30 31 -42 72 -42 137c0 163 79 235 164 235
c38 0 66 -12 83 -29c13 -13 17 -25 17 -38zM209 508c59 0 101 42 101 95s-39 93 -100 93s-105 -41 -105 -92c0 -25 9 -49 26 -66c19 -19 48 -30 78 -30z" />
    <glyph glyph-name="seven.sup" unicode="&#x2077;" horiz-adv-x="425" 
d="M132 483l171 367h-196v-69h-34v100h266l8 -16l-177 -382h-38z" />
    <glyph glyph-name="eight.sup" unicode="&#x2078;" horiz-adv-x="425" 
d="M202 477c-82 0 -141 45 -141 108c0 50 41 93 97 105c-54 14 -87 52 -87 95c0 62 59 102 131 102s132 -40 132 -102c0 -43 -34 -81 -88 -95c55 -12 97 -55 97 -105c0 -63 -59 -108 -141 -108zM202 704c51 0 94 32 94 75c0 46 -41 76 -94 76s-94 -30 -94 -76
c0 -43 42 -75 94 -75zM202 509c60 0 104 34 104 82c0 46 -47 83 -104 83c-58 0 -102 -37 -102 -83c0 -48 43 -82 102 -82z" />
    <glyph glyph-name="nine.sup" unicode="&#x2079;" horiz-adv-x="425" 
d="M196 856c-59 0 -102 -41 -102 -95c0 -53 39 -93 100 -93s106 41 106 93c0 24 -10 49 -27 66c-19 19 -47 29 -77 29zM79 542c0 19 12 30 27 30c18 0 28 -11 28 -26c0 -8 -3 -15 -8 -19c7 -11 30 -20 54 -20c71 0 128 73 128 198c-21 -42 -62 -68 -118 -68
c-79 0 -133 52 -133 124c0 71 57 128 139 128c43 0 78 -14 105 -42c30 -30 42 -71 42 -136c0 -164 -79 -236 -164 -236c-38 0 -65 13 -83 30c-13 12 -17 24 -17 37z" />
    <glyph glyph-name="zero.inf" unicode="&#x2080;" horiz-adv-x="425" 
d="M202 -185c-87 0 -149 82 -149 205c0 125 63 206 150 206c85 0 148 -81 148 -204c0 -126 -63 -207 -149 -207zM202 -152c65 0 111 70 111 172c0 103 -46 173 -111 173s-111 -70 -111 -172c0 -103 46 -173 111 -173z" />
    <glyph glyph-name="one.inf" unicode="&#x2081;" horiz-adv-x="425" 
d="M84 -178v33h109v327l-106 -26l-8 33l133 34h18v-368h108v-33h-254z" />
    <glyph glyph-name="two.inf" unicode="&#x2082;" horiz-adv-x="425" 
d="M75 -178l-11 17c25 80 84 131 141 169c53 36 89 64 89 112c0 43 -39 76 -90 76c-53 0 -85 -28 -90 -46c12 -4 19 -14 19 -26c0 -16 -12 -28 -27 -28c-19 0 -31 14 -31 37c0 44 49 95 130 95c71 0 127 -45 127 -108s-45 -96 -106 -136c-53 -35 -100 -79 -117 -131h196v68
h34v-99h-264z" />
    <glyph glyph-name="three.inf" unicode="&#x2083;" horiz-adv-x="425" 
d="M199 -184c-70 0 -137 37 -137 84c0 19 13 34 30 34c16 0 26 -12 26 -27c0 -10 -5 -19 -14 -23c9 -15 47 -37 95 -37c62 0 105 37 105 81c0 51 -46 84 -124 84h-23v33h25c63 0 112 33 112 80c0 44 -40 70 -93 70c-45 0 -75 -18 -84 -34c7 -4 13 -12 13 -22
c0 -15 -11 -27 -25 -27c-16 0 -30 12 -30 33c0 37 47 81 127 81c76 0 129 -43 129 -99c0 -48 -46 -88 -99 -97c62 -9 109 -51 109 -102c0 -65 -59 -112 -142 -112z" />
    <glyph glyph-name="four.inf" unicode="&#x2084;" horiz-adv-x="425" 
d="M173 -178v31h75v88h-193l-8 15l213 273l28 -21l-189 -237h149v97l35 14v-111h70v-30h-70v-88h57v-31h-167z" />
    <glyph glyph-name="five.inf" unicode="&#x2085;" horiz-adv-x="425" 
d="M192 -186c-74 0 -128 36 -128 74c0 16 13 30 30 30c16 0 26 -12 26 -27c0 -7 -2 -13 -8 -17c10 -14 41 -27 78 -27c69 0 112 42 112 101c0 51 -38 89 -107 89c-33 0 -69 -10 -93 -22l-17 9l20 196h209v-35h-178l-13 -128c17 6 43 13 75 13c83 0 141 -46 141 -122
c0 -81 -66 -134 -147 -134z" />
    <glyph glyph-name="six.inf" unicode="&#x2086;" horiz-adv-x="425" 
d="M325 161c0 -18 -11 -29 -27 -29c-17 0 -27 11 -27 25c0 7 3 14 7 18c-7 13 -29 21 -53 21c-72 0 -129 -72 -129 -198c21 43 67 69 118 69c80 0 133 -53 133 -124s-57 -129 -138 -129c-44 0 -78 15 -106 42c-30 31 -42 72 -42 137c0 163 79 235 164 235
c38 0 66 -12 83 -29c13 -13 17 -25 17 -38zM209 -153c59 0 101 42 101 95s-39 93 -100 93s-105 -41 -105 -92c0 -25 9 -49 26 -66c19 -19 48 -30 78 -30z" />
    <glyph glyph-name="seven.inf" unicode="&#x2087;" horiz-adv-x="425" 
d="M132 -178l171 367h-196v-69h-34v100h266l8 -16l-177 -382h-38z" />
    <glyph glyph-name="eight.inf" unicode="&#x2088;" horiz-adv-x="425" 
d="M202 -184c-82 0 -141 45 -141 108c0 50 41 93 97 105c-54 14 -87 52 -87 95c0 62 59 102 131 102s132 -40 132 -102c0 -43 -34 -81 -88 -95c55 -12 97 -55 97 -105c0 -63 -59 -108 -141 -108zM202 43c51 0 94 32 94 75c0 46 -41 76 -94 76s-94 -30 -94 -76
c0 -43 42 -75 94 -75zM202 -152c60 0 104 34 104 82c0 46 -47 83 -104 83c-58 0 -102 -37 -102 -83c0 -48 43 -82 102 -82z" />
    <glyph glyph-name="nine.inf" unicode="&#x2089;" horiz-adv-x="425" 
d="M196 195c-59 0 -102 -41 -102 -95c0 -53 39 -93 100 -93s106 41 106 93c0 24 -10 49 -27 66c-19 19 -47 29 -77 29zM79 -119c0 19 12 30 27 30c18 0 28 -11 28 -26c0 -8 -3 -15 -8 -19c7 -11 30 -20 54 -20c71 0 128 73 128 198c-21 -42 -62 -68 -118 -68
c-79 0 -133 52 -133 124c0 71 57 128 139 128c43 0 78 -14 105 -42c30 -30 42 -71 42 -136c0 -164 -79 -236 -164 -236c-38 0 -65 13 -83 30c-13 12 -17 24 -17 37z" />
    <glyph glyph-name="zero.tab" 
d="M296 -12c-137 0 -241 148 -241 374c0 228 102 376 241 376c138 0 240 -148 240 -376c0 -226 -104 -374 -240 -374zM296 694c-114 0 -194 -131 -194 -330c0 -201 80 -333 194 -333c113 0 193 132 193 333c0 199 -80 330 -193 330z" />
    <glyph glyph-name="one.tab" 
d="M95 0v41h187v636l-181 -53l-9 44l211 60h26v-687h185v-41h-419z" />
    <glyph glyph-name="two.tab" 
d="M505 546c0 -113 -74 -171 -181 -251c-97 -72 -183 -154 -209 -254h357v123h45v-164h-448l-11 21c35 143 143 235 241 309c91 69 157 124 157 216c0 87 -75 148 -167 148c-76 0 -133 -34 -155 -76c-6 -10 -9 -18 -10 -25c23 -3 36 -22 36 -40c0 -23 -18 -41 -41 -41
c-25 0 -45 19 -45 57c0 18 7 42 19 64c32 57 104 103 199 103c119 0 213 -75 213 -190z" />
    <glyph glyph-name="three.tab" 
d="M278 -12c-85 0 -164 37 -202 90c-14 20 -22 43 -22 64c0 28 18 51 43 51c21 0 38 -18 38 -39c0 -19 -14 -34 -31 -38c3 -8 8 -18 16 -25c28 -31 86 -60 158 -60c122 0 196 77 196 160c0 69 -43 116 -111 142c-40 17 -81 24 -134 24h-22v41h26c53 0 95 12 132 32
c56 27 91 72 91 128c0 81 -66 136 -174 136c-69 0 -119 -30 -145 -57c-8 -8 -13 -17 -16 -24c17 -6 32 -18 32 -41c0 -20 -17 -38 -38 -38c-22 0 -43 18 -43 49c0 20 7 42 21 63c34 48 101 91 193 91c126 0 216 -71 216 -179c0 -68 -43 -121 -110 -152
c-24 -12 -51 -22 -79 -26c28 -4 55 -10 78 -20c78 -30 129 -88 129 -167c0 -117 -99 -205 -242 -205z" />
    <glyph glyph-name="four.tab" 
d="M233 0v41h134v178h-336l-8 18l372 501l36 -25l-338 -454h274v200l47 21v-221h130v-40h-130v-178h111v-41h-292z" />
    <glyph glyph-name="five.tab" 
d="M272 -12c-76 0 -140 25 -177 60c-20 19 -32 42 -32 64c0 25 16 47 43 47c20 0 38 -18 38 -39c0 -15 -8 -29 -22 -35c5 -7 10 -13 18 -18c28 -21 73 -35 136 -35c119 0 203 80 203 192c0 101 -77 176 -201 176c-62 0 -124 -20 -163 -37l-20 9l39 352h347v-47h-308
l-29 -258c32 14 74 26 137 26c137 0 246 -79 246 -220c0 -149 -116 -237 -255 -237z" />
    <glyph glyph-name="six.tab" 
d="M460 575c-23 0 -40 18 -40 40c0 15 7 26 17 33c-12 24 -54 45 -106 45c-127 0 -225 -148 -225 -392c9 25 24 48 42 68c39 43 97 72 159 72c133 0 225 -96 225 -223c0 -129 -97 -230 -227 -230c-69 0 -127 24 -168 68c-51 52 -77 132 -77 249c0 312 145 433 276 433
c55 0 98 -19 127 -44c23 -21 37 -47 37 -72c0 -28 -17 -47 -40 -47zM305 31c103 0 180 79 180 185c0 105 -77 182 -180 182c-104 0 -185 -83 -185 -184c0 -47 20 -96 54 -130s80 -53 131 -53z" />
    <glyph glyph-name="seven.tab" 
d="M170 0l308 682h-371v-121h-46v163h475l7 -14l-322 -710h-51z" />
    <glyph glyph-name="eight.tab" 
d="M296 737c117 0 217 -68 217 -189c0 -81 -62 -149 -143 -171c76 -13 159 -88 159 -184c0 -123 -104 -205 -233 -205c-130 0 -234 82 -234 205c0 96 83 171 159 184c-81 22 -143 90 -143 171c0 121 100 189 218 189zM296 398c96 0 171 65 171 148c0 84 -72 148 -171 148
c-100 0 -172 -64 -172 -148c0 -83 75 -148 172 -148zM296 31c105 0 186 67 186 162c0 90 -85 162 -186 162c-102 0 -187 -72 -187 -162c0 -95 81 -162 187 -162z" />
    <glyph glyph-name="nine.tab" 
d="M285 694c-102 0 -179 -80 -179 -189c0 -107 77 -185 179 -185c105 0 186 84 186 187c0 48 -19 98 -54 133c-34 34 -81 54 -132 54zM531 420c0 -312 -143 -432 -271 -432c-51 0 -98 17 -131 44c-25 20 -41 47 -41 71c0 28 17 46 40 46c22 0 40 -17 40 -39
c0 -15 -8 -27 -20 -34c5 -7 12 -14 20 -20c20 -15 53 -26 97 -26c124 0 219 148 220 388c-9 -25 -24 -49 -42 -69c-39 -43 -97 -72 -159 -72c-133 0 -225 97 -225 227s97 234 227 234c69 0 127 -25 168 -68c51 -53 77 -132 77 -250z" />
    <glyph glyph-name="period.tab" horiz-adv-x="295" 
d="M148 -10c-28 0 -48 21 -48 49s20 49 48 49s48 -21 48 -49s-20 -49 -48 -49z" />
    <glyph glyph-name="comma.tab" horiz-adv-x="295" 
d="M74 -147l-12 18c63 48 82 92 83 124c-23 0 -45 22 -45 46c0 25 21 45 45 45c28 0 51 -23 51 -65c0 -51 -32 -118 -122 -168z" />
    <glyph glyph-name="colon.tab" horiz-adv-x="295" 
d="M148 295c-28 0 -48 21 -48 49c0 27 20 49 48 49s48 -22 48 -49c0 -28 -20 -49 -48 -49zM148 -10c-28 0 -48 21 -48 49s20 49 48 49s48 -21 48 -49s-20 -49 -48 -49z" />
    <glyph glyph-name="semicolon.tab" horiz-adv-x="295" 
d="M148 295c-28 0 -48 21 -48 49c0 27 20 49 48 49s48 -22 48 -49c0 -28 -20 -49 -48 -49zM75 -147l-12 18c62 48 82 92 83 124c-23 0 -46 22 -46 46c0 25 22 45 46 45c28 0 50 -23 50 -65c0 -51 -32 -118 -121 -168z" />
    <glyph glyph-name="twodotleader.tab" 
d="M442 -10c-28 0 -48 21 -48 49s20 49 48 49s48 -21 48 -49s-20 -49 -48 -49zM150 -10c-28 0 -48 21 -48 49s20 49 48 49s48 -21 48 -49s-20 -49 -48 -49z" />
    <glyph glyph-name="periodcentered.tab" horiz-adv-x="295" 
d="M148 220c-28 0 -48 22 -48 49c0 28 20 50 48 50s48 -22 48 -50c0 -27 -20 -49 -48 -49z" />
    <glyph glyph-name="slash.tab" 
d="M26 -226l-37 19l515 1020l38 -20z" />
    <glyph glyph-name="bar.tab" horiz-adv-x="295" 
d="M128 -220v1025h40v-1025h-40z" />
    <glyph glyph-name="underscore.tab" 
d="M-1 -147v43h594v-43h-594z" />
    <glyph glyph-name="dollar.tab" 
d="M140 551c0 -74 54 -115 140 -150l25 284c-101 0 -165 -61 -165 -134zM476 183c0 80 -61 122 -162 159l-27 -303c115 -1 189 57 189 144zM115 117c18 -32 67 -64 133 -75l28 314c-105 40 -180 91 -180 192c0 98 79 175 211 175l9 98l39 -4l-9 -97c99 -14 169 -72 169 -134
c0 -30 -18 -46 -39 -46c-22 0 -40 16 -40 39c0 16 9 30 20 40c-16 28 -61 53 -113 62l-25 -294c116 -42 203 -94 203 -201c0 -114 -99 -189 -237 -187l-9 -107l-39 3l9 107c-117 15 -187 90 -187 145c0 32 18 50 41 50c21 0 38 -14 38 -37c0 -18 -9 -32 -22 -43z" />
    <glyph glyph-name="sterling.tab" 
d="M47 22c0 24 27 51 94 53c39 44 64 97 64 168c0 15 -2 30 -4 46h-117v38h109c-4 17 -9 33 -15 51c-15 47 -31 95 -31 160c0 113 87 195 194 195c104 0 170 -61 170 -123c0 -31 -20 -46 -40 -46c-22 0 -39 16 -39 39c0 15 11 30 19 37c-15 28 -50 52 -112 52
c-80 0 -149 -63 -149 -154c0 -56 15 -103 29 -149c6 -22 13 -42 17 -62h189v-38h-182c2 -16 4 -31 4 -47c0 -78 -29 -135 -59 -164c37 0 70 -8 113 -21c60 -18 83 -26 116 -26c60 0 81 27 100 75l38 -16c-20 -60 -58 -102 -136 -102c-44 0 -69 10 -135 31
c-51 17 -78 22 -110 22c-4 0 -8 0 -14 -1c-22 -34 -55 -51 -77 -51s-36 13 -36 33z" />
    <glyph glyph-name="Euro.tab" 
d="M463 559c0 20 12 35 31 41c-11 38 -59 92 -138 92c-101 0 -176 -88 -199 -236h232v-40h-237c-1 -19 -2 -38 -2 -58c0 -22 1 -44 3 -64h236v-40h-231c23 -131 90 -223 192 -223c66 0 114 31 161 87l30 -29c-48 -61 -113 -101 -192 -101c-130 0 -214 111 -239 266h-76v40
h71c-2 21 -3 42 -3 64c0 20 1 39 2 58h-70v40h75c27 173 127 278 250 278c108 1 185 -86 185 -162c0 -29 -15 -52 -43 -52c-23 0 -38 19 -38 39z" />
    <glyph glyph-name="yen.tab" 
d="M168 0v41h104v127h-166v40h166v90h-166v40h154l-177 344h-75v42h218v-42h-93l164 -324l162 324h-94v42h218v-42h-76l-177 -344h154v-40h-166v-90h166v-40h-166v-127h105v-41h-255z" />
    <glyph glyph-name="cent.tab" 
d="M121 371c0 -95 57 -165 146 -189l34 392c-94 -6 -180 -77 -180 -203zM494 227l-4 -46c-43 -31 -106 -47 -155 -47c-11 0 -22 0 -32 1l-15 -155l-39 4l15 158c-113 26 -191 116 -191 230c0 134 103 236 232 242l12 124l39 -4l-11 -122c89 -11 160 -71 160 -132
c0 -26 -17 -50 -44 -50c-15 0 -33 12 -33 33c0 17 9 30 27 38c-12 36 -60 65 -114 72l-35 -398c10 -1 21 -2 33 -2c49 0 102 17 155 54z" />
    <glyph glyph-name="numbersign.tab" 
d="M238 470l-36 -226h149l36 226h-149zM64 470v36h139l34 217h39l-33 -217h149l34 217h39l-34 -217h141v-36h-146l-35 -226h137v-35h-142l-32 -209h-39l31 209h-148l-33 -209h-39l32 209h-138v35h143l35 226h-134z" />
    <glyph glyph-name="paragraph.tab" 
d="M38 499c0 137 106 225 250 225h262v-42h-89v-641h89v-41h-330v41h95v231c-14 -1 -19 -1 -36 -1c-142 0 -241 89 -241 228zM357 39h62v646h-62v-646z" />
    <glyph glyph-name="section.tab" 
d="M295 465c-19 4 -36 9 -51 13c-74 -22 -123 -61 -123 -110c0 -48 44 -78 174 -109l50 -13c77 23 124 63 124 111s-44 77 -174 108zM129 139c22 0 38 -14 38 -37c0 -11 -3 -21 -11 -30c17 -21 73 -44 125 -44c94 0 153 40 153 89c0 47 -31 69 -166 105
c-115 30 -198 65 -198 140c0 60 56 105 132 130c-63 25 -94 57 -94 110c0 71 82 133 201 133c59 0 106 -16 138 -36s52 -46 52 -72c0 -24 -16 -43 -38 -43s-38 15 -38 38c0 10 4 21 12 29c-3 6 -11 12 -20 17c-24 15 -64 28 -106 28c-92 0 -153 -39 -153 -92
c0 -46 36 -68 166 -101c116 -30 198 -65 198 -141c0 -59 -56 -105 -132 -131c62 -23 93 -54 93 -109c0 -73 -78 -133 -199 -133c-70 0 -128 23 -160 53c-19 18 -30 37 -30 56c0 23 15 41 37 41z" />
    <glyph glyph-name="degree.tab" 
d="M293 427c-116 0 -192 89 -192 195s76 196 192 196s192 -90 192 -196s-76 -195 -192 -195zM293 785c-92 0 -154 -73 -154 -163c0 -89 62 -163 154 -163c93 0 155 74 155 163c0 90 -62 163 -155 163z" />
    <glyph glyph-name="percent.tab" 
d="M33 578c0 88 52 157 128 157c75 0 128 -69 128 -157s-53 -157 -128 -157c-76 0 -128 69 -128 157zM97 -7l-31 18c6 9 151 251 214 357c63 107 210 351 217 362l30 -18l-216 -361c-62 -106 -209 -350 -214 -358zM71 578c0 -68 37 -124 90 -124s90 56 90 124
s-37 124 -90 124s-90 -56 -90 -124zM301 146c0 88 54 157 129 157c73 0 127 -69 127 -157s-54 -158 -127 -158c-75 0 -129 70 -129 158zM341 146c0 -68 36 -122 89 -122c51 0 87 54 87 122c0 67 -36 121 -87 121c-53 0 -89 -54 -89 -121z" />
    <glyph glyph-name="quotedbl.tab" 
d="M386 539l-26 225c-5 31 9 51 34 51c24 0 38 -18 34 -51l-26 -225h-16zM189 539l-26 225c-4 31 9 51 34 51c24 0 39 -18 34 -51l-26 -225h-16z" />
    <glyph glyph-name="quotesingle.tab" horiz-adv-x="295" 
d="M139 539l-25 225c-5 31 9 51 34 51c24 0 38 -18 33 -51l-25 -225h-17z" />
    <glyph glyph-name="plus.tab" 
d="M275 178v172h-171v40h171v173h41v-173h171v-40h-171v-172h-41z" />
    <glyph glyph-name="minus.tab" 
d="M104 350v40h383v-40h-383z" />
    <glyph glyph-name="divide.tab" 
d="M296 492c-22 0 -39 18 -39 39c0 22 17 40 39 40c20 0 37 -18 37 -40c0 -21 -17 -39 -37 -39zM487 350h-383v40h383v-40zM296 170c-22 0 -39 18 -39 40c0 21 17 39 39 39c20 0 37 -18 37 -39c0 -22 -17 -40 -37 -40z" />
    <glyph glyph-name="equal.tab" 
d="M104 433v39h383v-39h-383zM104 248v40h383v-40h-383z" />
    <glyph glyph-name="multiply.tab" 
d="M441 196l-146 146l-145 -145l-28 28l146 145l-147 146l29 29l146 -147l145 146l28 -28l-146 -145l146 -146z" />
    <glyph glyph-name="less.tab" 
d="M425 158l-307 198v11l307 198l22 -33l-268 -171l268 -170z" />
    <glyph glyph-name="greater.tab" 
d="M166 565l307 -198v-11l-307 -198l-22 33l268 170l-268 171z" />
    <glyph glyph-name="plusminus.tab" 
d="M275 234v172h-171v40h171v173h41v-173h171v-40h-171v-172h-41zM104 107v41h383v-41h-383z" />
    <glyph glyph-name="zero.idx_P2D" horiz-adv-x="1214" 
d="M607 871c299 0 536 -242 536 -541s-237 -541 -536 -541s-536 242 -536 541s237 541 536 541zM607 841c-282 0 -501 -229 -501 -511s219 -511 501 -511s501 229 501 511s-219 511 -501 511zM605 71c-109 0 -195 107 -195 266c0 161 87 266 198 266
c109 0 196 -106 196 -265c0 -161 -88 -267 -199 -267zM606 111c92 0 153 92 153 226s-62 227 -153 227s-152 -92 -152 -226s62 -227 152 -227z" />
    <glyph glyph-name="one.idx_P2D" horiz-adv-x="1214" 
d="M607 871c299 0 536 -242 536 -541s-237 -541 -536 -541s-536 242 -536 541s237 541 536 541zM607 841c-282 0 -501 -229 -501 -511s219 -511 501 -511s501 229 501 511s-219 511 -501 511zM752 80h-283v39h122v431l-117 -27l-9 39l148 35h21v-478h118v-39z" />
    <glyph glyph-name="two.idx_P2D" horiz-adv-x="1214" 
d="M607 871c299 0 536 -242 536 -541s-237 -541 -536 -541s-536 242 -536 541s237 541 536 541zM607 841c-282 0 -501 -229 -501 -511s219 -511 501 -511s501 229 501 511s-219 511 -501 511zM450 483c0 14 5 30 14 45c23 41 74 75 146 75c88 0 158 -58 158 -137
c0 -81 -53 -123 -129 -176c-68 -49 -128 -101 -151 -172h250v89h39v-127h-329c-1 0 -12 19 -12 19c31 107 106 170 178 221c66 46 110 83 110 146c0 57 -51 99 -116 99c-48 0 -85 -19 -103 -44c-5 -6 -8 -12 -9 -17c15 -5 24 -19 24 -33c0 -19 -14 -33 -32 -33
c-23 0 -38 16 -38 45z" />
    <glyph glyph-name="three.idx_P2D" horiz-adv-x="1214" 
d="M607 871c299 0 536 -242 536 -541s-237 -541 -536 -541s-536 242 -536 541s237 541 536 541zM607 841c-282 0 -501 -229 -501 -511s219 -511 501 -511s501 229 501 511s-219 511 -501 511zM440 179c0 22 14 41 35 41c18 0 32 -15 32 -33c0 -13 -8 -24 -21 -29
c22 -33 73 -47 116 -47c81 0 129 49 129 106c0 42 -23 74 -64 93c-26 12 -58 18 -97 18h-17v38h20c39 0 75 11 100 29c28 20 44 46 44 79c0 55 -43 89 -113 89c-38 0 -83 -10 -105 -44c12 -4 22 -13 22 -29c0 -18 -15 -32 -33 -32c-17 0 -34 16 -34 41c0 15 5 31 17 46
c24 31 71 57 135 57c90 0 155 -53 155 -128c0 -43 -24 -80 -62 -103c-17 -10 -34 -17 -55 -22c19 -3 38 -9 54 -17c46 -22 76 -62 76 -115c0 -84 -71 -144 -172 -144c-58 0 -111 21 -140 53c-14 16 -22 34 -22 53z" />
    <glyph glyph-name="four.idx_P2D" horiz-adv-x="1214" 
d="M607 871c299 0 536 -242 536 -541s-237 -541 -536 -541s-536 242 -536 541s237 541 536 541zM607 841c-282 0 -501 -229 -501 -511s219 -511 501 -511s501 229 501 511s-219 511 -501 511zM535 80v38h103v118h-242l-9 17l269 353l32 -23l-239 -311h189v128l43 19v-147h96
v-37h-96v-117h80v-38h-226z" />
    <glyph glyph-name="five.idx_P2D" horiz-adv-x="1214" 
d="M607 871c299 0 536 -242 536 -541s-237 -541 -536 -541s-536 242 -536 541s237 541 536 541zM607 841c-282 0 -501 -229 -501 -511s219 -511 501 -511s501 229 501 511s-219 511 -501 511zM598 71c-87 0 -159 44 -159 91c0 19 13 37 34 37c18 0 33 -15 33 -32
c0 -10 -5 -20 -13 -23c11 -18 55 -34 105 -34c77 0 129 54 129 130c0 70 -44 121 -128 121c-40 0 -91 -11 -119 -25l-19 11l25 248h255v-42h-220l-18 -168c22 8 59 15 100 15c96 0 168 -57 168 -159c0 -105 -77 -170 -173 -170z" />
    <glyph glyph-name="six.idx_P2D" horiz-adv-x="1214" 
d="M607 871c299 0 536 -242 536 -541s-237 -541 -536 -541s-536 242 -536 541s237 541 536 541zM607 841c-282 0 -501 -229 -501 -511s219 -511 501 -511s501 229 501 511s-219 511 -501 511zM757 519c0 -24 -16 -37 -33 -37c-20 0 -34 15 -34 32c0 10 5 18 11 24
c-8 11 -33 26 -71 26c-90 0 -160 -90 -161 -260c21 51 77 90 144 90c102 0 170 -68 170 -160c0 -91 -73 -163 -171 -163c-53 0 -96 20 -127 51c-39 39 -57 97 -57 177c0 215 99 304 203 304c36 0 67 -10 88 -24c24 -16 38 -37 38 -60zM477 236c0 -32 15 -65 40 -89
c24 -23 57 -38 95 -38c73 0 127 53 127 125c0 70 -52 122 -128 122c-75 0 -134 -54 -134 -120z" />
    <glyph glyph-name="seven.idx_P2D" horiz-adv-x="1214" 
d="M607 871c299 0 536 -242 536 -541s-237 -541 -536 -541s-536 242 -536 541s237 541 536 541zM607 841c-282 0 -501 -229 -501 -511s219 -511 501 -511s501 229 501 511s-219 511 -501 511zM574 75h-45l216 477h-249v-88h-41v125h335l8 -16z" />
    <glyph glyph-name="eight.idx_P2D" horiz-adv-x="1214" 
d="M607 871c299 0 536 -242 536 -541s-237 -541 -536 -541s-536 242 -536 541s237 541 536 541zM607 841c-282 0 -501 -229 -501 -511s219 -511 501 -511s501 229 501 511s-219 511 -501 511zM607 73c-101 0 -174 59 -174 144c0 64 52 117 110 131c-58 17 -99 63 -99 117
c0 84 73 137 163 137s162 -53 162 -137c0 -54 -41 -100 -99 -117c58 -14 110 -67 110 -131c0 -85 -73 -144 -173 -144zM607 365c67 0 118 43 118 99s-50 100 -118 100c-69 0 -120 -43 -120 -100c0 -56 53 -99 120 -99zM607 111c75 0 129 44 129 108c0 60 -57 109 -129 109
c-73 0 -130 -49 -130 -109c0 -64 55 -108 130 -108z" />
    <glyph glyph-name="nine.idx_P2D" horiz-adv-x="1214" 
d="M607 871c299 0 536 -242 536 -541s-237 -541 -536 -541s-536 242 -536 541s237 541 536 541zM607 841c-282 0 -501 -229 -501 -511s219 -511 501 -511s501 229 501 511s-219 511 -501 511zM738 433c0 38 -15 71 -39 95c-25 23 -57 37 -95 37c-72 0 -127 -53 -127 -126
c0 -74 52 -125 128 -125c75 0 133 53 133 119zM456 155c0 24 15 37 32 37c19 0 33 -14 33 -32c0 -11 -4 -17 -11 -23c18 -19 43 -28 78 -28c86 0 158 81 159 252c-21 -47 -77 -85 -144 -85c-102 0 -169 66 -169 162c0 94 72 165 170 165c52 0 95 -19 125 -49
c40 -39 59 -100 59 -180c0 -221 -93 -303 -201 -303c-41 0 -81 15 -105 36c-16 14 -26 31 -26 48z" />
    <glyph glyph-name="space" unicode=" " horiz-adv-x="269" 
 />
    <glyph glyph-name="uni00A0" unicode="&#xa0;" horiz-adv-x="269" 
 />
    <glyph glyph-name="emspace" unicode="&#x2003;" horiz-adv-x="1000" 
 />
    <glyph glyph-name="enspace" unicode="&#x2002;" horiz-adv-x="500" 
 />
    <glyph glyph-name="threeperemspace" unicode="&#x2004;" horiz-adv-x="333" 
 />
    <glyph glyph-name="fourperemspace" unicode="&#x2005;" horiz-adv-x="250" 
 />
    <glyph glyph-name="thinspace" unicode="&#x2009;" horiz-adv-x="133" 
 />
    <glyph glyph-name="hairspace" unicode="&#x200a;" horiz-adv-x="75" 
 />
    <glyph glyph-name="space.tab" horiz-adv-x="295" 
 />
    <glyph glyph-name="figurespace" unicode="&#x2007;" 
 />
    <glyph glyph-name="NUL" horiz-adv-x="0" 
 />
    <glyph glyph-name="A.sc" horiz-adv-x="685" 
d="M341 543l-113 -297h226zM200 579h285v-39h-99l193 -501h85v-39h-237v39h106l-64 166h-256l-63 -166h106v-39h-236v39h86l192 501h-98v39z" />
    <glyph glyph-name="B.sc" horiz-adv-x="613" 
d="M339 0h-286v39h109v501h-109v39h280c138 0 192 -68 192 -145c0 -71 -47 -121 -120 -137c82 -16 136 -61 136 -140c0 -94 -72 -157 -202 -157zM207 315h123c102 0 150 49 150 115c0 64 -49 110 -148 110h-125v-225zM207 39h135c98 0 153 48 153 120c0 79 -62 117 -165 117
h-123v-237z" />
    <glyph glyph-name="C.sc" horiz-adv-x="651" 
d="M551 113l26 -32c-56 -57 -135 -91 -219 -91c-173 0 -293 131 -293 300c0 165 123 300 295 300c120 0 214 -75 214 -143c0 -31 -17 -52 -43 -52c-21 0 -37 15 -37 37c0 19 11 30 26 36c-13 36 -74 81 -160 81c-143 0 -248 -113 -248 -259c0 -149 104 -259 246 -259
c77 0 141 31 193 82z" />
    <glyph glyph-name="D.sc" horiz-adv-x="707" 
d="M308 0h-253v39h110v501h-110v39h253c203 0 333 -110 333 -283c0 -175 -121 -296 -333 -296zM210 39h103c184 0 282 106 282 257s-113 244 -287 244h-98v-501z" />
    <glyph glyph-name="E.sc" 
d="M513 0h-460v39h109v501h-109v39h460v-152h-43v113h-263v-226h210v-41h-210v-234h263v113h43v-152z" />
    <glyph glyph-name="F.sc" horiz-adv-x="566" 
d="M322 0h-269v39h109v501h-109v39h458v-152h-43v113h-261v-233h204v-40h-204v-228h115v-39z" />
    <glyph glyph-name="G.sc" horiz-adv-x="690" 
d="M363 550c-149 0 -251 -117 -251 -263c0 -151 108 -256 244 -256c77 0 140 26 194 68v138h-172v39h216v-276h-43v58c-52 -43 -116 -68 -199 -68c-152 0 -287 116 -287 297c0 178 136 303 300 303c134 0 222 -75 222 -134c0 -31 -18 -51 -43 -51c-20 0 -36 14 -36 36
c0 18 10 29 24 35c-19 33 -82 74 -169 74z" />
    <glyph glyph-name="H.sc" horiz-adv-x="777" 
d="M53 0v39h109v501h-109v39h265v-39h-111v-227h362v227h-110v39h265v-39h-110v-501h110v-39h-265v39h110v233h-362v-233h111v-39h-265z" />
    <glyph glyph-name="I.sc" horiz-adv-x="376" 
d="M323 0h-270v39h112v501h-112v39h270v-39h-113v-501h113v-39z" />
    <glyph glyph-name="J.sc" horiz-adv-x="518" 
d="M208 32c36 0 67 12 90 36c27 29 41 76 41 140v332h-112v39h257v-39h-100v-334c0 -73 -16 -131 -53 -167c-31 -32 -73 -49 -124 -49c-91 0 -165 64 -165 145c0 34 18 56 44 56c20 0 37 -14 37 -37c0 -19 -13 -34 -33 -39c3 -36 48 -83 118 -83z" />
    <glyph glyph-name="K.sc" horiz-adv-x="668" 
d="M556 539l-213 -215l201 -285h104v-39h-131l-205 293l-103 -103v-151h108l1 -39h-265v39h111v501h-111v39h260v-39h-104v-297l294 297h-104v39h238v-40h-81z" />
    <glyph glyph-name="L.sc" horiz-adv-x="554" 
d="M460 39v117h43v-156h-450v39h109v501h-109v39h268v-39h-114v-501h253z" />
    <glyph glyph-name="M.sc" horiz-adv-x="854" 
d="M635 579h152v-39h-105l23 -501h103v-39h-258v39h109l-17 465l-206 -423h-18l-207 423l-17 -465h110v-39h-257v39h104l21 501h-105v39h152l208 -427z" />
    <glyph glyph-name="N.sc" horiz-adv-x="764" 
d="M203 579l369 -489v450h-111v39h263v-39h-109v-543h-27l-383 507v-465h111v-39h-263v39h109v501h-109v39h150z" />
    <glyph glyph-name="O.sc" horiz-adv-x="718" 
d="M359 590c174 0 294 -132 294 -299c0 -169 -120 -301 -295 -301c-173 0 -293 132 -293 301c0 167 120 299 294 299zM358 31c146 0 248 110 248 260c0 147 -102 258 -247 258s-247 -110 -247 -258c0 -150 102 -260 246 -260z" />
    <glyph glyph-name="P.sc" horiz-adv-x="569" 
d="M308 257c105 0 164 57 164 144c0 85 -69 139 -166 139h-99v-281c27 -1 62 -2 101 -2zM53 579h253c123 0 212 -70 212 -178c0 -113 -80 -183 -213 -183c-36 0 -72 0 -98 2v-181h112v-39h-266v39h109v501h-109v39z" />
    <glyph glyph-name="Q.sc" horiz-adv-x="718" 
d="M599 -121c-76 0 -131 53 -185 84c-29 17 -58 24 -94 30c-63 11 -118 34 -159 71c-60 52 -96 135 -96 227c0 167 120 299 294 299s294 -132 294 -299c0 -150 -97 -268 -239 -288c20 -6 35 -13 59 -27c47 -29 79 -54 125 -54c26 0 45 6 71 22l20 -37
c-28 -21 -58 -28 -90 -28zM358 31c144 0 248 113 248 260s-102 258 -247 258s-247 -110 -247 -258c0 -80 30 -150 80 -196c42 -40 100 -64 166 -64z" />
    <glyph glyph-name="Q.sc_alt" horiz-adv-x="718" 
d="M653 291c0 -116 -56 -214 -147 -264l63 -101l-35 -22l-66 105c-34 -12 -70 -19 -110 -19c-173 0 -293 132 -293 301c0 167 120 299 294 299s294 -132 294 -299zM606 291c0 147 -102 258 -247 258s-247 -110 -247 -258c0 -150 102 -260 246 -260c31 0 60 5 87 14l-72 115
l35 23l75 -120c76 43 123 126 123 228z" />
    <glyph glyph-name="R.sc" horiz-adv-x="621" 
d="M307 540h-100v-255c29 -1 63 -2 94 -2c102 0 173 47 173 132c0 78 -65 125 -167 125zM207 244v-205h112v-39h-266v39h109v501h-109v39h256c129 0 209 -64 209 -164c0 -82 -56 -140 -137 -160l134 -216h93v-39h-124l-148 244c-16 -1 -30 -1 -40 -1c-27 0 -64 0 -89 1z" />
    <glyph glyph-name="S.sc" horiz-adv-x="531" 
d="M377 472c0 14 8 27 17 34c-12 24 -65 46 -120 46c-86 0 -142 -45 -142 -107c0 -71 75 -99 150 -128c92 -34 183 -70 183 -168c0 -97 -87 -159 -202 -159c-120 0 -197 61 -197 113c0 29 16 48 38 48s37 -15 37 -36c0 -15 -7 -28 -17 -36c18 -23 66 -49 140 -49
c96 0 156 47 156 117c0 69 -77 100 -148 126c-95 36 -186 70 -186 168c0 88 75 149 190 149c99 0 177 -50 177 -110c0 -27 -18 -45 -37 -45c-24 0 -39 16 -39 37z" />
    <glyph glyph-name="T.sc" horiz-adv-x="609" 
d="M170 0v39h112v501h-183v-113h-43v152h497v-152h-44v113h-182v-501h112v-39h-269z" />
    <glyph glyph-name="U.sc" horiz-adv-x="717" 
d="M186 540v-332c0 -113 65 -178 173 -178c107 0 172 64 172 178v332h-111v39h260v-39h-104v-332c0 -141 -81 -218 -218 -218s-217 76 -217 217v333h-104v39h260v-39h-111z" />
    <glyph glyph-name="V.sc" horiz-adv-x="663" 
d="M318 -10l-218 550h-84v39h238v-39h-106l185 -477l185 477h-105v39h234v-39h-83l-218 -550h-28z" />
    <glyph glyph-name="W.sc" horiz-adv-x="922" 
d="M278 -14l-169 554h-92v39h247v-39h-107l140 -467l155 426h21l156 -426l140 467h-107v39h243v-39h-92l-168 -554h-27l-157 432l-156 -432h-27z" />
    <glyph glyph-name="X.sc" horiz-adv-x="659" 
d="M629 40v-40h-229v39h90l-164 230l-166 -230h98v-39h-231v40h83l189 255l-177 245h-83v39h232v-39h-96l152 -216l155 216h-95v39h230v-39h-86l-178 -243l189 -257h87z" />
    <glyph glyph-name="Y.sc" horiz-adv-x="630" 
d="M616 579v-39h-88l-191 -320v-181h111v-39h-267v39h111v181l-189 320h-90v39h242v-39h-102l163 -282l164 282h-102v39h238z" />
    <glyph glyph-name="Z.sc" horiz-adv-x="564" 
d="M59 0v24l384 516h-327v-110h-43v149h434v-24l-383 -516h343v110h44v-149h-452z" />
    <glyph glyph-name="Aacute.sc" horiz-adv-x="685" 
d="M305 660l-11 18l144 116c14 11 25 18 37 18c17 0 32 -13 32 -35c0 -12 -14 -26 -34 -37zM341 543l-113 -297h226zM200 579h285v-39h-99l193 -501h85v-39h-237v39h106l-64 166h-256l-63 -166h106v-39h-236v39h86l192 501h-98v39z" />
    </font>
</defs>
</svg>
