<svg xmlns="http://www.w3.org/2000/svg" width="50" height="48" fill="none" viewBox="0 0 50 48">
    <path fill="#313638" fill-rule="evenodd" d="M49.904 26.307c-.45-4.515-2.467-8.772-5.681-11.986-2.747-2.747-6.109-4.512-9.647-5.297V6.542c1.445-.36 2.52-1.667 2.52-3.222 0-1.83-1.49-3.32-3.321-3.32h-7.031c-1.831 0-3.32 1.49-3.32 3.32 0 1.555 1.073 2.863 2.518 3.222v2.489c-3.527.788-6.878 2.55-9.617 5.29-.6.599-1.152 1.228-1.658 1.881l-.074-.003h-6.96c-.539 0-.976.437-.976.976 0 .54.437.977.977.977h5.704c-.716 1.199-1.293 2.457-1.733 3.753H.977c-.54 0-.977.438-.977.977 0 .54.437.977.977.977h10.076c-.281 1.235-.443 2.492-.484 3.753H6.25c-.54 0-.976.437-.976.977s.437.976.976.976h4.35c.082 1.264.285 2.522.61 3.754H4.883c-.54 0-.977.437-.977.977 0 .539.438.976.977.976h6.95c.958 2.535 2.455 4.91 4.492 6.947 3.217 3.217 7.479 5.235 11.999 5.682.645.063 1.29.095 1.935.095 3.811 0 7.574-1.103 10.766-3.182.452-.294.58-.9.285-1.351-.294-.452-.899-.58-1.35-.286-6.989 4.55-16.348 3.567-22.254-2.34-6.93-6.93-6.93-18.205 0-25.135 6.93-6.93 18.206-6.93 25.136 0 5.898 5.898 6.888 15.25 2.352 22.234-.294.452-.165 1.057.287 1.35.453.294 1.057.166 1.351-.287 2.423-3.732 3.514-8.239 3.072-12.692zM25.376 3.32c0-.753.614-1.367 1.367-1.367h7.032c.754 0 1.367.614 1.367 1.367 0 .754-.613 1.368-1.367 1.368h-7.031c-.754 0-1.368-.614-1.368-1.368zm2.52 5.375V6.64h4.727v2.05c-1.57-.186-3.158-.185-4.728.004zM43.532 40.55c-.258 0-.51.105-.69.286-.183.182-.287.434-.287.69 0 .258.104.51.286.691.182.183.433.286.69.286.258 0 .509-.103.691-.286.182-.182.286-.434.286-.69 0-.257-.104-.51-.286-.69-.182-.182-.434-.287-.69-.287zM15.123 28.27c0-8.354 6.796-15.15 15.15-15.15 8.353 0 15.15 6.796 15.15 15.15 0 8.353-6.797 15.15-15.15 15.15-8.354 0-15.15-6.797-15.15-15.15zm1.953 0c0 7.276 5.92 13.196 13.197 13.196 7.276 0 13.196-5.92 13.196-13.196 0-7.277-5.92-13.197-13.196-13.197-7.277 0-13.197 5.92-13.197 13.197zm19.375-7.559l-4.837 4.837c-.404-.2-.86-.313-1.34-.313-.481 0-.936.113-1.34.313l-2.166-2.165c-.38-.381-1-.381-1.38 0-.382.382-.382 1 0 1.381l2.164 2.165c-.2.405-.313.86-.313 1.34 0 1.674 1.361 3.035 3.035 3.035 1.673 0 3.034-1.361 3.034-3.034 0-.482-.113-.936-.313-1.341l4.695-4.695.142-.142c.382-.381.382-1 0-1.38-.381-.382-1-.382-1.38 0zm-6.177 8.64c-.597 0-1.082-.485-1.082-1.081 0-.597.485-1.082 1.082-1.082.596 0 1.081.485 1.081 1.082 0 .596-.485 1.081-1.081 1.081zm9.536-2.046h.904c.54 0 .977.437.977.977 0 .539-.437.976-.977.976h-.904c-.54 0-.977-.437-.977-.976 0-.54.437-.977.977-.977zm-19.074-.024h-.905c-.539 0-.976.437-.976.977 0 .539.437.976.976.976h.905c.54 0 .977-.437.977-.976 0-.54-.438-.977-.977-.977zm10.527-8.548c0 .539-.437.976-.976.976-.54 0-.977-.437-.977-.976v-.905c0-.54.438-.977.977-.977.54 0 .976.438.976.977v.905zm-1 18.097c-.54 0-.977.437-.977.976v.905c0 .54.437.977.976.977.54 0 .977-.438.977-.977v-.905c0-.539-.437-.976-.977-.976zM.285 33.605c.182-.182.434-.286.69-.286.257 0 .51.104.69.286.183.181.287.433.287.69 0 .257-.104.509-.286.69-.182.182-.434.287-.69.287-.257 0-.51-.105-.69-.286-.183-.182-.287-.433-.287-.69 0-.258.104-.51.286-.691z" clip-rule="evenodd"/>
</svg>
