<svg xmlns="http://www.w3.org/2000/svg" width="45" height="42" fill="none" viewBox="0 0 45 42">
    <path fill="#313638" d="M44.196 6.462H40.18V4.707c.535-.19.987-.565 1.275-1.058.287-.493.392-1.073.296-1.636-.096-.563-.387-1.074-.822-1.442C40.494.202 39.944 0 39.375 0H5.625c-.569 0-1.119.202-1.553.57-.435.37-.726.88-.822 1.443-.096.563.009 1.143.296 1.636.288.493.74.868 1.275 1.058v1.755H.804c-.214 0-.418.085-.569.236C.085 6.85 0 7.055 0 7.27V10.5c.001 1.07.425 2.097 1.178 2.854.753.757 1.775 1.183 2.84 1.185h.803v2.423c.002.93.322 1.832.907 2.553.586.72 1.4 1.217 2.308 1.404v.889c0 1.07.425 2.097 1.178 2.854.753.757 1.774 1.183 2.84 1.184h5.625v3.23H16.07c-1.917.003-3.755.77-5.111 2.132-1.356 1.363-2.119 3.21-2.12 5.138v4.846c0 .215.084.42.235.571.15.152.355.237.568.237h.803c1.279-.001 2.504-.512 3.408-1.421.904-.909 1.412-2.14 1.414-3.425 0-.428.17-.839.471-1.142.301-.303.71-.473 1.136-.474h.872c.19 1.13.771 2.155 1.641 2.894.87.74 1.973 1.145 3.112 1.145 1.14 0 2.242-.406 3.112-1.145.87-.74 1.452-1.764 1.641-2.894h.872c.426.001.835.171 1.136.474.301.303.47.714.471 1.142.002 1.285.51 2.516 1.414 3.425.904.909 2.13 1.42 3.408 1.421h.803c.213 0 .418-.085.568-.237.151-.151.236-.356.236-.57v-4.847c-.002-1.927-.765-3.775-2.12-5.138-1.357-1.362-3.195-2.129-5.112-2.131H27.32v-3.23h5.625c1.066-.002 2.087-.428 2.84-1.185.753-.757 1.177-1.784 1.178-2.854v-.889c.907-.187 1.722-.683 2.308-1.404.585-.721.906-1.623.907-2.553v-2.423h.803c1.065-.002 2.087-.428 2.84-1.185.753-.757 1.177-1.783 1.178-2.854V7.27c0-.215-.085-.42-.235-.572-.151-.151-.355-.236-.569-.236zM5.625 1.615h33.75c.213 0 .417.085.568.237.15.151.236.357.236.571 0 .214-.085.42-.236.571-.15.152-.355.237-.568.237H5.625c-.213 0-.418-.085-.568-.237-.15-.151-.236-.357-.236-.57 0-.215.085-.42.236-.572.15-.152.355-.237.568-.237zM4.018 12.923c-.64 0-1.252-.256-1.704-.71-.452-.455-.706-1.07-.707-1.713V8.077h3.214v4.846h-.803zm9.643 24.23c-.001.857-.34 1.679-.943 2.284-.602.606-1.42.947-2.272.948v-4.039c.002-1.499.595-2.936 1.65-3.996 1.054-1.06 2.484-1.656 3.975-1.658h1.608v3.231h-.804c-.852.001-1.67.342-2.272.947-.602.606-.941 1.427-.942 2.284zm15.268-6.46c1.49.001 2.92.597 3.975 1.657 1.055 1.06 1.648 2.497 1.65 3.996v4.039c-.853-.001-1.67-.342-2.272-.948-.603-.605-.942-1.427-.943-2.283 0-.857-.34-1.678-.942-2.284-.603-.605-1.42-.946-2.272-.947h-.804v-3.23h1.608zm-3.215 4.038c0 .857-.338 1.678-.941 2.284-.603.606-1.42.947-2.273.947-.852 0-1.67-.34-2.273-.947-.603-.606-.941-1.427-.941-2.284v-8.885h6.428v8.885zm7.232-10.5H12.054c-.64-.001-1.252-.257-1.704-.71-.452-.455-.706-1.07-.707-1.713V21h25.714v.808c0 .642-.255 1.258-.707 1.712-.452.454-1.064.71-1.704.71zm3.215-4.846H8.839c-.639-.001-1.252-.257-1.704-.71-.451-.455-.706-1.071-.706-1.713V4.846H38.57v12.116c0 .642-.255 1.258-.706 1.712-.452.454-1.065.71-1.704.71zm7.232-8.885c0 .642-.255 1.258-.707 1.713-.452.454-1.065.71-1.704.71h-.803V8.077h3.214V10.5z"/>
</svg>
