<svg xmlns="http://www.w3.org/2000/svg" width="40" height="28" fill="none" viewBox="0 0 40 28">
    <rect width="39" height="27.235" x=".5" y=".5" fill="#fff" stroke="#E2E2E2" rx="3.5"/>
    <path fill="#060809" fill-rule="evenodd" d="M17.217 14.081h-1.305v-.512c0-.666.38-.856.709-.856.362 0 .644.16.644.16l.444-1.014s-.45-.295-1.268-.295c-.92 0-1.967.519-1.967 2.147v.37h-2.185v-.512c0-.666.38-.856.708-.856.187 0 .438.043.645.16l.444-1.014c-.265-.156-.69-.295-1.268-.295-.92 0-1.967.519-1.967 2.147v.37h-.836v1.111h.836v3.924h1.438v-3.924h2.184v3.924h1.44v-3.924h1.304v-1.11zM6.712 18.213c-.379 0-.567-.186-.567-.493 0-.568.636-.763 1.797-.886 0 .76-.514 1.379-1.23 1.379zm.5-4.28c-.83 0-1.784.392-2.302.805l.473.996c.416-.38 1.088-.706 1.694-.706.576 0 .894.193.894.58 0 .262-.211.393-.61.445-1.488.194-2.655.604-2.655 1.752 0 .909.647 1.46 1.66 1.46.72 0 1.363-.402 1.67-.931v.782H9.38v-3.279c0-1.354-.942-1.904-2.169-1.904zm13.51.148v5.035h1.44v-2.425c0-1.154.698-1.492 1.185-1.492.19 0 .446.055.616.182l.262-1.332c-.222-.095-.455-.115-.646-.115-.74 0-1.205.328-1.512.994v-.847h-1.345zm8.552.737c.296-.434.866-.884 1.627-.884.92 0 1.682.57 1.682 1.702v3.48h-1.44v-3.025c0-.666-.4-.943-.781-.943-.476 0-.952.435-.952 1.377v2.591h-1.44v-3.014c0-.687-.377-.954-.789-.954-.455 0-.942.446-.942 1.377v2.591H24.8v-5.034h1.387v.76c.244-.485.77-.908 1.532-.908.698 0 1.28.323 1.556.884zm-9.76 4.298h-1.438v-5.034h1.438v5.034z" clip-rule="evenodd"/>
    <path fill="#0FA0EA" fill-rule="evenodd" d="M26.463 7.059c-3.887 0-7.351 2.698-8.334 6.167h1.409c.82-2.584 3.608-4.851 6.925-4.851 4.031 0 7.515 3.069 7.515 7.847 0 1.072-.139 2.04-.402 2.894h1.367l.014-.047c.223-.881.337-1.839.337-2.847 0-5.329-3.882-9.163-8.831-9.163z" clip-rule="evenodd"/>
</svg>
