<svg xmlns="http://www.w3.org/2000/svg" width="70" height="28" fill="none" viewBox="0 0 70 28">
    <path fill="#060809" fill-rule="evenodd" d="M28.633 16.07h-2.986v-1.172c0-1.523.87-1.96 1.622-1.96.828 0 1.474.368 1.474.368l1.016-2.322s-1.03-.674-2.903-.674c-2.106 0-4.501 1.187-4.501 4.913v.847h-4.998v-1.172c0-1.523.87-1.96 1.62-1.96.426 0 1 .1 1.475.368l1.017-2.322c-.607-.357-1.582-.674-2.904-.674-2.105 0-4.501 1.187-4.501 4.913v.847h-1.912v2.541h1.912v8.98h3.293v-8.98h4.998v8.98h3.292v-8.98h2.986V16.07zM4.59 25.524c-.866 0-1.297-.425-1.297-1.128 0-1.3 1.455-1.746 4.112-2.027 0 1.74-1.177 3.155-2.815 3.155zm1.145-9.793c-1.898 0-4.082.896-5.268 1.84l1.083 2.28c.951-.87 2.489-1.614 3.876-1.614 1.318 0 2.045.44 2.045 1.327 0 .599-.482.9-1.395 1.018C2.672 21.026 0 21.964 0 24.59c0 2.08 1.482 3.34 3.797 3.34 1.65 0 3.122-.918 3.822-2.13v1.79h3.078v-7.502c0-3.098-2.154-4.357-4.962-4.357zm30.917.339v11.521h3.296v-5.55c0-2.64 1.597-3.414 2.71-3.414.435 0 1.022.126 1.41.416l.6-3.046c-.509-.217-1.04-.265-1.477-.265-1.694 0-2.759.75-3.462 2.274V16.07h-3.077zm19.567 1.685c.678-.993 1.98-2.023 3.723-2.023 2.105 0 3.848 1.306 3.848 3.896v7.963h-3.293V20.67c0-1.525-.919-2.158-1.789-2.158-1.09 0-2.178.996-2.178 3.15v5.93h-3.293v-6.899c0-1.571-.866-2.181-1.808-2.181-1.041 0-2.155 1.02-2.155 3.15v5.93h-3.297V16.07h3.176v1.742c.557-1.112 1.763-2.08 3.505-2.08 1.597 0 2.931.74 3.561 2.023zm-22.336 9.837h-3.29V16.07h3.29v11.521z" clip-rule="evenodd"/>
    <path fill="#0FA0EA" fill-rule="evenodd" d="M49.79 0C40.898 0 32.97 6.174 30.72 14.112h3.224c1.879-5.911 8.258-11.1 15.847-11.1 9.224 0 17.197 7.023 17.197 17.956 0 2.454-.318 4.667-.92 6.622h3.128l.03-.107c.513-2.017.774-4.208.774-6.515C70 8.775 61.115 0 49.79 0z" clip-rule="evenodd"/>
</svg>
