<svg width="52" height="22" fill="none" xmlns="http://www.w3.org/2000/svg">
    <path fill-rule="evenodd" clip-rule="evenodd" d="M21.703 12.501h-2.175v-.853c0-1.11.634-1.428 1.181-1.428.604 0 1.074.268 1.074.268l.74-1.693s-.75-.49-2.115-.49c-1.534 0-3.28.865-3.28 3.58v.616h-3.64v-.853c0-1.11.633-1.428 1.18-1.428.31 0 .729.072 1.075.268l.74-1.693c-.442-.26-1.152-.49-2.115-.49-1.534 0-3.28.865-3.28 3.58v.616H9.695v1.852h1.393v6.543h2.4v-6.543h3.64v6.543h2.4v-6.543h2.175v-1.852zM4.184 19.39c-.63 0-.945-.31-.945-.822 0-.948 1.06-1.272 2.996-1.477 0 1.267-.857 2.299-2.051 2.299zm.834-7.135c-1.382 0-2.974.652-3.838 1.34l.79 1.661c.692-.634 1.813-1.175 2.823-1.175.96 0 1.49.32 1.49.966 0 .437-.351.656-1.016.742-2.48.323-4.427 1.007-4.427 2.92 0 1.516 1.08 2.434 2.766 2.434 1.203 0 2.275-.67 2.785-1.552v1.304h2.243V15.43c0-2.257-1.57-3.174-3.616-3.174zm22.53.246v8.395h2.4v-4.044c0-1.923 1.164-2.487 1.975-2.487.317 0 .744.091 1.027.303l.438-2.22c-.371-.158-.76-.193-1.077-.193-1.234 0-2.01.547-2.522 1.657v-1.41h-2.242zm14.25 1.228c.495-.723 1.443-1.474 2.713-1.474 1.534 0 2.803.952 2.803 2.839v5.802h-2.398v-5.044c0-1.11-.67-1.572-1.304-1.572-.794 0-1.587.726-1.587 2.295v4.32h-2.4V15.87c0-1.145-.63-1.59-1.316-1.59-.759 0-1.57.744-1.57 2.296v4.32h-2.403v-8.393h2.314v1.27c.406-.812 1.285-1.517 2.554-1.517 1.163 0 2.136.54 2.595 1.474zm-16.272 7.167H23.13v-8.394h2.396v8.394z" fill="#fff"/>
    <path fill-rule="evenodd" clip-rule="evenodd" d="M37.118.793c-6.48 0-12.256 4.498-13.895 10.282h2.349c1.369-4.307 6.017-8.088 11.546-8.088 6.721 0 12.53 5.117 12.53 13.083 0 1.788-.232 3.4-.67 4.825h2.279l.022-.078c.373-1.47.563-3.066.563-4.747C51.842 7.186 45.37.793 37.118.793z" fill="#fff"/>
</svg>
