<svg xmlns="http://www.w3.org/2000/svg" width="40" height="29" fill="none" viewBox="0 0 40 29">
    <rect width="40" height="28.235" fill="#1F72CD" rx="4"/>
    <path fill="#fff" fill-rule="evenodd" d="M7.171 10L3.43 18.526h4.48l.555-1.36h1.27l.555 1.36h4.932v-1.038l.44 1.038h2.55l.44-1.06v1.06h10.256l1.247-1.324 1.168 1.324 5.268.01-3.755-4.25L36.59 10h-5.187l-1.213 1.3-1.132-1.3H17.901l-.958 2.2-.98-2.2h-4.471v1.002L10.994 10H7.171zm.867 1.21h2.184l2.482 5.782V11.21h2.393l1.917 4.145 1.767-4.145h2.38v6.117h-1.448l-.012-4.793-2.111 4.793h-1.296l-2.124-4.793v4.793h-2.98l-.564-1.371H7.574l-.564 1.37H5.414l2.624-6.116zm20.338 0h-5.89v6.115h5.8l1.868-2.027 1.801 2.027h1.883l-2.737-3.04 2.737-3.074h-1.801l-1.86 2.003-1.8-2.003zM9.1 12.247l-1.005 2.443h2.01L9.1 12.246zm14.841 1.348v-1.117h3.675l1.604 1.785-1.675 1.796H23.94v-1.22h3.213v-1.244h-3.213z" clip-rule="evenodd"/>
</svg>
