<svg xmlns="http://www.w3.org/2000/svg" width="40" height="37" fill="none" viewBox="0 0 40 37">
    <path fill="#313638" fill-rule="evenodd" d="M34.634 6.093c.111 0 .223.004.335.013 2.404.185 4.203 2.283 4.018 4.687l-.998 19.515c-.115 1.52-1.378 2.698-2.903 2.706H33.15v.01c-.002 2.407-1.954 4.357-4.362 4.356H7.592c-.121 0-.243-.005-.364-.015-2.402-.201-4.187-2.312-3.986-4.715l.68-8.158c-.685-.465-1.14-1.2-1.25-2.02L.005 1.822C.002 1.79 0 1.759 0 1.727 0 1.326.326 1 .728 1h29.104c.379-.001.696.29.727.667l.364 4.426h3.71zM1.555 2.455l2.554 19.79 1.649-19.79H1.555zm27.233 33.47c.815.004 1.593-.338 2.142-.94.554-.597.83-1.4.758-2.212L29.162 2.455H7.218L4.692 32.773c-.007.08-.01.16-.01.241 0 1.607 1.303 2.91 2.91 2.91h21.196zm7.75-5.71l.996-19.515c.007-.08.01-.16.01-.241 0-1.608-1.303-2.91-2.91-2.91h-3.587l2.002 24.01h2.037c.76-.004 1.39-.587 1.451-1.344zM25.36 5.427l1.45-.12 2.277 27.345-1.45.12-2.277-27.345z" clip-rule="evenodd"/>
    <path fill="#313638" d="M34.969 6.106l.02-.25h-.001l-.02.25zm4.018 4.687l-.25-.019v.007l.25.012zm-.998 19.515l.249.02v-.007l-.25-.013zm-2.903 2.706v.25h.002l-.002-.25zm-1.936 0v-.25h-.25v.25h.25zm0 .01h.25-.25zm-4.362 4.356v-.25.25zm-21.56-.015l-.02.249.02-.25zM3.242 32.65l.249.021-.25-.02zm.68-8.158l.248.02.012-.145-.12-.082-.14.207zm-1.25-2.02l-.249.033v.001l.248-.033zM.005 1.822l.248-.032-.248.032zM0 1.727h-.25H0zM.728 1v.25V1zm29.104 0v.25V1zm.727.667l.25-.02-.25.02zm.364 4.426l-.25.02.02.23h.23v-.25zM4.109 22.246l-.248.032.497-.011-.25-.021zM1.555 2.456v-.25h-.284l.036.281.248-.032zm4.203 0l.249.02.022-.27h-.271v.25zM30.93 34.984l-.184-.17-.001.001.185.168zm-2.142.94l.002-.25h-.002v.25zm2.9-3.152l-.249.02v.002l.25-.022zM29.162 2.455l.25-.02-.02-.23h-.23v.25zm-21.944 0v-.25h-.23l-.02.23.25.02zM4.692 32.773l-.25-.021.25.02zm-.01.241h.25-.25zm2.91 2.91v.25-.25zM37.534 10.7l-.25-.02v.008l.25.012zm-.997 19.515l.25.02v-.007l-.25-.013zm1.007-19.756h-.25.25zm-2.91-2.91v-.25.25zm-3.587 0v-.25h-.272l.023.27.249-.02zm2.002 24.01l-.25.02.02.23h.23v-.25zm2.037 0v.25h.002l-.002-.25zM26.811 5.307l.249-.021-.02-.25-.25.021.02.25zm-1.45.12l-.021-.249-.25.021.021.25.25-.022zm3.727 27.225l.021.25.25-.022-.022-.249-.249.02zm-1.45.12l-.249.022.02.249.25-.021-.02-.25zm7.35-26.915c-.118-.01-.236-.014-.354-.014v.5c.105 0 .21.004.316.012l.038-.498zm4.248 4.956c.196-2.542-1.706-4.76-4.248-4.956l-.038.498c2.266.174 3.962 2.153 3.788 4.42l.498.038zm-.998 19.508l.999-19.515-.5-.025-.998 19.514.5.026zm-3.15 2.943c1.654-.01 3.025-1.287 3.15-2.937l-.499-.038c-.105 1.39-1.26 2.467-2.654 2.475l.003.5zm-1.938 0h1.936v-.5H33.15v.5zm.25-.24v-.01h-.5v.01h.5zm-4.612 4.606c2.546.002 4.61-2.06 4.612-4.606h-.5c-.001 2.269-1.842 4.107-4.112 4.106v.5zm-21.196 0h21.196v-.5H7.592v.5zm-.385-.016c.128.01.257.016.385.016v-.5c-.115 0-.229-.005-.343-.015l-.042.499zM2.992 32.63c-.212 2.54 1.675 4.771 4.215 4.984l.042-.498c-2.265-.19-3.948-2.18-3.758-4.445l-.499-.041zm.68-8.159l-.68 8.159.499.041.68-8.158-.499-.042zm-1.249-1.965c.121.89.615 1.688 1.358 2.193l.28-.414c-.625-.425-1.04-1.096-1.142-1.846l-.496.067zM-.242 1.853l2.665 20.652.496-.064L.254 1.789l-.496.064zm-.008-.126c0 .042.003.084.008.126l.496-.064C.25 1.769.25 1.748.25 1.727h-.5zM.728.75c-.54 0-.978.437-.978.977h.5c0-.263.214-.477.478-.477v-.5zm29.104 0H.728v.5h29.104v-.5zm.976.896c-.042-.508-.468-.898-.977-.896l.002.5c.248 0 .456.19.477.438l.498-.042zm.364 4.427l-.364-4.426-.498.04.364 4.427.498-.041zm3.462-.23h-3.711v.5h3.71v-.5zM4.357 22.213L1.803 2.424l-.496.064 2.554 19.79.496-.063zM5.509 2.435l-1.65 19.791.5.042L6.006 2.476l-.498-.042zm-3.954.271h4.203v-.5H1.555v.5zm29.19 32.111c-.501.55-1.212.862-1.956.859l-.002.5c.886.004 1.731-.367 2.328-1.022l-.37-.337zm.694-2.021c.066.74-.186 1.474-.692 2.02l.366.34c.602-.649.902-1.522.825-2.404l-.499.044zM28.913 2.476l2.526 30.317.499-.041L29.41 2.434l-.498.042zm-21.695.23h21.944v-.5H7.218v.5zM4.94 32.792L7.467 2.476l-.498-.042-2.526 30.318.498.041zm-.01.221c0-.074.004-.147.01-.22l-.498-.042c-.008.087-.011.174-.011.262h.5zm2.66 2.66c-1.468 0-2.66-1.19-2.66-2.66h-.5c0 1.745 1.415 3.16 3.16 3.16v-.5zm21.197 0H7.592v.5h21.196v-.5zm8.496-24.986l-.996 19.514.499.026.997-19.515-.5-.025zm.01-.23c0 .075-.003.148-.01.222l.5.04c.006-.086.01-.174.01-.261h-.5zm-2.66-2.66c1.469 0 2.66 1.192 2.66 2.66h.5c0-1.745-1.415-3.16-3.16-3.16v.5zm-3.587 0h3.587v-.5h-3.587v.5zm2.251 23.74l-2.002-24.01-.498.041L32.8 31.58l.498-.04zm1.788-.229H33.05v.5h2.037v-.5zm1.202-1.114c-.051.627-.574 1.111-1.203 1.114l.002.5c.89-.004 1.627-.688 1.7-1.574l-.499-.04zM26.79 5.057l-1.45.121.041.499 1.45-.121-.041-.499zm2.547 27.574L27.06 5.286l-.498.041 2.277 27.346.498-.042zm-1.678.39l1.45-.12-.041-.498-1.45.12.041.499zM25.112 5.449l2.277 27.346.498-.042L25.61 5.407l-.498.041z"/>
</svg>
