<svg xmlns="http://www.w3.org/2000/svg" width="38" height="38" fill="none" viewBox="0 0 38 38">
    <path fill="#313638" fill-rule="evenodd" d="M6.798 1.7h24.404c2.81 0 5.098 2.289 5.098 5.098v24.404c0 2.81-2.288 5.098-5.098 5.098H6.798c-2.81 0-5.098-2.288-5.098-5.098V6.798C1.7 3.988 3.989 1.7 6.798 1.7zM31.202 0H6.798C3.05 0 0 3.05 0 6.798v24.404C0 34.95 3.05 38 6.798 38h24.404C34.95 38 38 34.95 38 31.202V6.798C38 3.05 34.95 0 31.202 0zM19.084 12.184l-2.662 7.326h5.324l-2.618-7.326h-.044zM11.868 26l6.116-15.708h2.31L26.432 26h-2.31l-1.716-4.73h-6.644L14.002 26h-2.134z" clip-rule="evenodd"/>
</svg>
