<svg xmlns="http://www.w3.org/2000/svg" width="106" height="98" fill="none" viewBox="0 0 106 98">
    <path fill="#313638" fill-rule="evenodd" d="M87.218 27.4c-.744 0-1.347.603-1.347 1.347v6.124h-6.124c-.744 0-1.347.603-1.347 1.347v53.793c0 .744.603 1.347 1.347 1.347h1.64v4.63c0 .745.604 1.347 1.348 1.347h17.931c.744 0 1.347-.602 1.347-1.347v-4.63h1.642c.744 0 1.347-.603 1.347-1.347V36.218c0-.744-.603-1.347-1.347-1.347h-6.124v-6.124c0-.744-.604-1.347-1.348-1.347h-8.965zm1.347 7.471v-4.777h6.271v4.777h-6.271zm-7.47 5.977v-3.283h21.213v3.283H81.094zm0 5.977v-3.283h21.213v27.191h-7.62c-.743 0-1.347.603-1.347 1.347 0 .745.604 1.348 1.348 1.348h7.619v3.282H81.094V49.52h7.62c.743 0 1.347-.604 1.347-1.348 0-.743-.603-1.347-1.347-1.347h-7.62zM91.7 49.814c-.426 0-.827.202-1.081.544-.515.694-2.057 2.805-3.473 5.064-.707 1.128-1.39 2.305-1.898 3.367-.494 1.032-.872 2.052-.872 2.831 0 .509.053 1.018.161 1.53l.062.268v.003l.001.001.008.03c.832 3.234 3.75 5.493 7.092 5.493 3.344 0 6.26-2.26 7.094-5.494l.005-.02.066-.285.002-.011c.105-.497.158-1.007.158-1.514 0-.78-.378-1.8-.872-2.832-.508-1.062-1.191-2.239-1.898-3.367-1.416-2.259-2.957-4.37-3.472-5.063-.255-.344-.656-.545-1.083-.545zM84.61 63.452v-.002l.58-.15-.58.154v-.002zm2.462-1.831c0-.09.026-.25.105-.498.076-.239.192-.526.343-.856.304-.66.736-1.452 1.245-2.309.87-1.466 1.948-3.088 2.937-4.495.99 1.407 2.067 3.03 2.938 4.495.509.857.941 1.65 1.244 2.309.152.33.267.617.344.856.078.248.104.409.104.498 0 .32-.033.64-.096.939l-.054.234c-.53 2.036-2.37 3.456-4.48 3.456-2.11 0-3.949-1.42-4.48-3.456l-.05-.22c-.066-.313-.1-.634-.1-.953zm-5.977 27.043v-9.26h21.214v9.26H81.094zm2.988 5.977v-3.283H99.32v3.283H84.082zM50.177 42.084c2.082.007 3.927 1.344 4.583 3.32 3.86.405 6.89 3.495 7.219 7.363l1.35 16.834h2.428c2.514-.011 4.617 1.908 4.834 4.414l.387 4.208c.214 2.248-1.157 4.344-3.302 5.05l-3.172 1.057.137 1.722c1.985.652 3.331 2.501 3.341 4.59v1.62c0 2.681-2.174 4.855-4.856 4.855H8.093c-2.682 0-4.856-2.174-4.856-4.856v-1.618c.01-2.09 1.356-3.939 3.341-4.59L7.898 69.6H6.473C2.9 69.6 0 66.702 0 63.126v-6.474c0-3.576 2.899-6.475 6.474-6.475h3.419c1.164-2.665 3.676-4.495 6.57-4.784.659-1.971 2.501-3.302 4.58-3.309h.418l-8.366-14.343c-1.155-1.98-1.764-4.233-1.765-6.526V9.414c-2.228-.785-3.565-3.062-3.165-5.39.4-2.329 2.422-4.028 4.784-4.024H58.27c2.363-.004 4.384 1.695 4.784 4.024.4 2.328-.937 4.605-3.165 5.39v11.801c0 2.293-.61 4.545-1.764 6.526l-8.367 14.343h.42zM9.847 85.787h51.526l-2.628-32.761c-.174-2.09-1.671-3.833-3.712-4.32v24.132c0 .894-.725 1.619-1.619 1.619s-1.618-.725-1.618-1.62V51.797H46.94v11.33c-.003 1.152-.62 2.214-1.619 2.788V69.6c0 1.788-1.449 3.237-3.237 3.237H29.135c-1.788 0-3.237-1.45-3.237-3.237v-3.688c-.998-.573-1.615-1.635-1.619-2.787v-11.33h-4.856v21.042c0 .894-.724 1.619-1.618 1.619-.894 0-1.619-.725-1.619-1.62V48.704c-1.746.4-3.124 1.741-3.574 3.476-.064.283-.11.57-.139.858l-2.627 32.75zm32.237-19.424H29.135v3.238h12.95v-3.238zm-1.619-11.33h3.238v-3.237H27.517v3.237h3.237c.894 0 1.618.725 1.618 1.619s-.724 1.618-1.618 1.618h-3.237v4.856h16.186V58.27h-3.238c-.893 0-1.618-.724-1.618-1.618 0-.894.725-1.619 1.618-1.619zM58.27 3.237H12.95c-.894 0-1.619.725-1.619 1.619s.725 1.618 1.619 1.618H58.27c.894 0 1.619-.724 1.619-1.618 0-.894-.725-1.619-1.619-1.619zM14.568 21.215c0 1.72.456 3.409 1.322 4.895l9.318 15.974h20.803l9.318-15.974c.866-1.486 1.322-3.175 1.323-4.895V9.712H14.568v11.503zm35.61 24.106H21.041c-.894 0-1.619.725-1.619 1.619v1.619h32.373V46.94c0-.894-.725-1.619-1.619-1.619zm-46.94 11.33v6.475c0 1.788 1.449 3.237 3.236 3.237h1.679l1.042-12.949h-2.72c-1.788 0-3.238 1.45-3.238 3.238zM63.125 93.88c.894 0 1.619-.725 1.619-1.619v-1.618c0-.894-.725-1.619-1.619-1.619H8.093c-.894 0-1.619.725-1.619 1.619v1.618c0 .894.725 1.619 1.62 1.619h55.032zm4.25-19.572c-.078-.836-.78-1.474-1.62-1.47h-2.175l.662 8.17 2.417-.809c.713-.237 1.169-.934 1.1-1.683l-.385-4.208zM21.041 21.215c0 .573.152 1.135.44 1.63l7.914 13.574c.336.501.366 1.148.076 1.678s-.85.854-1.454.842c-.604-.013-1.15-.36-1.417-.902l-7.914-13.559c-.578-.99-.882-2.116-.882-3.263v-6.648c0-.894.725-1.618 1.619-1.618s1.618.724 1.618 1.618v6.648z" clip-rule="evenodd"/>
</svg>
