<svg xmlns="http://www.w3.org/2000/svg" width="29" height="29" fill="none" viewBox="0 0 29 29">
    <path fill="#313638" fill-rule="evenodd" d="M28.064 19.377c.587.598.936 1.413.936 2.291v4.526H13.164c-.043.298-.067.607-.067.935 0 1.228-2.118 1.871-4.21 1.871s-4.21-.643-4.21-1.871c0-.684-.104-1.284-.264-1.87H3.274C1.47 25.258 0 23.788 0 21.983c0-1.651 1.23-3.018 2.82-3.24 0-.045-.002-.091-.004-.137-.005-.12-.01-.239-.01-.365v-.468h7.498c.067-.792.469-1.53 1.108-2.011.47-.352.75-.911.75-1.497v-7.25C12.161 3.147 15.308 0 19.176 0c3.87 0 7.017 3.147 7.017 7.016v7.25c0 .586.28 1.145.748 1.497.703.528 1.122 1.367 1.122 2.245v1.369zm-.935-1.369c0-.585-.28-1.145-.749-1.497-.702-.527-1.122-1.366-1.122-2.245V12.15c-.294.223-.64.378-1.019.44-.252 1.425-1.088 2.648-2.255 3.411v.97l4.777 1.592c.129.042.248.099.368.156v-.71zm-4.677.104v3.404h.935v-3.092l-.935-.313zm-6.549 0l-.94.313c-.015 1.216-.17 2.219-.387 3.091h1.327v-3.404zM19.28 7.855c.062.25.151.493.267.723l.477.954-.938-.188c-1.448-.289-2.831-.797-4.118-1.512v3.86c0 2.321 1.888 4.21 4.21 4.21 2.32 0 4.21-1.889 4.21-4.21V8.88c-1.427-.054-2.826-.404-4.108-1.024zm1.768 8.625c-.58.228-1.21.358-1.87.358-.661 0-1.29-.13-1.872-.358v.656l1.871 2.245 1.871-2.245v-.656zm-1.87 4.362l-2.34-2.806v3.48h4.678v-3.48l-2.339 2.806zm6.08-10.553c0-.609-.392-1.123-.935-1.317v2.634c.543-.193.935-.708.935-1.317zm0-3.274c0-3.353-2.728-6.08-6.08-6.08-3.353 0-6.081 2.727-6.081 6.08v1.415c.273-.207.588-.361.935-.432V6.19l1.002.601c1.059.635 2.192 1.117 3.377 1.436-.112-.393-.17-.802-.17-1.21V6.19l.71.425c1.346.808 2.871 1.264 4.436 1.329v-.928h.936V8c.347.07.662.226.935.432V7.016zM14.032 8.973c-.543.194-.935.708-.935 1.317 0 .61.392 1.124.935 1.317V8.973zm-.935 5.293c0 .879-.42 1.718-1.122 2.245-.406.304-.658.766-.722 1.263h2.703l2.415-.804V16c-1.168-.763-2.004-1.986-2.255-3.411-.381-.066-.726-.222-1.02-.444v2.121zM.935 21.984c0 1.29 1.05 2.339 2.34 2.339h.843c-.07-.2-.142-.4-.217-.605-.405-1.113-.848-2.35-1.019-4.033-1.102.187-1.947 1.143-1.947 2.299zm7.952 6.08c2.127 0 3.274-.663 3.274-.935 0-1.443.405-2.554.834-3.732v-.002c.475-1.304.964-2.649 1.03-4.685H3.75c.066 2.035.555 3.38 1.03 4.684l.001.003.001.004c.428 1.176.832 2.286.832 3.728 0 .272 1.147.935 3.274.935zm5.424-5.612c-.142.446-.292.865-.438 1.266-.193.532-.373 1.03-.511 1.54h1.606v-1.87h8.42v1.87h1.825l-.255-2.806H14.311zm1.592 1.87v.936h6.549v-.935h-6.549zm10.25.936h1.912v-3.59c0-1.008-.643-1.9-1.6-2.219l-2.142-.714v2.781h.55l-.08-.893.931-.084.429 4.72zM16.839 10.29c.258 0 .468-.21.468-.467 0-.259-.21-.468-.468-.468s-.468.21-.468.468.21.467.468.467zm4.676 0c.258 0 .467-.21.467-.467 0-.259-.21-.468-.467-.468-.259 0-.468.21-.468.468s.21.467.468.467zM18.24 12.63h-.935c0 1.032.839 1.871 1.87 1.871 1.032 0 1.872-.84 1.872-1.871h-.936c0 .516-.42.936-.935.936-.516 0-.936-.42-.936-.936z" clip-rule="evenodd"/>
</svg>
