<svg xmlns="http://www.w3.org/2000/svg" width="87" height="55" fill="none" viewBox="0 0 87 55">
    <path fill="#313638" d="M23.393 39.004V49h1.19v-.966h.028c.13.215.29.397.476.546.196.14.401.252.616.336.215.084.43.145.644.182.224.037.425.056.602.056.55 0 1.031-.098 1.442-.294.42-.196.765-.462 1.036-.798.28-.345.485-.747.616-1.204.14-.457.21-.943.21-1.456s-.07-.999-.21-1.456c-.14-.457-.35-.859-.63-1.204-.27-.355-.616-.635-1.036-.84-.41-.205-.896-.308-1.456-.308-.504 0-.966.093-1.386.28-.42.177-.728.467-.924.868h-.028v-3.738h-1.19zm5.6 6.314c0 .355-.037.7-.112 1.036-.075.336-.196.635-.364.896-.168.261-.392.471-.672.63-.27.159-.611.238-1.022.238-.41 0-.76-.075-1.05-.224-.29-.159-.527-.364-.714-.616-.177-.252-.308-.541-.392-.868-.084-.336-.126-.681-.126-1.036 0-.336.037-.667.112-.994.084-.327.215-.616.392-.868.177-.261.406-.471.686-.63.28-.159.62-.238 1.022-.238.383 0 .714.075.994.224.29.15.523.35.7.602.187.252.322.541.406.868.093.317.14.644.14.98zm5.499 4.648c-.14.355-.28.653-.42.896-.13.243-.28.439-.448.588-.159.159-.34.27-.546.336-.196.075-.425.112-.686.112-.14 0-.28-.01-.42-.028-.14-.019-.275-.051-.406-.098V50.68c.103.047.22.084.35.112.14.037.257.056.35.056.243 0 .443-.06.602-.182.168-.112.294-.275.378-.49l.49-1.218-2.87-7.196h1.344l2.114 5.922h.028l2.03-5.922h1.26l-3.15 8.204zm9.58-6.664v-3.178h2.66c.29 0 .56.019.812.056.262.028.49.098.686.21.196.112.35.27.462.476.112.205.168.485.168.84 0 .532-.168.933-.504 1.204-.326.261-.868.392-1.624.392h-2.66zm-1.33-4.298V49h4.83c.495 0 .93-.08 1.302-.238.383-.168.7-.383.952-.644.262-.27.458-.579.588-.924.131-.345.196-.7.196-1.064 0-.616-.163-1.139-.49-1.568-.326-.43-.798-.71-1.414-.84v-.028c.476-.187.84-.471 1.092-.854.262-.392.392-.854.392-1.386 0-.504-.116-.929-.35-1.274-.224-.345-.499-.616-.826-.812-.149-.093-.33-.163-.546-.21-.205-.047-.429-.08-.672-.098-.242-.028-.49-.042-.742-.042-.242-.01-.47-.014-.686-.014h-3.626zm1.33 8.876v-3.458h3.038c.28 0 .551.028.812.084.262.047.49.135.686.266.206.121.37.29.49.504.122.215.182.485.182.812 0 .56-.168.999-.504 1.316-.326.317-.784.476-1.372.476h-3.332zm8.016-6.118V49h1.19v-3.22c0-.467.047-.877.14-1.232.094-.364.243-.672.448-.924.206-.252.476-.443.812-.574.336-.13.742-.196 1.218-.196v-1.26c-.644-.019-1.176.112-1.596.392-.42.28-.774.714-1.064 1.302h-.028v-1.526h-1.12zm9.484 2.926h-4.158c.02-.28.08-.541.182-.784.103-.252.243-.471.42-.658.178-.187.388-.331.63-.434.252-.112.532-.168.84-.168.3 0 .57.056.812.168.252.103.467.247.644.434.187.177.332.392.434.644.112.252.178.518.196.798zm1.148 2.016h-1.176c-.102.476-.317.83-.644 1.064-.317.233-.728.35-1.232.35-.392 0-.732-.065-1.022-.196-.289-.13-.527-.303-.714-.518-.186-.224-.322-.476-.406-.756-.084-.29-.12-.593-.112-.91h5.418c.02-.439-.023-.9-.126-1.386-.093-.485-.27-.933-.532-1.344-.252-.41-.592-.747-1.022-1.008-.42-.27-.952-.406-1.596-.406-.494 0-.952.093-1.372.28-.41.187-.77.448-1.078.784-.298.336-.532.733-.7 1.19-.168.457-.252.961-.252 1.512.02.55.098 1.06.238 1.526.15.467.37.868.658 1.204.29.336.644.597 1.064.784.43.187.934.28 1.512.28.822 0 1.503-.205 2.044-.616.542-.41.892-1.022 1.05-1.834zM67.328 49l2.646-7.238h-1.246l-1.974 6.034h-.028l-2.03-6.034h-1.33L66.054 49h1.274zm4.998-8.54v-1.456h-1.19v1.456h1.19zm-1.19 1.302V49h1.19v-7.238h-1.19zm3.103-2.758V49h1.19v-9.996h-1.19zm3.104 0V49h1.19v-9.996h-1.19zm8.06 5.684h-4.159c.02-.28.08-.541.183-.784.102-.252.242-.471.42-.658.177-.187.387-.331.63-.434.251-.112.531-.168.84-.168.298 0 .569.056.812.168.251.103.466.247.643.434.187.177.332.392.434.644.112.252.178.518.197.798zm1.147 2.016h-1.175c-.103.476-.318.83-.644 1.064-.318.233-.728.35-1.232.35-.392 0-.733-.065-1.022-.196-.29-.13-.528-.303-.715-.518-.186-.224-.322-.476-.406-.756-.084-.29-.12-.593-.111-.91h5.417c.02-.439-.023-.9-.126-1.386-.093-.485-.27-.933-.532-1.344-.252-.41-.592-.747-1.022-1.008-.42-.27-.951-.406-1.596-.406-.494 0-.951.093-1.371.28-.411.187-.77.448-1.079.784-.298.336-.532.733-.7 1.19-.168.457-.252.961-.252 1.512.02.55.099 1.06.239 1.526.149.467.368.868.657 1.204.29.336.645.597 1.065.784.429.187.933.28 1.512.28.82 0 1.502-.205 2.044-.616.54-.41.89-1.022 1.05-1.834z"/>
    <path fill="#313638" fill-rule="evenodd" d="M6.478 15.592c-.194.397-.418 1.037-.405 2.325v.006c.012 1.248.025 2.504.777 3.962.469.909 1.17 1.757 2.165 2.537 1.075.842 2.114 1.17 3.12 1.017.15-.082.233-.193.243-.4.08-1.567-.185-2.918-1.448-4.06-.793-.718-1.72-2.163-2.176-3.888-.21-.794-.314-1.192-.26-1.53 0 0 .16-1.03-.023-1.355-.016-.03-.04-.052-.04-.052-.036-.032-.096-.059-.216-.061-.203.052-.487.15-.781.343-.112.074-.588.402-.956 1.156zm4.202 3.617c.876.792 1.454 1.78 1.86 2.789.162.401.249.836.336 1.27.101.508.202 1.014.422 1.462.065.131.193.153.357.104.275-.201.68-.55 1.017-1.1.106-.173.572-.966.606-2.371.078-3.297-2.315-6.246-3.494-6.87-.547-.29-1.11-.433-1.11-.433-.48-.12-.886-.142-1.166-.139-.118.061-.213.154-.272.291-.26.604-.133 1.426-.034 2.06l.012.076c.158 1.02.606 2.083 1.466 2.86zM8.596 11.09c.84-.428 2.668-.805 3.635-.805 6.117 0 8.507 5.08 7.466 10.539 0 0-.454 1.782-1.362 3.27l-.06.114c-1.51 2.465-4.225 4.665-8.016 4.665-1.535 0-3.045-.196-3.925-.63-.486.566-1.374.756-3.121.756-1.31 0-2.478-.29-3.14-1.203-.04-.058-.08-.118-.072-.192.011-.125.112-.231.234-.244.539-.057.778-.546.888-1.063l.099-1.065c.002-.068.004-.124.007-.163h.008l1.9-20.449c.086-.922-.363-1.727-1.103-2.158-.133-.077-.202-.224-.188-.378l.084-.895c.044-.477.44-.883.939-.965C3.461.128 4.512 0 5.4 0h1.313c1.686 0 2.926.37 2.776 1.983l-.135 1.44c-.191 1.963-.758 7.668-.758 7.668zm34.306 10.872c.372 1.708 2.362 2.14 3.609 1.186.939-.718 1.044-1.869 1.533-7.188l.052-.56c.007-.074.018-.214-.054-.345-.275-.503-1.473-.351-1.506-.347 0 0-1.358.212-2.13.88-1.414 1.223-1.575 3.13-1.675 4.322-.078.917.024 1.382.155 1.978l.016.074zm-16.169-2.514c.385 1.768 1.546.956 1.813.716.488-.437.724-.932.842-1.199.422-.953 1.113-2.514.575-3.968-.113-.307-.326-.88-.814-.975-.451-.088-.896.279-1.115.46-1.205.994-1.362 2.7-1.426 3.406l-.003.026c-.048.516.018 1.032.128 1.534zm26 5.614c-.11 1.198-.027 2.182 1.014 2.295.119.013.2.12.188.244-.007.075-.047.146-.108.193-.982.756-2.488 1.205-3.79 1.205-1.697 0-2.34-.18-2.526-.718-1.021.472-2.63.716-3.952.592-2.84-.267-4.996-2.204-6.042-4.673l-.038-.114c-.017-.009-.025-.013-.03-.01-.005 0-.008.006-.014.015-.013.022-.039.064-.121.134-.134.137-.267.276-.4.415v.001c-.288.302-.577.604-.878.89-2.436 2.321-5.316 3.548-8.822 3.218-3.932-.37-6.557-3.942-6.732-7.696-.262-5.62 3.946-10.48 9.212-10.604 1.693-.04 3.29.457 4.747 1.585 1.857 1.437 2.377 3.38 1.428 5.397-.592 1.262-1.5 2.241-2.62 2.941-.862.538-1.76 1.015-2.657 1.493-.485.259-.97.517-1.45.785l-.115.064c-.143.078-.268.146-.501.304.183.332.358.447.527.559l.062.04c1.105.75 2.258.805 3.377.447 1.85-.592 3.254-1.734 4.327-3.254-.067-5.463 4.034-10.242 9.184-10.363.96 0 1.844.243 2.6.672.365-.176.765-.244 1.182-.275 1.117-.084 2.413-.084 3.275.062.076.007.313.046.385.061.431.088.556.336.516.769l-.183 1.99-.199 2.153-.093 1.006-.753 8.177zm19.19 2.294c-1.04-.113-1.123-1.098-1.013-2.296l.753-8.183.085-.918c.299-3.25-2.033-5.993-5.192-5.988-2.089.004-4.021 1.156-5.18 2.876l.017-.179c.137-1.493-.928-1.837-2.38-1.837h-1.13c-.765 0-1.485.096-1.994.186-.43.076-.774.452-.814.893l-.076.83c-.014.143.045.278.16.35.633.399 1.016 1.145.938 1.999l-.165 1.788-1.03 11.192c-.04.433.27.784.69.784h4.136c.421 0 .795-.351.835-.784l.977-10.62c.12-1.294 1.248-2.384 2.503-2.36 1.217.024 2.103 1.048 1.987 2.307l-.08.863-.667 7.256v.008c-.256 2.77-.318 3.476 2.931 3.476 1.082 0 2.303-.31 3.248-.85.17-.091.348-.207.542-.356.06-.047.1-.118.107-.192.012-.125-.069-.232-.188-.245zm13.745-4.308c.022-.106.134-.184.255-.184.072 0 .139.029.18.078.663.797.982 2.077.877 3.215-.253 2.742-1.932 2.838-4.477 2.842h-8.91l.001-.012c-.638-.084-1.083-.654-1.008-1.34l.157-1.258c.095-.871.332-2.85 1.763-4.587l4.86-6.48h-4.527c-.716 0-1.242-.595-1.174-1.33l.212-2.299c.035-.38.365-.689.736-.689l.863-.024c1.255-.037 1.955-.057 4.3-.057 2.704 0 3.686.027 5.415.075l.239.006v.003c.691.028 1.19.615 1.12 1.334l-.153 1.578c-.09.913-.44 1.806-1.007 2.564l-5.981 7.624h4.386c.954-.045 1.704-.266 1.873-1.06z" clip-rule="evenodd"/>
</svg>
