<svg xmlns="http://www.w3.org/2000/svg" width="119" height="83" fill="none" viewBox="0 0 119 83">
    <path fill="#fff" fill-rule="evenodd" d="M8.852 21.306c-.266.543-.572 1.417-.554 3.177v.009c.017 1.704.034 3.421 1.062 5.414.641 1.242 1.6 2.401 2.96 3.466 1.468 1.151 2.887 1.6 4.261 1.39.205-.112.32-.264.334-.547.109-2.14-.253-3.988-1.979-5.548-1.084-.981-2.352-2.956-2.973-5.312v-.001c-.287-1.085-.43-1.628-.357-2.09 0 0 .22-1.408-.03-1.852-.023-.04-.055-.07-.055-.07-.05-.045-.131-.08-.295-.085-.277.071-.666.205-1.068.47-.152.1-.803.549-1.306 1.579zm5.742 4.942c1.197 1.083 1.988 2.433 2.542 3.811.22.55.34 1.144.458 1.736.139.694.277 1.386.578 1.998.088.18.262.21.487.142.376-.275.93-.752 1.39-1.503.144-.236.782-1.32.828-3.24.107-4.505-3.163-8.535-4.775-9.389-.748-.396-1.516-.59-1.516-.59-.656-.165-1.211-.195-1.593-.19-.161.084-.292.21-.373.398-.356.825-.18 1.948-.045 2.814l.016.104c.216 1.394.828 2.846 2.003 3.91zm-2.848-11.093c1.148-.585 3.646-1.1 4.967-1.1 8.36 0 11.625 6.944 10.202 14.401 0 0-.62 2.435-1.86 4.47l-.082.155c-2.064 3.368-5.773 6.375-10.954 6.375-2.098 0-4.161-.268-5.363-.86-.665.772-1.878 1.032-4.266 1.032-1.79 0-3.386-.397-4.29-1.644-.056-.079-.108-.161-.099-.263.016-.17.154-.315.32-.333.736-.078 1.064-.745 1.213-1.452l.135-1.455c.003-.093.006-.17.01-.224l.011.001L4.287 6.315c.118-1.26-.497-2.36-1.507-2.95-.182-.105-.276-.305-.257-.516l.114-1.223C2.697.975 3.239.42 3.92.308 4.73.175 6.165 0 7.38 0h1.793c2.304 0 3.998.506 3.793 2.71l-.185 1.967c-.26 2.683-1.035 10.478-1.035 10.478zm46.878 14.857c.508 2.334 3.228 2.924 4.932 1.621 1.283-.98 1.428-2.554 2.096-9.823l.07-.766c.01-.1.025-.29-.073-.47-.376-.688-2.014-.48-2.059-.475 0 0-1.855.29-2.91 1.204-1.932 1.67-2.152 4.277-2.29 5.905-.105 1.253.034 1.889.212 2.703l.022.1zM36.53 26.577c.526 2.416 2.112 1.306 2.478.978.666-.597.989-1.273 1.15-1.638.577-1.303 1.521-3.436.786-5.423-.155-.419-.445-1.203-1.113-1.332-.616-.12-1.223.381-1.523.629-1.647 1.358-1.86 3.689-1.95 4.654l-.003.035c-.065.705.026 1.411.175 2.097zm35.529 7.671c-.151 1.637-.038 2.982 1.385 3.136.162.018.272.164.257.334-.01.102-.064.2-.148.263-1.341 1.033-3.399 1.647-5.179 1.647-2.318 0-3.196-.247-3.452-.98-1.394.644-3.594.978-5.399.808-3.88-.366-6.828-3.012-8.257-6.387l-.052-.155c-.023-.012-.034-.017-.042-.014-.006.002-.01.009-.018.022-.018.029-.053.087-.166.182-.182.188-.364.378-.545.568l-.001.001c-.394.413-.788.825-1.199 1.217-3.33 3.171-7.265 4.847-12.055 4.396-5.374-.506-8.96-5.387-9.2-10.516-.358-7.68 5.392-14.32 12.588-14.49 2.313-.054 4.497.625 6.486 2.165 2.538 1.964 3.249 4.62 1.953 7.376-.81 1.724-2.05 3.062-3.582 4.019-1.177.734-2.403 1.387-3.63 2.04-.662.353-1.325.706-1.98 1.072l-.157.087c-.196.107-.367.2-.686.416.25.454.489.611.72.764h.001l.084.056c1.51 1.023 3.086 1.098 4.615.609 2.528-.809 4.446-2.369 5.913-4.447-.092-7.465 5.511-13.994 12.55-14.16 1.312 0 2.519.332 3.552.918.499-.24 1.045-.333 1.615-.376 1.527-.114 3.297-.114 4.476.085.103.01.427.063.526.084.589.12.759.46.705 1.05l-.251 2.718-.271 2.944-.127 1.374-1.03 11.174zm26.222 3.135c-1.421-.155-1.535-1.5-1.384-3.138l1.03-11.182.115-1.253c.409-4.441-2.778-8.19-7.095-8.183-2.854.005-5.495 1.58-7.077 3.93l.022-.245c.188-2.04-1.268-2.51-3.252-2.51h-1.543c-1.046 0-2.03.13-2.726.254-.587.103-1.057.617-1.112 1.22l-.105 1.133c-.017.196.063.382.219.48.866.544 1.39 1.564 1.282 2.731l-.225 2.443-1.408 15.293c-.054.592.368 1.072.943 1.072h5.653c.575 0 1.085-.48 1.14-1.072l1.336-14.512c.162-1.768 1.705-3.257 3.42-3.223 1.662.032 2.873 1.431 2.715 3.152l-.108 1.179-.913 9.915-.001.007v.004c-.349 3.785-.433 4.75 4.007 4.75 1.477 0 3.146-.425 4.438-1.16.233-.126.475-.285.74-.488.082-.064.137-.161.147-.263.015-.17-.095-.316-.258-.334zm18.782-5.888c.031-.144.183-.251.349-.251.099 0 .19.04.246.107.906 1.09 1.342 2.838 1.199 4.393-.346 3.747-2.641 3.88-6.119 3.884h-12.174l.001-.016c-.873-.115-1.48-.894-1.378-1.831l.215-1.72c.13-1.19.453-3.893 2.409-6.268l6.64-8.853h-6.185c-.979 0-1.697-.814-1.604-1.818l.29-3.142c.048-.52.498-.941 1.005-.941l1.179-.034c1.715-.05 2.672-.078 5.876-.078 3.695 0 5.037.037 7.4.103l.326.009-.001.003c.946.039 1.629.84 1.533 1.823l-.21 2.156c-.122 1.249-.601 2.468-1.376 3.504l-8.174 10.418h5.994c1.304-.061 2.329-.363 2.559-1.448z" clip-rule="evenodd"/>
    <path fill="#fff" d="M2.801 70.116v-2.27h1.9c.207 0 .4.013.58.04.187.02.35.07.49.15.14.08.25.193.33.34.08.147.12.347.12.6 0 .38-.12.667-.36.86-.233.187-.62.28-1.16.28h-1.9zm-.95-3.07v7.14h3.45c.354 0 .664-.057.93-.17.274-.12.5-.273.68-.46.187-.193.327-.413.42-.66.094-.247.14-.5.14-.76 0-.44-.116-.813-.35-1.12-.233-.307-.57-.507-1.01-.6v-.02c.34-.133.6-.337.78-.61.187-.28.28-.61.28-.99 0-.36-.083-.663-.25-.91-.16-.247-.356-.44-.59-.58-.106-.067-.236-.117-.39-.15-.146-.033-.306-.057-.48-.07-.173-.02-.35-.03-.53-.03-.173-.007-.336-.01-.49-.01h-2.59zm.95 6.34v-2.47h2.17c.2 0 .394.02.58.06.187.033.35.097.49.19.147.087.264.207.35.36.087.153.13.347.13.58 0 .4-.12.713-.36.94-.233.227-.56.34-.98.34h-2.38zm8.846-2.12l2.73-4.22h-1.08l-2.09 3.4-2.14-3.4h-1.13l2.76 4.22v2.92h.95v-2.92zm7.268-1.15v-2.27h1.9c.206 0 .4.013.58.04.186.02.35.07.49.15.14.08.25.193.33.34.08.147.12.347.12.6 0 .38-.12.667-.36.86-.234.187-.62.28-1.16.28h-1.9zm-.95-3.07v7.14h3.45c.353 0 .663-.057.93-.17.273-.12.5-.273.68-.46.186-.193.326-.413.42-.66.093-.247.14-.5.14-.76 0-.44-.117-.813-.35-1.12-.234-.307-.57-.507-1.01-.6v-.02c.34-.133.6-.337.78-.61.186-.28.28-.61.28-.99 0-.36-.084-.663-.25-.91-.16-.247-.357-.44-.59-.58-.107-.067-.237-.117-.39-.15-.147-.033-.307-.057-.48-.07-.174-.02-.35-.03-.53-.03-.174-.007-.337-.01-.49-.01h-2.59zm.95 6.34v-2.47h2.17c.2 0 .393.02.58.06.186.033.35.097.49.19.146.087.263.207.35.36.086.153.13.347.13.58 0 .4-.12.713-.36.94-.234.227-.56.34-.98.34h-2.38zm5.895-6.34v7.14h.95v-3.05h2.32c.234 0 .42.037.56.11.14.067.254.16.34.28.087.113.15.25.19.41.04.153.074.317.1.49.034.173.054.35.06.53l.02.51c.007.153.02.293.04.42.027.127.074.227.14.3h1.06c-.1-.12-.176-.257-.23-.41-.046-.16-.083-.327-.11-.5-.026-.173-.043-.35-.05-.53-.006-.18-.016-.357-.03-.53-.02-.173-.05-.34-.09-.5-.033-.16-.09-.303-.17-.43-.073-.133-.176-.247-.31-.34-.126-.093-.293-.16-.5-.2v-.02c.434-.12.747-.343.94-.67.2-.327.3-.707.3-1.14 0-.58-.193-1.037-.58-1.37-.38-.333-.91-.5-1.59-.5h-3.36zm2.93 3.29h-1.98v-2.49h2.36c.447 0 .77.113.97.34.2.227.3.52.3.88 0 .26-.046.473-.14.64-.086.16-.206.29-.36.39-.146.093-.32.157-.52.19s-.41.05-.63.05zm3.916-3.29v7.14h4.96v-.8h-4.01v-2.47h3.71v-.8h-3.71v-2.27h3.98v-.8h-4.93zm8.923 7.14l2.54-7.14h-.99l-2.06 6.19h-.02l-2.04-6.19h-1.02l2.51 7.14h1.08zm3.343-7.14v7.14h.95v-7.14h-.95zm2.548 0v7.14h4.73v-.8h-3.78v-6.34h-.95zm5.557 0v7.14h4.73v-.8h-3.78v-6.34h-.95zm5.557 0v7.14h4.96v-.8h-4.01v-2.47h3.71v-.8h-3.71v-2.27h3.98v-.8h-4.93zM0 52.837H118.884V54.158H0z"/>
</svg>
