<svg width="243" height="29" viewBox="0 0 243 29" fill="none" xmlns="http://www.w3.org/2000/svg">
<path fill-rule="evenodd" clip-rule="evenodd" d="M11.3846 19.2009C10.8465 20.1616 9.64191 20.3658 8.42052 20.3658H7.54488V15.1272H9.18584C10.141 15.1272 10.9712 15.3813 11.4285 16.1197C11.8042 16.7257 11.894 18.29 11.3846 19.2009ZM7.54488 5.26417H9.40936C10.5249 5.26417 11.5007 6.10195 11.5007 7.43657C11.5007 9.14907 10.2948 9.69014 8.51977 9.69014H7.54488V5.26417ZM15.9506 12.3947C15.9506 12.3947 18.9463 10.7966 18.9463 6.59147C18.9463 1.54081 15.2001 0 11.5946 0H0V26.1686H11.4601C16.9543 26.1686 19.6915 23.1735 19.6915 18.6488C19.6915 13.1992 15.9506 12.3947 15.9506 12.3947ZM80.2876 26.1687H87.5003V3.13042H80.2876V26.1687ZM96.9158 26.1687H89.7269V3.13042H96.9158V26.1687ZM108.847 16.3905C108.847 16.3905 106.853 14.5233 104.679 16.3905C102.746 18.0364 104.286 20.1569 104.286 20.1569L108.847 16.3905ZM114.852 15.4699L106.574 22.3792C107.854 23.3286 109.986 22.7997 112.263 20.4463L114.836 23.3842C112.743 25.855 110.291 27 106.943 27C102.114 27 98.2568 23.4573 98.2568 19.0877C98.2568 14.7385 102.15 11.087 106.986 11.087C110.731 11.087 113.448 12.8332 114.852 15.4699ZM77.7609 7.26413C77.7609 9.05457 76.3025 10.487 74.4524 10.487C72.6847 10.487 71.2324 9.05457 71.2324 7.26413C71.2324 5.47369 72.6847 4.02624 74.4524 4.02624C76.3025 4.02624 77.7609 5.47369 77.7609 7.26413ZM70.9156 26.1687H78.0872V11.9775H70.9156V26.1687ZM59.3905 11.9262L61.6192 18.1633L63.8844 11.9761H69.8023L64.0476 26.1685H57.6737L52.056 11.9262H59.3905ZM41.3866 20.1562C41.3866 20.1562 39.8462 18.0337 41.8111 16.3902C43.9557 14.5235 45.9412 16.3902 45.9412 16.3902L41.3866 20.1562ZM44.053 11.0867C39.2617 11.0867 35.3248 14.7382 35.3248 19.0874C35.3248 23.4554 39.222 26.9985 44.0382 26.9985C47.4214 26.9985 49.8531 25.8551 51.9399 23.3811L49.4077 20.4464C47.0753 22.7982 44.9602 23.3283 43.6908 22.3793L52.0002 15.4696C50.5635 12.8333 47.8558 11.0867 44.053 11.0867ZM34.7547 15.3584C34.7547 17.1493 33.2966 18.5817 31.4453 18.5817C30.0623 18.5817 28.8729 17.7045 28.4209 16.4653C28.4209 16.4653 28.3553 16.5607 28.3274 16.6395C28.3073 16.6865 28.3073 16.7819 28.3073 16.7819V26.1685H21.127V11.9452H28.3073V13.8196C28.3073 13.9142 28.3274 13.9767 28.3934 14.0936C28.4467 14.1866 28.4574 14.1484 28.4574 14.1484L28.4636 14.1395C28.9442 12.9551 30.1041 12.1213 31.4453 12.1213C33.2966 12.1213 34.7547 13.5688 34.7547 15.3584ZM116.442 11.5509H116.249V10.9928C116.296 10.9859 116.356 10.979 116.442 10.979C116.741 10.979 116.846 11.1235 116.846 11.2676C116.846 11.4714 116.661 11.5509 116.442 11.5509ZM115.985 12.4618H116.249V11.7539H116.435C116.649 11.7539 116.753 11.8318 116.793 12.0413C116.826 12.2588 116.866 12.409 116.906 12.4618H117.186C117.156 12.409 117.119 12.3108 117.078 12.0546C117.046 11.8115 116.948 11.6812 116.799 11.6548V11.6414C116.98 11.5899 117.124 11.4588 117.124 11.2424C117.124 11.0841 117.071 10.9721 116.972 10.8999C116.873 10.8292 116.707 10.7761 116.454 10.7761C116.262 10.7761 116.129 10.7952 115.994 10.8146L115.985 10.8158V12.4618ZM115.335 11.6023C115.335 10.9139 115.873 10.3562 116.528 10.3562H116.535C117.198 10.3562 117.728 10.9139 117.728 11.6092C117.728 12.3053 117.198 12.8618 116.535 12.8553C115.873 12.8553 115.335 12.3053 115.335 11.6023ZM118 11.6021C118 10.7821 117.35 10.127 116.535 10.127H116.528C115.711 10.127 115.049 10.7821 115.049 11.6021C115.049 12.4346 115.711 13.084 116.528 13.084C117.35 13.084 118 12.4346 118 11.6021Z" fill="white"/>
<path d="M136.519 19.472L132.055 26H135.871L138.463 22.088L141.055 26H144.943L140.359 19.4L144.439 13.592H140.671L138.511 16.832L136.327 13.592H132.439L136.519 19.472Z" fill="white"/>
<path fill-rule="evenodd" clip-rule="evenodd" d="M168.031 14.5166C167.85 14.8868 167.642 15.4818 167.654 16.6811L167.654 16.6871C167.665 17.8486 167.677 19.0184 168.378 20.3761C168.814 21.2219 169.467 22.012 170.394 22.7378C171.395 23.5218 172.361 23.8273 173.297 23.6847C173.437 23.6082 173.515 23.505 173.525 23.3121C173.599 21.8536 173.352 20.5951 172.176 19.5317C171.438 18.8634 170.574 17.5179 170.151 15.9127L170.15 15.9118C169.955 15.1727 169.858 14.803 169.907 14.4883C169.907 14.4883 170.058 13.5285 169.887 13.226C169.872 13.1986 169.85 13.1781 169.85 13.1781C169.816 13.1478 169.76 13.1233 169.648 13.1207C169.46 13.1692 169.195 13.2599 168.921 13.4408C168.817 13.5095 168.374 13.8147 168.031 14.5166ZM171.944 17.8841C172.759 18.6215 173.298 19.5415 173.676 20.4806C173.826 20.8545 173.907 21.2596 173.988 21.6635C174.082 22.1363 174.176 22.6074 174.381 23.0244C174.441 23.1466 174.56 23.1673 174.713 23.121C174.969 22.934 175.346 22.6088 175.66 22.0973C175.758 21.9362 176.193 21.1979 176.224 19.8896C176.297 16.82 174.069 14.0746 172.971 13.4928C172.462 13.2228 171.938 13.0907 171.938 13.0907C171.491 12.978 171.113 12.958 170.852 12.9614C170.743 13.018 170.654 13.1041 170.599 13.2321C170.356 13.7944 170.476 14.5595 170.568 15.1498L170.579 15.2206C170.726 16.1701 171.143 17.1596 171.944 17.8841ZM170.003 10.3259C170.785 9.92715 172.487 9.57628 173.387 9.57628C179.083 9.57628 181.308 14.3071 180.338 19.3884C180.338 19.3884 179.916 21.0474 179.071 22.4334L179.015 22.5391C177.609 24.8339 175.081 26.8827 171.552 26.8827C170.122 26.8827 168.716 26.7001 167.898 26.2965C167.444 26.8232 166.618 27 164.991 27C163.771 27 162.684 26.7296 162.068 25.8796C162.03 25.8263 161.994 25.7702 162.001 25.7008C162.012 25.5852 162.105 25.4859 162.219 25.4738C162.721 25.4209 162.943 24.9662 163.045 24.4845L163.137 23.4931C163.139 23.4297 163.141 23.3772 163.145 23.3409L163.152 23.3414L164.921 4.30265C165.001 3.4439 164.582 2.69413 163.894 2.2933C163.77 2.22129 163.706 2.08497 163.719 1.94096L163.796 1.10788C163.838 0.664207 164.207 0.28621 164.671 0.20991C165.222 0.119367 166.201 0 167.028 0H168.25C169.82 0 170.974 0.34465 170.834 1.8459L170.708 3.18652C170.531 5.01489 170.003 10.3259 170.003 10.3259ZM201.943 20.4482C202.289 22.0384 204.142 22.4408 205.303 21.5528C206.177 20.8844 206.276 19.8127 206.731 14.8601L206.779 14.3382C206.786 14.2697 206.796 14.1399 206.729 14.0176C206.473 13.5492 205.357 13.6904 205.327 13.6943L205.326 13.6943C205.326 13.6943 204.063 13.8921 203.343 14.5143C202.027 15.6522 201.877 17.4285 201.784 18.5382C201.712 19.3913 201.807 19.8246 201.928 20.3797L201.943 20.4482ZM186.889 18.1077C187.248 19.754 188.328 18.9978 188.577 18.7743C189.031 18.3672 189.251 17.9067 189.361 17.6582L189.361 17.6578C189.754 16.7704 190.398 15.3172 189.897 13.9635L189.897 13.9632C189.791 13.678 189.594 13.144 189.139 13.0557C188.719 12.9742 188.305 13.3156 188.101 13.4841C186.979 14.4098 186.833 15.9977 186.772 16.6549V16.6549V16.655L186.77 16.6791C186.726 17.1595 186.787 17.6405 186.889 18.1077ZM211.096 23.3347C210.994 24.4497 211.071 25.3661 212.04 25.4714C212.151 25.4834 212.226 25.5829 212.215 25.6988C212.209 25.7683 212.171 25.8344 212.115 25.8779C211.201 26.5817 209.799 27 208.586 27C207.006 27 206.408 26.8316 206.234 26.3317C205.284 26.7714 203.785 26.9985 202.555 26.8827C199.912 26.6337 197.903 24.8304 196.929 22.5315L196.894 22.4256C196.878 22.4174 196.871 22.4138 196.866 22.4157C196.862 22.4171 196.859 22.422 196.853 22.4308C196.841 22.4506 196.817 22.4903 196.74 22.555C196.615 22.6833 196.492 22.813 196.368 22.9427L196.368 22.9427C196.1 23.2237 195.831 23.5046 195.551 23.7717C193.282 25.9325 190.601 27.0746 187.337 26.7671C183.676 26.4223 181.233 23.097 181.07 19.602C180.826 14.3693 184.743 9.84485 189.646 9.72969C191.222 9.69255 192.71 10.1552 194.065 11.2046C195.794 12.5428 196.279 14.352 195.396 16.23C194.844 17.4047 194 18.3163 192.955 18.9681C192.153 19.4685 191.318 19.9135 190.482 20.3585C190.031 20.599 189.579 20.8396 189.133 21.0889C189.106 21.1039 189.081 21.1178 189.056 21.1311C189.046 21.1368 189.036 21.1424 189.026 21.148L189.025 21.148C188.892 21.2208 188.776 21.2846 188.558 21.4313C188.729 21.7405 188.892 21.8478 189.05 21.9518C189.069 21.9645 189.088 21.977 189.107 21.9899C190.136 22.6869 191.209 22.7384 192.251 22.4051C193.974 21.8539 195.281 20.7911 196.28 19.3755C196.218 14.2894 200.035 9.84032 204.83 9.72754C205.725 9.72754 206.547 9.95355 207.251 10.353V10.3529C207.591 10.189 207.963 10.126 208.351 10.0969C209.392 10.0188 210.598 10.0188 211.401 10.1544C211.471 10.1612 211.692 10.1978 211.759 10.2116C212.161 10.2938 212.277 10.5247 212.239 10.9274L212.069 12.7794L211.884 14.7851L211.798 15.7213L211.096 23.3347ZM228.963 25.4704C227.994 25.365 227.917 24.4481 228.02 23.3324L228.721 15.7138L228.799 14.8597C229.078 11.834 226.907 9.27991 223.966 9.28466C222.021 9.28796 220.222 10.3605 219.144 11.9617L219.159 11.7956C219.287 10.4048 218.295 10.0854 216.943 10.0854H215.891C215.179 10.0854 214.509 10.174 214.034 10.2581C213.634 10.3287 213.314 10.6788 213.277 11.0898L213.206 11.8616C213.193 11.995 213.248 12.1213 213.354 12.1879C213.945 12.5594 214.301 13.2539 214.228 14.0493L214.075 15.7138L213.115 26.1337C213.079 26.5369 213.366 26.8638 213.758 26.8638H217.609C218.001 26.8638 218.349 26.5369 218.386 26.1337L219.296 16.246C219.407 15.0416 220.458 14.027 221.627 14.0498C222.759 14.0719 223.584 15.025 223.476 16.1975L223.402 17.0008L222.781 23.7559H222.78L222.78 23.7606L222.78 23.7636C222.543 26.3423 222.485 27 225.51 27C226.517 27 227.654 26.7105 228.534 26.2092C228.693 26.1239 228.858 26.0158 229.038 25.8772C229.094 25.8335 229.132 25.7674 229.138 25.698C229.149 25.582 229.074 25.4824 228.963 25.4704ZM241.76 21.459C241.78 21.3609 241.884 21.2876 241.997 21.2876C242.065 21.2876 242.127 21.3147 242.165 21.3607C242.782 22.1027 243.079 23.2942 242.982 24.3538C242.746 26.9068 241.182 26.9967 238.813 26.9998L238.813 27H232.36H230.67H230.518L230.519 26.9891C229.924 26.9111 229.51 26.38 229.58 25.7413L229.727 24.5696C229.815 23.7587 230.035 21.917 231.367 20.299L235.892 14.2669H231.678C231.011 14.2669 230.522 13.7125 230.585 13.0285L230.782 10.8875C230.815 10.5334 231.121 10.2463 231.467 10.2463C231.768 10.2381 232.03 10.2305 232.27 10.2235C233.439 10.1894 234.091 10.1704 236.274 10.1704C238.792 10.1704 239.706 10.1957 241.316 10.2402L241.538 10.2463L241.538 10.2488C242.182 10.2752 242.647 10.8212 242.582 11.4907L242.438 12.9597C242.355 13.8104 242.029 14.6411 241.501 15.3469L235.932 22.4456H240.016C240.904 22.4034 241.603 22.198 241.76 21.459Z" fill="white"/>
</svg>
