<svg xmlns="http://www.w3.org/2000/svg" width="243" height="28" fill="none" viewBox="0 0 243 28">
    <path fill="#fff" fill-rule="evenodd" d="M11.385 19.2c-.538.962-1.743 1.166-2.964 1.166h-.876v-5.239h1.64c.956 0 1.786.254 2.243.993.376.606.466 2.17-.043 3.08zM7.545 5.265h1.864c1.116 0 2.092.838 2.092 2.173 0 1.712-1.206 2.253-2.981 2.253h-.975V5.264zm8.406 7.13s2.995-1.597 2.995-5.803C18.946 1.541 15.2 0 11.595 0H0v26.169h11.46c5.494 0 8.232-2.995 8.232-7.52 0-5.45-3.741-6.254-3.741-6.254zM80.288 26.17H87.5V3.13h-7.212V26.17zm16.628 0h-7.19V3.13h7.19V26.17zm11.931-9.779s-1.994-1.867-4.168 0c-1.933 1.646-.393 3.767-.393 3.767l4.561-3.767zm6.005-.92l-8.278 6.91c1.28.949 3.412.42 5.689-1.934l2.573 2.938c-2.093 2.471-4.545 3.616-7.893 3.616-4.829 0-8.686-3.543-8.686-7.912 0-4.35 3.893-8.001 8.729-8.001 3.745 0 6.462 1.746 7.866 4.383zM77.761 7.264c0 1.79-1.459 3.223-3.309 3.223-1.767 0-3.22-1.432-3.22-3.223 0-1.79 1.453-3.238 3.22-3.238 1.85 0 3.309 1.448 3.309 3.238zM70.916 26.17h7.171V11.977h-7.171V26.17zM59.39 11.926l2.228 6.237 2.265-6.187h5.918L64.048 26.17h-6.374l-5.618-14.243h7.335zm-18.004 8.23s-1.54-2.122.424-3.766c2.145-1.867 4.13 0 4.13 0l-4.554 3.766zm2.666-9.07c-4.791 0-8.728 3.652-8.728 8.001 0 4.368 3.897 7.912 8.713 7.912 3.383 0 5.815-1.144 7.902-3.618l-2.532-2.935c-2.333 2.352-4.448 2.882-5.717 1.933L52 15.47c-1.438-2.636-4.145-4.382-7.948-4.382zm-9.298 4.272c0 1.791-1.458 3.224-3.31 3.224-1.383 0-2.572-.878-3.024-2.117 0 0-.066.096-.094.175-.02.046-.02.142-.02.142v9.387h-7.18V11.945h7.18v1.875c0 .094.02.157.086.274.054.093.064.054.064.054l.007-.008c.48-1.185 1.64-2.019 2.981-2.019 1.852 0 3.31 1.448 3.31 3.237zm81.687-3.807h-.193v-.558c.047-.007.107-.014.193-.014.299 0 .404.145.404.289 0 .203-.185.283-.404.283zm-.457.91h.264v-.707h.186c.214 0 .318.078.358.287.033.218.073.368.113.42h.28c-.03-.052-.067-.15-.108-.406-.032-.243-.13-.374-.279-.4v-.014c.181-.051.325-.182.325-.399 0-.158-.053-.27-.152-.342-.099-.07-.265-.124-.518-.124-.192 0-.325.02-.46.039h-.009v1.647zm-.65-.859c0-.688.538-1.246 1.193-1.246h.007c.663 0 1.193.558 1.193 1.253 0 .696-.53 1.253-1.193 1.246-.662 0-1.2-.55-1.2-1.253zm2.665 0c0-.82-.65-1.475-1.465-1.475h-.007c-.817 0-1.479.655-1.479 1.475 0 .833.662 1.482 1.479 1.482.822 0 1.472-.65 1.472-1.482z" clip-rule="evenodd"/>
    <path fill="#fff" d="M148.997 18.06v-2.7h-6.36V18h1.77c-.33.99-.75 1.92-1.29 2.76-1.14-1.02-3.72-3.36-3.72-3.36-.48-.42-.9-.84-1.29-1.2 2.85-1.44 4.62-3.03 4.62-5.64 0-2.85-2.28-4.77-5.64-4.77-3.69 0-5.73 2.7-5.73 5.1 0 1.38.33 2.7 2.16 4.8-2.58 1.29-4.35 3.3-4.35 5.94 0 3.21 2.55 5.7 7.38 5.7 2.61 0 4.98-.99 6.75-2.7l3.21 2.76 1.86-2.13c-.06-.03-1.98-1.68-3.21-2.76.81-1.26 1.41-2.76 1.92-4.44h1.92zm-14.37-7.11c0-1.29.96-2.61 2.46-2.61 1.47 0 2.34 1.02 2.34 2.22 0 1.89-1.14 3-3.06 4.02-1.53-1.74-1.74-2.79-1.74-3.63zm1.92 13.62c-2.61 0-4.05-1.65-4.05-3.18 0-1.77 1.11-3.09 2.79-4.05.63.63 1.29 1.29 2.16 2.04 0 0 2.55 2.34 3.75 3.45-1.32 1.11-2.85 1.74-4.65 1.74z"/>
    <path fill="#fff" fill-rule="evenodd" d="M168.031 14.517c-.181.37-.389.965-.377 2.164v.006c.011 1.162.023 2.331.724 3.69.436.845 1.089 1.635 2.016 2.36 1.001.785 1.967 1.09 2.903.948.14-.077.218-.18.228-.373.074-1.458-.173-2.717-1.349-3.78-.738-.669-1.602-2.014-2.025-3.62h-.001c-.195-.74-.292-1.109-.243-1.424 0 0 .151-.96-.02-1.262-.015-.027-.037-.048-.037-.048-.034-.03-.09-.055-.202-.057-.188.048-.453.139-.727.32-.104.068-.547.374-.89 1.076zm3.913 3.367c.815.738 1.354 1.657 1.732 2.597.15.373.231.779.312 1.182.094.473.188.944.393 1.361.06.123.179.143.332.097.256-.187.633-.512.947-1.024.098-.16.533-.9.564-2.207.073-3.07-2.155-5.815-3.253-6.397-.509-.27-1.033-.402-1.033-.402-.447-.113-.825-.133-1.086-.13-.109.057-.198.143-.253.271-.243.562-.123 1.328-.031 1.918l.011.07c.147.95.564 1.94 1.365 2.664zm-1.941-7.558c.782-.399 2.484-.75 3.384-.75 5.696 0 7.921 4.731 6.951 9.812 0 0-.422 1.66-1.267 3.045l-.056.106c-1.406 2.295-3.934 4.344-7.463 4.344-1.43 0-2.836-.183-3.654-.586-.454.526-1.28.703-2.907.703-1.22 0-2.307-.27-2.923-1.12-.038-.054-.074-.11-.067-.18.011-.115.104-.214.218-.226.502-.053.724-.508.826-.99l.092-.99c.002-.064.004-.117.008-.153h.007l1.769-19.038c.08-.86-.339-1.609-1.027-2.01-.124-.072-.188-.208-.175-.352l.077-.833c.042-.444.411-.822.875-.898.551-.09 1.53-.21 2.357-.21h1.222c1.57 0 2.724.345 2.584 1.846l-.126 1.34c-.177 1.829-.705 7.14-.705 7.14zm31.94 10.122c.346 1.59 2.199 1.993 3.36 1.105.874-.669.973-1.74 1.428-6.693l.048-.522c.007-.068.017-.198-.05-.32-.256-.469-1.372-.328-1.402-.324h-.001s-1.263.198-1.983.82c-1.316 1.138-1.466 2.915-1.559 4.024-.072.853.023 1.287.144 1.842l.015.068zm-15.054-2.34c.359 1.646 1.439.89 1.688.666.454-.407.674-.867.784-1.116.393-.888 1.037-2.34.536-3.695-.106-.285-.303-.819-.758-.907-.42-.082-.834.26-1.038.428-1.122.926-1.268 2.514-1.329 3.17v.001l-.002.024c-.044.48.017.962.119 1.429zm24.207 5.227c-.102 1.115-.025 2.031.944 2.136.111.012.186.112.175.228-.006.07-.044.135-.1.179-.914.704-2.316 1.122-3.529 1.122-1.58 0-2.178-.168-2.352-.668-.95.44-2.449.666-3.679.55-2.643-.248-4.652-2.052-5.626-4.35l-.035-.106c-.016-.009-.023-.012-.028-.01-.004.001-.007.006-.013.015-.012.02-.036.06-.113.124-.125.128-.248.258-.372.388-.268.28-.537.562-.817.829-2.269 2.16-4.95 3.303-8.214 2.995-3.661-.345-6.104-3.67-6.267-7.165-.244-5.233 3.673-9.757 8.576-9.872 1.576-.037 3.064.425 4.419 1.475 1.729 1.338 2.214 3.147 1.331 5.025-.552 1.175-1.396 2.086-2.441 2.738-.802.5-1.637.945-2.473 1.39-.451.241-.903.482-1.349.73l-.077.043-.03.017h-.001c-.133.073-.249.137-.467.283.171.31.334.417.492.52l.057.039c1.029.697 2.102.748 3.144.415 1.723-.551 3.03-1.614 4.029-3.03-.062-5.086 3.755-9.535 8.55-9.647.895 0 1.717.226 2.421.625.34-.164.712-.227 1.1-.256 1.041-.078 2.247-.078 3.05.057.07.007.291.044.358.058.402.082.518.313.48.715l-.17 1.852-.185 2.006-.086.936-.702 7.614zm17.867 2.135c-.969-.105-1.046-1.022-.943-2.138l.701-7.618.078-.854c.279-3.026-1.892-5.58-4.833-5.575-1.945.003-3.744 1.075-4.822 2.677l.015-.166c.128-1.391-.864-1.71-2.216-1.71h-1.052c-.712 0-1.382.088-1.857.172-.4.07-.72.42-.757.832l-.071.772c-.013.133.042.26.148.326.591.371.947 1.066.874 1.861l-.153 1.665-.96 10.42c-.036.403.251.73.643.73h3.851c.392 0 .74-.327.777-.73l.91-9.888c.111-1.204 1.162-2.219 2.331-2.196 1.132.022 1.957.975 1.849 2.148l-.074.803-.621 6.755h-.001v.008c-.237 2.578-.295 3.236 2.73 3.236 1.007 0 2.144-.29 3.024-.79.159-.086.324-.194.504-.333.056-.043.094-.11.1-.179.011-.116-.064-.216-.175-.228zm12.797-4.011c.02-.098.124-.171.237-.171.068 0 .13.027.168.073.617.742.914 1.933.817 2.993-.236 2.553-1.8 2.643-4.169 2.646h-8.295l.001-.01c-.595-.079-1.009-.61-.939-1.249l.147-1.171c.088-.811.308-2.653 1.64-4.271l4.525-6.032h-4.214c-.667 0-1.156-.554-1.093-1.239l.197-2.14c.033-.355.339-.642.685-.642l.803-.023c1.169-.034 1.821-.053 4.004-.053 2.518 0 3.432.026 5.042.07l.222.006v.003c.644.026 1.109.572 1.044 1.242l-.144 1.469c-.083.85-.409 1.681-.937 2.387l-5.569 7.099h4.084c.888-.043 1.587-.248 1.744-.987z" clip-rule="evenodd"/>
</svg>
