<svg xmlns="http://www.w3.org/2000/svg" width="43" height="33" fill="none" viewBox="0 0 43 33">
    <path fill="#313638" fill-rule="evenodd" d="M28.907 30.171V31H14.093v-2h14.814v1.171zM29.072 27l.186-.27 9.056-13.203V6.589l1.32-.477c.445-.161.83-.48 1.078-.913.25-.433.342-.947.258-1.449-.085-.501-.339-.948-.707-1.265C39.896 2.17 39.438 2 38.97 2H4.03c-.467 0-.926.169-1.293.485-.368.317-.622.764-.707 1.265-.084.502.009 1.016.258 1.449.248.432.633.752 1.078.913l1.32.477v6.938l9.056 13.202.186.271h15.144zm4.523 6s-.085-1.292-.239-2c-.046-.21-.097-.368-.155-.427-.252-.257-.594-.402-.95-.402h-1.344v-2.31l9.164-13.36c.158-.23.243-.505.243-.787V7.993c.896-.324 1.651-.96 2.132-1.798.481-.837.657-1.82.496-2.777-.16-.956-.648-1.823-1.374-2.449C40.84.344 39.92 0 38.97 0H4.03c-.95 0-1.87.344-2.598.97C.706 1.594.22 2.461.058 3.418c-.16.956.015 1.94.496 2.776.48.837 1.236 1.474 2.132 1.798v5.721c0 .282.085.556.243.787l9.164 13.36v2.31H10.75c-.356 0-.698.145-.95.402-.058.059-.11.217-.155.427-.154.708-.239 2-.239 2H33.595zM9 6c0-.552.448-1 1-1h24c.552 0 1 .448 1 1s-.448 1-1 1H10c-.552 0-1-.448-1-1zm12.58 8.02c1.172-1.42 2.672-2.41 4.318-2.849 1.407-.443 2.91-.012 3.983 1.14.984 1.256 1.35 3.012.973 4.656-.375 1.923-1.22 3.677-2.434 5.046-1.172 1.42-2.672 2.411-4.317 2.85-.378.09-.763.134-1.149.135-1.053.04-2.076-.42-2.835-1.276-.984-1.255-1.35-3.011-.973-4.656.375-1.922 1.22-3.676 2.434-5.045zm.979 1.146c-1.022 1.144-1.738 2.612-2.06 4.223-.142.721-.118 1.473.067 2.18.372-.334.775-.619 1.2-.85.576-.302 1.096-.733 1.532-1.268.457-.509.826-1.117 1.084-1.79.685-1.657 1.828-2.994 3.245-3.794.35-.187.679-.42.982-.695-.464-.358-1.011-.541-1.567-.524-.292.002-.583.037-.868.105-1.38.378-2.636 1.216-3.615 2.412zm4.882 5.702c1.022-1.145 1.738-2.612 2.06-4.223.142-.721.118-1.473-.067-2.18-.371.334-.773.619-1.198.85-1.143.643-2.065 1.72-2.615 3.058-.327.832-.785 1.584-1.35 2.218-.543.659-1.186 1.193-1.897 1.575-.351.187-.682.422-.987.7.731.518 1.612.668 2.44.415 1.379-.378 2.635-1.216 3.614-2.413z" clip-rule="evenodd"/>
</svg>
