<?xml version="1.0" encoding="utf-8"?>
<!-- Generator: Adobe Illustrator 25.2.3, SVG Export Plug-In . SVG Version: 6.00 Build 0)  -->
<svg version="1.1" id="Layer_1" xmlns="http://www.w3.org/2000/svg" xmlns:xlink="http://www.w3.org/1999/xlink" x="0px" y="0px"
	 viewBox="0 0 24 24" style="enable-background: new 0 0 24 24;" xml:space="preserve"  width="21" height="21">
<style type="text/css">
  .st0 {fill-rule: evenodd;
    clip-rule: evenodd;
    fill: #313638;}
</style>
<path class="st0" d="M21.7,0H6.9C6.3,0,5.7,0.2,5.3,0.7c-0.4,0.4-0.7,1-0.7,1.6v4.3H2.3c-0.6,0-1.2,0.2-1.6,0.7C0.2,7.7,0,8.3,0,8.9
	v14.5c0,0.1,0,0.2,0.1,0.3c0.1,0.1,0.1,0.2,0.2,0.2S0.5,24,0.6,24c0.1,0,0.2-0.1,0.3-0.1l4.9-3.9h11.3c0.6,0,1.2-0.2,1.6-0.7
	c0.4-0.4,0.7-1,0.7-1.6v-3.3l3.6,2.9c0.1,0.1,0.2,0.1,0.4,0.1c0.1,0,0.2,0,0.2-0.1c0.1,0,0.2-0.1,0.2-0.2C24,17,24,16.9,24,16.8V2.3
	c0-0.6-0.2-1.2-0.7-1.6C22.9,0.2,22.3,0,21.7,0z M18.3,17.6c0,0.3-0.1,0.6-0.3,0.8c-0.2,0.2-0.5,0.3-0.8,0.3H5.6
	c-0.1,0-0.3,0-0.4,0.1l-4.1,3.3V8.9c0-0.3,0.1-0.6,0.3-0.8C1.7,7.9,2,7.7,2.3,7.7h14.8c0.3,0,0.6,0.1,0.8,0.3
	c0.2,0.2,0.3,0.5,0.3,0.8V17.6z M22.9,15.6l-3.4-2.7v-4c0-0.6-0.2-1.2-0.7-1.6c-0.4-0.4-1-0.7-1.6-0.7H5.7V2.3
	c0-0.3,0.1-0.6,0.3-0.8c0.2-0.2,0.5-0.3,0.8-0.3h14.8c0.3,0,0.6,0.1,0.8,0.3c0.2,0.2,0.3,0.5,0.3,0.8V15.6z M14.3,10.3H5.1
	c-0.2,0-0.3,0.1-0.4,0.2c-0.1,0.1-0.2,0.3-0.2,0.4c0,0.2,0.1,0.3,0.2,0.4c0.1,0.1,0.3,0.2,0.4,0.2h9.1c0.2,0,0.3-0.1,0.4-0.2
	c0.1-0.1,0.2-0.3,0.2-0.4c0-0.2-0.1-0.3-0.2-0.4C14.6,10.3,14.4,10.3,14.3,10.3z M5.1,13.7h4.6c0.2,0,0.3,0.1,0.4,0.2
	c0.1,0.1,0.2,0.3,0.2,0.4c0,0.2-0.1,0.3-0.2,0.4c-0.1,0.1-0.3,0.2-0.4,0.2H5.1c-0.2,0-0.3-0.1-0.4-0.2c-0.1-0.1-0.2-0.3-0.2-0.4
	c0-0.2,0.1-0.3,0.2-0.4C4.8,13.8,5,13.7,5.1,13.7z"/>
</svg>
