<svg width="18" height="18" viewBox="0 0 18 18" fill="none" xmlns="http://www.w3.org/2000/svg">
<path d="M9.00007 0C7.22004 0 5.47987 0.527852 3.99983 1.51678C2.51978 2.50572 1.36632 3.91131 0.685129 5.55585C0.00394052 7.20038 -0.174345 9.00997 0.172922 10.7558C0.520189 12.5016 1.37738 14.1053 2.63606 15.364C3.89473 16.6226 5.49838 17.4798 7.24421 17.8271C8.99004 18.1744 10.7996 17.9961 12.4442 17.3149C14.0887 16.6338 15.4943 15.4802 16.4832 14.0001C17.4722 12.5201 18.0001 10.78 18.0001 9C18.0001 6.61305 17.0518 4.32387 15.364 2.63605C13.6761 0.94822 11.387 0 9.00007 0ZM9.00007 1.79999C10.4241 1.79999 11.816 2.22228 13.0001 3.01343C14.1841 3.80457 15.107 4.92906 15.6519 6.24469C16.1969 7.56032 16.3395 9.008 16.0617 10.4047C15.7839 11.8013 15.0981 13.0842 14.0911 14.0912C13.0842 15.0981 11.8013 15.7838 10.4046 16.0616C9.00795 16.3395 7.56033 16.1969 6.2447 15.6519C4.92907 15.107 3.80452 14.1842 3.01338 13.0001C2.22223 11.8161 1.8 10.424 1.8 9C1.80528 7.09206 2.5655 5.26379 3.91462 3.91467C5.26374 2.56555 7.09213 1.80527 9.00007 1.79999ZM9.00007 3.59998C9.21802 3.618 9.42394 3.70704 9.5865 3.85333C9.74905 3.99963 9.85917 4.19518 9.89997 4.41003V8.19L12.2401 10.08C12.4163 10.2134 12.5336 10.4101 12.5672 10.6285C12.6008 10.847 12.548 11.0698 12.42 11.25L12.33 11.34C12.1967 11.5162 11.9999 11.6336 11.7814 11.6672C11.563 11.7008 11.3401 11.648 11.16 11.52L11.07 11.43L8.37007 9.27002C8.21967 9.11225 8.09775 8.92949 8.00996 8.72998V4.5C8.03466 4.25419 8.14955 4.02623 8.33235 3.86005C8.51515 3.69387 8.75303 3.60121 9.00007 3.59998Z" fill="#313638"/>
</svg>
