<svg xmlns="http://www.w3.org/2000/svg" width="18" height="26" fill="none" viewBox="0 0 71 101">
    <path fill="#313638" fill-rule="evenodd" d="M63.444 11.379l5.444 10.972c.81 1.636 1.232 3.439 1.234 5.267v71.637c0 .929-.748 1.682-1.67 1.682H1.67c-.922 0-1.67-.753-1.67-1.682V27.618c.002-1.828.424-3.631 1.234-5.267l5.444-10.972V1.682C6.678.753 7.426 0 8.348 0h53.426c.922 0 1.67.753 1.67 1.682v9.697zm-3.34-8.014H41.74v6.729h18.365v-6.73zm-28.51 9.05c-.006.021-.012.04-.018.05-.005.01-.007.021-.01.032-.003.01-.006.02-.011.031l-5.63 11.327c-.578 1.169-.88 2.457-.881 3.763v12.757h6.678V27.618c.001-1.828.424-3.631 1.234-5.267L38.4 11.379l.008-8.014H31.73v8.42c0 .011-.003.022-.007.032-.003.01-.006.021-.006.033-.008.173-.043.343-.102.505l-.02.06zm-3.211-9.05H10.017v6.729h18.366v-6.73zm25.043 94.208V27.618c.002-1.828.424-3.631 1.234-5.267l4.413-8.893H41.1l-5.159 10.397c-.578 1.169-.879 2.457-.881 3.763v14.44c0 .928-.748 1.681-1.67 1.681H23.374c-.922 0-1.67-.753-1.67-1.682V27.618c.002-1.828.424-3.631 1.234-5.267l4.413-8.893H9.38L4.22 23.855c-.577 1.169-.879 2.457-.88 3.763v69.955h50.086zm3.34 0h10.017V27.618c-.002-1.306-.304-2.594-.882-3.763l-4.127-8.317-4.127 8.317c-.578 1.169-.88 2.457-.882 3.763v69.955zM20.111 60.646c2.833-2.96 6.462-5.024 10.441-5.938 3.404-.923 7.04-.026 9.635 2.377 2.38 2.616 3.266 6.275 2.353 9.702-.907 4.006-2.952 7.66-5.887 10.514-2.833 2.96-6.462 5.024-10.442 5.938-.913.186-1.844.28-2.776.281-2.549.084-5.022-.875-6.859-2.658-2.378-2.616-3.266-6.275-2.352-9.701.907-4.007 2.952-7.661 5.887-10.515zm2.367 2.386c-2.471 2.385-4.202 5.443-4.982 8.802-.342 1.501-.286 3.068.162 4.542.9-.696 1.874-1.29 2.904-1.77 1.393-.631 2.65-1.53 3.703-2.645 1.107-1.06 1.998-2.326 2.623-3.73 1.655-3.452 4.42-6.238 7.847-7.906.844-.388 1.642-.874 2.375-1.447-1.122-.747-2.445-1.129-3.79-1.092-.705.004-1.408.077-2.1.219-3.336.786-6.373 2.532-8.742 5.027zm11.807 11.883c2.472-2.385 4.203-5.443 4.983-8.801.342-1.502.286-3.069-.163-4.543-.898.697-1.869 1.29-2.896 1.772-2.765 1.34-4.995 3.586-6.325 6.373-.79 1.733-1.899 3.3-3.267 4.62-1.311 1.374-2.867 2.488-4.586 3.283-.85.391-1.65.88-2.388 1.458 1.77 1.082 3.899 1.393 5.9.865 3.337-.786 6.374-2.532 8.742-5.027z" clip-rule="evenodd"/>
</svg>
