<svg xmlns="http://www.w3.org/2000/svg" width="107" height="109" fill="none" viewBox="0 0 107 109">
    <path fill="#313638" fill-rule="evenodd" d="M101.65 32.7c2.955 0 5.35-2.44 5.35-5.45V5.45c0-3.01-2.395-5.45-5.35-5.45H5.35C2.395 0 0 2.44 0 5.45v21.8c0 3.01 2.395 5.45 5.35 5.45h3.567v31.247L4.993 70.85c-.492.868-.201 1.979.651 2.482l3.273 1.92v19.215H5.35c-2.955 0-5.35 2.44-5.35 5.45v3.633c0 3.01 2.395 5.45 5.35 5.45h96.3c2.955 0 5.35-2.44 5.35-5.45v-3.633c0-3.01-2.395-5.45-5.35-5.45h-3.567V51.728l2.854.389c.236.03.474.047.713.047 2.955 0 5.35-2.44 5.35-5.45v-4.41c0-1.574-.666-3.07-1.828-4.104-1.161-1.036-2.705-1.51-4.235-1.3l-2.854.389V32.7h3.567zM3.567 27.25V5.45c0-1.003.798-1.817 1.783-1.817h96.3c.985 0 1.783.814 1.783 1.817v21.8c0 1.003-.798 1.817-1.783 1.817H5.35c-.985 0-1.783-.814-1.783-1.817zm73.116 18.167H69.55V43.6h7.133v1.817zm-10.7 3.633c0 3.01-2.395 5.45-5.35 5.45H46.367c-2.955 0-5.35-2.44-5.35-5.45v-9.083h24.966v9.083zm-14.266 9.083h3.566v3.634h-3.566v-3.634zm10.7-21.8H44.583V32.7h17.834v3.633zM8.98 71.097l6.242-11.01 4.637 2.725-6.242 11.006-4.637-2.72zm11.206-12.284l-.535-.314-.55-.326 5.63-10.031c.155-.276.236-.59.235-.909V32.7h1.783v14.063l-6.563 12.05zM12.483 32.7H21.4v14.05l-5.387 9.608-.553-.324c-.41-.243-.898-.31-1.356-.185-.46.125-.85.43-1.086.85l-.535.954V32.7zm90.95 67.217v3.633c0 1.003-.798 1.817-1.783 1.817H5.35c-.985 0-1.783-.814-1.783-1.817v-3.633c0-1.004.798-1.817 1.783-1.817h96.3c.985 0 1.783.813 1.783 1.817zm-32.1-19.984v-1.816c1.97 0 3.567 1.626 3.567 3.633s-1.597 3.633-3.567 3.633h-.936c.616-1.748.933-3.592.936-5.45zm-3.566 0c-.008 7.02-5.592 12.709-12.484 12.717h-3.566c-6.892-.008-12.476-5.697-12.484-12.717v-5.45h28.534v5.45zm26.75 14.534H62.595c2.425-1.27 4.495-3.146 6.017-5.45h2.721c3.94 0 7.134-3.254 7.134-7.267s-3.194-7.267-7.134-7.267v-1.816c0-1.004-.798-1.817-1.783-1.817h-32.1c-.985 0-1.783.813-1.783 1.817v7.266c.008 6.13 3.38 11.741 8.738 14.534H12.483V77.35l.892.525c.187.103.39.172.6.204.04.007.078.012.117.017l.027.003.051.007c.032.006.065.01.097.01.155 0 .31-.02.461-.061l.02-.01c.187-.056.365-.144.524-.26.043-.03.082-.06.123-.095.167-.134.308-.297.418-.482l8.025-14.152c.478-.827.227-1.892-.57-2.407l6.828-12.535c.146-.27.221-.573.22-.88V32.7h10.7v3.633h-1.783c-.984 0-1.783.814-1.783 1.817v10.9c.006 5.015 3.994 9.077 8.917 9.083h1.783v5.45c0 1.004.799 1.817 1.783 1.817h7.134c.984 0 1.783-.813 1.783-1.817v-5.45h1.783c4.923-.006 8.91-4.069 8.917-9.083h8.8l16.167 2.195v43.222zm6.898-53.956c.508-.068 1.02.089 1.406.431.387.344.61.839.612 1.361v4.41c.003.526-.22 1.025-.609 1.368-.388.345-.901.502-1.411.433l-4.861-.66h-.017L80.25 45.642v-2.267l16.285-2.207h.017l4.863-.657zm-6.898-2.739l-16.168 2.195H69.55V38.15c0-1.003-.799-1.817-1.783-1.817h-1.784V32.7h28.534v5.072zM53.5 27.25c5.909 0 10.7-4.88 10.7-10.9 0-6.02-4.791-10.9-10.7-10.9-5.91 0-10.7 4.88-10.7 10.9.006 6.018 4.792 10.894 10.7 10.9zm0-3.633c-2.537-.008-4.877-1.393-6.142-3.634h12.283c-1.264 2.241-3.605 3.626-6.141 3.634zm0-14.533c3.939 0 7.133 3.253 7.133 7.266h-5.847l-1.377-4.207c-.312-.954-1.323-1.469-2.258-1.152-.936.317-1.442 1.347-1.131 2.3l1.004 3.06h-4.658c0-4.014 3.194-7.267 7.134-7.267zM23.183 16.35c0 4.013-3.194 7.267-7.133 7.267-3.94 0-7.133-3.254-7.133-7.267s3.194-7.267 7.133-7.267c3.94 0 7.133 3.254 7.133 7.267zm-3.566 0c0-2.007-1.597-3.633-3.567-3.633-1.97 0-3.567 1.626-3.567 3.633 0 2.006 1.597 3.633 3.567 3.633 1.97 0 3.567-1.627 3.567-3.633zm8.916-1.816H32.1c.985 0 1.783-.814 1.783-1.817 0-1.003-.798-1.817-1.783-1.817h-3.567c-.985 0-1.783.814-1.783 1.817 0 1.003.798 1.817 1.783 1.817zM32.1 21.8h-3.567c-.985 0-1.783-.814-1.783-1.817 0-1.003.798-1.817 1.783-1.817H32.1c.985 0 1.783.814 1.783 1.817 0 1.003-.798 1.817-1.783 1.817zm42.8 1.817h21.4c.985 0 1.784-.814 1.784-1.817V10.9c0-1.003-.799-1.817-1.784-1.817H74.9c-.985 0-1.783.814-1.783 1.817v10.9c0 1.003.798 1.817 1.783 1.817zm1.783-10.9h17.834v7.266H76.683v-7.266zm-57.067 87.2h67.767c.985 0 1.784.813 1.784 1.816 0 1.003-.799 1.816-1.784 1.816H19.617c-.985 0-1.784-.813-1.784-1.816 0-1.003.799-1.817 1.784-1.817zm73.118 1.816c0 1.003.798 1.816 1.783 1.816h3.567c.985 0 1.783-.813 1.783-1.816 0-1.003-.798-1.817-1.783-1.817h-3.567c-.985 0-1.783.814-1.783 1.817zM8.916 99.916h3.567c.985 0 1.783.814 1.783 1.817 0 1.003-.798 1.816-1.783 1.816H8.916c-.985 0-1.783-.813-1.783-1.816 0-1.003.798-1.817 1.783-1.817z" clip-rule="evenodd"/>
</svg>
