<svg xmlns="http://www.w3.org/2000/svg" width="17" height="18" fill="none" viewBox="0 0 17 18">
    <path fill="#313638" fill-rule="evenodd" d="M7.549 18V0H9.29v1.742h4.935c.54 0 1.056.214 1.437.595s.595.898.595 1.437v10.452c0 .539-.214 1.056-.595 1.437-.38.381-.898.595-1.437.595H9.291V18H7.549zM14.43 3.569c-.054-.055-.128-.085-.205-.085H9.291v11.032h4.935c.077 0 .151-.03.205-.085.055-.054.086-.128.086-.205V3.774c0-.077-.031-.15-.086-.205zM4.645 1.742H2.032c-.539 0-1.056.214-1.437.595C.215 2.718 0 3.235 0 3.774v2.613h1.742V3.774c0-.077.03-.15.085-.205.054-.055.128-.085.205-.085h2.613V1.742zM0 11.612v2.614c0 .539.214 1.056.595 1.437.381.38.898.595 1.437.595h2.613v-1.742H2.032c-.077 0-.15-.03-.205-.085-.054-.054-.085-.128-.085-.205v-2.613H0z" clip-rule="evenodd"/>
</svg>
