<svg width="22" height="22" viewBox="0 0 22 22" fill="none" xmlns="http://www.w3.org/2000/svg">
<circle id='circle' cx="11" cy="11" r="11" fill="#313638"/>
<path id='path' fill-rule="evenodd" clip-rule="evenodd" d="M7.62122 6.70606C7.36852 6.45337 6.95883 6.45337 6.70614 6.70606C6.45345 6.95876 6.45344 7.36845 6.70614 7.62114L9.90889 10.8239L6.70609 14.0267C6.4534 14.2794 6.4534 14.6891 6.70609 14.9418C6.95878 15.1945 7.36847 15.1945 7.62117 14.9418L10.824 11.739L14.0268 14.9418C14.2795 15.1945 14.6892 15.1945 14.9419 14.9418C15.1945 14.6891 15.1945 14.2794 14.9419 14.0267L11.739 10.8239L14.9418 7.62114C15.1945 7.36845 15.1945 6.95875 14.9418 6.70606C14.6891 6.45337 14.2794 6.45337 14.0267 6.70606L10.824 9.90882L7.62122 6.70606Z" fill="white"/>
</svg>
