<svg xmlns="http://www.w3.org/2000/svg" width="29" height="18" fill="none" viewBox="0 0 29 18">
    <path fill="#313638" d="M26.97 7.777l-.751-3.004c.205-.044.36-.226.36-.444v-.484c0-1.052-.856-1.908-1.908-1.908h-3.42V.938c0-.517-.421-.938-.939-.938H2.876c-.518 0-.939.421-.939.938v8.234c0 .251.204.454.454.454.251 0 .455-.203.455-.454V.938c0-.016.013-.03.03-.03h17.436c.017 0 .03.014.03.03v8.234c0 .251.204.454.454.454.251 0 .454-.203.454-.454v-.514H26.61c.66 0 1.22.433 1.411 1.029h-1.412c-.25 0-.454.203-.454.454v.969c0 .784.639 1.422 1.423 1.422h.515v1.998h-1.188c-.39-1.126-1.46-1.937-2.717-1.937-1.257 0-2.328.811-2.718 1.937h-.219v-3.42c0-.251-.203-.454-.454-.454-.25 0-.454.203-.454.454v3.42h-9.42c-.39-1.126-1.461-1.937-2.718-1.937-1.258 0-2.328.811-2.718 1.937h-2.61c-.017 0-.03-.013-.03-.03V13.5h1.967c.25 0 .454-.203.454-.454 0-.25-.203-.454-.454-.454H.454c-.25 0-.454.203-.454.454 0 .25.203.454.454.454h1.483v.999c0 .517.421.938.939.938h2.453l-.001.03c0 1.586 1.29 2.876 2.876 2.876 1.585 0 2.875-1.29 2.875-2.875v-.03h10.233l-.001.03c0 1.585 1.29 2.875 2.876 2.875 1.585 0 2.875-1.29 2.875-2.875v-.03h1.484c.25 0 .454-.204.454-.455v-4.843c0-1.196-.882-2.19-2.03-2.364zm-5.72-4.931h3.421c.551 0 1 .448 1 .999v.03h-4.42v-1.03zm0 4.904V4.783h4.035l.742 2.967H21.25zM8.204 17.436c-1.085 0-1.968-.882-1.968-1.967S7.119 13.5 8.204 13.5s1.967.883 1.967 1.968-.882 1.967-1.967 1.967zm15.983 0c-1.085 0-1.968-.882-1.968-1.967s.883-1.968 1.968-1.968 1.967.883 1.967 1.968-.882 1.967-1.967 1.967zm3.905-5.812h-.515c-.284 0-.514-.23-.514-.514v-.515h1.029v1.03z"/>
</svg>
