<svg xmlns="http://www.w3.org/2000/svg" width="22" height="23" fill="none" viewBox="0 0 22 23">
    <path fill="#313638" fill-rule="evenodd" d="M1.586 16.922l.39.212c.26.158.364.475.234.739-.104.185-.286.29-.468.29-.078 0-.156 0-.234-.053l-1.222-.66c-.013-.013-.026-.02-.039-.026-.013-.007-.026-.013-.039-.026l-.026-.027-.052-.053-.026-.026c-.013-.013-.02-.026-.026-.04-.007-.013-.013-.026-.026-.04v-.026c0-.013-.007-.026-.013-.04-.007-.012-.013-.026-.013-.039v-.026C0 17.054 0 17.028 0 17V5.888c.026-.026.026-.053.026-.079 0-.013.006-.026.013-.04.006-.013.013-.026.013-.04 0-.026.026-.052.052-.078l.052-.053c0-.027.026-.027.026-.027.013-.013.026-.02.039-.026.013-.007.026-.013.039-.026L10.192.079c.156-.105.364-.105.52 0 .078.027.13.106.182.185l1.144.66c.26.158.338.475.208.74-.104.158-.286.263-.468.263-.078 0-.182-.026-.26-.079l-.572-.317v7.63c0 .29-.234.528-.52.528-.286 0-.52-.238-.52-.528V1.426l-8.294 4.54.338.185c.26.132.364.449.234.713-.104.185-.286.29-.468.29-.078 0-.156 0-.234-.052l-.442-.238v9.16l7.046-4.25c.26-.158.572-.079.728.185.156.264.078.581-.182.74l-7.046 4.223zM12.87 2.006c-.13.264-.052.581.208.74l1.378.792c.078.052.182.079.26.079.182 0 .364-.106.468-.264.13-.264.052-.581-.208-.74l-1.378-.791c-.26-.159-.598-.08-.728.184zm3.12 2.376c-.26-.158-.338-.475-.207-.739.155-.237.467-.343.728-.185l1.378.792c.26.159.338.476.207.74-.104.158-.285.264-.468.264-.078 0-.181-.027-.26-.08l-1.377-.792zm4.55 1.347c.105 0 .209.026.287.079.156.08.26.264.234.449V7.63c0 .29-.234.528-.52.528-.286 0-.52-.238-.52-.528v-.502l-.442.238c-.26.132-.572.026-.702-.238s-.026-.58.234-.713l.234-.132-.442-.237c-.26-.159-.338-.476-.208-.74.156-.264.468-.343.728-.21l1.118.633zM16.9 7.524l-3.093 1.584c-.26.132-.364.449-.234.713.104.184.286.29.468.29.078 0 .156-.026.234-.053l3.094-1.584c.26-.132.364-.449.234-.713-.13-.264-.442-.37-.702-.237zm-4.576 2.957c.13.264.026.58-.234.713l-.936.475v1.056c0 .29-.234.528-.52.528-.286 0-.52-.238-.52-.528v-1.056l-1.118-.581c-.26-.132-.364-.449-.234-.713.13-.264.442-.37.702-.237l1.17.607.988-.502c.26-.132.572-.026.702.238zm-1.716 4.118c-.286 0-.52.238-.52.528v3.406c0 .29.234.528.52.528.286 0 .52-.238.52-.528v-3.406c.026-.29-.234-.528-.52-.528zm9.932.713c-.286 0-.52.238-.52.528v.37l-.806-.476c-.26-.158-.572-.052-.728.185-.156.264-.052.581.182.74l.832.475-.416.21c-.26.133-.364.45-.234.714.104.184.286.29.468.29.078 0 .156-.026.234-.053l1.222-.633c.182-.08.286-.264.286-.476v-1.372c.026-.264-.208-.502-.52-.502zm-3.64 3.194l-3.093 1.584c-.26.132-.364.45-.234.713.104.185.286.29.468.29.078 0 .156-.026.234-.052l3.094-1.584c.26-.132.364-.45.234-.713-.13-.264-.442-.37-.702-.238zm-5.746 2.957l.442-.237c.26-.132.572-.027.832.237.13.264.026.581-.234.713l-1.222.634h-.052c-.015.015-.021.021-.029.024-.005.002-.012.002-.023.002h-.338c-.015-.015-.021-.022-.029-.024-.005-.002-.012-.002-.023-.002h-.052l-1.404-.74c-.26-.132-.364-.448-.234-.712.13-.264.442-.37.702-.238l.624.343v-.501c0-.29.234-.528.52-.528.286 0 .52.237.52.528v.501zm9.387-11.96c-.287 0-.52.239-.52.529v3.405c0 .29.233.529.52.529.285 0 .52-.238.52-.528v-3.38c.026-.29-.209-.554-.52-.554zm-13.131.74l-1.404-.74c-.26-.131-.364-.448-.234-.712.13-.264.442-.37.702-.238l1.404.74c.26.132.364.448.234.712-.104.185-.286.29-.468.29-.078 0-.156 0-.234-.052zM3.042 7.946l1.404.74c.078.052.156.052.234.052.182 0 .364-.105.468-.29.13-.264.026-.581-.234-.713l-1.404-.74c-.26-.131-.572-.026-.702.238-.13.238-.026.581.234.713zm4.862 12.329l-1.404-.74c-.26-.131-.572-.026-.702.238s-.026.581.234.713l1.404.74c.078.052.156.052.234.052.182 0 .364-.105.468-.29.13-.238.026-.555-.234-.713zm-2.99-1.557c.26.132.364.448.234.712-.078.185-.26.29-.468.29-.078 0-.156 0-.234-.052l-1.404-.74c-.26-.131-.364-.448-.234-.712.13-.264.442-.37.702-.238l1.404.74zm9.386-4.673c.182 0 .364-.106.468-.264.156-.264.052-.581-.182-.74l-1.612-.923c-.26-.159-.572-.053-.728.184-.156.264-.052.581.182.74l1.612.924c.078.052.182.079.26.079zm3.406.818c.234.159.338.475.182.74-.104.158-.286.263-.468.263-.078 0-.182-.026-.26-.079l-1.612-.924c-.234-.158-.338-.475-.182-.74.156-.237.468-.342.728-.184l1.612.924z" clip-rule="evenodd"/>
</svg>
