<svg xmlns="http://www.w3.org/2000/svg" width="41" height="41" fill="none" viewBox="0 0 41 41">
    <path fill="#313638" fill-rule="evenodd" d="M30.248.257l10.495 10.495c.343.342.343.896 0 1.238L11.99 40.743c-.342.343-.896.343-1.238 0L.257 30.248c-.343-.342-.343-.896 0-1.238L29.01.257c.342-.343.896-.343 1.238 0zM2.118 29.634l9.248 9.247 27.515-27.515-9.247-9.247-1.651 1.65L32.9 8.689c.342.342.342.896 0 1.238-.343.343-.896.343-1.239 0l-4.918-4.918L24.452 7.3l3.126 3.18.01.008c.342.343.333.896-.01 1.239-.342.342-.895.333-1.238-.01l-3.153-3.152-2.292 2.292 4.918 4.918c.343.343.343.896 0 1.238-.342.343-.895.343-1.238 0l-4.918-4.918-2.292 2.292 3.153 3.145c.342.342.342.895 0 1.238-.343.342-.896.342-1.239 0l-3.153-3.144-2.292 2.292 4.918 4.918c.343.343.343.896 0 1.238-.333.352-.895.352-1.238.01l-4.918-4.919-2.292 2.292 3.153 3.144.017.018c.343.342.334.904-.017 1.238-.343.343-.905.334-1.239-.017l-3.153-3.153-6.946 6.947zm5.955-.536c1.098-1.098 2.88-1.098 3.987 0 1.098 1.107 1.098 2.89 0 3.987-1.098 1.098-2.89 1.098-3.987 0-1.098-1.098-1.098-2.88 0-3.987zm2.74 2.758c.053.008.08-.018.097-.036.395-.43.333-1.08-.097-1.475-.421-.413-1.098-.413-1.51 0-.413.422-.413 1.098 0 1.51.421.413 1.097.413 1.51 0z" clip-rule="evenodd"/>
</svg>
