<svg xmlns="http://www.w3.org/2000/svg" width="40" height="28" fill="none" viewBox="0 0 40 28">
    <rect width="39" height="27.235" x=".5" y=".5" fill="#fff" stroke="#E2E2E2" rx="3.5"/>
    <path fill="#FD6020" d="M16.47 27.059l22.354-6.765v3.765c0 1.657-1.344 3-3 3H16.47z"/>
    <path fill="#000" fill-rule="evenodd" d="M34.581 10.719c1.23 0 1.906.569 1.906 1.643.062.822-.492 1.517-1.23 1.643l1.66 2.34h-1.29l-1.415-2.276h-.123v2.275h-1.045V10.72h1.537zm-.492 2.591h.308c.676 0 .983-.316.983-.885 0-.505-.307-.821-.983-.821h-.308v1.706zm-4.673 3.034h2.951v-.948h-1.906v-1.517h1.845v-.948H30.46v-1.264h1.906v-.948h-2.951v5.625zm-3.074-1.833l-1.415-3.792H23.82l2.276 5.752h.553l2.275-5.752h-1.107l-1.475 3.792zm-12.482-.948c0 1.58 1.23 2.908 2.767 2.908.491 0 .922-.127 1.352-.317V14.89c-.307.38-.738.633-1.23.633-.983 0-1.783-.759-1.783-1.77v-.127c-.061-1.011.738-1.896 1.722-1.96.492 0 .984.254 1.291.633v-1.264c-.369-.253-.86-.316-1.291-.316-1.599-.127-2.828 1.2-2.828 2.844zm-1.907-.695c-.615-.253-.8-.38-.8-.696.062-.379.37-.695.739-.632.307 0 .615.19.86.443l.554-.759c-.43-.379-.984-.632-1.537-.632-.861-.063-1.599.632-1.66 1.517v.063c0 .759.307 1.201 1.29 1.517.247.064.493.19.739.316.184.127.307.316.307.57 0 .442-.369.821-.738.821h-.061c-.492 0-.923-.316-1.107-.759l-.676.696c.369.695 1.106 1.074 1.844 1.074.984.064 1.783-.695 1.845-1.706v-.19c-.062-.758-.37-1.138-1.599-1.643zm-3.566 3.476h1.045V10.72H8.387v5.625zM3.529 10.72h1.845c1.476.063 2.644 1.327 2.583 2.844 0 .822-.37 1.58-.984 2.15-.554.441-1.23.694-1.906.631H3.529V10.72zm1.353 4.677c.492.063 1.045-.126 1.414-.442.37-.38.554-.885.554-1.454 0-.506-.185-1.012-.554-1.39-.369-.317-.922-.506-1.414-.443h-.307v3.729h.307z" clip-rule="evenodd"/>
    <path fill="#FD6020" fill-rule="evenodd" d="M21.115 10.588c-1.537 0-2.829 1.264-2.829 2.908 0 1.58 1.23 2.907 2.829 2.97 1.599.064 2.828-1.264 2.89-2.907-.062-1.643-1.291-2.97-2.89-2.97z" clip-rule="evenodd"/>
</svg>
