<?xml version="1.0" encoding="utf-8"?>
<!-- Generator: Adobe Illustrator 25.2.3, SVG Export Plug-In . SVG Version: 6.00 Build 0)  -->
<svg version="1.1" id="Layer_1" xmlns="http://www.w3.org/2000/svg" xmlns:xlink="http://www.w3.org/1999/xlink" x="0px" y="0px"
	 viewBox="0 0 24 24" style="enable-background: new 0 0 24 24;" xml:space="preserve"  width="21" height="21">
<style type="text/css">
  .st0 {fill: #313638;}
</style>
<path class="st0" d="M20.2,2.2c1,0,1.9,0.4,2.7,1.1C23.6,4,24,5,24,6V18c0,1-0.4,2-1.1,2.7c-0.7,0.7-1.7,1.1-2.7,1.1H3.8
	c-1,0-1.9-0.4-2.7-1.1C0.4,20,0,19,0,18V6c0-1,0.4-2,1.1-2.7c0.7-0.7,1.7-1.1,2.7-1.1H20.2z M22.5,8.2l-10.1,6
	c-0.1,0.1-0.2,0.1-0.3,0.1c-0.1,0-0.2,0-0.3,0l-0.1-0.1l-10.1-6V18c0,0.6,0.2,1.2,0.7,1.6c0.4,0.4,1,0.7,1.6,0.7h16.5
	c0.6,0,1.2-0.2,1.6-0.7c0.4-0.4,0.7-1,0.7-1.6V8.2z M20.2,3.7H3.8c-0.6,0-1.2,0.2-1.6,0.7C1.7,4.8,1.5,5.4,1.5,6v0.5L12,12.6
	l10.5-6.2V6c0-0.6-0.2-1.2-0.7-1.6C21.4,3.9,20.8,3.7,20.2,3.7z"/>
</svg>
