<svg xmlns="http://www.w3.org/2000/svg" width="30" height="30" fill="none" viewBox="0 0 30 30">
    <path fill="#313638" fill-rule="evenodd" d="M29 15c0 7.732-6.268 14-14 14S1 22.732 1 15 7.268 1 15 1s14 6.268 14 14zM15 30c8.284 0 15-6.716 15-15 0-8.284-6.716-15-15-15C6.716 0 0 6.716 0 15c0 8.284 6.716 15 15 15zm7-11.115v-6.03l-6.778 3.856c-.067.038-.144.059-.222.059-.078 0-.155-.02-.222-.06L8 12.855v6.03c0 .562.23 1.1.64 1.496.41.397.967.62 1.547.62h9.626c.58 0 1.136-.223 1.546-.62.41-.396.641-.934.641-1.495zm-.729-8.346c-.4-.347-.92-.54-1.459-.539h-9.625c-.538 0-1.057.192-1.458.539-.401.347-.656.825-.716 1.342L15 15.855l6.987-3.974c-.06-.517-.314-.995-.716-1.342z" clip-rule="evenodd"/>
</svg>
