<svg xmlns="http://www.w3.org/2000/svg" width="30" height="30" fill="none" viewBox="0 0 30 30">
    <path fill="#313638" fill-rule="evenodd" d="M29 15c0 7.732-6.268 14-14 14S1 22.732 1 15 7.268 1 15 1s14 6.268 14 14zM15 30c8.284 0 15-6.716 15-15 0-8.284-6.716-15-15-15C6.716 0 0 6.716 0 15c0 8.284 6.716 15 15 15zm3.41-19.554h-1.246c-.976 0-1.165.48-1.165 1.18v1.67h2.203L17.9 15.72H16v6.098H13.57V15.72h-1.98v-2.424h1.98v-1.91c0-2.074 1.23-3.203 3.025-3.203.86 0 1.598.066 1.813.096v2.168z" clip-rule="evenodd"/>
</svg>
