<svg xmlns="http://www.w3.org/2000/svg" width="38" height="52" fill="none" viewBox="0 0 38 52">
    <path fill="#313638" fill-rule="evenodd" d="M26.855 22.524c1.115.004 2.102.719 2.453 1.777 2.066.217 3.688 1.87 3.864 3.94l.722 9.01h1.3c1.345-.006 2.47 1.022 2.587 2.363l.207 2.252c.115 1.203-.619 2.325-1.767 2.703l-1.698.565.074.922c1.062.35 1.782 1.339 1.788 2.457v.866c0 1.436-1.164 2.6-2.6 2.6H4.333c-1.436 0-2.6-1.164-2.6-2.6v-.866c.006-1.118.726-2.108 1.789-2.457l.706-8.805h-.762C1.551 37.251 0 35.7 0 33.786V30.32c0-1.914 1.551-3.466 3.465-3.466h1.83c.623-1.426 1.967-2.405 3.516-2.56.353-1.055 1.339-1.768 2.451-1.771h.224l-4.478-7.676c-.618-1.06-.944-2.266-.944-3.493V5.038C4.872 4.618 4.156 3.4 4.37 2.153 4.584.907 5.666-.002 6.93 0h24.257c1.264-.002 2.346.907 2.56 2.153.214 1.247-.501 2.465-1.694 2.885v6.317c0 1.227-.326 2.432-.944 3.493l-4.478 7.676h.224zM5.27 45.914h27.578L31.44 28.38c-.093-1.119-.895-2.051-1.987-2.312v12.916c0 .478-.387.866-.866.866-.478 0-.866-.388-.866-.866V27.722h-2.6v6.064c-.001.616-.331 1.185-.866 1.492v1.973c0 .957-.775 1.733-1.732 1.733h-6.93c-.957 0-1.733-.776-1.733-1.733v-1.973c-.534-.307-.865-.876-.866-1.492v-6.064h-2.6v11.262c0 .478-.387.866-.866.866-.478 0-.866-.388-.866-.866V26.066c-.935.215-1.672.932-1.913 1.861-.034.151-.06.305-.074.46L5.27 45.913zM22.524 35.52h-6.93v1.732h6.93V35.52zm-.866-6.065h1.732v-1.732h-8.663v1.732h1.733c.478 0 .866.388.866.867 0 .478-.388.866-.866.866h-1.733v2.599h8.663v-2.6h-1.732c-.479 0-.867-.387-.867-.865 0-.479.388-.867.867-.867zm9.529-27.721H6.93c-.478 0-.866.387-.866.866 0 .478.388.866.866.866h24.257c.478 0 .866-.388.866-.866 0-.479-.388-.866-.866-.866zm-23.39 9.622c0 .92.244 1.824.708 2.62l4.987 8.549h11.134l4.987-8.55c.463-.795.707-1.699.708-2.62V5.199H7.797v6.157zm19.058 12.901H11.262c-.479 0-.866.388-.866.867v.866h17.326v-.866c0-.479-.388-.867-.867-.867zM1.733 30.322v3.465c0 .957.775 1.733 1.732 1.733h.899l.557-6.931H3.465c-.957 0-1.732.776-1.732 1.733zm32.053 19.925c.478 0 .866-.388.866-.867v-.866c0-.478-.388-.866-.866-.866H4.332c-.479 0-.867.388-.867.866v.866c0 .479.388.867.867.867h29.454zM36.06 39.77c-.041-.447-.417-.788-.866-.786h-1.165l.355 4.373 1.293-.433c.382-.127.626-.5.59-.901l-.207-2.253zM11.26 11.355c0 .306.082.607.236.872l4.236 7.265c.18.268.195.615.04.898-.155.284-.455.457-.778.45-.323-.006-.615-.192-.759-.482l-4.235-7.257c-.31-.53-.472-1.133-.472-1.746V7.797c0-.479.388-.866.866-.866.479 0 .867.387.867.866v3.558z" clip-rule="evenodd"/>
</svg>
