<svg xmlns="http://www.w3.org/2000/svg" width="22" height="22" fill="none" viewBox="0 0 22 22">
    <path fill="#313638" fill-rule="evenodd" d="M21 11c0 5.523-4.477 10-10 10S1 16.523 1 11 5.477 1 11 1s10 4.477 10 10zm1 0c0 6.075-4.925 11-11 11S0 17.075 0 11 4.925 0 11 0s11 4.925 11 11zm-8.848 4.824l.152-.621c-.078.036-.205.08-.38.13-.175.047-.331.07-.47.07-.294 0-.501-.049-.62-.145-.12-.097-.18-.279-.18-.546 0-.106.018-.262.055-.47.037-.207.078-.39.124-.552l.566-2.01c.056-.184.093-.386.111-.607.023-.221.034-.375.034-.463 0-.423-.15-.766-.448-1.029-.295-.267-.716-.4-1.264-.4-.304 0-.626.055-.967.165-.34.106-.697.235-1.07.387l-.152.622c.11-.042.242-.085.393-.132.157-.046.309-.069.456-.069.3 0 .502.051.608.152.106.102.159.281.159.539 0 .143-.019.302-.056.476-.032.17-.073.353-.124.546l-.566 2.016c-.05.212-.088.403-.11.574-.024.165-.035.329-.035.49 0 .414.152.757.456 1.029.308.267.739.4 1.291.4.36 0 .675-.048.946-.145.272-.092.636-.227 1.091-.407zm-.103-8.156c.267-.248.4-.547.4-.897s-.133-.65-.4-.898c-.263-.249-.58-.373-.953-.373s-.693.124-.96.373-.4.548-.4.898.133.649.4.897c.267.244.587.366.96.366s.69-.122.953-.366z" clip-rule="evenodd"/>
</svg>
