<svg xmlns="http://www.w3.org/2000/svg" width="45" height="33" fill="none" viewBox="0 0 45 33">
    <path fill="#313638" fill-rule="evenodd" d="M3 1.8h39c.663 0 1.2.537 1.2 1.2v5.1H1.8V3c0-.663.537-1.2 1.2-1.2zM1.8 9.9v13.7h41.4V9.9H1.8zm0 19.6v-4.1h41.4v4.1c0 .663-.537 1.2-1.2 1.2H3c-.663 0-1.2-.537-1.2-1.2zM0 3c0-1.657 1.343-3 3-3h39c1.657 0 3 1.343 3 3v26.5c0 1.657-1.343 3-3 3H3c-1.657 0-3-1.343-3-3V3zm18.5 1.1c-.497 0-.9.403-.9.9s.403.9.9.9H26c.497 0 .9-.403.9-.9s-.403-.9-.9-.9h-7.5zM20.6 28c0 .497.403.9.9.9H24c.497 0 .9-.403.9-.9s-.403-.9-.9-.9h-2.5c-.497 0-.9.403-.9.9zM39 4c-.552 0-1 .448-1 1s.448 1 1 1 1-.448 1-1-.448-1-1-1z" clip-rule="evenodd"/>
</svg>
