<svg width="16" height="20" viewBox="0 0 16 20" fill="none" xmlns="http://www.w3.org/2000/svg">
<path d="M7.99992 0C9.06582 0.0143406 10.1185 0.238714 11.0976 0.660217C12.0767 1.08172 12.9632 1.6921 13.7062 2.45648C14.4492 3.22086 15.0342 4.12425 15.4278 5.11493C15.8214 6.10561 16.0158 7.16416 15.9999 8.23004C15.9999 11.71 13.62 15.5 8.93999 19.64C8.67969 19.8684 8.34619 19.9961 7.99992 20C7.65297 19.9997 7.31835 19.8716 7.05998 19.64L6.74992 19.36C2.26992 15.36 -7.77803e-05 11.63 -7.77803e-05 8.23004C-0.0159474 7.16416 0.178477 6.10561 0.572066 5.11493C0.965655 4.12425 1.55073 3.22086 2.29375 2.45648C3.03676 1.6921 3.92314 1.08172 4.90227 0.660217C5.88139 0.238714 6.93402 0.0143406 7.99992 0ZM7.99992 1.76001C7.15687 1.76091 6.32272 1.93236 5.54765 2.26404C4.77259 2.59572 4.07263 3.08076 3.48991 3.69C2.2855 4.93373 1.61449 6.59871 1.61992 8.33002C1.61992 11.12 3.61992 14.33 7.61992 17.92L7.89995 18.18C7.93517 18.213 7.98166 18.2314 8.02995 18.2314C8.07825 18.2314 8.12473 18.213 8.15996 18.18C12.35 14.48 14.41 11.18 14.41 8.33002C14.4207 6.59768 13.7489 4.93076 12.54 3.69C11.9531 3.07901 11.249 2.59265 10.4699 2.26001C9.88418 2.01023 9.26367 1.85176 8.62993 1.79004L7.99992 1.76001ZM7.99992 5.06C8.4074 5.05884 8.81091 5.14071 9.18571 5.3006C9.56052 5.46049 9.89881 5.69505 10.18 5.98999C10.757 6.59299 11.079 7.39545 11.079 8.23004C11.079 9.06463 10.757 9.86703 10.18 10.47C9.89959 10.7666 9.56165 11.0028 9.18681 11.1643C8.81197 11.3258 8.40806 11.4091 7.99992 11.4091C7.59179 11.4091 7.18799 11.3258 6.81315 11.1643C6.43831 11.0028 6.10038 10.7666 5.81999 10.47C5.24299 9.86703 4.92094 9.06463 4.92094 8.23004C4.92094 7.39545 5.24299 6.59299 5.81999 5.98999C6.10115 5.69505 6.43945 5.46049 6.81425 5.3006C7.18906 5.14071 7.59244 5.05884 7.99992 5.06ZM7.99992 6.54999C7.78525 6.55087 7.57291 6.59468 7.37541 6.67883C7.17792 6.76298 6.99924 6.88582 6.8499 7.04004C6.54059 7.35877 6.36832 7.7859 6.36992 8.23004C6.36772 8.67135 6.54027 9.09557 6.8499 9.41003C6.99836 9.56553 7.17689 9.6893 7.37456 9.77386C7.57222 9.85843 7.78493 9.90204 7.99992 9.90204C8.21491 9.90204 8.42775 9.85843 8.62541 9.77386C8.82307 9.6893 9.00148 9.56553 9.14995 9.41003C9.45957 9.09557 9.63212 8.67135 9.62993 8.23004C9.63152 7.7859 9.45925 7.35877 9.14995 7.04004C9.00061 6.88582 8.82193 6.76298 8.62443 6.67883C8.42694 6.59468 8.21459 6.55087 7.99992 6.54999Z" fill="#313638"/>
</svg>
