<svg xmlns="http://www.w3.org/2000/svg" width="70" height="27" fill="none" viewBox="0 0 70 27">
    <path fill="#fff" fill-rule="evenodd" d="M5.212 14.482c-.156.355-.336.926-.326 2.077v.006c.01 1.115.02 2.237.626 3.54.377.812.941 1.57 1.742 2.267.865.753 1.7 1.046 2.51.909.12-.073.187-.172.196-.358.064-1.4-.15-2.607-1.166-3.628-.638-.641-1.384-1.933-1.75-3.473v-.001c-.169-.71-.253-1.064-.21-1.366 0 0 .13-.921-.018-1.212-.013-.026-.032-.046-.032-.046-.03-.029-.078-.052-.174-.055-.163.047-.392.134-.629.308-.09.066-.473.358-.769 1.032zm3.381 3.232c.705.708 1.17 1.59 1.497 2.492.13.359.2.747.27 1.135.081.454.163.906.34 1.306.052.118.154.137.287.093.22-.18.547-.492.818-.982.085-.155.46-.864.487-2.12.064-2.945-1.862-5.58-2.81-6.139-.441-.259-.894-.386-.894-.386-.386-.108-.713-.127-.938-.124-.095.055-.171.137-.22.26-.209.54-.105 1.274-.026 1.84l.01.069c.127.91.487 1.86 1.18 2.556zM6.916 10.46c.676-.383 2.147-.72 2.925-.72 4.922 0 6.845 4.54 6.007 9.418 0 0-.365 1.592-1.096 2.922l-.048.102c-1.215 2.202-3.4 4.168-6.45 4.168-1.235 0-2.45-.175-3.157-.562-.392.505-1.106.675-2.512.675-1.055 0-1.994-.26-2.526-1.075-.033-.052-.064-.105-.058-.172.009-.111.09-.206.188-.218.434-.05.626-.487.714-.95l.08-.95c.002-.062.003-.112.006-.147h.006L2.525 4.68c.068-.824-.293-1.544-.888-1.928-.107-.07-.163-.2-.151-.338l.067-.8c.035-.426.354-.789.755-.862C2.784.664 3.63.55 4.345.55h1.056c1.357 0 2.354.33 2.234 1.771l-.11 1.287c-.153 1.755-.609 6.852-.609 6.852zm27.603 9.715c.299 1.526 1.9 1.912 2.904 1.06.755-.642.84-1.67 1.233-6.423l.042-.501c.005-.066.015-.19-.043-.308-.221-.45-1.186-.314-1.212-.31 0 0-1.093.19-1.715.787-1.137 1.092-1.266 2.797-1.347 3.862-.062.818.02 1.234.125 1.767l.013.066zm-13.01-2.247c.31 1.58 1.244.855 1.46.64.391-.39.581-.832.676-1.07v-.001c.34-.852.896-2.247.463-3.546-.09-.274-.262-.786-.655-.871-.363-.078-.72.25-.897.411-.97.889-1.096 2.412-1.148 3.043l-.002.023c-.038.462.015.923.103 1.372zm20.92 5.017c-.089 1.07-.022 1.95.815 2.05.096.012.16.108.152.219-.006.067-.038.13-.087.172-.79.675-2.002 1.077-3.05 1.077-1.365 0-1.881-.162-2.032-.642-.821.422-2.116.64-3.18.53-2.284-.24-4.02-1.97-4.861-4.177l-.03-.101c-.014-.008-.02-.012-.025-.01-.004.001-.006.006-.01.015-.011.019-.032.057-.098.119-.108.123-.215.247-.322.372-.232.27-.464.54-.706.796-1.96 2.073-4.278 3.17-7.099 2.874-3.163-.33-5.275-3.522-5.416-6.876-.21-5.022 3.175-9.365 7.412-9.475 1.361-.036 2.647.408 3.819 1.415 1.494 1.285 1.912 3.021 1.15 4.823-.477 1.128-1.207 2.003-2.11 2.628-.692.48-1.414.908-2.137 1.335-.39.23-.78.461-1.166.7-.033.021-.063.04-.093.057-.115.07-.215.131-.403.272.147.297.288.4.424.5l.05.036c.89.67 1.817.719 2.717.399 1.489-.53 2.618-1.55 3.482-2.908-.054-4.881 3.245-9.151 7.389-9.26.773 0 1.483.218 2.092.601.294-.157.615-.218.95-.246.9-.075 1.942-.075 2.636.055.061.007.252.042.31.055.347.08.447.3.415.687l-.148 1.778-.16 1.925-.074.898-.606 7.307zm15.44 2.05c-.837-.101-.904-.981-.815-2.052l.606-7.312.068-.82c.24-2.904-1.635-5.355-4.177-5.35-1.68.003-3.236 1.032-4.168 2.569l.013-.16c.11-1.334-.746-1.64-1.914-1.64h-.91c-.615 0-1.194.084-1.604.165-.346.068-.622.404-.655.798l-.061.74c-.01.129.036.25.128.314.51.357.818 1.023.755 1.787l-.132 1.597-.83 10c-.031.387.218.701.556.701h3.328c.339 0 .64-.314.672-.7l.786-9.49c.096-1.156 1.004-2.13 2.014-2.108.979.021 1.692.936 1.599 2.061l-.064.771-.538 6.483v.008c-.205 2.475-.255 3.106 2.36 3.106.87 0 1.852-.278 2.612-.76.138-.081.28-.185.436-.318.049-.042.08-.105.087-.172.009-.111-.056-.207-.152-.218zm11.06-3.85c.017-.094.107-.165.204-.165.059 0 .112.026.145.07.534.713.79 1.856.706 2.873-.203 2.45-1.555 2.537-3.602 2.54h-7.169v-.01c-.513-.075-.87-.585-.81-1.198l.126-1.125c.076-.778.267-2.546 1.418-4.098l3.91-5.79h-3.642c-.576 0-.999-.532-.944-1.188l.17-2.055c.029-.34.294-.615.592-.615l.694-.022c1.01-.033 1.574-.051 3.46-.051 2.176 0 2.966.024 4.358.067l.191.006v.002c.557.025.959.55.902 1.192l-.123 1.41c-.072.816-.354 1.614-.81 2.29l-4.813 6.814h3.53c.767-.04 1.37-.238 1.506-.947z" clip-rule="evenodd"/>
</svg>
