<svg xmlns="http://www.w3.org/2000/svg" width="41" height="41" fill="none" viewBox="0 0 41 41">
    <path fill="#421540" fill-rule="evenodd" d="M37.583 14.426h-4.176v-2.278h1.519c.201 0 .394-.08.537-.222.142-.143.222-.336.222-.537V2.657c0-.704-.28-1.38-.779-1.878C34.408.281 33.732.001 33.028 0H4.935c-.704 0-1.38.281-1.878.78-.498.497-.778 1.173-.78 1.877v8.732c0 .201.08.394.223.537.143.142.336.222.537.222h1.519v22.778H.759c-.201 0-.394.08-.537.222-.142.143-.222.336-.222.537v2.658c0 .704.281 1.38.78 1.878.497.498 1.173.778 1.877.779h32.649c.704 0 1.38-.281 1.878-.78.498-.497.778-1.173.779-1.877v-2.658c0-.201-.08-.394-.222-.537-.143-.142-.336-.222-.537-.222h-3.797V21.259h4.176c.705 0 1.38-.28 1.879-.779.498-.498.778-1.174.779-1.878v-1.519c-.001-.704-.281-1.38-.78-1.878-.498-.498-1.173-.778-1.878-.78zM22.564 1.519l-.38 1.518h-6.406l-.38-1.518h7.166zm-18.768 9.11V2.658c0-.302.12-.591.334-.805.214-.213.503-.333.805-.333h8.898l.616 2.461c.04.165.136.31.269.415.133.104.298.16.467.16h7.593c.17 0 .334-.056.467-.16.133-.104.228-.25.27-.415l.615-2.461h8.898c.302 0 .591.12.805.333.213.214.333.503.334.805v7.973H3.797zm24.676 21.26c.705 0 1.38-.281 1.878-.78.499-.498.779-1.173.78-1.878v-.759c-.001-.704-.281-1.38-.78-1.878-.498-.498-1.173-.778-1.878-.78h-1.139v-.758c0-.202-.08-.395-.222-.537-.142-.143-.336-.223-.537-.223H11.39c-.201 0-.395.08-.537.223-.142.142-.222.335-.222.537v6.833c-.001 1.121.413 2.203 1.163 3.037H6.074V12.148h6.074v2.278c0 .201.08.394.223.537.142.142.335.222.536.222h.76V20.5c0 .201.08.395.222.537.142.142.336.222.537.222h1.518v1.519c0 .201.08.394.223.537.142.142.335.222.537.222h4.555c.202 0 .395-.08.537-.222.143-.143.223-.336.223-.537v-1.519h1.518c.201 0 .395-.08.537-.222.142-.142.222-.336.222-.537v-.76h2.278v.76c0 .201.08.395.223.537.142.142.335.222.536.222h4.556v13.667h-5.72c.75-.834 1.165-1.916 1.164-3.037h1.14zm-1.139-1.519v-3.037h1.14c.301 0 .59.12.804.334.214.214.334.503.334.805v.76c0 .302-.12.591-.334.805-.213.213-.503.333-.805.333h-1.139zm-1.518-4.555v6.074c-.001.805-.321 1.577-.89 2.146-.57.57-1.342.89-2.147.89h-7.593c-.805 0-1.577-.32-2.146-.89-.57-.569-.89-1.34-.89-2.146v-6.074h13.666zM13.667 13.667v-1.519h10.63v1.519h-10.63zm10.63 3.796h2.277v.76h-2.278v-.76zm-9.112 2.278v-4.556h7.593v4.556h-7.593zm5.315 1.518v.76h-3.037v-.76H20.5zm6.074-6.074v.76h-2.278v-.76h.76c.2 0 .394-.08.536-.222.143-.143.223-.336.223-.537v-2.278h6.074v2.278h-4.556c-.201 0-.394.08-.536.222-.143.143-.223.336-.223.537zm9.87 21.26v1.898c0 .302-.12.591-.333.805-.214.213-.503.333-.805.333H2.657c-.302 0-.591-.12-.805-.333-.213-.214-.333-.503-.333-.805v-1.899h34.925zm2.278-17.843c0 .302-.12.591-.334.805-.213.213-.503.334-.805.334h-9.49v-3.797h9.49c.302 0 .592.12.805.334.214.214.334.503.334.805v1.519zm-8.353-9.49c.6 0 1.188-.179 1.687-.513.5-.333.89-.808 1.119-1.363.23-.555.29-1.165.173-1.754-.117-.59-.407-1.13-.831-1.555-.425-.425-.966-.714-1.555-.832-.59-.117-1.2-.057-1.755.173-.555.23-1.03.62-1.363 1.119-.334.5-.512 1.086-.512 1.687 0 .805.321 1.577.89 2.147.57.569 1.342.89 2.147.89zm0-4.556c.3 0 .594.089.844.256.25.166.444.404.559.681.115.278.145.583.086.877-.058.295-.203.566-.415.778-.213.212-.483.357-.778.415-.294.06-.6.029-.877-.086-.277-.115-.515-.31-.681-.56-.167-.249-.256-.543-.256-.843 0-.402.16-.788.445-1.073.285-.285.67-.445 1.073-.445zM10.407 8.889c-.142.142-.336.222-.537.222H5.315c-.202 0-.395-.08-.537-.222-.143-.143-.223-.336-.223-.537V3.796c0-.201.08-.394.223-.537.142-.142.335-.222.537-.222H9.87c.201 0 .395.08.537.222.142.143.222.336.222.537v4.556c0 .201-.08.394-.222.537zM9.11 4.555H6.074v3.038H9.11V4.555z" clip-rule="evenodd"/>
</svg>
