<svg xmlns="http://www.w3.org/2000/svg" width="31" height="40" fill="none" viewBox="0 0 31 40">
    <path fill="#313638" d="M28.933 8.421h-24.8c-.752 0-1.458-.205-2.066-.563v27.931c0 1.164.925 2.106 2.066 2.106h24.8V8.42zm1.764-1.797c.187.19.303.454.303.744v31.58c0 .58-.463 1.052-1.033 1.052H4.133C1.851 40 0 38.115 0 35.79V4.21C0 1.886 1.85 0 4.133 0H27.9c.57 0 1.033.471 1.033 1.053v5.263h1.034c.285 0 .543.118.73.308zm-16.23 7.06c0-.581.462-1.052 1.033-1.052.57 0 1.033.47 1.033 1.052v8.421c0 .582-.462 1.053-1.033 1.053-.57 0-1.033-.471-1.033-1.053v-8.42zm6.148 3.21c-.404-.41-.404-1.077 0-1.488.404-.41 1.058-.41 1.461 0 3.633 3.7 3.633 9.7 0 13.398-3.632 3.7-9.521 3.7-13.152 0-3.632-3.698-3.632-9.697 0-13.398.404-.41 1.058-.41 1.462 0 .403.411.403 1.078 0 1.489-2.826 2.878-2.826 7.544 0 10.42 2.823 2.879 7.404 2.879 10.23 0 2.824-2.876 2.824-7.542-.001-10.42zm6.252-10.578v-4.21H4.133c-1.141 0-2.066.941-2.066 2.105 0 1.163.925 2.105 2.066 2.105h22.734z"/>
</svg>
