<svg xmlns="http://www.w3.org/2000/svg" width="38" height="38" fill="none" viewBox="0 0 38 38">
    <path fill="#313638" fill-rule="evenodd" d="M6.798 1.7h24.404c2.81 0 5.098 2.289 5.098 5.098v24.404c0 2.81-2.288 5.098-5.098 5.098H6.798c-2.81 0-5.098-2.288-5.098-5.098V6.798C1.7 3.988 3.989 1.7 6.798 1.7zM31.202 0H6.798C3.05 0 0 3.05 0 6.798v24.404C0 34.95 3.05 38 6.798 38h24.404C34.95 38 38 34.95 38 31.202V6.798C38 3.05 34.95 0 31.202 0zM29.94 18.688h1.958c.454 0 .823.376.823.84 0 .464-.369.84-.823.84H29.94c-.345 1.044-1.314 1.799-2.453 1.799-1.139 0-2.108-.755-2.453-1.8H6.26c-.455 0-.823-.375-.823-.84 0-.463.368-.839.823-.839h18.775c.345-1.044 1.314-1.8 2.453-1.8 1.139 0 2.108.755 2.453 1.8zm-3.394.84c0 .529.422.959.941.959.519 0 .94-.43.94-.96 0-.528-.421-.958-.94-.958-.519 0-.94.43-.94.959zM6.26 28.812h1.958c.345 1.044 1.314 1.8 2.453 1.8 1.139 0 2.107-.755 2.452-1.8H31.9c.454 0 .823-.376.823-.84 0-.464-.369-.84-.823-.84H13.123c-.345-1.044-1.313-1.799-2.452-1.799-1.14 0-2.108.755-2.453 1.8H6.26c-.455 0-.823.375-.823.84 0 .463.368.839.823.839zm4.41-1.799c.52 0 .941.43.941.96 0 .528-.422.958-.94.958-.519 0-.941-.43-.941-.959 0-.529.422-.959.94-.959zM8.219 10.868H6.26c-.455 0-.823-.376-.823-.84 0-.464.368-.84.823-.84h1.958c.345-1.044 1.314-1.8 2.453-1.8 1.139 0 2.107.756 2.452 1.8H31.9c.454 0 .823.376.823.84 0 .464-.369.84-.823.84H13.123c-.345 1.044-1.313 1.799-2.452 1.799-1.14 0-2.108-.755-2.453-1.8zm3.393-.84c0-.53-.422-.96-.94-.96-.519 0-.941.43-.941.96 0 .529.422.959.94.959.52 0 .941-.43.941-.96z" clip-rule="evenodd"/>
</svg>
