<svg xmlns="http://www.w3.org/2000/svg" width="40" height="28" fill="none" viewBox="0 0 40 28">
    <rect width="39" height="27.235" x=".5" y=".5" fill="#fff" stroke="#E2E2E2" rx="3.5"/>
    <path fill="#ED0006" fill-rule="evenodd" d="M20.21 19.8c-1.392 1.174-3.2 1.882-5.174 1.882-4.406 0-7.977-3.529-7.977-7.882s3.571-7.882 7.977-7.882c1.975 0 3.782.708 5.175 1.883 1.393-1.175 3.2-1.883 5.174-1.883 4.406 0 7.977 3.529 7.977 7.882s-3.571 7.882-7.977 7.882c-1.974 0-3.781-.708-5.174-1.883z" clip-rule="evenodd"/>
    <path fill="#F9A000" fill-rule="evenodd" d="M20.21 19.8c1.716-1.447 2.803-3.598 2.803-6s-1.087-4.554-2.802-6c1.393-1.174 3.2-1.882 5.174-1.882 4.406 0 7.977 3.529 7.977 7.882s-3.571 7.882-7.977 7.882c-1.974 0-3.781-.708-5.174-1.883z" clip-rule="evenodd"/>
    <path fill="#FF5E00" fill-rule="evenodd" d="M20.21 19.8c1.716-1.447 2.803-3.598 2.803-6s-1.087-4.554-2.802-6c-1.716 1.446-2.803 3.598-2.803 6s1.087 4.553 2.803 6z" clip-rule="evenodd"/>
</svg>
