<svg xmlns="http://www.w3.org/2000/svg" width="37" height="37" fill="none" viewBox="0 0 37 37">
    <path fill="#313638" fill-rule="evenodd" d="M11 4c0-2.21 1.79-4 4-4h18c2.21 0 4 1.79 4 4v18c0 2.21-1.79 4-4 4h-7.36v7.64c0 1.657-1.343 3-3 3H3c-1.657 0-3-1.343-3-3V14c0-1.657 1.343-3 3-3h8V4zm2 7h9.64c1.657 0 3 1.343 3 3v10H33c1.105 0 2-.895 2-2V4c0-1.105-.895-2-2-2H15c-1.105 0-2 .895-2 2v7zm15-3.45c0-.856.694-1.55 1.55-1.55.855 0 1.548.694 1.548 1.55 0 .855-.693 1.548-1.549 1.548-.855 0-1.549-.693-1.549-1.549zM18.55 6C17.693 6 17 6.694 17 7.55c0 .855.694 1.548 1.55 1.548.855 0 1.548-.693 1.548-1.549 0-.855-.693-1.549-1.549-1.549zM28 18.55c0-.856.694-1.55 1.55-1.55.855 0 1.548.694 1.548 1.55 0 .855-.693 1.548-1.549 1.548-.855 0-1.549-.693-1.549-1.549zM22.64 13h-7.2L2 26.44v7.2c0 .07.007.14.021.206L22.846 13.02c-.067-.014-.135-.021-.206-.021zM3 13h9.611L2 23.611V14c0-.552.448-1 1-1zm8.483 21.64H4.055L23.64 15.055v7.428L11.483 34.64zm2.828 0l9.329-9.329v8.329c0 .552-.448 1-1 1h-8.329z" clip-rule="evenodd"/>
</svg>
