<svg width="49" height="56" viewBox="0 0 49 56" fill="none" xmlns="http://www.w3.org/2000/svg">
<path fill-rule="evenodd" clip-rule="evenodd" d="M24.667 43.464V42.3425H25.5453C25.8003 42.3425 25.986 42.391 26.1025 42.488C26.2221 42.5822 26.2819 42.7206 26.2819 42.9032C26.2819 43.0859 26.2221 43.2257 26.1025 43.3227C25.986 43.4198 25.8003 43.4669 25.5453 43.464H24.667ZM24.2184 42V45.0564H24.667V43.8065H25.6964C26.0364 43.8093 26.293 43.7308 26.4661 43.571C26.6424 43.4112 26.7305 43.1886 26.7305 42.9032C26.7305 42.6178 26.6424 42.3967 26.4661 42.2397C26.293 42.0799 26.0364 42 25.6964 42H24.2184ZM27.507 43.952C27.507 43.8179 27.5259 43.6994 27.5637 43.5967C27.6046 43.4911 27.6597 43.4026 27.729 43.3313C27.7982 43.26 27.8785 43.2057 27.9698 43.1686C28.0642 43.1315 28.1634 43.113 28.2673 43.113C28.3712 43.113 28.4688 43.1315 28.5601 43.1686C28.6545 43.2057 28.7364 43.26 28.8056 43.3313C28.8749 43.4026 28.9284 43.4911 28.9662 43.5967C29.0071 43.6994 29.0276 43.8179 29.0276 43.952C29.0276 44.0861 29.0071 44.206 28.9662 44.3116C28.9284 44.4143 28.8749 44.5014 28.8056 44.5727C28.7364 44.6412 28.6545 44.694 28.5601 44.7311C28.4688 44.7682 28.3712 44.7867 28.2673 44.7867C28.1634 44.7867 28.0642 44.7682 27.9698 44.7311C27.8785 44.694 27.7982 44.6412 27.729 44.5727C27.6597 44.5014 27.6046 44.4143 27.5637 44.3116C27.5259 44.206 27.507 44.0861 27.507 43.952ZM27.082 43.952C27.082 44.1147 27.1072 44.2659 27.1576 44.4058C27.208 44.5456 27.2835 44.6683 27.3843 44.7739C27.485 44.8766 27.6094 44.958 27.7573 45.0179C27.9053 45.075 28.0753 45.1035 28.2673 45.1035C28.4625 45.1035 28.6325 45.075 28.7773 45.0179C28.9252 44.958 29.0496 44.8766 29.1503 44.7739C29.2511 44.6683 29.3266 44.5456 29.377 44.4058C29.4274 44.2659 29.4526 44.1147 29.4526 43.952C29.4526 43.7893 29.4274 43.6381 29.377 43.4982C29.3266 43.3556 29.2511 43.2328 29.1503 43.1301C29.0496 43.0245 28.9252 42.9418 28.7773 42.8818C28.6325 42.8219 28.4625 42.7919 28.2673 42.7919C28.0753 42.7919 27.9053 42.8219 27.7573 42.8818C27.6094 42.9418 27.485 43.0245 27.3843 43.1301C27.2835 43.2328 27.208 43.3556 27.1576 43.4982C27.1072 43.6381 27.082 43.7893 27.082 43.952ZM33.1227 42.8433L32.3435 45.0564H31.9185L31.4227 43.2971H31.4133L30.9222 45.0564H30.4877L29.7039 42.8433H30.1477L30.7002 44.654H30.7097L31.2008 42.8433H31.6399L32.1499 44.654H32.1594L32.7071 42.8433H33.1227ZM35.1995 43.738H33.7971C33.8033 43.6524 33.8238 43.5724 33.8584 43.4982C33.8931 43.4212 33.9403 43.3541 34.0001 43.2971C34.0599 43.24 34.1307 43.1957 34.2126 43.1644C34.2976 43.1301 34.392 43.113 34.4959 43.113C34.5967 43.113 34.688 43.1301 34.7698 43.1644C34.8548 43.1957 34.9272 43.24 34.987 43.2971C35.05 43.3513 35.0988 43.4169 35.1334 43.494C35.1712 43.571 35.1932 43.6524 35.1995 43.738ZM35.5867 44.3544H35.1901C35.1554 44.4999 35.083 44.6084 34.9729 44.6797C34.8658 44.7511 34.7273 44.7867 34.5573 44.7867C34.4251 44.7867 34.3102 44.7668 34.2126 44.7268C34.115 44.6869 34.0347 44.6341 33.9718 44.5684C33.9088 44.4999 33.8632 44.4229 33.8348 44.3373C33.8065 44.2488 33.7939 44.156 33.7971 44.059H35.6245C35.6308 43.9249 35.6166 43.7836 35.582 43.6352C35.5505 43.4868 35.4907 43.3498 35.4026 43.2243C35.3176 43.0987 35.2027 42.996 35.0579 42.9161C34.9162 42.8333 34.7368 42.7919 34.5195 42.7919C34.3527 42.7919 34.1984 42.8205 34.0568 42.8775C33.9183 42.9346 33.7971 43.0145 33.6932 43.1173C33.5924 43.22 33.5137 43.3413 33.4571 43.4811C33.4004 43.621 33.3721 43.7751 33.3721 43.9434C33.3784 44.1118 33.4051 44.2673 33.4523 44.41C33.5027 44.5527 33.5767 44.6754 33.6743 44.7782C33.7719 44.8809 33.8915 44.9608 34.0332 45.0179C34.178 45.075 34.348 45.1035 34.5431 45.1035C34.8202 45.1035 35.05 45.0407 35.2326 44.9152C35.4152 44.7896 35.5332 44.6027 35.5867 44.3544ZM36.0264 45.0564V42.8433H36.4042V43.3099H36.4136C36.5112 43.1301 36.6308 42.9974 36.7725 42.9118C36.9142 42.8262 37.0936 42.7862 37.3108 42.7919V43.1772C37.1503 43.1772 37.0133 43.1972 36.9 43.2371C36.7867 43.2771 36.6954 43.3356 36.6261 43.4126C36.5569 43.4897 36.5065 43.5839 36.475 43.6952C36.4435 43.8036 36.4278 43.9292 36.4278 44.0719V45.0564H36.0264ZM39.2253 43.738H37.8228C37.8291 43.6524 37.8496 43.5724 37.8842 43.4982C37.9189 43.4212 37.9661 43.3541 38.0259 43.2971C38.0857 43.24 38.1565 43.1957 38.2384 43.1644C38.3234 43.1301 38.4178 43.113 38.5217 43.113C38.6225 43.113 38.7137 43.1301 38.7956 43.1644C38.8806 43.1957 38.953 43.24 39.0128 43.2971C39.0758 43.3513 39.1246 43.4169 39.1592 43.494C39.197 43.571 39.219 43.6524 39.2253 43.738ZM39.6125 44.3544H39.2159C39.1812 44.4999 39.1088 44.6084 38.9986 44.6797C38.8916 44.7511 38.7531 44.7867 38.5831 44.7867C38.4509 44.7867 38.336 44.7668 38.2384 44.7268C38.1408 44.6869 38.0605 44.6341 37.9976 44.5684C37.9346 44.4999 37.889 44.4229 37.8606 44.3373C37.8323 44.2488 37.8197 44.156 37.8228 44.059H39.6503C39.6566 43.9249 39.6424 43.7836 39.6078 43.6352C39.5763 43.4868 39.5165 43.3498 39.4284 43.2243C39.3434 43.0987 39.2285 42.996 39.0836 42.9161C38.942 42.8333 38.7625 42.7919 38.5453 42.7919C38.3785 42.7919 38.2242 42.8205 38.0826 42.8775C37.944 42.9346 37.8228 43.0145 37.719 43.1173C37.6182 43.22 37.5395 43.3413 37.4828 43.4811C37.4262 43.621 37.3979 43.7751 37.3979 43.9434C37.4041 44.1118 37.4309 44.2673 37.4781 44.41C37.5285 44.5527 37.6025 44.6754 37.7001 44.7782C37.7977 44.8809 37.9173 44.9608 38.0589 45.0179C38.2038 45.075 38.3738 45.1035 38.5689 45.1035C38.846 45.1035 39.0758 45.0407 39.2584 44.9152C39.441 44.7896 39.559 44.6027 39.6125 44.3544ZM40.3969 43.6524C40.3717 43.7551 40.3591 43.8607 40.3591 43.9691C40.3591 44.0719 40.3733 44.1732 40.4016 44.2731C40.4331 44.3701 40.4788 44.4571 40.5386 44.5342C40.6015 44.6112 40.6802 44.6726 40.7747 44.7182C40.8723 44.7639 40.9856 44.7867 41.1147 44.7867C41.25 44.7867 41.3649 44.7625 41.4594 44.714C41.5538 44.6655 41.631 44.6027 41.6908 44.5256C41.7506 44.4457 41.7931 44.3558 41.8183 44.2559C41.8466 44.156 41.8608 44.0547 41.8608 43.952C41.8608 43.8436 41.8466 43.7394 41.8183 43.6395C41.7899 43.5368 41.7443 43.4469 41.6813 43.3698C41.6215 43.2928 41.5428 43.2314 41.4452 43.1858C41.3476 43.1372 41.2296 43.113 41.0911 43.113C40.9557 43.113 40.8408 43.1372 40.7463 43.1858C40.6519 43.2343 40.5764 43.2985 40.5197 43.3784C40.463 43.4583 40.4221 43.5496 40.3969 43.6524ZM42.248 42V45.0564H41.8466V44.7568H41.8372C41.771 44.8795 41.6672 44.968 41.5255 45.0222C41.3838 45.0764 41.228 45.1035 41.058 45.1035C40.8691 45.1035 40.7038 45.0721 40.5622 45.0093C40.4237 44.9466 40.3072 44.8624 40.2127 44.7568C40.1215 44.6512 40.0522 44.5285 40.005 44.3886C39.9578 44.2488 39.9341 44.1004 39.9341 43.9434C39.9341 43.7865 39.9562 43.6381 40.0003 43.4982C40.0475 43.3584 40.1167 43.2371 40.208 43.1344C40.3025 43.0288 40.4189 42.946 40.5575 42.8861C40.6991 42.8233 40.8628 42.7919 41.0486 42.7919C41.1115 42.7919 41.1792 42.7976 41.2516 42.8091C41.324 42.8205 41.3964 42.8404 41.4688 42.869C41.5412 42.8947 41.6089 42.9303 41.6719 42.976C41.738 43.0188 41.7931 43.073 41.8372 43.1387H41.8466V42H42.248ZM44.1939 42V45.0564H44.5953V44.7611H44.6048C44.6488 44.8267 44.7024 44.8823 44.7653 44.928C44.8314 44.9708 44.9007 45.0051 44.9731 45.0307C45.0455 45.0564 45.1179 45.075 45.1903 45.0864C45.2659 45.0978 45.3335 45.1035 45.3934 45.1035C45.5791 45.1035 45.7412 45.0735 45.8797 45.0136C46.0214 44.9537 46.1379 44.8724 46.2292 44.7696C46.3236 44.664 46.3929 44.5413 46.4369 44.4015C46.4842 44.2616 46.5078 44.1132 46.5078 43.9563C46.5078 43.7993 46.4842 43.6509 46.4369 43.5111C46.3897 43.3713 46.3189 43.2485 46.2245 43.1429C46.1332 43.0345 46.0167 42.9489 45.875 42.8861C45.7365 42.8233 45.5728 42.7919 45.3839 42.7919C45.2139 42.7919 45.0581 42.8205 44.9164 42.8775C44.7748 42.9318 44.6709 43.0202 44.6048 43.1429H44.5953V42H44.1939ZM46.0828 43.9306C46.0828 44.039 46.0702 44.1446 46.045 44.2474C46.0198 44.3501 45.9789 44.4414 45.9222 44.5213C45.8656 44.6012 45.79 44.6655 45.6956 44.714C45.6043 44.7625 45.4894 44.7867 45.3509 44.7867C45.2123 44.7867 45.0943 44.7639 44.9967 44.7182C44.8991 44.6697 44.8188 44.6069 44.7559 44.5299C44.6961 44.4528 44.652 44.3644 44.6237 44.2645C44.5953 44.1618 44.5812 44.0562 44.5812 43.9477C44.5812 43.845 44.5937 43.7437 44.6189 43.6438C44.6473 43.5439 44.6913 43.4554 44.7512 43.3784C44.811 43.2985 44.8881 43.2343 44.9825 43.1858C45.077 43.1372 45.1919 43.113 45.3273 43.113C45.4563 43.113 45.5681 43.1358 45.6625 43.1815C45.7601 43.2271 45.8388 43.2885 45.8986 43.3655C45.9616 43.4426 46.0072 43.5311 46.0356 43.6309C46.067 43.728 46.0828 43.8279 46.0828 43.9306ZM47.7958 45.6258C47.8431 45.5516 47.8903 45.4602 47.9375 45.3518L49 42.8433H48.575L47.8903 44.654H47.8808L47.1678 42.8433H46.7145L47.6825 45.0436L47.5172 45.416C47.4889 45.4816 47.4464 45.5316 47.3897 45.5658C47.3362 45.6029 47.2685 45.6215 47.1867 45.6215C47.1552 45.6215 47.1159 45.6158 47.0686 45.6044C47.0246 45.5958 46.9852 45.5844 46.9506 45.5701V45.904C46.9947 45.9183 47.0403 45.9283 47.0875 45.934C47.1348 45.9397 47.182 45.9425 47.2292 45.9425C47.3173 45.9425 47.3945 45.9311 47.4606 45.9083C47.5298 45.8883 47.5912 45.8541 47.6447 45.8055C47.7014 45.7599 47.7518 45.7 47.7958 45.6258ZM44.5153 55.5173H45.8706C45.977 55.5173 46.0567 55.4902 46.0301 55.3551L48.9801 47.7616C49.0066 47.7076 49.0066 47.6535 48.9801 47.5995C48.9535 47.5725 48.9269 47.5454 48.8738 47.5454H47.4386C47.3323 47.5454 47.2526 47.5995 47.226 47.6805L45.977 51.1936L44.7279 47.7076C44.6747 47.6265 44.595 47.5725 44.5153 47.5725H43.1333C43.0801 47.5725 43.027 47.5995 43.0004 47.6265C42.9738 47.6805 42.9738 47.7346 43.0004 47.7886L45.1797 53.3014L44.3824 55.3011C44.3558 55.3281 44.3292 55.3821 44.3558 55.4362C44.4089 55.4902 44.4621 55.5173 44.5153 55.5173ZM11.1886 52.7339C11.5873 53.1662 12.1454 53.4094 12.73 53.3824C13.3944 53.3824 14.0057 53.0311 14.3512 52.4636L14.4043 53.0581C14.4043 53.1392 14.4841 53.2203 14.5638 53.2203H15.9192C15.9989 53.2203 16.0786 53.1392 16.0786 53.0581V47.7616C16.0786 47.6805 15.9989 47.5995 15.9192 47.5995H14.5372C14.4575 47.5995 14.3778 47.6805 14.3778 47.7616V50.8152C14.3512 51.3827 13.8994 51.8421 13.3413 51.8421H13.3147C13.0755 51.8421 12.8363 51.761 12.6503 51.5989C12.4111 51.3557 12.2782 51.0314 12.3048 50.6801V47.7616C12.3048 47.6805 12.2251 47.5995 12.1454 47.5995H10.7634C10.6837 47.5995 10.6039 47.6805 10.6039 47.7616V50.9503C10.5508 51.5989 10.7634 52.2475 11.1886 52.7339ZM22.138 52.6258C22.5367 53.1122 23.1214 53.3824 23.7326 53.3554C24.4502 53.3554 25.1677 53.0581 25.7258 52.4636C26.2308 51.9232 26.4965 51.1665 26.4965 50.4099C26.4965 49.6532 26.2308 48.8966 25.7258 48.3021C25.2209 47.7346 24.5033 47.4373 23.7592 47.4373H23.706C23.1479 47.4373 22.643 47.6805 22.2709 48.0859V44.9782C22.2709 44.8972 22.1912 44.8161 22.1115 44.8161H20.7295C20.6498 44.8161 20.57 44.8972 20.57 44.9782V53.0852C20.57 53.1662 20.6498 53.2473 20.7295 53.2473H21.8988C21.9786 53.2473 22.0583 53.1662 22.0583 53.0852L22.138 52.6258ZM22.5898 49.4911C22.829 49.2209 23.1479 49.0858 23.4934 49.0858C23.5466 49.0858 23.5732 49.0858 23.5997 49.1128C24.2907 49.1398 24.8222 49.7613 24.7691 50.4639V50.545C24.7425 51.2476 24.1578 51.8151 23.4668 51.7881C22.7759 51.761 22.2178 51.1665 22.2443 50.4639C22.2443 50.1126 22.3506 49.7613 22.5898 49.4911ZM28.0114 52.4907C28.5961 53.0581 29.3668 53.3824 30.1641 53.3554C30.9614 53.3554 31.7055 53.0311 32.2636 52.4636C32.3433 52.4096 32.3699 52.3015 32.3167 52.2204L31.7321 51.6259C31.6789 51.5449 31.5726 51.5178 31.4929 51.5719C31.174 51.8151 30.8019 51.9232 30.4033 51.9232C29.6591 51.9232 29.1276 51.5719 28.9681 50.9774H32.3167C32.6622 50.9774 32.742 50.7071 32.742 50.2477C32.7685 49.5181 32.5028 48.8155 32.0244 48.2751C31.7852 48.0319 31.4929 47.8157 31.174 47.6805C30.8019 47.5454 30.4298 47.4644 30.0312 47.4644C28.4366 47.4914 27.1609 48.7885 27.1875 50.4099C27.1609 51.1936 27.4799 51.9502 28.0114 52.4907ZM28.915 49.9235C28.9681 49.329 29.4997 48.8966 30.0843 48.9506C30.669 48.9236 31.174 49.356 31.2271 49.9235H28.915ZM34.0176 53.3014H35.3996C35.4793 53.3014 35.5591 53.2203 35.6122 53.1392V50.3288C35.5856 50.0316 35.6919 49.7073 35.9045 49.4641C36.1172 49.2479 36.4095 49.1128 36.7284 49.1128C36.8879 49.1128 37.0207 49.1398 37.1536 49.1938H37.2068H37.2334C37.3397 49.2479 37.4725 49.1668 37.4991 49.0587L37.818 48.0318C37.8446 47.9508 37.8446 47.8427 37.7649 47.7886C37.5523 47.5995 37.2865 47.4914 36.9942 47.4914H36.9676C36.3298 47.4914 35.7717 47.8697 35.5325 48.4642L35.4793 47.8157C35.4793 47.7346 35.3996 47.6535 35.3199 47.6535H34.0176C33.9379 47.6535 33.8582 47.7346 33.8582 47.8157V53.1392C33.8582 53.2203 33.9379 53.3014 34.0176 53.3014ZM7.7337 53.3014H9.11566C9.19539 53.3014 9.27512 53.2203 9.27512 53.1392V49.8964C9.3017 49.2479 9.08908 48.5993 8.66386 48.1129C8.26522 47.6805 7.70712 47.4373 7.12244 47.4644H7.09586C6.32515 47.4644 5.60759 47.8427 5.1558 48.4912C4.81031 47.8697 4.17247 47.4644 3.45492 47.4644H3.42834C2.71078 47.4644 2.07295 47.8697 1.72746 48.4912L1.67431 47.7616C1.67431 47.6805 1.59458 47.5995 1.51485 47.5995H0.159458C0.0797288 47.5995 0 47.6805 0 47.7616V53.0852C0 53.1933 0.0797288 53.2473 0.159458 53.2743H1.568C1.64773 53.2743 1.72746 53.1933 1.72746 53.1122V50.1126C1.75403 49.8964 1.83376 49.6532 1.99322 49.4911C2.17925 49.2209 2.49817 49.0858 2.81708 49.0858C3.05627 49.0858 3.29546 49.1668 3.48149 49.329C3.72068 49.5722 3.82698 49.9235 3.80041 50.2748V53.1392C3.80041 53.2203 3.88014 53.3014 3.95986 53.3014H5.34183C5.42156 53.3014 5.50129 53.2203 5.50129 53.1392V50.0586C5.55444 49.5181 6.03281 49.0858 6.59092 49.0858C6.8301 49.0858 7.06929 49.1668 7.25532 49.329C7.49451 49.5722 7.60081 49.9235 7.57424 50.2748V53.1392C7.57424 53.2203 7.65397 53.3014 7.7337 53.3014ZM38.8014 53.2743H40.1833C40.2631 53.2473 40.3428 53.1933 40.3959 53.0852V50.2748C40.3959 49.5181 40.8477 49.0317 41.5387 49.0317H41.5653C41.6982 49.0317 41.8045 49.0587 41.9374 49.1128H41.9905C42.0171 49.1398 42.0437 49.1398 42.0702 49.1398C42.1765 49.1398 42.2563 49.0858 42.2828 49.0047L42.6549 48.0318C42.6815 47.9508 42.6815 47.8427 42.6018 47.7886C42.3626 47.5725 42.0702 47.4644 41.7513 47.4373C41.1135 47.4644 40.582 47.8427 40.3162 48.4102L40.2631 47.7616C40.2631 47.6805 40.1833 47.5995 40.1036 47.5995H38.8014C38.7216 47.5995 38.6419 47.6805 38.6419 47.7616V53.1122C38.6419 53.1933 38.7216 53.2743 38.8014 53.2743ZM17.6466 53.2743H19.0286C19.1083 53.2473 19.1881 53.1933 19.1615 53.0852V44.9782C19.1615 44.8972 19.0818 44.8161 19.002 44.8161H17.6201C17.5403 44.8161 17.4606 44.8972 17.4872 45.0053V53.1122C17.4872 53.1933 17.5669 53.2743 17.6466 53.2743Z" fill="#313638"/>
<path fill-rule="evenodd" clip-rule="evenodd" d="M24.9891 0.0182803C23.3126 1.60415 18.0366 4.45405 9.01674 3.1399C8.79778 3.108 10.5485 26.7757 24.9873 36.2776C24.9892 36.2875 24.9906 36.2922 24.9917 36.2915C24.9945 36.2896 24.9973 36.2878 25 36.286C25.0028 36.2878 25.0056 36.2896 25.0083 36.2915C25.0094 36.2922 25.0109 36.2875 25.0128 36.2776C39.4516 26.7757 41.2023 3.108 40.9833 3.1399C31.9635 4.45405 26.6875 1.60415 25.0109 0.0182802C25.0101 0.0121845 25.0092 0.00609113 25.0083 0C25.0056 0.00263789 25.0028 0.00527938 25 0.00792445C24.9973 0.00527938 24.9945 0.00263789 24.9917 0C24.9909 0.00609113 24.99 0.0121846 24.9891 0.0182803Z" fill="#B592B8"/>
<path fill-rule="evenodd" clip-rule="evenodd" d="M24.9999 1.66763C23.6368 2.98554 19.4373 5.62261 10.9077 5.09824C10.7256 5.08705 12.9515 25.1209 25 34.4676C25.0002 34.4678 25.0005 34.4675 25.0008 34.4667C25.0012 34.4675 25.0014 34.4678 25.0017 34.4676C37.0502 25.1209 39.276 5.08705 39.094 5.09824C30.5644 5.62261 26.3649 2.98554 25.0018 1.66763C25.0015 1.66995 25.0012 1.67226 25.0008 1.67457C25.0005 1.67226 25.0002 1.66995 24.9999 1.66763Z" fill="#3D273E"/>
<path fill-rule="evenodd" clip-rule="evenodd" d="M32.0983 11.7C31.5439 11.2088 30.6948 11.2656 30.2108 11.8264L24.3253 18.6452L22.1239 16.3687C21.6106 15.8378 20.7642 15.8236 20.2333 16.3369C19.7021 16.8506 19.6883 17.6978 20.2025 18.2285L23.095 21.2137C23.1402 21.3099 23.1983 21.4017 23.2692 21.4864C23.7637 22.0775 24.6682 22.0903 25.1793 21.5135L32.2118 13.5762C32.6985 13.0268 32.6478 12.1868 32.0983 11.7Z" fill="white"/>
</svg>
