<svg width="122" height="27" viewBox="0 0 122 27" fill="none" xmlns="http://www.w3.org/2000/svg">
<path fill-rule="evenodd" clip-rule="evenodd" d="M43.7965 4.59935V2.60804H45.356C45.8087 2.60804 46.1385 2.69417 46.3453 2.86645C46.5577 3.03366 46.6639 3.27941 46.6639 3.60369C46.6639 3.92798 46.5577 4.17626 46.3453 4.34853C46.1385 4.52081 45.8087 4.60442 45.356 4.59935H43.7965ZM43 2V7.42671H43.7965V5.20738H45.6242C46.2279 5.21245 46.6834 5.07311 46.9909 4.78936C47.3039 4.50561 47.4604 4.11039 47.4604 3.60369C47.4604 3.097 47.3039 2.70431 46.9909 2.42562C46.6834 2.14187 46.2279 2 45.6242 2H43ZM48.8391 5.4658C48.8391 5.22765 48.8726 5.01737 48.9397 4.83496C49.0123 4.64748 49.1101 4.49041 49.2331 4.36374C49.3561 4.23706 49.4986 4.14079 49.6607 4.07492C49.8284 4.00905 50.0045 3.97611 50.1889 3.97611C50.3734 3.97611 50.5466 4.00905 50.7087 4.07492C50.8764 4.14079 51.0217 4.23706 51.1447 4.36374C51.2677 4.49041 51.3627 4.64748 51.4298 4.83496C51.5024 5.01737 51.5388 5.22765 51.5388 5.4658C51.5388 5.70394 51.5024 5.91676 51.4298 6.10423C51.3627 6.28664 51.2677 6.44119 51.1447 6.56786C51.0217 6.68947 50.8764 6.78321 50.7087 6.84908C50.5466 6.91495 50.3734 6.94788 50.1889 6.94788C50.0045 6.94788 49.8284 6.91495 49.6607 6.84908C49.4986 6.78321 49.3561 6.68947 49.2331 6.56786C49.1101 6.44119 49.0123 6.28664 48.9397 6.10423C48.8726 5.91676 48.8391 5.70394 48.8391 5.4658ZM48.0845 5.4658C48.0845 5.75461 48.1292 6.02316 48.2186 6.27144C48.3081 6.51972 48.4422 6.7376 48.6211 6.92508C48.7999 7.10749 49.0207 7.2519 49.2834 7.35831C49.5461 7.45965 49.8479 7.51031 50.1889 7.51031C50.5354 7.51031 50.8373 7.45965 51.0944 7.35831C51.3571 7.2519 51.5779 7.10749 51.7567 6.92508C51.9356 6.7376 52.0698 6.51972 52.1592 6.27144C52.2486 6.02316 52.2933 5.75461 52.2933 5.4658C52.2933 5.17698 52.2486 4.90843 52.1592 4.66015C52.0698 4.4068 51.9356 4.18892 51.7567 4.00651C51.5779 3.81904 51.3571 3.6721 51.0944 3.56569C50.8373 3.45928 50.5354 3.40608 50.1889 3.40608C49.8479 3.40608 49.5461 3.45928 49.2834 3.56569C49.0207 3.6721 48.7999 3.81904 48.6211 4.00651C48.4422 4.18892 48.3081 4.4068 48.2186 4.66015C48.1292 4.90843 48.0845 5.17698 48.0845 5.4658ZM58.8097 3.49729L57.4263 7.42671H56.6717L55.7914 4.30293H55.7746L54.9026 7.42671H54.1313L52.7395 3.49729H53.5276L54.5086 6.71227H54.5254L55.3973 3.49729H56.177L57.0825 6.71227H57.0993L58.0719 3.49729H58.8097ZM62.4971 5.08578H60.007C60.0182 4.93377 60.0545 4.79189 60.116 4.66015C60.1775 4.52334 60.2613 4.40427 60.3675 4.30293C60.4737 4.20159 60.5995 4.12305 60.7448 4.06732C60.8958 4.00651 61.0634 3.97611 61.2479 3.97611C61.4268 3.97611 61.5888 4.00651 61.7342 4.06732C61.8851 4.12305 62.0136 4.20159 62.1198 4.30293C62.2316 4.3992 62.3183 4.51574 62.3797 4.65255C62.4468 4.78936 62.486 4.93377 62.4971 5.08578ZM63.1846 6.18024H62.4804C62.4189 6.43865 62.2903 6.6312 62.0947 6.75787C61.9046 6.88455 61.6587 6.94788 61.3569 6.94788C61.1221 6.94788 60.9181 6.91241 60.7448 6.84148C60.5716 6.77054 60.429 6.6768 60.3172 6.56026C60.2055 6.43865 60.1244 6.30185 60.0741 6.14984C60.0238 5.99276 60.0014 5.82809 60.007 5.65581H63.2517C63.2629 5.41766 63.2377 5.16685 63.1762 4.90337C63.1203 4.63988 63.0142 4.39667 62.8576 4.17372C62.7067 3.95078 62.5027 3.76837 62.2456 3.62649C61.9941 3.47955 61.6755 3.40608 61.2898 3.40608C60.9936 3.40608 60.7197 3.45675 60.4682 3.55809C60.2222 3.65943 60.007 3.8013 59.8226 3.98371C59.6437 4.16612 59.504 4.38147 59.4034 4.62975C59.3028 4.87803 59.2525 5.15165 59.2525 5.4506C59.2636 5.74955 59.3111 6.0257 59.395 6.27904C59.4844 6.53239 59.6158 6.75027 59.789 6.93268C59.9623 7.11509 60.1747 7.25697 60.4262 7.35831C60.6834 7.45965 60.9852 7.51031 61.3317 7.51031C61.8236 7.51031 62.2316 7.39884 62.5558 7.1759C62.88 6.95295 63.0896 6.62106 63.1846 6.18024ZM63.9653 7.42671V3.49729H64.636V4.32573H64.6528C64.826 4.00652 65.0385 3.7709 65.29 3.61889C65.5415 3.46688 65.8601 3.39595 66.2458 3.40608V4.09012C65.9607 4.09012 65.7176 4.12559 65.5163 4.19653C65.3151 4.26746 65.153 4.37134 65.0301 4.50814C64.9071 4.64495 64.8177 4.81216 64.7618 5.00977C64.7059 5.20232 64.6779 5.42526 64.6779 5.67861V7.42671H63.9653ZM69.645 5.08578H67.1549C67.166 4.93377 67.2024 4.79189 67.2639 4.66015C67.3253 4.52334 67.4092 4.40427 67.5154 4.30293C67.6216 4.20159 67.7473 4.12305 67.8927 4.06732C68.0436 4.00651 68.2113 3.97611 68.3957 3.97611C68.5746 3.97611 68.7367 4.00651 68.882 4.06732C69.0329 4.12305 69.1615 4.20159 69.2677 4.30293C69.3795 4.3992 69.4661 4.51574 69.5276 4.65255C69.5947 4.78936 69.6338 4.93377 69.645 5.08578ZM70.3325 6.18024H69.6282C69.5667 6.43865 69.4382 6.6312 69.2425 6.75787C69.0525 6.88455 68.8065 6.94788 68.5047 6.94788C68.27 6.94788 68.0659 6.91241 67.8927 6.84148C67.7194 6.77054 67.5769 6.6768 67.4651 6.56026C67.3533 6.43865 67.2722 6.30185 67.2219 6.14984C67.1716 5.99276 67.1493 5.82809 67.1549 5.65581H70.3995C70.4107 5.41766 70.3856 5.16685 70.3241 4.90337C70.2682 4.63988 70.162 4.39667 70.0055 4.17372C69.8546 3.95078 69.6506 3.76837 69.3934 3.62649C69.1419 3.47955 68.8233 3.40608 68.4376 3.40608C68.1414 3.40608 67.8675 3.45675 67.616 3.55809C67.3701 3.65943 67.1549 3.8013 66.9704 3.98371C66.7915 4.16612 66.6518 4.38147 66.5512 4.62975C66.4506 4.87803 66.4003 5.15165 66.4003 5.4506C66.4115 5.74955 66.459 6.0257 66.5428 6.27904C66.6322 6.53239 66.7636 6.75027 66.9369 6.93268C67.1101 7.11509 67.3225 7.25697 67.5741 7.35831C67.8312 7.45965 68.133 7.51031 68.4796 7.51031C68.9714 7.51031 69.3795 7.39884 69.7037 7.1759C70.0278 6.95295 70.2374 6.62106 70.3325 6.18024ZM71.7252 4.93377C71.6804 5.11618 71.6581 5.30366 71.6581 5.4962C71.6581 5.67861 71.6832 5.85849 71.7335 6.03583C71.7894 6.20811 71.8705 6.36265 71.9767 6.49946C72.0885 6.63627 72.2282 6.7452 72.3959 6.82628C72.5692 6.90735 72.7704 6.94788 72.9995 6.94788C73.2399 6.94788 73.4439 6.90481 73.6116 6.81868C73.7793 6.73254 73.9162 6.62106 74.0224 6.48426C74.1286 6.34238 74.2041 6.18277 74.2488 6.00543C74.2991 5.82809 74.3242 5.64821 74.3242 5.4658C74.3242 5.27325 74.2991 5.08831 74.2488 4.91097C74.1985 4.72856 74.1174 4.56895 74.0056 4.43214C73.8995 4.29533 73.7597 4.18639 73.5864 4.10532C73.4132 4.01918 73.2036 3.97611 72.9576 3.97611C72.7173 3.97611 72.5133 4.01918 72.3456 4.10532C72.1779 4.19146 72.0438 4.30547 71.9431 4.44734C71.8425 4.58921 71.7699 4.75136 71.7252 4.93377ZM75.0117 2V7.42671H74.2991V6.89468H74.2823C74.1649 7.11256 73.9805 7.26963 73.729 7.36591C73.4774 7.46218 73.2008 7.51031 72.8989 7.51031C72.5636 7.51031 72.2701 7.45458 72.0186 7.34311C71.7727 7.23163 71.5659 7.08216 71.3982 6.89468C71.2361 6.7072 71.1131 6.48932 71.0293 6.24104C70.9454 5.99276 70.9035 5.72928 70.9035 5.4506C70.9035 5.17191 70.9426 4.90843 71.0209 4.66015C71.1047 4.41187 71.2277 4.19653 71.3898 4.01412C71.5575 3.82664 71.7643 3.6797 72.0102 3.57329C72.2617 3.46182 72.5524 3.40608 72.8822 3.40608C72.994 3.40608 73.1141 3.41621 73.2427 3.43648C73.3712 3.45675 73.4998 3.49222 73.6284 3.54289C73.7569 3.58849 73.8771 3.65183 73.9889 3.7329C74.1063 3.8089 74.2041 3.90518 74.2823 4.02172H74.2991V2H75.0117ZM78.4668 2V7.42671H79.1795V6.90228H79.1962C79.2745 7.01882 79.3695 7.11763 79.4813 7.1987C79.5987 7.2747 79.7216 7.33551 79.8502 7.38111C79.9788 7.42671 80.1073 7.45965 80.2359 7.47991C80.37 7.50018 80.4902 7.51031 80.5964 7.51031C80.9262 7.51031 81.214 7.45711 81.46 7.35071C81.7115 7.2443 81.9183 7.09989 82.0804 6.91748C82.2481 6.73 82.371 6.51212 82.4493 6.26384C82.5331 6.01556 82.5751 5.75208 82.5751 5.4734C82.5751 5.19472 82.5331 4.93123 82.4493 4.68295C82.3654 4.43467 82.2397 4.21679 82.072 4.02932C81.9099 3.83677 81.7031 3.68476 81.4516 3.57329C81.2056 3.46182 80.915 3.40608 80.5796 3.40608C80.2778 3.40608 80.0011 3.45675 79.7496 3.55809C79.4981 3.65436 79.3136 3.81144 79.1962 4.02932H79.1795V2H78.4668ZM81.8205 5.4278C81.8205 5.62034 81.7981 5.80782 81.7534 5.99023C81.7087 6.17264 81.636 6.33478 81.5354 6.47666C81.4348 6.61853 81.3007 6.73254 81.133 6.81868C80.9709 6.90481 80.7669 6.94788 80.5209 6.94788C80.275 6.94788 80.0654 6.90735 79.8921 6.82628C79.7188 6.74014 79.5763 6.62866 79.4645 6.49186C79.3583 6.35505 79.2801 6.19797 79.2298 6.02063C79.1795 5.83822 79.1543 5.65074 79.1543 5.4582C79.1543 5.27579 79.1767 5.09591 79.2214 4.91857C79.2717 4.74122 79.3499 4.58415 79.4561 4.44734C79.5623 4.30547 79.6993 4.19146 79.867 4.10532C80.0347 4.01918 80.2387 3.97611 80.479 3.97611C80.7082 3.97611 80.9066 4.01665 81.0743 4.09772C81.2476 4.17879 81.3873 4.28773 81.4935 4.42454C81.6053 4.56135 81.6863 4.71842 81.7366 4.89577C81.7925 5.06804 81.8205 5.24539 81.8205 5.4278ZM84.862 8.43757C84.9459 8.30583 85.0297 8.14368 85.1136 7.95114L87 3.49729H86.2454L85.0297 6.71227H85.013L83.7469 3.49729H82.9421L84.6608 7.40391L84.3674 8.06515C84.3171 8.18169 84.2416 8.27036 84.141 8.33116C84.046 8.39703 83.9258 8.42997 83.7805 8.42997C83.7246 8.42997 83.6547 8.41983 83.5709 8.39957C83.4926 8.38437 83.4228 8.3641 83.3613 8.33876V8.9316C83.4395 8.95693 83.5206 8.97467 83.6044 8.9848C83.6883 8.99493 83.7721 9 83.8559 9C84.0124 9 84.1494 8.97973 84.2668 8.9392C84.3897 8.90373 84.4987 8.84292 84.5937 8.75679C84.6944 8.67571 84.7838 8.56931 84.862 8.43757ZM79.0373 26H81.4438C81.6325 26 81.7741 25.952 81.7269 25.7121L86.9646 12.2298C87.0118 12.1338 87.0118 12.0379 86.9646 11.9419C86.9174 11.8939 86.8702 11.846 86.7759 11.846H84.2278C84.039 11.846 83.8975 11.9419 83.8503 12.0859L81.6325 18.3232L79.4148 12.1338C79.3204 11.9899 79.1788 11.8939 79.0373 11.8939H76.5836C76.4892 11.8939 76.3949 11.9419 76.3477 11.9899C76.3005 12.0859 76.3005 12.1818 76.3477 12.2778L80.2169 22.0657L78.8014 25.6162C78.7542 25.6641 78.707 25.7601 78.7542 25.8561C78.8485 25.952 78.9429 26 79.0373 26ZM19.8655 21.0581C20.5733 21.8258 21.5642 22.2576 22.6023 22.2096C23.782 22.2096 24.8673 21.5859 25.4807 20.5783L25.5751 21.6338C25.5751 21.7778 25.7166 21.9217 25.8582 21.9217H28.2647C28.4062 21.9217 28.5478 21.7778 28.5478 21.6338V12.2298C28.5478 12.0859 28.4062 11.9419 28.2647 11.9419H25.811C25.6694 11.9419 25.5279 12.0859 25.5279 12.2298V17.6515C25.4807 18.6591 24.6785 19.4747 23.6876 19.4747H23.6404C23.2157 19.4747 22.791 19.3308 22.4607 19.0429C22.0361 18.6111 21.8001 18.0354 21.8473 17.4116V12.2298C21.8473 12.0859 21.7058 11.9419 21.5642 11.9419H19.1105C18.9689 11.9419 18.8274 12.0859 18.8274 12.2298V17.8914C18.733 19.0429 19.1105 20.1944 19.8655 21.0581ZM39.3063 20.8662C40.0141 21.7298 41.0522 22.2096 42.1375 22.1616C43.4115 22.1616 44.6856 21.6338 45.6765 20.5783C46.573 19.6187 47.0449 18.2753 47.0449 16.9318C47.0449 15.5884 46.573 14.2449 45.6765 13.1894C44.7799 12.1818 43.5059 11.654 42.1847 11.654H42.0903C41.0994 11.654 40.2029 12.0859 39.5422 12.8056V7.28788C39.5422 7.14394 39.4007 7 39.2591 7H36.8054C36.6639 7 36.5223 7.14394 36.5223 7.28788V21.6818C36.5223 21.8258 36.6639 21.9697 36.8054 21.9697H38.8816C39.0232 21.9697 39.1647 21.8258 39.1647 21.6818L39.3063 20.8662ZM40.1085 15.3005C40.5332 14.8207 41.0994 14.5808 41.7128 14.5808C41.8072 14.5808 41.8544 14.5808 41.9016 14.6288C43.1284 14.6768 44.0721 15.7803 43.9778 17.0278V17.1717C43.9306 18.4192 42.8925 19.4268 41.6656 19.3788C40.4388 19.3308 39.4479 18.2753 39.495 17.0278C39.495 16.404 39.6838 15.7803 40.1085 15.3005ZM49.7345 20.6263C50.7726 21.6338 52.141 22.2096 53.5566 22.1616C54.9722 22.1616 56.2934 21.5859 57.2843 20.5783C57.4259 20.4823 57.4731 20.2904 57.3787 20.1465L56.3406 19.0909C56.2462 18.947 56.0575 18.899 55.9159 18.9949C55.3497 19.4268 54.6891 19.6187 53.9813 19.6187C52.6601 19.6187 51.7163 18.9949 51.4332 17.9394H57.3787C57.9921 17.9394 58.1337 17.4596 58.1337 16.6439C58.1809 15.3485 57.709 14.101 56.8597 13.1414C56.435 12.7096 55.9159 12.3258 55.3497 12.0859C54.6891 11.846 54.0285 11.702 53.3207 11.702C50.4895 11.75 48.2245 14.053 48.2717 16.9318C48.2245 18.3232 48.7908 19.6667 49.7345 20.6263ZM51.3388 16.0682C51.4332 15.0126 52.3769 14.2449 53.4151 14.3409C54.4532 14.2929 55.3497 15.0606 55.4441 16.0682H51.3388ZM60.3986 22.0657H62.8523C62.9939 22.0657 63.1355 21.9217 63.2298 21.7778V16.7879C63.1826 16.2601 63.3714 15.6843 63.7489 15.2525C64.1264 14.8687 64.6454 14.6288 65.2117 14.6288C65.4948 14.6288 65.7307 14.6768 65.9666 14.7727H66.061H66.1082C66.297 14.8687 66.5329 14.7247 66.5801 14.5328L67.1463 12.7096C67.1935 12.5657 67.1935 12.3737 67.0519 12.2778C66.6744 11.9419 66.2026 11.75 65.6835 11.75H65.6363C64.5039 11.75 63.5129 12.4217 63.0883 13.4773L62.9939 12.3258C62.9939 12.1818 62.8523 12.0379 62.7108 12.0379H60.3986C60.2571 12.0379 60.1155 12.1818 60.1155 12.3258V21.7778C60.1155 21.9217 60.2571 22.0657 60.3986 22.0657ZM13.7313 22.0657H16.1849C16.3265 22.0657 16.4681 21.9217 16.4681 21.7778V16.0202C16.5153 14.8687 16.1378 13.7172 15.3828 12.8535C14.675 12.0859 13.6841 11.654 12.646 11.702H12.5988C11.2304 11.702 9.95634 12.3737 9.15417 13.5253C8.54075 12.4217 7.40827 11.702 6.13424 11.702H6.08705C4.81302 11.702 3.68054 12.4217 3.06712 13.5253L2.97275 12.2298C2.97275 12.0859 2.83119 11.9419 2.68963 11.9419H0.283119C0.141559 11.9419 0 12.0859 0 12.2298V21.6818C0 21.8737 0.141559 21.9697 0.283119 22.0177H2.784C2.92556 22.0177 3.06712 21.8737 3.06712 21.7298V16.404C3.11431 16.0202 3.25586 15.5884 3.53898 15.3005C3.86929 14.8207 4.43553 14.5808 5.00176 14.5808C5.42644 14.5808 5.85112 14.7247 6.18142 15.0126C6.6061 15.4444 6.79485 16.0682 6.74766 16.6919V21.7778C6.74766 21.9217 6.88922 22.0657 7.03078 22.0657H9.48448C9.62603 22.0657 9.76759 21.9217 9.76759 21.7778V16.3081C9.86197 15.3485 10.7113 14.5808 11.7022 14.5808C12.1269 14.5808 12.5516 14.7247 12.8819 15.0126C13.3066 15.4444 13.4953 16.0682 13.4481 16.6919V21.7778C13.4481 21.9217 13.5897 22.0657 13.7313 22.0657ZM68.8922 22.0177H71.3459C71.4875 21.9697 71.629 21.8737 71.7234 21.6818V16.6919C71.7234 15.3485 72.5256 14.4848 73.7524 14.4848H73.7996C74.0355 14.4848 74.2243 14.5328 74.4602 14.6288H74.5546C74.6018 14.6768 74.6489 14.6768 74.6961 14.6768C74.8849 14.6768 75.0264 14.5808 75.0736 14.4369L75.7342 12.7096C75.7814 12.5657 75.7814 12.3737 75.6399 12.2778C75.2152 11.8939 74.6961 11.702 74.1299 11.654C72.9974 11.702 72.0537 12.3737 71.5818 13.3813L71.4875 12.2298C71.4875 12.0859 71.3459 11.9419 71.2043 11.9419H68.8922C68.7506 11.9419 68.6091 12.0859 68.6091 12.2298V21.7298C68.6091 21.8737 68.7506 22.0177 68.8922 22.0177ZM31.3318 22.0177H33.7855C33.9271 21.9697 34.0686 21.8737 34.0214 21.6818V7.28788C34.0214 7.14394 33.8799 7 33.7383 7H31.2846C31.1431 7 31.0015 7.14394 31.0487 7.33586V21.7298C31.0487 21.8737 31.1902 22.0177 31.3318 22.0177Z" fill="#313638"/>
<path fill-rule="evenodd" clip-rule="evenodd" d="M109.89 0.0136493C108.643 1.193 104.72 3.31225 98.0124 2.335C97.8496 2.31127 99.1515 19.9118 109.889 26.9779C109.89 26.9853 109.891 26.9888 109.892 26.9882C109.894 26.9869 109.896 26.9855 109.898 26.9841C109.901 26.9855 109.903 26.9869 109.905 26.9882C109.905 26.9888 109.907 26.9853 109.908 26.9779C120.645 19.9118 121.947 2.31127 121.784 2.335C115.077 3.31225 111.153 1.193 109.907 0.0136493C109.906 0.00909781 109.905 0.00454804 109.905 0C109.903 0.00196966 109.901 0.00394201 109.898 0.00591705C109.896 0.00394201 109.894 0.00196966 109.892 0C109.892 0.00454804 109.891 0.0090978 109.89 0.0136493Z" fill="#B592B8"/>
<path fill-rule="evenodd" clip-rule="evenodd" d="M109.898 1.24014C108.885 2.2202 105.762 4.18127 99.4188 3.79132C99.2834 3.783 100.939 18.6812 109.899 25.6319C109.899 25.632 109.899 25.6319 109.899 25.6314C109.899 25.6319 109.9 25.632 109.9 25.6319C118.86 18.6812 120.515 3.783 120.38 3.79132C114.036 4.18127 110.914 2.2202 109.9 1.24014C109.9 1.24177 109.899 1.24339 109.899 1.24502C109.899 1.24339 109.899 1.24177 109.898 1.24014Z" fill="#3D273E"/>
<path fill-rule="evenodd" clip-rule="evenodd" d="M115.177 8.70073C114.765 8.33541 114.133 8.37769 113.774 8.7947L109.397 13.8656L107.76 12.1726C107.378 11.7778 106.748 11.7673 106.354 12.149C105.959 12.531 105.948 13.161 106.331 13.5557L108.482 15.7758C108.516 15.8473 108.559 15.9154 108.611 15.9784C108.979 16.418 109.652 16.4275 110.032 15.9986L115.262 10.096C115.624 9.68738 115.586 9.06272 115.177 8.70073Z" fill="white"/>
</svg>
