<svg width="30" height="30" viewBox="0 0 30 30" fill="none" xmlns="http://www.w3.org/2000/svg">
<path fill-rule="evenodd" clip-rule="evenodd" d="M26.1434 19.9586C26.1943 19.9948 26.2371 20.0426 28.7133 22.5189C30.6324 24.4377 30.371 27.6102 28.1544 29.2067C27.428 29.7297 26.5632 29.9847 25.6876 29.9847C24.4942 29.9847 23.2806 29.5115 22.3678 28.5987C20.0282 26.2591 19.994 26.2278 19.9653 26.1921C19.9632 26.1896 19.9612 26.187 19.9583 26.1835L14.3518 19.3702L11.9439 21.778C12.7335 23.9942 12.1881 26.5041 10.4986 28.1936C9.31981 29.3723 7.74153 29.9942 6.14251 29.9943C5.2452 29.9943 4.34157 29.7985 3.49794 29.3955C2.95149 29.1345 2.8268 28.4099 3.25536 27.9814L5.52838 25.7084C5.8718 25.365 5.8718 24.8093 5.52838 24.4659C5.18579 24.1234 4.6285 24.1233 4.28579 24.4659L2.01288 26.7389C1.58473 27.167 0.860162 27.0432 0.598775 26.4963C-0.522533 24.1491 -0.0394866 21.3358 1.80071 19.4956C3.49008 17.8061 6.00012 17.2607 8.21614 18.0504L11.0357 15.231C11.0319 15.2266 11.028 15.2223 11.024 15.218C11.0157 15.2089 11.0074 15.1997 10.9996 15.1898C10.9209 15.0885 10.8766 15.0275 10.8307 14.9676C10.5972 14.6631 10.3222 14.3905 5.25253 9.01479L4.64971 9.6176C4.24624 10.0211 3.56907 9.93858 3.27504 9.44838L0.45147 4.74243C-0.288686 3.50891 -0.0951507 1.9369 0.922037 0.919711C1.93928 -0.0975349 3.51118 -0.291011 4.74475 0.449145L9.45065 3.27272C9.93991 3.56627 10.0242 4.24315 9.61987 4.64739L8.98067 5.28659C14.0505 10.6624 14.3144 10.9739 14.6315 11.2156C14.6958 11.2646 14.7622 11.3108 14.8713 11.3956L18.0511 8.21616C17.2614 6.00002 17.8069 3.49016 19.4964 1.80067C21.3366 -0.0394685 24.1499 -0.522515 26.497 0.598735C27.0435 0.859711 27.1682 1.58428 26.7396 2.01278L24.4666 4.28575C24.1232 4.62916 24.1232 5.18487 24.4666 5.52829C24.8094 5.87088 25.3667 5.87082 25.7092 5.52829L27.9822 3.25537C28.4102 2.82723 29.1349 2.9511 29.3963 3.49795C30.5175 5.84504 30.0345 8.65842 28.1943 10.4986C26.5052 12.1877 23.9954 12.7338 21.7787 11.9439L19.0216 14.7008L26.1288 19.9482C26.1347 19.9525 26.1391 19.9555 26.1434 19.9586ZM4.64971 7.13252C4.99864 6.78354 5.56963 6.78987 5.91024 7.15098C11.735 13.3273 11.958 13.5401 12.1388 13.7842C12.1748 13.8328 12.2091 13.8827 12.2856 13.9811L13.619 12.6478C13.5197 12.5705 13.4672 12.5369 13.4168 12.5006C13.1633 12.3181 12.9595 12.0667 7.1168 5.87141C6.79073 5.52571 6.7987 4.98336 7.13473 4.64733L7.58163 4.20055L3.84059 1.95594C3.29983 1.63145 2.61059 1.71618 2.16458 2.16225C1.71856 2.60827 1.63378 3.2975 1.95827 3.83832L4.20282 7.57936L4.64971 7.13252ZM10.1149 21.9503C9.95438 21.6143 10.0231 21.2136 10.2864 20.9503L20.951 10.2864C21.2144 10.0231 21.6151 9.9544 21.951 10.1149C23.6275 10.9157 25.6371 10.5706 26.9517 9.25596C27.9453 8.26233 28.3851 6.87161 28.1948 5.52776L26.9517 6.77088C25.924 7.79856 24.2517 7.79862 23.224 6.77088C22.7261 6.27295 22.4519 5.61108 22.4519 4.90702C22.4519 4.20295 22.7261 3.54096 23.224 3.04315L24.4671 1.80002C23.1233 1.60965 21.7327 2.0494 20.7389 3.04315C19.4244 4.3577 19.0791 6.36735 19.88 8.04377C20.0405 8.37981 19.9718 8.78047 19.7085 9.04379L9.04383 19.7077C8.7804 19.9711 8.37979 20.0397 8.04381 19.8792C6.36733 19.0784 4.3578 19.4234 3.04319 20.7381C2.04956 21.7317 1.60975 23.1225 1.80006 24.4663L3.04319 23.2232C4.07087 22.1955 5.74319 22.1955 6.77086 23.2232C7.80118 24.2534 7.801 25.9208 6.77086 26.9509L5.52774 28.194C5.73264 28.2231 5.93854 28.2374 6.14403 28.2374C7.28649 28.2375 8.41383 27.7931 9.25606 26.9509C10.5706 25.6364 10.9158 23.6268 10.1149 21.9503ZM17.765 15.9573L15.5965 18.1256C15.6008 18.1297 15.604 18.1328 15.6072 18.1359C15.6454 18.1728 15.6776 18.2159 17.3346 20.2295L19.9751 17.589L17.765 15.9573ZM23.6102 27.3562C24.5905 28.3364 26.1025 28.5188 27.1273 27.7808C28.5138 26.7822 28.5854 24.876 27.4707 23.7614L25.0322 21.3228L21.4047 18.6445L18.4563 21.5928L21.2881 25.0341L23.6102 27.3562ZM22.6991 21.3374L26.2136 24.8519C26.5567 25.1951 26.5567 25.7513 26.2136 26.0945C25.8705 26.4376 25.3141 26.4375 24.9711 26.0945L21.4566 22.58C21.1134 22.2368 21.1134 21.6805 21.4566 21.3374C21.7997 20.9943 22.356 20.9943 22.6991 21.3374Z" fill="#313638"/>
</svg>
