<svg xmlns="http://www.w3.org/2000/svg" width="40" height="28" fill="none" viewBox="0 0 40 28">
    <rect width="39" height="27.235" x=".5" y=".5" fill="#fff" stroke="#E2E2E2" rx="3.5"/>
    <path fill="#28356A" fill-rule="evenodd" d="M17.193 21.704l.26-1.705-.579-.014h-2.762l1.92-12.58c.006-.039.025-.074.053-.1.028-.024.065-.038.102-.038h4.658c1.546 0 2.614.332 3.17.989.262.308.428.63.509.984.084.371.085.815.003 1.357l-.006.039v.347l.261.153c.22.12.395.259.53.417.223.263.367.598.428.994.063.408.042.894-.061 1.444-.12.632-.312 1.183-.572 1.633-.24.415-.544.76-.906 1.027-.346.253-.756.446-1.22.569-.45.12-.964.182-1.526.182h-.363c-.259 0-.51.096-.708.27-.198.176-.33.417-.37.681l-.027.153-.459 3.006-.02.11c-.006.035-.016.052-.03.064-.012.01-.03.018-.047.018h-2.238z" clip-rule="evenodd"/>
    <path fill="#298FC2" fill-rule="evenodd" d="M25.03 10.676c-.014.092-.03.186-.048.282-.614 3.26-2.715 4.386-5.4 4.386h-1.366c-.328 0-.605.246-.656.58l-.897 5.887c-.034.22.13.418.345.418h2.423c.287 0 .531-.216.576-.508l.024-.128.456-2.993.03-.164c.044-.293.289-.509.576-.509h.362c2.348 0 4.187-.985 4.724-3.837.224-1.191.108-2.186-.486-2.885-.18-.211-.402-.386-.663-.529z" clip-rule="evenodd"/>
    <path fill="#22284F" fill-rule="evenodd" d="M24.387 10.411c-.094-.028-.19-.054-.29-.077-.1-.022-.202-.042-.307-.06-.368-.061-.772-.09-1.205-.09h-3.65c-.09 0-.176.02-.252.058-.168.084-.294.249-.324.45l-.777 5.085-.022.148c.051-.335.328-.581.656-.581h1.367c2.684 0 4.785-1.127 5.4-4.386.017-.096.033-.19.047-.282-.156-.085-.324-.158-.505-.22l-.138-.045z" clip-rule="evenodd"/>
    <path fill="#28356A" fill-rule="evenodd" d="M18.36 10.693c.03-.202.155-.367.323-.45.077-.038.162-.06.252-.06h3.65c.433 0 .837.03 1.205.092.105.017.207.037.307.06s.197.049.29.077l.138.044c.182.062.35.136.505.22.183-1.204-.001-2.025-.631-2.767-.695-.818-1.949-1.168-3.553-1.168h-4.658c-.327 0-.607.246-.658.582l-1.94 12.71c-.038.251.15.478.395.478h2.875l1.5-9.818z" clip-rule="evenodd"/>
</svg>
