<svg xmlns="http://www.w3.org/2000/svg" width="84" height="21" fill="none" viewBox="0 0 84 21">
    <path fill="#28356A" fill-rule="evenodd" d="M4.815 19.974l.347-2.276-.772-.018H.702L3.265.885c.008-.05.034-.098.072-.131.037-.034.086-.052.136-.052h6.218c2.064 0 3.489.443 4.232 1.32.349.41.571.84.678 1.313.113.496.115 1.089.005 1.812l-.008.052v.464l.349.204c.293.16.527.345.706.556.298.352.49.798.572 1.328.085.544.057 1.193-.081 1.927-.16.844-.416 1.579-.764 2.18-.32.554-.726 1.014-1.21 1.37-.46.339-1.009.596-1.629.76-.6.162-1.285.244-2.036.244h-.484c-.346 0-.682.128-.946.36-.264.235-.44.557-.493.909l-.037.205-.612 4.011-.028.148c-.007.046-.02.07-.038.085-.017.015-.04.024-.064.024H4.815" clip-rule="evenodd"/>
    <path fill="#298FC2" fill-rule="evenodd" d="M15.278 5.253c-.018.122-.04.248-.063.376-.82 4.352-3.626 5.855-7.208 5.855H6.182c-.438 0-.807.329-.875.775l-1.199 7.858c-.044.294.175.558.46.558h3.236c.383 0 .709-.288.77-.678l.031-.17.61-3.996.038-.219c.06-.392.386-.68.77-.68h.483c3.135 0 5.589-1.315 6.306-5.122.3-1.59.144-2.918-.648-3.852-.24-.281-.538-.515-.886-.705" clip-rule="evenodd"/>
    <path fill="#22284F" fill-rule="evenodd" d="M14.426 4.9c-.126-.038-.255-.073-.387-.104-.134-.03-.27-.056-.41-.08-.493-.082-1.032-.12-1.609-.12H7.147c-.12 0-.234.027-.336.078-.225.112-.392.331-.433.6l-1.036 6.788-.03.198c.068-.447.437-.776.876-.776h1.824c3.582 0 6.388-1.504 7.208-5.854.024-.13.045-.255.063-.377-.207-.114-.432-.211-.674-.294l-.183-.06" clip-rule="evenodd"/>
    <path fill="#28356A" fill-rule="evenodd" d="M6.373 5.275c.04-.27.207-.49.432-.6.103-.051.216-.08.336-.08h4.873c.578 0 1.117.04 1.609.122.14.023.277.05.41.08.133.031.262.065.387.103l.184.059c.242.083.467.18.674.294.244-1.608-.002-2.703-.843-3.694C13.508.467 11.835 0 9.692 0H3.475c-.438 0-.811.329-.879.776L.006 17.744c-.05.335.2.638.528.638h3.838l2-13.107" clip-rule="evenodd"/>
    <path fill="#009CDE" d="M64.582 4.423H59.94c-.305 0-.58.243-.641.546l-1.863 11.826c-.03.242.153.455.397.455h2.382c.213 0 .397-.152.458-.364l.519-3.336c.061-.303.305-.546.641-.546H63.3c3.054 0 4.825-1.455 5.283-4.366.214-1.274 0-2.274-.58-2.972-.703-.818-1.863-1.243-3.42-1.243zM65.1 8.76c-.245 1.668-1.527 1.668-2.749 1.668h-.702l.489-3.093c.03-.182.183-.333.396-.333h.336c.825 0 1.619 0 2.046.485.214.273.275.697.184 1.273z"/>
    <path fill="#003087" d="M31.476 4.423h-4.641c-.306 0-.58.243-.642.546l-1.862 11.826c-.03.242.152.455.397.455h2.229c.305 0 .58-.243.641-.546l.52-3.184c.06-.303.305-.546.64-.546h1.466c3.054 0 4.825-1.455 5.283-4.366.214-1.274 0-2.274-.58-2.972-.733-.788-1.893-1.213-3.45-1.213zm.55 4.336c-.244 1.668-1.527 1.668-2.748 1.668h-.703l.489-3.093c.03-.182.183-.333.397-.333h.336c.824 0 1.618 0 2.046.485.183.273.275.697.183 1.273zM45.346 8.699h-2.23c-.183 0-.366.151-.397.333l-.091.607-.153-.213c-.488-.697-1.557-.94-2.626-.94-2.443 0-4.55 1.85-4.947 4.427-.214 1.304.092 2.517.825 3.396.671.789 1.649 1.122 2.809 1.122 1.985 0 3.084-1.273 3.084-1.273l-.091.606c-.031.243.152.455.397.455h2.015c.305 0 .58-.242.641-.546l1.191-7.55c0-.212-.183-.424-.427-.424zm-3.084 4.305c-.214 1.274-1.222 2.093-2.505 2.093-.64 0-1.16-.213-1.496-.607-.336-.394-.458-.94-.336-1.546.214-1.244 1.222-2.123 2.504-2.123.642 0 1.13.212 1.497.607.305.394.427.94.335 1.576z"/>
    <path fill="#009CDE" d="M78.436 8.699h-2.23c-.183 0-.366.151-.397.333l-.091.607-.153-.213c-.489-.697-1.557-.94-2.626-.94-2.443 0-4.55 1.85-4.947 4.427-.214 1.304.091 2.517.824 3.396.672.789 1.65 1.122 2.81 1.122 1.985 0 3.084-1.273 3.084-1.273l-.092.606c-.03.243.153.455.397.455h2.016c.305 0 .58-.242.641-.546l1.191-7.55c0-.212-.183-.424-.427-.424zm-3.085 4.305c-.213 1.274-1.221 2.093-2.504 2.093-.641 0-1.16-.213-1.496-.607-.336-.394-.458-.94-.336-1.546.214-1.244 1.222-2.123 2.504-2.123.641 0 1.13.212 1.496.607.275.394.428.94.336 1.576z"/>
    <path fill="#003087" d="M57.192 8.699h-2.23c-.213 0-.427.09-.519.273L51.36 13.49l-1.344-4.336c-.091-.273-.336-.455-.61-.455h-2.199c-.275 0-.458.273-.367.515l2.474 7.156-2.32 3.245c-.184.243 0 .606.305.606h2.229c.213 0 .397-.09.519-.273l7.451-10.643c.183-.273 0-.606-.305-.606z"/>
    <path fill="#009CDE" d="M81.063 4.757L79.17 16.795c-.03.242.152.455.397.455h1.923c.306 0 .58-.243.642-.546l1.862-11.826c.031-.243-.152-.455-.397-.455H81.46c-.214 0-.367.152-.397.334z"/>
</svg>
