<svg width="40" height="29" viewBox="0 0 40 29" fill="none" xmlns="http://www.w3.org/2000/svg">
<rect x="0.5" y="0.735291" width="39" height="27.2353" rx="3.5" fill="white" stroke="#E2E2E2"/>
<g clip-path="url(#clip0)">
<path d="M12.6895 11.7764C12.8154 10.9996 12.6895 10.4664 12.2652 9.99237C11.8011 9.46571 10.9525 9.23529 9.87842 9.23529H6.74914C6.53035 9.23529 6.33809 9.39329 6.30494 9.61054L5.00549 17.8199C4.97897 17.9845 5.10494 18.1293 5.27068 18.1293H7.20659L7.074 18.972C7.05411 19.1168 7.16019 19.2419 7.30604 19.2419H8.93698C9.12925 19.2419 9.29499 19.1036 9.32151 18.9127L9.33477 18.8337L9.63974 16.8982L9.65963 16.7929C9.69278 16.602 9.8519 16.4637 10.0442 16.4637H10.2895C11.8674 16.4637 13.1005 15.8252 13.4652 13.9884C13.6176 13.2182 13.5381 12.5796 13.1403 12.1254C13.0143 11.9805 12.8685 11.8686 12.6895 11.7764Z" fill="#009CDE"/>
<path d="M12.6895 11.7764C12.8154 10.9996 12.6895 10.4664 12.2652 9.99237C11.8011 9.46571 10.9524 9.23529 9.87842 9.23529H6.74914C6.53035 9.23529 6.33809 9.39329 6.30494 9.61054L5.00549 17.8199C4.97897 17.9845 5.10494 18.1293 5.27068 18.1293H7.20659L7.69057 15.0747L7.67731 15.1734C7.71046 14.9562 7.8961 14.7982 8.11488 14.7982H9.03643C10.8397 14.7982 12.2519 14.0674 12.6629 11.9674C12.6696 11.8949 12.6828 11.8357 12.6895 11.7764Z" fill="#012169"/>
<path d="M8.2077 11.7889C8.22759 11.6573 8.31378 11.5519 8.42648 11.4993C8.47952 11.4729 8.53256 11.4598 8.59886 11.4598H11.0519C11.3436 11.4598 11.6154 11.4795 11.8607 11.519C11.9337 11.5322 12 11.5454 12.0663 11.5585C12.1326 11.5717 12.1989 11.5914 12.2585 11.6112C12.2917 11.6178 12.3182 11.6309 12.3513 11.6375C12.4707 11.677 12.5834 11.7231 12.6895 11.7824C12.8154 11.0055 12.6895 10.4723 12.2652 9.99829C11.8011 9.47163 10.9524 9.24121 9.87842 9.24121H6.74914C6.53035 9.24121 6.33809 9.39921 6.30494 9.61646L5.00549 17.8192C4.97897 17.9838 5.10494 18.1286 5.27068 18.1286H7.20659L7.69057 15.074L8.2077 11.7889Z" fill="#003087"/>
<path d="M26.136 14.3768C26.1492 14.2978 26.2155 14.2386 26.2951 14.2386H27.8067C29.0531 14.2386 29.9282 15.2129 29.7293 16.4572C29.5304 17.708 28.3437 18.6757 27.1039 18.6757H25.5658C25.5061 18.6757 25.4597 18.623 25.473 18.5638L26.136 14.3768ZM26.7658 17.7014H27.0244C27.7205 17.7014 28.3702 17.3261 28.5161 16.4572C28.642 15.6606 28.1846 15.2129 27.4354 15.2129H27.2431C27.1967 15.2129 27.157 15.2458 27.1503 15.2919L26.7658 17.7014Z" fill="#003087"/>
<path d="M24.18 15.3511L24.0806 15.9568H25.2806C25.3403 15.9568 25.3867 16.0094 25.3734 16.0687L25.2607 16.7994C25.2474 16.8784 25.1812 16.9377 25.1016 16.9377H24.0673C23.9878 16.9377 23.9215 16.9969 23.9082 17.0759L23.8088 17.7079H25.0817C25.1414 17.7079 25.1878 17.7606 25.1745 17.8198L25.0618 18.5506C25.0486 18.6296 24.9823 18.6888 24.9027 18.6888H22.6088C22.5491 18.6888 22.5027 18.6362 22.516 18.5769L23.1856 14.3834C23.1988 14.3044 23.2651 14.2451 23.3447 14.2451H25.6386C25.6983 14.2451 25.7447 14.2978 25.7314 14.357L25.6187 15.0878C25.6055 15.1668 25.5392 15.226 25.4596 15.226H24.359C24.2596 15.2194 24.1933 15.2721 24.18 15.3511Z" fill="#003087"/>
<path d="M30.7444 18.6823H29.8295C29.7698 18.6823 29.7234 18.6296 29.7367 18.5704L30.4063 14.3768C30.4195 14.2978 30.4858 14.2386 30.5654 14.2386H31.4803C31.54 14.2386 31.5864 14.2913 31.5731 14.3505L30.9035 18.5441C30.8902 18.623 30.8239 18.6823 30.7444 18.6823Z" fill="#003087"/>
<path d="M22.1852 18.6823H20.9918C20.9388 18.6823 20.8924 18.656 20.8725 18.6099L20.0835 16.9772H20.0703L19.8117 18.577C19.7984 18.6428 19.7454 18.6889 19.6791 18.6889H18.7377C18.678 18.6889 18.6316 18.6362 18.6449 18.577L19.3211 14.3505C19.3344 14.2847 19.3874 14.2386 19.4537 14.2386H21.078C21.9598 14.2386 22.5697 14.6599 22.4172 15.6079C22.3178 16.2202 21.8869 16.7534 21.2371 16.8653L22.2648 18.544C22.3045 18.6033 22.2581 18.6823 22.1852 18.6823ZM20.1896 16.2333H20.3023C20.6802 16.2333 21.1178 16.1609 21.1973 15.6803C21.2769 15.1997 21.025 15.1273 20.6206 15.1273H20.4548C20.4084 15.1273 20.362 15.1602 20.3554 15.2129L20.1896 16.2333Z" fill="#003087"/>
<path d="M33.2113 18.6823H32.2964C32.2367 18.6823 32.1903 18.6296 32.2036 18.5704L32.7406 15.2129H31.892C31.8323 15.2129 31.7859 15.1602 31.7992 15.101L31.9119 14.3702C31.9251 14.2912 31.9914 14.232 32.071 14.232H34.9086C34.9682 14.232 35.0146 14.2847 35.0014 14.3439L34.8887 15.0747C34.8754 15.1537 34.8091 15.2129 34.7295 15.2129H33.9074L33.3771 18.544C33.3572 18.623 33.2909 18.6823 33.2113 18.6823Z" fill="#003087"/>
<path d="M18.7105 15.5025C18.6973 15.5881 18.5978 15.6145 18.5382 15.5552C18.3393 15.3511 18.0476 15.2458 17.7293 15.2458C17.0199 15.2458 16.4564 15.7856 16.3437 16.4769C16.2376 17.1747 16.642 17.6816 17.3647 17.6816C17.663 17.6816 17.9813 17.5697 18.2398 17.3788C18.3127 17.3261 18.4122 17.3919 18.3989 17.4775L18.2332 18.4913C18.2266 18.5506 18.1802 18.6033 18.1205 18.6164C17.7691 18.7218 17.4973 18.7942 17.1592 18.7942C15.2299 18.7942 14.9249 17.1549 15.0244 16.4637C15.3028 14.515 16.894 14.0674 17.8752 14.1201C18.1868 14.1398 18.4719 14.1793 18.7503 14.2846C18.8365 14.3175 18.8895 14.4097 18.8763 14.5019L18.7105 15.5025Z" fill="#003087"/>
<path d="M24.5052 9.78827H23.4975C23.4312 9.78827 23.3715 9.84094 23.3583 9.90677L22.9538 12.4742C22.9472 12.5269 22.987 12.573 23.04 12.573H23.5572C23.6036 12.573 23.6434 12.5401 23.6566 12.494L23.7693 11.7698C23.7826 11.704 23.8356 11.6513 23.9085 11.6513H24.2268C24.8898 11.6513 25.2743 11.3353 25.3737 10.7033C25.4202 10.4268 25.3737 10.2096 25.2478 10.0582C25.0953 9.88043 24.8434 9.78827 24.5052 9.78827ZM24.6179 10.7297C24.5649 11.0918 24.2864 11.0918 24.0213 11.0918H23.8688L23.9748 10.4203C23.9815 10.3808 24.0146 10.3478 24.061 10.3478H24.134C24.313 10.3478 24.4853 10.3478 24.5782 10.4532C24.6246 10.5124 24.6378 10.6046 24.6179 10.7297Z" fill="#009CDE"/>
<path d="M17.3197 9.78827H16.3119C16.2456 9.78827 16.186 9.84094 16.1727 9.90677L15.7683 12.4742C15.7617 12.5269 15.8015 12.573 15.8545 12.573H16.3385C16.4048 12.573 16.4644 12.5203 16.4777 12.4545L16.5904 11.7633C16.6037 11.6974 16.6567 11.6448 16.7296 11.6448H17.0479C17.7108 11.6448 18.0954 11.3288 18.1948 10.6968C18.2412 10.4203 18.1948 10.203 18.0689 10.0516C17.9097 9.88043 17.6578 9.78827 17.3197 9.78827ZM17.439 10.7297C17.386 11.0918 17.1075 11.0918 16.8423 11.0918H16.6898L16.7959 10.4203C16.8026 10.3808 16.8357 10.3478 16.8821 10.3478H16.955C17.134 10.3478 17.3064 10.3478 17.3992 10.4532C17.439 10.5124 17.4589 10.6046 17.439 10.7297Z" fill="#003087"/>
<path d="M20.3288 10.7165H19.8448C19.805 10.7165 19.7653 10.7494 19.7586 10.7889L19.7387 10.9206L19.7056 10.8745C19.5995 10.7231 19.3675 10.6704 19.1354 10.6704C18.605 10.6704 18.1476 11.072 18.0614 11.6316C18.015 11.9147 18.0813 12.178 18.2404 12.3689C18.3862 12.5401 18.5984 12.6125 18.8503 12.6125C19.2813 12.6125 19.5199 12.336 19.5199 12.336L19.5001 12.4676C19.4934 12.5203 19.5332 12.5664 19.5862 12.5664H20.0238C20.0901 12.5664 20.1498 12.5137 20.163 12.4479L20.4216 10.8087C20.4216 10.7626 20.3818 10.7165 20.3288 10.7165ZM19.6592 11.6513C19.6128 11.9278 19.394 12.1056 19.1155 12.1056C18.9763 12.1056 18.8636 12.0595 18.7907 11.9739C18.7177 11.8883 18.6912 11.7698 18.7177 11.6382C18.7641 11.3682 18.9829 11.1773 19.2614 11.1773C19.4006 11.1773 19.5067 11.2234 19.5862 11.309C19.6525 11.3946 19.6791 11.5131 19.6592 11.6513Z" fill="#003087"/>
<path d="M27.5163 10.7165H27.0323C26.9925 10.7165 26.9528 10.7494 26.9461 10.7889L26.9262 10.9206L26.8931 10.8745C26.787 10.7231 26.555 10.6704 26.3229 10.6704C25.7925 10.6704 25.3351 11.072 25.2489 11.6316C25.2025 11.9147 25.2688 12.178 25.4279 12.3689C25.5737 12.5401 25.7859 12.6125 26.0378 12.6125C26.4688 12.6125 26.7074 12.336 26.7074 12.336L26.6876 12.4676C26.6809 12.5203 26.7207 12.5664 26.7737 12.5664H27.2113C27.2776 12.5664 27.3373 12.5137 27.3505 12.4479L27.6091 10.8087C27.6091 10.7626 27.5693 10.7165 27.5163 10.7165ZM26.8467 11.6513C26.8003 11.9278 26.5815 12.1056 26.303 12.1056C26.1638 12.1056 26.0511 12.0595 25.9782 11.9739C25.9052 11.8883 25.8787 11.7698 25.9052 11.6382C25.9516 11.3682 26.1704 11.1773 26.4489 11.1773C26.5881 11.1773 26.6942 11.2234 26.7737 11.309C26.8334 11.3946 26.8666 11.5131 26.8467 11.6513Z" fill="#009CDE"/>
<path d="M22.9011 10.7166H22.4172C22.3707 10.7166 22.3243 10.7363 22.3044 10.7758L21.6348 11.7567L21.3431 10.8153C21.3232 10.7561 21.2702 10.7166 21.2105 10.7166H20.7332C20.6735 10.7166 20.6337 10.7758 20.6536 10.8285L21.1906 12.3821L20.6868 13.0865C20.647 13.1392 20.6868 13.2182 20.7531 13.2182H21.237C21.2834 13.2182 21.3232 13.1984 21.3497 13.1589L22.9674 10.8482C23.0072 10.789 22.9674 10.7166 22.9011 10.7166Z" fill="#003087"/>
<path d="M28.0876 9.86069L27.6765 12.4742C27.6699 12.5269 27.7097 12.573 27.7627 12.573H28.1804C28.2467 12.573 28.3063 12.5203 28.3196 12.4545L28.724 9.88702C28.7307 9.83435 28.6909 9.78827 28.6378 9.78827H28.1737C28.1273 9.78827 28.0942 9.82119 28.0876 9.86069Z" fill="#009CDE"/>
</g>
<defs>
<clipPath id="clip0">
<rect width="30" height="10" fill="white" transform="translate(5 9.23529)"/>
</clipPath>
</defs>
</svg>