<svg xmlns="http://www.w3.org/2000/svg" width="30" height="30" fill="none" viewBox="0 0 30 30">
    <path fill="#313638" fill-rule="evenodd" d="M29 15c0 7.732-6.268 14-14 14S1 22.732 1 15 7.268 1 15 1s14 6.268 14 14zM15 30c8.284 0 15-6.716 15-15 0-8.284-6.716-15-15-15C6.716 0 0 6.716 0 15c0 8.284 6.716 15 15 15zm-4.058-15.077c-.054.206-.181.69-.197.728-1.144-.436-2.115-2.025-1.678-4.113.477-2.252 2.426-4.035 5.765-4.035V7.5c3.51 0 5.464 2.22 5.526 4.889.071 3.044-2.427 5.231-4.63 5.231-.179 0-1.717-.027-2.455-.984l-.1.303c-.345 1.062-1.182 3.638-1.995 4.702l-.655.859-.13-1.072c-.124-1.02.395-2.784.838-4.288l.12-.41.025-.084c.207-.71.737-2.52.635-2.808-.274-.768-.28-1.464-.018-2.13.318-.8.955-1.085 1.446-1.085.652 0 1.155.46 1.114 1.17-.04.679-.351 1.666-.628 2.544l-.086.272c-.12.402-.064.778.163 1.082.197.265.949.534 1.542.534h.001c1.663 0 2.637-2.137 2.636-3.754-.002-2.065-1.615-3.264-3.77-3.266v.004c-1.722 0-3.545.845-3.815 2.566-.25 1.173.076 2.617.37 3.059l-.024.089z" clip-rule="evenodd"/>
</svg>
