<svg xmlns="http://www.w3.org/2000/svg" width="40" height="40" fill="none" viewBox="0 0 40 40">
    <path fill="#313638" fill-rule="evenodd" d="M34.142 5.858C30.365 2.08 25.342 0 20 0 14.658 0 9.635 2.08 5.858 5.858 2.08 9.635 0 14.658 0 20c0 5.342 2.08 10.365 5.858 14.142C9.635 37.92 14.658 40 20 40c5.342 0 10.365-2.08 14.142-5.858C37.92 30.365 40 25.342 40 20c0-5.342-2.08-10.365-5.858-14.142zM20 37.656c-9.736 0-17.656-7.92-17.656-17.656 0-9.736 7.92-17.656 17.656-17.656 9.736 0 17.656 7.92 17.656 17.656 0 9.736-7.92 17.656-17.656 17.656zM25.2 8.1c-.597-.261-1.294.012-1.555.61-.262.597.01 1.294.609 1.555 3.877 1.695 6.383 5.518 6.383 9.741 0 5.863-4.772 10.632-10.637 10.632S9.364 25.867 9.364 20.005c0-4.223 2.505-8.046 6.382-9.741.598-.261.871-.958.61-1.556-.262-.597-.959-.87-1.557-.609C10.062 10.17 7 14.843 7 20.005 7 27.171 12.832 33 20 33s13-5.83 13-12.995c0-5.162-3.061-9.835-7.8-11.906zM21 15.9c0 .608-.448 1.1-1 1.1s-1-.492-1-1.1V7.1c0-.607.448-1.1 1-1.1s1 .493 1 1.1v8.8z" clip-rule="evenodd"/>
</svg>
