<svg xmlns="http://www.w3.org/2000/svg" width="72" height="20" viewBox="0 0 72 20">
    <g fill="none" fill-rule="evenodd">
        <g fill="#747777" fill-rule="nonzero">
            <g>
                <g>
                    <g>
                        <path d="M.667 5.137V2.973h1.55c.496 0 .864-.148 1.103-.445.24-.296.359-.644.359-1.043 0-.465-.134-.826-.403-1.082-.268-.257-.621-.386-1.06-.386H0v5.12h.667zm1.328-2.75H.667V.613h1.328c.257 0 .46.036.607.108.269.135.403.39.403.767 0 .335-.094.568-.28.7-.187.133-.43.2-.73.2zm3.81 2.886c.592 0 1.03-.197 1.311-.59.282-.392.423-.89.423-1.49 0-.623-.16-1.095-.48-1.416-.32-.32-.71-.48-1.173-.48-.517 0-.928.185-1.235.557-.306.372-.459.871-.459 1.499 0 .585.145 1.051.436 1.399.29.347.683.52 1.177.52zm.057-.54c-.364 0-.63-.133-.798-.398-.168-.265-.252-.596-.252-.993 0-.413.084-.767.252-1.06.168-.292.436-.438.805-.438.416 0 .708.171.878.515.108.219.161.502.161.85 0 .386-.074.737-.223 1.051-.148.315-.423.473-.823.473zm3.676.404l.707-2.89.731 2.89h.627l1.043-3.733h-.603l-.735 2.924-.704-2.924h-.677l-.701 2.942-.691-2.942h-.66L8.91 5.137h.628zm5.08.132c.184 0 .348-.018.493-.056.27-.065.498-.19.68-.376.11-.107.21-.244.298-.413.088-.168.14-.321.156-.458h-.594c-.045.165-.12.31-.228.435-.188.217-.44.325-.755.325-.337 0-.586-.115-.747-.344-.161-.229-.247-.532-.259-.911h2.633c0-.376-.018-.65-.054-.822-.04-.251-.12-.47-.241-.66-.125-.197-.308-.357-.547-.482-.239-.124-.486-.186-.74-.186-.506 0-.915.187-1.228.56-.313.375-.47.862-.47 1.461 0 .609.156 1.082.466 1.42.311.338.69.507 1.137.507zm1.057-2.296h-1.996c.011-.321.11-.585.299-.793.187-.208.42-.312.697-.312.387 0 .663.15.829.453.089.163.146.38.17.652zm1.982 2.164V2.99c0-.265.081-.499.244-.702.164-.203.397-.305.701-.305.036 0 .069.001.1.003.03.003.062.007.098.014v-.662l-.137-.014-.057-.003c-.24 0-.45.09-.634.27-.184.18-.299.333-.346.458v-.645h-.573v3.733h.604zm3.068.132c.183 0 .348-.018.493-.056.27-.065.497-.19.68-.376.11-.107.21-.244.298-.413.088-.168.14-.321.156-.458h-.594c-.045.165-.12.31-.228.435-.188.217-.44.325-.755.325-.337 0-.587-.115-.748-.344-.16-.229-.247-.532-.258-.911h2.633c0-.376-.018-.65-.054-.822-.04-.251-.12-.47-.241-.66-.125-.197-.308-.357-.547-.482-.24-.124-.486-.186-.741-.186-.505 0-.914.187-1.227.56-.313.375-.47.862-.47 1.461 0 .609.155 1.082.466 1.42.31.338.69.507 1.137.507zm1.056-2.296h-1.995c.011-.321.11-.585.299-.793.187-.208.42-.312.697-.312.387 0 .663.15.828.453.09.163.147.38.171.652zm2.586 2.296c.248 0 .468-.05.66-.153.193-.102.36-.268.5-.498v.519h.544V0h-.58v1.885c-.137-.174-.259-.296-.366-.366-.186-.12-.416-.18-.69-.18-.497 0-.879.198-1.146.597-.267.398-.4.87-.4 1.413 0 .58.146 1.046.438 1.396.293.35.64.524 1.04.524zm.188-.547c-.36 0-.622-.135-.785-.404-.163-.27-.245-.604-.245-1.004 0-.47.095-.825.284-1.066.189-.242.435-.363.74-.363.272 0 .501.114.687.34.185.227.278.576.278 1.047 0 .467-.09.826-.27 1.075-.18.25-.41.375-.69.375zm5.875.533c.488 0 .869-.195 1.144-.585.275-.39.412-.88.412-1.47 0-.623-.139-1.095-.417-1.414-.279-.32-.641-.48-1.088-.48-.215 0-.414.048-.597.142-.184.094-.341.23-.473.41V0h-.587v5.137h.557v-.478c.127.18.247.31.358.39.188.138.418.206.691.206zm-.037-.554c-.433 0-.73-.205-.888-.617-.085-.218-.128-.503-.128-.853 0-.486.104-.835.31-1.046.207-.211.448-.317.723-.317.315 0 .554.129.716.387.162.258.243.583.243.976 0 .441-.08.796-.243 1.066-.162.27-.406.404-.733.404zM32.646 6.667c.349 0 .594-.105.738-.314.143-.21.389-.79.737-1.742.148-.405.331-.927.55-1.569.293-.852.482-1.398.567-1.638h-.667l-.97 3.04-.962-3.04h-.684l1.328 3.84c-.031.084-.082.212-.15.384-.07.172-.11.267-.122.286-.035.056-.08.103-.132.141-.053.038-.135.058-.247.058-.035 0-.077-.004-.124-.01-.047-.008-.123-.026-.228-.057v.572c.067.018.124.031.17.038.045.007.11.01.196.01z" transform="translate(-1333.000000, -423.000000) translate(851.000000, 391.000000) translate(482.000000, 32.000000) translate(36.190476, 0.000000)"/>
                    </g>
                    <g>
                        <path d="M10.372 3.793c1.824 0 3.146 1.325 3.146 3.495v4.555c0 .149-.1.248-.251.248h-2.008c-.15 0-.25-.1-.25-.248V7.785c0-1.309-.737-1.69-1.406-1.69-1.054 0-1.59.862-1.59 1.375v4.373c0 .149-.1.248-.25.248H5.755c-.15 0-.251-.1-.251-.248V7.785c0-1.309-.736-1.69-1.405-1.69-1.121 0-1.59 1.093-1.59 1.49v4.258c0 .149-.1.248-.25.248H.25c-.15 0-.251-.1-.251-.248v-7.62c0-.148.1-.248.25-.248h1.942c.15 0 .234.1.25.249L2.51 5.25c.52-.845 1.356-1.458 2.527-1.458 1.054 0 1.974.53 2.492 1.474.586-.861 1.556-1.474 2.844-1.474zm12.798.182c.151 0 .251.1.251.249v7.619c0 .149-.1.248-.25.248H21.23c-.15 0-.234-.1-.251-.248l-.067-.878c-.552.778-1.389 1.341-2.376 1.341-1.823 0-3.128-1.325-3.128-3.494V4.224c0-.15.1-.249.25-.249h2.008c.151 0 .251.1.251.249v4.09c0 1.31.803 1.674 1.44 1.674 1.07 0 1.555-.829 1.555-1.441V4.224c0-.15.1-.249.25-.249h2.008zM25.396.248c0-.149.1-.248.25-.248h2.008c.15 0 .251.1.251.248v11.595c0 .149-.1.248-.251.248h-2.008c-.15 0-.25-.1-.25-.248V.248zm9.117 3.562c2.292 0 3.965 1.871 3.965 4.24 0 2.319-1.673 4.157-3.965 4.157-1.07 0-1.823-.43-2.342-1.06l-.1.696c-.017.149-.1.248-.251.248h-1.707c-.15 0-.25-.1-.25-.248V.248c0-.149.1-.248.25-.248h2.008c.15 0 .25.1.25.248V4.72c.52-.546 1.239-.91 2.142-.91zm-.301 6.128c1.07 0 1.857-.779 1.857-1.905 0-1.16-.786-1.954-1.857-1.954-1.104 0-1.84.861-1.84 1.954 0 1.11.736 1.905 1.84 1.905zM47.681 7.85c0 .679-.084 1.027-.603 1.027H42.11c.25.878.987 1.341 2.108 1.341.535 0 1.003-.115 1.589-.48.15-.1.25-.083.368.033l.87.828c.1.116.1.232-.034.365-.786.778-1.857 1.242-3.044 1.242-2.577 0-4.35-1.872-4.35-4.207s1.773-4.19 4.166-4.19c2.375 0 3.898 1.855 3.898 4.04zm-3.882-1.938c-.836 0-1.539.447-1.723 1.391h3.38c-.168-.944-.854-1.391-1.657-1.391zm11.093-1.706c.134.116.134.248.084.364l-.552 1.425c-.067.199-.218.232-.418.182-.168-.05-.368-.132-.686-.132-1.038 0-1.656.761-1.656 1.755v4.042c0 .149-.1.248-.251.248h-2.008c-.15 0-.25-.1-.25-.248v-7.62c0-.148.1-.248.25-.248h1.924c.15 0 .234.1.25.249l.068.944c.418-.795 1.104-1.375 2.108-1.375.485 0 .903.199 1.137.414zm7.06 0c.134.116.134.248.084.364l-.552 1.425c-.067.199-.218.232-.418.182-.168-.05-.369-.132-.686-.132-1.038 0-1.657.761-1.657 1.755v4.042c0 .149-.1.248-.25.248h-2.008c-.15 0-.251-.1-.251-.248v-7.62c0-.148.1-.248.25-.248h1.925c.15 0 .234.1.25.249l.068.944c.418-.795 1.104-1.375 2.108-1.375.485 0 .903.199 1.137.414zm9.253-.232c.184 0 .268.1.2.282l-4.332 10.782c-.05.133-.168.2-.301.2h-1.958c-.184 0-.3-.1-.2-.282l1.187-2.85-3.162-7.85c-.067-.182.017-.282.201-.282h2.024c.134 0 .251.066.302.199l1.84 5.002 1.84-5.002c.05-.133.167-.199.301-.199h2.058z" transform="translate(-1333.000000, -423.000000) translate(851.000000, 391.000000) translate(482.000000, 32.000000) translate(0.000000, 4.761905)"/>
                    </g>
                </g>
            </g>
        </g>
    </g>
</svg>
