<svg xmlns="http://www.w3.org/2000/svg" width="45" height="37" fill="none" viewBox="0 0 45 37">
    <path fill="#313638" fill-rule="evenodd" d="M2.8 34.7h26.619c-2.558-1.803-4.219-4.782-4.219-8.1 0-5.5 4.4-9.9 9.9-9.9.65 0 1.286.062 1.9.18V8.1H25.3v7.2c0 .5-.3.9-.7 1.2-.5.2-.9.2-1.4 0l-3.8-2.1-3.8 2.1c-.2.2-.5.2-.7.2-.2 0-.5-.1-.7-.2-.4-.3-.7-.7-.7-1.2V8.1H1.8v25.6c0 .5.5 1 1 1zm32.6 1.8H2.8c-1.5 0-2.8-1.3-2.8-2.8V6.9c0-.1.1-.2.1-.2L4 1.3C4.6.4 5.5 0 6.5 0h25.7c1 0 1.9.4 2.6 1.4l3.9 5.4c.1 0 .1.1.1.1v10.505C42.447 18.86 45 22.411 45 26.6c0 5.4-4.242 9.74-9.602 9.896l.002.004zM33.2 2.3c-.2-.3-.6-.5-1-.5h-8.5L25 6.3h11l-2.8-4zm-16.3-.5l-1.6 5.5h.1v7.4l4-2.2 4.1 2.2V7.3l-1.6-5.5h-5zm-10.4 0c-.4 0-.8.2-1 .5l-2.8 4h11L15 1.8H6.5zm15.1 4.5c.5 0 .9.4.9.9s-.4.9-.9.9h-4.5c-.5 0-.9-.4-.9-.9s.4-.9.9-.9h4.5zm13.5 28.4c4.5 0 8.1-3.6 8.1-8.1s-3.6-8.1-8.1-8.1-8.1 3.6-8.1 8.1c0 4.4 3.6 8.1 8.1 8.1zm4.3-10.5l-5 5.3c-.1.1-.3.2-.5.2s-.4-.1-.5-.2l-2.7-2.8c-.1-.1-.2-.3-.2-.5s.1-.4.2-.5c.054-.027.1-.054.143-.078.118-.068.21-.122.357-.122.2 0 .4.1.5.2l1.8 1.9c.2.2.6.2.8 0l4.1-4.4c.054-.027.1-.054.143-.078.118-.068.21-.122.357-.122.2 0 .4.1.5.2.1.1.2.3.2.5s-.1.4-.2.5z" clip-rule="evenodd"/>
</svg>
