<svg xmlns="http://www.w3.org/2000/svg" width="22" height="22" fill="none" viewBox="0 0 22 22">
    <path fill="#313638" fill-rule="evenodd" d="M21 11c0 5.523-4.477 10-10 10S1 16.523 1 11 5.477 1 11 1s10 4.477 10 10zm1 0c0 6.075-4.925 11-11 11S0 17.075 0 11 4.925 0 11 0s11 4.925 11 11zM11.267 6.035c-1.664-.242-3.134.784-3.578 2.254-.145.468.21.945.703.945h.161c.331 0 .598-.234.711-.541.258-.72 1.026-1.212 1.858-1.034.767.161 1.332.912 1.268 1.696-.048.638-.494.981-.99 1.363-.345.265-.714.549-.99.963 0 .004-.001.006-.003.008s-.004.004-.004.008l-.012.02-.012.02c-.073.121-.146.259-.202.404-.004.012-.01.022-.016.033-.007.01-.013.02-.017.032-.004.009-.006.018-.008.029l-.008.027c-.097.275-.161.606-.161 1.01h1.615c0-.34.089-.622.226-.864.008-.012.014-.024.02-.037.006-.012.012-.024.02-.036.065-.113.146-.218.227-.315l.012-.016.012-.016c.08-.097.17-.186.266-.275.12-.114.248-.225.375-.336.696-.607 1.417-1.236 1.232-2.539-.193-1.405-1.3-2.593-2.705-2.803zM9.965 14.08h1.615v1.616H9.965v-1.616z" clip-rule="evenodd"/>
</svg>
