<svg xmlns="http://www.w3.org/2000/svg" width="20" height="20" fill="none" viewBox="0 0 20 20">
    <circle cx="10" cy="10" r="10" fill="#4C8314"/>
    <path fill="#fff" d="M14.625 8.449l-5.403 5.403c-.134.133-.313.207-.504.207-.192 0-.37-.073-.505-.207l-2.85-2.85c-.133-.134-.207-.313-.207-.504 0-.192.074-.37.207-.504.134-.134.313-.207.504-.207.192 0 .37.073.504.207l1.9 1.9c.247.246.646.246.893 0l4.453-4.453c.133-.134.312-.208.504-.208.191 0 .37.074.504.208.133.133.207.312.207.504 0 .191-.074.37-.207.504z"/>
</svg>