<svg xmlns="http://www.w3.org/2000/svg" width="40" height="42" fill="none" viewBox="0 0 40 42">
    <path fill="#313638" fill-rule="evenodd" d="M11.225 1h23.782c2.218.177 3.949 2.085 3.993 4.304v3.638c0 .355-.31.666-.666.666h-6.61v28.307c0 1.109-.444 2.174-1.198 2.972-.843.888-1.953 1.376-3.15 1.376H4.303c-2.219 0-4.127-1.73-4.304-3.949v-3.993c0-.355.31-.666.666-.666h6.61V5.304c0-2.219 1.73-4.127 3.95-4.304zM1.331 38.18c.133 1.554 1.42 2.752 2.973 2.752v-.045h19.921c-.022-.044-.055-.077-.088-.11-.034-.034-.067-.067-.09-.111l-.044-.045c-.031-.048-.069-.095-.108-.145-.07-.09-.145-.185-.202-.298 0 0-.045-.045-.045-.09l-.266-.532c-.222-.488-.31-1.064-.31-1.597v-2.973H1.332v3.195zM29.55 40c.489-.577.8-1.287.8-2.041h.043V4.86c.09-.71.311-1.375.71-1.952.023-.045.056-.089.09-.133.032-.045.066-.089.088-.133.044 0 .044-.045.044-.045.022-.044.056-.077.089-.11.033-.034.067-.067.089-.112l.044-.044H11.358c-1.553.133-2.75 1.42-2.75 2.973v28.351h15.13c.354 0 .665.31.665.666v3.638c0 .355.088.754.222 1.11.31.842 1.02 1.463 1.863 1.73.266.088.577.133.887.133.843 0 1.598-.31 2.174-.932zm2.13-31.724h5.946V5.304c0-1.553-1.198-2.84-2.751-2.973h-.488c-.178 0-.355.044-.533.089-.843.222-1.553.798-1.908 1.597-.133.31-.221.666-.266 1.02v3.239zm-12.245 9.451c-.444 0-1.775-.133-3.062-1.287-1.642-1.464-2.44-4.082-2.396-7.631 0-.266.178-.533.444-.621 1.775-.666 2.884-1.198 4.703-2.618.266-.178.621-.178.843 0 1.775 1.42 2.884 1.952 4.659 2.618.266.088.443.355.443.62 0 3.595-.843 6.168-2.44 7.677-1.375 1.242-2.795 1.242-3.106 1.242h-.088zm4.259-8.474C22.14 8.676 21.03 8.099 19.478 6.9c-1.553 1.198-2.662 1.775-4.17 2.352.044 2.928.71 5.058 1.951 6.211 1.038.95 2.117.934 2.213.932h.1c.095.002 1.132.018 2.169-.932 1.198-1.153 1.907-3.283 1.952-6.211zm-4.836 5.679c.221 0 .399-.089.532-.266l2.44-3.417c.222-.31.133-.71-.133-.931-.31-.222-.71-.134-.931.133l-1.908 2.662-.666-.932c-.222-.31-.621-.355-.932-.133-.31.222-.355.621-.133.932l1.243 1.73c.088.133.266.222.488.222zm-5.99 12.955h13.177c.355 0 .666.31.666.666 0 .355-.31.665-.666.665H12.867c-.355 0-.666-.31-.666-.665 0-.355.31-.666.666-.666zm13.177-3.505H12.867c-.355 0-.666.31-.666.666 0 .355.31.665.666.665h13.177c.355 0 .666-.31.666-.665 0-.355-.31-.666-.666-.666zm-13.177-3.46h13.177c.355 0 .666.31.666.665 0 .355-.31.666-.666.666H12.867c-.355 0-.666-.31-.666-.666 0-.355.31-.665.666-.665z" clip-rule="evenodd"/>
    <path fill="#313638" d="M35.007 1l.008-.1h-.008V1zM11.225 1V.9h-.008l.008.1zM39 5.304h.1v-.002l-.1.002zm-7.276 4.304v-.1h-.1v.1h.1zm-1.198 31.28l.072.068-.072-.069zM0 38.313h-.1v.008l.1-.008zm7.276-4.659v.1h.1v-.1h-.1zm-2.972 7.277v.1h.1v-.1h-.1zM1.33 38.18h-.1v.008l.1-.008zm2.973 2.706v-.1h-.1v.1h.1zm19.921 0v.1h.162l-.072-.144-.09.044zm-.088-.11l.07-.071-.07.07zm-.09-.111l.09-.045-.007-.015-.011-.011-.071.07zm-.044-.045l-.083.056.006.008.007.007.07-.07zm-.108-.145l.079-.062-.004-.004-.075.066zm0 0l-.079.062.004.004.075-.066zm-.202-.298l.09-.045-.008-.015-.011-.011-.071.07zm-.045-.09h.1v-.023l-.01-.021-.09.045zm-.266-.532l-.09.042v.003l.09-.045zm-.31-4.57h.1v-.1h-.1v.1zm-21.74 0v-.1h-.1v.1h.1zm29.016 2.973v-.1h-.1v.1h.1zM29.55 40l.074.068.003-.003-.077-.065zm.843-2.041v.1h.1v-.1h-.1zm0-33.099l-.1-.012v.012h.1zm.71-1.952l.083.057.004-.006.003-.006-.09-.045zm.178-.266v-.1h-.062l-.028.055.09.045zm.044-.045l-.09-.044-.01.02v.024h.1zm.089-.11l-.07-.071.07.07zm.089-.112l-.071-.07-.012.011-.007.015.09.044zm.044-.044l.07.07.172-.17h-.242v.1zm-20.188 0v-.1h-.008l.008.1zm-2.75 31.324h-.1v.1h.1v-.1zm16.017 5.413l.093-.034-.093.034zm1.863 1.73l.032-.094h-.002l-.03.095zM37.625 8.277v.1h.1v-.1h-.1zm-5.946 0h-.1v.1h.1v-.1zm3.195-5.945l.008-.1h-.008v.1zm-1.02.089l-.025-.097h-.001l.025.097zm-1.909 1.597l-.091-.04.091.04zm-.266 1.02l-.1-.012v.013h.1zM16.372 16.44l.067-.074-.067.074zM13.976 8.81l.1.001V8.81h-.1zm.444-.621l.031.095.004-.002-.035-.093zm4.703-2.618l-.056-.083-.006.004.062.079zm.843 0l.062-.078-.062.078zm4.659 2.618l-.035.093.003.002.032-.095zm-1.997 8.297l.067.074.002-.002-.069-.072zM19.478 6.9l.06-.08-.06-.046-.061.047.06.079zm4.215 2.352l.1.001v-.07l-.065-.025-.035.094zm-8.386 0l-.036-.094-.065.025.001.07.1-.001zm1.952 6.211l-.068.073.068-.073zm2.213.932l-.001-.1.001.1zm.006 0v-.1h-.001v.1zm.089 0v-.1.1zm.005 0l.002-.1-.002.1zm2.169-.932l.067.074.002-.002-.07-.072zm-2.352-.798l.08.06.002-.002-.082-.058zm2.44-3.417l-.081-.058.081.058zm-.133-.931l.064-.077-.006-.005-.058.082zm-.931.133l-.078-.065-.004.006.082.059zm-1.908 2.662l-.082.058.082.114.081-.114-.081-.058zm-.666-.932l-.081.058.081-.058zm-.932-.133l-.058-.082.058.082zm-.133.932l-.081.058.081-.058zm1.243 1.73l.083-.056-.002-.002-.081.058zM35.007.9H11.225v.2h23.782V.9zM39.1 5.302c-.045-2.268-1.814-4.22-4.085-4.402l-.016.2c2.165.173 3.858 2.037 3.901 4.206l.2-.004zm0 3.64V5.304h-.2v3.638h.2zm-.766.766c.41 0 .766-.356.766-.766h-.2c0 .3-.266.566-.566.566v.2zm-6.61 0h6.61v-.2h-6.61v.2zm.1 28.207V9.608h-.2v28.307h.2zm-1.226 3.041c.771-.816 1.226-1.906 1.226-3.041h-.2c0 1.082-.434 2.123-1.171 2.904l.145.137zm-3.223 1.407c1.227 0 2.362-.5 3.223-1.407l-.145-.138c-.825.869-1.908 1.345-3.078 1.345v.2zm-23.071 0h23.071v-.2H4.304v.2zM-.1 38.322c.182 2.271 2.134 4.04 4.404 4.04v-.2c-2.167 0-4.031-1.69-4.204-3.856l-.2.016zm0-.363v.355h.2v-.355h-.2zm0-3.638v3.638h.2v-3.638h-.2zm.766-.766c-.41 0-.766.356-.766.766h.2c0-.3.266-.566.566-.566v-.2zm6.61 0H.666v.2h6.61v-.2zm-.1-28.251v28.351h.2V5.304h-.2zM11.217.9c-2.271.182-4.04 2.134-4.04 4.404h.2c0-2.167 1.69-4.031 3.856-4.204l-.016-.2zM4.304 40.832c-1.5 0-2.745-1.158-2.873-2.66l-.2.017c.138 1.604 1.467 2.843 3.073 2.843v-.2zm-.1.055v.045h.2v-.045h-.2zm20.021-.1H4.304v.2h19.921v-.2zm-.16.06c.036.035.057.057.07.085l.18-.09c-.03-.06-.076-.105-.108-.136l-.141.141zm-.107-.137c.03.061.076.105.108.137l.141-.141c-.035-.035-.056-.058-.07-.085l-.179.09zm-.025-.018l.044.044.142-.141-.045-.044-.141.14zm-.117-.154c.04.05.075.095.104.139l.167-.111c-.035-.052-.075-.103-.113-.152l-.158.124zm.004.004l.15-.132-.15.132zm-.217-.32c.063.124.144.228.213.316l.157-.124c-.07-.09-.14-.178-.19-.281l-.18.09zm-.055-.133c0 .052.025.095.04.116.008.013.016.023.022.03l.008.009.003.002v.002h.001l.07-.07.072-.071-.002-.002-.008-.01c-.008-.012-.006-.014-.006-.006h-.2zm-.255-.488l.266.532.179-.089-.266-.532-.18.089zm-.321-1.642c0 .542.09 1.134.32 1.639l.181-.083c-.214-.471-.301-1.033-.301-1.556h-.2zm0-2.973v2.973h.2v-2.973h-.2zm-21.64.1h21.74v-.2H1.332v.2zm.1 2.563v-2.663h-.2v2.663h.2zm0 .044v-.044h-.2v.044h.2zm0 .222v-.222h-.2v.222h.2zm0 .266v-.266h-.2v.266h.2zm28.816-.222c0 .726-.299 1.414-.775 1.976l.153.13c.5-.592.822-1.324.822-2.106h-.2zm.144-.1h-.044v.2h.044v-.2zm-.1-32.333v32.433h.2V5.526h-.2zm0-.09v.09h.2v-.09h-.2zm0-.177v.178h.2v-.178h-.2zm0-.133v.133h.2v-.133h-.2zm0-.133v.133h.2v-.133h-.2zm0-.044v.044h.2V4.95h-.2zm0-.089v.089h.2V4.86h-.2zm.728-2.01c-.41.593-.636 1.275-.727 1.998l.199.024c.087-.697.304-1.346.693-1.907l-.165-.114zm.091-.135c-.032.042-.071.094-.098.148l.179.09c.017-.035.044-.072.08-.118l-.16-.12zm.08-.118c-.018.035-.045.072-.08.118l.16.12c.032-.043.071-.095.098-.149l-.179-.09zm.133 0h-.1v-.001-.002-.002-.004l.005-.013c.003-.007.01-.016.021-.024.012-.007.023-.01.03-.01v.2c.028 0 .056-.007.081-.023.024-.016.038-.036.047-.054.009-.017.012-.033.014-.043l.002-.015v-.005V2.6v-.001h-.1zm.018-.181c-.031.031-.077.075-.107.137l.179.089c.013-.028.035-.05.07-.085l-.142-.141zm.07-.085c-.014.027-.035.05-.07.085l.142.141c.031-.032.077-.076.107-.137l-.179-.09zm.063-.07l-.044.044.141.141.045-.044-.142-.142zm-19.584.17h19.655v-.2H11.891v.2zm-.533 0h.533v-.2h-.533v.2zm-2.65 2.873c0-1.5 1.157-2.745 2.659-2.873l-.017-.2c-1.604.138-2.842 1.467-2.842 3.073h.2zm0 28.351V5.304h-.2v28.351h.2zm15.03-.1H8.607v.2h15.13v-.2zm.765.766c0-.41-.356-.766-.766-.766v.2c.3 0 .566.266.566.566h.2zm0 3.638v-3.638h-.2v3.638h.2zm.215 1.074c-.13-.347-.215-.734-.215-1.074h-.2c0 .37.092.781.228 1.144l.187-.07zm1.8 1.67c-.816-.258-1.5-.858-1.8-1.67l-.187.07c.322.875 1.058 1.516 1.927 1.791l.06-.19zm.857.129c-.301 0-.601-.044-.855-.128l-.064.19c.279.092.6.138.92.138v-.2zm2.101-.9c-.557.6-1.284.9-2.1.9v.2c.869 0 1.65-.321 2.247-.964l-.147-.136zm8.149-31.756h-5.946v.2h5.946v-.2zm-.1-2.872v2.972h.2V5.304h-.2zm-2.66-2.873c1.502.128 2.66 1.373 2.66 2.873h.2c0-1.606-1.239-2.935-2.843-3.073l-.017.2zm-.48 0h.489v-.2h-.488v.2zm-.508.086c.18-.045.346-.086.509-.086v-.2c-.192 0-.382.048-.557.092l.048.194zm-1.84 1.54c.342-.769 1.026-1.326 1.842-1.54l-.051-.194c-.87.23-1.606.825-1.974 1.653l.183.082zm-.259.993c.044-.347.13-.693.26-.994l-.184-.078c-.138.32-.229.685-.274 1.047l.198.025zm.001.564v-.576h-.2v.576h.2zm0 2.662V5.614h-.2v2.662h.2zm-15.474 8.239c1.31 1.174 2.668 1.312 3.128 1.312v-.2c-.427 0-1.731-.129-2.994-1.261l-.134.149zm-2.429-7.707c-.044 3.56.755 6.214 2.43 7.707l.133-.15c-1.61-1.435-2.407-4.016-2.363-7.555l-.2-.002zm.512-.715c-.309.103-.512.409-.512.716h.2c0-.226.152-.452.375-.526l-.063-.19zm4.673-2.602c-1.81 1.413-2.91 1.94-4.676 2.603l.07.187c1.782-.668 2.9-1.205 4.73-2.632l-.124-.158zm.967 0c-.26-.208-.664-.202-.96-.004l.11.166c.236-.157.543-.15.725-.005l.125-.156zm4.632 2.603c-1.767-.663-2.867-1.19-4.632-2.602l-.125.156c1.785 1.428 2.904 1.965 4.687 2.633l.07-.187zm.508.715c0-.307-.203-.613-.512-.716l-.063.19c.223.074.375.3.375.526h.2zm-2.471 7.748c1.626-1.536 2.471-4.142 2.471-7.748h-.2c0 3.582-.84 6.122-2.409 7.603l.138.145zm-3.175 1.27c.32 0 1.77-.001 3.173-1.268l-.134-.149c-1.348 1.218-2.737 1.217-3.039 1.217v.2zm-.088 0h.088v-.2h-.088v.2zM19.416 6.98c1.561 1.205 2.68 1.786 4.241 2.366l.07-.187c-1.544-.574-2.645-1.146-4.19-2.337l-.121.158zm-4.074 2.366c1.517-.58 2.635-1.162 4.196-2.366l-.122-.158c-1.545 1.191-2.646 1.764-4.146 2.337l.072.187zm1.985 6.045c-1.212-1.125-1.877-3.22-1.92-6.14l-.2.003c.044 2.937.71 5.101 1.983 6.283l.137-.146zm2.143.905c-.086.001-1.134.02-2.144-.906l-.135.148c1.064.976 2.174.96 2.282.958l-.003-.2zm.006 0h-.006l.003.2h.005l-.002-.2zm.045 0h-.044v.2h.044v-.2zm.045 0h-.045v.2h.045v-.2zm.006 0h-.005l-.003.2h.006l.002-.2zm2.1-.906c-1.01.926-2.016.907-2.1.906l-.003.2c.108.002 1.175.017 2.238-.958l-.135-.148zm1.92-6.139c-.044 2.918-.752 5.015-1.922 6.141l.139.144c1.226-1.18 1.938-3.343 1.983-6.282l-.2-.003zm-4.284 5.355c-.114.152-.262.226-.452.226v.2c.253 0 .46-.104.612-.306l-.16-.12zm2.439-3.415l-2.44 3.416.163.117 2.44-3.417-.163-.116zm-.116-.797c.232.193.304.534.116.797l.163.116c.256-.358.15-.815-.15-1.066l-.129.153zm-.79.12c.192-.23.534-.303.796-.115l.116-.163c-.358-.256-.815-.15-1.066.15l.153.129zm-1.904 2.657l1.908-2.662-.163-.117-1.908 2.663.163.116zm-.828-.932l.665.932.163-.116-.665-.932-.163.116zm-.792-.11c.27-.193.606-.15.792.11l.163-.116c-.258-.36-.721-.407-1.072-.156l.117.162zm-.11.793c-.194-.271-.151-.607.11-.793l-.117-.162c-.36.257-.406.72-.156 1.07l.163-.116zm1.242 1.73l-1.242-1.73-.163.116 1.242 1.73.163-.116zm.407.18c-.197 0-.34-.079-.405-.178l-.167.111c.112.168.325.267.572.267v-.2zm7.187 12.955H12.867v.2h13.177v-.2zm.766.766c0-.41-.355-.766-.766-.766v.2c.3 0 .566.266.566.566h.2zm-.766.765c.41 0 .766-.355.766-.765h-.2c0 .3-.266.565-.566.565v.2zm-13.177 0h13.177v-.2H12.867v.2zm-.766-.765c0 .41.356.765.766.765v-.2c-.3 0-.566-.266-.566-.565h-.2zm.766-.766c-.41 0-.766.356-.766.766h.2c0-.3.266-.566.566-.566v-.2zm0-3.305h13.177v-.2H12.867v.2zm-.566.566c0-.3.266-.566.566-.566v-.2c-.41 0-.766.356-.766.766h.2zm.566.565c-.3 0-.566-.265-.566-.565h-.2c0 .41.356.765.766.765v-.2zm13.177 0H12.867v.2h13.177v-.2zm.566-.565c0 .3-.266.565-.566.565v.2c.41 0 .766-.355.766-.765h-.2zm-.566-.566c.3 0 .566.266.566.566h.2c0-.41-.355-.766-.766-.766v.2zm0-3.66H12.867v.2h13.177v-.2zm.766.765c0-.41-.355-.765-.766-.765v.2c.3 0 .566.266.566.565h.2zm-.766.766c.41 0 .766-.356.766-.766h-.2c0 .3-.266.566-.566.566v.2zm-13.177 0h13.177v-.2H12.867v.2zm-.766-.766c0 .41.356.766.766.766v-.2c-.3 0-.566-.266-.566-.566h-.2zm.766-.765c-.41 0-.766.355-.766.765h.2c0-.3.266-.565.566-.565v-.2z"/>
</svg>
