<svg xmlns="http://www.w3.org/2000/svg" width="40" height="40" fill="none" viewBox="0 0 40 40">
    <path fill="#313638" fill-rule="evenodd" d="M18.745 40h2.51c2.03 0 3.683-1.652 3.683-3.682v-.85c.863-.275 1.701-.623 2.507-1.04l.601.601c1.455 1.457 3.79 1.421 5.209 0l1.774-1.774c1.418-1.417 1.459-3.751 0-5.208l-.601-.602c.416-.806.765-1.644 1.04-2.508h.85c2.03 0 3.682-1.651 3.682-3.682v-2.51c0-2.03-1.652-3.683-3.682-3.683h-.85c-.275-.863-.624-1.701-1.04-2.507l.601-.601c1.46-1.458 1.418-3.792 0-5.209l-1.774-1.774c-1.415-1.417-3.75-1.46-5.208 0l-.602.601c-.806-.417-1.644-.765-2.508-1.04v-.85c0-2.03-1.651-3.682-3.682-3.682h-2.51c-2.03 0-3.683 1.652-3.683 3.682v.85c-.863.275-1.701.623-2.507 1.04l-.601-.601c-1.455-1.457-3.79-1.421-5.209 0L4.971 6.745c-1.418 1.417-1.459 3.751 0 5.208l.601.602c-.417.806-.765 1.644-1.04 2.508h-.85C1.652 15.063 0 16.713 0 18.744v2.51c0 2.03 1.652 3.683 3.682 3.683h.85c.275.863.623 1.701 1.04 2.507l-.601.602c-1.46 1.457-1.418 3.791 0 5.208l1.774 1.774c1.415 1.417 3.75 1.46 5.208 0l.602-.601c.806.416 1.644.765 2.507 1.04v.85c0 2.03 1.652 3.682 3.683 3.682zm-2.218-6.547c-1.256-.325-2.461-.825-3.58-1.487-.567-.335-1.147-.098-1.426.18l-1.226 1.227c-.529.53-1.378.514-1.892 0l-1.776-1.776c-.515-.515-.53-1.364 0-1.893l1.226-1.226c.379-.378.453-.964.18-1.425-.661-1.119-1.161-2.324-1.486-3.58-.133-.518-.6-.88-1.134-.88h-1.73c-.739 0-1.34-.6-1.34-1.338v-2.51c0-.738.601-1.339 1.34-1.339h1.73c.534 0 1-.361 1.134-.879.325-1.257.825-2.461 1.487-3.58.272-.46.198-1.047-.18-1.425l-1.227-1.227c-.53-.53-.513-1.379 0-1.892l1.776-1.776c.516-.516 1.364-.528 1.893 0l1.226 1.227c.378.378.964.452 1.425.18 1.119-.662 2.324-1.162 3.58-1.487.518-.133.88-.6.88-1.134v-1.73c0-.739.6-1.34 1.338-1.34h2.51c.738 0 1.339.601 1.339 1.34v1.73c0 .534.361 1 .879 1.134 1.257.325 2.461.825 3.58 1.487.46.272 1.047.198 1.426-.18l1.226-1.226c.53-.53 1.378-.515 1.892 0l1.776 1.775c.515.515.53 1.364 0 1.893l-1.226 1.226c-.379.378-.453.964-.18 1.425.661 1.119 1.162 2.324 1.486 3.58.133.518.6.88 1.134.88h1.73c.739 0 1.34.6 1.34 1.338v2.51c0 .738-.601 1.339-1.34 1.339h-1.73c-.534 0-1 .361-1.134.879-.325 1.257-.825 2.461-1.486 3.58-.273.46-.199 1.047.18 1.425l1.226 1.227c.53.53.514 1.379 0 1.892l-1.776 1.776c-.516.516-1.364.528-1.893 0l-1.225-1.226c-.379-.379-.965-.453-1.426-.18-1.119.661-2.323 1.161-3.58 1.486-.518.133-.88.6-.88 1.134v1.73c0 .739-.6 1.34-1.338 1.34h-2.51c-.738 0-1.339-.601-1.339-1.34v-1.73c0-.534-.361-1-.879-1.134zM11.297 20c0 4.799 3.904 8.703 8.703 8.703 4.799 0 8.703-3.904 8.703-8.703 0-4.799-3.904-8.703-8.703-8.703-4.799 0-8.703 3.904-8.703 8.703zm2.344 0c0-3.507 2.852-6.36 6.359-6.36s6.36 2.853 6.36 6.36-2.853 6.36-6.36 6.36-6.36-2.853-6.36-6.36z" clip-rule="evenodd"/>
</svg>
