<svg xmlns="http://www.w3.org/2000/svg" width="15" height="12" fill="none" viewBox="0 0 15 12">
    <path fill="#313638" fill-rule="evenodd" d="M14.964 6.286c.023-.058.036-.12.036-.186 0-.07-.014-.137-.04-.197-.021-.049-.05-.095-.087-.136l-.022-.023-2.797-2.798c-.196-.195-.512-.195-.708 0-.195.196-.195.512 0 .708L13.293 5.6H5.4c-.276 0-.5.224-.5.5s.224.5.5.5h7.893l-1.947 1.946c-.195.196-.195.512 0 .708.196.195.512.195.708 0l2.8-2.8c.049-.05.086-.107.11-.168zM8 .5c0 .276-.224.5-.5.5H1.9c-.239 0-.468.095-.636.264C1.094 1.432 1 1.66 1 1.9v8.4c0 .239.095.468.264.636.168.17.397.264.636.264h5.6c.276 0 .5.224.5.5s-.224.5-.5.5H1.9c-.504 0-.987-.2-1.344-.556C.2 11.287 0 10.803 0 10.3V1.9C0 1.396.2.913.556.556.913.2 1.396 0 1.9 0h5.6c.276 0 .5.224.5.5z" clip-rule="evenodd"/>
</svg>
