<?xml version="1.0" encoding="utf-8"?>
<!-- Generator: Adobe Illustrator 25.2.3, SVG Export Plug-In . SVG Version: 6.00 Build 0)  -->
<svg version="1.1" id="Layer_1" xmlns="http://www.w3.org/2000/svg" xmlns:xlink="http://www.w3.org/1999/xlink" x="0px" y="0px"
	 viewBox="0 0 16 16" style="enable-background:new 0 0 16 16;" xml:space="preserve">
<style type="text/css">
	.st0{fill:#313638;}
</style>
<path class="st0" d="M13.1,6.8l2.4,2.4h-1.7c-0.6,2.7-2.9,4.7-5.8,4.7c-1.9,0-3.6-0.9-4.6-2.2L5,11.2c0.8,0.7,1.8,1.2,3,1.2
	c2,0,3.6-1.3,4.2-3.2h-1.4L13.1,6.8z M8,2.1c2,0,3.8,1,4.9,2.5l-1.6,0.6c-0.8-0.9-2-1.5-3.3-1.5c-2.3,0-4.1,1.7-4.3,3.9h1.6L2.9,10
	L0.5,7.6h1.6C2.3,4.5,4.8,2.1,8,2.1z"/>
</svg>
