<svg width="19" height="22" viewBox="0 0 19 22" fill="none" xmlns="http://www.w3.org/2000/svg">
<path fill-rule="evenodd" clip-rule="evenodd" d="M9.72924 0.0575128C12.5623 1.57687 15.5632 2.80614 18.6488 3.71115C18.8569 3.7722 19 3.96458 19 4.18315V8.29822C19 10.2189 18.6392 12.0416 17.9276 13.7157C17.2198 15.3815 16.164 16.9017 14.7898 18.2342C13.8069 19.1873 12.672 20.0271 11.5079 20.6629C11.2993 20.7769 10.2264 21.3512 9.58835 21.47C9.55917 21.4755 9.52955 21.4783 9.49993 21.4783C9.47036 21.4783 9.44074 21.4755 9.4115 21.47C8.7733 21.3512 7.70049 20.7769 7.49192 20.6629C6.32771 20.0271 5.19283 19.1872 4.21 18.2342C2.83582 16.9017 1.78005 15.3814 1.07218 13.7157C0.360755 12.0416 0 10.2189 0 8.29822V4.18423C0 3.96536 0.143474 3.77289 0.35184 3.71209C3.43329 2.81287 6.43426 1.58336 9.27144 0.0577586C9.41457 -0.0192118 9.58621 -0.0192119 9.72924 0.0575128ZM8.62182 13.4795L14.2889 7.81235C14.429 7.67231 14.5062 7.48457 14.5062 7.28373C14.5062 7.08296 14.429 6.89522 14.2889 6.75511C14.1488 6.615 13.9611 6.5378 13.7603 6.5378C13.5595 6.5378 13.3718 6.61494 13.2317 6.75505L8.56096 11.4258C8.30263 11.6841 7.88376 11.6841 7.62544 11.4258L5.63248 9.43294C5.4923 9.29283 5.30463 9.2157 5.10386 9.2157C4.90309 9.2157 4.71535 9.29283 4.57524 9.43294C4.43506 9.57305 4.35787 9.76079 4.35793 9.96162C4.35793 10.1624 4.43506 10.3501 4.57517 10.4902L7.56445 13.4795C7.70456 13.6197 7.89236 13.6968 8.09313 13.6968C8.2939 13.6968 8.48164 13.6196 8.62182 13.4795Z" fill="#313638"/>
</svg>
