<svg xmlns="http://www.w3.org/2000/svg" width="33" height="47" fill="none" viewBox="0 0 33 47">
    <path fill="#313638" fill-rule="evenodd" d="M8.455 11.795c-.066.093-.15.172-.248.232-.195.118-.427.154-.649.102-.22-.052-.413-.188-.535-.38-.72-1.167-1.116-2.505-1.147-3.876-.03-1.37.306-2.725.974-3.923.668-1.197 1.644-2.195 2.826-2.89C10.86.367 12.206 0 13.576 0c1.372 0 2.718.366 3.901 1.06 1.183.695 2.158 1.693 2.826 2.89.668 1.198 1.004 2.552.974 3.923-.03 1.371-.427 2.71-1.147 3.876-.078.125-.187.229-.317.3-.13.072-.275.11-.423.109-.163 0-.323-.045-.461-.13-.097-.061-.182-.14-.248-.233-.067-.093-.115-.199-.14-.31-.026-.112-.03-.227-.011-.34.019-.113.06-.221.12-.319.58-.944.882-2.033.87-3.141.004-.926-.209-1.839-.619-2.668-.41-.829-1.008-1.551-1.745-2.11-.738-.559-1.595-.938-2.504-1.109-.91-.17-1.846-.127-2.736.126-.89.253-1.709.71-2.392 1.334-.683.624-1.212 1.398-1.544 2.261-.333.864-.46 1.792-.373 2.713.088.921.389 1.81.878 2.594.061.098.102.206.121.319.019.113.015.228-.01.34-.026.111-.074.217-.14.31zm21.972 8.46c.422.175.806.43 1.13.754.323.323.58.707.754 1.13.175.423.265.876.264 1.333v9.573c0 3.693-1.467 7.235-4.078 9.846-2.612 2.612-6.153 4.079-9.846 4.079-2.483-.072-4.904-.793-7.021-2.091-2.118-1.298-3.86-3.127-5.05-5.307L.373 29.564c-.327-.535-.445-1.17-.333-1.787.113-.617.448-1.17.942-1.555l.601-.487c.874-.697 1.983-1.03 3.096-.93 1.113.098 2.145.621 2.883 1.46l2.385 2.724V8.808c-.013-.819.255-1.617.76-2.262.506-.645 1.217-1.097 2.016-1.28.565-.113 1.15-.085 1.702.08s1.056.464 1.466.869c.323.323.58.707.754 1.13.174.423.264.875.264 1.333v8.302c.659-.373 1.421-.522 2.172-.423.75.1 1.448.44 1.988.972.385.367.683.816.87 1.314.57-.387 1.243-.593 1.932-.592.909.01 1.777.376 2.42 1.018.385.367.682.817.87 1.314.57-.386 1.243-.593 1.932-.591.457 0 .91.089 1.333.264zM27.266 41.66c2.285-2.285 3.569-5.384 3.569-8.616v-9.573c0-.462-.184-.905-.51-1.23-.326-.327-.77-.51-1.23-.51-.462 0-.905.183-1.232.51-.326.325-.51.768-.51 1.23v2.61c0 .232-.091.453-.254.616-.164.163-.385.255-.616.255-.23 0-.452-.092-.615-.255-.163-.163-.255-.384-.255-.615V21.73c0-.461-.183-.904-.51-1.23-.326-.327-.77-.51-1.23-.51-.462 0-.905.183-1.232.51-.326.326-.51.769-.51 1.23v4.352c0 .23-.091.452-.254.615-.163.163-.385.255-.616.255-.23 0-.452-.092-.615-.255-.163-.163-.255-.384-.255-.615V19.99c0-.462-.183-.905-.51-1.231-.326-.327-.769-.51-1.23-.51-.462 0-.905.183-1.231.51-.327.326-.51.769-.51 1.23v6.093c0 .23-.092.452-.255.615-.163.163-.385.255-.615.255-.231 0-.453-.092-.616-.255-.163-.163-.255-.384-.255-.615V8.677c.004-.234-.04-.467-.128-.684-.088-.216-.22-.413-.385-.578-.205-.206-.457-.358-.736-.442-.278-.084-.572-.096-.857-.037-.41.104-.772.348-1.023.69-.25.34-.375.758-.352 1.181V33.62l-5.396-6.232c-.246-.275-.548-.495-.885-.645-.338-.15-.704-.227-1.073-.225-.592.001-1.166.204-1.627.574l-.592.488c-.162.116-.275.288-.317.483-.042.194-.01.398.09.57l6.188 10.052c2.298 3.986 6.45 6.544 10.575 6.544 3.231 0 6.33-1.283 8.615-3.568z" clip-rule="evenodd"/>
</svg>
