<svg xmlns="http://www.w3.org/2000/svg" width="74" height="105" fill="none" viewBox="0 0 74 105">
    <path fill="#313638" d="M23.9 41.889c-.32-.18-.333-.832-.013-1.011.115-.077 1.126-.14 2.29-.14 2.189 0 2.47.076 2.47.639 0 .525-.448.64-2.534.64-1.113 0-2.072-.064-2.213-.128zM36.402 40.942c-.282.281-.256.64.076.87.23.166.691.205 2.304.205 1.855 0 2.047-.026 2.277-.256.141-.141.256-.32.256-.384 0-.077-.115-.243-.256-.384-.23-.23-.422-.256-2.354-.256-1.74 0-2.137.038-2.303.205z"/>
    <path fill="#313638" fill-rule="evenodd" d="M24.297 45.83c0-1.6.09-1.843.819-2.29.87-.525 2.264-.205 2.7.64.306.6.268 2.763-.064 3.3-.333.564-.87.807-1.74.807-.666 0-.756-.039-1.216-.5l-.5-.498v-1.46zm2.367 1.113V44.64l-.474-.038c-.588-.052-.742.191-.742 1.215 0 .947.18 1.228.768 1.164l.448-.038zM37.643 43.54c-.64.409-.806.857-.806 2.252 0 1.394.166 1.855.806 2.239.281.179.64.256 1.139.256.601 0 .793-.064 1.139-.346.563-.473.755-1.023.755-2.15 0-1.701-.512-2.392-1.83-2.47-.627-.025-.883.014-1.203.218zm1.6 1.19c.089.089.153.524.153 1.074 0 1.05-.128 1.241-.794 1.177l-.422-.038-.038-1.01c-.026-.564-.013-1.088.025-1.19.09-.206.87-.218 1.075-.014z" clip-rule="evenodd"/>
    <path fill="#313638" d="M28.366 58.818c-.82-.448-1.088-.82-.896-1.254.18-.397.678-.422 1.139-.064.716.563 1.689.806 3.43.87 1.931.064 2.865-.077 4.004-.614.87-.41 1.203-.384 1.37.115.115.384-.039.601-.704.96-2.112 1.151-6.22 1.151-8.343-.013z"/>
    <path fill="#313638" fill-rule="evenodd" d="M13.765 26.79c-.678-2.214-1.01-4.454-.716-4.812.179-.218.217-.218 2.226.154 2.035.37 8.625.345 13.18-.064 5.387-.474 8.676-.308 11.453.575 5.041 1.587 8.202 5.17 9.226 10.455.205 1.062.243 1.842.243 5.144v3.903l.921-.077c1.165-.102 1.817.077 2.495.652 1.19 1.011 1.792 2.65 1.651 4.48-.166 2.226-1.152 4.107-2.79 5.335-.614.474-1.65.87-2.213.87-.243 0-.32.128-.512.922-.486 1.983-1.69 4.542-2.93 6.18-1.46 1.92-3.916 4.03-5.682 4.85-.755.358-.793.396-.78.831 0 .192.043 1.142.096 2.332l.057 1.264.154 3.135.831.026c3.622.128 7.422.448 8.753.742 2.329.512 3.941 1.01 5.553 1.715.525.23.96.396.973.37.013-.025.128-.409.256-.87.115-.46.46-1.317.755-1.919.499-.998.537-1.164.537-2.111 0-1.19-.294-1.907-1.1-2.7-.704-.691-.653-1.459.09-1.459.396 0 1.407 1.139 1.88 2.15.372.768.41.985.41 2.009 0 1.1-.026 1.203-.601 2.431-.679 1.459-.87 2.073-.87 2.828 0 .448.063.576.422.844l.41.32.012-.588c.013-.794.473-1.65 1.51-2.828 1.19-1.344 1.548-2.112 1.548-3.327 0-.832-.064-1.088-.422-1.817-.23-.474-.755-1.229-1.177-1.702-.423-.46-.768-.909-.768-.985 0-.243.41-.615.665-.615.346 0 1.305.935 1.945 1.907.832 1.267 1.037 1.92 1.037 3.289 0 1.075-.039 1.215-.474 2.111-.268.55-.819 1.344-1.305 1.881-.921 1.01-1.126 1.356-1.343 2.163-.154.563-.564.831-.934.601-.09-.051.307.371.882.947l1.05 1.05h3.403c2.099 0 3.506.05 3.66.127.18.103.243.269.243.717 0 .511.026.576.23.499.474-.205 2.125-.23 2.585-.039 1.229.512 1.92 1.638 1.92 3.11 0 2.354-2.099 4.542-5.055 5.272-.793.192-.857.243-1.395.985-.307.435-1.138 1.344-1.842 2.022l-1.267 1.254H2.031l-.268-.269c-.269-.269-.282-.333-.205-3.365.09-4.095.384-5.643 1.523-7.947 1.087-2.175 2.546-3.774 4.811-5.246 1.843-1.19 4.235-2.073 7.652-2.815 1.357-.294 4.747-.589 8.689-.742l.767-.026.077-2.047.093-2.011.002-.04.072-1.532.09-1.536-.96-.486c-1.651-.844-3.545-2.393-4.965-4.056-1.447-1.702-2.816-4.325-3.392-6.526l-.332-1.254-.602-.077c-1.446-.192-2.917-1.395-3.813-3.122-1.152-2.214-1.19-4.786-.102-6.462.55-.858.896-1.165 1.676-1.51.538-.243.768-.269 1.625-.205l.998.077v-4.248c0-3.583.039-4.428.23-5.375l.231-1.126-.307-.46c-.5-.743-1.497-2.944-1.856-4.134zm34.127 6.653c-.985-5.656-4.696-9.11-10.902-10.16-1.177-.205-3.954-.332-5.144-.256-.212.021-.692.062-1.276.111h-.003l-.002.001-1.534.131c-1.164.116-2.917.256-3.903.333-2.15.166-8.42.077-9.763-.153-.512-.077-.973-.116-1.011-.064-.115.115.32 2.124.742 3.429.73 2.252 1.984 4.287 3.545 5.745 2.226 2.073 4.517 2.88 8.535 3.02 3.058.103 6.615-.281 12.054-1.318 1.28-.243 2.47-.435 2.636-.435.345 0 .601.269 4.056 4.39l2.111 2.52.039-3.045c.025-2.393-.013-3.289-.18-4.249zm-27.83 1.728c-.922-.538-2.074-1.408-2.599-1.97-.217-.218-.422-.398-.473-.398-.18 0-.256 1.626-.217 4.748l.038 3.16 1.945-2.341c1.075-1.293 1.996-2.431 2.035-2.534.05-.14-.167-.332-.73-.665zm28.035 7.6l-3.224-3.825c-1.856-2.227-3.302-3.84-3.417-3.826-.115.012-.69.128-1.292.256-.602.128-1.92.383-2.943.563-6.36 1.087-10.762 1.228-14 .46l-.985-.243-5.49 6.564.04 5.087c.038 4.946.038 5.038.37 6.238.461 1.715.986 2.981 1.715 4.21 2.214 3.736 5.873 6.423 10.083 7.409 1.203.281 1.728.32 3.468.332 1.766 0 2.24-.05 3.468-.332 1.753-.41 2.968-.909 4.606-1.894 2.099-1.254 3.762-2.84 5.106-4.927.857-1.305 1.088-1.791 1.6-3.199.806-2.264.895-3.135.895-8.266v-4.606zm-32.63 1.037l-.41-.256c-.55-.333-1.445-.333-1.97-.013-.87.525-1.458 1.843-1.458 3.212 0 1.229.588 2.905 1.369 3.929.396.511 1.522 1.266 2.06 1.382l.41.09v-8.344zm37.352 1.037c-.294-.666-.665-1.114-1.164-1.37-.5-.256-1.37-.217-1.856.077l-.422.256v8.343l.422-.09c2.444-.537 4.159-4.632 3.02-7.216zM37.144 66.649c-3.071.896-6.373.921-9.2.051-.165-.05-.31-.096-.439-.138-.441-.142-.69-.222-.834-.133-.185.114-.197.508-.226 1.407-.006.204-.014.435-.024.694l-.01.264c-.164 4.326-.198 5.23-.583 5.419-.102.05-.228.05-.387.05h-.006c-.486 0-.473.115.116.665 1.01.96 2.418 1.74 3.954 2.175.831.244 1.305.295 2.917.282 2.099 0 2.892-.14 4.364-.819 1.19-.537 2.994-1.855 2.994-2.188 0-.064-.205-.115-.448-.115-.282 0-.474-.077-.563-.23-.064-.116-.192-1.894-.269-3.929-.09-2.047-.179-3.724-.192-3.75-.025-.025-.55.116-1.164.295zm-7.652 11.734c-2.227-.563-4.07-1.65-5.54-3.288-.628-.704-.807-.832-1.127-.807-.205.013-.832.052-1.37.064l-.997.051V84.5h23.928V74.43l-2.75-.155-.679.755c-1.484 1.664-3.378 2.803-5.605 3.353-1.612.397-4.248.397-5.86 0zm-10.378 6.053l.039-4.965.025-4.952-.41.012c-.23.013-1.049.103-1.83.23l-1.407.206v9.469h3.583zm30.045-9.457c-.128-.038-.883-.153-1.676-.268-.793-.103-1.523-.192-1.625-.192-.166 0-.192.652-.166 4.952l.038 4.965h1.791l.039-2.355c.013-1.471.09-2.418.166-2.534.09-.102.435-.166.896-.166h.755V77.22c0-1.958-.026-2.176-.218-2.24zM13.83 88.121c.256-.934.282-1.344.333-6.923.026-3.25 0-5.899-.064-5.899-1.318.18-4.44 1.51-6.001 2.534-1.037.69-2.534 2.188-3.186 3.212-1.523 2.367-2.112 4.85-2.112 8.983v2.021h7.55v-3.621c0-3.864.013-3.928.64-3.928s.64.064.64 3.8c0 2.073.05 3.493.115 3.493.204 0 .985-1.049 1.407-1.88.218-.423.525-1.23.678-1.792zm42.087-10.66c-.154-.294-2.112-1.228-3.468-1.65l-.608-.189c-.43-.133-.787-.245-.902-.272l-.294-.09.076 4.057 3.878.039c2.124.012 3.864-.013 3.851-.064 0-.064-.256-.32-.563-.589-.473-.422-.588-.46-.806-.333-.384.243-.908.051-.985-.37-.051-.193-.128-.436-.18-.538zm9.635 10.865c.742-1.536.845-2.137.845-5.068v-2.597H48.839l.052 3.096.038 3.11.473.998c.59 1.216.691 1.356 2.24 2.943l1.228 1.241h9.52l1.357-1.395c1.036-1.074 1.446-1.612 1.804-2.328zm5.58-4.53c0-.909-.18-1.305-.756-1.69-.486-.332-1.28-.37-2.124-.114l-.512.153-.077 2.227c-.05 1.548-.128 2.405-.268 2.776-.192.525-.192.55.05.55.5 0 1.946-.806 2.56-1.42.806-.806 1.126-1.497 1.126-2.482zm-23.469 2.828c-.038-.154-.077-.422-.077-.627v-.346H31.552c-8.83 0-16.085.039-16.123.09-.051.038-.09.345-.09.665-.013 1.37-.665 3.583-1.42 4.747-.269.423-.5.807-.5.832 0 .039 8.446.064 18.76.064 10.429 0 18.733-.05 18.708-.115-.013-.051-.422-.525-.896-1.036-.154-.242-.337-.47-.535-.716-.59-.735-1.313-1.633-1.794-3.558z" clip-rule="evenodd"/>
    <path stroke="#313638" d="M23.9 41.889c-.32-.18-.333-.832-.013-1.011.115-.077 1.126-.14 2.29-.14 2.189 0 2.47.076 2.47.639 0 .525-.448.64-2.534.64-1.113 0-2.072-.064-2.213-.128zM36.402 40.942c-.282.281-.256.64.076.87.23.166.691.205 2.304.205 1.855 0 2.047-.026 2.277-.256.141-.141.256-.32.256-.384 0-.077-.115-.243-.256-.384-.23-.23-.422-.256-2.354-.256-1.74 0-2.137.038-2.303.205z"/>
    <path fill-rule="evenodd" stroke="#313638" d="M24.297 45.83c0-1.6.09-1.843.819-2.29.87-.525 2.264-.205 2.7.64.306.6.268 2.763-.064 3.3-.333.564-.87.807-1.74.807-.666 0-.756-.039-1.216-.5l-.5-.498v-1.46zm2.367 1.113V44.64l-.474-.038c-.588-.052-.742.191-.742 1.215 0 .947.18 1.228.768 1.164l.448-.038zM37.643 43.54c-.64.409-.806.857-.806 2.252 0 1.394.166 1.855.806 2.239.281.179.64.256 1.139.256.601 0 .793-.064 1.139-.346.563-.473.755-1.023.755-2.15 0-1.701-.512-2.392-1.83-2.47-.627-.025-.883.014-1.203.218zm1.6 1.19c.089.089.153.524.153 1.074 0 1.05-.128 1.241-.794 1.177l-.422-.038-.038-1.01c-.026-.564-.013-1.088.025-1.19.09-.206.87-.218 1.075-.014z" clip-rule="evenodd"/>
    <path stroke="#313638" d="M28.366 58.818c-.82-.448-1.088-.82-.896-1.254.18-.397.678-.422 1.139-.064.716.563 1.689.806 3.43.87 1.931.064 2.865-.077 4.004-.614.87-.41 1.203-.384 1.37.115.115.384-.039.601-.704.96-2.112 1.151-6.22 1.151-8.343-.013z"/>
    <path fill-rule="evenodd" stroke="#313638" d="M13.765 26.79c-.678-2.214-1.01-4.454-.716-4.812.179-.218.217-.218 2.226.154 2.035.37 8.625.345 13.18-.064 5.387-.474 8.676-.308 11.453.575 5.041 1.587 8.202 5.17 9.226 10.455.205 1.062.243 1.842.243 5.144v3.903l.921-.077c1.165-.102 1.817.077 2.495.652 1.19 1.011 1.792 2.65 1.651 4.48-.166 2.226-1.152 4.107-2.79 5.335-.614.474-1.65.87-2.213.87-.243 0-.32.128-.512.922-.486 1.983-1.69 4.542-2.93 6.18-1.46 1.92-3.916 4.03-5.682 4.85-.755.358-.793.396-.78.831 0 .192.043 1.142.096 2.332l.057 1.264.154 3.135.831.026c3.622.128 7.422.448 8.753.742 2.329.512 3.941 1.01 5.553 1.715.525.23.96.396.973.37.013-.025.128-.409.256-.87.115-.46.46-1.317.755-1.919.499-.998.537-1.164.537-2.111 0-1.19-.294-1.907-1.1-2.7-.704-.691-.653-1.459.09-1.459.396 0 1.407 1.139 1.88 2.15.372.768.41.985.41 2.009 0 1.1-.026 1.203-.601 2.431-.679 1.459-.87 2.073-.87 2.828 0 .448.063.576.422.844l.41.32.012-.588c.013-.794.473-1.65 1.51-2.828 1.19-1.344 1.548-2.112 1.548-3.327 0-.832-.064-1.088-.422-1.817-.23-.474-.755-1.229-1.177-1.702-.423-.46-.768-.909-.768-.985 0-.243.41-.615.665-.615.346 0 1.305.935 1.945 1.907.832 1.267 1.037 1.92 1.037 3.289 0 1.075-.039 1.215-.474 2.111-.268.55-.819 1.344-1.305 1.881-.921 1.01-1.126 1.356-1.343 2.163-.154.563-.564.831-.934.601-.09-.051.307.371.882.947l1.05 1.05h3.403c2.099 0 3.506.05 3.66.127.18.103.243.269.243.717 0 .511.026.576.23.499.474-.205 2.125-.23 2.585-.039 1.229.512 1.92 1.638 1.92 3.11 0 2.354-2.099 4.542-5.055 5.272-.793.192-.857.243-1.395.985-.307.435-1.138 1.344-1.842 2.022l-1.267 1.254H2.031l-.268-.269c-.269-.269-.282-.333-.205-3.365.09-4.095.384-5.643 1.523-7.947 1.087-2.175 2.546-3.774 4.811-5.246 1.843-1.19 4.235-2.073 7.652-2.815 1.357-.294 4.747-.589 8.689-.742l.767-.026.077-2.047.093-2.011.002-.04.072-1.532.09-1.536-.96-.486c-1.651-.844-3.545-2.393-4.965-4.056-1.447-1.702-2.816-4.325-3.392-6.526l-.332-1.254-.602-.077c-1.446-.192-2.917-1.395-3.813-3.122-1.152-2.214-1.19-4.786-.102-6.462.55-.858.896-1.165 1.676-1.51.538-.243.768-.269 1.625-.205l.998.077v-4.248c0-3.583.039-4.428.23-5.375l.231-1.126-.307-.46c-.5-.743-1.497-2.944-1.856-4.134zm34.127 6.653c-.985-5.656-4.696-9.11-10.902-10.16-1.177-.205-3.954-.332-5.144-.256-.212.021-.692.062-1.276.111h-.003l-.002.001-1.534.131c-1.164.116-2.917.256-3.903.333-2.15.166-8.42.077-9.763-.153-.512-.077-.973-.116-1.011-.064-.115.115.32 2.124.742 3.429.73 2.252 1.984 4.287 3.545 5.745 2.226 2.073 4.517 2.88 8.535 3.02 3.058.103 6.615-.281 12.054-1.318 1.28-.243 2.47-.435 2.636-.435.345 0 .601.269 4.056 4.39l2.111 2.52.039-3.045c.025-2.393-.013-3.289-.18-4.249zm-27.83 1.728c-.922-.538-2.074-1.408-2.599-1.97-.217-.218-.422-.398-.473-.398-.18 0-.256 1.626-.217 4.748l.038 3.16 1.945-2.341c1.075-1.293 1.996-2.431 2.035-2.534.05-.14-.167-.332-.73-.665zm28.035 7.6l-3.224-3.825c-1.856-2.227-3.302-3.84-3.417-3.826-.115.012-.69.128-1.292.256-.602.128-1.92.383-2.943.563-6.36 1.087-10.762 1.228-14 .46l-.985-.243-5.49 6.564.04 5.087c.038 4.946.038 5.038.37 6.238.461 1.715.986 2.981 1.715 4.21 2.214 3.736 5.873 6.423 10.083 7.409 1.203.281 1.728.32 3.468.332 1.766 0 2.24-.05 3.468-.332 1.753-.41 2.968-.909 4.606-1.894 2.099-1.254 3.762-2.84 5.106-4.927.857-1.305 1.088-1.791 1.6-3.199.806-2.264.895-3.135.895-8.266v-4.606zm-32.63 1.037l-.41-.256c-.55-.333-1.445-.333-1.97-.013-.87.525-1.458 1.843-1.458 3.212 0 1.229.588 2.905 1.369 3.929.396.511 1.522 1.266 2.06 1.382l.41.09v-8.344zm37.352 1.037c-.294-.666-.665-1.114-1.164-1.37-.5-.256-1.37-.217-1.856.077l-.422.256v8.343l.422-.09c2.444-.537 4.159-4.632 3.02-7.216zM37.144 66.649c-3.071.896-6.373.921-9.2.051-.165-.05-.31-.096-.439-.138-.441-.142-.69-.222-.834-.133-.185.114-.197.508-.226 1.407-.006.204-.014.435-.024.694l-.01.264c-.164 4.326-.198 5.23-.583 5.419-.102.05-.228.05-.387.05h-.006c-.486 0-.473.115.116.665 1.01.96 2.418 1.74 3.954 2.175.831.244 1.305.295 2.917.282 2.099 0 2.892-.14 4.364-.819 1.19-.537 2.994-1.855 2.994-2.188 0-.064-.205-.115-.448-.115-.282 0-.474-.077-.563-.23-.064-.116-.192-1.894-.269-3.929-.09-2.047-.179-3.724-.192-3.75-.025-.025-.55.116-1.164.295zm-7.652 11.734c-2.227-.563-4.07-1.65-5.54-3.288-.628-.704-.807-.832-1.127-.807-.205.013-.832.052-1.37.064l-.997.051V84.5h23.928V74.43l-2.75-.155-.679.755c-1.484 1.664-3.378 2.803-5.605 3.353-1.612.397-4.248.397-5.86 0zm-10.378 6.053l.039-4.965.025-4.952-.41.012c-.23.013-1.049.103-1.83.23l-1.407.206v9.469h3.583zm30.045-9.457c-.128-.038-.883-.153-1.676-.268-.793-.103-1.523-.192-1.625-.192-.166 0-.192.652-.166 4.952l.038 4.965h1.791l.039-2.355c.013-1.471.09-2.418.166-2.534.09-.102.435-.166.896-.166h.755V77.22c0-1.958-.026-2.176-.218-2.24zM13.83 88.121c.256-.934.282-1.344.333-6.923.026-3.25 0-5.899-.064-5.899-1.318.18-4.44 1.51-6.001 2.534-1.037.69-2.534 2.188-3.186 3.212-1.523 2.367-2.112 4.85-2.112 8.983v2.021h7.55v-3.621c0-3.864.013-3.928.64-3.928s.64.064.64 3.8c0 2.073.05 3.493.115 3.493.204 0 .985-1.049 1.407-1.88.218-.423.525-1.23.678-1.792zm42.087-10.66c-.154-.294-2.112-1.228-3.468-1.65l-.608-.189c-.43-.133-.787-.245-.902-.272l-.294-.09.076 4.057 3.878.039c2.124.012 3.864-.013 3.851-.064 0-.064-.256-.32-.563-.589-.473-.422-.588-.46-.806-.333-.384.243-.908.051-.985-.37-.051-.193-.128-.436-.18-.538zm9.635 10.865c.742-1.536.845-2.137.845-5.068v-2.597H48.839l.052 3.096.038 3.11.473.998c.59 1.216.691 1.356 2.24 2.943l1.228 1.241h9.52l1.357-1.395c1.036-1.074 1.446-1.612 1.804-2.328zm5.58-4.53c0-.909-.18-1.305-.756-1.69-.486-.332-1.28-.37-2.124-.114l-.512.153-.077 2.227c-.05 1.548-.128 2.405-.268 2.776-.192.525-.192.55.05.55.5 0 1.946-.806 2.56-1.42.806-.806 1.126-1.497 1.126-2.482zm-23.469 2.828c-.038-.154-.077-.422-.077-.627v-.346H31.552c-8.83 0-16.085.039-16.123.09-.051.038-.09.345-.09.665-.013 1.37-.665 3.583-1.42 4.747-.269.423-.5.807-.5.832 0 .039 8.446.064 18.76.064 10.429 0 18.733-.05 18.708-.115-.013-.051-.422-.525-.896-1.036-.154-.242-.337-.47-.535-.716-.59-.735-1.313-1.633-1.794-3.558z" clip-rule="evenodd"/>
    <path fill="#313638" fill-rule="evenodd" d="M3 94.798v3.197c0 2.209 1.79 4 4 4h59.808c2.21 0 4-1.791 4-4v-3.197H3zm70.808-3V12.935H74v-3h-.192V7c0-3.866-3.134-7-7-7H7C3.134 0 0 3.134 0 7v90.995c0 3.866 3.134 7 7 7h59.808c3.866 0 7-3.134 7-7v-3.197H74v-3h-.192zm-3 0H3V12.935h67.808v78.863zM3 9.935h67.808V7c0-2.21-1.79-4-4-4H7C4.79 3 3 4.79 3 7v2.935zm33.572 86.618c.898 0 1.627.729 1.627 1.627 0 .9-.729 1.628-1.627 1.628-.9 0-1.628-.729-1.628-1.628 0-.898.729-1.627 1.628-1.627zm1.627-89.684c0-.899-.729-1.628-1.627-1.628-.9 0-1.628.729-1.628 1.628 0 .898.729 1.627 1.628 1.627.898 0 1.627-.729 1.627-1.627z" clip-rule="evenodd"/>
</svg>
