<svg width="18" height="18" viewBox="0 0 18 18" fill="none" xmlns="http://www.w3.org/2000/svg">
<g clip-path="url(#clip0)">
<path d="M5.17993 15.2298C5.30612 14.2942 5.76739 13.4361 6.47815 12.8148C7.1889 12.1935 8.10088 11.8511 9.04492 11.8511C9.98896 11.8511 10.9009 12.1935 11.6117 12.8148C12.3224 13.4361 12.7837 14.2942 12.9099 15.2298C11.7874 16.0483 10.4341 16.4893 9.04492 16.4893C7.65573 16.4893 6.30241 16.0483 5.17993 15.2298Z" fill="#D0D0D0"/>
<path d="M15.3599 2.65014C13.8866 1.17865 11.9487 0.263587 9.87627 0.0608438C7.80386 -0.1419 5.72525 0.380209 3.99468 1.53826C2.2641 2.69631 0.988693 4.41861 0.385667 6.41167C-0.217358 8.40474 -0.110637 10.5452 0.687669 12.4684C1.48598 14.3916 2.92641 15.9785 4.7636 16.9587C6.60079 17.9388 8.72103 18.2516 10.763 17.8437C12.8049 17.4358 14.6422 16.3324 15.9618 14.7217C17.2815 13.1109 18.0018 11.0924 17.9999 9.01012C18.0022 7.82813 17.77 6.65741 17.3168 5.56573C16.8637 4.47404 16.1985 3.48309 15.3599 2.65014ZM5.40996 15.1601C5.52279 14.2904 5.94829 13.4916 6.6071 12.9127C7.26591 12.3338 8.11293 12.0146 8.98992 12.0146C9.86691 12.0146 10.7139 12.3338 11.3727 12.9127C12.0315 13.4916 12.4572 14.2904 12.57 15.1601C11.5289 15.9148 10.2758 16.3212 8.98992 16.3212C7.70404 16.3212 6.45109 15.9148 5.40996 15.1601ZM6.96001 7.95013C6.96001 7.53874 7.08192 7.1366 7.31047 6.79455C7.53903 6.45249 7.86387 6.18593 8.24394 6.0285C8.62401 5.87107 9.04225 5.82983 9.44573 5.91009C9.84921 5.99034 10.2199 6.18847 10.5108 6.47936C10.8017 6.77026 10.9997 7.14088 11.08 7.54436C11.1603 7.94784 11.119 8.36608 10.9616 8.74615C10.8042 9.12622 10.5375 9.45106 10.1955 9.67962C9.85343 9.90817 9.45135 10.0301 9.03996 10.0301C8.48912 10.0275 7.96158 9.80753 7.57207 9.41802C7.18256 9.02851 6.96264 8.50097 6.96001 7.95013ZM14.06 14.3901C13.7955 13.4517 13.2681 12.6085 12.54 11.9601C12.0977 11.5555 11.5862 11.2337 11.03 11.0101C11.6843 10.5798 12.1825 9.94993 12.4504 9.21398C12.7183 8.47803 12.7416 7.67528 12.517 6.92498C12.2924 6.17468 11.8319 5.51683 11.2037 5.04913C10.5755 4.58142 9.81315 4.32885 9.02995 4.32885C8.24676 4.32885 7.48446 4.58142 6.85625 5.04913C6.22804 5.51683 5.76749 6.17468 5.54289 6.92498C5.3183 7.67528 5.34164 8.47803 5.60954 9.21398C5.87745 9.94993 6.37558 10.5798 7.02995 11.0101C6.47374 11.2337 5.96226 11.5555 5.51994 11.9601C4.79183 12.6085 4.2644 13.4517 3.99993 14.3901C2.90737 13.3837 2.14398 12.0711 1.8095 10.6238C1.47502 9.17655 1.58499 7.66204 2.12517 6.27831C2.66534 4.89459 3.61053 3.70604 4.83708 2.86816C6.06364 2.03027 7.5145 1.58202 8.99993 1.58202C10.4854 1.58202 11.9362 2.03027 13.1628 2.86816C14.3893 3.70604 15.3345 4.89459 15.8747 6.27831C16.4149 7.66204 16.525 9.17655 16.1905 10.6238C15.856 12.0711 15.0925 13.3837 13.9999 14.3901H14.06Z" fill="#313638"/>
</g>
<defs>
<clipPath id="clip0">
<rect width="18" height="18" fill="white"/>
</clipPath>
</defs>
</svg>
