<svg width="48" height="39" viewBox="0 0 48 39" fill="none" xmlns="http://www.w3.org/2000/svg">
<path fill-rule="evenodd" clip-rule="evenodd" d="M45.4232 33.0721H47.0465C47.5641 33.0721 47.9837 33.4917 47.9837 34.0093V36.4397C47.9837 38.0354 46.6853 39.3338 45.0895 39.3338H2.8942C1.29837 39.3338 0 38.0355 0 36.4397V34.0093C0 33.4917 0.419576 33.0721 0.937181 33.0721H2.56066C2.37669 32.6688 2.27323 32.2213 2.27323 31.7498V7.68676C2.27323 5.92411 3.7073 4.49004 5.46995 4.49004H11.3178C11.444 1.99282 13.5153 0 16.0432 0H28.1594H28.6777H31.9608C34.4887 0 36.5601 1.99282 36.6862 4.49004H42.5139C44.2766 4.49004 45.7106 5.92402 45.7106 7.68676V31.7498C45.7106 32.2212 45.6073 32.6688 45.4232 33.0721ZM28.1594 1.87436C28.159 1.87436 28.1586 1.87436 28.1582 1.87436L16.0432 1.87436C14.4678 1.87436 13.186 3.15605 13.186 4.73155V16.4485C13.186 18.024 14.4677 19.3057 16.0432 19.3057H18.5611H18.5613C19.0789 19.3057 19.4985 19.7253 19.4985 20.2429V22.4538L23.0924 19.5173C23.2598 19.3805 23.4694 19.3058 23.6855 19.3058H23.6859H31.9603C33.5359 19.3058 34.8178 18.024 34.8178 16.4484L34.818 4.73155C34.818 3.15615 33.5363 1.87436 31.9608 1.87436H28.1594ZM17.624 24.4302V21.1802H16.0432C13.4341 21.1802 11.3114 19.0575 11.3114 16.4484V10.3295H8.33023V29.1069H39.6527V10.3295H36.6923V16.4486C36.6923 19.0576 34.5698 21.1802 31.9608 21.1802H31.9603H24.0201L19.1545 25.156C18.5538 25.6462 17.624 25.2054 17.624 24.4302ZM4.14759 7.68667V31.7497C4.14759 32.4786 4.74026 33.0715 5.46901 33.072H42.5148C43.2435 33.0715 43.8363 32.4786 43.8363 31.7497V7.68667C43.8363 6.95754 43.243 6.3643 42.5139 6.3643H36.6923V8.45515H40.5899C41.1075 8.45515 41.5271 8.87473 41.5271 9.39234V30.0441C41.5271 30.5617 41.1075 30.9812 40.5899 30.9812H7.39305C6.87544 30.9812 6.45587 30.5617 6.45587 30.0441V9.39234C6.45587 8.87473 6.87544 8.45515 7.39305 8.45515H11.3114V6.3643H5.46995C4.74082 6.3643 4.14759 6.95754 4.14759 7.68667ZM1.87436 34.9464V36.4396C1.87436 37.0019 2.3318 37.4594 2.8942 37.4593H17.8139C17.634 37.061 17.5329 36.6197 17.5329 36.155V34.9464H5.46986H5.46808H1.87436ZM19.4073 36.155C19.4073 36.8742 19.9924 37.4594 20.7117 37.4594H27.2721C27.9913 37.4594 28.5764 36.8742 28.5764 36.155V34.9465H19.4073V36.155ZM45.0895 37.4593C45.6519 37.4593 46.1093 37.0019 46.1093 36.4396V34.9464H42.5156H42.5138H30.4507V36.155C30.4507 36.6197 30.3497 37.061 30.1696 37.4593H45.0895ZM19.7188 14.9304V6.5842C19.7188 6.04166 20.0106 5.53615 20.4804 5.26502C20.9503 4.99371 21.5341 4.99371 22.0038 5.26493L29.2318 9.43801C29.7016 9.70923 29.9934 10.2148 29.9934 10.7573C29.9934 11.2997 29.7016 11.8052 29.2318 12.0765L22.0038 16.2496C21.534 16.5209 20.9502 16.5209 20.4804 16.2496C20.0106 15.9784 19.7188 15.4729 19.7188 14.9304ZM27.7681 10.7573L21.5931 7.19215V14.3224L27.7681 10.7573Z" fill="#421540"/>
</svg>
