<svg xmlns="http://www.w3.org/2000/svg" width="30" height="30" fill="none" viewBox="0 0 30 30">
    <path fill="#313638" fill-rule="evenodd" d="M29 15c0 7.732-6.268 14-14 14S1 22.732 1 15 7.268 1 15 1s14 6.268 14 14zM15 30c8.284 0 15-6.716 15-15 0-8.284-6.716-15-15-15C6.716 0 0 6.716 0 15c0 8.284 6.716 15 15 15zm5.728-19.238c.62-.077 1.214-.237 1.772-.478-.418.613-.93 1.146-1.541 1.572.006.129.011.258.011.392 0 4-3.094 8.616-8.752 8.616-1.741 0-3.356-.494-4.718-1.36.242.031.484.043.736.043 1.438 0 2.766-.486 3.813-1.292-1.345-.028-2.475-.91-2.874-2.11.187.041.386.053.582.053.284 0 .556-.033.807-.1-1.398-.282-2.464-1.504-2.464-2.975v-.034c.41.223.895.364 1.39.373-.818-.538-1.367-1.467-1.367-2.516 0-.558.156-1.077.421-1.53 1.52 1.838 3.782 3.044 6.339 3.167-.05-.22-.071-.45-.071-.69 0-1.669 1.37-3.03 3.073-3.03.877 0 1.682.367 2.246.959.7-.138 1.356-.384 1.95-.733-.229.71-.715 1.299-1.353 1.673z" clip-rule="evenodd"/>
</svg>
