<svg xmlns="http://www.w3.org/2000/svg" width="40" height="28" fill="none" viewBox="0 0 40 28">
    <rect width="39" height="27.235" x=".5" y=".5" fill="#fff" stroke="#E2E2E2" rx="3.5"/>
    <path fill="#172B85" fill-rule="evenodd" d="M12.648 18.657h-2.424L8.407 11.52c-.086-.328-.27-.618-.539-.755-.672-.344-1.413-.617-2.22-.755v-.275H9.55c.539 0 .943.413 1.01.892l.943 5.148 2.422-6.04h2.356l-3.634 8.922zm4.98 0H15.34l1.884-8.922h2.289l-1.885 8.922zm4.846-6.45c.067-.48.471-.756.943-.756.74-.069 1.548.07 2.221.412l.404-1.92c-.673-.276-1.414-.414-2.086-.414-2.221 0-3.838 1.236-3.838 2.951 0 1.305 1.145 1.99 1.953 2.403.874.411 1.211.686 1.144 1.098 0 .617-.674.892-1.346.892-.808 0-1.616-.206-2.356-.55l-.404 1.922c.808.343 1.683.48 2.49.48 2.491.069 4.04-1.166 4.04-3.02 0-2.333-3.165-2.47-3.165-3.498zm11.173 6.45L31.83 9.735h-1.952c-.404 0-.808.275-.942.686l-3.365 8.236h2.356l.47-1.304h2.895l.269 1.304h2.086zm-3.432-6.52l.672 3.363h-1.884l1.212-3.362z" clip-rule="evenodd"/>
</svg>
