<svg xmlns="http://www.w3.org/2000/svg" width="42" height="35" fill="none" viewBox="0 0 42 35">
    <path fill="#313638" fill-rule="evenodd" d="M23.785 1.54L41.49 29.753c.645 1.028.68 2.277.092 3.34-.588 1.062-1.663 1.696-2.878 1.696H3.295c-1.214 0-2.29-.634-2.877-1.697-.588-1.062-.554-2.31.092-3.34L18.214 1.54C18.82.576 19.861 0 21 0s2.18.576 2.785 1.54zm14.92 31.609c.608 0 1.147-.318 1.442-.85.294-.533.277-1.159-.047-1.674L22.396 2.412c-.308-.49-.817-.772-1.396-.772-.58 0-1.088.282-1.396.772L1.899 30.625c-.323.515-.34 1.141-.046 1.673.294.533.834.85 1.442.85h35.41zM21 4.615c.282 0 .544.145.695.384l15.64 24.925c.16.253.168.571.024.833-.145.26-.42.423-.718.423H24.708c-.453 0-.82-.367-.82-.82 0-.453.367-.82.82-.82h10.45L21 6.977 6.842 29.54h10.45c.452 0 .82.367.82.82 0 .453-.367.82-.82.82H5.359c-.299 0-.574-.162-.718-.423-.145-.262-.136-.58.023-.833l15.64-24.925c.151-.239.413-.384.696-.384zm.772 25.431c-.132-.322-.468-.529-.816-.504-.34.025-.635.265-.73.593-.094.329.033.692.311.892.275.196.652.202.933.015.32-.214.451-.64.302-.996zm4.315-10.87l-5.05 8.598c-.15.255-.421.405-.707.405-.071 0-.144-.01-.215-.029-.357-.097-.605-.421-.605-.791v-5.204h-2.89c-.294 0-.566-.158-.712-.413-.146-.255-.144-.57.005-.823l5.05-8.598c.187-.32.564-.473.922-.376.357.097.604.421.604.791v5.204h2.89c.295 0 .566.158.712.413.147.255.145.57-.004.823zm-5.238-3.424l-2.796 4.762h2.277c.453 0 .82.367.82.82v3.008l2.797-4.761h-2.278c-.453 0-.82-.368-.82-.82v-3.009z" clip-rule="evenodd"/>
</svg>
