<svg xmlns="http://www.w3.org/2000/svg" width="19" height="21" fill="none" viewBox="0 0 19 21">
    <path fill="#313638" fill-rule="evenodd" d="M9.73.058c2.832 1.519 5.833 2.748 8.919 3.653.208.061.351.254.351.472v4.115c0 1.92-.36 3.744-1.072 5.418-.708 1.666-1.764 3.186-3.138 4.518-.983.953-2.118 1.793-3.282 2.429-.209.114-1.282.688-1.92.807-.029.006-.058.008-.088.008-.03 0-.06-.003-.088-.008-.639-.119-1.712-.693-1.92-.807-1.164-.636-2.3-1.476-3.282-2.429-1.374-1.332-2.43-2.853-3.138-4.518C.361 12.042 0 10.219 0 8.298V4.184c0-.219.143-.411.352-.472 3.081-.9 6.082-2.129 8.92-3.654.143-.077.314-.077.457 0zM8.621 13.479l5.667-5.667c.14-.14.217-.327.217-.528s-.077-.389-.217-.529-.328-.217-.529-.217c-.2 0-.388.077-.528.217l-4.671 4.67c-.258.26-.677.26-.936 0L5.632 9.434c-.14-.14-.327-.217-.528-.217-.2 0-.389.077-.529.217s-.217.328-.217.529c0 .2.077.388.217.528l2.99 2.99c.14.14.327.217.528.217.2 0 .389-.077.529-.217z" clip-rule="evenodd"/>
</svg>
