<svg xmlns="http://www.w3.org/2000/svg" width="37" height="41" fill="none" viewBox="0 0 37 41">
    <path fill="#421540" fill-rule="evenodd" d="M36.236 7.097C30.245 5.543 24.22 3.125 18.81.102c-.243-.136-.539-.136-.782 0C12.462 3.212 6.761 5.499.6 7.097c-.353.091-.6.41-.6.775v8.84c0 9.092 4.428 15.106 8.142 18.55C12.127 38.957 16.747 41 18.418 41c1.67 0 6.291-2.043 10.276-5.738 3.714-3.444 8.142-9.458 8.142-18.55v-8.84c0-.365-.247-.684-.6-.775zm-8.631 26.99c-2.207 2.047-4.351 3.339-5.762 4.062-1.787.917-3.027 1.25-3.425 1.25-.398 0-1.638-.333-3.425-1.25-1.41-.723-3.555-2.015-5.762-4.061-3.48-3.228-7.63-8.862-7.63-17.376V8.489c5.923-1.586 11.436-3.806 16.817-6.772 5.245 2.887 11.037 5.22 16.816 6.772v8.223c0 8.514-4.148 14.148-7.629 17.376zM33.456 9.24C28.384 7.764 23.451 5.76 18.795 3.286c-.235-.125-.518-.125-.753 0C13.38 5.772 8.446 7.776 3.381 9.24c-.343.1-.579.413-.579.77v6.702c0 3.13.593 6.099 1.763 8.826 1.163 2.714 2.899 5.191 5.158 7.362 1.615 1.553 3.48 2.921 5.394 3.957.343.186 2.106 1.121 3.155 1.315.048.01.097.014.146.014.048 0 .097-.005.145-.014 1.049-.194 2.812-1.13 3.155-1.315 1.914-1.036 3.78-2.404 5.395-3.957 2.259-2.17 3.994-4.648 5.157-7.361 1.17-2.728 1.763-5.698 1.763-8.827v-6.704c0-.356-.235-.67-.577-.77zm-1.024 7.473c0 5.876-2.163 10.934-6.429 15.034-1.513 1.454-3.258 2.734-5.047 3.703-.814.44-1.913.954-2.538 1.116-.625-.162-1.724-.676-2.538-1.116-1.79-.969-3.534-2.25-5.048-3.703-4.265-4.1-6.428-9.158-6.428-15.034V10.61c4.833-1.44 9.543-3.358 14.015-5.71 4.465 2.342 9.175 4.26 14.013 5.707v6.106zm-8.775-3.4c.671 0 1.3.26 1.773.733.472.472.732 1.101.732 1.772 0 .67-.26 1.3-.732 1.773l-6.86 6.86c-.473.472-1.102.732-1.773.732-.67 0-1.3-.26-1.772-.732l-3.62-3.619c-.976-.977-.976-2.567 0-3.545.473-.472 1.103-.732 1.773-.732.671 0 1.3.26 1.773.732l1.846 1.846 5.088-5.087c.472-.473 1.101-.732 1.772-.732zm-6.22 10.005l6.86-6.86c.17-.17.263-.397.263-.64s-.093-.47-.263-.64c-.17-.17-.397-.263-.64-.263s-.47.094-.64.263l-5.654 5.654c-.312.313-.82.313-1.132 0l-2.413-2.412c-.17-.17-.396-.263-.64-.263-.243 0-.47.093-.64.263-.17.17-.263.397-.263.64s.094.47.263.64l3.619 3.618c.17.17.397.263.64.263s.47-.093.64-.263z" clip-rule="evenodd"/>
</svg>
