<svg xmlns="http://www.w3.org/2000/svg" width="40" height="28" fill="none" viewBox="0 0 40 28">
    <rect width="39" height="27.235" x=".5" y=".5" fill="#fff" stroke="#E2E2E2" rx="3.5"/>
    <path fill="#000" fill-rule="evenodd" d="M11.117 9.815c-.336.415-.873.741-1.41.694-.067-.56.196-1.154.503-1.522.336-.425.924-.728 1.4-.752.055.583-.163 1.155-.493 1.58zm.486.805c-.473-.028-.905.148-1.253.291-.225.092-.415.17-.56.17-.162 0-.36-.082-.582-.174-.291-.12-.624-.258-.973-.252-.8.012-1.545.484-1.953 1.236-.84 1.505-.218 3.732.593 4.957.397.606.873 1.27 1.5 1.247.275-.01.474-.098.68-.189.235-.104.48-.213.864-.213.37 0 .605.106.83.207.214.097.42.19.726.184.649-.012 1.057-.607 1.455-1.213.428-.65.617-1.286.645-1.382l.004-.012-.016-.007c-.143-.069-1.238-.591-1.249-1.993-.01-1.176.869-1.772 1.008-1.866l.016-.011c-.56-.863-1.432-.957-1.734-.98zm4.494 7.4V8.93h3.273c1.69 0 2.87 1.212 2.87 2.985 0 1.772-1.202 2.997-2.914 2.997H17.45v3.108h-1.354zm1.354-7.901h1.561c1.175 0 1.847.653 1.847 1.801 0 1.15-.672 1.808-1.852 1.808H17.45v-3.61zm9.26 6.81c-.357.712-1.146 1.16-1.997 1.16-1.259 0-2.137-.78-2.137-1.959 0-1.166.85-1.836 2.423-1.935l1.69-.105v-.502c0-.74-.465-1.143-1.293-1.143-.683 0-1.18.368-1.281.927h-1.22c.039-1.178 1.102-2.035 2.54-2.035 1.55 0 2.557.846 2.557 2.158v4.525H26.74v-1.09h-.028zm-1.633.082c-.722 0-1.18-.362-1.18-.916 0-.571.441-.903 1.286-.956l1.505-.099v.513c0 .851-.693 1.458-1.611 1.458zm7.073 1.364c-.543 1.592-1.164 2.117-2.484 2.117-.101 0-.437-.012-.515-.035v-1.09c.084.011.29.023.397.023.599 0 .935-.262 1.142-.945l.123-.402-2.294-6.618h1.415l1.595 5.37h.028l1.595-5.37h1.376l-2.378 6.95z" clip-rule="evenodd"/>
</svg>
