<?xml version="1.0" encoding="UTF-8"?>
<svg width="12px" height="12px" viewBox="0 0 12 12" version="1.1" xmlns="http://www.w3.org/2000/svg" xmlns:xlink="http://www.w3.org/1999/xlink">
    <title>icon/arrow-right</title>
    <g id="icon/arrow-right" stroke="none" stroke-width="1" fill="none" fill-rule="evenodd">
        <path d="M4.51797819,5.99498537 L8.80592396,1.99729347 C9.05054524,1.76895599 9.05054524,1.39910973 8.80592396,1.17104703 C8.56130268,0.942984324 8.1646036,0.942984324 7.91998232,1.17104703 L3.18346596,5.58694547 C2.93884468,5.81500817 2.93884468,6.18485444 3.18346596,6.41319192 C3.20114943,6.42967838 3.22148541,6.442318 3.2406425,6.45660626 L7.93029767,10.8288156 C8.05260831,10.9428469 8.21323313,11 8.37356322,11 C8.53389331,11 8.6942234,10.9428469 8.81653404,10.8288156 C9.06115532,10.6007529 9.06115532,10.2309066 8.81653404,10.0028439 L4.51797819,5.99498537 Z" id="arrow" stroke="#008391" fill="#008391" transform="translate(6.000000, 6.000000) scale(-1, 1) translate(-6.000000, -6.000000) "></path>
    </g>
</svg>