<?xml version="1.0" encoding="UTF-8"?>
<svg width="20px" height="20px" viewBox="0 0 20 20" version="1.1" xmlns="http://www.w3.org/2000/svg" xmlns:xlink="http://www.w3.org/1999/xlink">
    <title>icon20/billedto-grey</title>
    <defs>
        <polygon id="path-1" points="0 0 15.9999 0 15.9999 20 0 20"></polygon>
    </defs>
    <g id="icon20/billedto-grey" stroke="none" stroke-width="1" fill="none" fill-rule="evenodd">
        <g id="icon20/billedto-grey-Group-6" transform="translate(2.000000, 0.000000)">
            <g id="Group-3">
                <mask id="mask-2" fill="white">
                    <use xlink:href="#path-1"></use>
                </mask>
                <g id="Clip-2"></g>
                <path d="M14.2109,0 L11.9579,2 L9.9579,0 L7.9999,2 L5.8749,0 L3.9999,2 L1.7889,0 C0.8009,0 -0.0001,0.801 -0.0001,1.789 L-0.0001,18.211 C-0.0001,19.199 0.8009,20 1.7889,20 L3.9999,18 L5.9579,20 L7.9999,18 L10.0419,20 L11.9999,18 L14.2109,20 C15.1989,20 15.9999,19.199 15.9999,18.211 L15.9999,1.789 C15.9999,0.801 15.1989,0 14.2109,0 M5.9639,2.83 L6.6289,3.456 C7.0159,3.819 7.5079,4 7.9999,4 C8.5199,4 9.0379,3.799 9.4289,3.399 L9.9739,2.843 L10.5439,3.414 C10.9339,3.804 11.4449,4 11.9589,4 C12.4319,4 12.9059,3.833 13.2859,3.496 L13.9999,2.862 L13.9999,17.112 L13.3419,16.517 C12.9599,16.171 12.4799,16 11.9999,16 C11.4809,16 10.9619,16.201 10.5709,16.601 L10.0119,17.171 L9.3989,16.571 C9.0109,16.19 8.5059,16 7.9999,16 C7.4939,16 6.9889,16.19 6.6009,16.571 L5.9879,17.171 L5.4289,16.601 C5.0379,16.201 4.5199,16 3.9999,16 C3.5209,16 3.0399,16.171 2.6579,16.517 L1.9999,17.112 L1.9999,2.888 L2.6579,3.483 C3.0409,3.829 3.5209,4 3.9999,4 C4.5329,4 5.0649,3.787 5.4589,3.368 L5.9639,2.83" id="billdeto-grey-Fill-1" fill="#909FAB" mask="url(#mask-2)"></path>
            </g>
            <path d="M10.3086,7.9829 L8.3356,7.9829 L8.3356,7.6559 C8.3356,7.3079 8.3136,7.0799 8.2676,6.9719 C8.2216,6.8649 8.1236,6.8109 7.9746,6.8109 C7.8546,6.8109 7.7636,6.8579 7.7046,6.9499 C7.6436,7.0429 7.6136,7.1819 7.6136,7.3679 C7.6136,7.6769 7.6746,7.8939 7.7986,8.0169 C7.9186,8.1409 8.2746,8.3819 8.8636,8.7399 C9.3646,9.0429 9.7056,9.2749 9.8886,9.4359 C10.0716,9.5969 10.2246,9.8249 10.3506,10.1189 C10.4756,10.4139 10.5376,10.7809 10.5376,11.2199 C10.5376,11.9229 10.3696,12.4749 10.0306,12.8759 C9.6916,13.2759 9.1836,13.5239 8.5066,13.6179 L8.5066,14.3599 L7.5986,14.3599 L7.5986,13.5929 C7.0716,13.5409 6.6106,13.3379 6.2166,12.9849 C5.8236,12.6319 5.6256,12.0159 5.6256,11.1369 L5.6256,10.7519 L7.5986,10.7519 L7.5986,11.2349 C7.5986,11.7659 7.6196,12.0949 7.6596,12.2239 C7.7006,12.3519 7.7986,12.4169 7.9546,12.4169 C8.0886,12.4169 8.1876,12.3719 8.2526,12.2819 C8.3186,12.1929 8.3506,12.0599 8.3506,11.8839 C8.3506,11.4409 8.3196,11.1249 8.2576,10.9349 C8.1966,10.7439 7.9846,10.5369 7.6226,10.3119 C7.0206,9.9349 6.6116,9.6569 6.3956,9.4799 C6.1786,9.3019 5.9916,9.0519 5.8326,8.7299 C5.6756,8.4079 5.5966,8.0429 5.5966,7.6359 C5.5966,7.0469 5.7636,6.5849 6.0966,6.2499 C6.4306,5.9139 6.9316,5.7079 7.5986,5.6289 L7.5986,4.9999 L8.5066,4.9999 L8.5066,5.6289 C9.1156,5.7079 9.5716,5.9119 9.8736,6.2419 C10.1766,6.5729 10.3286,7.0289 10.3286,7.6119 C10.3286,7.6929 10.3216,7.8169 10.3086,7.9829" id="Fill-4" fill="#909FAB"></path>
        </g>
    </g>
</svg>