<?xml version="1.0" encoding="UTF-8"?>
<svg width="13px" height="13px" viewBox="0 0 13 13" version="1.1" xmlns="http://www.w3.org/2000/svg" xmlns:xlink="http://www.w3.org/1999/xlink" style="background: #FFFFFF;">
    <title>icon/callus_P_16</title>
    <g id="icon/callus_P_16" stroke="none" stroke-width="1" fill="none" fill-rule="evenodd">
        <rect fill="#FFFFFF" x="0" y="0" width="13" height="13"></rect>
        <path d="M4.98582214,8.03839285 C6.15197961,9.19768205 7.5010897,10.3059988 8.03050755,9.77118861 C8.7900144,9.00500092 9.25711635,8.33862313 10.9401754,9.68445541 C12.6232341,11.0302877 11.337505,11.9363159 10.6030308,12.6784852 C9.75537652,13.5343416 6.57940184,12.7379975 3.43165596,9.60732958 C0.283643598,6.47586105 -0.534983515,3.29955813 0.314002639,2.44370168 C1.04847659,1.70126555 1.94300104,0.406672593 3.29743727,2.08395909 C4.65400401,3.7601781 3.99223149,4.2336079 3.23405625,4.99872807 C2.70330679,5.53353829 3.81966494,6.87830307 4.98582214,8.03839285 L4.98582214,8.03839285 Z M6.67607132,2.50401462 C6.67607132,2.50401462 6.32454643,2.44877222 6.07794631,2.69589512 C5.82522114,2.95022352 5.81376994,3.38815943 6.08114194,3.65609827 C6.23932814,3.81328549 6.46196048,3.84771191 6.46196048,3.84771191 C6.89577424,3.92910768 7.54902472,4.06681328 8.24594972,4.76414815 C8.94074395,5.46148303 9.07922366,6.11718595 9.16018092,6.55191939 C9.16018092,6.55191939 9.19346912,6.77502384 9.35165532,6.93354544 C9.61902731,7.20148428 10.0560367,7.19000882 10.3087619,6.93674789 C10.555362,6.68962502 10.5013017,6.33708795 10.5013017,6.33708795 C10.3628222,5.45641246 9.93619863,4.53570627 9.20492031,3.80287751 C8.47364199,3.06898126 7.55514977,2.64278771 6.67607132,2.50401462 L6.67607132,2.50401462 Z M9.97587835,3.03055179 C11.2512216,4.30859875 11.7952863,5.75957832 11.6184585,6.9356804 C11.6184585,6.9356804 11.5569417,7.30769908 11.7995473,7.55055201 C12.071979,7.82489577 12.5047276,7.80915037 12.7606484,7.55268699 C12.9249597,7.38802736 12.9614435,7.12008851 12.9614435,7.12008851 C13.1071134,6.104643 12.9228292,4.06040838 10.9359143,2.06821369 C8.9482006,0.0770864587 6.90802435,-0.107321656 5.89499342,0.0386569898 C5.89499342,0.0386569898 5.62762142,0.0741508759 5.46331017,0.239878002 C5.20738937,0.495273889 5.19167742,0.928939832 5.46437556,1.20301673 C5.70777978,1.44586966 6.07901143,1.38448927 6.07901143,1.38448927 C7.25235907,1.20728667 8.70053536,1.75250487 9.97587835,3.03055179 L9.97587835,3.03055179 Z" id="phone-call" fill="#008391"></path>
    </g>
</svg>