<?xml version="1.0" encoding="UTF-8"?>
<svg width="50px" height="50px" viewBox="0 0 50 50" version="1.1" xmlns="http://www.w3.org/2000/svg" xmlns:xlink="http://www.w3.org/1999/xlink">
    <title>icon30/cart</title>
    <g id="cart-svg" stroke="none" stroke-width="1" fill="none" fill-rule="evenodd">
        <g id="header/OurRoasters-desktop" transform="translate(-1370.000000, -25.000000)">
            <g id="icon30/cart" transform="translate(1370.000000, 24.000000)">
                <g id="icon30/cart-Group">
                    <g transform="translate(0.000000, 0.212607)">
                        <circle id="Oval" fill="#FFFFFF" cx="25" cy="25.7873933" r="25"></circle>
                        <path d="M10.0053199,15.1207162 C9.45301993,15.1207162 9.00531993,15.5684333 9.00531993,16.1207162 C9.00531993,16.673 9.45301993,17.1207162 10.0053199,17.1207162 L13.19282,17.1207162 L16.63032,33.3394667 C16.76632,33.95 17.1664533,34.4581333 17.6719867,34.4541498 L34.3386533,34.4541498 C34.8669533,34.4614 35.352885,33.9824333 35.352885,33.4540667 C35.352885,32.9257 34.8669533,32.4466 34.3386533,32.4540667 L18.4844867,32.4540667 L18.0573867,30.4540333 L35.671985,30.4540333 C36.1197183,30.4507 36.5427517,30.1097 36.6407183,29.6728 L38.9740517,19.6728 C39.104085,19.0924433 38.6000517,18.4583133 38.0053199,18.45405 L15.5261533,18.45405 L14.9844867,15.9123833 C14.8898533,15.46835 14.45932,15.12025 14.0053199,15.1207162 L10.0053199,15.1207162 Z M15.94282,20.45405 L36.7449183,20.45405 L34.88032,28.4540333 L17.64072,28.4540333 L15.94282,20.45405 Z M21.00532,35.1207333 C19.17622,35.1207333 17.6719867,36.6249333 17.6719867,38.4540667 C17.6719867,40.2831667 19.17622,41.7874 21.00532,41.7874 C22.83442,41.7874 24.3386533,40.2831667 24.3386533,38.4540667 C24.3386533,36.6249667 22.83442,35.1207333 21.00532,35.1207333 Z M31.00532,35.1207333 C29.17622,35.1207333 27.6719867,36.6249333 27.6719867,38.4540667 C27.6719867,40.2831667 29.17622,41.7874 31.00532,41.7874 C32.83442,41.7874 34.3386533,40.2831667 34.3386533,38.4540667 C34.3386533,36.6249667 32.83442,35.1207333 31.00532,35.1207333 Z M21.00532,37.1207333 C21.7535533,37.1207333 22.3386533,37.7058333 22.3386533,38.4540667 C22.3386533,39.2023 21.7535533,39.7874 21.00532,39.7874 C20.2571533,39.7874 19.6719867,39.2022667 19.6719867,38.4540667 C19.6719867,37.7058667 20.2571533,37.1207333 21.00532,37.1207333 Z M31.00532,37.1207333 C31.7535533,37.1207333 32.3386533,37.7058333 32.3386533,38.4540667 C32.3386533,39.2023 31.7535533,39.7874 31.00532,39.7874 C30.2571533,39.7874 29.6719867,39.2022667 29.6719867,38.4540667 C29.6719867,37.7058667 30.2571533,37.1207333 31.00532,37.1207333 Z" id="Shape2" stroke="#39BBBB" stroke-width="0.05" fill="#39BBBB" fill-rule="nonzero"></path>
                    </g>
                </g>
            </g>
        </g>
    </g>
</svg>