<?xml version="1.0" encoding="UTF-8"?>
<svg width="50px" height="50px" viewBox="0 0 50 50" version="1.1" xmlns="http://www.w3.org/2000/svg" xmlns:xlink="http://www.w3.org/1999/xlink">
    <title>icon30/user</title>
    <g id="icon30/user" stroke="none" stroke-width="1" fill="none" fill-rule="evenodd">
        <g id="Group-6">
            <g id="icon30/user">
                <circle id="Oval-Copy" cx="25" cy="25" r="25"></circle>
            </g>
            <path d="M24.4867361,9 C19.9333637,9 16.3672499,12.843376 16.3672499,17.7499475 C16.3672499,19.8196515 17.0380127,21.7948772 18.2271515,23.3556582 C15.0830322,25.3699349 12.8897029,29.0747428 11.1027387,35.2271678 C10.9125807,35.8847365 11.0324062,36.4226328 11.0975289,36.7098467 C11.0910166,36.6733151 11.0884117,36.5788369 11.0871092,36.4969557 C11.0962264,37.882637 12.2593161,39 13.6920134,39 L35.3947722,39 C36.091584,39 36.7584395,38.7316817 37.2481615,38.2517321 C37.7378834,37.7730422 38.007491,37.1242914 37.9998416,36.4503464 C37.993164,35.9905522 37.9384611,35.5874449 37.83166,35.2208692 C36.2687175,29.8393869 34.4452846,25.699979 31.0263479,23.4110855 C32.2506529,21.838967 32.9422549,19.8423263 32.9422549,17.7499475 C32.9422549,12.9252572 29.1495145,9 24.4867361,9 M24.4867361,11.5194205 C27.6256456,11.5194205 30.3373508,14.2567709 30.3373508,17.7499475 C30.3373508,19.8775982 29.3839559,21.8515641 27.7858472,23.0331724 C27.5032151,23.2410246 27.3586429,23.5798866 27.4055312,23.9212681 C27.4524195,24.2613899 27.6842559,24.552383 28.0137763,24.6821331 C31.8117265,26.1837077 33.6833502,30.2538316 35.3244398,35.9048919 C35.385655,36.1165232 35.3934697,36.3672055 35.3947722,36.4805795 L13.6920134,36.4805795 C13.6907109,36.2916229 13.5813049,36.0056687 13.6086564,35.9074113 C15.5180512,29.3355028 17.8012496,25.9745958 21.2410256,24.6682763 C21.5744533,24.5423053 21.8101971,24.2525719 21.8596903,23.9111904 C21.9104859,23.5685492 21.7672162,23.2271678 21.4832816,23.0155364 C19.9008024,21.8339282 18.9721541,19.8637413 18.9721541,17.7499475 C18.9721541,14.2567709 21.3478266,11.5194205 24.4867361,11.5194205" id="Fill-1" fill="#008391"></path>
            <path d="M26.65,24.0599369 C24.6410112,23.9250789 22.65,24.0599369 22.65,24.0599369 C22.65,24.0599369 24.6410112,26.1750789 26.65,24.0599369" id="Fill-4" fill="#008391"></path>
        </g>
    </g>
</svg>