<?xml version="1.0" encoding="UTF-8"?>
<svg width="20px" height="20px" viewBox="0 0 20 20" version="1.1" xmlns="http://www.w3.org/2000/svg" xmlns:xlink="http://www.w3.org/1999/xlink">
    <title>icon20/payment-grey</title>
    <defs>
        <polygon id="path-1" points="0 0 19.9999 0 19.9999 16 0 16"></polygon>
    </defs>
    <g id="icon20/payment-grey" stroke="none" stroke-width="1" fill="none" fill-rule="evenodd">
        <g id="Group-8" transform="translate(0.000000, 2.000000)">
            <g id="Group-3">
                <mask id="mask-2" fill="white">
                    <use xlink:href="#path-1"></use>
                </mask>
                <g id="Clip-2"></g>
                <path d="M18.2109,0 L1.7889,0 C0.8009,0 -0.0001,0.801 -0.0001,1.789 L-0.0001,14.211 C-0.0001,15.199 0.8009,16 1.7889,16 L18.2109,16 C19.1989,16 19.9999,15.199 19.9999,14.211 L19.9999,1.789 C19.9999,0.801 19.1989,0 18.2109,0 L18.2109,0 Z M1.9999,14 L17.9999,14 L17.9999,2 L1.9999,2 L1.9999,14 Z" id="payment-grey-Fill-1" fill="#909FAB" mask="url(#mask-2)"></path>
            </g>
            <path d="M18.265,4 L1.735,4 C1.33,4 1,4.219 1,4.49 L1,5.51 C1,5.781 1.33,6 1.735,6 L18.265,6 C18.6715,6 19,5.781 19,5.51 L19,4.49 C19,4.219 18.6715,4 18.265,4" id="Fill-4-Copy" fill="#909FAB"></path>
        </g>
    </g>
</svg>