<?xml version="1.0" encoding="UTF-8"?>
<svg width="20px" height="20px" viewBox="0 0 20 20" version="1.1" xmlns="http://www.w3.org/2000/svg" xmlns:xlink="http://www.w3.org/1999/xlink">
    <title>icon20/shipsto-grey</title>
    <g id="icon20/shipsto-grey" stroke="none" stroke-width="1" fill="none" fill-rule="evenodd">
        <g id="Group-9" fill="#909FAB">
            <path d="M18,0 L2,0 C0.896,0 0,0.896 0,2 L0,18 C0,19.104 0.896,20 2,20 L18,20 C19.104,20 20,19.104 20,18 L20,2 C20,0.896 19.104,0 18,0 L18,0 Z M2,18 L18,18 L18,2 L2,2 L2,18 Z" id="shipsto-grey-Fill-1"></path>
            <path d="M12.4004,0 L7.5994,0 C7.2684,0 7.0004,0.269 7.0004,0.6 L7.0004,5.4 C7.0004,5.731 7.2684,6 7.5994,6 L12.4004,6 C12.7314,6 13.0004,5.731 13.0004,5.4 L13.0004,0.6 C13.0004,0.269 12.7314,0 12.4004,0 L12.4004,0 Z M9.0004,4 L11.0004,4 L11.0004,2 L9.0004,2 L9.0004,4 Z" id="Fill-3"></path>
            <path d="M16.6836,12 L15.3166,12 C15.1416,12 14.9996,12.142 14.9996,12.316 L14.9996,16.684 C14.9996,16.858 15.1416,17 15.3166,17 L16.6836,17 C16.8586,17 16.9996,16.858 16.9996,16.684 L16.9996,12.316 C16.9996,12.142 16.8586,12 16.6836,12" id="Fill-5"></path>
            <path d="M13.6836,12 L12.3166,12 C12.1416,12 11.9996,12.142 11.9996,12.316 L11.9996,16.684 C11.9996,16.858 12.1416,17 12.3166,17 L13.6836,17 C13.8586,17 13.9996,16.858 13.9996,16.684 L13.9996,12.316 C13.9996,12.142 13.8586,12 13.6836,12" id="Fill-7"></path>
        </g>
    </g>
</svg>