<?xml version="1.0" encoding="UTF-8"?>
<!DOCTYPE svg PUBLIC "-//W3C//DTD SVG 1.1//EN" "http://www.w3.org/Graphics/SVG/1.1/DTD/svg11.dtd">
<svg
    xmlns="http://www.w3.org/2000/svg"
    xmlns:xlink="http://www.w3.org/1999/xlink">
    <defs>
        <svg version="1.1" id="cart-nav" x="0" y="0" viewBox="0 0 50 50" xml:space="preserve"
             xmlns="http://www.w3.org/2000/svg">
          <g id="cart-nav-symbol" stroke="none" stroke-width="1" fill="none" fill-rule="evenodd">
            <g transform="translate(-1370.000000, -25.000000)">
                <g id="icon30/cart" transform="translate(1370.000000, 24.000000)">
                    <g id="cart-nav-symbol-Group">
                        <g transform="translate(0.000000, 0.212607)">
                            <circle id="Oval" fill="#FFFFFF" cx="25" cy="25.7873933" r="25"></circle>
                            <path d="M10.0053199,15.1207162 C9.45301993,15.1207162 9.00531993,15.5684333 9.00531993,16.1207162 C9.00531993,16.673 9.45301993,17.1207162 10.0053199,17.1207162 L13.19282,17.1207162 L16.63032,33.3394667 C16.76632,33.95 17.1664533,34.4581333 17.6719867,34.4541498 L34.3386533,34.4541498 C34.8669533,34.4614 35.352885,33.9824333 35.352885,33.4540667 C35.352885,32.9257 34.8669533,32.4466 34.3386533,32.4540667 L18.4844867,32.4540667 L18.0573867,30.4540333 L35.671985,30.4540333 C36.1197183,30.4507 36.5427517,30.1097 36.6407183,29.6728 L38.9740517,19.6728 C39.104085,19.0924433 38.6000517,18.4583133 38.0053199,18.45405 L15.5261533,18.45405 L14.9844867,15.9123833 C14.8898533,15.46835 14.45932,15.12025 14.0053199,15.1207162 L10.0053199,15.1207162 Z M15.94282,20.45405 L36.7449183,20.45405 L34.88032,28.4540333 L17.64072,28.4540333 L15.94282,20.45405 Z M21.00532,35.1207333 C19.17622,35.1207333 17.6719867,36.6249333 17.6719867,38.4540667 C17.6719867,40.2831667 19.17622,41.7874 21.00532,41.7874 C22.83442,41.7874 24.3386533,40.2831667 24.3386533,38.4540667 C24.3386533,36.6249667 22.83442,35.1207333 21.00532,35.1207333 Z M31.00532,35.1207333 C29.17622,35.1207333 27.6719867,36.6249333 27.6719867,38.4540667 C27.6719867,40.2831667 29.17622,41.7874 31.00532,41.7874 C32.83442,41.7874 34.3386533,40.2831667 34.3386533,38.4540667 C34.3386533,36.6249667 32.83442,35.1207333 31.00532,35.1207333 Z M21.00532,37.1207333 C21.7535533,37.1207333 22.3386533,37.7058333 22.3386533,38.4540667 C22.3386533,39.2023 21.7535533,39.7874 21.00532,39.7874 C20.2571533,39.7874 19.6719867,39.2022667 19.6719867,38.4540667 C19.6719867,37.7058667 20.2571533,37.1207333 21.00532,37.1207333 Z M31.00532,37.1207333 C31.7535533,37.1207333 32.3386533,37.7058333 32.3386533,38.4540667 C32.3386533,39.2023 31.7535533,39.7874 31.00532,39.7874 C30.2571533,39.7874 29.6719867,39.2022667 29.6719867,38.4540667 C29.6719867,37.7058667 30.2571533,37.1207333 31.00532,37.1207333 Z" id="Shape1" stroke="#39BBBB" stroke-width="0.05" fill="#008384" fill-rule="nonzero"></path>
                        </g>
                    </g>
                </g>
            </g>
          </g>
        </svg>
        <svg viewBox="0 0 16 15" id="icn-download" xmlns="http://www.w3.org/2000/svg"><path d="M3.072 7.563a.637.637 0 0 1 0-.911.638.638 0 0 1 .912 0l3.376 3.39V.64C7.36.288 7.648 0 8 0c.352 0 .64.288.64.64v9.402l3.392-3.39a.638.638 0 0 1 .912 0 .637.637 0 0 1 0 .911l-4.48 4.477c-.016.016-.048.032-.064.048l-.144.096a.642.642 0 0 1-.24.048.642.642 0 0 1-.24-.048c-.048-.016-.096-.064-.144-.096-.016-.016-.048-.032-.064-.048L3.072 7.563zM15.36 9.594c-.352 0-.64.304-.64.676v3.378H1.28V10.27c0-.372-.288-.676-.64-.676-.352 0-.64.304-.64.676v4.054c0 .372.288.676.64.676h14.72c.352 0 .64-.304.64-.676V10.27c0-.372-.288-.676-.64-.676z" fill-rule="nonzero" fill="#391538"/></svg>
        <svg version="1.1" id="user-icon" x="0" y="0" viewBox="0 0 50 50" xml:space="preserve"
             xmlns="http://www.w3.org/2000/svg">
            <style/>
            <g id="user-icon-symbol" stroke="none" stroke-width="1" fill="none" fill-rule="evenodd">
                <g transform="translate(-1299.000000, -25.000000)">
                    <g id="icon30/user-icon" transform="translate(1299.000000, 25.000000)">
                        <g fill="#FFFFFF" id="Oval-Copy-user-icon-one">
                            <circle cx="25" cy="25" r="25"></circle>
                        </g>
                        <g id="user-icon-one-Group-6" transform="translate(11.000000, 9.000000)" fill="#008384">
                            <path d="M13.4867361,0 C8.93336368,0 5.36724992,3.84337602 5.36724992,8.74994751 C5.36724992,10.8196515 6.03801273,12.7948772 7.22715147,14.3556582 C4.08303218,16.3699349 1.8897029,20.0747428 0.102738661,26.2271678 C-0.0874193409,26.8847365 0.0324062493,27.4226328 0.0975288527,27.7098467 C0.0910165924,27.6733151 0.0884116882,27.5788369 0.0871092362,27.4969557 C0.0962264006,28.882637 1.2593161,30 2.69201337,30 L24.3947722,30 C25.091584,30 25.7584395,29.7316817 26.2481615,29.2517321 C26.7378834,28.7730422 27.007491,28.1242914 26.9998416,27.4503464 C26.993164,26.9905522 26.9384611,26.5874449 26.83166,26.2208692 C25.2687175,20.8393869 23.4452846,16.699979 20.0263479,14.4110855 C21.2506529,12.838967 21.9422549,10.8423263 21.9422549,8.74994751 C21.9422549,3.92525719 18.1495145,0 13.4867361,0 M13.4867361,2.51942053 C16.6256456,2.51942053 19.3373508,5.25677094 19.3373508,8.74994751 C19.3373508,10.8775982 18.3839559,12.8515641 16.7858472,14.0331724 C16.5032151,14.2410246 16.3586429,14.5798866 16.4055312,14.9212681 C16.4524195,15.2613899 16.6842559,15.552383 17.0137763,15.6821331 C20.8117265,17.1837077 22.6833502,21.2538316 24.3244398,26.9048919 C24.385655,27.1165232 24.3934697,27.3672055 24.3947722,27.4805795 L2.69201337,27.4805795 C2.69071092,27.2916229 2.58130495,27.0056687 2.60865644,26.9074113 C4.51805117,20.3355028 6.80124964,16.9745958 10.2410256,15.6682763 C10.5744533,15.5423053 10.8101971,15.2525719 10.8596903,14.9111904 C10.9104859,14.5685492 10.7672162,14.2271678 10.4832816,14.0155364 C8.90080238,12.8339282 7.97215405,10.8637413 7.97215405,8.74994751 C7.97215405,5.25677094 10.3478266,2.51942053 13.4867361,2.51942053" id="user-icon-one-Fill-1"></path>
                            <path d="M15.65,15.0599369 C13.6410112,14.9250789 11.65,15.0599369 11.65,15.0599369 C11.65,15.0599369 13.6410112,17.1750789 15.65,15.0599369" id="Fill-4"></path>
                        </g>
                    </g>
                </g>
            </g>
        </svg>
        <svg version="1.1" id="logged-user-icon" x="0" y="0" viewBox="0 0 50 50" xml:space="preserve"
             xmlns="http://www.w3.org/2000/svg">
            <style/>
            <g stroke="none" stroke-width="1" fill="none" fill-rule="evenodd">
                <g id="logged-user-icon-Group">
                    <g id="icon30/user-user-icon" fill="#B06646">
                        <circle id="Oval-Copy-user-icon-two" cx="25" cy="25" r="25"></circle>
                    </g>
                    <g id="user-icon-two-Group-6" transform="translate(12.000000, 9.000000)"></g>
                    <path d="M25.4867361,9 C20.9333637,9 17.3672499,12.843376 17.3672499,17.7499475 C17.3672499,19.8196515 18.0380127,21.7948772 19.2271515,23.3556582 C16.0830322,25.3699349 13.8897029,29.0747428 12.1027387,35.2271678 C11.9125807,35.8847365 12.0324062,36.4226328 12.0975289,36.7098467 C12.0910166,36.6733151 12.0884117,36.5788369 12.0871092,36.4969557 C12.0962264,37.882637 13.2593161,39 14.6920134,39 L36.3947722,39 C37.091584,39 37.7584395,38.7316817 38.2481615,38.2517321 C38.7378834,37.7730422 39.007491,37.1242914 38.9998416,36.4503464 C38.993164,35.9905522 38.9384611,35.5874449 38.83166,35.2208692 C37.2687175,29.8393869 35.4452846,25.699979 32.0263479,23.4110855 C33.2506529,21.838967 33.9422549,19.8423263 33.9422549,17.7499475 C33.9422549,12.9252572 30.1495145,9 25.4867361,9 M25.4867361,11.5194205 C28.6256456,11.5194205 31.3373508,14.2567709 31.3373508,17.7499475 C31.3373508,19.8775982 30.3839559,21.8515641 28.7858472,23.0331724 C28.5032151,23.2410246 28.3586429,23.5798866 28.4055312,23.9212681 C28.4524195,24.2613899 28.6842559,24.552383 29.0137763,24.6821331 C32.8117265,26.1837077 34.6833502,30.2538316 36.3244398,35.9048919 C36.385655,36.1165232 36.3934697,36.3672055 36.3947722,36.4805795 L14.6920134,36.4805795 C14.6907109,36.2916229 14.5813049,36.0056687 14.6086564,35.9074113 C16.5180512,29.3355028 18.8012496,25.9745958 22.2410256,24.6682763 C22.5744533,24.5423053 22.8101971,24.2525719 22.8596903,23.9111904 C22.9104859,23.5685492 22.7672162,23.2271678 22.4832816,23.0155364 C20.9008024,21.8339282 19.9721541,19.8637413 19.9721541,17.7499475 C19.9721541,14.2567709 22.3478266,11.5194205 25.4867361,11.5194205" id="user-icon-two-Fill-1" fill="#FFFFFF"></path>
                </g>
            </g>
        </svg>
        <svg viewBox="0 0 1024 1024" id="icn-close" xmlns="http://www.w3.org/2000/svg">
            <path d="M26.797 123.838l873.364 873.364c26.797 26.797 70.244 26.797 97.041 0s26.797-70.244 0-97.041L123.838 26.797C97.041 0 53.594 0 26.797 26.797s-26.797 70.244 0 97.041z"/>
            <path d="M900.161 26.798L26.797 900.162C0 926.959 0 970.406 26.797 997.203s70.244 26.797 97.041 0l873.364-873.364c26.797-26.797 26.797-70.244 0-97.041s-70.244-26.797-97.041 0z"/>
        </svg>
        <svg viewBox="0 0 40 37" id="Alert" xmlns="http://www.w3.org/2000/svg">
            <g fill="none" fill-rule="evenodd"><path d="M17.926 3.34c1.11-1.907 2.909-1.907 4.019 0l16.448 28.268c1.11 1.907.224 3.453-1.99 3.453H3.468c-2.21 0-3.1-1.545-1.99-3.453L17.925 3.34z" stroke="#313638" stroke-width="2"/>
                <text font-family="ArialRoundedMTBold, Arial Rounded MT Bold" font-size="20" fill="#313638" transform="translate(1 1.91)">
                    <tspan x="16.313" y="26">i</tspan>
                </text>
            </g>
        </svg>
        <svg viewBox="0 0 50 52" id="blue-cart"  version="1.1" xmlns="http://www.w3.org/2000/svg" xmlns:xlink="http://www.w3.org/1999/xlink">
            <g id="visual-design-02" stroke="none" stroke-width="1" fill="none" fill-rule="evenodd">
                <g id="06.00-Your-Cart---One-Order---Desktop-2000px" transform="translate(-1930.000000, -23.000000)">
                    <g id="icon30/Cart-Active" transform="translate(1930.000000, 23.000000)">
                        <circle id="Oval-blue-cart" fill="#007584" cx="25" cy="26" r="25"></circle>
                        <path d="M10.0053199,15.3333229 C9.45301993,15.3333229 9.00531993,15.78104 9.00531993,16.3333229 C9.00531993,16.8856067 9.45301993,17.3333229 10.0053199,17.3333229 L13.19282,17.3333229 L16.63032,33.5520733 C16.76632,34.1626067 17.1664533,34.67074 17.6719867,34.6667565 L34.3386533,34.6667565 C34.8669533,34.6740067 35.352885,34.19504 35.352885,33.6666733 C35.352885,33.1383067 34.8669533,32.6592067 34.3386533,32.6666733 L18.4844867,32.6666733 L18.0573867,30.66664 L35.671985,30.66664 C36.1197183,30.6633067 36.5427517,30.3223067 36.6407183,29.8854067 L38.9740517,19.8854067 C39.104085,19.30505 38.6000517,18.67092 38.0053199,18.6666567 L15.5261533,18.6666567 L14.9844867,16.12499 C14.8898533,15.6809567 14.45932,15.3328567 14.0053199,15.3333229 L10.0053199,15.3333229 Z M15.94282,20.6666567 L36.7449183,20.6666567 L34.88032,28.66664 L17.64072,28.66664 L15.94282,20.6666567 Z M21.00532,35.33334 C19.17622,35.33334 17.6719867,36.83754 17.6719867,38.6666733 C17.6719867,40.4957733 19.17622,42.0000067 21.00532,42.0000067 C22.83442,42.0000067 24.3386533,40.4957733 24.3386533,38.6666733 C24.3386533,36.8375733 22.83442,35.33334 21.00532,35.33334 Z M31.00532,35.33334 C29.17622,35.33334 27.6719867,36.83754 27.6719867,38.6666733 C27.6719867,40.4957733 29.17622,42.0000067 31.00532,42.0000067 C32.83442,42.0000067 34.3386533,40.4957733 34.3386533,38.6666733 C34.3386533,36.8375733 32.83442,35.33334 31.00532,35.33334 Z M21.00532,37.33334 C21.7535533,37.33334 22.3386533,37.91844 22.3386533,38.6666733 C22.3386533,39.4149067 21.7535533,40.0000067 21.00532,40.0000067 C20.2571533,40.0000067 19.6719867,39.4148733 19.6719867,38.6666733 C19.6719867,37.9184733 20.2571533,37.33334 21.00532,37.33334 Z M31.00532,37.33334 C31.7535533,37.33334 32.3386533,37.91844 32.3386533,38.6666733 C32.3386533,39.4149067 31.7535533,40.0000067 31.00532,40.0000067 C30.2571533,40.0000067 29.6719867,39.4148733 29.6719867,38.6666733 C29.6719867,37.9184733 30.2571533,37.33334 31.00532,37.33334 Z" id="Shape" stroke="#FFFFFF" stroke-width="0.05" fill="#FFFFFF" fill-rule="nonzero"></path>
                    </g>
                </g>
            </g>
        </svg>
        <svg version="1.1" id="Search-Icon" x="0" y="0" viewBox="0 0 50 50" xml:space="preserve"
            xmlns="http://www.w3.org/2000/svg">
            <style/>
            <g id="Search-Icon-symbol" stroke="none" stroke-width="1" fill="none" fill-rule="evenodd">
                <g transform="translate(-1299.000000, -25.000000)">
                    <g id="icon30/Search-Icon1" transform="translate(1299.000000, 25.000000)">
                        <g fill="#FFFFFF" id="Oval-Copy-Search-Icon">
                            <circle cx="25" cy="25" r="25"></circle>
                        </g>
                        <g  fill="#008384">
                        <path d="M23.5,10.85 C17.0660725,10.85 11.85,16.0660725 11.85,22.5 C11.85,28.9339275 17.0660725,34.15 23.5,34.15 C29.9339275,34.15 35.15,28.9339275 35.15,22.5 C35.15,16.0660725 29.9339275,10.85 23.5,10.85 Z M23.5,13.15 C28.6636725,13.15 32.85,17.3363275 32.85,22.5 C32.85,27.6636725 28.6636725,31.85 23.5,31.85 C18.3363275,31.85 14.15,27.6636725 14.15,22.5 C14.15,17.3363275 18.3363275,13.15 23.5,13.15 Z" id="Stroke-11" fill="#007584" fill-rule="nonzero"></path>
                            <path d="M30.1868272,29.1868272 C30.6038514,28.769803 31.2614736,28.7400156 31.7128689,29.0974649 L31.8131728,29.1868272 L38.8131728,36.1868272 C39.2622757,36.6359301 39.2622757,37.3640699 38.8131728,37.8131728 C38.3961486,38.230197 37.7385264,38.2599844 37.2871311,37.9025351 L37.1868272,37.8131728 L30.1868272,30.8131728 C29.7377243,30.3640699 29.7377243,29.6359301 30.1868272,29.1868272 Z" id="Stroke-33" fill="#007584" fill-rule="nonzero"></path>
                        </g>
                    </g>
                </g>
            </g>
        </svg>

        <svg version="1.1" id="Search-Icon-active" x="0" y="0" viewBox="0 0 50 50" xml:space="preserve"
            xmlns="http://www.w3.org/2000/svg">
            <style/>
            <g id="Search-Icon-active-symbol" stroke="none" stroke-width="1" fill="none" fill-rule="evenodd">
                <g transform="translate(-1299.000000, -25.000000)">
                    <g id="icon30/Search-Icon" transform="translate(1299.000000, 25.000000)">
                        <g fill="#007584" id="Oval-Copy-Search-active-Icon">
                            <circle cx="25" cy="25" r="25"></circle>
                        </g>
                        <g  fill="#FFFFFF">
                            <path d="M23.5,10.85 C17.0660725,10.85 11.85,16.0660725 11.85,22.5 C11.85,28.9339275 17.0660725,34.15 23.5,34.15 C29.9339275,34.15 35.15,28.9339275 35.15,22.5 C35.15,16.0660725 29.9339275,10.85 23.5,10.85 Z M23.5,13.15 C28.6636725,13.15 32.85,17.3363275 32.85,22.5 C32.85,27.6636725 28.6636725,31.85 23.5,31.85 C18.3363275,31.85 14.15,27.6636725 14.15,22.5 C14.15,17.3363275 18.3363275,13.15 23.5,13.15 Z" id="Stroke-1" fill="#FFFFFF" fill-rule="nonzero"></path>
                            <path d="M30.1868272,29.1868272 C30.6038514,28.769803 31.2614736,28.7400156 31.7128689,29.0974649 L31.8131728,29.1868272 L38.8131728,36.1868272 C39.2622757,36.6359301 39.2622757,37.3640699 38.8131728,37.8131728 C38.3961486,38.230197 37.7385264,38.2599844 37.2871311,37.9025351 L37.1868272,37.8131728 L30.1868272,30.8131728 C29.7377243,30.3640699 29.7377243,29.6359301 30.1868272,29.1868272 Z" id="Stroke-3" fill="#FFFFFF" fill-rule="nonzero"></path>
                        </g>
                    </g>
                </g>
            </g>
        </svg>
    </defs>
</svg>