<?xml version="1.0" encoding="UTF-8"?>
<svg width="50px" height="50px" viewBox="0 0 50 50" version="1.1" xmlns="http://www.w3.org/2000/svg" xmlns:xlink="http://www.w3.org/1999/xlink">
    <title>icon30/user-loggedin</title>
    <g id="icon30/user-loggedin" stroke="none" stroke-width="1" fill="none" fill-rule="evenodd">
        <g id="icon30/user-loggedin-Group-two">
            <g id="icon30/user-loggedin-two" fill="#B06646">
                <circle id="Oval-Copy-user-loggedin-two" cx="25" cy="25" r="25"></circle>
            </g>
            <g id="user-loggedin-two-Group-6" transform="translate(12.000000, 9.000000)"></g>
            <path d="M25.4867361,9 C20.9333637,9 17.3672499,12.843376 17.3672499,17.7499475 C17.3672499,19.8196515 18.0380127,21.7948772 19.2271515,23.3556582 C16.0830322,25.3699349 13.8897029,29.0747428 12.1027387,35.2271678 C11.9125807,35.8847365 12.0324062,36.4226328 12.0975289,36.7098467 C12.0910166,36.6733151 12.0884117,36.5788369 12.0871092,36.4969557 C12.0962264,37.882637 13.2593161,39 14.6920134,39 L36.3947722,39 C37.091584,39 37.7584395,38.7316817 38.2481615,38.2517321 C38.7378834,37.7730422 39.007491,37.1242914 38.9998416,36.4503464 C38.993164,35.9905522 38.9384611,35.5874449 38.83166,35.2208692 C37.2687175,29.8393869 35.4452846,25.699979 32.0263479,23.4110855 C33.2506529,21.838967 33.9422549,19.8423263 33.9422549,17.7499475 C33.9422549,12.9252572 30.1495145,9 25.4867361,9 M25.4867361,11.5194205 C28.6256456,11.5194205 31.3373508,14.2567709 31.3373508,17.7499475 C31.3373508,19.8775982 30.3839559,21.8515641 28.7858472,23.0331724 C28.5032151,23.2410246 28.3586429,23.5798866 28.4055312,23.9212681 C28.4524195,24.2613899 28.6842559,24.552383 29.0137763,24.6821331 C32.8117265,26.1837077 34.6833502,30.2538316 36.3244398,35.9048919 C36.385655,36.1165232 36.3934697,36.3672055 36.3947722,36.4805795 L14.6920134,36.4805795 C14.6907109,36.2916229 14.5813049,36.0056687 14.6086564,35.9074113 C16.5180512,29.3355028 18.8012496,25.9745958 22.2410256,24.6682763 C22.5744533,24.5423053 22.8101971,24.2525719 22.8596903,23.9111904 C22.9104859,23.5685492 22.7672162,23.2271678 22.4832816,23.0155364 C20.9008024,21.8339282 19.9721541,19.8637413 19.9721541,17.7499475 C19.9721541,14.2567709 22.3478266,11.5194205 25.4867361,11.5194205" id="user-loggedin-Fill-1" fill="#FFFFFF"></path>
        </g>
    </g>
</svg>