<?xml version="1.0" encoding="UTF-8"?>
<svg width="50px" height="50px" viewBox="0 0 50 50" version="1.1" xmlns="http://www.w3.org/2000/svg" xmlns:xlink="http://www.w3.org/1999/xlink">
    <title>icon30/user</title>
    <g id="user-svg" stroke="none" stroke-width="1" fill="none" fill-rule="evenodd">
        <g id="header/OurRoasters-desktop" transform="translate(-1299.000000, -25.000000)">
            <g id="icon30/user-not-loggedin-two" transform="translate(1299.000000, 25.000000)">
                <g fill="#FFFFFF" id="Oval-Copy-user-not-loggedin-two">
                    <circle cx="25" cy="25" r="25"></circle>
                </g>
                <g id="user-not-loggedin-two-Group-6" transform="translate(11.000000, 9.000000)" fill="#39BBBB">
                    <path d="M13.4867361,0 C8.93336368,0 5.36724992,3.84337602 5.36724992,8.74994751 C5.36724992,10.8196515 6.03801273,12.7948772 7.22715147,14.3556582 C4.08303218,16.3699349 1.8897029,20.0747428 0.102738661,26.2271678 C-0.0874193409,26.8847365 0.0324062493,27.4226328 0.0975288527,27.7098467 C0.0910165924,27.6733151 0.0884116882,27.5788369 0.0871092362,27.4969557 C0.0962264006,28.882637 1.2593161,30 2.69201337,30 L24.3947722,30 C25.091584,30 25.7584395,29.7316817 26.2481615,29.2517321 C26.7378834,28.7730422 27.007491,28.1242914 26.9998416,27.4503464 C26.993164,26.9905522 26.9384611,26.5874449 26.83166,26.2208692 C25.2687175,20.8393869 23.4452846,16.699979 20.0263479,14.4110855 C21.2506529,12.838967 21.9422549,10.8423263 21.9422549,8.74994751 C21.9422549,3.92525719 18.1495145,0 13.4867361,0 M13.4867361,2.51942053 C16.6256456,2.51942053 19.3373508,5.25677094 19.3373508,8.74994751 C19.3373508,10.8775982 18.3839559,12.8515641 16.7858472,14.0331724 C16.5032151,14.2410246 16.3586429,14.5798866 16.4055312,14.9212681 C16.4524195,15.2613899 16.6842559,15.552383 17.0137763,15.6821331 C20.8117265,17.1837077 22.6833502,21.2538316 24.3244398,26.9048919 C24.385655,27.1165232 24.3934697,27.3672055 24.3947722,27.4805795 L2.69201337,27.4805795 C2.69071092,27.2916229 2.58130495,27.0056687 2.60865644,26.9074113 C4.51805117,20.3355028 6.80124964,16.9745958 10.2410256,15.6682763 C10.5744533,15.5423053 10.8101971,15.2525719 10.8596903,14.9111904 C10.9104859,14.5685492 10.7672162,14.2271678 10.4832816,14.0155364 C8.90080238,12.8339282 7.97215405,10.8637413 7.97215405,8.74994751 C7.97215405,5.25677094 10.3478266,2.51942053 13.4867361,2.51942053" id="user-Fill-1"></path>
                    <path d="M15.65,15.0599369 C13.6410112,14.9250789 11.65,15.0599369 11.65,15.0599369 C11.65,15.0599369 13.6410112,17.1750789 15.65,15.0599369" id="Fill-4"></path>
                </g>
            </g>
        </g>
    </g>
</svg>