<?xml version="1.0" encoding="UTF-8"?>
<svg width="27px" height="32px" viewBox="0 0 27 32" version="1.1" xmlns="http://www.w3.org/2000/svg" xmlns:xlink="http://www.w3.org/1999/xlink">
    <title>Favicon/Bean - Turquoise -196px Copy 3</title>
    <g id="visual-design-02" stroke="none" stroke-width="1" fill="none" fill-rule="evenodd">
        <g id="Artboard-Copy-5" transform="translate(-409.000000, -749.000000)" fill="#000000">
            <g id="Favicon/Bean---Turquoise--196px-Copy-3" transform="translate(407.000000, 749.000000)">
                <path d="M9.03484948,0.516129032 C9.37395067,0.523852566 9.54333323,0.596722425 9.64449226,0.68671838 C9.64449226,0.68671838 9.71103541,0.74749923 9.75808612,0.82910004 C10.2763161,1.72771637 9.81958812,4.57904343 9.81958812,4.57904343 C9.67003408,5.51426259 9.9657814,6.61301917 10.55694,8.81053234 C11.8404162,13.5793105 14.4584521,17.576407 16.698066,19.5616909 C20.2624934,22.7209519 21.0105997,26.4594779 20.7850924,30.7923801 C20.7551816,31.3652648 20.5192559,31.6718555 20.0961356,31.8991961 C17.2583055,32.322983 14.3277184,31.4152999 11.2936197,29.0861509 C8.48502831,26.9299418 6.50553769,24.5829951 5.18240448,22.0701602 C3.05537626,18.0297448 3.023449,14.5497893 2.98816096,11.0933402 C2.9518647,7.53044063 3.58368853,5.76275888 4.13182932,4.66299488 C5.17030572,2.57797666 6.5152839,1.67130099 6.83018759,1.46713106 C7.66029656,0.92984178 8.46318334,0.660189721 9.03484948,0.516129032 Z M15.967971,0.385562629 L16.0000891,0.39375214 C16.232165,0.453846355 17.6836148,0.845082485 19.099483,1.58118259 C22.4269247,3.31125174 29.1819571,11.4752151 28.959814,20.6028677 C28.865378,24.4932544 27.5486508,26.6888657 27.2492113,27.1678532 C26.2998099,28.6888485 25.1554873,29.655899 24.3805069,30.2118606 C23.9160564,30.3496746 23.5551159,30.2881625 23.3733013,29.9248043 C22.8363043,28.8518723 22.5501986,27.6585231 22.2972133,26.4455655 L22.0834007,25.4034368 C21.8675407,24.3612085 21.6303013,23.325735 21.2345438,22.3604996 C20.0892129,19.5679186 18.4562426,16.8321438 15.9844385,14.6392215 C13.5563236,12.4849543 12.2940399,9.54245864 11.8474012,6.71895352 C11.5657734,4.9381285 11.1429958,2.54554404 11.9075579,0.806063212 C12.0749214,0.425226153 12.3441145,0.169430034 12.676825,0.00102812193 C13.4655843,-0.00905582493 14.6125955,0.0504394615 15.967971,0.385562629 Z" id="Combined-Shape-Copy-2"></path>
            </g>
        </g>
    </g>
</svg>
