<svg xmlns="http://www.w3.org/2000/svg" xmlns:xlink="http://www.w3.org/1999/xlink">
	<svg viewBox="0 0 1400 1400" id="Flag_MEX" xmlns="http://www.w3.org/2000/svg">
		<style type="text/css">
	.st0{fill:#FFFFFF;}
	.st1{fill:#686868;}
	.st2{fill:#CECECE;}
	.st3{fill:#494949;}
		</style>
		<g>
			<rect id="rect3678" x="0" y="0" class="st0" width="1400.8" height="1400"/>
			<rect id="rect4649" class="st1" width="466.9" height="1400"/>
			<rect id="rect4651" x="933.9" y="0" class="st2" width="466.9" height="1400"/>
		</g>
		<g>
			<path class="st3" d="M870.4,685.1c0.1-5.1-3.1,1.1-3.2,4c-2.8-5-3.1-24-10.2-6.9c-1.3,3.2-2.2,8.4-2.6,13.1
		c-1.2-6.4-12.9-23.7-6.9-5.5c-5.3,12.3,7.1,20.3,4.9,31.7c-4.4-1.2-8.4-14.1-11.7-4.6c1.4,4.2,16.9,7.2,8.4,13.8
		c-3.8,1.5-6.8,10.6-5.8,3.2c0.1-1.1,0.7-2.8,0.7-2.7c-32.7,5-1.9,60.8-22.4,36.5c3.9-4.9-5.5-8.7-5.9-2.3
		c2.1,3.3,8.6,7.9,10.4,12.8c-4.2,4.1-2.7,0-10.3,4.3c-7.8,3.2-8.1,9.3-6-1.5c-1.6-10.5-0.7-5.9-3.6-0.9c-17.4,10-13.5,23.6-24,32.3
		c0,0-2.3-6.5-2.3-6.5c5.9-11-14.3-2.9-2.1,0.8c0.6,3.5,0.3,12.8-3.2,13c-2.7-3.2-16.5,1.4-9.1-2.9c1.4-1.3,2.2-2.4,2.1-2.4
		c-10.8-6.3-24.6,0.7-32.4,10.2c-7.3,5.5-26.3,2.4-28-2.5c-4,0.2-16.4-3.2-14.9,3.4c-6.8-4.1-18.2,1.6-21.7,0.8
		c-4.5-3.5-6.4-9.2-6.8-1c-1.6-0.6-11.4-15.7-16.2-8.3c8.9,15.6-1.4,1.3-8.5-1.6c-10.1,1.3-0.1,2.6-0.6,7.3c-1.9,1.7-9-6.5-13.8-4
		c-2.5-6-0.2-10.2,0.4-14.7c-1-1.4-2.1-0.2-2.6-1c1.1-1.6-2.6-4.7-4-2.2c-0.6,3.4-4.9,8.2,1.8,8.6c1.5,5,1.7,7.3-3.2,3
		c-9.1-2-0.6-22.3-10.3-10.8c-0.7-2.4,0-20.9-7.8-18.1c-0.9,1.3-0.7,9.3-3.2,7.5c-3.1-2.5,2.6-16.7-4.6-16.2
		c-1.4,0.8,0.6,6.6-1.7,6.6c-2.2,0.1-1.9-4.1-2.9-4.5c-3.1,1.4-1.4-3.1-3.2-3.4c-2.9,2.5,1.3,10-4.7,4.4c-1.6-8.8,1.7-7.7,3.7-12.4
		c-4.8-10.6-3.5-7.6-9.5-0.6c0.6,3.3,4.3,6,2.7,10.4c-10.5-4.4-3.2-19.4-3.3-25.2c-12.4,12.3,2-13.9-9.2-14.3
		c-5.9,6.6-5.5,13.2-5.5-0.1c-2.2-6.6-4.5,0.4-5.9,1.9c-5.3-2.8-2.6-19.6,2.9-19.8c3.8,0.6,4.4-4,1.3-4.9c6.2-6.1-2.1-6.8-3.4-1.8
		c-3.4-1.8-4.3,3.9-1.1,5.5c-3.5,8-6.1,3.9-5.7-2.8c1.6-6,3.1-4.6,0.1-6.7c15.3-16.5,2.1-6-0.4-9.9c3.6-4.6,18.2-14.4,1.9-10.1
		c3-5.8,9.5-18.8-3.1-8.9c-5-7.8-6.1,6.6-6.9,9.5c-2-2.1-8.8-5.9-7.7,2.3c0.4,1.4,6,7.8,4.2,8.6c-21.3-8.9,2.3,12.5,7.1,16
		c0.9,3.2,10.1,14.2-2.1,5.5c2.3-3.2-1.4-8-4-4c-1.2-1.5-5-3-5.7,0c-0.1,1.5,2,3.1,3.3,3.5c-1,1.4-0.1,3.5,2.1,3.4
		c4.2-3.6,13.2,7.5,10.8,10.4c1,4.6-2.2,0.4-3.6,1.8c-0.7,1.2,3.4,4.4,2.6,5.2c-21.3,0.7,6.7,8.1,7.1,10.6
		c-10.5-3.9-13.7,1.5-4.1,7.4c2.3,0.9,11.1-0.1,10.6,1.9c-15.5,2.8-5,5.7,4.2,6.8c1,2.4,16.7,11.4,5.1,10.1c0-2.5-2.4-5.1-4.9-4
		c0.1,4-6.5,1-5.6,5.1c3.7,0.6,6.8,8.6,10.2,1.2c3.6-0.9,13.5,1.8,14.7,4c-0.9-0.1-5.4-0.5-5.7,0.8c12.6,9.9,14.3,7.6-0.2,7.5
		c-2.8,10.8,16.9,6.8,17.1,11c-14.8-0.2-15,4-2.4,9.9c3.1-0.1,6.6-5.2,8-2.4c-2,10.4,11.4-3.6,20.7,7.4c-11,2.8-7.4-8.9-16.9,3.3
		c1.3,3.5,13.3,7.2,11-0.4c3.6-0.6,10.7-0.8,12.2,3c-3.1-0.1-9.4,4.4-9.5,7.4c1.3,0.7,4.8-0.5,5.6-1.2c1.1,6.1,6.3-2.1,11.1,0.3
		c3.7,1.7-4.8,4.2-3.9,6.8c5.2,6.5,12-5.2,16.5-3.7c2.6,3-5.5,5.4-4,8.4c5.5,8,13.3-6.7,16.6-6.4c-6.6,16.4,4.7,6.8,11.1-0.9
		c7.1-1.1,13.5-9.8,20.5-5.1c-3.4,1.8-25.6,9.3-15.6,12.5c5.7-1.2,3.3-2.1,10.4-6.1c24.7-11.6-12.4,12.2-9.1,17.3
		c4.5-5.4,12.2-2.3,15.2,3c4.8-11.7,14.3-5,22.4,0.4c2.2-4.2,5.2-6,10.6-6.3c13.3,1.4-19.3-10.5-15.7-17c31.3,17.6,21.3,3.9,0.2-4.4
		c26.5-0.1,34.8,27.9,63.2,6.1c8.5-2.3,11,0.1,2.9-3.4c-7.3-3.1-9.5,0.3-1.4-5.4c7-7.9,10.5-11,16.6-0.6c1.4,3,8.6-0.1,5.5-4.3
		c-4.1-1.2-17.5-5.9-5.4-8.6c9.2,2.5,40.4-4.5,36.2-19.7c3.9-5.3-1.8-2.3-4.2-1.8c1.8-12.1,7.5-15,17.1-7.2c4.3,0.1,4.5-6.9,0-6.9
		c-2.6,1.7-6,0.8-8.8-0.7c3.4-6.7,8.9-5.9,16.6-9.3c9.4-5.2,11.5-24.6,18.2-28.9c-0.1,0-4.4-1.1-11.3,5.9c0-0.7,0.8-11.5-0.5-13.9
		c-0.7-9.3,16.3-1.9,16.8-8.5c-1.8-8.1-9.2,2.8-14.7,0.7C860.7,712.3,885,699.3,870.4,685.1z M625,804L625,804
		C625,804,625,804,625,804z M563.8,773.2C563.8,773.2,563.8,773.2,563.8,773.2C563.8,773.2,563.8,773.2,563.8,773.2z M708.5,832.6
		c-0.3-0.1-0.8,0-0.8-0.3C707.7,832.3,708.5,832.6,708.5,832.6z M777,821.4l0.1-0.2C777.1,821.3,777,821.4,777,821.4z"/>
			<path class="st3" d="M574.9,683.3c1,1.5,3.3,6.3,1.5,7.1c2.4,0.3,1,4-1.1,2.6c0.2-3.2-4.1,2.3-3.6,3c2.1,0.9,0.8,6.2,6,4.2
		c1.4,4.7,12.5,18.3,3.9,20.1c0.6,1.6,13.7,15.3,6.5,12.8c2.5,2.9,20,5.2,11.6,9.9c8.4-4.9,14.2-2,17.5,6.4c-1.6,0.8-2.7,3-2.7,3
		c5.8-3.4,8.9,1.5,16.5,2.7c-2.1,4.1,0.5,1.5,2.6,0.4c-0.8,0.8-1.5,3.6-1.5,3.6c4.9-5.2,19.6-1.9,23.5-7
		c-1.4,6.2,12.5,10.8,6.8,13.5c0,0,1.3,0.6,2.5,0.1c2-1.3,16.9-0.4,12.3,3.9c0,0,2-0.3,3.3-1.7c2.6-1,13.5-2.5,8.8,2.2
		c0.1,0.1,3.5-2.4,3.8-3.3c-2,7.3,5.5-4.6,9-4.8c1.7,16.5-9.5,13.3-22.2,13.4c-8.4-3-11.8-2.7-15.1,5.1c-14.9-1.1-6.1-18.6-16.2-21
		c-11.3,1.8-1.7,10.2-1.4,14.6c-13.2,3.4-32.5-22.1-45.2-15.7c-1.4,14.7,26.7,9.1,27.4,22.8c-8.5-1.8-20.2,5.8-6.9,11.2
		c7.4-12.2,50.6,5.4,19.7,7.5c-16.3,6.3,4.3,15.4,9.2,5.6c8.4-1.5,14.2,3,20.7,6.2c25.2,17,56.6-0.3,81.2-9c7.1,9.7,17-7.9,4.9-9
		c-12.8,7.3-12.4-3.2,1-5.2c18.5,4.1,25.7-17.3,6.2-7.6c-12,1.6-29.4,11.2-34.9-4.2c-2.3-1.2-5.5-0.2-7.1,1.9
		c-5-1.3,0.6-4.3,3.3-5.6c10.9-5.6,23.8-6.6,31.3,3.8c0,0-2-3-1.8-4.2c9.9,4.8,20.5-0.9,29.3,2.1c-1.4-0.8-3-1-3.9-2.9
		c2.7,1.8,9.9,2,2.2-0.5c3.8-3.4,10.9-6.7,15.5-8.5c-6.1,1.5-6.8-8.9-1.5-11.2c3-3.3,5.3-6,8.7-5.8c0.2-0.3,0.1-6.3-1.1-3
		c-1.5-0.8-0.9-2.1,0.7-2.4c-0.7-4.7,6-4.9,8.2-7.2c2.9-5.2-6.1-7-6.3-1.4c0.9,1.9-5.3,5.3-5.4,6.3c-3,1,0.4-4.3-4.7-3.9
		c-7.3,6.5,3.8,4.1-6.1,9.8c-1.5,5.1-14.1-1.3-9.8-4c-2.8,0.5-13.9,14-11.4,6.3c0,0-1.9,1.2-2.4,2.3c-2.9,11.8-17,17.1-15.3,1.6
		c4.9-1.3,4.4,7.2,0.8,5.8c2.2,1.4,8.6,0.5,8.1-4.1c1.1-5.8-5.9-6.7-5.9-11.3c-6.9-2.7-12.9-4.1-18.5-10.5c-1.5-8.9,6.8,2.6,4.3-7.7
		c-3.2-12.2,9.9,10.2,11.4,9.8c-0.4,1.2,8.8,3.1,8.8-0.5c5.4,6.6,22.8,1.5,27.9-2c51.4,0.3-68.7-45.4-48.9-79.1
		c3.2,3.9,8,8.8,13.8,10.4c5.4,6.8,22.8,30.9,11.7,10.1c-6.9-14.3-4.9-19.6,6.4-5.6c-0.4,3.6,7.9,20.8,10.6,21
		c1.2-2.8-13.6-35.5-6.1-26.5c18.1,38.2,16.1,44.3,8.6-1.9c7.7,2.9,6.3,33.5,13.2,39c3.4,42.9,2.2-29.6-1.1-39.5
		c7.6,9.8,4.2,30.4,10.3,38.7c-0.1,40.9,6.3,14.5,3.8-9.6c0.4-9.6-5.2-44,3.5-22.3c2,17.6,1.2,47.6,3.7,62.3
		c5.6-16.6,5.9-45.3,10.5-67.5c1.5-11.7-8-22.1-0.9-21.7c6.7-1.7-7.5-8.1-7.7-12.9c-0.7-12.1-35.7-58.2-44-57.9
		c1.4-4.8,7.3-7.8-3.6-6.1c-14.6-3.8-18.8-17.3-61.7-20.9c-14.1,0.9-41.7,10.7-25.5,23.2c9.7,0.7,24.5,9.5,20.2,21.1
		c-1,0-7-11.4-10-11.8c0.4-5.7,1-2.5-4.1-2.2c-9.8-3.1-19.9-2.9-22.5-12.7c0.6,1.2-4,9-5,8.5c-0.3-3.6-0.9-5.8-1-6.2
		c-3.7-10.4-1.4,16.1-8.2,12.6c2.6-0.5,0.3-12.1-1.7-10.6c2,1.2-4.9,22.3-3.8,9.7c-2.3-8.2-1.7-4.3-3.6,1
		c-0.7,6.5-12.3,13.4-11.7,16.6c-1.8,4.9-6,10.5-15.3,9.6c-11.8-3.5,9.9-7.1,9.1-12.3c-15.9,8.1-12.8,4.2-8-9c3.4-6,2.7,6.4,2.6,6.4
		c3.2-2.4,2.6-12.5-0.3-13.2c-2.2,1.9-4.2,2.5-6.7,2.1c-4.3,2.9-18.7,13-10.2,19.7c0.9,3.8-1,16,5.6,16.9
		c15.2-1.3,14.1,4.3,24.7,7.4c22.7-6.8-65.4,44.9-4.1,63.6c4,0,12.4-2.1,16.3,0.5c1.2,4.1-2.9,3.3-0.2,2.1
		c-11.7-3.4-17.1,9.4-22.8,14.5c-7.1-1.1-5.6-8.9-8.3-14.4c-2.7-6.1-14.5-9.8-14.1-16.9c7.8-14.3,1.5-26.5-11.6-33
		c-1.1-0.2-2.2,3-1.9,1.5c-0.2-3.1-4.6-1.5-5.3-2.6c-3.5-3.8-4,2.6-7.3,2.3c-3.7,2.5,1.4,4.9,1.3,8.2c2.4,0.9,6.7,2.9,9,1.4
		c0.4,2.2,3.2,3.3,5,1.4c6,0,5.1,8,2.1,12.7c-10.2,20.3,17.5,27.5,17.1,47.4c10.1,15,28.6-2.8,39.5,1.8c5.1,2.5,7.2-7.9,10.8-2.2
		c-2.6,0.7-3.9,2.3-3.1,2.3c-3-0.2,16.8,6.1,15.5,5.3c-2.4,5-1.1,5.6,9.5,3.4c8.3-2.3,5.5-2.8,8.7-2.8c5.6,12.5,6.9-1.5,7.2-6.8
		c7.4,7.7,7.6,10.3,12,12.2c0.7,0.8,6.7,15.4,9.4,13.5c6.8-10.1,7.3,5.3-6.5,3.5c-8.3-3.1-18.8,15.2-23.1,0.7
		c-1.8-3.3-2-3.1-1.9,0.4c0.4,4.6-5.3-10.1-3.2-1.8c-0.1,2.5-11.7-1.5-12.7-3.4c-2.9-3.1-3.4-3.4-2.2,0.2c-1.1-1.3-3.8-2.4-3.6-2.3
		c4.8,5.8-5.1,8.6-8.9,4.7c9.2,13-9.9,4.7-9.6-3.3c-0.6-9.7,0.6-1.1,4.3-9.4c-3.6-4.3-2.4-2-4.7-1.5c-1.2-1.3,2-2.4-1.6-3.1
		c0.7-2.2,6.6-6.5,1-7.4c-4.5-1.1-1.8,6.8-4,8.5c-2.3,2.3-1.3-4.5-6-1.1c0.2,2.8-3.2,3.1,1,6.5c-1.6,6.6-10.4,5-14,1.5
		c2.2,3.7-4.7,5.4-6,6.3c0.1-3.1-3.1-9.5-0.8-12.5c-3.4,1.9-12.2-9.8-14.7-12.2c-3.7-7.3,1.9,2.7-8.3-0.7c-3.2-0.6-4-11.7-9.6-11.8
		c4.6,1.2,4.5-4.7,1.7-5.9c2.9-2.3-5.2-0.9-4.6-0.1c2.1,0.6,0.7,1,0,2c-1.9-1.8-6.7-5.8-4.7-9.6
		C576.1,671.8,566.7,681.9,574.9,683.3z M586.9,643.1c0,0,0.2,0.1,0.2,0.1C587.1,643.1,586.9,643.1,586.9,643.1z M617.6,687.4
		c-0.1-0.6-0.4-1.5-0.3-1.9C617.4,686.2,617.9,686.8,617.6,687.4z M646.9,722.1C646.9,722,646.9,722.1,646.9,722.1
		C647,722.3,646.9,722.1,646.9,722.1z M647.1,688.2c0-0.1-0.1-0.2-0.1-0.3C647,688,647.5,688.2,647.1,688.2z M736.2,657.3
		c-0.2,0.1-0.6,0.3-0.8,0.2C735.7,657.4,735.9,657.3,736.2,657.3z M730.6,725C730.6,725,730.6,725,730.6,725
		C730.6,725,730.6,725,730.6,725z M661,685.6l0,0.2C660.9,686,661,684.9,661,685.6z M705.2,595.9
		C705.2,595.9,705.2,595.9,705.2,595.9C705.2,595.9,705.2,595.9,705.2,595.9z M681.8,610.5c0.1,0,0.1,0,0.2,0
		C682,610.4,681.7,610.5,681.8,610.5z M694.1,626.6L694.1,626.6L694.1,626.6L694.1,626.6z M694.2,626.8
		C694.2,626.7,694.2,626.8,694.2,626.8C694.2,626.8,694.2,626.8,694.2,626.8z M682,610.4c0.1,0,1-0.3,0.8-0.1
		C682.8,610.3,682,610.4,682,610.4z M681,610.6c0.1,0,0.2,0,0.3,0C681.2,610.6,681.1,610.6,681,610.6z M687.8,588.8
		c0.3-0.3,0.6-0.6,0.6-0.6C688.3,588.4,688,588.6,687.8,588.8z M695.7,601.4c0,0.2-0.1,0.5-0.2,0.7
		C695.6,601.8,695.8,600.9,695.7,601.4z M691.8,608.3C691.9,608.3,691.8,608.3,691.8,608.3C691.8,608.3,691.8,608.3,691.8,608.3z
		 M676.6,602.1c0,0.1,0,0.2-0.1,0.3C676.5,602.3,676.6,602.2,676.6,602.1z M677.9,607.4c-0.5-0.8-0.8-1.7-0.9-2.6
		C677.2,605.7,677.5,606.6,677.9,607.4z M667.1,623.2c0,0.1,0,0.2-0.1,0.2C667.1,623.4,667.1,623.3,667.1,623.2z M698.4,598.6
		c0.1,0.1,0.1,0.1,0.2,0.2C698.5,598.7,698.4,598.6,698.4,598.6z M647.9,616.7c0.5,0.2,1,0.4,1.4,0.7
		C648.9,617.1,648.4,616.9,647.9,616.7z M672.6,609.4c-1.1,0.9-2.3,1.4-3.1,1.5C670.4,610.7,671.5,610.2,672.6,609.4z M732.3,660.4
		c0,0-0.5,0.5-0.5,0.5C732,660.7,732.1,660.5,732.3,660.4z M732.3,659.1c0.1-0.3-0.1-0.7,0-1.1C732.4,658.4,732.4,658.7,732.3,659.1
		z M649.3,593.7c-2.3,0.3,3.6-0.9,6.2-1.5C652.8,592.4,651.8,593.7,649.3,593.7z M650,617.8c0.8,0.5,1.5,1,2.1,1.5
		C651.5,618.8,650.8,618.3,650,617.8z M633.7,640.2C633.7,640.2,633.7,640.2,633.7,640.2C633.7,640.2,633.7,640.2,633.7,640.2z
		 M652.8,619.9c-0.1-0.1-0.1-0.1-0.2-0.2C652.7,619.8,652.7,619.9,652.8,619.9z M675.2,569.5l-1.2-0.2
		C674.4,569.3,674.8,569.4,675.2,569.5z M661.1,682.2c4.2-30.2-53-2-32.2-36.4c9-10.3,35.1-23.3,22-39.9c3.2-1.7,15.1-4.7,13.7-8.7
		c0.3-3.4,4.5,1.4,3.7,3.3c3.8,1.1-7.9,10.4-1.1,10.5c-1.2,2.2-8.7,12.8-8.3,14.2c2,0.4,3-0.6,2.6,1.8c-10.1,8.1-2.9,27.9-1.3,36.8
		c2.8-1.3,4.7-2.3,6.8,2.8c-2.6,6.8,5.2,17.5,9.6,21.8c-1.9-1.1-5-5.5-8.5-4c-1.1,3.1,3.7,8.1,7.9,9.4
		C662.2,699.5,671.4,689.1,661.1,682.2z M646.9,768.5c-3.1-1.5-2-6.6,1.6-6.5C654.1,762.8,652,769.3,646.9,768.5z M778.7,567.7
		c-0.8-0.6-1.7-0.9-1.8-1.3C777.2,566.6,777.8,567.1,778.7,567.7z M647.7,566.3C647.7,566.4,647.7,566.3,647.7,566.3
		C647.7,566.3,647.7,566.3,647.7,566.3z M627.2,697.2C627.2,697.2,627.1,697.2,627.2,697.2C627.1,697.2,627.2,697.2,627.2,697.2z
		 M671.9,732.4c-0.2,0.1-0.2-0.1-0.2-0.2C671.7,732.3,671.8,732.4,671.9,732.4z M583.9,693c0.5,0.2,0.6,0.2,0.8,0.3
		C584.4,693.2,583.5,693.2,583.9,693z"/>
		</g>
	</svg>
</svg>
