<svg xmlns="http://www.w3.org/2000/svg" xmlns:xlink="http://www.w3.org/1999/xlink">
	<svg viewBox="0 0 20 20" id="Flag_NZ" xmlns="http://www.w3.org/2000/svg">
		<defs>
			<path id="la" d="M0 0h20v20H0z"/>
			<rect id="lc" x="0" y="0" width="28" height="20" rx="2"/>
			<path d="M4.667 4L0 0h.667l4.666 3.333h1.334L12 0v.333a.716.716 0 0 1-.278.532L7.333 4v1.333l4.416 3.785c.139.119.096.215-.082.215-.184 0-.449-.082-.612-.198L6.667 6H5.333L0 9.333v-.666l4.667-3.334V4z" id="le"/>
		</defs>
		<g fill="none" fill-rule="evenodd">
			<mask id="lb" fill="#fff">
				<use xlink:href="#la"/>
			</mask>
			<use fill="#D8D8D8" xlink:href="#la"/>
			<g mask="url(#lb)">
				<g transform="translate(-2)">
					<mask id="ld" fill="#fff">
						<use xlink:href="#lc"/>
					</mask>
					<use fill="#FFF" xlink:href="#lc"/>
					<path fill="#4A4A4A" mask="url(#ld)" d="M0 0h28v20H0z"/>
					<g mask="url(#ld)">
						<use fill="#9B9B9B" xlink:href="#le"/>
						<path stroke="#FFF" stroke-width=".667" d="M4.333 4.153L-.9-.333H.667l.193.062L5.44 3h1.131l5.762-3.601v.934c0 .296-.17.627-.417.803l-4.25 3.036V5.18l4.3 3.685c.377.323.185.802-.3.802-.257 0-.588-.107-.804-.261L6.56 6.333H5.429L-.333 9.935v-1.44l4.666-3.333V4.153z"/>
					</g>
					<path d="M0 3.333V6h4.667v3.34c0 .364.306.66.673.66h1.32a.67.67 0 0 0 .673-.66V6h4.658a.677.677 0 0 0 .676-.673v-1.32a.674.674 0 0 0-.676-.674H7.333V0H4.667v3.333H0z" fill="#FFF" mask="url(#ld)"/>
					<path fill="#9B9B9B" mask="url(#ld)" d="M0 4h5.333V0h1.334v4H12v1.333H6.667v4H5.333v-4H0zM20 17.333l-.943.276.276-.942-.276-.943L20 16l.943-.276-.276.943.276.942zM20 4.667l-.943.276.276-.943-.276-.943.943.276.943-.276-.276.943.276.943zM16 10l-.943.276.276-.943-.276-.942.943.276.943-.276-.276.942.276.943z"/>
				</g>
			</g>
		</g>
	</svg>
</svg>
