<svg xmlns="http://www.w3.org/2000/svg" xmlns:xlink="http://www.w3.org/1999/xlink">
	<svg viewBox="0 0 20 20" id="Flag_UK" xmlns="http://www.w3.org/2000/svg">
		<defs>
			<path id="ma" d="M0 0h20v20H0z"/>
			<rect id="mc" x="0" y="0" width="28" height="20" rx="2"/>
		</defs>
		<g fill="none" fill-rule="evenodd">
			<mask id="mb" fill="#fff">
				<use xlink:href="#ma"/>
			</mask>
			<use fill="#D8D8D8" xlink:href="#ma"/>
			<g mask="url(#mb)">
				<g transform="translate(-4)">
					<mask id="md" fill="#fff">
						<use xlink:href="#mc"/>
					</mask>
					<use fill="#FFF" xlink:href="#mc"/>
					<path fill="#4A4A4A" mask="url(#md)" d="M0 0h28v20H0z"/>
					<path d="M6.674 13.333H0V6.667h6.674L-2.774.294l1.492-2.21 11.949 8.06v-7.477h6.666v7.476l11.95-8.06 1.49 2.211-9.447 6.373H28v6.666h-6.674l9.448 6.373-1.492 2.21-11.949-8.06v7.477h-6.666v-7.476l-11.95 8.06-1.49-2.211 9.447-6.373z" fill="#FFF" mask="url(#md)"/>
					<path d="M18.668 6.332L31.333-2" stroke="#9B9B9B" stroke-width=".667" stroke-linecap="round" mask="url(#md)"/>
					<path d="M20.013 21.35l11.354-7.652" stroke="#9B9B9B" stroke-width=".667" stroke-linecap="round" mask="url(#md)" transform="matrix(1 0 0 -1 0 35.048)"/>
					<path d="M8.006 6.31L-3.837-1.67" stroke="#9B9B9B" stroke-width=".667" stroke-linecap="round" mask="url(#md)"/>
					<path d="M9.29 22.31l-13.127-8.705" stroke="#9B9B9B" stroke-width=".667" stroke-linecap="round" mask="url(#md)" transform="matrix(1 0 0 -1 0 35.915)"/>
					<path fill="#9B9B9B" mask="url(#md)" d="M0 12h12v8h4v-8h12V8H16V0h-4v8H0z"/>
				</g>
			</g>
		</g>
	</svg>
</svg>
