  <svg viewBox="0 0 21 21" class="cmp-item__icon icon-country" id="Flag_USA" xmlns="http://www.w3.org/2000/svg">
                          <g fill="none" fill-rule="evenodd">
                            <path d="M0 1.612h20.96V0H0v1.612zm0 3.225h20.96V3.225H0v1.612zM0 8.06h20.96V6.45H0v1.612zm0 3.225h20.96V9.674H0v1.612zm0 3.224h20.96v-1.612H0v1.612zm0 3.225h20.96v-1.612H0v1.612zm0 3.224h20.96v-1.612H0v1.612z" fill="#393939"></path>
                            <path d="M0 3.225h20.96V1.612H0v1.613zm0 3.224h20.96V4.837H0v1.612zm0 3.225h20.96V8.06H0v1.613zm0 3.224h20.96v-1.612H0v1.612zm0 3.225h20.96V14.51H0v1.613zm0 3.224h20.96v-1.612H0v1.612z" fill="#FFF"></path>
                            <path fill="#393939" d="M0 11.286h15.93V0H0z"></path>
                            <path d="M14.602.483l.145.446h.469l-.38.276.145.446-.38-.276-.379.276.145-.446-.38-.276h.47l.145-.446zm-2.655 0l.145.446h.469l-.38.276.145.446-.38-.276-.379.276.145-.446-.38-.276h.47l.145-.446zm-2.655 0l.145.446h.469l-.38.276.145.446-.38-.276-.378.276.144-.446-.379-.276h.47l.144-.446zm-2.655 0l.145.446h.47l-.38.276.145.446-.38-.276-.38.276.146-.446-.38-.276h.47l.144-.446zm-2.655 0l.145.446h.47l-.38.276.145.446-.38-.276-.38.276.146-.446-.38-.276h.47l.144-.446zm-2.655 0l.145.446h.47l-.38.276.145.446-.38-.276-.379.276.145-.446-.38-.276h.47l.144-.446zM13.274 1.612l.145.446h.47l-.38.275.145.446-.38-.275-.38.275.146-.446-.38-.275h.47l.144-.446zm-2.655 0l.145.446h.47l-.38.275.145.446-.38-.275-.379.275.145-.446-.38-.275h.47l.144-.446zm-2.654 0l.144.446h.47l-.38.275.145.446-.38-.275-.379.275.145-.446-.38-.275h.47l.145-.446zm-2.655 0l.145.446h.469l-.38.275.145.446-.38-.275-.379.275.145-.446-.38-.275h.47l.145-.446zm-2.655 0l.145.446h.469l-.38.275.145.446-.38-.275-.378.275.144-.446-.379-.275h.469l.145-.446zM14.602 2.74l.145.446h.469l-.38.276.145.446-.38-.276-.379.276.145-.446-.38-.276h.47l.145-.446zm-2.655 0l.145.446h.469l-.38.276.145.446-.38-.276-.379.276.145-.446-.38-.276h.47l.145-.446zm-2.655 0l.145.446h.469l-.38.276.145.446-.38-.276-.378.276.144-.446-.379-.276h.47l.144-.446zm-2.655 0l.145.446h.47l-.38.276.145.446-.38-.276-.38.276.146-.446-.38-.276h.47l.144-.446zm-2.655 0l.145.446h.47l-.38.276.145.446-.38-.276-.38.276.146-.446-.38-.276h.47l.144-.446zm-2.655 0l.145.446h.47l-.38.276.145.446-.38-.276-.379.276.145-.446-.38-.276h.47l.144-.446zM13.274 3.869l.145.446h.47l-.38.276.145.446-.38-.276-.38.276.146-.446-.38-.276h.47l.144-.446zm-2.655 0l.145.446h.47l-.38.276.145.446-.38-.276-.379.276.145-.446-.38-.276h.47l.144-.446zm-2.654 0l.144.446h.47l-.38.276.145.446-.38-.276-.379.276.145-.446-.38-.276h.47l.145-.446zm-2.655 0l.145.446h.469l-.38.276.145.446-.38-.276-.379.276.145-.446-.38-.276h.47l.145-.446zm-2.655 0l.145.446h.469l-.38.276.145.446-.38-.276-.378.276.144-.446-.379-.276h.469l.145-.446zM14.602 4.997l.145.446h.469l-.38.276.145.446-.38-.276-.379.276.145-.446-.38-.276h.47l.145-.446zm-2.655 0l.145.446h.469l-.38.276.145.446-.38-.276-.379.276.145-.446-.38-.276h.47l.145-.446zm-2.655 0l.145.446h.469l-.38.276.145.446-.38-.276-.378.276.144-.446-.379-.276h.47l.144-.446zm-2.655 0l.145.446h.47l-.38.276.145.446-.38-.276-.38.276.146-.446-.38-.276h.47l.144-.446zm-2.655 0l.145.446h.47l-.38.276.145.446-.38-.276-.38.276.146-.446-.38-.276h.47l.144-.446zm-2.655 0l.145.446h.47l-.38.276.145.446-.38-.276-.379.276.145-.446-.38-.276h.47l.144-.446zM13.274 6.126l.145.446h.47l-.38.276.145.446-.38-.276-.38.276.146-.446-.38-.276h.47l.144-.446zm-2.655 0l.145.446h.47l-.38.276.145.446-.38-.276-.379.276.145-.446-.38-.276h.47l.144-.446zm-2.654 0l.144.446h.47l-.38.276.145.446-.38-.276-.379.276.145-.446-.38-.276h.47l.145-.446zm-2.655 0l.145.446h.469l-.38.276.145.446-.38-.276-.379.276.145-.446-.38-.276h.47l.145-.446zm-2.655 0l.145.446h.469l-.38.276.145.446-.38-.276-.378.276.144-.446-.379-.276h.469l.145-.446zM14.602 7.254l.145.447h.469l-.38.275.145.446-.38-.275-.379.275.145-.446-.38-.275h.47l.145-.447zm-2.655 0l.145.447h.469l-.38.275.145.446-.38-.275-.379.275.145-.446-.38-.275h.47l.145-.447zm-2.655 0l.145.447h.469l-.38.275.145.446-.38-.275-.378.275.144-.446-.379-.275h.47l.144-.447zm-2.655 0l.145.447h.47l-.38.275.145.446-.38-.275-.38.275.146-.446-.38-.275h.47l.144-.447zm-2.655 0l.145.447h.47l-.38.275.145.446-.38-.275-.38.275.146-.446-.38-.275h.47l.144-.447zm-2.655 0l.145.447h.47l-.38.275.145.446-.38-.275-.379.275.145-.446-.38-.275h.47l.144-.447zM13.274 8.383l.145.446h.47l-.38.276.145.446-.38-.276-.38.276.146-.446-.38-.276h.47l.144-.446zm-2.655 0l.145.446h.47l-.38.276.145.446-.38-.276-.379.276.145-.446-.38-.276h.47l.144-.446zm-2.654 0l.144.446h.47l-.38.276.145.446-.38-.276-.379.276.145-.446-.38-.276h.47l.145-.446zm-2.655 0l.145.446h.469l-.38.276.145.446-.38-.276-.379.276.145-.446-.38-.276h.47l.145-.446zm-2.655 0l.145.446h.469l-.38.276.145.446-.38-.276-.378.276.144-.446-.379-.276h.469l.145-.446zM14.602 9.512l.145.446h.469l-.38.275.145.446-.38-.275-.379.275.145-.446-.38-.275h.47l.145-.446zm-2.655 0l.145.446h.469l-.38.275.145.446-.38-.275-.379.275.145-.446-.38-.275h.47l.145-.446zm-2.655 0l.145.446h.469l-.38.275.145.446-.38-.275-.378.275.144-.446-.379-.275h.47l.144-.446zm-2.655 0l.145.446h.47l-.38.275.145.446-.38-.275-.38.275.146-.446-.38-.275h.47l.144-.446zm-2.655 0l.145.446h.47l-.38.275.145.446-.38-.275-.38.275.146-.446-.38-.275h.47l.144-.446zm-2.655 0l.145.446h.47l-.38.275.145.446-.38-.275-.379.275.145-.446-.38-.275h.47l.144-.446z" fill="#FFF"></path>
                          </g>
                        </svg>