<?xml version="1.0" standalone="no"?>
<!DOCTYPE svg PUBLIC "-//W3C//DTD SVG 1.1//EN" "http://www.w3.org/Graphics/SVG/1.1/DTD/svg11.dtd" >
<svg xmlns="http://www.w3.org/2000/svg" xmlns:xlink="http://www.w3.org/1999/xlink" version="1.1">
<metadata>
Created by FontForge 20170924 at Mon Apr 21 19:19:26 2014
 By www-data
Copyright C 2010, 2014 Hoefler &#38; Co. http:www.typography.com
</metadata>
<defs>
<font id="ArcherSSm-SemiboldItalic" horiz-adv-x="590" >
  <font-face 
    font-family="Archer SSm"
    font-weight="375"
    font-style="italic"
    font-stretch="normal"
    units-per-em="1000"
    panose-1="0 0 0 0 0 0 0 0 0 0"
    ascent="800"
    descent="-200"
    x-height="497"
    cap-height="724"
    bbox="-120 -330 1253 1194"
    underline-thickness="50"
    underline-position="-100"
    slope="-12"
    stemh="83"
    stemv="96"
    unicode-range="U+0020-FB04"
  />
<missing-glyph horiz-adv-x="500" 
d="M0 -200v1000h500v-1000h-500zM71 750l179 -390l179 390h-358zM450 676l-172 -376l172 -376v752zM50 -76l172 376l-172 376v-752zM250 240l-179 -390h358z" />
    <glyph glyph-name="f_b" unicode="fb" horiz-adv-x="962" 
d="M61 0l97 418h-89l20 79h87l42 178c8 39 24 72 46 100c39 50 98 80 172 80c57 0 101 -24 129 -60l34 54h58l-104 -446c39 56 100 104 170 104c114 0 184 -81 184 -203c0 -173 -122 -313 -265 -313c-75 0 -138 48 -155 115l-30 -106h-88l97 418h-217l-96 -418h-92zM476 692
c0 21 9 39 24 50c-17 21 -43 33 -71 33c-37 0 -68 -15 -90 -41c-17 -19 -28 -44 -34 -73l-38 -164h217l32 137c-25 9 -40 33 -40 58zM632 73c102 0 178 107 178 219c0 79 -42 134 -116 134c-103 0 -187 -115 -187 -226c0 -76 44 -127 125 -127z" />
    <glyph glyph-name="f_f" unicode="ff" horiz-adv-x="704" 
d="M434 701c-30 0 -53 19 -58 46c-11 -3 -22 -9 -31 -19c-22 -21 -39 -61 -52 -117l-26 -114h229l36 153c16 69 40 118 77 154c31 31 77 51 133 51c61 0 98 -31 98 -72c0 -37 -29 -62 -61 -62c-33 0 -59 23 -61 54c-17 -2 -34 -12 -46 -24c-22 -21 -39 -59 -51 -111
l-33 -143h130l-20 -79h-128l-96 -418h-92l96 418h-229l-96 -418h-92l97 418h-89l20 79h87l30 129c16 73 40 119 75 154c32 32 77 52 121 52c58 0 92 -30 92 -71c0 -34 -28 -60 -60 -60z" />
    <glyph glyph-name="f_h" unicode="fh" horiz-adv-x="963" 
d="M368 0l97 418h-216l-96 -418h-92l97 418h-89l20 79h87l42 178c8 39 24 72 46 100c39 50 98 80 172 80c57 0 101 -24 129 -60l34 54h58l-106 -452c37 57 95 109 163 109c77 0 138 -54 139 -139c0 -25 -4 -51 -12 -80l-42 -153c-4 -16 -7 -32 -7 -41c0 -24 13 -37 32 -37
c21 0 42 18 65 80l44 -16c-26 -86 -70 -128 -131 -128c-65 0 -103 40 -103 97c0 15 3 36 8 55l43 156c6 20 7 37 7 54c0 44 -32 74 -79 74c-63 0 -130 -57 -155 -166l-61 -262h-94zM476 692c0 21 9 39 24 50c-17 21 -43 33 -71 33c-37 0 -68 -15 -90 -41
c-17 -19 -28 -44 -34 -73l-38 -164h217l32 137c-25 9 -40 33 -40 58z" />
    <glyph glyph-name="fi" unicode="fi" horiz-adv-x="672" 
d="M475 418h-226l-96 -418h-92l97 418h-89l20 79h87l32 138c14 56 35 102 65 137c40 54 95 83 167 83c78 0 122 -40 122 -85c0 -38 -26 -64 -61 -64c-37 0 -59 28 -59 59c0 3 0 5 1 8c-5 1 -10 1 -15 1c-35 0 -63 -16 -85 -46c-20 -25 -37 -60 -48 -109l-28 -122h322
l-95 -356c-5 -19 -8 -39 -8 -49c0 -23 13 -36 32 -36c24 0 44 18 68 80l43 -16c-28 -92 -74 -128 -134 -128c-64 0 -101 39 -101 97c0 15 3 37 8 55z" />
    <glyph glyph-name="f_j" unicode="fj" horiz-adv-x="628" 
d="M585 497l-110 -477c-25 -108 -52 -164 -90 -202c-28 -28 -73 -48 -120 -48c-54 0 -90 31 -90 68c0 35 26 59 58 59c28 0 52 -22 55 -46c16 3 30 12 44 32c19 26 37 71 53 145l90 390h-226l-96 -418h-92l97 418h-89l20 79h87l32 138c14 56 35 102 65 137
c40 54 95 83 167 83c78 0 122 -40 122 -85c0 -38 -26 -64 -61 -64c-37 0 -59 28 -59 59c0 3 0 5 1 8c-5 1 -10 1 -15 1c-35 0 -63 -16 -85 -46c-20 -25 -37 -60 -48 -109l-28 -122h318z" />
    <glyph glyph-name="f_k" unicode="fk" horiz-adv-x="902" 
d="M368 0l97 418h-216l-96 -418h-92l97 418h-89l20 79h87l42 178c8 39 24 72 46 100c39 50 98 80 172 80c57 0 101 -24 129 -60l34 54h58l-138 -592c141 54 213 102 233 134c-19 12 -30 32 -30 52c0 35 28 64 64 64c35 0 65 -28 65 -71c0 -73 -80 -142 -200 -199l50 -119
c11 -26 18 -40 27 -50c8 -9 15 -11 24 -11c18 0 35 19 54 92l45 -14c-26 -116 -70 -143 -119 -143c-23 0 -45 6 -64 23c-17 13 -31 34 -43 64l-55 132l-64 -26l-44 -185h-94zM476 692c0 21 9 39 24 50c-17 21 -43 33 -71 33c-37 0 -68 -15 -90 -41c-17 -19 -28 -44 -34 -73
l-38 -164h217l32 137c-25 9 -40 33 -40 58z" />
    <glyph glyph-name="fl" unicode="fl" horiz-adv-x="672" 
d="M89 497h87l42 178c8 39 24 72 46 100c39 50 98 80 172 80c57 0 101 -24 129 -60l34 54h58l-164 -707c-4 -19 -8 -38 -8 -49c0 -24 11 -37 31 -37c23 0 44 18 68 80l43 -16c-29 -92 -75 -128 -134 -128c-65 0 -101 39 -101 98c0 15 3 34 7 52l65 276h-215l-96 -418h-92
l97 418h-89zM305 661l-38 -164h216l33 137c-25 9 -40 33 -40 58c0 21 9 39 24 50c-17 21 -43 33 -71 33c-37 0 -68 -15 -90 -41c-17 -19 -28 -44 -34 -73z" />
    <glyph glyph-name="f_f_b" unicode="ffb" horiz-adv-x="1283" 
d="M797 692c0 21 9 39 24 50c-17 21 -43 33 -71 33c-37 0 -68 -15 -91 -41c-16 -19 -27 -44 -33 -73l-38 -164h217l32 137c-25 9 -40 33 -40 58zM89 497h86l35 149c9 40 25 76 47 104c40 51 99 81 172 81c51 0 100 -24 100 -72c0 -35 -27 -61 -59 -61c-33 0 -54 23 -60 53
h-1c-29 -3 -57 -17 -75 -40c-17 -19 -28 -45 -35 -73l-33 -141h231l41 178c9 39 25 72 46 100c40 50 99 80 172 80c58 0 102 -24 130 -61l34 55h58l-103 -444c39 55 99 102 168 102c114 0 185 -81 185 -203c0 -173 -122 -313 -265 -313c-77 0 -139 49 -155 117l-30 -108h-88
l97 418h-217l-96 -418h-92l96 418h-230l-95 -418h-92l96 418h-88zM953 73c102 0 178 107 178 219c0 79 -42 134 -116 134c-103 0 -187 -115 -187 -226c0 -76 44 -127 125 -127z" />
    <glyph glyph-name="f_f_h" unicode="ffh" horiz-adv-x="1284" 
d="M797 692c0 21 9 39 24 50c-17 21 -43 33 -71 33c-37 0 -68 -15 -91 -41c-16 -19 -27 -44 -33 -73l-38 -164h217l32 137c-25 9 -40 33 -40 58zM689 0l97 418h-216l-96 -418h-92l96 418h-230l-95 -418h-92l96 418h-88l20 79h86l35 149c9 40 25 76 47 104
c40 51 99 81 172 81c51 0 100 -24 100 -72c0 -35 -27 -61 -59 -61c-33 0 -54 23 -60 53h-1c-29 -3 -57 -17 -75 -40c-17 -19 -28 -45 -35 -73l-33 -141h231l41 178c9 39 25 72 46 100c40 50 99 80 172 80c58 0 102 -24 130 -61l34 55h57l-105 -452c36 57 94 109 163 109
c77 0 138 -54 138 -139c0 -25 -4 -51 -12 -80l-42 -153c-4 -16 -6 -32 -6 -41c0 -24 12 -37 31 -37c22 0 43 18 66 80l43 -16c-26 -86 -69 -128 -130 -128c-65 0 -103 40 -103 97c0 15 3 36 8 55l42 156c6 20 8 37 8 54c-1 44 -33 74 -79 74c-64 0 -130 -57 -156 -166
l-60 -262h-94z" />
    <glyph glyph-name="f_f_i" unicode="ffi" horiz-adv-x="993" 
d="M382 0l97 418h-231l-95 -418h-92l96 418h-88l20 79h86l35 149c9 40 25 76 47 104c40 51 99 81 172 81c51 0 100 -24 100 -72c0 -35 -27 -61 -59 -61c-33 0 -54 23 -60 53h-1c-29 -3 -57 -17 -75 -40c-17 -19 -28 -45 -35 -73l-33 -141h231l32 138c13 56 35 102 65 137
c40 54 95 83 167 83c78 0 122 -40 122 -85c0 -38 -26 -64 -62 -64s-59 28 -59 59c0 3 0 5 1 8c-5 1 -10 1 -14 1c-36 0 -63 -16 -85 -46c-21 -25 -37 -60 -48 -109l-28 -122h322l-95 -356c-5 -19 -8 -39 -8 -49c0 -23 13 -36 32 -36c23 0 44 18 68 80l43 -16
c-29 -92 -75 -128 -134 -128c-65 0 -102 39 -102 97c0 15 4 37 8 55l74 274h-226l-96 -418h-92z" />
    <glyph glyph-name="f_f_j" unicode="ffj" horiz-adv-x="948" 
d="M61 0l96 418h-88l20 79h86l35 149c9 40 25 76 47 104c40 51 99 81 172 81c51 0 100 -24 100 -72c0 -35 -27 -61 -59 -61c-33 0 -54 23 -60 53h-1c-29 -3 -57 -17 -75 -40c-17 -19 -28 -45 -35 -73l-33 -141h231l32 138c13 56 35 102 65 137c40 54 95 83 167 83
c78 0 122 -40 122 -85c0 -38 -26 -64 -62 -64s-59 28 -59 59c0 3 0 5 1 8c-5 1 -10 1 -14 1c-36 0 -63 -16 -85 -46c-21 -25 -37 -60 -48 -109l-28 -122h318l-110 -477c-25 -108 -52 -164 -90 -202c-29 -28 -73 -48 -120 -48c-55 0 -91 31 -91 68c0 35 27 59 58 59
c28 0 53 -22 56 -46c16 3 31 12 44 32c19 26 36 71 53 145l90 390h-226l-96 -418h-92l97 418h-231l-95 -418h-92z" />
    <glyph glyph-name="f_f_k" unicode="ffk" horiz-adv-x="1223" 
d="M797 692c0 21 9 39 24 50c-17 21 -43 33 -71 33c-37 0 -68 -15 -91 -41c-16 -19 -27 -44 -33 -73l-38 -164h217l32 137c-25 9 -40 33 -40 58zM689 0l97 418h-216l-96 -418h-92l96 418h-230l-95 -418h-92l96 418h-88l20 79h86l35 149c9 40 25 76 47 104
c40 51 99 81 172 81c51 0 100 -24 100 -72c0 -35 -27 -61 -59 -61c-33 0 -54 23 -60 53h-1c-29 -3 -57 -17 -75 -40c-17 -19 -28 -45 -35 -73l-33 -141h231l41 178c9 39 25 72 46 100c40 50 99 80 172 80c58 0 102 -24 130 -61l34 55h57l-137 -592c141 54 213 102 233 134
c-19 12 -30 32 -30 52c0 35 28 64 63 64c36 0 65 -28 65 -71c0 -73 -80 -142 -200 -199l51 -119c10 -26 18 -40 26 -50c8 -9 16 -11 25 -11c17 0 35 19 54 92l44 -14c-25 -116 -69 -143 -118 -143c-23 0 -45 6 -65 23c-16 13 -30 34 -43 64l-55 132c-21 -9 -43 -19 -64 -26
l-43 -185h-94z" />
    <glyph glyph-name="f_f_l" unicode="ffl" horiz-adv-x="993" 
d="M626 661l-38 -164h216l33 137c-25 9 -40 33 -40 58c0 21 9 39 24 50c-17 21 -43 33 -71 33c-37 0 -68 -15 -91 -41c-16 -19 -27 -44 -33 -73zM69 418l20 79h86l35 149c9 40 25 76 47 104c40 51 99 81 172 81c51 0 100 -24 100 -72c0 -35 -27 -61 -59 -61
c-33 0 -54 23 -60 53h-1c-29 -3 -57 -17 -75 -40c-17 -19 -28 -45 -35 -73l-33 -141h231l41 178c9 39 25 72 46 100c40 50 99 80 172 80c58 0 102 -24 130 -61l34 55h58l-165 -707c-4 -19 -8 -38 -8 -49c0 -24 12 -37 32 -37c23 0 44 18 68 80l43 -16
c-29 -92 -75 -128 -134 -128c-65 0 -101 39 -101 98c0 15 3 34 7 52l65 276h-215l-96 -418h-92l96 418h-230l-95 -418h-92l96 418h-88z" />
    <glyph glyph-name=".notdef" horiz-adv-x="500" 
d="M0 -200v1000h500v-1000h-500zM71 750l179 -390l179 390h-358zM450 676l-172 -376l172 -376v752zM50 -76l172 376l-172 376v-752zM250 240l-179 -390h358z" />
    <glyph glyph-name="A" unicode="A" horiz-adv-x="788" 
d="M299 324h233l-41 324zM-23 0l20 84h66l331 557h-87l20 83h354l-20 -83h-82l73 -557h76l-20 -84h-247l20 83h81l-21 161h-289l-95 -161h96l-19 -83h-257z" />
    <glyph glyph-name="B" unicode="B" horiz-adv-x="671" 
d="M7 0l20 84h84l129 556h-95l19 84h250c64 0 115 -10 154 -30c54 -29 88 -81 88 -143c0 -98 -80 -168 -179 -182c73 -21 130 -80 130 -154c0 -60 -22 -109 -64 -146c-34 -29 -81 -50 -137 -60c-31 -6 -65 -9 -101 -9h-298zM280 409h75c125 0 203 48 203 132
c0 35 -18 67 -54 83c-25 11 -59 17 -103 17h-67zM204 82h115c27 0 52 3 74 8c37 8 63 22 83 42c23 23 34 52 34 87c0 67 -61 113 -169 113h-78z" />
    <glyph glyph-name="C" unicode="C" horiz-adv-x="763" 
d="M395 -13c-170 0 -311 115 -311 318c0 232 186 432 411 432c164 0 260 -100 260 -180c0 -49 -33 -84 -71 -84c-37 0 -64 27 -64 61c0 21 12 40 29 52c-13 29 -68 65 -157 65c-176 0 -310 -165 -310 -338c0 -148 87 -240 221 -240c81 0 154 34 218 99l57 -58
c-81 -87 -176 -127 -283 -127z" />
    <glyph glyph-name="D" unicode="D" horiz-adv-x="787" 
d="M7 0l20 84h84l129 556h-95l19 84h232c138 0 225 -37 290 -101c50 -51 77 -124 77 -205c0 -115 -39 -209 -114 -283c-91 -92 -219 -135 -376 -135h-266zM205 84h83c128 0 220 36 287 103c61 61 90 140 90 227c0 59 -21 115 -57 152c-46 46 -110 74 -222 74h-52z" />
    <glyph glyph-name="E" unicode="E" horiz-adv-x="651" 
d="M7 0l20 84h84l129 556h-95l19 84h531l-45 -187h-89l24 104h-251l-54 -232h228l-19 -81h-227l-57 -245h251l25 103h90l-43 -186h-521z" />
    <glyph glyph-name="F" unicode="F" horiz-adv-x="629" 
d="M7 0l20 84h84l129 556h-95l19 84h521l-44 -187h-90l24 104h-241l-57 -245h221l-19 -82h-220l-54 -230h105l-20 -84h-283z" />
    <glyph glyph-name="G" unicode="G" horiz-adv-x="802" 
d="M571 0l11 70c-64 -53 -136 -83 -221 -83c-153 0 -278 120 -278 300c0 240 189 450 433 450c98 0 175 -32 218 -74c28 -27 43 -56 43 -91c0 -48 -35 -78 -70 -78c-37 0 -63 27 -63 61c0 18 8 34 24 48c-3 3 -6 7 -10 10c-24 21 -76 38 -144 38c-192 0 -333 -169 -333 -360
c0 -134 85 -219 202 -219c82 0 154 26 207 66l33 141h-196l19 80h290l-85 -359h-80z" />
    <glyph glyph-name="H" unicode="H" horiz-adv-x="852" 
d="M7 0l20 84h84l129 556h-95l19 84h277l-19 -84h-88l-53 -229h374l53 229h-99l19 84h277l-19 -84h-84l-129 -556h95l-20 -84h-277l20 84h88l57 244h-374l-57 -244h99l-20 -84h-277z" />
    <glyph glyph-name="I" unicode="I" horiz-adv-x="405" 
d="M10 0l19 84h93l128 556h-98l19 84h286l-20 -84h-93l-128 -556h98l-19 -84h-285z" />
    <glyph glyph-name="J" unicode="J" horiz-adv-x="631" 
d="M231 -13c-106 0 -201 69 -201 173c0 58 36 97 81 97c34 0 59 -25 59 -56c0 -28 -18 -51 -50 -55c1 -42 46 -74 118 -74c53 0 92 20 119 54c26 33 44 79 56 132l88 382h-121l19 84h296l-19 -84h-83l-91 -394c-18 -76 -43 -136 -79 -179c-45 -53 -107 -80 -192 -80z" />
    <glyph glyph-name="K" unicode="K" horiz-adv-x="741" 
d="M713 640l-280 -236l152 -320h100l-20 -84h-148l-157 348l-117 -99l-38 -165h98l-20 -84h-276l20 84h84l129 556h-95l19 84h270l-19 -82h-81l-67 -289l329 289h-86l18 82h280l-18 -84h-77z" />
    <glyph glyph-name="L" unicode="L" horiz-adv-x="616" 
d="M7 0l20 84h84l129 556h-95l19 84h284l-20 -84h-94l-129 -557h231l26 108h91l-45 -191h-501z" />
    <glyph glyph-name="M" unicode="M" horiz-adv-x="959" 
d="M5 0l19 84h85l154 556h-97l20 84h174l124 -469l332 469h181l-19 -84h-86l-104 -556h97l-20 -84h-275l19 84h86l91 467l-322 -449h-16l-123 449l-124 -467h98l-19 -84h-275z" />
    <glyph glyph-name="N" unicode="N" horiz-adv-x="835" 
d="M602 -3l-288 568l-111 -481h99l-20 -84h-275l20 84h84l129 556h-95l19 84h173l267 -526l102 442h-99l19 84h273l-19 -84h-83l-149 -643h-46z" />
    <glyph glyph-name="O" unicode="O" horiz-adv-x="819" 
d="M392 -13c-195 0 -309 135 -309 315c0 212 170 435 402 435c195 0 309 -135 309 -315c0 -213 -170 -435 -402 -435zM400 73c169 0 296 176 296 348c0 126 -72 230 -219 230c-169 0 -296 -176 -296 -348c0 -127 72 -230 219 -230z" />
    <glyph glyph-name="P" unicode="P" horiz-adv-x="636" 
d="M361 337c131 0 198 83 198 177c0 58 -33 100 -96 118c-20 5 -44 8 -68 8h-61l-69 -300c25 -2 61 -3 96 -3zM7 0l20 84h84l129 556h-95l19 84h241c34 0 65 -4 92 -11c104 -27 157 -102 157 -195c0 -143 -112 -264 -305 -264c-39 0 -83 1 -104 3l-40 -173h99l-20 -84h-277z
" />
    <glyph glyph-name="Q" unicode="Q" horiz-adv-x="819" 
d="M794 422c0 -192 -138 -390 -334 -428c29 -52 82 -82 143 -82c27 0 51 6 79 20l28 -72c-37 -18 -74 -28 -112 -28c-103 0 -192 61 -240 157c-174 14 -275 144 -275 313c0 212 170 435 402 435c195 0 309 -135 309 -315zM400 73c169 0 296 176 296 348
c0 126 -72 230 -219 230c-169 0 -296 -176 -296 -348c0 -127 72 -230 219 -230z" />
    <glyph glyph-name="Q.alt" horiz-adv-x="819" 
d="M392 -13c-195 0 -309 135 -309 315c0 212 170 435 402 435c195 0 309 -135 309 -315c0 -145 -79 -294 -203 -375l53 -143l-79 -27l-48 133c-39 -14 -81 -23 -125 -23zM400 73c29 0 57 5 84 15l-52 141l79 27l46 -127c85 65 139 179 139 292c0 126 -72 230 -219 230
c-169 0 -296 -176 -296 -348c0 -127 72 -230 219 -230z" />
    <glyph glyph-name="R" unicode="R" horiz-adv-x="678" 
d="M360 368c124 0 199 64 199 153c0 32 -11 58 -31 79c-27 27 -75 40 -140 40h-55l-62 -269c26 -2 51 -3 89 -3zM7 0l20 84h84l129 556h-95l19 84h226c98 0 169 -22 213 -67c34 -33 51 -77 51 -130c0 -110 -75 -197 -202 -228l101 -215h85l-19 -84h-133l-125 288
c-10 -1 -20 -1 -30 -1c-26 0 -53 1 -77 3l-49 -206h96l-19 -84h-275z" />
    <glyph glyph-name="S" unicode="S" horiz-adv-x="626" 
d="M302 -13c-145 0 -254 86 -254 169c0 50 31 82 71 82c35 0 62 -29 62 -60c0 -22 -10 -41 -29 -55c23 -29 78 -54 156 -54c81 0 148 44 148 116c0 59 -49 95 -124 138c-89 51 -172 108 -172 216c0 104 96 198 243 198c132 0 227 -77 227 -151c0 -48 -30 -81 -69 -81
c-35 0 -62 27 -62 61c0 17 8 35 26 50c-16 18 -60 39 -123 39c-88 0 -143 -49 -143 -108c0 -63 53 -100 132 -146c84 -48 163 -107 163 -208c0 -117 -100 -206 -252 -206z" />
    <glyph glyph-name="T" unicode="T" horiz-adv-x="699" 
d="M160 0l19 84h91l129 558h-167l-26 -115h-90l46 197h605l-45 -197h-90l26 115h-165l-129 -558h101l-19 -84h-286z" />
    <glyph glyph-name="U" unicode="U" horiz-adv-x="792" 
d="M368 -13c-148 0 -233 85 -233 214c0 27 5 61 13 93l80 346h-94l20 84h274l-19 -84h-87l-81 -350c-7 -29 -11 -58 -11 -82c0 -84 47 -136 150 -136c106 0 168 70 191 175l90 393h-99l20 84h274l-19 -84h-83l-93 -403c-36 -154 -122 -250 -293 -250z" />
    <glyph glyph-name="V" unicode="V" horiz-adv-x="766" 
d="M299 -10l-111 650h-76l20 84h252l-20 -84h-75l73 -490l294 490h-83l19 84h256l-19 -84h-65l-411 -650h-54z" />
    <glyph glyph-name="W" unicode="W" horiz-adv-x="1066" 
d="M245 -9l-43 649h-78l20 84h260l-19 -84h-91l21 -472l273 474h44l78 -477l233 475h-88l20 84h259l-19 -84h-70l-334 -649h-51l-84 469l-281 -469h-50z" />
    <glyph glyph-name="X" unicode="X" horiz-adv-x="797" 
d="M-10 0l19 84h77l294 293l-146 263h-88l20 84h278l-19 -84h-83l101 -212l198 212h-83l19 84h281l-19 -84h-79l-276 -275l157 -281h86l-20 -84h-273l19 84h85l-116 231l-219 -231h89l-19 -84h-283z" />
    <glyph glyph-name="Y" unicode="Y" horiz-adv-x="714" 
d="M144 0l20 84h94l50 204l-126 352h-74l20 84h252l-19 -84h-81l92 -282l228 282h-80l20 84h260l-18 -84h-71l-314 -369l-44 -187h100l-19 -84h-290z" />
    <glyph glyph-name="Z" unicode="Z" horiz-adv-x="694" 
d="M26 0l-6 49l567 596h-328l-27 -117h-88l46 196h535l6 -49l-566 -596h345l27 116h87l-45 -195h-553z" />
    <glyph glyph-name="a" unicode="a" horiz-adv-x="669" 
d="M261 71c107 0 184 116 184 225c0 77 -39 128 -117 128c-102 0 -177 -109 -177 -224c0 -76 37 -129 110 -129zM226 -9c-101 0 -172 77 -172 199c0 171 119 317 262 317c77 0 135 -53 152 -119l32 112h88l-89 -359c-5 -20 -9 -39 -9 -50c0 -22 12 -35 31 -35
c21 0 43 18 67 80l43 -16c-29 -92 -78 -128 -133 -128c-58 0 -94 39 -94 97v9c-43 -59 -104 -107 -178 -107z" />
    <glyph glyph-name="b" unicode="b" horiz-adv-x="630" 
d="M36 0l179 770h-94l20 79h184l-103 -444c39 55 99 102 168 102c114 0 185 -81 185 -203c0 -173 -122 -313 -265 -313c-77 0 -139 49 -155 117l-30 -108h-89zM299 73c102 0 179 107 179 219c0 79 -42 134 -117 134c-102 0 -187 -115 -187 -226c0 -76 45 -127 125 -127z" />
    <glyph glyph-name="c" unicode="c" horiz-adv-x="559" 
d="M283 -9c-129 0 -231 81 -231 218c0 158 131 298 288 298c113 0 182 -69 182 -137c0 -41 -27 -75 -66 -75c-28 0 -55 21 -55 57c0 15 8 34 22 44c-17 20 -45 31 -85 31c-95 0 -192 -86 -192 -213c0 -88 59 -144 146 -144c57 0 117 22 167 63l-3 -87
c-48 -35 -108 -55 -173 -55z" />
    <glyph glyph-name="d" unicode="d" horiz-adv-x="671" 
d="M264 71c105 0 183 113 183 224c0 78 -42 129 -120 129c-102 0 -176 -108 -176 -224c0 -76 40 -129 113 -129zM54 191c0 173 120 316 260 316c77 0 137 -53 154 -117l88 380h-93l20 79h184l-165 -708c-6 -21 -9 -39 -9 -50c0 -22 10 -35 30 -35c21 0 43 18 67 80l43 -16
c-29 -92 -78 -128 -133 -128c-58 0 -94 39 -94 98v7c-42 -59 -102 -106 -177 -106c-101 0 -175 78 -175 200z" />
    <glyph glyph-name="e" unicode="e" horiz-adv-x="570" 
d="M503 220h-360v-21c0 -79 65 -130 154 -130c54 0 101 12 164 45l-19 -88c-52 -25 -95 -35 -164 -35c-118 0 -227 75 -227 211c0 168 126 305 274 305c119 0 197 -70 197 -184c0 -32 -6 -66 -19 -103zM324 428c-76 0 -140 -57 -168 -140h271c5 16 7 31 7 46
c0 52 -35 94 -110 94z" />
    <glyph glyph-name="f" unicode="f" horiz-adv-x="384" 
d="M61 0l96 418h-87l20 79h86l34 148c18 75 42 120 78 156c35 35 85 54 137 54c62 0 95 -33 95 -72c0 -37 -29 -62 -61 -62c-33 0 -58 23 -61 54c-17 -3 -33 -12 -45 -24c-22 -23 -40 -62 -53 -116l-32 -138h130l-20 -79h-128l-96 -418h-93z" />
    <glyph glyph-name="g" unicode="g" horiz-adv-x="629" 
d="M274 85c105 0 179 106 179 215c0 76 -49 124 -124 124c-101 0 -177 -97 -177 -213c0 -77 50 -126 122 -126zM220 -232c-69 0 -143 28 -173 57c-21 22 -28 39 -28 62c0 39 26 65 61 65s59 -28 59 -60c0 -10 -3 -22 -8 -30c17 -10 47 -20 87 -20c49 0 84 13 113 43
c27 26 44 67 57 123l23 96c-42 -62 -103 -99 -172 -99c-111 0 -184 79 -184 200c0 164 114 302 264 302c88 0 139 -58 156 -117l31 110h87l-119 -512c-15 -68 -36 -119 -74 -156c-43 -44 -101 -64 -180 -64z" />
    <glyph glyph-name="h" unicode="h" horiz-adv-x="631" 
d="M36 0l179 770h-94l20 79h184l-106 -452c37 57 95 110 163 110c77 0 138 -54 139 -139c0 -25 -4 -52 -12 -81l-42 -153c-4 -16 -7 -32 -7 -41c0 -24 13 -37 32 -37c22 0 42 18 65 80l44 -16c-26 -86 -70 -128 -131 -128c-65 0 -103 40 -103 97c0 15 3 36 8 55l43 156
c6 20 7 37 7 54c0 44 -32 74 -79 74c-63 0 -130 -57 -155 -166l-61 -262h-94z" />
    <glyph glyph-name="i" unicode="i" horiz-adv-x="364" 
d="M246 587c-35 0 -64 28 -64 64c0 35 29 63 64 63c34 0 63 -28 63 -63c0 -36 -29 -64 -63 -64zM184 -8c-64 0 -102 39 -102 97c0 15 4 37 9 55l73 274h-95l21 79h188l-95 -356c-5 -19 -8 -39 -8 -49c0 -23 13 -36 32 -36c23 0 44 18 68 80l43 -16
c-29 -92 -75 -128 -134 -128z" />
    <glyph glyph-name="j" unicode="j" horiz-adv-x="333" 
d="M259 587c-35 0 -64 28 -64 64c0 35 29 63 64 63c34 0 63 -28 63 -63c0 -36 -29 -64 -63 -64zM-30 -230c-54 0 -90 31 -90 68c0 35 26 59 58 59c28 0 53 -22 56 -46c16 3 31 12 44 32c18 26 36 71 52 145l90 390h-98l21 79h187l-110 -477c-25 -108 -51 -164 -89 -202
c-29 -28 -74 -48 -121 -48z" />
    <glyph glyph-name="k" unicode="k" horiz-adv-x="570" 
d="M130 0h-94l179 770h-94l20 79h184l-138 -592c141 54 213 102 233 134c-19 12 -30 32 -30 52c0 35 28 64 64 64c35 0 65 -28 65 -71c0 -73 -80 -142 -200 -199l50 -119c11 -25 18 -40 27 -50c8 -9 15 -11 24 -11c18 0 35 19 54 92l45 -14c-26 -116 -69 -143 -119 -143
c-23 0 -45 6 -64 23c-17 13 -31 34 -43 64l-55 132l-64 -26z" />
    <glyph glyph-name="l" unicode="l" horiz-adv-x="345" 
d="M166 -8c-64 0 -101 39 -101 98c0 15 4 33 8 52l146 628h-93l20 79h184l-164 -707c-4 -19 -8 -38 -8 -49c0 -24 12 -37 31 -37c24 0 44 18 68 80l43 -16c-28 -92 -74 -128 -134 -128z" />
    <glyph glyph-name="m" unicode="m" horiz-adv-x="938" 
d="M56 0l105 418h-93l21 79h173l-29 -117c42 71 103 127 169 127c73 0 121 -50 126 -125c47 77 110 125 171 125c74 0 129 -54 129 -139c0 -25 -5 -52 -13 -81l-44 -152c-4 -15 -7 -33 -7 -42c0 -24 12 -37 32 -37c21 0 42 18 66 80l43 -16c-27 -86 -71 -128 -131 -128
c-65 0 -103 40 -103 97c0 15 4 37 9 55l43 152c6 22 10 41 10 58c0 46 -30 74 -71 74c-60 0 -122 -59 -150 -170l-66 -258h-94l75 295c6 23 10 43 10 61c0 41 -29 72 -71 72c-59 0 -125 -59 -152 -169l-64 -259h-94z" />
    <glyph glyph-name="n" unicode="n" horiz-adv-x="653" 
d="M489 -8c-65 0 -102 40 -102 97c0 15 3 37 8 55l45 156c5 20 8 37 8 54c0 44 -30 74 -77 74c-64 0 -129 -57 -156 -165l-65 -263h-94l105 418h-93l21 79h173l-28 -117c41 71 106 127 175 127c77 0 135 -54 135 -139c0 -25 -5 -52 -14 -81l-43 -152c-4 -15 -7 -33 -7 -42
c0 -24 12 -37 31 -37c22 0 43 18 66 80l44 -16c-27 -86 -71 -128 -132 -128z" />
    <glyph glyph-name="o" unicode="o" horiz-adv-x="607" 
d="M273 -9c-140 0 -221 101 -221 219c0 153 120 297 282 297c141 0 221 -102 221 -220c0 -153 -119 -296 -282 -296zM277 70c103 0 184 98 184 218c0 88 -57 139 -131 139c-102 0 -184 -98 -184 -218c0 -87 58 -139 131 -139z" />
    <glyph glyph-name="p" unicode="p" horiz-adv-x="652" 
d="M322 73c102 0 178 107 178 219c0 79 -42 134 -116 134c-103 0 -187 -114 -187 -226c0 -75 44 -127 125 -127zM-70 -227l20 77h74l134 568h-94l20 79h175l-24 -105c41 60 102 115 180 115c112 0 182 -81 182 -203c0 -173 -122 -313 -265 -313c-77 0 -133 51 -157 113
l-59 -254h99l-20 -77h-265z" />
    <glyph glyph-name="q" unicode="q" horiz-adv-x="629" 
d="M234 -9c-112 0 -180 80 -180 202c0 170 120 314 267 314c79 0 135 -54 153 -115l30 105h87l-149 -645h103l-20 -79h-194l73 314c-41 -54 -100 -96 -170 -96zM266 71c108 0 187 116 187 225c0 77 -41 128 -120 128c-104 0 -182 -107 -182 -222c0 -76 41 -131 115 -131z
" />
    <glyph glyph-name="r" unicode="r" horiz-adv-x="470" 
d="M56 0l105 418h-93l21 79h173l-32 -138c62 96 120 148 171 148c41 0 72 -28 72 -67c0 -38 -31 -68 -67 -68c-32 0 -57 22 -63 49c-37 -17 -111 -89 -138 -199l-55 -222h-94z" />
    <glyph glyph-name="s" unicode="s" horiz-adv-x="511" 
d="M242 -9c-74 0 -141 26 -179 64c-19 19 -30 41 -30 64c0 35 25 62 58 62c31 0 52 -24 52 -52c0 -13 -4 -25 -13 -34c5 -5 12 -9 20 -14c23 -12 58 -20 95 -20c53 0 98 23 98 64c0 44 -50 65 -104 90c-71 33 -138 67 -138 145c0 80 69 147 189 147c66 0 123 -22 156 -55
c18 -18 28 -40 28 -63c0 -38 -26 -62 -56 -62s-54 23 -54 53c0 11 3 20 11 34c-3 3 -8 6 -18 10c-17 7 -42 13 -69 13c-54 0 -95 -24 -95 -61c0 -39 49 -61 107 -89c69 -32 135 -69 135 -146c0 -97 -81 -150 -193 -150z" />
    <glyph glyph-name="t" unicode="t" horiz-adv-x="415" 
d="M404 418h-151l-66 -268c-4 -17 -7 -32 -7 -44c0 -25 15 -41 39 -41c26 0 52 13 101 45l34 -46c-63 -54 -116 -73 -163 -73c-61 0 -107 35 -107 100c0 17 4 37 9 60l66 267h-89l19 79h89l29 115l103 34l-37 -149h151z" />
    <glyph glyph-name="u" unicode="u" horiz-adv-x="654" 
d="M85 497h186l-78 -305c-4 -17 -8 -35 -8 -52c0 -43 28 -71 73 -71c66 0 130 59 157 165l66 263h93l-89 -356c-5 -20 -9 -39 -9 -50c0 -22 12 -35 31 -35c21 0 43 18 66 80l43 -16c-28 -92 -78 -128 -132 -128c-58 0 -94 38 -94 99c0 5 0 10 1 16
c-41 -68 -103 -116 -171 -116c-72 0 -130 50 -130 129c0 26 5 54 11 80l56 218h-92z" />
    <glyph glyph-name="v" unicode="v" horiz-adv-x="569" 
d="M200 -15l-79 433h-88l20 79h149l59 -402c91 99 159 204 179 282c-25 8 -48 30 -48 63c0 37 28 67 66 67c42 0 73 -32 73 -86c0 -101 -114 -277 -273 -436h-58z" />
    <glyph glyph-name="w" unicode="w" horiz-adv-x="800" 
d="M169 -15l-43 433h-91l21 79h151l23 -382l181 324h51l69 -334c70 106 129 207 137 275c-25 6 -50 27 -50 62c0 36 28 65 64 65c42 0 74 -32 74 -83c0 -88 -77 -236 -223 -439h-52l-68 312l-186 -312h-58z" />
    <glyph glyph-name="x" unicode="x" horiz-adv-x="629" 
d="M90 -8c-48 0 -78 31 -78 67c0 33 27 60 59 60c27 0 45 -17 53 -38c23 5 48 35 85 86l59 83l-67 168h-99l21 79h138l63 -175l45 69c48 75 101 116 154 116c49 0 79 -32 79 -68c0 -33 -27 -59 -59 -59c-28 0 -45 17 -53 37c-18 -5 -46 -34 -78 -80l-53 -77l56 -137
c25 -59 35 -66 49 -66s31 17 51 79l44 -12c-24 -97 -65 -132 -115 -132c-47 0 -77 25 -103 94l-39 103l-54 -83c-52 -82 -102 -114 -158 -114z" />
    <glyph glyph-name="y" unicode="y" horiz-adv-x="579" 
d="M-8 -232c-47 0 -83 32 -83 70c0 35 27 62 60 62c29 0 52 -20 58 -50c28 0 80 41 183 166l-82 402h-88l20 79h148l70 -404c82 107 156 212 174 284c-25 10 -48 32 -48 66s28 64 66 64c44 0 73 -33 73 -87c0 -71 -50 -175 -234 -404c-170 -212 -242 -248 -317 -248z" />
    <glyph glyph-name="z" unicode="z" horiz-adv-x="564" 
d="M46 -9l-34 49l402 383h-221l-24 -94h-81l42 168h387l26 -52l-387 -368c25 9 45 13 74 13c49 0 97 -21 136 -21c52 0 67 26 92 97l41 -9c-20 -93 -47 -166 -139 -166c-52 0 -133 30 -190 30c-52 0 -87 -11 -124 -30z" />
    <glyph glyph-name="Aacute" unicode="&#xc1;" horiz-adv-x="788" 
d="M503 791l-23 30l158 143c16 15 32 23 51 23c25 0 45 -22 45 -46c0 -25 -16 -44 -40 -56zM299 324h233l-41 324zM-23 0l20 84h66l331 557h-87l20 83h354l-20 -83h-82l73 -557h76l-20 -84h-247l20 83h81l-21 161h-289l-95 -161h96l-19 -83h-257z" />
    <glyph glyph-name="aacute" unicode="&#xe1;" horiz-adv-x="669" 
d="M367 582l-24 31l168 150c17 16 34 24 53 24c26 0 48 -22 48 -48s-18 -46 -43 -58zM261 71c107 0 184 116 184 225c0 77 -39 128 -117 128c-102 0 -177 -109 -177 -224c0 -76 37 -129 110 -129zM226 -9c-101 0 -172 77 -172 199c0 171 119 317 262 317
c77 0 135 -53 152 -119l32 112h88l-89 -359c-5 -20 -9 -39 -9 -50c0 -22 12 -35 31 -35c21 0 43 18 67 80l43 -16c-29 -92 -78 -128 -133 -128c-58 0 -94 39 -94 97v9c-43 -59 -104 -107 -178 -107z" />
    <glyph glyph-name="Abreve" unicode="&#x102;" horiz-adv-x="788" 
d="M534 795c-86 0 -141 64 -148 169l57 19c16 -68 48 -105 105 -105c49 0 95 28 142 103l51 -25c-48 -105 -130 -161 -207 -161zM299 324h233l-41 324zM-23 0l20 84h66l331 557h-87l20 83h354l-20 -83h-82l73 -557h76l-20 -84h-247l20 83h81l-21 161h-289l-95 -161h96
l-19 -83h-257z" />
    <glyph glyph-name="abreve" unicode="&#x103;" horiz-adv-x="669" 
d="M401 587c-91 0 -149 67 -156 176l59 19c16 -71 51 -109 111 -109c52 0 100 29 149 107l52 -26c-49 -109 -135 -167 -215 -167zM261 71c107 0 184 116 184 225c0 77 -39 128 -117 128c-102 0 -177 -109 -177 -224c0 -76 37 -129 110 -129zM226 -9c-101 0 -172 77 -172 199
c0 171 119 317 262 317c77 0 135 -53 152 -119l32 112h88l-89 -359c-5 -20 -9 -39 -9 -50c0 -22 12 -35 31 -35c21 0 43 18 67 80l43 -16c-29 -92 -78 -128 -133 -128c-58 0 -94 39 -94 97v9c-43 -59 -104 -107 -178 -107z" />
    <glyph glyph-name="Acircumflex" unicode="&#xc2;" horiz-adv-x="788" 
d="M392 788l-35 47l215 169l129 -176l-44 -38l-103 102zM299 324h233l-41 324zM-23 0l20 84h66l331 557h-87l20 83h354l-20 -83h-82l73 -557h76l-20 -84h-247l20 83h81l-21 161h-289l-95 -161h96l-19 -83h-257z" />
    <glyph glyph-name="acircumflex" unicode="&#xe2;" horiz-adv-x="669" 
d="M251 580l-36 48l225 177l135 -184l-45 -40l-108 108zM261 71c107 0 184 116 184 225c0 77 -39 128 -117 128c-102 0 -177 -109 -177 -224c0 -76 37 -129 110 -129zM226 -9c-101 0 -172 77 -172 199c0 171 119 317 262 317c77 0 135 -53 152 -119l32 112h88l-89 -359
c-5 -20 -9 -39 -9 -50c0 -22 12 -35 31 -35c21 0 43 18 67 80l43 -16c-29 -92 -78 -128 -133 -128c-58 0 -94 39 -94 97v9c-43 -59 -104 -107 -178 -107z" />
    <glyph glyph-name="Adieresis" unicode="&#xc4;" horiz-adv-x="788" 
d="M445 809c-37 0 -67 30 -67 68c0 37 31 67 68 67s67 -30 67 -67c0 -38 -31 -68 -68 -68zM647 809c-37 0 -67 30 -67 68c0 37 31 67 68 67s66 -30 66 -67c0 -38 -31 -68 -67 -68zM299 324h233l-41 324zM-23 0l20 84h66l331 557h-87l20 83h354l-20 -83h-82l73 -557h76
l-20 -84h-247l20 83h81l-21 161h-289l-95 -161h96l-19 -83h-257z" />
    <glyph glyph-name="adieresis" unicode="&#xe4;" horiz-adv-x="669" 
d="M306 601c-38 0 -69 32 -69 71s32 71 70 71c39 0 70 -32 70 -71s-32 -71 -71 -71zM517 601c-38 0 -69 32 -69 71s32 71 70 71c39 0 70 -32 70 -71s-32 -71 -71 -71zM261 71c107 0 184 116 184 225c0 77 -39 128 -117 128c-102 0 -177 -109 -177 -224
c0 -76 37 -129 110 -129zM226 -9c-101 0 -172 77 -172 199c0 171 119 317 262 317c77 0 135 -53 152 -119l32 112h88l-89 -359c-5 -20 -9 -39 -9 -50c0 -22 12 -35 31 -35c21 0 43 18 67 80l43 -16c-29 -92 -78 -128 -133 -128c-58 0 -94 39 -94 97v9
c-43 -59 -104 -107 -178 -107z" />
    <glyph glyph-name="AE" unicode="&#xc6;" horiz-adv-x="1025" 
d="M353 323h193l74 321h-31zM-21 0l20 84h85l410 556h-92l19 84h648l-45 -187h-89l24 104h-246l-53 -232h222l-19 -81h-222l-57 -245h246l25 103h90l-43 -186h-517l19 84h86l37 160h-230l-119 -161h96l-19 -83h-276z" />
    <glyph glyph-name="ae" unicode="&#xe6;" horiz-adv-x="937" 
d="M872 220h-360v-21c0 -79 65 -130 154 -130c54 0 100 12 164 45l-19 -88c-52 -25 -95 -35 -159 -35c-108 0 -179 60 -204 146c-46 -89 -141 -146 -245 -146c-105 0 -161 63 -161 125c0 113 104 173 261 173h125c-5 83 -59 146 -144 146c-16 0 -25 -1 -36 -4
c-6 -2 -10 -4 -14 -6c4 -7 7 -14 7 -25c0 -29 -25 -55 -55 -55c-34 0 -58 27 -58 62c0 31 22 62 61 81c24 12 55 19 92 19c109 0 176 -55 197 -146c43 88 130 146 219 146c116 0 194 -70 194 -184c0 -32 -7 -66 -19 -103zM692 428c-76 0 -139 -58 -166 -140h270
c4 16 7 31 7 46c0 52 -35 94 -111 94zM211 69c88 0 184 60 211 154h-93c-146 0 -198 -40 -198 -97c0 -32 27 -57 80 -57z" />
    <glyph glyph-name="AEacute" unicode="&#x1fc;" horiz-adv-x="1025" 
d="M694 791l-23 30l158 143c16 15 32 23 51 23c25 0 45 -22 45 -46c0 -25 -16 -44 -40 -56zM353 323h193l74 321h-31zM-21 0l20 84h85l410 556h-92l19 84h648l-45 -187h-89l24 104h-246l-53 -232h222l-19 -81h-222l-57 -245h246l25 103h90l-43 -186h-517l19 84h86l37 160
h-230l-119 -161h96l-19 -83h-276z" />
    <glyph glyph-name="aeacute" unicode="&#x1fd;" horiz-adv-x="937" 
d="M521 582l-24 31l168 150c17 16 34 24 53 24c26 0 48 -22 48 -48s-18 -46 -43 -58zM872 220h-360v-21c0 -79 65 -130 154 -130c54 0 100 12 164 45l-19 -88c-52 -25 -95 -35 -159 -35c-108 0 -179 60 -204 146c-46 -89 -141 -146 -245 -146c-105 0 -161 63 -161 125
c0 113 104 173 261 173h125c-5 83 -59 146 -144 146c-16 0 -25 -1 -36 -4c-6 -2 -10 -4 -14 -6c4 -7 7 -14 7 -25c0 -29 -25 -55 -55 -55c-34 0 -58 27 -58 62c0 31 22 62 61 81c24 12 55 19 92 19c109 0 176 -55 197 -146c43 88 130 146 219 146c116 0 194 -70 194 -184
c0 -32 -7 -66 -19 -103zM692 428c-76 0 -139 -58 -166 -140h270c4 16 7 31 7 46c0 52 -35 94 -111 94zM211 69c88 0 184 60 211 154h-93c-146 0 -198 -40 -198 -97c0 -32 27 -57 80 -57z" />
    <glyph glyph-name="Agrave" unicode="&#xc0;" horiz-adv-x="788" 
d="M552 782l-128 105c-20 16 -27 33 -27 50c0 28 23 50 48 50s39 -12 55 -38l82 -144zM299 324h233l-41 324zM-23 0l20 84h66l331 557h-87l20 83h354l-20 -83h-82l73 -557h76l-20 -84h-247l20 83h81l-21 161h-289l-95 -161h96l-19 -83h-257z" />
    <glyph glyph-name="agrave" unicode="&#xe0;" horiz-adv-x="669" 
d="M419 573l-135 109c-21 18 -29 35 -29 53c0 30 24 53 51 53c25 0 41 -13 57 -40l87 -151zM261 71c107 0 184 116 184 225c0 77 -39 128 -117 128c-102 0 -177 -109 -177 -224c0 -76 37 -129 110 -129zM226 -9c-101 0 -172 77 -172 199c0 171 119 317 262 317
c77 0 135 -53 152 -119l32 112h88l-89 -359c-5 -20 -9 -39 -9 -50c0 -22 12 -35 31 -35c21 0 43 18 67 80l43 -16c-29 -92 -78 -128 -133 -128c-58 0 -94 39 -94 97v9c-43 -59 -104 -107 -178 -107z" />
    <glyph glyph-name="Amacron" unicode="&#x100;" horiz-adv-x="788" 
d="M365 825l18 76h340l-17 -76h-341zM299 324h233l-41 324zM-23 0l20 84h66l331 557h-87l20 83h354l-20 -83h-82l73 -557h76l-20 -84h-247l20 83h81l-21 161h-289l-95 -161h96l-19 -83h-257z" />
    <glyph glyph-name="amacron" unicode="&#x101;" horiz-adv-x="669" 
d="M222 618l19 80h357l-18 -80h-358zM261 71c107 0 184 116 184 225c0 77 -39 128 -117 128c-102 0 -177 -109 -177 -224c0 -76 37 -129 110 -129zM226 -9c-101 0 -172 77 -172 199c0 171 119 317 262 317c77 0 135 -53 152 -119l32 112h88l-89 -359c-5 -20 -9 -39 -9 -50
c0 -22 12 -35 31 -35c21 0 43 18 67 80l43 -16c-29 -92 -78 -128 -133 -128c-58 0 -94 39 -94 97v9c-43 -59 -104 -107 -178 -107z" />
    <glyph glyph-name="Aogonek" unicode="&#x104;" horiz-adv-x="788" 
d="M-23 0l20 84h66l331 557h-87l20 83h354l-20 -83h-82l73 -557h76l-20 -84h-86c-47 -36 -80 -73 -80 -110c0 -24 17 -39 47 -39c23 0 43 5 58 10l-15 -61c-14 -10 -42 -21 -78 -21c-53 0 -93 31 -93 84c0 50 36 97 88 137h-88l20 83h81l-21 161h-289l-95 -161h96l-19 -83
h-257zM299 324h233l-41 324z" />
    <glyph glyph-name="aogonek" unicode="&#x105;" horiz-adv-x="669" 
d="M404 91v7c-43 -59 -104 -107 -178 -107c-101 0 -172 77 -172 199c0 171 119 317 262 317c77 0 135 -53 152 -118l32 111h88l-89 -359c-5 -20 -9 -39 -9 -50c0 -22 12 -35 31 -35c21 0 43 18 67 80l43 -16c-14 -46 -32 -73 -60 -100c-46 -46 -111 -81 -111 -137
c0 -26 18 -41 49 -41c24 0 45 5 61 10l-15 -63c-15 -11 -43 -22 -81 -22c-57 0 -98 32 -98 88c0 57 40 104 93 141c-36 10 -65 38 -65 95zM261 71c107 0 184 116 184 226c0 77 -39 127 -117 127c-102 0 -177 -109 -177 -224c0 -76 37 -129 110 -129z" />
    <glyph glyph-name="Aring" unicode="&#xc5;" horiz-adv-x="788" 
d="M505 742c40 0 69 38 69 81c0 30 -19 55 -47 55c-40 0 -69 -39 -69 -82c0 -30 19 -54 47 -54zM299 324h233l-41 324zM-23 0l20 84h66l331 557h-87l20 83h104c-25 19 -37 51 -37 82c0 63 58 132 138 132c70 0 109 -51 109 -106c0 -45 -24 -88 -64 -108h104l-20 -83h-82
l73 -557h76l-20 -84h-247l20 83h81l-21 161h-289l-95 -161h96l-19 -83h-257z" />
    <glyph glyph-name="aring" unicode="&#xe5;" horiz-adv-x="669" 
d="M406 579c-72 0 -114 52 -114 115c0 81 63 154 147 154c72 0 114 -52 114 -115c0 -80 -62 -154 -147 -154zM412 642c41 0 72 40 72 86c0 32 -20 58 -50 58c-42 0 -72 -41 -72 -87c0 -31 19 -57 50 -57zM261 71c107 0 184 116 184 225c0 77 -39 128 -117 128
c-102 0 -177 -109 -177 -224c0 -76 37 -129 110 -129zM226 -9c-101 0 -172 77 -172 199c0 171 119 317 262 317c77 0 135 -53 152 -119l32 112h88l-89 -359c-5 -20 -9 -39 -9 -50c0 -22 12 -35 31 -35c21 0 43 18 67 80l43 -16c-29 -92 -78 -128 -133 -128
c-58 0 -94 39 -94 97v9c-43 -59 -104 -107 -178 -107z" />
    <glyph glyph-name="Aringacute" unicode="&#x1fa;" horiz-adv-x="788" 
d="M554 998l-23 30l158 143c16 15 32 23 51 23c25 0 45 -22 45 -46c0 -25 -16 -44 -40 -56zM505 742c40 0 69 38 69 81c0 30 -19 55 -47 55c-40 0 -69 -39 -69 -82c0 -30 19 -54 47 -54zM299 324h233l-41 324zM-23 0l20 84h66l331 557h-87l20 83h104c-25 19 -37 51 -37 82
c0 63 58 132 138 132c70 0 109 -51 109 -106c0 -45 -24 -88 -64 -108h104l-20 -83h-82l73 -557h76l-20 -84h-247l20 83h81l-21 161h-289l-95 -161h96l-19 -83h-257z" />
    <glyph glyph-name="aringacute" unicode="&#x1fb;" horiz-adv-x="669" 
d="M461 917l-24 31l168 150c17 16 34 24 53 24c26 0 48 -22 48 -48s-18 -46 -43 -58zM406 579c-72 0 -114 52 -114 115c0 81 63 154 147 154c72 0 114 -52 114 -115c0 -80 -62 -154 -147 -154zM412 642c41 0 72 40 72 86c0 32 -20 58 -50 58c-42 0 -72 -41 -72 -87
c0 -31 19 -57 50 -57zM261 71c107 0 184 116 184 225c0 77 -39 128 -117 128c-102 0 -177 -109 -177 -224c0 -76 37 -129 110 -129zM226 -9c-101 0 -172 77 -172 199c0 171 119 317 262 317c77 0 135 -53 152 -119l32 112h88l-89 -359c-5 -20 -9 -39 -9 -50
c0 -22 12 -35 31 -35c21 0 43 18 67 80l43 -16c-29 -92 -78 -128 -133 -128c-58 0 -94 39 -94 97v9c-43 -59 -104 -107 -178 -107z" />
    <glyph glyph-name="Atilde" unicode="&#xc3;" horiz-adv-x="788" 
d="M613 791c-43 0 -69 22 -92 45s-37 33 -55 33c-28 0 -49 -19 -71 -71l-55 20c22 85 79 139 131 139c43 0 69 -22 92 -45c23 -22 36 -32 55 -32c28 0 49 19 71 71l54 -21c-21 -84 -78 -139 -130 -139zM299 324h233l-41 324zM-23 0l20 84h66l331 557h-87l20 83h354l-20 -83
h-82l73 -557h76l-20 -84h-247l20 83h81l-21 161h-289l-95 -161h96l-19 -83h-257z" />
    <glyph glyph-name="atilde" unicode="&#xe3;" horiz-adv-x="669" 
d="M482 582c-44 0 -72 24 -96 48s-38 34 -58 34c-29 0 -51 -20 -75 -75l-56 22c22 87 82 145 137 145c44 0 72 -24 96 -48s38 -34 58 -34c29 0 51 21 75 75l56 -21c-22 -88 -82 -146 -137 -146zM261 71c107 0 184 116 184 225c0 77 -39 128 -117 128
c-102 0 -177 -109 -177 -224c0 -76 37 -129 110 -129zM226 -9c-101 0 -172 77 -172 199c0 171 119 317 262 317c77 0 135 -53 152 -119l32 112h88l-89 -359c-5 -20 -9 -39 -9 -50c0 -22 12 -35 31 -35c21 0 43 18 67 80l43 -16c-29 -92 -78 -128 -133 -128
c-58 0 -94 39 -94 97v9c-43 -59 -104 -107 -178 -107z" />
    <glyph glyph-name="Cacute" unicode="&#x106;" horiz-adv-x="763" 
d="M494 791l-23 30l158 143c16 15 32 23 51 23c25 0 45 -22 45 -46c0 -25 -16 -44 -40 -56zM395 -13c-170 0 -311 115 -311 318c0 232 186 432 411 432c164 0 260 -100 260 -180c0 -49 -33 -84 -71 -84c-37 0 -64 27 -64 61c0 21 12 40 29 52c-13 29 -68 65 -157 65
c-176 0 -310 -165 -310 -338c0 -148 87 -240 221 -240c81 0 154 34 218 99l57 -58c-81 -87 -176 -127 -283 -127z" />
    <glyph glyph-name="cacute" unicode="&#x107;" horiz-adv-x="559" 
d="M349 582l-24 31l168 150c17 16 34 24 53 24c26 0 48 -22 48 -48s-18 -46 -43 -58zM283 -9c-129 0 -231 81 -231 218c0 158 131 298 288 298c113 0 182 -69 182 -137c0 -41 -27 -75 -66 -75c-28 0 -55 21 -55 57c0 15 8 34 22 44c-17 20 -45 31 -85 31
c-95 0 -192 -86 -192 -213c0 -88 59 -144 146 -144c57 0 117 22 167 63l-3 -87c-48 -35 -108 -55 -173 -55z" />
    <glyph glyph-name="Ccaron" unicode="&#x10c;" horiz-adv-x="763" 
d="M519 785l-129 176l44 39l102 -103l163 104l35 -46zM395 -13c-170 0 -311 115 -311 318c0 232 186 432 411 432c164 0 260 -100 260 -180c0 -49 -33 -84 -71 -84c-37 0 -64 27 -64 61c0 21 12 40 29 52c-13 29 -68 65 -157 65c-176 0 -310 -165 -310 -338
c0 -148 87 -240 221 -240c81 0 154 34 218 99l57 -58c-81 -87 -176 -127 -283 -127z" />
    <glyph glyph-name="ccaron" unicode="&#x10d;" horiz-adv-x="559" 
d="M376 577l-135 184l45 40l108 -108l171 109l36 -48zM283 -9c-129 0 -231 81 -231 218c0 158 131 298 288 298c113 0 182 -69 182 -137c0 -41 -27 -75 -66 -75c-28 0 -55 21 -55 57c0 15 8 34 22 44c-17 20 -45 31 -85 31c-95 0 -192 -86 -192 -213c0 -88 59 -144 146 -144
c57 0 117 22 167 63l-3 -87c-48 -35 -108 -55 -173 -55z" />
    <glyph glyph-name="Ccedilla" unicode="&#xc7;" horiz-adv-x="763" 
d="M324 -219c-52 0 -102 24 -131 46l22 33c27 -17 68 -30 104 -30c27 0 45 14 45 32c0 19 -21 36 -71 30l-16 21l47 81c-136 27 -240 137 -240 311c0 232 186 432 411 432c164 0 260 -100 260 -180c0 -49 -33 -84 -71 -84c-37 0 -64 27 -64 61c0 21 12 40 29 52
c-13 29 -68 65 -157 65c-176 0 -310 -165 -310 -338c0 -148 87 -240 221 -240c81 0 154 34 218 99l57 -58c-81 -87 -176 -127 -283 -127c-10 0 -19 1 -28 1l-13 -42c60 -8 91 -42 91 -81c0 -53 -53 -84 -121 -84z" />
    <glyph glyph-name="ccedilla" unicode="&#xe7;" horiz-adv-x="559" 
d="M207 -231c-55 0 -108 25 -138 49l23 34c28 -18 72 -32 110 -32c29 0 47 15 47 35c0 19 -22 38 -74 31l-17 22l53 92c-93 24 -159 99 -159 209c0 158 131 298 288 298c113 0 182 -69 182 -137c0 -41 -27 -75 -66 -75c-28 0 -55 21 -55 57c0 15 8 34 22 44
c-17 20 -45 31 -85 31c-95 0 -192 -86 -192 -213c0 -88 59 -144 146 -144c57 0 117 22 167 63l-3 -87c-48 -35 -108 -55 -173 -55c-10 0 -20 1 -30 2l-15 -51c63 -8 96 -43 96 -84c0 -56 -56 -89 -127 -89z" />
    <glyph glyph-name="Cdotaccent" unicode="&#x10a;" horiz-adv-x="763" 
d="M538 808c-37 0 -68 30 -68 69c0 38 32 68 69 68c38 0 68 -30 68 -68c0 -39 -31 -69 -69 -69zM395 -13c-170 0 -311 115 -311 318c0 232 186 432 411 432c164 0 260 -100 260 -180c0 -49 -33 -84 -71 -84c-37 0 -64 27 -64 61c0 21 12 40 29 52c-13 29 -68 65 -157 65
c-176 0 -310 -165 -310 -338c0 -148 87 -240 221 -240c81 0 154 34 218 99l57 -58c-81 -87 -176 -127 -283 -127z" />
    <glyph glyph-name="cdotaccent" unicode="&#x10b;" horiz-adv-x="559" 
d="M395 600c-39 0 -71 32 -71 72s33 72 72 72c40 0 71 -32 71 -72s-33 -72 -72 -72zM283 -9c-129 0 -231 81 -231 218c0 158 131 298 288 298c113 0 182 -69 182 -137c0 -41 -27 -75 -66 -75c-28 0 -55 21 -55 57c0 15 8 34 22 44c-17 20 -45 31 -85 31
c-95 0 -192 -86 -192 -213c0 -88 59 -144 146 -144c57 0 117 22 167 63l-3 -87c-48 -35 -108 -55 -173 -55z" />
    <glyph glyph-name="Dcaron" unicode="&#x10e;" horiz-adv-x="787" 
d="M484 785l-129 176l44 39l102 -103l163 104l35 -46zM7 0l20 84h84l129 556h-95l19 84h232c138 0 225 -37 290 -101c50 -51 77 -124 77 -205c0 -115 -39 -209 -114 -283c-91 -92 -219 -135 -376 -135h-266zM205 84h83c128 0 220 36 287 103c61 61 90 140 90 227
c0 59 -21 115 -57 152c-46 46 -110 74 -222 74h-52z" />
    <glyph glyph-name="dcaron" unicode="&#x10f;" horiz-adv-x="671" 
d="M676 578l-26 24c44 49 60 82 69 119c8 33 2 64 11 99c7 28 25 48 57 48s52 -21 52 -54c0 -42 -21 -80 -52 -123c-33 -44 -74 -80 -111 -113zM264 71c105 0 183 113 183 224c0 78 -42 129 -120 129c-102 0 -176 -108 -176 -224c0 -76 40 -129 113 -129zM54 191
c0 173 120 316 260 316c77 0 137 -53 154 -117l88 380h-93l20 79h184l-165 -708c-6 -21 -9 -39 -9 -50c0 -22 10 -35 30 -35c21 0 43 18 67 80l43 -16c-29 -92 -78 -128 -133 -128c-58 0 -94 39 -94 98v7c-42 -59 -102 -106 -177 -106c-101 0 -175 78 -175 200z" />
    <glyph glyph-name="Dcroat" unicode="&#x110;" horiz-adv-x="787" 
d="M7 0l20 84h84l57 247h-93l18 78h93l54 231h-95l19 84h232c138 0 225 -37 290 -101c50 -51 77 -124 77 -205c0 -115 -39 -209 -114 -283c-91 -92 -219 -135 -376 -135h-266zM205 84h83c128 0 220 36 287 103c61 61 90 140 90 227c0 59 -21 115 -57 152
c-46 46 -110 74 -222 74h-52l-54 -231h151l-18 -78h-151z" />
    <glyph glyph-name="dcroat" unicode="&#x111;" horiz-adv-x="671" 
d="M264 71c105 0 183 113 183 224c0 78 -42 129 -120 129c-102 0 -176 -108 -176 -224c0 -76 40 -129 113 -129zM339 595l18 79h177l22 96h-93l20 79h184l-41 -175h89l-18 -79h-90l-105 -454c-6 -21 -9 -39 -9 -50c0 -22 10 -35 30 -35c21 0 43 18 67 80l43 -16
c-29 -92 -78 -128 -133 -128c-58 0 -94 39 -94 98v7c-42 -59 -102 -106 -177 -106c-101 0 -175 78 -175 200c0 173 120 316 260 316c77 0 137 -53 154 -117l47 205h-176z" />
    <glyph glyph-name="Eacute" unicode="&#xc9;" horiz-adv-x="651" 
d="M427 791l-23 30l158 143c16 15 32 23 51 23c25 0 45 -22 45 -46c0 -25 -16 -44 -40 -56zM7 0l20 84h84l129 556h-95l19 84h531l-45 -187h-89l24 104h-251l-54 -232h228l-19 -81h-227l-57 -245h251l25 103h90l-43 -186h-521z" />
    <glyph glyph-name="eacute" unicode="&#xe9;" horiz-adv-x="570" 
d="M338 582l-24 31l168 150c17 16 34 24 53 24c26 0 48 -22 48 -48s-18 -46 -43 -58zM503 220h-360v-21c0 -79 65 -130 154 -130c54 0 101 12 164 45l-19 -88c-52 -25 -95 -35 -164 -35c-118 0 -227 75 -227 211c0 168 126 305 274 305c119 0 197 -70 197 -184
c0 -32 -6 -66 -19 -103zM324 428c-76 0 -140 -57 -168 -140h271c5 16 7 31 7 46c0 52 -35 94 -110 94z" />
    <glyph glyph-name="Ebreve" unicode="&#x114;" horiz-adv-x="651" 
d="M458 795c-86 0 -141 64 -148 169l57 19c16 -68 48 -105 105 -105c49 0 95 28 142 103l51 -25c-48 -105 -130 -161 -207 -161zM7 0l20 84h84l129 556h-95l19 84h531l-45 -187h-89l24 104h-251l-54 -232h228l-19 -81h-227l-57 -245h251l25 103h90l-43 -186h-521z" />
    <glyph glyph-name="ebreve" unicode="&#x115;" horiz-adv-x="570" 
d="M372 587c-91 0 -149 67 -156 176l59 19c16 -71 51 -109 111 -109c52 0 100 29 149 107l52 -26c-49 -109 -135 -167 -215 -167zM503 220h-360v-21c0 -79 65 -130 154 -130c54 0 101 12 164 45l-19 -88c-52 -25 -95 -35 -164 -35c-118 0 -227 75 -227 211
c0 168 126 305 274 305c119 0 197 -70 197 -184c0 -32 -6 -66 -19 -103zM324 428c-76 0 -140 -57 -168 -140h271c5 16 7 31 7 46c0 52 -35 94 -110 94z" />
    <glyph glyph-name="Ecaron" unicode="&#x11a;" horiz-adv-x="651" 
d="M452 785l-129 176l44 39l102 -103l163 104l35 -46zM7 0l20 84h84l129 556h-95l19 84h531l-45 -187h-89l24 104h-251l-54 -232h228l-19 -81h-227l-57 -245h251l25 103h90l-43 -186h-521z" />
    <glyph glyph-name="ecaron" unicode="&#x11b;" horiz-adv-x="570" 
d="M364 577l-135 184l45 40l108 -108l171 109l36 -48zM503 220h-360v-21c0 -79 65 -130 154 -130c54 0 101 12 164 45l-19 -88c-52 -25 -95 -35 -164 -35c-118 0 -227 75 -227 211c0 168 126 305 274 305c119 0 197 -70 197 -184c0 -32 -6 -66 -19 -103zM324 428
c-76 0 -140 -57 -168 -140h271c5 16 7 31 7 46c0 52 -35 94 -110 94z" />
    <glyph glyph-name="Ecircumflex" unicode="&#xca;" horiz-adv-x="651" 
d="M317 788l-35 47l215 169l129 -176l-44 -38l-103 102zM7 0l20 84h84l129 556h-95l19 84h531l-45 -187h-89l24 104h-251l-54 -232h228l-19 -81h-227l-57 -245h251l25 103h90l-43 -186h-521z" />
    <glyph glyph-name="ecircumflex" unicode="&#xea;" horiz-adv-x="570" 
d="M222 580l-36 48l225 177l135 -184l-45 -40l-108 108zM503 220h-360v-21c0 -79 65 -130 154 -130c54 0 101 12 164 45l-19 -88c-52 -25 -95 -35 -164 -35c-118 0 -227 75 -227 211c0 168 126 305 274 305c119 0 197 -70 197 -184c0 -32 -6 -66 -19 -103zM324 428
c-76 0 -140 -57 -168 -140h271c5 16 7 31 7 46c0 52 -35 94 -110 94z" />
    <glyph glyph-name="Edieresis" unicode="&#xcb;" horiz-adv-x="651" 
d="M370 809c-37 0 -67 30 -67 68c0 37 31 67 68 67s67 -30 67 -67c0 -38 -31 -68 -68 -68zM572 809c-37 0 -67 30 -67 68c0 37 31 67 68 67s66 -30 66 -67c0 -38 -31 -68 -67 -68zM7 0l20 84h84l129 556h-95l19 84h531l-45 -187h-89l24 104h-251l-54 -232h228l-19 -81h-227
l-57 -245h251l25 103h90l-43 -186h-521z" />
    <glyph glyph-name="edieresis" unicode="&#xeb;" horiz-adv-x="570" 
d="M277 601c-38 0 -69 32 -69 71s32 71 70 71c39 0 70 -32 70 -71s-32 -71 -71 -71zM488 601c-38 0 -69 32 -69 71s32 71 70 71c39 0 70 -32 70 -71s-32 -71 -71 -71zM503 220h-360v-21c0 -79 65 -130 154 -130c54 0 101 12 164 45l-19 -88c-52 -25 -95 -35 -164 -35
c-118 0 -227 75 -227 211c0 168 126 305 274 305c119 0 197 -70 197 -184c0 -32 -6 -66 -19 -103zM324 428c-76 0 -140 -57 -168 -140h271c5 16 7 31 7 46c0 52 -35 94 -110 94z" />
    <glyph glyph-name="Edotaccent" unicode="&#x116;" horiz-adv-x="651" 
d="M471 808c-37 0 -68 30 -68 69c0 38 32 68 69 68c38 0 68 -30 68 -68c0 -39 -31 -69 -69 -69zM7 0l20 84h84l129 556h-95l19 84h531l-45 -187h-89l24 104h-251l-54 -232h228l-19 -81h-227l-57 -245h251l25 103h90l-43 -186h-521z" />
    <glyph glyph-name="edotaccent" unicode="&#x117;" horiz-adv-x="570" 
d="M383 600c-39 0 -71 32 -71 72s33 72 72 72c40 0 71 -32 71 -72s-33 -72 -72 -72zM503 220h-360v-21c0 -79 65 -130 154 -130c54 0 101 12 164 45l-19 -88c-52 -25 -95 -35 -164 -35c-118 0 -227 75 -227 211c0 168 126 305 274 305c119 0 197 -70 197 -184
c0 -32 -6 -66 -19 -103zM324 428c-76 0 -140 -57 -168 -140h271c5 16 7 31 7 46c0 52 -35 94 -110 94z" />
    <glyph glyph-name="Egrave" unicode="&#xc8;" horiz-adv-x="651" 
d="M476 782l-128 105c-20 16 -27 33 -27 50c0 28 23 50 48 50s39 -12 55 -38l82 -144zM7 0l20 84h84l129 556h-95l19 84h531l-45 -187h-89l24 104h-251l-54 -232h228l-19 -81h-227l-57 -245h251l25 103h90l-43 -186h-521z" />
    <glyph glyph-name="egrave" unicode="&#xe8;" horiz-adv-x="570" 
d="M390 573l-135 109c-21 18 -29 35 -29 53c0 30 24 53 51 53c25 0 41 -13 57 -40l87 -151zM503 220h-360v-21c0 -79 65 -130 154 -130c54 0 101 12 164 45l-19 -88c-52 -25 -95 -35 -164 -35c-118 0 -227 75 -227 211c0 168 126 305 274 305c119 0 197 -70 197 -184
c0 -32 -6 -66 -19 -103zM324 428c-76 0 -140 -57 -168 -140h271c5 16 7 31 7 46c0 52 -35 94 -110 94z" />
    <glyph glyph-name="Emacron" unicode="&#x112;" horiz-adv-x="651" 
d="M289 825l18 76h340l-17 -76h-341zM7 0l20 84h84l129 556h-95l19 84h531l-45 -187h-89l24 104h-251l-54 -232h228l-19 -81h-227l-57 -245h251l25 103h90l-43 -186h-521z" />
    <glyph glyph-name="emacron" unicode="&#x113;" horiz-adv-x="570" 
d="M193 618l19 80h357l-18 -80h-358zM503 220h-360v-21c0 -79 65 -130 154 -130c54 0 101 12 164 45l-19 -88c-52 -25 -95 -35 -164 -35c-118 0 -227 75 -227 211c0 168 126 305 274 305c119 0 197 -70 197 -184c0 -32 -6 -66 -19 -103zM324 428c-76 0 -140 -57 -168 -140
h271c5 16 7 31 7 46c0 52 -35 94 -110 94z" />
    <glyph glyph-name="Eogonek" unicode="&#x118;" horiz-adv-x="651" 
d="M7 0l20 84h84l129 556h-95l19 84h531l-45 -187h-89l24 104h-251l-54 -232h228l-19 -81h-227l-57 -245h251l25 103h90l-43 -186h-55c-47 -36 -80 -73 -80 -110c0 -24 17 -39 47 -39c23 0 43 5 58 10l-15 -61c-14 -10 -42 -21 -78 -21c-53 0 -93 31 -93 84
c0 50 36 97 88 137h-393z" />
    <glyph glyph-name="eogonek" unicode="&#x119;" horiz-adv-x="570" 
d="M309 -233c-56 0 -98 32 -98 88c0 51 36 99 89 137c-7 -1 -15 -1 -22 -1c-118 0 -227 75 -227 211c0 168 126 305 274 305c119 0 197 -70 197 -184c0 -32 -6 -66 -19 -103h-360v-21c0 -79 65 -130 154 -130c54 0 101 12 164 45l-19 -87c-68 -33 -146 -88 -146 -144
c0 -26 18 -41 49 -41c24 0 45 5 61 10l-15 -63c-16 -11 -44 -22 -82 -22zM324 428c-76 0 -140 -57 -168 -140h271c5 16 7 31 7 46c0 52 -35 94 -110 94z" />
    <glyph glyph-name="Eth" unicode="&#xd0;" horiz-adv-x="787" 
d="M7 0l20 84h84l57 247h-93l18 78h93l54 231h-95l19 84h232c138 0 225 -37 290 -101c50 -51 77 -124 77 -205c0 -115 -39 -209 -114 -283c-91 -92 -219 -135 -376 -135h-266zM205 84h83c128 0 220 36 287 103c61 61 90 140 90 227c0 59 -21 115 -57 152
c-46 46 -110 74 -222 74h-52l-54 -231h151l-18 -78h-151z" />
    <glyph glyph-name="eth" unicode="&#xf0;" horiz-adv-x="620" 
d="M265 -9c-131 0 -216 92 -216 214c0 141 120 277 258 277c91 0 146 -45 170 -115c2 23 4 46 4 73c0 86 -22 161 -53 215l-126 -113l-48 52l131 118c-31 34 -63 53 -96 61c-10 -31 -31 -45 -58 -45c-32 0 -59 25 -59 61c0 30 24 66 83 66c57 0 127 -28 189 -91l103 93
l47 -52l-106 -95c45 -70 74 -171 74 -284c0 -164 -37 -283 -112 -359c-46 -46 -108 -76 -185 -76zM270 70c47 0 90 21 121 52c37 37 60 90 60 144c0 83 -53 136 -132 136c-102 0 -178 -96 -178 -196c0 -83 54 -136 129 -136z" />
    <glyph glyph-name="Gbreve" unicode="&#x11e;" horiz-adv-x="802" 
d="M536 795c-86 0 -141 64 -148 169l57 19c16 -68 48 -105 105 -105c49 0 95 28 142 103l51 -25c-48 -105 -130 -161 -207 -161zM571 0l11 70c-64 -53 -136 -83 -221 -83c-153 0 -278 120 -278 300c0 240 189 450 433 450c98 0 175 -32 218 -74c28 -27 43 -56 43 -91
c0 -48 -35 -78 -70 -78c-37 0 -63 27 -63 61c0 18 8 34 24 48c-3 3 -6 7 -10 10c-24 21 -76 38 -144 38c-192 0 -333 -169 -333 -360c0 -134 85 -219 202 -219c82 0 154 26 207 66l33 141h-196l19 80h290l-85 -359h-80z" />
    <glyph glyph-name="gbreve" unicode="&#x11f;" horiz-adv-x="629" 
d="M402 587c-91 0 -149 67 -156 176l59 19c16 -71 51 -109 111 -109c52 0 100 29 149 107l52 -26c-49 -109 -135 -167 -215 -167zM274 85c105 0 179 106 179 215c0 76 -49 124 -124 124c-101 0 -177 -97 -177 -213c0 -77 50 -126 122 -126zM220 -232c-69 0 -143 28 -173 57
c-21 22 -28 39 -28 62c0 39 26 65 61 65s59 -28 59 -60c0 -10 -3 -22 -8 -30c17 -10 47 -20 87 -20c49 0 84 13 113 43c27 26 44 67 57 123l23 96c-42 -62 -103 -99 -172 -99c-111 0 -184 79 -184 200c0 164 114 302 264 302c88 0 139 -58 156 -117l31 110h87l-119 -512
c-15 -68 -36 -119 -74 -156c-43 -44 -101 -64 -180 -64z" />
    <glyph glyph-name="Gcommaaccent" unicode="&#x122;" horiz-adv-x="802" 
d="M571 0l11 70c-64 -53 -136 -83 -221 -83c-153 0 -278 120 -278 300c0 240 189 450 433 450c98 0 175 -32 218 -74c28 -27 43 -56 43 -91c0 -48 -35 -78 -70 -78c-37 0 -63 27 -63 61c0 18 8 34 24 48c-3 3 -6 7 -10 10c-24 21 -76 38 -144 38c-192 0 -333 -169 -333 -360
c0 -134 85 -219 202 -219c82 0 154 26 207 66l33 141h-196l19 80h290l-85 -359h-80zM210 -314l-16 31c83 43 115 90 118 110c-28 11 -41 38 -41 55c0 35 26 63 61 63s65 -28 65 -71c0 -66 -68 -145 -187 -188z" />
    <glyph glyph-name="gcommaaccent" unicode="&#x123;" horiz-adv-x="629" 
d="M539 871l17 -32c-87 -45 -121 -95 -124 -116c29 -11 43 -40 43 -58c0 -36 -27 -65 -64 -65s-68 29 -68 74c0 68 71 152 196 197zM274 85c105 0 179 106 179 215c0 76 -49 124 -124 124c-101 0 -177 -97 -177 -213c0 -77 50 -126 122 -126zM220 -232
c-69 0 -143 28 -173 57c-21 22 -28 39 -28 62c0 39 26 65 61 65s59 -28 59 -60c0 -10 -3 -22 -8 -30c17 -10 47 -20 87 -20c49 0 84 13 113 43c27 26 44 67 57 123l23 96c-42 -62 -103 -99 -172 -99c-111 0 -184 79 -184 200c0 164 114 302 264 302c88 0 139 -58 156 -117
l31 110h87l-119 -512c-15 -68 -36 -119 -74 -156c-43 -44 -101 -64 -180 -64z" />
    <glyph glyph-name="Gdotaccent" unicode="&#x120;" horiz-adv-x="802" 
d="M549 808c-37 0 -68 30 -68 69c0 38 32 68 69 68c38 0 68 -30 68 -68c0 -39 -31 -69 -69 -69zM571 0l11 70c-64 -53 -136 -83 -221 -83c-153 0 -278 120 -278 300c0 240 189 450 433 450c98 0 175 -32 218 -74c28 -27 43 -56 43 -91c0 -48 -35 -78 -70 -78
c-37 0 -63 27 -63 61c0 18 8 34 24 48c-3 3 -6 7 -10 10c-24 21 -76 38 -144 38c-192 0 -333 -169 -333 -360c0 -134 85 -219 202 -219c82 0 154 26 207 66l33 141h-196l19 80h290l-85 -359h-80z" />
    <glyph glyph-name="gdotaccent" unicode="&#x121;" horiz-adv-x="629" 
d="M414 600c-39 0 -71 32 -71 72s33 72 72 72c40 0 71 -32 71 -72s-33 -72 -72 -72zM274 85c105 0 179 106 179 215c0 76 -49 124 -124 124c-101 0 -177 -97 -177 -213c0 -77 50 -126 122 -126zM220 -232c-69 0 -143 28 -173 57c-21 22 -28 39 -28 62c0 39 26 65 61 65
s59 -28 59 -60c0 -10 -3 -22 -8 -30c17 -10 47 -20 87 -20c49 0 84 13 113 43c27 26 44 67 57 123l23 96c-42 -62 -103 -99 -172 -99c-111 0 -184 79 -184 200c0 164 114 302 264 302c88 0 139 -58 156 -117l31 110h87l-119 -512c-15 -68 -36 -119 -74 -156
c-43 -44 -101 -64 -180 -64z" />
    <glyph glyph-name="Hbar" unicode="&#x126;" horiz-adv-x="852" 
d="M278 399h374l20 89h-374zM854 560l-17 -72h-71l-93 -404h95l-20 -84h-277l20 84h88l54 232h-374l-54 -232h99l-20 -84h-277l20 84h84l93 404h-69l17 72h68l20 83h-95l19 81h277l-19 -81h-88l-19 -83h374l19 83h-99l19 81h277l-19 -81h-84l-20 -83h72z" />
    <glyph glyph-name="hbar" unicode="&#x127;" horiz-adv-x="631" 
d="M36 0l138 595h-91l17 79h93l22 96h-94l20 79h184l-41 -175h177l-18 -79h-178l-46 -198c37 57 95 110 163 110c77 0 138 -54 139 -139c0 -25 -4 -52 -12 -81l-42 -153c-4 -16 -7 -32 -7 -41c0 -24 13 -37 32 -37c22 0 42 18 65 80l44 -16c-26 -86 -70 -128 -131 -128
c-65 0 -103 40 -103 97c0 15 3 36 8 55l43 156c6 20 7 37 7 54c0 44 -32 74 -79 74c-63 0 -130 -57 -155 -166l-61 -262h-94z" />
    <glyph glyph-name="Iacute" unicode="&#xcd;" horiz-adv-x="405" 
d="M308 791l-23 30l158 143c16 15 32 23 51 23c25 0 45 -22 45 -46c0 -25 -16 -44 -40 -56zM10 0l19 84h93l128 556h-98l19 84h286l-20 -84h-93l-128 -556h98l-19 -84h-285z" />
    <glyph glyph-name="iacute" unicode="&#xed;" horiz-adv-x="364" 
d="M219 582l-24 31l168 150c17 16 34 24 53 24c26 0 48 -22 48 -48s-18 -46 -43 -58zM184 -8c-64 0 -102 39 -102 97c0 15 4 37 9 55l73 274h-95l21 79h188l-95 -356c-5 -19 -8 -39 -8 -49c0 -23 13 -36 32 -36c23 0 44 18 68 80l43 -16c-29 -92 -75 -128 -134 -128z" />
    <glyph glyph-name="Ibreve" unicode="&#x12c;" horiz-adv-x="405" 
d="M338 795c-86 0 -141 64 -148 169l57 19c16 -68 48 -105 105 -105c49 0 95 28 142 103l51 -25c-48 -105 -130 -161 -207 -161zM10 0l19 84h93l128 556h-98l19 84h286l-20 -84h-93l-128 -556h98l-19 -84h-285z" />
    <glyph glyph-name="ibreve" unicode="&#x12d;" horiz-adv-x="364" 
d="M253 587c-91 0 -149 67 -156 176l59 19c16 -71 51 -109 111 -109c52 0 100 29 149 107l52 -26c-49 -109 -135 -167 -215 -167zM184 -8c-64 0 -102 39 -102 97c0 15 4 37 9 55l73 274h-95l21 79h188l-95 -356c-5 -19 -8 -39 -8 -49c0 -23 13 -36 32 -36c23 0 44 18 68 80
l43 -16c-29 -92 -75 -128 -134 -128z" />
    <glyph glyph-name="Icircumflex" unicode="&#xce;" horiz-adv-x="405" 
d="M197 788l-35 47l215 169l129 -176l-44 -38l-103 102zM10 0l19 84h93l128 556h-98l19 84h286l-20 -84h-93l-128 -556h98l-19 -84h-285z" />
    <glyph glyph-name="icircumflex" unicode="&#xee;" horiz-adv-x="364" 
d="M102 580l-36 48l225 177l135 -184l-45 -40l-108 108zM184 -8c-64 0 -102 39 -102 97c0 15 4 37 9 55l73 274h-95l21 79h188l-95 -356c-5 -19 -8 -39 -8 -49c0 -23 13 -36 32 -36c23 0 44 18 68 80l43 -16c-29 -92 -75 -128 -134 -128z" />
    <glyph glyph-name="Idieresis" unicode="&#xcf;" horiz-adv-x="405" 
d="M250 809c-37 0 -67 30 -67 68c0 37 31 67 68 67s67 -30 67 -67c0 -38 -31 -68 -68 -68zM452 809c-37 0 -67 30 -67 68c0 37 31 67 68 67s66 -30 66 -67c0 -38 -31 -68 -67 -68zM10 0l19 84h93l128 556h-98l19 84h286l-20 -84h-93l-128 -556h98l-19 -84h-285z" />
    <glyph glyph-name="idieresis" unicode="&#xef;" horiz-adv-x="364" 
d="M158 601c-38 0 -69 32 -69 71s32 71 70 71c39 0 70 -32 70 -71s-32 -71 -71 -71zM369 601c-38 0 -69 32 -69 71s32 71 70 71c39 0 70 -32 70 -71s-32 -71 -71 -71zM184 -8c-64 0 -102 39 -102 97c0 15 4 37 9 55l73 274h-95l21 79h188l-95 -356c-5 -19 -8 -39 -8 -49
c0 -23 13 -36 32 -36c23 0 44 18 68 80l43 -16c-29 -92 -75 -128 -134 -128z" />
    <glyph glyph-name="Idotaccent" unicode="&#x130;" horiz-adv-x="405" 
d="M351 808c-37 0 -68 30 -68 69c0 38 32 68 69 68c38 0 68 -30 68 -68c0 -39 -31 -69 -69 -69zM10 0l19 84h93l128 556h-98l19 84h286l-20 -84h-93l-128 -556h98l-19 -84h-285z" />
    <glyph glyph-name="dotlessi" unicode="&#x131;" horiz-adv-x="364" 
d="M184 -8c-64 0 -102 39 -102 97c0 15 4 37 9 55l73 274h-95l21 79h188l-95 -356c-5 -19 -8 -39 -8 -49c0 -23 13 -36 32 -36c23 0 44 18 68 80l43 -16c-29 -92 -75 -128 -134 -128z" />
    <glyph glyph-name="Igrave" unicode="&#xcc;" horiz-adv-x="405" 
d="M356 782l-128 105c-20 16 -27 33 -27 50c0 28 23 50 48 50s39 -12 55 -38l82 -144zM10 0l19 84h93l128 556h-98l19 84h286l-20 -84h-93l-128 -556h98l-19 -84h-285z" />
    <glyph glyph-name="igrave" unicode="&#xec;" horiz-adv-x="364" 
d="M271 573l-135 109c-21 18 -29 35 -29 53c0 30 24 53 51 53c25 0 41 -13 57 -40l87 -151zM184 -8c-64 0 -102 39 -102 97c0 15 4 37 9 55l73 274h-95l21 79h188l-95 -356c-5 -19 -8 -39 -8 -49c0 -23 13 -36 32 -36c23 0 44 18 68 80l43 -16c-29 -92 -75 -128 -134 -128z
" />
    <glyph glyph-name="Imacron" unicode="&#x12a;" horiz-adv-x="405" 
d="M169 825l18 76h340l-17 -76h-341zM10 0l19 84h93l128 556h-98l19 84h286l-20 -84h-93l-128 -556h98l-19 -84h-285z" />
    <glyph glyph-name="imacron" unicode="&#x12b;" horiz-adv-x="364" 
d="M74 618l19 80h357l-18 -80h-358zM184 -8c-64 0 -102 39 -102 97c0 15 4 37 9 55l73 274h-95l21 79h188l-95 -356c-5 -19 -8 -39 -8 -49c0 -23 13 -36 32 -36c23 0 44 18 68 80l43 -16c-29 -92 -75 -128 -134 -128z" />
    <glyph glyph-name="Iogonek" unicode="&#x12e;" horiz-adv-x="405" 
d="M10 0l19 84h93l128 556h-98l19 84h286l-20 -84h-93l-128 -556h98l-19 -84h-109c-47 -36 -80 -73 -80 -110c0 -24 17 -39 47 -39c23 0 43 5 58 10l-15 -61c-14 -10 -42 -21 -78 -21c-53 0 -93 31 -93 84c0 50 36 97 88 137h-103z" />
    <glyph glyph-name="iogonek" unicode="&#x12f;" horiz-adv-x="364" 
d="M246 587c-35 0 -64 28 -64 64c0 35 29 63 64 63c34 0 63 -28 63 -63c0 -36 -29 -64 -63 -64zM275 136l43 -16c-14 -46 -32 -74 -60 -100c-46 -46 -111 -81 -111 -137c0 -26 18 -41 50 -41c23 0 45 5 60 10l-14 -63c-16 -11 -44 -22 -82 -22c-57 0 -98 32 -98 88
s39 103 92 140c-46 10 -73 45 -73 94c0 15 4 37 9 55l73 274h-95l21 79h188l-95 -356c-5 -19 -8 -39 -8 -49c0 -23 12 -35 32 -35c23 0 44 17 68 79z" />
    <glyph glyph-name="Kcommaaccent" unicode="&#x136;" horiz-adv-x="741" 
d="M713 640l-280 -236l152 -320h100l-20 -84h-148l-157 348l-117 -99l-38 -165h98l-20 -84h-276l20 84h84l129 556h-95l19 84h270l-19 -82h-81l-67 -289l329 289h-86l18 82h280l-18 -84h-77zM177 -314l-16 31c83 43 115 90 118 110c-28 11 -41 38 -41 55c0 35 26 63 61 63
s65 -28 65 -71c0 -66 -68 -145 -187 -188z" />
    <glyph glyph-name="kcommaaccent" unicode="&#x137;" horiz-adv-x="570" 
d="M130 0h-94l179 770h-94l20 79h184l-138 -592c141 54 213 102 233 134c-19 12 -30 32 -30 52c0 35 28 64 64 64c35 0 65 -28 65 -71c0 -73 -80 -142 -200 -199l50 -119c11 -25 18 -40 27 -50c8 -9 15 -11 24 -11c18 0 35 19 54 92l45 -14c-26 -116 -69 -143 -119 -143
c-23 0 -45 6 -64 23c-17 13 -31 34 -43 64l-55 132l-64 -26zM60 -330l-17 32c87 45 121 95 124 116c-29 11 -43 40 -43 58c0 36 27 65 64 65s68 -29 68 -74c0 -68 -71 -152 -196 -197z" />
    <glyph glyph-name="Lacute" unicode="&#x139;" horiz-adv-x="616" 
d="M308 800l-23 30l158 143c16 15 32 23 51 23c25 0 45 -22 45 -46c0 -25 -16 -44 -40 -56zM7 0l20 84h84l129 556h-95l19 84h284l-20 -84h-94l-129 -557h231l26 108h91l-45 -191h-501z" />
    <glyph glyph-name="lacute" unicode="&#x13a;" horiz-adv-x="345" 
d="M285 898l-24 31l168 150c17 16 34 24 53 24c26 0 48 -22 48 -48s-18 -46 -43 -58zM166 -8c-64 0 -101 39 -101 98c0 15 4 33 8 52l146 628h-93l20 79h184l-164 -707c-4 -19 -8 -38 -8 -49c0 -24 12 -37 31 -37c24 0 44 18 68 80l43 -16c-28 -92 -74 -128 -134 -128z" />
    <glyph glyph-name="Lcaron" unicode="&#x13d;" horiz-adv-x="616" 
d="M461 446l-24 23c41 47 56 79 65 113c7 32 2 62 11 96c6 27 24 46 54 46c31 0 50 -21 50 -53c0 -41 -20 -77 -50 -117c-31 -42 -71 -77 -106 -108zM7 0l20 84h84l129 556h-95l19 84h284l-20 -84h-94l-129 -557h231l26 108h91l-45 -191h-501z" />
    <glyph glyph-name="lcaron" unicode="&#x13e;" horiz-adv-x="345" 
d="M339 578l-26 24c44 49 60 82 69 119c8 33 2 64 11 99c7 28 25 48 57 48s52 -21 52 -54c0 -42 -21 -80 -52 -123c-33 -44 -74 -80 -111 -113zM166 -8c-64 0 -101 39 -101 98c0 15 4 33 8 52l146 628h-93l20 79h184l-164 -707c-4 -19 -8 -38 -8 -49c0 -24 12 -37 31 -37
c24 0 44 18 68 80l43 -16c-28 -92 -74 -128 -134 -128z" />
    <glyph glyph-name="Lcommaaccent" unicode="&#x13b;" horiz-adv-x="616" 
d="M7 0l20 84h84l129 556h-95l19 84h284l-20 -84h-94l-129 -557h231l26 108h91l-45 -191h-501zM107 -314l-16 31c83 43 115 90 118 110c-28 11 -41 38 -41 55c0 35 26 63 61 63s65 -28 65 -71c0 -66 -68 -145 -187 -188z" />
    <glyph glyph-name="lcommaaccent" unicode="&#x13c;" horiz-adv-x="345" 
d="M166 -8c-64 0 -101 39 -101 98c0 15 4 33 8 52l146 628h-93l20 79h184l-164 -707c-4 -19 -8 -38 -8 -49c0 -24 12 -37 31 -37c24 0 44 18 68 80l43 -16c-28 -92 -74 -128 -134 -128zM-7 -330l-17 32c87 45 121 95 124 116c-29 11 -43 40 -43 58c0 36 27 65 64 65
s68 -29 68 -74c0 -68 -71 -152 -196 -197z" />
    <glyph glyph-name="Ldot" unicode="&#x13f;" horiz-adv-x="616" 
d="M7 0l20 84h84l129 556h-95l19 84h284l-20 -84h-94l-129 -557h231l26 108h91l-45 -191h-501zM536 327c-37 0 -68 30 -68 69c0 38 32 68 69 68c38 0 68 -30 68 -68c0 -39 -31 -69 -69 -69z" />
    <glyph glyph-name="ldot" unicode="&#x140;" horiz-adv-x="401" 
d="M166 -8c-64 0 -101 39 -101 98c0 15 4 33 8 52l146 628h-93l20 79h184l-164 -707c-4 -19 -8 -38 -8 -49c0 -24 12 -37 31 -37c24 0 44 18 68 80l43 -16c-28 -92 -74 -128 -134 -128zM373 322c-39 0 -71 32 -71 72s33 72 72 72c40 0 71 -32 71 -72s-33 -72 -72 -72z" />
    <glyph glyph-name="Lslash" unicode="&#x141;" horiz-adv-x="633" 
d="M24 0l20 84h84l49 212l-102 -43l-27 64l149 64l60 259h-95l19 84h284l-20 -84h-94l-50 -218l136 59l28 -65l-184 -79l-59 -254h231l26 108h91l-45 -191h-501z" />
    <glyph glyph-name="lslash" unicode="&#x142;" horiz-adv-x="389" 
d="M187 -8c-64 0 -101 39 -101 98c0 15 4 33 8 52l62 268l-98 -42l-28 65l146 64l64 273h-93l20 79h184l-72 -309l120 54l29 -65l-169 -75l-72 -312c-4 -19 -8 -38 -8 -49c0 -24 12 -37 31 -37c24 0 44 18 68 80l43 -16c-28 -92 -74 -128 -134 -128z" />
    <glyph glyph-name="Nacute" unicode="&#x143;" horiz-adv-x="835" 
d="M525 791l-23 30l158 143c16 15 32 23 51 23c25 0 45 -22 45 -46c0 -25 -16 -44 -40 -56zM602 -3l-288 568l-111 -481h99l-20 -84h-275l20 84h84l129 556h-95l19 84h173l267 -526l102 442h-99l19 84h273l-19 -84h-83l-149 -643h-46z" />
    <glyph glyph-name="nacute" unicode="&#x144;" horiz-adv-x="653" 
d="M377 582l-24 31l168 150c17 16 34 24 53 24c26 0 48 -22 48 -48s-18 -46 -43 -58zM489 -8c-65 0 -102 40 -102 97c0 15 3 37 8 55l45 156c5 20 8 37 8 54c0 44 -30 74 -77 74c-64 0 -129 -57 -156 -165l-65 -263h-94l105 418h-93l21 79h173l-28 -117
c41 71 106 127 175 127c77 0 135 -54 135 -139c0 -25 -5 -52 -14 -81l-43 -152c-4 -15 -7 -33 -7 -42c0 -24 12 -37 31 -37c22 0 43 18 66 80l44 -16c-27 -86 -71 -128 -132 -128z" />
    <glyph glyph-name="Ncaron" unicode="&#x147;" horiz-adv-x="835" 
d="M550 785l-129 176l44 39l102 -103l163 104l35 -46zM602 -3l-288 568l-111 -481h99l-20 -84h-275l20 84h84l129 556h-95l19 84h173l267 -526l102 442h-99l19 84h273l-19 -84h-83l-149 -643h-46z" />
    <glyph glyph-name="ncaron" unicode="&#x148;" horiz-adv-x="653" 
d="M404 577l-135 184l45 40l108 -108l171 109l36 -48zM489 -8c-65 0 -102 40 -102 97c0 15 3 37 8 55l45 156c5 20 8 37 8 54c0 44 -30 74 -77 74c-64 0 -129 -57 -156 -165l-65 -263h-94l105 418h-93l21 79h173l-28 -117c41 71 106 127 175 127c77 0 135 -54 135 -139
c0 -25 -5 -52 -14 -81l-43 -152c-4 -15 -7 -33 -7 -42c0 -24 12 -37 31 -37c22 0 43 18 66 80l44 -16c-27 -86 -71 -128 -132 -128z" />
    <glyph glyph-name="Ncommaaccent" unicode="&#x145;" horiz-adv-x="835" 
d="M602 -3l-288 568l-111 -481h99l-20 -84h-275l20 84h84l129 556h-95l19 84h173l267 -526l102 442h-99l19 84h273l-19 -84h-83l-149 -643h-46zM225 -314l-16 31c83 43 115 90 118 110c-28 11 -41 38 -41 55c0 35 26 63 61 63s65 -28 65 -71c0 -66 -68 -145 -187 -188z" />
    <glyph glyph-name="ncommaaccent" unicode="&#x146;" horiz-adv-x="653" 
d="M489 -8c-65 0 -102 40 -102 97c0 15 3 37 8 55l45 156c5 20 8 37 8 54c0 44 -30 74 -77 74c-64 0 -129 -57 -156 -165l-65 -263h-94l105 418h-93l21 79h173l-28 -117c41 71 106 127 175 127c77 0 135 -54 135 -139c0 -25 -5 -52 -14 -81l-43 -152c-4 -15 -7 -33 -7 -42
c0 -24 12 -37 31 -37c22 0 43 18 66 80l44 -16c-27 -86 -71 -128 -132 -128zM115 -330l-17 32c87 45 121 95 124 116c-29 11 -43 40 -43 58c0 36 27 65 64 65s68 -29 68 -74c0 -68 -71 -152 -196 -197z" />
    <glyph glyph-name="Ntilde" unicode="&#xd1;" horiz-adv-x="835" 
d="M635 791c-43 0 -69 22 -92 45s-37 33 -55 33c-28 0 -49 -19 -71 -71l-55 20c22 85 79 139 131 139c43 0 69 -22 92 -45c23 -22 36 -32 55 -32c28 0 49 19 71 71l54 -21c-21 -84 -78 -139 -130 -139zM602 -3l-288 568l-111 -481h99l-20 -84h-275l20 84h84l129 556h-95
l19 84h173l267 -526l102 442h-99l19 84h273l-19 -84h-83l-149 -643h-46z" />
    <glyph glyph-name="ntilde" unicode="&#xf1;" horiz-adv-x="653" 
d="M493 582c-44 0 -72 24 -96 48s-38 34 -58 34c-29 0 -51 -20 -75 -75l-56 22c22 87 82 145 137 145c44 0 72 -24 96 -48s38 -34 58 -34c29 0 51 21 75 75l56 -21c-22 -88 -82 -146 -137 -146zM489 -8c-65 0 -102 40 -102 97c0 15 3 37 8 55l45 156c5 20 8 37 8 54
c0 44 -30 74 -77 74c-64 0 -129 -57 -156 -165l-65 -263h-94l105 418h-93l21 79h173l-28 -117c41 71 106 127 175 127c77 0 135 -54 135 -139c0 -25 -5 -52 -14 -81l-43 -152c-4 -15 -7 -33 -7 -42c0 -24 12 -37 31 -37c22 0 43 18 66 80l44 -16c-27 -86 -71 -128 -132 -128
z" />
    <glyph glyph-name="Oacute" unicode="&#xd3;" horiz-adv-x="819" 
d="M513 791l-23 30l158 143c16 15 32 23 51 23c25 0 45 -22 45 -46c0 -25 -16 -44 -40 -56zM392 -13c-195 0 -309 135 -309 315c0 212 170 435 402 435c195 0 309 -135 309 -315c0 -213 -170 -435 -402 -435zM400 73c169 0 296 176 296 348c0 126 -72 230 -219 230
c-169 0 -296 -176 -296 -348c0 -127 72 -230 219 -230z" />
    <glyph glyph-name="oacute" unicode="&#xf3;" horiz-adv-x="607" 
d="M355 582l-24 31l168 150c17 16 34 24 53 24c26 0 48 -22 48 -48s-18 -46 -43 -58zM273 -9c-140 0 -221 101 -221 219c0 153 120 297 282 297c141 0 221 -102 221 -220c0 -153 -119 -296 -282 -296zM277 70c103 0 184 98 184 218c0 88 -57 139 -131 139
c-102 0 -184 -98 -184 -218c0 -87 58 -139 131 -139z" />
    <glyph glyph-name="Obreve" unicode="&#x14e;" horiz-adv-x="819" 
d="M543 795c-86 0 -141 64 -148 169l57 19c16 -68 48 -105 105 -105c49 0 95 28 142 103l51 -25c-48 -105 -130 -161 -207 -161zM392 -13c-195 0 -309 135 -309 315c0 212 170 435 402 435c195 0 309 -135 309 -315c0 -213 -170 -435 -402 -435zM400 73
c169 0 296 176 296 348c0 126 -72 230 -219 230c-169 0 -296 -176 -296 -348c0 -127 72 -230 219 -230z" />
    <glyph glyph-name="obreve" unicode="&#x14f;" horiz-adv-x="607" 
d="M389 587c-91 0 -149 67 -156 176l59 19c16 -71 51 -109 111 -109c52 0 100 29 149 107l52 -26c-49 -109 -135 -167 -215 -167zM273 -9c-140 0 -221 101 -221 219c0 153 120 297 282 297c141 0 221 -102 221 -220c0 -153 -119 -296 -282 -296zM277 70
c103 0 184 98 184 218c0 88 -57 139 -131 139c-102 0 -184 -98 -184 -218c0 -87 58 -139 131 -139z" />
    <glyph glyph-name="Ocircumflex" unicode="&#xd4;" horiz-adv-x="819" 
d="M402 788l-35 47l215 169l129 -176l-44 -38l-103 102zM392 -13c-195 0 -309 135 -309 315c0 212 170 435 402 435c195 0 309 -135 309 -315c0 -213 -170 -435 -402 -435zM400 73c169 0 296 176 296 348c0 126 -72 230 -219 230c-169 0 -296 -176 -296 -348
c0 -127 72 -230 219 -230z" />
    <glyph glyph-name="ocircumflex" unicode="&#xf4;" horiz-adv-x="607" 
d="M239 580l-36 48l225 177l135 -184l-45 -40l-108 108zM273 -9c-140 0 -221 101 -221 219c0 153 120 297 282 297c141 0 221 -102 221 -220c0 -153 -119 -296 -282 -296zM277 70c103 0 184 98 184 218c0 88 -57 139 -131 139c-102 0 -184 -98 -184 -218
c0 -87 58 -139 131 -139z" />
    <glyph glyph-name="Odieresis" unicode="&#xd6;" horiz-adv-x="819" 
d="M455 809c-37 0 -67 30 -67 68c0 37 31 67 68 67s67 -30 67 -67c0 -38 -31 -68 -68 -68zM657 809c-37 0 -67 30 -67 68c0 37 31 67 68 67s66 -30 66 -67c0 -38 -31 -68 -67 -68zM392 -13c-195 0 -309 135 -309 315c0 212 170 435 402 435c195 0 309 -135 309 -315
c0 -213 -170 -435 -402 -435zM400 73c169 0 296 176 296 348c0 126 -72 230 -219 230c-169 0 -296 -176 -296 -348c0 -127 72 -230 219 -230z" />
    <glyph glyph-name="odieresis" unicode="&#xf6;" horiz-adv-x="607" 
d="M294 601c-38 0 -69 32 -69 71s32 71 70 71c39 0 70 -32 70 -71s-32 -71 -71 -71zM505 601c-38 0 -69 32 -69 71s32 71 70 71c39 0 70 -32 70 -71s-32 -71 -71 -71zM273 -9c-140 0 -221 101 -221 219c0 153 120 297 282 297c141 0 221 -102 221 -220
c0 -153 -119 -296 -282 -296zM277 70c103 0 184 98 184 218c0 88 -57 139 -131 139c-102 0 -184 -98 -184 -218c0 -87 58 -139 131 -139z" />
    <glyph glyph-name="OE" unicode="&#x152;" horiz-adv-x="1037" 
d="M448 0c-138 0 -225 37 -290 101c-50 50 -77 124 -77 204c0 116 39 209 114 284c91 91 218 135 376 135h510l-45 -187h-90l25 104h-251l-54 -232h227l-18 -81h-227l-57 -245h251l25 103h90l-43 -186h-466zM458 84h38l129 556h-69c-128 0 -220 -36 -287 -103
c-61 -61 -90 -141 -90 -227c0 -59 21 -115 57 -152c46 -46 110 -74 222 -74z" />
    <glyph glyph-name="oe" unicode="&#x153;" horiz-adv-x="971" 
d="M864 114l-19 -88c-52 -25 -95 -35 -159 -35c-95 0 -168 49 -197 125c-47 -72 -120 -125 -217 -125c-140 0 -220 101 -220 219c0 153 119 297 278 297c104 0 165 -55 191 -130c44 77 116 130 212 130c114 0 192 -70 192 -184c0 -32 -7 -66 -20 -103h-360v-21
c0 -79 66 -130 155 -130c54 0 100 12 164 45zM726 428c-75 0 -140 -57 -167 -140h271c4 16 7 31 7 46c0 52 -35 94 -111 94zM278 70c104 0 185 98 185 218c0 88 -58 139 -132 139c-103 0 -185 -98 -185 -218c0 -87 58 -139 132 -139z" />
    <glyph glyph-name="Ograve" unicode="&#xd2;" horiz-adv-x="819" 
d="M561 782l-128 105c-20 16 -27 33 -27 50c0 28 23 50 48 50s39 -12 55 -38l82 -144zM392 -13c-195 0 -309 135 -309 315c0 212 170 435 402 435c195 0 309 -135 309 -315c0 -213 -170 -435 -402 -435zM400 73c169 0 296 176 296 348c0 126 -72 230 -219 230
c-169 0 -296 -176 -296 -348c0 -127 72 -230 219 -230z" />
    <glyph glyph-name="ograve" unicode="&#xf2;" horiz-adv-x="607" 
d="M407 573l-135 109c-21 18 -29 35 -29 53c0 30 24 53 51 53c25 0 41 -13 57 -40l87 -151zM273 -9c-140 0 -221 101 -221 219c0 153 120 297 282 297c141 0 221 -102 221 -220c0 -153 -119 -296 -282 -296zM277 70c103 0 184 98 184 218c0 88 -57 139 -131 139
c-102 0 -184 -98 -184 -218c0 -87 58 -139 131 -139z" />
    <glyph glyph-name="Ohungarumlaut" unicode="&#x150;" horiz-adv-x="819" 
d="M413 792l-24 30l137 140c15 16 32 26 50 26c25 0 46 -19 46 -47c0 -19 -16 -40 -39 -54zM627 794l-23 31l141 135c16 16 33 25 51 25c26 0 44 -21 44 -47c0 -21 -15 -41 -40 -54zM392 -13c-195 0 -309 135 -309 315c0 212 170 435 402 435c195 0 309 -135 309 -315
c0 -213 -170 -435 -402 -435zM400 73c169 0 296 176 296 348c0 126 -72 230 -219 230c-169 0 -296 -176 -296 -348c0 -127 72 -230 219 -230z" />
    <glyph glyph-name="ohungarumlaut" unicode="&#x151;" horiz-adv-x="607" 
d="M250 583l-24 32l144 146c16 17 34 27 53 27c26 0 47 -20 47 -49c0 -20 -16 -41 -41 -56zM475 586l-23 32l149 142c17 16 35 25 53 25c27 0 46 -22 46 -49c0 -21 -15 -43 -43 -57zM273 -9c-140 0 -221 101 -221 219c0 153 120 297 282 297c141 0 221 -102 221 -220
c0 -153 -119 -296 -282 -296zM277 70c103 0 184 98 184 218c0 88 -57 139 -131 139c-102 0 -184 -98 -184 -218c0 -87 58 -139 131 -139z" />
    <glyph glyph-name="Omacron" unicode="&#x14c;" horiz-adv-x="819" 
d="M374 825l18 76h340l-17 -76h-341zM392 -13c-195 0 -309 135 -309 315c0 212 170 435 402 435c195 0 309 -135 309 -315c0 -213 -170 -435 -402 -435zM400 73c169 0 296 176 296 348c0 126 -72 230 -219 230c-169 0 -296 -176 -296 -348c0 -127 72 -230 219 -230z" />
    <glyph glyph-name="omacron" unicode="&#x14d;" horiz-adv-x="607" 
d="M210 618l19 80h357l-18 -80h-358zM273 -9c-140 0 -221 101 -221 219c0 153 120 297 282 297c141 0 221 -102 221 -220c0 -153 -119 -296 -282 -296zM277 70c103 0 184 98 184 218c0 88 -57 139 -131 139c-102 0 -184 -98 -184 -218c0 -87 58 -139 131 -139z" />
    <glyph glyph-name="Oslash" unicode="&#xd8;" horiz-adv-x="819" 
d="M396 -13c-95 0 -171 33 -224 87l-100 -87l-49 58l103 91c-26 48 -40 105 -40 168c0 210 168 433 400 433c97 0 174 -34 227 -90l103 91l51 -58l-109 -96c25 -48 38 -103 38 -164c0 -212 -168 -433 -400 -433zM183 303c0 -39 7 -76 20 -108l441 389c-36 42 -91 68 -164 68
c-170 0 -297 -177 -297 -349zM403 72c170 0 296 176 296 349c0 37 -7 72 -19 104l-440 -388c36 -40 91 -65 163 -65z" />
    <glyph glyph-name="oslash" unicode="&#xf8;" horiz-adv-x="621" 
d="M155 210c0 -23 3 -43 10 -61l268 243c-23 23 -55 35 -93 35c-102 0 -185 -95 -185 -217zM287 70c102 0 185 96 185 217c0 19 -2 37 -7 52l-266 -240c23 -19 53 -29 88 -29zM284 -9c-61 0 -111 19 -148 50l-76 -70l-47 53l79 70c-20 34 -31 74 -31 117
c0 153 118 296 282 296c63 0 115 -21 153 -55l79 73l48 -51l-84 -77c17 -33 27 -71 27 -110c0 -155 -120 -296 -282 -296z" />
    <glyph glyph-name="Oslashacute" unicode="&#x1fe;" horiz-adv-x="819" 
d="M520 791l-23 30l158 143c16 15 32 23 51 23c25 0 45 -22 45 -46c0 -25 -16 -44 -40 -56zM396 -13c-95 0 -171 33 -224 87l-100 -87l-49 58l103 91c-26 48 -40 105 -40 168c0 210 168 433 400 433c97 0 174 -34 227 -90l103 91l51 -58l-109 -96c25 -48 38 -103 38 -164
c0 -212 -168 -433 -400 -433zM183 303c0 -39 7 -76 20 -108l441 389c-36 42 -91 68 -164 68c-170 0 -297 -177 -297 -349zM403 72c170 0 296 176 296 349c0 37 -7 72 -19 104l-440 -388c36 -40 91 -65 163 -65z" />
    <glyph glyph-name="oslashacute" unicode="&#x1ff;" horiz-adv-x="627" 
d="M369 582l-24 31l168 150c17 16 34 24 53 24c26 0 48 -22 48 -48s-18 -46 -43 -58zM155 210c0 -23 3 -43 10 -61l268 243c-23 23 -55 35 -93 35c-102 0 -185 -95 -185 -217zM287 70c102 0 185 96 185 217c0 19 -2 37 -7 52l-266 -240c23 -19 53 -29 88 -29zM284 -9
c-61 0 -111 19 -148 50l-76 -70l-47 53l79 70c-20 34 -31 74 -31 117c0 153 118 296 282 296c63 0 115 -21 153 -55l79 73l48 -51l-84 -77c17 -33 27 -71 27 -110c0 -155 -120 -296 -282 -296z" />
    <glyph glyph-name="Otilde" unicode="&#xd5;" horiz-adv-x="819" 
d="M623 791c-43 0 -69 22 -92 45s-37 33 -55 33c-28 0 -49 -19 -71 -71l-55 20c22 85 79 139 131 139c43 0 69 -22 92 -45c23 -22 36 -32 55 -32c28 0 49 19 71 71l54 -21c-21 -84 -78 -139 -130 -139zM392 -13c-195 0 -309 135 -309 315c0 212 170 435 402 435
c195 0 309 -135 309 -315c0 -213 -170 -435 -402 -435zM400 73c169 0 296 176 296 348c0 126 -72 230 -219 230c-169 0 -296 -176 -296 -348c0 -127 72 -230 219 -230z" />
    <glyph glyph-name="otilde" unicode="&#xf5;" horiz-adv-x="607" 
d="M470 582c-44 0 -72 24 -96 48s-38 34 -58 34c-29 0 -51 -20 -75 -75l-56 22c22 87 82 145 137 145c44 0 72 -24 96 -48s38 -34 58 -34c29 0 51 21 75 75l56 -21c-22 -88 -82 -146 -137 -146zM273 -9c-140 0 -221 101 -221 219c0 153 120 297 282 297
c141 0 221 -102 221 -220c0 -153 -119 -296 -282 -296zM277 70c103 0 184 98 184 218c0 88 -57 139 -131 139c-102 0 -184 -98 -184 -218c0 -87 58 -139 131 -139z" />
    <glyph glyph-name="Racute" unicode="&#x154;" horiz-adv-x="678" 
d="M426 791l-23 30l158 143c16 15 32 23 51 23c25 0 45 -22 45 -46c0 -25 -16 -44 -40 -56zM360 368c124 0 199 64 199 153c0 32 -11 58 -31 79c-27 27 -75 40 -140 40h-55l-62 -269c26 -2 51 -3 89 -3zM7 0l20 84h84l129 556h-95l19 84h226c98 0 169 -22 213 -67
c34 -33 51 -77 51 -130c0 -110 -75 -197 -202 -228l101 -215h85l-19 -84h-133l-125 288c-10 -1 -20 -1 -30 -1c-26 0 -53 1 -77 3l-49 -206h96l-19 -84h-275z" />
    <glyph glyph-name="racute" unicode="&#x155;" horiz-adv-x="470" 
d="M308 582l-24 31l168 150c17 16 34 24 53 24c26 0 48 -22 48 -48s-18 -46 -43 -58zM56 0l105 418h-93l21 79h173l-32 -138c62 96 120 148 171 148c41 0 72 -28 72 -67c0 -38 -31 -68 -67 -68c-32 0 -57 22 -63 49c-37 -17 -111 -89 -138 -199l-55 -222h-94z" />
    <glyph glyph-name="Rcaron" unicode="&#x158;" horiz-adv-x="678" 
d="M451 785l-129 176l44 39l102 -103l163 104l35 -46zM360 368c124 0 199 64 199 153c0 32 -11 58 -31 79c-27 27 -75 40 -140 40h-55l-62 -269c26 -2 51 -3 89 -3zM7 0l20 84h84l129 556h-95l19 84h226c98 0 169 -22 213 -67c34 -33 51 -77 51 -130
c0 -110 -75 -197 -202 -228l101 -215h85l-19 -84h-133l-125 288c-10 -1 -20 -1 -30 -1c-26 0 -53 1 -77 3l-49 -206h96l-19 -84h-275z" />
    <glyph glyph-name="rcaron" unicode="&#x159;" horiz-adv-x="470" 
d="M335 577l-135 184l45 40l108 -108l171 109l36 -48zM56 0l105 418h-93l21 79h173l-32 -138c62 96 120 148 171 148c41 0 72 -28 72 -67c0 -38 -31 -68 -67 -68c-32 0 -57 22 -63 49c-37 -17 -111 -89 -138 -199l-55 -222h-94z" />
    <glyph glyph-name="Rcommaaccent" unicode="&#x156;" horiz-adv-x="678" 
d="M360 368c124 0 199 64 199 153c0 32 -11 58 -31 79c-27 27 -75 40 -140 40h-55l-62 -269c26 -2 51 -3 89 -3zM7 0l20 84h84l129 556h-95l19 84h226c98 0 169 -22 213 -67c34 -33 51 -77 51 -130c0 -110 -75 -197 -202 -228l101 -215h85l-19 -84h-133l-125 288
c-10 -1 -20 -1 -30 -1c-26 0 -53 1 -77 3l-49 -206h96l-19 -84h-275zM158 -314l-16 31c83 43 115 90 118 110c-28 11 -41 38 -41 55c0 35 26 63 61 63s65 -28 65 -71c0 -66 -68 -145 -187 -188z" />
    <glyph glyph-name="rcommaaccent" unicode="&#x157;" horiz-adv-x="470" 
d="M56 0l105 418h-93l21 79h173l-32 -138c62 96 120 148 171 148c41 0 72 -28 72 -67c0 -38 -31 -68 -67 -68c-32 0 -57 22 -63 49c-37 -17 -111 -89 -138 -199l-55 -222h-94zM-47 -330l-17 32c87 45 121 95 124 116c-29 11 -43 40 -43 58c0 36 27 65 64 65s68 -29 68 -74
c0 -68 -71 -152 -196 -197z" />
    <glyph glyph-name="Sacute" unicode="&#x15a;" horiz-adv-x="626" 
d="M426 791l-23 30l158 143c16 15 32 23 51 23c25 0 45 -22 45 -46c0 -25 -16 -44 -40 -56zM302 -13c-145 0 -254 86 -254 169c0 50 31 82 71 82c35 0 62 -29 62 -60c0 -22 -10 -41 -29 -55c23 -29 78 -54 156 -54c81 0 148 44 148 116c0 59 -49 95 -124 138
c-89 51 -172 108 -172 216c0 104 96 198 243 198c132 0 227 -77 227 -151c0 -48 -30 -81 -69 -81c-35 0 -62 27 -62 61c0 17 8 35 26 50c-16 18 -60 39 -123 39c-88 0 -143 -49 -143 -108c0 -63 53 -100 132 -146c84 -48 163 -107 163 -208c0 -117 -100 -206 -252 -206z" />
    <glyph glyph-name="sacute" unicode="&#x15b;" horiz-adv-x="511" 
d="M315 582l-24 31l168 150c17 16 34 24 53 24c26 0 48 -22 48 -48s-18 -46 -43 -58zM242 -9c-74 0 -141 26 -179 64c-19 19 -30 41 -30 64c0 35 25 62 58 62c31 0 52 -24 52 -52c0 -13 -4 -25 -13 -34c5 -5 12 -9 20 -14c23 -12 58 -20 95 -20c53 0 98 23 98 64
c0 44 -50 65 -104 90c-71 33 -138 67 -138 145c0 80 69 147 189 147c66 0 123 -22 156 -55c18 -18 28 -40 28 -63c0 -38 -26 -62 -56 -62s-54 23 -54 53c0 11 3 20 11 34c-3 3 -8 6 -18 10c-17 7 -42 13 -69 13c-54 0 -95 -24 -95 -61c0 -39 49 -61 107 -89
c69 -32 135 -69 135 -146c0 -97 -81 -150 -193 -150z" />
    <glyph glyph-name="Scaron" unicode="&#x160;" horiz-adv-x="626" 
d="M451 785l-129 176l44 39l102 -103l163 104l35 -46zM302 -13c-145 0 -254 86 -254 169c0 50 31 82 71 82c35 0 62 -29 62 -60c0 -22 -10 -41 -29 -55c23 -29 78 -54 156 -54c81 0 148 44 148 116c0 59 -49 95 -124 138c-89 51 -172 108 -172 216c0 104 96 198 243 198
c132 0 227 -77 227 -151c0 -48 -30 -81 -69 -81c-35 0 -62 27 -62 61c0 17 8 35 26 50c-16 18 -60 39 -123 39c-88 0 -143 -49 -143 -108c0 -63 53 -100 132 -146c84 -48 163 -107 163 -208c0 -117 -100 -206 -252 -206z" />
    <glyph glyph-name="scaron" unicode="&#x161;" horiz-adv-x="511" 
d="M342 577l-135 184l45 40l108 -108l171 109l36 -48zM242 -9c-74 0 -141 26 -179 64c-19 19 -30 41 -30 64c0 35 25 62 58 62c31 0 52 -24 52 -52c0 -13 -4 -25 -13 -34c5 -5 12 -9 20 -14c23 -12 58 -20 95 -20c53 0 98 23 98 64c0 44 -50 65 -104 90
c-71 33 -138 67 -138 145c0 80 69 147 189 147c66 0 123 -22 156 -55c18 -18 28 -40 28 -63c0 -38 -26 -62 -56 -62s-54 23 -54 53c0 11 3 20 11 34c-3 3 -8 6 -18 10c-17 7 -42 13 -69 13c-54 0 -95 -24 -95 -61c0 -39 49 -61 107 -89c69 -32 135 -69 135 -146
c0 -97 -81 -150 -193 -150z" />
    <glyph glyph-name="Scedilla" unicode="&#x15e;" horiz-adv-x="626" 
d="M262 -219c-52 0 -102 24 -131 46l22 33c27 -17 68 -30 104 -30c27 0 45 14 45 32c0 19 -21 36 -71 30l-16 21l45 77c-124 14 -212 91 -212 166c0 50 31 82 71 82c35 0 62 -29 62 -60c0 -22 -10 -41 -29 -55c23 -29 78 -54 156 -54c81 0 148 44 148 116
c0 59 -49 95 -124 138c-89 51 -172 108 -172 216c0 104 96 198 243 198c132 0 227 -77 227 -151c0 -48 -30 -81 -69 -81c-35 0 -62 27 -62 61c0 17 8 35 26 50c-16 18 -60 39 -123 39c-88 0 -143 -49 -143 -108c0 -63 53 -100 132 -146c84 -48 163 -107 163 -208
c0 -117 -99 -205 -249 -206h-1l-12 -41c60 -8 91 -42 91 -81c0 -53 -53 -84 -121 -84z" />
    <glyph glyph-name="scedilla" unicode="&#x15f;" horiz-adv-x="511" 
d="M191 -231c-55 0 -108 25 -138 49l23 34c28 -18 72 -32 110 -32c29 0 47 15 47 35c0 19 -22 38 -74 31l-17 22l50 87c-54 8 -100 31 -129 60c-19 19 -30 41 -30 64c0 35 25 62 58 62c31 0 52 -24 52 -52c0 -13 -4 -25 -13 -34c5 -5 12 -9 20 -14c23 -12 58 -20 95 -20
c53 0 98 23 98 64c0 44 -50 65 -104 90c-71 33 -138 67 -138 145c0 80 69 147 189 147c66 0 123 -22 156 -55c18 -18 28 -40 28 -63c0 -38 -26 -62 -56 -62s-54 23 -54 53c0 11 3 20 11 34c-3 3 -8 6 -18 10c-17 7 -42 13 -69 13c-54 0 -95 -24 -95 -61
c0 -39 49 -61 107 -89c69 -32 135 -69 135 -146c0 -97 -81 -150 -193 -150h-5l-15 -49c63 -8 96 -43 96 -84c0 -56 -56 -89 -127 -89z" />
    <glyph glyph-name="Scommaaccent" unicode="&#x218;" horiz-adv-x="626" 
d="M302 -13c-145 0 -254 86 -254 169c0 50 31 82 71 82c35 0 62 -29 62 -60c0 -22 -10 -41 -29 -55c23 -29 78 -54 156 -54c81 0 148 44 148 116c0 59 -49 95 -124 138c-89 51 -172 108 -172 216c0 104 96 198 243 198c132 0 227 -77 227 -151c0 -48 -30 -81 -69 -81
c-35 0 -62 27 -62 61c0 17 8 35 26 50c-16 18 -60 39 -123 39c-88 0 -143 -49 -143 -108c0 -63 53 -100 132 -146c84 -48 163 -107 163 -208c0 -117 -100 -206 -252 -206zM118 -314l-16 31c83 43 115 90 118 110c-28 11 -41 38 -41 55c0 35 26 63 61 63s65 -28 65 -71
c0 -66 -68 -145 -187 -188z" />
    <glyph glyph-name="scommaaccent" unicode="&#x219;" horiz-adv-x="511" 
d="M242 -9c-74 0 -141 26 -179 64c-19 19 -30 41 -30 64c0 35 25 62 58 62c31 0 52 -24 52 -52c0 -13 -4 -25 -13 -34c5 -5 12 -9 20 -14c23 -12 58 -20 95 -20c53 0 98 23 98 64c0 44 -50 65 -104 90c-71 33 -138 67 -138 145c0 80 69 147 189 147c66 0 123 -22 156 -55
c18 -18 28 -40 28 -63c0 -38 -26 -62 -56 -62s-54 23 -54 53c0 11 3 20 11 34c-3 3 -8 6 -18 10c-17 7 -42 13 -69 13c-54 0 -95 -24 -95 -61c0 -39 49 -61 107 -89c69 -32 135 -69 135 -146c0 -97 -81 -150 -193 -150zM53 -330l-17 32c87 45 121 95 124 116
c-29 11 -43 40 -43 58c0 36 27 65 64 65s68 -29 68 -74c0 -68 -71 -152 -196 -197z" />
    <glyph glyph-name="Tcaron" unicode="&#x164;" horiz-adv-x="699" 
d="M480 785l-129 176l44 39l102 -103l163 104l35 -46zM160 0l19 84h91l129 558h-167l-26 -115h-90l46 197h605l-45 -197h-90l26 115h-165l-129 -558h101l-19 -84h-286z" />
    <glyph glyph-name="tcaron" unicode="&#x165;" horiz-adv-x="415" 
d="M359 546l-26 24c44 49 60 82 69 119c8 33 2 64 11 99c7 28 25 48 57 48s52 -21 52 -54c0 -42 -21 -80 -52 -123c-33 -44 -74 -80 -111 -113zM404 418h-151l-66 -268c-4 -17 -7 -32 -7 -44c0 -25 15 -41 39 -41c26 0 52 13 101 45l34 -46c-63 -54 -116 -73 -163 -73
c-61 0 -107 35 -107 100c0 17 4 37 9 60l66 267h-89l19 79h89l29 115l103 34l-37 -149h151z" />
    <glyph glyph-name="Tcommaaccent" unicode="&#x162;" horiz-adv-x="699" 
d="M160 0l19 84h91l129 558h-167l-26 -115h-90l46 197h605l-45 -197h-90l26 115h-165l-129 -558h101l-19 -84h-286zM149 -314l-16 31c83 43 115 90 118 110c-28 11 -41 38 -41 55c0 35 26 63 61 63s65 -28 65 -71c0 -66 -68 -145 -187 -188z" />
    <glyph glyph-name="tcommaaccent" unicode="&#x163;" horiz-adv-x="415" 
d="M404 418h-151l-66 -268c-4 -17 -7 -32 -7 -44c0 -25 15 -41 39 -41c26 0 52 13 101 45l34 -46c-63 -54 -116 -73 -163 -73c-61 0 -107 35 -107 100c0 17 4 37 9 60l66 267h-89l19 79h89l29 115l103 34l-37 -149h151zM19 -330l-17 32c87 45 121 95 124 116
c-29 11 -43 40 -43 58c0 36 27 65 64 65s68 -29 68 -74c0 -68 -71 -152 -196 -197z" />
    <glyph glyph-name="Thorn" unicode="&#xde;" horiz-adv-x="644" 
d="M350 243c123 0 180 58 180 139c0 28 -8 53 -27 71c-24 23 -65 36 -125 36h-79l-56 -243c29 -2 68 -3 107 -3zM7 0l20 84h84l129 556h-95l19 84h278l-20 -82h-88l-17 -74h78c84 0 146 -22 185 -61c30 -30 45 -71 45 -119c0 -134 -104 -224 -282 -224c-47 0 -92 1 -119 3
l-20 -85h99l-19 -82h-277z" />
    <glyph glyph-name="thorn" unicode="&#xfe;" horiz-adv-x="629" 
d="M299 72c102 0 178 108 178 220c0 79 -42 134 -116 134c-103 0 -187 -115 -187 -226c0 -76 44 -128 125 -128zM-93 -227l20 77h74l216 920h-94l20 79h184l-104 -441c38 53 96 99 169 99c112 0 182 -81 182 -203c0 -173 -122 -314 -265 -314c-76 0 -138 51 -157 115
l-59 -255h99l-20 -77h-265z" />
    <glyph glyph-name="Uacute" unicode="&#xda;" horiz-adv-x="792" 
d="M496 791l-23 30l158 143c16 15 32 23 51 23c25 0 45 -22 45 -46c0 -25 -16 -44 -40 -56zM368 -13c-148 0 -233 85 -233 214c0 27 5 61 13 93l80 346h-94l20 84h274l-19 -84h-87l-81 -350c-7 -29 -11 -58 -11 -82c0 -84 47 -136 150 -136c106 0 168 70 191 175l90 393h-99
l20 84h274l-19 -84h-83l-93 -403c-36 -154 -122 -250 -293 -250z" />
    <glyph glyph-name="uacute" unicode="&#xfa;" horiz-adv-x="654" 
d="M368 582l-24 31l168 150c17 16 34 24 53 24c26 0 48 -22 48 -48s-18 -46 -43 -58zM85 497h186l-78 -305c-4 -17 -8 -35 -8 -52c0 -43 28 -71 73 -71c66 0 130 59 157 165l66 263h93l-89 -356c-5 -20 -9 -39 -9 -50c0 -22 12 -35 31 -35c21 0 43 18 66 80l43 -16
c-28 -92 -78 -128 -132 -128c-58 0 -94 38 -94 99c0 5 0 10 1 16c-41 -68 -103 -116 -171 -116c-72 0 -130 50 -130 129c0 26 5 54 11 80l56 218h-92z" />
    <glyph glyph-name="Ubreve" unicode="&#x16c;" horiz-adv-x="792" 
d="M527 795c-86 0 -141 64 -148 169l57 19c16 -68 48 -105 105 -105c49 0 95 28 142 103l51 -25c-48 -105 -130 -161 -207 -161zM368 -13c-148 0 -233 85 -233 214c0 27 5 61 13 93l80 346h-94l20 84h274l-19 -84h-87l-81 -350c-7 -29 -11 -58 -11 -82
c0 -84 47 -136 150 -136c106 0 168 70 191 175l90 393h-99l20 84h274l-19 -84h-83l-93 -403c-36 -154 -122 -250 -293 -250z" />
    <glyph glyph-name="ubreve" unicode="&#x16d;" horiz-adv-x="654" 
d="M402 587c-91 0 -149 67 -156 176l59 19c16 -71 51 -109 111 -109c52 0 100 29 149 107l52 -26c-49 -109 -135 -167 -215 -167zM85 497h186l-78 -305c-4 -17 -8 -35 -8 -52c0 -43 28 -71 73 -71c66 0 130 59 157 165l66 263h93l-89 -356c-5 -20 -9 -39 -9 -50
c0 -22 12 -35 31 -35c21 0 43 18 66 80l43 -16c-28 -92 -78 -128 -132 -128c-58 0 -94 38 -94 99c0 5 0 10 1 16c-41 -68 -103 -116 -171 -116c-72 0 -130 50 -130 129c0 26 5 54 11 80l56 218h-92z" />
    <glyph glyph-name="Ucircumflex" unicode="&#xdb;" horiz-adv-x="792" 
d="M386 788l-35 47l215 169l129 -176l-44 -38l-103 102zM368 -13c-148 0 -233 85 -233 214c0 27 5 61 13 93l80 346h-94l20 84h274l-19 -84h-87l-81 -350c-7 -29 -11 -58 -11 -82c0 -84 47 -136 150 -136c106 0 168 70 191 175l90 393h-99l20 84h274l-19 -84h-83l-93 -403
c-36 -154 -122 -250 -293 -250z" />
    <glyph glyph-name="ucircumflex" unicode="&#xfb;" horiz-adv-x="654" 
d="M252 580l-36 48l225 177l135 -184l-45 -40l-108 108zM85 497h186l-78 -305c-4 -17 -8 -35 -8 -52c0 -43 28 -71 73 -71c66 0 130 59 157 165l66 263h93l-89 -356c-5 -20 -9 -39 -9 -50c0 -22 12 -35 31 -35c21 0 43 18 66 80l43 -16c-28 -92 -78 -128 -132 -128
c-58 0 -94 38 -94 99c0 5 0 10 1 16c-41 -68 -103 -116 -171 -116c-72 0 -130 50 -130 129c0 26 5 54 11 80l56 218h-92z" />
    <glyph glyph-name="Udieresis" unicode="&#xdc;" horiz-adv-x="792" 
d="M438 809c-37 0 -67 30 -67 68c0 37 31 67 68 67s67 -30 67 -67c0 -38 -31 -68 -68 -68zM640 809c-37 0 -67 30 -67 68c0 37 31 67 68 67s66 -30 66 -67c0 -38 -31 -68 -67 -68zM368 -13c-148 0 -233 85 -233 214c0 27 5 61 13 93l80 346h-94l20 84h274l-19 -84h-87
l-81 -350c-7 -29 -11 -58 -11 -82c0 -84 47 -136 150 -136c106 0 168 70 191 175l90 393h-99l20 84h274l-19 -84h-83l-93 -403c-36 -154 -122 -250 -293 -250z" />
    <glyph glyph-name="udieresis" unicode="&#xfc;" horiz-adv-x="654" 
d="M307 601c-38 0 -69 32 -69 71s32 71 70 71c39 0 70 -32 70 -71s-32 -71 -71 -71zM518 601c-38 0 -69 32 -69 71s32 71 70 71c39 0 70 -32 70 -71s-32 -71 -71 -71zM85 497h186l-78 -305c-4 -17 -8 -35 -8 -52c0 -43 28 -71 73 -71c66 0 130 59 157 165l66 263h93
l-89 -356c-5 -20 -9 -39 -9 -50c0 -22 12 -35 31 -35c21 0 43 18 66 80l43 -16c-28 -92 -78 -128 -132 -128c-58 0 -94 38 -94 99c0 5 0 10 1 16c-41 -68 -103 -116 -171 -116c-72 0 -130 50 -130 129c0 26 5 54 11 80l56 218h-92z" />
    <glyph glyph-name="Ugrave" unicode="&#xd9;" horiz-adv-x="792" 
d="M544 782l-128 105c-20 16 -27 33 -27 50c0 28 23 50 48 50s39 -12 55 -38l82 -144zM368 -13c-148 0 -233 85 -233 214c0 27 5 61 13 93l80 346h-94l20 84h274l-19 -84h-87l-81 -350c-7 -29 -11 -58 -11 -82c0 -84 47 -136 150 -136c106 0 168 70 191 175l90 393h-99
l20 84h274l-19 -84h-83l-93 -403c-36 -154 -122 -250 -293 -250z" />
    <glyph glyph-name="ugrave" unicode="&#xf9;" horiz-adv-x="654" 
d="M421 573l-135 109c-21 18 -29 35 -29 53c0 30 24 53 51 53c25 0 41 -13 57 -40l87 -151zM85 497h186l-78 -305c-4 -17 -8 -35 -8 -52c0 -43 28 -71 73 -71c66 0 130 59 157 165l66 263h93l-89 -356c-5 -20 -9 -39 -9 -50c0 -22 12 -35 31 -35c21 0 43 18 66 80l43 -16
c-28 -92 -78 -128 -132 -128c-58 0 -94 38 -94 99c0 5 0 10 1 16c-41 -68 -103 -116 -171 -116c-72 0 -130 50 -130 129c0 26 5 54 11 80l56 218h-92z" />
    <glyph glyph-name="Uhungarumlaut" unicode="&#x170;" horiz-adv-x="792" 
d="M397 792l-24 30l137 140c15 16 32 26 50 26c25 0 46 -19 46 -47c0 -19 -16 -40 -39 -54zM611 794l-23 31l141 135c16 16 33 25 51 25c26 0 44 -21 44 -47c0 -21 -15 -41 -40 -54zM368 -13c-148 0 -233 85 -233 214c0 27 5 61 13 93l80 346h-94l20 84h274l-19 -84h-87
l-81 -350c-7 -29 -11 -58 -11 -82c0 -84 47 -136 150 -136c106 0 168 70 191 175l90 393h-99l20 84h274l-19 -84h-83l-93 -403c-36 -154 -122 -250 -293 -250z" />
    <glyph glyph-name="uhungarumlaut" unicode="&#x171;" horiz-adv-x="654" 
d="M263 583l-24 32l144 146c16 17 34 27 53 27c26 0 47 -20 47 -49c0 -20 -16 -41 -41 -56zM488 586l-23 32l149 142c17 16 35 25 53 25c27 0 46 -22 46 -49c0 -21 -15 -43 -43 -57zM85 497h186l-78 -305c-4 -17 -8 -35 -8 -52c0 -43 28 -71 73 -71c66 0 130 59 157 165
l66 263h93l-89 -356c-5 -20 -9 -39 -9 -50c0 -22 12 -35 31 -35c21 0 43 18 66 80l43 -16c-28 -92 -78 -128 -132 -128c-58 0 -94 38 -94 99c0 5 0 10 1 16c-41 -68 -103 -116 -171 -116c-72 0 -130 50 -130 129c0 26 5 54 11 80l56 218h-92z" />
    <glyph glyph-name="Umacron" unicode="&#x16a;" horiz-adv-x="792" 
d="M358 825l18 76h340l-17 -76h-341zM368 -13c-148 0 -233 85 -233 214c0 27 5 61 13 93l80 346h-94l20 84h274l-19 -84h-87l-81 -350c-7 -29 -11 -58 -11 -82c0 -84 47 -136 150 -136c106 0 168 70 191 175l90 393h-99l20 84h274l-19 -84h-83l-93 -403
c-36 -154 -122 -250 -293 -250z" />
    <glyph glyph-name="umacron" unicode="&#x16b;" horiz-adv-x="654" 
d="M223 618l19 80h357l-18 -80h-358zM85 497h186l-78 -305c-4 -17 -8 -35 -8 -52c0 -43 28 -71 73 -71c66 0 130 59 157 165l66 263h93l-89 -356c-5 -20 -9 -39 -9 -50c0 -22 12 -35 31 -35c21 0 43 18 66 80l43 -16c-28 -92 -78 -128 -132 -128c-58 0 -94 38 -94 99
c0 5 0 10 1 16c-41 -68 -103 -116 -171 -116c-72 0 -130 50 -130 129c0 26 5 54 11 80l56 218h-92z" />
    <glyph glyph-name="Uogonek" unicode="&#x172;" horiz-adv-x="792" 
d="M261 -137c0 46 29 88 74 126c-128 11 -200 93 -200 212c0 27 5 61 13 93l80 346h-94l20 84h274l-19 -84h-87l-81 -350c-7 -29 -11 -58 -11 -82c0 -84 47 -136 150 -136c106 0 168 70 191 175l90 393h-99l20 84h274l-19 -84h-83l-93 -403c-33 -141 -108 -234 -252 -248
c-39 -32 -66 -66 -66 -99c0 -24 17 -39 46 -39c23 0 43 5 58 10l-14 -61c-15 -10 -42 -21 -79 -21c-53 0 -93 31 -93 84z" />
    <glyph glyph-name="uogonek" unicode="&#x173;" horiz-adv-x="654" 
d="M573 136l43 -16c-14 -46 -32 -74 -60 -100c-45 -46 -110 -81 -110 -137c0 -26 18 -41 49 -41c24 0 45 5 61 10l-15 -63c-16 -11 -44 -22 -82 -22c-56 0 -98 32 -98 88c0 57 40 104 93 141c-40 11 -64 46 -64 95c0 5 0 10 1 16c-41 -68 -103 -116 -171 -116
c-72 0 -130 50 -130 130c0 25 5 53 11 79l56 218h-92l20 79h186l-78 -305c-4 -17 -7 -34 -7 -52c0 -42 27 -70 72 -70c67 0 130 58 157 164l66 263h93l-89 -356c-5 -20 -9 -39 -9 -50c0 -22 11 -34 30 -34c21 0 44 17 67 79z" />
    <glyph glyph-name="Uring" unicode="&#x16e;" horiz-adv-x="792" 
d="M534 789c-69 0 -109 49 -109 109c0 77 60 147 140 147c69 0 110 -49 110 -109c0 -77 -61 -147 -141 -147zM539 849c39 0 69 38 69 82c0 29 -19 54 -48 54c-39 0 -68 -38 -68 -82c0 -29 18 -54 47 -54zM368 -13c-148 0 -233 85 -233 214c0 27 5 61 13 93l80 346h-94l20 84
h274l-19 -84h-87l-81 -350c-7 -29 -11 -58 -11 -82c0 -84 47 -136 150 -136c106 0 168 70 191 175l90 393h-99l20 84h274l-19 -84h-83l-93 -403c-36 -154 -122 -250 -293 -250z" />
    <glyph glyph-name="uring" unicode="&#x16f;" horiz-adv-x="654" 
d="M408 579c-72 0 -114 52 -114 115c0 81 63 154 147 154c72 0 114 -52 114 -115c0 -80 -62 -154 -147 -154zM414 642c41 0 72 40 72 86c0 32 -20 58 -50 58c-42 0 -72 -41 -72 -87c0 -31 19 -57 50 -57zM85 497h186l-78 -305c-4 -17 -8 -35 -8 -52c0 -43 28 -71 73 -71
c66 0 130 59 157 165l66 263h93l-89 -356c-5 -20 -9 -39 -9 -50c0 -22 12 -35 31 -35c21 0 43 18 66 80l43 -16c-28 -92 -78 -128 -132 -128c-58 0 -94 38 -94 99c0 5 0 10 1 16c-41 -68 -103 -116 -171 -116c-72 0 -130 50 -130 129c0 26 5 54 11 80l56 218h-92z" />
    <glyph glyph-name="Wacute" unicode="&#x1e82;" horiz-adv-x="1066" 
d="M630 791l-23 30l158 143c16 15 32 23 51 23c25 0 45 -22 45 -46c0 -25 -16 -44 -40 -56zM245 -9l-43 649h-78l20 84h260l-19 -84h-91l21 -472l273 474h44l78 -477l233 475h-88l20 84h259l-19 -84h-70l-334 -649h-51l-84 469l-281 -469h-50z" />
    <glyph glyph-name="wacute" unicode="&#x1e83;" horiz-adv-x="800" 
d="M453 582l-24 31l168 150c17 16 34 24 53 24c26 0 48 -22 48 -48s-18 -46 -43 -58zM169 -15l-43 433h-91l21 79h151l23 -382l181 324h51l69 -334c70 106 129 207 137 275c-25 6 -50 27 -50 62c0 36 28 65 64 65c42 0 74 -32 74 -83c0 -88 -77 -236 -223 -439h-52l-68 312
l-186 -312h-58z" />
    <glyph glyph-name="Wcircumflex" unicode="&#x174;" horiz-adv-x="1066" 
d="M520 788l-35 47l215 169l129 -176l-44 -38l-103 102zM245 -9l-43 649h-78l20 84h260l-19 -84h-91l21 -472l273 474h44l78 -477l233 475h-88l20 84h259l-19 -84h-70l-334 -649h-51l-84 469l-281 -469h-50z" />
    <glyph glyph-name="wcircumflex" unicode="&#x175;" horiz-adv-x="800" 
d="M337 580l-36 48l225 177l135 -184l-45 -40l-108 108zM169 -15l-43 433h-91l21 79h151l23 -382l181 324h51l69 -334c70 106 129 207 137 275c-25 6 -50 27 -50 62c0 36 28 65 64 65c42 0 74 -32 74 -83c0 -88 -77 -236 -223 -439h-52l-68 312l-186 -312h-58z" />
    <glyph glyph-name="Wdieresis" unicode="&#x1e84;" horiz-adv-x="1066" 
d="M572 809c-37 0 -67 30 -67 68c0 37 31 67 68 67s67 -30 67 -67c0 -38 -31 -68 -68 -68zM774 809c-37 0 -67 30 -67 68c0 37 31 67 68 67s66 -30 66 -67c0 -38 -31 -68 -67 -68zM245 -9l-43 649h-78l20 84h260l-19 -84h-91l21 -472l273 474h44l78 -477l233 475h-88l20 84
h259l-19 -84h-70l-334 -649h-51l-84 469l-281 -469h-50z" />
    <glyph glyph-name="wdieresis" unicode="&#x1e85;" horiz-adv-x="800" 
d="M392 601c-38 0 -69 32 -69 71s32 71 70 71c39 0 70 -32 70 -71s-32 -71 -71 -71zM603 601c-38 0 -69 32 -69 71s32 71 70 71c39 0 70 -32 70 -71s-32 -71 -71 -71zM169 -15l-43 433h-91l21 79h151l23 -382l181 324h51l69 -334c70 106 129 207 137 275
c-25 6 -50 27 -50 62c0 36 28 65 64 65c42 0 74 -32 74 -83c0 -88 -77 -236 -223 -439h-52l-68 312l-186 -312h-58z" />
    <glyph glyph-name="Wgrave" unicode="&#x1e80;" horiz-adv-x="1066" 
d="M678 782l-128 105c-20 16 -27 33 -27 50c0 28 23 50 48 50s39 -12 55 -38l82 -144zM245 -9l-43 649h-78l20 84h260l-19 -84h-91l21 -472l273 474h44l78 -477l233 475h-88l20 84h259l-19 -84h-70l-334 -649h-51l-84 469l-281 -469h-50z" />
    <glyph glyph-name="wgrave" unicode="&#x1e81;" horiz-adv-x="800" 
d="M505 573l-135 109c-21 18 -29 35 -29 53c0 30 24 53 51 53c25 0 41 -13 57 -40l87 -151zM169 -15l-43 433h-91l21 79h151l23 -382l181 324h51l69 -334c70 106 129 207 137 275c-25 6 -50 27 -50 62c0 36 28 65 64 65c42 0 74 -32 74 -83c0 -88 -77 -236 -223 -439h-52
l-68 312l-186 -312h-58z" />
    <glyph glyph-name="Yacute" unicode="&#xdd;" horiz-adv-x="714" 
d="M447 791l-23 30l158 143c16 15 32 23 51 23c25 0 45 -22 45 -46c0 -25 -16 -44 -40 -56zM144 0l20 84h94l50 204l-126 352h-74l20 84h252l-19 -84h-81l92 -282l228 282h-80l20 84h260l-18 -84h-71l-314 -369l-44 -187h100l-19 -84h-290z" />
    <glyph glyph-name="yacute" unicode="&#xfd;" horiz-adv-x="579" 
d="M330 582l-24 31l168 150c17 16 34 24 53 24c26 0 48 -22 48 -48s-18 -46 -43 -58zM-8 -232c-47 0 -83 32 -83 70c0 35 27 62 60 62c29 0 52 -20 58 -50c28 0 80 41 183 166l-82 402h-88l20 79h148l70 -404c82 107 156 212 174 284c-25 10 -48 32 -48 66s28 64 66 64
c44 0 73 -33 73 -87c0 -71 -50 -175 -234 -404c-170 -212 -242 -248 -317 -248z" />
    <glyph glyph-name="Ycircumflex" unicode="&#x176;" horiz-adv-x="714" 
d="M336 788l-35 47l215 169l129 -176l-44 -38l-103 102zM144 0l20 84h94l50 204l-126 352h-74l20 84h252l-19 -84h-81l92 -282l228 282h-80l20 84h260l-18 -84h-71l-314 -369l-44 -187h100l-19 -84h-290z" />
    <glyph glyph-name="ycircumflex" unicode="&#x177;" horiz-adv-x="579" 
d="M214 580l-36 48l225 177l135 -184l-45 -40l-108 108zM-8 -232c-47 0 -83 32 -83 70c0 35 27 62 60 62c29 0 52 -20 58 -50c28 0 80 41 183 166l-82 402h-88l20 79h148l70 -404c82 107 156 212 174 284c-25 10 -48 32 -48 66s28 64 66 64c44 0 73 -33 73 -87
c0 -71 -50 -175 -234 -404c-170 -212 -242 -248 -317 -248z" />
    <glyph glyph-name="Ydieresis" unicode="&#x178;" horiz-adv-x="714" 
d="M389 809c-37 0 -67 30 -67 68c0 37 31 67 68 67s67 -30 67 -67c0 -38 -31 -68 -68 -68zM591 809c-37 0 -67 30 -67 68c0 37 31 67 68 67s66 -30 66 -67c0 -38 -31 -68 -67 -68zM144 0l20 84h94l50 204l-126 352h-74l20 84h252l-19 -84h-81l92 -282l228 282h-80l20 84h260
l-18 -84h-71l-314 -369l-44 -187h100l-19 -84h-290z" />
    <glyph glyph-name="ydieresis" unicode="&#xff;" horiz-adv-x="579" 
d="M270 601c-38 0 -69 32 -69 71s32 71 70 71c39 0 70 -32 70 -71s-32 -71 -71 -71zM481 601c-38 0 -69 32 -69 71s32 71 70 71c39 0 70 -32 70 -71s-32 -71 -71 -71zM-8 -232c-47 0 -83 32 -83 70c0 35 27 62 60 62c29 0 52 -20 58 -50c28 0 80 41 183 166l-82 402h-88
l20 79h148l70 -404c82 107 156 212 174 284c-25 10 -48 32 -48 66s28 64 66 64c44 0 73 -33 73 -87c0 -71 -50 -175 -234 -404c-170 -212 -242 -248 -317 -248z" />
    <glyph glyph-name="Ygrave" unicode="&#x1ef2;" horiz-adv-x="714" 
d="M495 782l-128 105c-20 16 -27 33 -27 50c0 28 23 50 48 50s39 -12 55 -38l82 -144zM144 0l20 84h94l50 204l-126 352h-74l20 84h252l-19 -84h-81l92 -282l228 282h-80l20 84h260l-18 -84h-71l-314 -369l-44 -187h100l-19 -84h-290z" />
    <glyph glyph-name="ygrave" unicode="&#x1ef3;" horiz-adv-x="579" 
d="M383 573l-135 109c-21 18 -29 35 -29 53c0 30 24 53 51 53c25 0 41 -13 57 -40l87 -151zM-8 -232c-47 0 -83 32 -83 70c0 35 27 62 60 62c29 0 52 -20 58 -50c28 0 80 41 183 166l-82 402h-88l20 79h148l70 -404c82 107 156 212 174 284c-25 10 -48 32 -48 66
s28 64 66 64c44 0 73 -33 73 -87c0 -71 -50 -175 -234 -404c-170 -212 -242 -248 -317 -248z" />
    <glyph glyph-name="Zacute" unicode="&#x179;" horiz-adv-x="694" 
d="M450 791l-23 30l158 143c16 15 32 23 51 23c25 0 45 -22 45 -46c0 -25 -16 -44 -40 -56zM26 0l-6 49l567 596h-328l-27 -117h-88l46 196h535l6 -49l-566 -596h345l27 116h87l-45 -195h-553z" />
    <glyph glyph-name="zacute" unicode="&#x17a;" horiz-adv-x="564" 
d="M330 582l-24 31l168 150c17 16 34 24 53 24c26 0 48 -22 48 -48s-18 -46 -43 -58zM46 -9l-34 49l402 383h-221l-24 -94h-81l42 168h387l26 -52l-387 -368c25 9 45 13 74 13c49 0 97 -21 136 -21c52 0 67 26 92 97l41 -9c-20 -93 -47 -166 -139 -166
c-52 0 -133 30 -190 30c-52 0 -87 -11 -124 -30z" />
    <glyph glyph-name="Zcaron" unicode="&#x17d;" horiz-adv-x="694" 
d="M475 785l-129 176l44 39l102 -103l163 104l35 -46zM26 0l-6 49l567 596h-328l-27 -117h-88l46 196h535l6 -49l-566 -596h345l27 116h87l-45 -195h-553z" />
    <glyph glyph-name="zcaron" unicode="&#x17e;" horiz-adv-x="564" 
d="M356 577l-135 184l45 40l108 -108l171 109l36 -48zM46 -9l-34 49l402 383h-221l-24 -94h-81l42 168h387l26 -52l-387 -368c25 9 45 13 74 13c49 0 97 -21 136 -21c52 0 67 26 92 97l41 -9c-20 -93 -47 -166 -139 -166c-52 0 -133 30 -190 30c-52 0 -87 -11 -124 -30z" />
    <glyph glyph-name="Zdotaccent" unicode="&#x17b;" horiz-adv-x="694" 
d="M494 808c-37 0 -68 30 -68 69c0 38 32 68 69 68c38 0 68 -30 68 -68c0 -39 -31 -69 -69 -69zM26 0l-6 49l567 596h-328l-27 -117h-88l46 196h535l6 -49l-566 -596h345l27 116h87l-45 -195h-553z" />
    <glyph glyph-name="zdotaccent" unicode="&#x17c;" horiz-adv-x="564" 
d="M375 600c-39 0 -71 32 -71 72s33 72 72 72c40 0 71 -32 71 -72s-33 -72 -72 -72zM46 -9l-34 49l402 383h-221l-24 -94h-81l42 168h387l26 -52l-387 -368c25 9 45 13 74 13c49 0 97 -21 136 -21c52 0 67 26 92 97l41 -9c-20 -93 -47 -166 -139 -166c-52 0 -133 30 -190 30
c-52 0 -87 -11 -124 -30z" />
    <glyph glyph-name="schwa" unicode="&#x259;" horiz-adv-x="570" 
d="M48 175c0 31 7 65 20 103h359c1 6 1 13 1 20c0 80 -66 130 -155 130c-54 0 -100 -12 -164 -45l19 88c52 26 95 36 165 36c118 0 226 -76 226 -211c0 -169 -126 -305 -274 -305c-119 0 -197 69 -197 184zM247 69c74 0 139 57 166 140h-270c-4 -15 -7 -31 -7 -46
c0 -52 35 -94 111 -94z" />
    <glyph glyph-name="germandbls" unicode="&#xdf;" horiz-adv-x="660" 
d="M414 -8c-79 0 -150 49 -150 110c0 34 26 62 57 62c32 0 56 -26 56 -53c0 -13 -6 -25 -12 -33c5 -7 28 -14 49 -14c63 0 99 40 99 95c0 42 -31 74 -72 112c-44 43 -84 83 -84 146c0 66 43 101 90 135c48 34 92 66 92 132c0 50 -46 90 -100 90c-71 0 -122 -52 -142 -146
l-144 -628h-91l96 418h-88l20 79h86l32 140c29 132 106 218 235 218c110 0 186 -71 186 -172c0 -96 -58 -143 -113 -182c-40 -27 -70 -51 -70 -84c0 -27 24 -54 69 -95c42 -40 88 -90 88 -164c0 -87 -62 -166 -189 -166z" />
    <glyph glyph-name="zero" unicode="0" horiz-adv-x="681" 
d="M324 -9c-160 0 -253 120 -253 267c0 175 131 345 314 345c160 0 254 -121 254 -267c0 -176 -131 -345 -315 -345zM326 71c125 0 215 125 215 263c0 109 -66 188 -158 188c-125 0 -216 -125 -216 -263c0 -108 66 -188 159 -188z" />
    <glyph glyph-name="one" unicode="1" horiz-adv-x="479" 
d="M16 1l18 77h138l97 421l-129 -31l-3 81l204 52l40 -19l-116 -504h138l-18 -77h-369z" />
    <glyph glyph-name="two" unicode="2" horiz-adv-x="608" 
d="M21 0l-11 52c53 118 172 187 290 242c99 46 173 85 173 147c0 47 -48 82 -127 82c-55 0 -96 -16 -120 -41c13 -10 20 -25 20 -43c0 -34 -26 -60 -60 -60c-35 0 -66 27 -66 66c0 77 94 158 232 158c135 0 219 -71 219 -156c0 -108 -119 -166 -234 -218
c-124 -57 -177 -93 -216 -153h302l24 100h80l-41 -176h-465z" />
    <glyph glyph-name="three" unicode="3" horiz-adv-x="588" 
d="M234 -146c-130 0 -239 76 -239 165c0 45 28 75 65 75c34 0 58 -26 58 -56c0 -20 -14 -42 -31 -48c11 -23 62 -58 150 -58c99 0 164 64 164 138c0 78 -69 136 -176 136h-28l19 76h26c128 0 220 55 220 138c0 64 -54 104 -137 104c-61 0 -93 -14 -113 -31
c14 -9 23 -25 23 -42c0 -33 -27 -57 -60 -57c-31 0 -62 23 -62 66c0 77 99 144 216 144c141 0 228 -76 228 -178c0 -94 -73 -165 -202 -186c96 -35 140 -100 140 -171c0 -121 -110 -215 -261 -215z" />
    <glyph glyph-name="four" unicode="4" horiz-adv-x="656" 
d="M512 333l-45 -192h125l-18 -77h-124l-47 -203h-92l47 203h-334l-10 41l488 504l60 -53l-401 -415h215l36 156z" />
    <glyph glyph-name="five" unicode="5" horiz-adv-x="588" 
d="M221 -144c-125 0 -215 67 -215 136c0 41 30 71 65 71c34 0 61 -26 61 -61c0 -12 -4 -27 -14 -34c15 -16 53 -30 107 -30c115 0 192 80 192 175c0 81 -59 128 -152 128c-48 0 -89 -12 -126 -30l-51 32l117 352h369l-19 -89h-299l-67 -206c29 13 63 21 106 21
c122 0 216 -76 216 -201c0 -137 -120 -264 -290 -264z" />
    <glyph glyph-name="six" unicode="6" horiz-adv-x="641" 
d="M139 58c-45 45 -67 114 -67 194c0 142 55 308 169 410c56 50 124 82 211 82c102 0 180 -53 180 -118c0 -39 -25 -69 -63 -69c-33 0 -60 25 -60 59c0 11 4 23 13 31c-11 10 -34 21 -76 21c-53 0 -107 -21 -155 -66c-56 -52 -108 -150 -126 -244c34 51 106 109 207 109
c128 0 213 -87 213 -205c0 -146 -120 -271 -278 -271c-75 0 -127 25 -168 67zM164 211c0 -39 12 -73 37 -98c25 -26 61 -41 108 -41c100 0 180 87 180 182c0 80 -48 134 -136 134c-109 0 -189 -84 -189 -177z" />
    <glyph glyph-name="seven" unicode="7" horiz-adv-x="591" 
d="M127 -143l-73 49l429 612h-291l-29 -120h-85l46 197h466l20 -42z" />
    <glyph glyph-name="eight" unicode="8" horiz-adv-x="620" 
d="M292 -9c-139 0 -233 92 -233 194c0 103 71 175 178 204c-64 37 -93 94 -93 151c0 108 106 204 242 204c135 0 222 -86 222 -190c0 -92 -63 -160 -159 -186c68 -35 109 -93 109 -162c0 -114 -108 -215 -266 -215zM364 414c87 0 152 59 152 134c0 66 -52 117 -132 117
c-86 0 -149 -60 -149 -134c0 -64 53 -117 129 -117zM296 70c102 0 169 64 169 145c0 74 -66 127 -147 127c-100 0 -168 -70 -168 -147c0 -74 67 -125 146 -125z" />
    <glyph glyph-name="nine" unicode="9" horiz-adv-x="641" 
d="M500 384c0 38 -12 72 -37 97c-25 26 -61 42 -107 42c-101 0 -181 -87 -181 -183c0 -80 48 -134 136 -134c108 0 189 85 189 178zM214 -147c-103 0 -181 54 -181 119c0 38 25 69 63 69c33 0 60 -26 60 -59c0 -11 -4 -23 -13 -31c14 -11 37 -21 79 -21c52 0 103 22 150 65
c59 53 110 153 127 243c-34 -52 -107 -111 -208 -111c-128 0 -212 87 -212 205c0 147 120 272 278 272c75 0 127 -26 168 -67c45 -45 67 -114 67 -194c0 -149 -57 -299 -149 -391c-63 -63 -134 -99 -229 -99z" />
    <glyph glyph-name="zero.lin" horiz-adv-x="717" 
d="M336 -13c-146 0 -251 107 -251 281c0 253 161 469 355 469c146 0 252 -107 252 -281c0 -253 -162 -469 -356 -469zM342 73c143 0 252 191 252 377c0 117 -56 201 -160 201c-143 0 -251 -191 -251 -377c0 -117 56 -201 159 -201z" />
    <glyph glyph-name="one.lin" horiz-adv-x="494" 
d="M18 1l19 83h141l126 546l-137 -33l-4 86l210 51l44 -21l-145 -629h139l-20 -83h-373z" />
    <glyph glyph-name="two.lin" horiz-adv-x="634" 
d="M30 0c-3 0 -17 43 -17 43c63 155 179 243 339 328c114 61 174 111 174 180c0 61 -54 102 -132 102c-85 0 -127 -30 -143 -53c17 -16 25 -32 25 -51c0 -35 -27 -63 -63 -63c-38 0 -66 28 -66 74c0 76 94 177 255 177c129 0 222 -73 222 -186c0 -112 -99 -177 -235 -250
c-129 -69 -210 -133 -256 -221h313l26 115h84l-46 -195h-480z" />
    <glyph glyph-name="three.lin" horiz-adv-x="606" 
d="M274 -10c-146 0 -243 76 -243 155c0 41 27 77 67 77c35 0 59 -28 59 -58c0 -18 -10 -37 -29 -48c19 -22 65 -45 151 -45c102 0 169 56 169 135c0 74 -73 126 -181 126h-35l19 84h34c132 0 212 57 212 131c0 71 -68 106 -148 106c-48 0 -82 -13 -100 -30
c11 -8 18 -23 18 -37c0 -34 -29 -58 -61 -58c-36 0 -64 27 -64 69c0 66 80 138 227 138c133 0 227 -78 227 -180c0 -108 -88 -168 -199 -185c88 -24 147 -85 147 -170c0 -135 -132 -210 -270 -210z" />
    <glyph glyph-name="four.lin" horiz-adv-x="635" 
d="M531 469l-42 -180h120l-18 -79h-120l-30 -130h95l-18 -80h-316l19 79h128l30 132h-331l-10 42l480 492l61 -57l-397 -401h214l33 142z" />
    <glyph glyph-name="five.lin" horiz-adv-x="587" 
d="M243 -13c-116 0 -214 64 -214 134c0 41 29 70 65 70c33 0 60 -25 60 -59c0 -11 -4 -23 -13 -33c15 -14 52 -30 110 -30c121 0 198 80 198 177c0 81 -57 131 -144 131c-48 0 -89 -9 -137 -29l-46 34l111 342h374l-20 -88h-297l-68 -204c29 13 67 22 111 22
c118 0 210 -77 210 -203c0 -145 -120 -264 -300 -264z" />
    <glyph glyph-name="six.lin" horiz-adv-x="638" 
d="M147 52c-49 49 -70 112 -70 208c0 136 59 300 171 396c57 49 127 81 210 81c104 0 184 -59 184 -127c0 -41 -29 -69 -64 -69c-30 0 -60 24 -60 59c0 11 5 26 16 37c-12 11 -38 22 -79 22c-53 0 -107 -22 -155 -65c-59 -54 -110 -149 -126 -243c34 48 106 106 200 106
c130 0 219 -88 219 -202c0 -144 -128 -268 -280 -268c-74 0 -131 30 -166 65zM313 69c104 0 184 83 184 180c0 75 -52 129 -138 129c-104 0 -187 -88 -187 -175c0 -37 14 -71 39 -96c25 -23 59 -38 102 -38z" />
    <glyph glyph-name="seven.lin" horiz-adv-x="566" 
d="M71 0l439 644h-294l-28 -124h-87l48 204h460l24 -45l-454 -679h-108z" />
    <glyph glyph-name="eight.lin" horiz-adv-x="635" 
d="M315 -11c-146 0 -255 89 -255 199c0 108 80 178 183 200c-67 33 -102 93 -102 151c0 98 91 196 250 196c135 0 240 -83 240 -191c0 -95 -67 -154 -164 -178c64 -27 115 -89 115 -164c0 -115 -103 -213 -267 -213zM376 410c91 0 158 56 158 130c0 62 -59 113 -141 113
c-92 0 -158 -53 -158 -126c0 -66 65 -117 141 -117zM314 71c97 0 171 59 171 137c0 71 -63 127 -156 127c-104 0 -172 -60 -172 -139c0 -66 62 -125 157 -125z" />
    <glyph glyph-name="nine.lin" horiz-adv-x="638" 
d="M524 521c0 36 -14 71 -39 96c-25 23 -58 38 -102 38c-104 0 -184 -83 -184 -180c0 -75 53 -129 138 -129c104 0 187 88 187 175zM104 469c0 143 127 268 279 268c74 0 131 -30 167 -65c49 -49 70 -112 70 -209c0 -135 -60 -299 -172 -395c-57 -49 -127 -81 -210 -81
c-103 0 -183 59 -183 127c0 41 28 69 63 69c31 0 60 -24 60 -60c0 -11 -5 -25 -16 -36c12 -11 38 -22 79 -22c53 0 107 22 155 66c60 54 110 147 126 241c-34 -48 -105 -105 -200 -105c-130 0 -218 88 -218 202z" />
    <glyph glyph-name="period" unicode="." horiz-adv-x="268" 
d="M110 -9c-43 0 -77 35 -77 78c0 44 34 79 77 79c44 0 77 -35 77 -79c0 -43 -33 -78 -77 -78z" />
    <glyph glyph-name="comma" unicode="," horiz-adv-x="268" 
d="M-41 -172l-20 39c103 53 142 111 146 136c-35 12 -52 46 -52 68c0 42 34 77 77 77s79 -35 79 -87c0 -81 -83 -180 -230 -233z" />
    <glyph glyph-name="colon" unicode=":" horiz-adv-x="300" 
d="M196 296c-43 0 -76 35 -76 77c0 43 33 78 76 78s76 -35 76 -78c0 -42 -33 -77 -76 -77zM126 -9c-42 0 -75 34 -75 77c0 42 33 77 75 77c43 0 76 -35 76 -77c0 -43 -33 -77 -76 -77z" />
    <glyph glyph-name="semicolon" unicode=";" horiz-adv-x="300" 
d="M196 296c-43 0 -76 35 -76 77c0 43 33 78 76 78s76 -35 76 -78c0 -42 -33 -77 -76 -77zM-23 -169l-20 38c101 52 140 109 144 134c-34 12 -50 45 -50 67c0 42 32 75 74 75c43 0 79 -34 79 -85c0 -79 -82 -177 -227 -229z" />
    <glyph glyph-name="ellipsis" unicode="&#x2026;" horiz-adv-x="749" 
d="M93 -9c-42 0 -74 33 -74 75s32 76 74 76s74 -34 74 -76s-32 -75 -74 -75zM336 -9c-42 0 -74 33 -74 75s32 76 74 76s74 -34 74 -76s-32 -75 -74 -75zM580 -9c-43 0 -75 33 -75 75s32 76 75 76c42 0 74 -34 74 -76s-32 -75 -74 -75z" />
    <glyph glyph-name="periodcentered" unicode="&#xb7;" horiz-adv-x="268" 
d="M151 233c-44 0 -78 35 -78 78c0 44 34 79 78 79c43 0 77 -35 77 -79c0 -43 -34 -78 -77 -78z" />
    <glyph glyph-name="bullet" unicode="&#x2022;" horiz-adv-x="352" 
d="M196 182c-66 0 -116 53 -116 119s50 120 116 120s117 -54 117 -120s-51 -119 -117 -119z" />
    <glyph glyph-name="bullet.alt" horiz-adv-x="749" 
d="M375 -56c-188 0 -309 141 -309 310c0 168 122 310 309 310c189 0 310 -141 310 -310c0 -167 -122 -310 -310 -310z" />
    <glyph glyph-name="ampersand" unicode="&#x26;" horiz-adv-x="702" 
d="M23 157c0 117 95 182 195 224c-29 49 -42 86 -42 132c0 104 85 186 195 186c99 0 161 -70 161 -143c0 -97 -83 -156 -198 -205c9 -12 20 -26 34 -41l74 -89c65 87 110 132 177 132c47 0 77 -32 77 -66c0 -33 -28 -60 -60 -60c-23 0 -43 12 -52 34c-23 -6 -52 -49 -89 -99
l107 -124l-59 -53l-101 121c-55 -63 -130 -120 -229 -120c-119 0 -190 72 -190 171zM263 514c0 -40 5 -65 29 -107c94 41 152 82 152 147c0 37 -29 73 -78 73c-64 0 -103 -58 -103 -113zM221 64c70 0 123 45 170 99l-87 104c-17 21 -32 39 -45 57
c-92 -44 -143 -87 -143 -160c0 -59 39 -100 105 -100z" />
    <glyph glyph-name="exclam" unicode="!" horiz-adv-x="290" 
d="M124 200l79 523h114l-148 -523h-45zM120 -9c-38 0 -68 31 -68 69s30 70 68 70s68 -32 68 -70s-30 -69 -68 -69z" />
    <glyph glyph-name="exclamdown" unicode="&#xa1;" horiz-adv-x="290" 
d="M230 592c-38 0 -68 32 -68 70c0 39 30 70 68 70s69 -31 69 -70c0 -38 -31 -70 -69 -70zM33 0l149 523h44l-79 -523h-114z" />
    <glyph glyph-name="question" unicode="?" horiz-adv-x="520" 
d="M157 201l28 172c190 8 266 89 266 175c0 69 -53 108 -123 108c-59 0 -97 -22 -106 -41c13 -9 25 -26 25 -45c0 -32 -26 -58 -58 -58c-34 0 -62 28 -62 69c0 91 104 156 209 156c117 0 211 -68 211 -184c0 -118 -94 -226 -289 -247l-40 -105h-61zM157 -9
c-38 0 -68 31 -68 69s30 70 68 70s68 -32 68 -70s-30 -69 -68 -69z" />
    <glyph glyph-name="questiondown" unicode="&#xbf;" horiz-adv-x="520" 
d="M424 596c-38 0 -69 32 -69 70s31 69 69 69s68 -31 68 -69s-30 -70 -68 -70zM244 -11c-116 0 -211 68 -211 184c0 118 95 226 290 247l41 108h61l-30 -175c-189 -8 -265 -89 -265 -175c0 -69 52 -108 123 -108c59 0 97 22 106 41c-13 9 -25 26 -25 45c0 32 26 58 58 58
c34 0 62 -28 62 -69c0 -91 -105 -156 -210 -156z" />
    <glyph glyph-name="quotedblleft" unicode="&#x201c;" horiz-adv-x="524" 
d="M193 459c-43 0 -78 34 -78 86c0 82 94 184 230 237l20 -38c-102 -59 -137 -115 -143 -141c31 -13 48 -42 48 -67c0 -42 -33 -77 -77 -77zM434 459c-44 0 -78 34 -78 86c0 82 94 184 230 237l20 -38c-102 -59 -137 -115 -143 -141c31 -13 48 -42 48 -67
c0 -42 -34 -77 -77 -77z" />
    <glyph glyph-name="quotedblright" unicode="&#x201d;" horiz-adv-x="524" 
d="M99 457l-20 38c102 58 137 114 143 141c-31 13 -48 41 -48 66c0 43 33 78 76 78c44 0 79 -34 79 -86c0 -82 -94 -184 -230 -237zM340 457l-20 38c101 58 137 114 143 141c-31 13 -48 41 -48 66c0 43 33 78 76 78c44 0 78 -34 78 -86c0 -82 -94 -184 -229 -237z" />
    <glyph glyph-name="quoteleft" unicode="&#x2018;" horiz-adv-x="287" 
d="M195 455c-45 0 -80 34 -80 87c0 84 96 187 234 241l20 -39c-103 -59 -139 -116 -145 -143c31 -13 49 -43 49 -68c0 -43 -34 -78 -78 -78z" />
    <glyph glyph-name="quoteright" unicode="&#x2019;" horiz-adv-x="287" 
d="M99 451l-20 39c103 59 139 116 145 143c-32 14 -49 43 -49 68c0 43 34 79 78 79c45 0 80 -35 80 -88c0 -84 -96 -186 -234 -241z" />
    <glyph glyph-name="quotedblbase" unicode="&#x201e;" horiz-adv-x="510" 
d="M-36 -167l-19 38c99 51 138 107 142 132c-34 12 -51 45 -51 66c0 41 33 74 75 74s77 -33 77 -84c0 -78 -81 -175 -224 -226zM202 -167l-19 38c99 51 138 107 142 132c-35 12 -51 45 -51 66c0 41 32 74 74 74s77 -33 77 -84c0 -78 -80 -175 -223 -226z" />
    <glyph glyph-name="quotesinglbase" unicode="&#x201a;" horiz-adv-x="279" 
d="M-35 -172l-20 39c103 53 142 111 146 136c-35 12 -52 46 -52 68c0 42 33 77 77 77c43 0 79 -35 79 -87c0 -81 -84 -180 -230 -233z" />
    <glyph glyph-name="guillemotleft" unicode="&#xab;" horiz-adv-x="596" 
d="M223 119l-170 203l256 201l45 -52l-183 -161l105 -146zM461 119l-170 203l256 201l45 -52l-183 -161l105 -146z" />
    <glyph glyph-name="guillemotright" unicode="&#xbb;" horiz-adv-x="596" 
d="M88 119l-45 53l183 161l-105 145l53 45l170 -203zM326 119l-45 53l183 161l-105 145l53 45l170 -203z" />
    <glyph glyph-name="guilsinglleft" unicode="&#x2039;" horiz-adv-x="358" 
d="M223 119l-170 203l256 201l45 -52l-183 -161l105 -146z" />
    <glyph glyph-name="guilsinglright" unicode="&#x203a;" horiz-adv-x="358" 
d="M88 119l-45 53l183 161l-105 145l53 45l170 -203z" />
    <glyph glyph-name="hyphen" unicode="-" horiz-adv-x="384" 
d="M60 277l22 94h270l-22 -94h-270z" />
    <glyph glyph-name="endash" unicode="&#x2013;" horiz-adv-x="592" 
d="M48 280l21 88h503l-20 -88h-504z" />
    <glyph glyph-name="emdash" unicode="&#x2014;" horiz-adv-x="886" 
d="M48 280l21 88h796l-20 -88h-797z" />
    <glyph glyph-name="hyphen.lin" horiz-adv-x="329" 
d="M76 330l21 83h234l-17 -83h-238z" />
    <glyph glyph-name="endash.lin" horiz-adv-x="514" 
d="M62 332l19 79h450l-17 -79h-452z" />
    <glyph glyph-name="emdash.lin" horiz-adv-x="767" 
d="M62 332l19 79h704l-17 -79h-706z" />
    <glyph glyph-name="underscore" unicode="_" horiz-adv-x="622" 
d="M-70 -177l21 88h642l-20 -88h-643z" />
    <glyph glyph-name="slash" unicode="/" horiz-adv-x="466" 
d="M-30 -243l-72 41l603 1063l73 -42z" />
    <glyph glyph-name="backslash" unicode="\" horiz-adv-x="388" 
d="M216 -234l-77 1080l83 8l76 -1081z" />
    <glyph glyph-name="bar" unicode="|" horiz-adv-x="331" 
d="M125 -232v1081h81v-1081h-81z" />
    <glyph glyph-name="parenleft" unicode="(" horiz-adv-x="453" 
d="M335 -258c-130 103 -245 266 -245 478c0 298 185 534 439 650l36 -68c-240 -120 -377 -336 -377 -584c0 -173 86 -318 198 -417z" />
    <glyph glyph-name="parenright" unicode=")" horiz-adv-x="470" 
d="M-21 -258l-35 68c239 120 377 336 377 583c0 173 -86 318 -198 418l51 59c130 -103 245 -267 245 -478c0 -298 -185 -535 -440 -650z" />
    <glyph glyph-name="parenleft.lin" horiz-adv-x="433" 
d="M347 -192c-130 103 -245 266 -245 478c0 298 185 534 439 650l36 -68c-240 -120 -377 -336 -377 -584c0 -173 86 -318 198 -417z" />
    <glyph glyph-name="parenright.lin" horiz-adv-x="433" 
d="M-16 -190l-35 68c239 120 377 336 377 583c0 173 -86 318 -198 418l51 59c130 -103 245 -267 245 -478c0 -298 -185 -535 -440 -650z" />
    <glyph glyph-name="bracketleft" unicode="[" horiz-adv-x="416" 
d="M10 -232l252 1081h275l-19 -81h-183l-214 -919h183l-19 -81h-275z" />
    <glyph glyph-name="bracketright" unicode="]" horiz-adv-x="416" 
d="M-94 -232l19 81h183l214 919h-183l19 81h275l-251 -1081h-276z" />
    <glyph glyph-name="bracketleft.lin" horiz-adv-x="397" 
d="M42 -154l238 1025h256l-16 -71h-174l-206 -883h173l-16 -71h-255z" />
    <glyph glyph-name="bracketright.lin" horiz-adv-x="397" 
d="M-67 -154l17 71h174l206 883h-174l17 71h255l-238 -1025h-257z" />
    <glyph glyph-name="braceleft" unicode="{" horiz-adv-x="416" 
d="M261 -249c-148 19 -221 94 -221 186c0 75 54 128 103 167c40 32 75 63 75 95c0 30 -29 67 -108 67h-38l21 86h39c94 0 136 46 136 93c0 28 -16 62 -36 95c-22 38 -44 83 -44 128c0 106 98 193 308 198l-7 -65c-155 -11 -213 -71 -213 -128c0 -35 19 -72 41 -109
c22 -38 42 -80 42 -116c0 -74 -54 -127 -154 -141c72 -14 106 -59 106 -110s-46 -95 -92 -133c-47 -37 -90 -77 -90 -124c0 -59 46 -104 148 -126z" />
    <glyph glyph-name="braceright" unicode="}" horiz-adv-x="416" 
d="M-53 -248l7 65c155 11 214 71 214 128c0 35 -19 72 -41 109c-22 38 -42 80 -42 116c0 74 54 127 153 140c-72 15 -105 60 -105 111s45 95 92 133c46 37 89 77 89 124c0 59 -45 103 -147 126l15 63c149 -19 221 -94 221 -186c0 -75 -53 -128 -103 -167
c-39 -32 -75 -63 -75 -95c0 -30 30 -67 109 -67h37l-21 -86h-39c-94 0 -135 -46 -135 -94c0 -27 16 -61 36 -94c22 -38 43 -83 43 -128c0 -106 -97 -194 -308 -198z" />
    <glyph glyph-name="braceleft.lin" horiz-adv-x="391" 
d="M288 -181c-148 19 -221 94 -221 186c0 75 54 128 103 167c40 32 75 63 75 95c0 30 -29 67 -108 67h-38l21 86h39c94 0 136 46 136 93c0 28 -16 62 -36 95c-22 38 -44 83 -44 128c0 106 98 193 308 198l-7 -65c-155 -11 -213 -71 -213 -128c0 -35 19 -72 41 -109
c22 -38 42 -80 42 -116c0 -74 -54 -127 -154 -141c72 -14 106 -59 106 -110s-46 -95 -92 -133c-47 -37 -90 -77 -90 -124c0 -59 46 -104 148 -126z" />
    <glyph glyph-name="braceright.lin" horiz-adv-x="391" 
d="M-42 -180l7 65c155 11 214 71 214 128c0 35 -19 72 -41 109c-22 38 -42 80 -42 116c0 74 54 127 153 140c-72 15 -105 60 -105 111s45 95 92 133c46 37 89 77 89 124c0 59 -45 103 -147 126l15 63c149 -19 221 -94 221 -186c0 -75 -53 -128 -103 -167
c-39 -32 -75 -63 -75 -95c0 -30 30 -67 109 -67h37l-21 -86h-39c-94 0 -135 -46 -135 -94c0 -27 16 -61 36 -94c22 -38 43 -83 43 -128c0 -106 -97 -194 -308 -198z" />
    <glyph glyph-name="at" unicode="@" horiz-adv-x="950" 
d="M402 -205c-203 0 -344 151 -344 361c0 307 224 552 493 552c209 0 345 -137 345 -335c0 -184 -99 -333 -230 -333c-76 0 -115 45 -115 98c-34 -60 -90 -98 -152 -98c-79 0 -138 63 -138 160c0 137 97 257 211 257c63 0 105 -40 122 -93l27 86h85l-66 -261
c-15 -57 0 -88 43 -88c84 0 156 126 156 271c0 161 -109 286 -288 286c-242 0 -437 -226 -437 -503c0 -175 117 -309 290 -309c66 0 128 16 185 47l23 -44c-64 -36 -135 -54 -210 -54zM438 119c74 0 138 77 138 165c0 57 -32 90 -88 90c-73 0 -131 -77 -131 -163
c0 -53 27 -92 81 -92z" />
    <glyph glyph-name="copyright" unicode="&#xa9;" horiz-adv-x="684" 
d="M342 -9c-163 0 -287 129 -287 291s124 291 287 291s287 -129 287 -291c0 -161 -125 -291 -287 -291zM342 34c134 0 238 111 238 248c0 139 -103 249 -238 249s-238 -110 -238 -249c0 -138 103 -248 238 -248zM353 140c-87 0 -148 60 -148 146s68 147 145 147
c67 0 110 -37 110 -69c0 -18 -13 -32 -30 -32c-15 0 -28 12 -28 28c0 6 2 11 4 15c-8 8 -26 17 -56 17c-55 0 -98 -45 -98 -104c0 -58 41 -106 102 -106c32 0 59 13 83 36l26 -30c-26 -31 -67 -48 -110 -48z" />
    <glyph glyph-name="published" unicode="&#x2117;" horiz-adv-x="684" 
d="M342 -9c-163 0 -287 129 -287 291s124 291 287 291s287 -129 287 -291c0 -161 -125 -291 -287 -291zM342 34c134 0 238 111 238 248c0 139 -103 249 -238 249s-238 -110 -238 -249c0 -138 103 -248 238 -248zM246 135v39h35v212h-35v39h115c62 0 109 -36 109 -94
c0 -64 -45 -97 -113 -97h-32v-60h37v-39h-116zM361 272c40 0 64 23 64 59c0 34 -27 55 -66 55h-34v-112c6 -1 16 -2 36 -2z" />
    <glyph glyph-name="registered.alt" horiz-adv-x="684" 
d="M342 -9c-163 0 -287 129 -287 291s124 291 287 291s287 -129 287 -291c0 -161 -125 -291 -287 -291zM342 34c134 0 238 111 238 248c0 139 -103 249 -238 249s-238 -110 -238 -249c0 -138 103 -248 238 -248zM307 293h31c41 0 68 19 68 51c0 33 -27 49 -68 49h-31v-100z
M229 143v39h34v211h-34v39h111c66 0 112 -30 112 -86c0 -38 -25 -66 -58 -79l50 -85h34v-39h-63l-63 112h-45v-73h37v-39h-115z" />
    <glyph glyph-name="registered" unicode="&#xae;" horiz-adv-x="473" 
d="M319 390c-116 0 -207 91 -207 206c0 117 91 208 207 208s208 -91 208 -208c0 -115 -93 -206 -208 -206zM319 765c-91 0 -164 -72 -164 -169c0 -95 73 -168 164 -168c90 0 165 74 165 168c0 97 -73 169 -165 169zM299 607h19c25 0 40 10 40 29c0 20 -15 29 -41 29h-18v-58
zM240 502v33h22v130h-22v33h79c44 0 79 -20 79 -59c0 -25 -16 -44 -36 -54l26 -50h23v-33h-49l-37 73h-26v-40h23v-33h-82z" />
    <glyph glyph-name="copyright.lin" horiz-adv-x="874" 
d="M454 -13c-207 0 -367 168 -367 375s160 375 367 375s367 -168 367 -375s-160 -375 -367 -375zM454 32c180 0 317 148 317 330c0 181 -137 330 -317 330s-317 -149 -317 -330c0 -182 137 -330 317 -330zM463 181c-104 0 -189 77 -189 187c0 108 89 188 190 188
c86 0 142 -48 142 -90c0 -25 -18 -44 -40 -44s-39 16 -39 38c0 8 4 15 7 17c-10 11 -37 23 -71 23c-70 0 -126 -57 -126 -131c0 -72 53 -131 126 -131c46 0 78 16 107 47l39 -41c-33 -40 -84 -63 -146 -63z" />
    <glyph glyph-name="published.lin" horiz-adv-x="874" 
d="M454 -13c-207 0 -367 168 -367 375s160 375 367 375s367 -168 367 -375s-160 -375 -367 -375zM454 32c180 0 317 148 317 330c0 181 -137 330 -317 330s-317 -149 -317 -330c0 -182 137 -330 317 -330zM327 180v53h42v256h-42v53h146c77 0 136 -45 136 -118
c0 -82 -58 -122 -143 -122h-37v-69h45v-53h-147zM471 352c48 0 76 28 76 72c0 39 -32 65 -78 65h-40v-136c5 0 17 -1 42 -1z" />
    <glyph glyph-name="registered.lin" horiz-adv-x="874" 
d="M454 -13c-207 0 -367 168 -367 375s160 375 367 375s367 -168 367 -375s-160 -375 -367 -375zM454 32c180 0 317 148 317 330c0 181 -137 330 -317 330s-317 -149 -317 -330c0 -182 137 -330 317 -330zM414 376h41c45 0 77 22 77 62s-29 60 -78 60h-40v-122zM313 189v53
h42v256h-42v53h140c82 0 141 -37 141 -109c0 -49 -27 -83 -69 -99l58 -101h41v-53h-80l-74 138h-56v-85h46v-53h-147z" />
    <glyph glyph-name="servicemark" unicode="&#x2120;" horiz-adv-x="758" 
d="M372 475l9 43h41l57 202h-43l10 43h100l37 -172l117 172h107l-10 -43h-43l-39 -202h42l-10 -43h-123l8 43h36l35 174l-123 -176h-23l-41 176l-48 -174h37l-10 -43h-123zM236 468c-57 0 -102 33 -102 71c0 24 15 41 36 41s31 -12 31 -29c0 -9 -5 -18 -10 -23
c8 -9 27 -16 50 -16c30 0 54 12 54 38c0 27 -27 38 -57 53c-34 18 -62 42 -62 80c0 48 45 86 108 86c58 0 97 -34 97 -65c0 -23 -13 -40 -35 -40c-19 0 -31 11 -31 28c0 8 5 16 9 20c-6 6 -25 13 -45 13c-27 0 -48 -14 -48 -35c0 -26 29 -37 56 -51c36 -19 63 -42 63 -82
c0 -53 -47 -89 -114 -89z" />
    <glyph glyph-name="trademark" unicode="&#x2122;" horiz-adv-x="769" 
d="M147 475l9 43h42l49 204h-64l-12 -48h-45l20 89h269l-20 -89h-47l13 48h-63l-49 -204h41l-10 -43h-133zM383 475l10 43h40l57 202h-43l10 43h100l37 -172l117 172h107l-10 -43h-43l-39 -202h42l-9 -43h-124l8 43h36l35 174l-123 -176h-23l-41 176l-48 -174h37l-9 -43
h-124z" />
    <glyph glyph-name="asterisk" unicode="*" horiz-adv-x="499" 
d="M386 412c-23 0 -44 21 -49 52l-20 118l-67 -99c-15 -20 -33 -30 -49 -30c-28 0 -44 22 -44 45c0 19 15 38 36 49l108 57l-117 35c-29 9 -46 27 -46 49c0 25 20 46 45 46c17 0 31 -9 44 -22l87 -84l-1 123c-1 36 18 60 44 60c35 0 62 -29 37 -79l-54 -109l116 38
c9 3 18 5 27 5c28 0 47 -21 47 -45c0 -33 -27 -50 -67 -44l-120 17l73 -97c10 -14 15 -30 15 -45c0 -23 -23 -40 -45 -40z" />
    <glyph glyph-name="dagger" unicode="&#x2020;" horiz-adv-x="566" 
d="M184 -2l88 449l-89 9c1 -40 -27 -67 -60 -67c-35 0 -61 27 -61 62c0 41 30 72 81 72c13 0 28 -2 44 -6l118 -24l9 176c3 47 21 75 60 75c51 0 63 -45 46 -87l-70 -168l116 26c14 3 25 5 37 5c45 0 74 -27 74 -68c0 -34 -25 -63 -61 -63c-33 0 -61 28 -60 66l-95 -13
l-131 -444h-46z" />
    <glyph glyph-name="daggerdbl" unicode="&#x2021;" horiz-adv-x="589" 
d="M273 76l-10 -150c-2 -44 -19 -71 -56 -71c-44 0 -60 41 -42 84l59 140l-94 -22c-12 -3 -24 -5 -35 -5c-43 0 -75 25 -75 62c0 33 24 59 59 59c31 0 58 -25 57 -60l80 9l62 180l18 177l-78 9c2 -37 -25 -62 -56 -62c-33 0 -59 26 -59 58c0 37 31 66 79 66
c12 0 26 -2 40 -5l100 -22l9 151c3 43 20 70 56 70c45 0 61 -40 43 -83l-59 -140l93 22c13 3 25 5 36 5c43 0 75 -25 75 -63c0 -33 -24 -59 -59 -59c-31 0 -58 25 -57 61l-81 -10l-62 -180l-17 -176l77 -10c-1 38 26 62 57 62c33 0 59 -25 59 -57c0 -38 -31 -67 -79 -67
c-12 0 -26 3 -41 5z" />
    <glyph glyph-name="asciicircum" unicode="^" horiz-adv-x="531" 
d="M158 406l-39 49l227 179l137 -186l-47 -41l-109 102z" />
    <glyph glyph-name="asciitilde" unicode="~" horiz-adv-x="559" 
d="M368 216c-45 0 -72 23 -97 47c-24 24 -38 35 -56 35c-27 0 -50 -22 -74 -76l-58 23c22 88 80 144 135 144c46 0 74 -24 99 -49c24 -23 38 -33 55 -33c27 0 49 20 73 76l59 -23c-25 -92 -81 -144 -136 -144z" />
    <glyph glyph-name="dollar" unicode="$" horiz-adv-x="588" 
d="M224 442c0 -37 33 -61 76 -83l52 165h-4c-77 0 -124 -32 -124 -82zM415 157c0 41 -38 66 -86 89l-54 -177h8c75 0 132 31 132 88zM218 -123l-66 18c4 17 24 79 36 116c-84 25 -147 79 -147 138c0 38 24 70 61 70c34 0 57 -28 57 -56c0 -19 -8 -34 -21 -45
c12 -16 41 -31 76 -40c15 50 44 141 59 193c-73 32 -146 71 -146 160c0 88 88 166 222 166c7 0 15 -1 22 -1l25 79l66 -18l-23 -73c74 -22 128 -70 128 -124c0 -43 -27 -69 -61 -69c-33 0 -57 25 -57 56c0 15 6 31 19 44c-10 10 -30 20 -55 26l-57 -185
c75 -35 156 -77 156 -164c0 -101 -90 -172 -222 -172c-12 0 -23 1 -35 2z" />
    <glyph glyph-name="dollar.lin" horiz-adv-x="623" 
d="M247 534c0 -50 35 -81 89 -110l69 222h-8c-90 -1 -150 -45 -150 -112zM468 193c0 56 -40 87 -102 117l-71 -232h16c89 0 157 42 157 115zM168 -94l33 108c-95 28 -162 90 -162 153c0 49 31 82 72 82c35 0 61 -30 61 -61c0 -21 -9 -42 -30 -56c16 -18 47 -35 89 -45
l77 250c-78 38 -156 92 -156 193c0 105 96 194 251 194c8 0 16 0 23 -1l31 102l71 -20l-29 -95c83 -24 141 -79 141 -134c0 -48 -29 -82 -69 -82c-35 0 -61 28 -61 62c0 16 7 35 27 51c-15 14 -40 24 -67 30l-75 -241c89 -44 169 -90 169 -196c0 -115 -100 -200 -259 -200
c-11 0 -21 0 -32 1l-35 -115z" />
    <glyph glyph-name="sterling" unicode="&#xa3;" horiz-adv-x="607" 
d="M588 467c0 -45 -29 -74 -63 -74c-30 0 -56 24 -56 56c0 18 8 33 19 43c-8 17 -52 32 -87 32c-98 0 -148 -74 -148 -182c0 -46 9 -82 13 -131h201l-17 -73h-186c-7 -60 -33 -119 -91 -166c30 1 53 -7 95 -20c43 -15 72 -22 101 -22c47 0 78 14 124 53l43 -48
c-54 -66 -116 -85 -174 -85c-52 0 -86 13 -134 32c-47 18 -76 27 -112 28c-34 -39 -77 -57 -108 -57c-33 0 -57 22 -57 49c0 46 64 79 144 73c53 50 77 109 84 163h-128l17 73h113c-4 48 -14 85 -14 132c0 148 90 260 234 260c111 0 187 -67 187 -136z" />
    <glyph glyph-name="sterling.lin" horiz-adv-x="639" 
d="M486 271h-177c-7 -61 -32 -118 -91 -161c34 -1 59 -7 85 -15c38 -12 65 -25 115 -25c34 0 69 11 115 49l45 -49c-53 -66 -118 -83 -170 -83c-64 0 -104 19 -149 35c-28 11 -60 20 -101 21c-27 -36 -73 -57 -101 -57c-37 0 -60 21 -60 49c0 42 49 78 137 75
c60 53 82 104 87 161h-127l17 74h110c-5 47 -14 84 -14 130c0 150 94 262 240 262c103 0 185 -62 185 -136c0 -47 -29 -74 -63 -74c-33 0 -60 26 -60 59c0 16 8 33 18 42c-5 15 -40 29 -80 29c-100 0 -152 -82 -152 -182c0 -46 10 -82 14 -130h194z" />
    <glyph glyph-name="Euro" unicode="&#x20ac;" horiz-adv-x="710" 
d="M52 259h73c0 27 4 53 10 78h-75l16 72h84c57 117 174 194 309 194c134 0 216 -85 216 -161c0 -46 -31 -80 -71 -80c-32 0 -59 24 -59 60c0 18 11 39 27 49c-15 26 -54 49 -116 49c-87 0 -165 -42 -210 -114h200l-16 -69h-213c-8 -25 -12 -51 -12 -78h217l-16 -69h-195
c24 -84 97 -118 179 -118c65 0 125 23 184 67l46 -63c-70 -56 -147 -86 -238 -86c-120 0 -235 60 -263 198h-93z" />
    <glyph glyph-name="Euro.lin" horiz-adv-x="811" 
d="M535 407h-263c-8 -32 -13 -66 -14 -100h254l-17 -75h-232c19 -94 83 -158 188 -158c81 0 146 30 214 98l58 -57c-72 -79 -167 -128 -279 -128c-144 0 -252 95 -276 242h-127l18 78h105c1 34 6 66 13 99h-95l18 78h102c62 147 195 252 354 252c154 0 242 -97 242 -180
c0 -48 -33 -83 -72 -83c-37 0 -63 26 -63 60c0 21 12 41 28 52c-12 30 -55 66 -140 66c-107 0 -201 -68 -252 -169h253z" />
    <glyph glyph-name="yen" unicode="&#xa5;" horiz-adv-x="596" 
d="M98 272l16 72h116l-78 177h-68l17 74h223l-16 -73h-76l83 -197l175 197h-79l18 73h228l-17 -74h-64l-162 -177h111l-16 -72h-167l-13 -58h167l-17 -71h-165l-15 -72h95l-16 -71h-269l16 71h92l16 72h-164l16 71h165l13 58h-165z" />
    <glyph glyph-name="yen.lin" horiz-adv-x="714" 
d="M129 298l16 72h143l-103 275h-76l19 79h252l-18 -79h-82l95 -271l219 271h-82l19 79h261l-19 -79h-69l-239 -275h134l-16 -72h-183l-16 -72h184l-16 -72h-184l-18 -80h102l-17 -74h-290l17 74h98l18 80h-180l16 72h181l16 72h-182z" />
    <glyph glyph-name="cent" unicode="&#xa2;" horiz-adv-x="571" 
d="M158 264c0 -58 27 -102 69 -126l102 340c-90 -17 -171 -100 -171 -214zM301 40c-13 0 -25 1 -37 2l-49 -164l-65 17l49 163c-80 32 -135 103 -135 201c0 154 129 289 287 296l36 120l64 -18l-32 -107c80 -17 134 -72 134 -130c0 -38 -27 -72 -66 -72c-28 0 -55 21 -55 57
c0 15 8 34 22 44c-12 13 -35 24 -62 29l-107 -360c8 -1 17 -1 26 -1c61 0 129 22 179 63l-3 -84c-48 -36 -116 -56 -186 -56z" />
    <glyph glyph-name="cent.lin" horiz-adv-x="545" 
d="M161 344c0 -55 25 -96 65 -119l96 320c-84 -16 -161 -93 -161 -201zM297 131c-12 0 -24 1 -35 2l-48 -156l-62 16l46 156c-76 30 -128 98 -128 190c0 146 122 274 273 282l36 118l62 -17l-32 -107c75 -16 127 -68 127 -123c0 -37 -26 -70 -63 -70c-28 0 -54 21 -54 55
c0 14 8 32 21 42c-11 12 -32 22 -57 27l-102 -340c8 -1 16 -1 25 -1c58 0 122 21 170 60l-2 -81c-46 -34 -110 -53 -177 -53z" />
    <glyph glyph-name="numbersign" unicode="#" horiz-adv-x="666" 
d="M291 380l-43 -158h146l43 158h-146zM97 378l18 76h116l39 141h83l-39 -141h142l39 141h83l-39 -141h106l-18 -76h-109l-42 -153h114l-18 -77h-117l-41 -148h-84l41 148h-142l-40 -148h-83l41 148h-106l19 77h108l42 153h-113z" />
    <glyph glyph-name="numbersign.lin" horiz-adv-x="672" 
d="M314 446l-51 -180h138l50 180h-137zM610 723l-56 -199h131l-22 -81h-131l-49 -174h132l-22 -81h-133l-52 -188h-84l52 188h-132l-52 -188h-84l52 188h-130l22 81h131l48 174h-131l22 81h132l56 199h84l-56 -199h132l56 199h84z" />
    <glyph glyph-name="paragraph" unicode="&#xb6;" horiz-adv-x="691" 
d="M157 0l19 78h93s36 142 37 142c-69 0 -109 10 -143 31c-66 12 -99 63 -99 122c0 135 127 209 283 209l360 -1l-19 -80h-91l-107 -420h94l-19 -81h-408zM347 77h65l107 427h-64z" />
    <glyph glyph-name="paragraph.lin" horiz-adv-x="782" 
d="M214 0l19 84h102l40 170h-30c-167 0 -257 84 -257 211c0 144 127 259 320 259h433l-20 -84h-90l-128 -556h90l-20 -84h-459zM427 79h83l130 566h-82z" />
    <glyph glyph-name="section" unicode="&#xa7;" horiz-adv-x="505" 
d="M253 235l19 -8c67 15 99 30 99 62c0 25 -35 45 -93 69c-9 3 -17 7 -25 10c-62 -14 -94 -35 -94 -63c0 -27 39 -46 94 -70zM319 539c-40 0 -78 -13 -78 -41c0 -30 43 -47 104 -75c66 -31 118 -62 118 -117c0 -60 -52 -95 -131 -111c30 -21 48 -47 48 -85
c0 -63 -58 -120 -168 -120c-108 0 -161 54 -161 102c0 28 21 51 50 51c27 0 47 -21 47 -47c0 -7 -3 -18 -8 -24c14 -9 43 -16 71 -16c40 0 77 13 77 41c0 27 -39 47 -101 75c-69 30 -121 61 -121 120c0 55 51 93 134 106c-31 23 -49 49 -49 85c0 62 56 121 168 121
c104 0 160 -55 160 -103c0 -29 -22 -50 -50 -50c-27 0 -47 21 -47 47c0 7 2 18 7 24c-11 8 -40 17 -70 17z" />
    <glyph glyph-name="section.lin" horiz-adv-x="581" 
d="M349 443c-12 4 -23 9 -34 14c-88 -17 -136 -46 -136 -87c0 -39 49 -61 118 -89l34 -14c86 17 136 45 136 88c0 39 -51 62 -118 88zM86 362c0 68 68 111 163 130c-40 27 -61 58 -61 102c0 78 77 143 201 143c80 0 134 -25 163 -58c19 -20 28 -43 28 -64
c0 -32 -23 -59 -55 -59s-54 25 -54 53c0 12 3 24 12 34c-3 4 -9 8 -19 12c-19 7 -48 12 -76 12c-59 0 -108 -24 -108 -59c0 -41 46 -62 122 -94c79 -34 158 -70 158 -151c0 -70 -68 -111 -164 -131c38 -26 61 -58 61 -102c0 -78 -76 -143 -200 -143c-82 0 -136 27 -165 60
c-18 20 -27 42 -27 62c0 32 24 59 56 59s54 -25 54 -53c0 -11 -4 -24 -12 -34c2 -3 8 -7 17 -10c19 -8 48 -14 78 -14c59 0 107 24 107 60c0 41 -46 61 -121 93c-80 34 -158 70 -158 152z" />
    <glyph glyph-name="ordfeminine" unicode="&#xaa;" horiz-adv-x="430" 
d="M210 520c60 0 105 65 105 129c0 43 -22 73 -67 73c-57 0 -102 -62 -102 -128c0 -44 23 -74 64 -74zM188 466c-61 0 -105 47 -105 121c0 103 74 190 159 190c46 0 78 -29 89 -67l19 63h57l-52 -213c-3 -12 -5 -23 -5 -30c0 -13 5 -19 17 -19c11 0 25 10 40 47l29 -12
c-18 -57 -50 -79 -83 -79c-38 0 -59 23 -60 59c-26 -39 -64 -60 -105 -60zM48 341l14 56h325l-13 -56h-326z" />
    <glyph glyph-name="ordmasculine" unicode="&#xba;" horiz-adv-x="408" 
d="M238 468c-86 0 -134 60 -134 132c0 93 70 178 169 178c86 0 133 -60 133 -132c0 -93 -70 -178 -168 -178zM241 521c59 0 105 54 105 124c0 49 -33 80 -76 80c-59 0 -105 -54 -105 -123c0 -50 33 -81 76 -81zM59 341l13 56h282l-14 -56h-281z" />
    <glyph glyph-name="ordfeminine.lin" horiz-adv-x="409" 
d="M225 588c60 0 105 65 105 129c0 43 -22 73 -67 73c-57 0 -102 -62 -102 -128c0 -44 23 -74 64 -74zM203 534c-61 0 -105 47 -105 121c0 103 74 190 159 190c46 0 78 -29 89 -67l19 63h57l-52 -213c-3 -12 -5 -23 -5 -30c0 -13 5 -19 17 -19c11 0 25 10 40 47l29 -12
c-18 -57 -50 -79 -83 -79c-38 0 -59 23 -60 59c-26 -39 -64 -60 -105 -60zM63 409l14 56h325l-13 -56h-326z" />
    <glyph glyph-name="ordmasculine.lin" horiz-adv-x="388" 
d="M253 536c-86 0 -134 60 -134 132c0 93 70 178 169 178c86 0 133 -60 133 -132c0 -93 -70 -178 -168 -178zM256 589c59 0 105 54 105 124c0 49 -33 80 -76 80c-59 0 -105 -54 -105 -123c0 -50 33 -81 76 -81zM74 409l13 56h282l-14 -56h-281z" />
    <glyph glyph-name="degree" unicode="&#xb0;" horiz-adv-x="392" 
d="M239 476c-84 0 -130 59 -130 129c0 87 69 173 165 173c83 0 129 -60 129 -129c0 -88 -68 -173 -164 -173zM242 534c52 0 95 55 95 113c0 45 -29 73 -66 73c-53 0 -96 -56 -96 -114c0 -44 29 -72 67 -72z" />
    <glyph glyph-name="degree.lin" horiz-adv-x="373" 
d="M254 544c-84 0 -130 59 -130 129c0 87 69 173 165 173c83 0 129 -60 129 -129c0 -88 -68 -173 -164 -173zM257 602c52 0 95 55 95 113c0 45 -29 73 -66 73c-53 0 -96 -56 -96 -114c0 -44 29 -72 67 -72z" />
    <glyph glyph-name="percent" unicode="%" horiz-adv-x="760" 
d="M89 -4l-38 43c47 40 200 170 326 281c127 112 282 252 323 290l38 -44c-47 -39 -201 -171 -327 -282c-127 -111 -280 -251 -322 -288zM206 314c-76 0 -124 53 -124 125c0 85 67 165 157 165c75 0 124 -53 124 -125c0 -85 -67 -165 -157 -165zM209 371c44 0 87 50 87 109
c0 38 -23 67 -60 67c-44 0 -87 -50 -87 -108c0 -39 22 -68 60 -68zM538 -9c-75 0 -124 53 -124 125c0 85 67 165 157 165c75 0 124 -53 124 -125c0 -85 -67 -165 -157 -165zM541 48c44 0 87 50 87 109c0 38 -23 67 -60 67c-44 0 -87 -50 -87 -109c0 -38 22 -67 60 -67z" />
    <glyph glyph-name="perthousand" unicode="&#x2030;" horiz-adv-x="1056" 
d="M89 -4l-38 43c47 40 200 170 326 281c127 112 282 252 323 290l38 -44c-47 -39 -201 -171 -327 -282c-127 -111 -280 -251 -322 -288zM206 314c-76 0 -124 53 -124 125c0 85 67 165 157 165c75 0 124 -53 124 -125c0 -85 -67 -165 -157 -165zM209 371c44 0 87 50 87 109
c0 38 -23 67 -60 67c-44 0 -87 -50 -87 -108c0 -39 22 -68 60 -68zM857 -9c-75 0 -124 53 -124 125c0 85 67 165 158 165c75 0 124 -53 124 -125c0 -85 -67 -165 -158 -165zM538 -9c-75 0 -124 53 -124 125c0 85 67 165 157 165c75 0 124 -53 124 -125
c0 -85 -67 -165 -157 -165zM860 48c45 0 88 50 88 109c0 38 -23 67 -60 67c-44 0 -88 -50 -88 -109c0 -38 23 -67 60 -67zM541 48c44 0 87 50 87 109c0 38 -23 67 -60 67c-44 0 -87 -50 -87 -109c0 -38 22 -67 60 -67z" />
    <glyph glyph-name="percent.lin" horiz-adv-x="786" 
d="M87 -5l-42 39c55 49 246 238 363 347c116 108 306 301 356 350l40 -40c-54 -50 -244 -236 -359 -345c-117 -109 -308 -302 -358 -351zM251 406c-82 0 -135 60 -135 139c0 95 74 185 172 185c82 0 135 -60 135 -140c0 -95 -74 -184 -172 -184zM256 467
c58 0 100 60 100 118c0 49 -29 84 -73 84c-58 0 -100 -60 -100 -119c0 -50 29 -83 73 -83zM551 -9c-82 0 -135 61 -135 140c0 94 74 185 172 185c82 0 136 -61 136 -140c0 -95 -75 -185 -173 -185zM556 52c59 0 101 61 101 119c0 49 -30 84 -73 84c-59 0 -101 -61 -101 -119
c0 -50 29 -84 73 -84z" />
    <glyph glyph-name="perthousand.lin" horiz-adv-x="1157" 
d="M87 -5l-42 39c55 49 246 238 363 347c116 108 306 301 356 350l40 -40c-54 -50 -244 -236 -359 -345c-117 -109 -308 -302 -358 -351zM251 406c-82 0 -135 59 -135 137c0 92 74 182 172 182c82 0 135 -60 135 -137c0 -94 -74 -182 -172 -182zM256 467
c58 0 100 59 100 116c0 47 -29 80 -73 80c-58 0 -100 -59 -100 -115c0 -49 29 -81 73 -81zM923 -9c-82 0 -135 60 -135 137c0 94 74 183 172 183c82 0 135 -60 135 -137c0 -93 -74 -183 -172 -183zM551 -9c-82 0 -135 60 -135 137c0 94 74 183 173 183
c82 0 135 -60 135 -137c0 -93 -74 -183 -173 -183zM928 52c58 0 101 60 101 116c0 49 -30 82 -74 82c-59 0 -101 -60 -101 -116c0 -49 30 -82 74 -82zM556 52c59 0 102 60 102 116c0 49 -30 82 -74 82c-59 0 -101 -60 -101 -116c0 -49 29 -82 73 -82z" />
    <glyph glyph-name="quotedbl" unicode="&#x22;" horiz-adv-x="427" 
d="M120 474l21 235c4 44 32 68 64 68c36 0 62 -27 62 -61c0 -10 -3 -23 -8 -33l-101 -209h-38zM316 474l21 235c4 44 33 68 65 68c35 0 61 -27 61 -61c0 -10 -3 -23 -8 -33l-101 -209h-38z" />
    <glyph glyph-name="quotesingle" unicode="'" horiz-adv-x="230" 
d="M120 474l21 235c4 44 32 68 64 68c36 0 62 -27 62 -61c0 -10 -3 -23 -8 -33l-101 -209h-38z" />
    <glyph glyph-name="quotedbl.lin" horiz-adv-x="411" 
d="M135 542l21 235c4 44 32 68 64 68c36 0 62 -27 62 -61c0 -10 -3 -23 -8 -33l-101 -209h-38zM331 542l21 235c4 44 33 68 65 68c35 0 61 -27 61 -61c0 -10 -3 -23 -8 -33l-101 -209h-38z" />
    <glyph glyph-name="quotesingle.lin" horiz-adv-x="222" 
d="M135 542l21 235c4 44 32 68 64 68c36 0 62 -27 62 -61c0 -10 -3 -23 -8 -33l-101 -209h-38z" />
    <glyph glyph-name="plus" unicode="+" horiz-adv-x="513" 
d="M361 511l-36 -153h157l-19 -81h-157l-38 -165h-81l38 165h-156l19 81h156l36 153h81z" />
    <glyph glyph-name="plus.lin" horiz-adv-x="482" 
d="M376 579l-36 -153h157l-19 -81h-157l-38 -165h-81l38 165h-156l19 81h156l36 153h81z" />
    <glyph glyph-name="minus" unicode="&#x2212;" horiz-adv-x="513" 
d="M69 277l19 81h394l-19 -81h-394z" />
    <glyph glyph-name="minus.lin" horiz-adv-x="489" 
d="M84 345l19 81h394l-19 -81h-394z" />
    <glyph glyph-name="divide" unicode="&#xf7;" horiz-adv-x="513" 
d="M313 418c-33 0 -61 29 -61 63c0 33 29 62 62 62s61 -29 61 -62c0 -34 -29 -63 -62 -63zM69 277l19 81h394l-19 -81h-394zM238 92c-33 0 -61 28 -61 62s29 62 62 62s61 -28 61 -62s-29 -62 -62 -62z" />
    <glyph glyph-name="divide.lin" horiz-adv-x="489" 
d="M328 486c-33 0 -61 29 -61 63c0 33 29 62 62 62s61 -29 61 -62c0 -34 -29 -63 -62 -63zM84 345l19 81h394l-19 -81h-394zM253 160c-33 0 -61 28 -61 62s29 62 62 62s61 -28 61 -62s-29 -62 -62 -62z" />
    <glyph glyph-name="equal" unicode="=" horiz-adv-x="513" 
d="M112 368l19 81h359l-18 -81h-360zM67 174l19 82h359l-18 -82h-360z" />
    <glyph glyph-name="equal.lin" horiz-adv-x="482" 
d="M111 436l19 81h359l-18 -81h-360zM66 242l19 82h359l-18 -82h-360z" />
    <glyph glyph-name="multiply" unicode="&#xd7;" horiz-adv-x="513" 
d="M193 503l93 -126l146 121l48 -63l-146 -122l95 -128l-67 -53l-94 127l-145 -121l-49 62l147 122l-95 129z" />
    <glyph glyph-name="multiply.lin" horiz-adv-x="489" 
d="M187 571l93 -126l146 121l48 -63l-146 -122l95 -128l-67 -53l-94 127l-145 -121l-49 62l147 122l-95 129z" />
    <glyph glyph-name="less" unicode="&#x3c;" horiz-adv-x="525" 
d="M321 89l-248 201l11 46l336 199l40 -61l-284 -168l195 -159z" />
    <glyph glyph-name="less.lin" horiz-adv-x="471" 
d="M334 157l-248 201l11 46l336 199l40 -61l-284 -168l195 -159z" />
    <glyph glyph-name="greater" unicode="&#x3e;" horiz-adv-x="495" 
d="M108 91l-40 61l284 168l-195 159l50 59l248 -202l-11 -46z" />
    <glyph glyph-name="greater.lin" horiz-adv-x="471" 
d="M121 159l-40 61l284 168l-195 159l50 59l248 -202l-11 -46z" />
    <glyph glyph-name="plusminus" unicode="&#xb1;" horiz-adv-x="513" 
d="M383 586l-37 -157h157l-18 -80h-157l-36 -156h-81l36 156h-156l19 80h155l37 157h81zM15 19l18 80h393l-18 -80h-393z" />
    <glyph glyph-name="plusminus.lin" horiz-adv-x="489" 
d="M391 654l-37 -157h157l-18 -80h-157l-36 -156h-81l36 156h-156l19 80h155l37 157h81zM23 87l18 80h393l-18 -80h-393z" />
    <glyph glyph-name="onehalf" unicode="&#xbd;" horiz-adv-x="885" 
d="M190 -15l-37 31c50 57 199 231 298 349c99 117 245 297 290 353l37 -31c-49 -57 -198 -231 -298 -349c-99 -117 -245 -297 -290 -353zM65 308l13 57h107l64 278l-104 -23l-3 57l152 35l31 -14l-77 -333h105l-13 -57h-275zM497 0l-12 29c37 92 117 144 192 182
c58 30 89 54 89 89c0 30 -27 49 -69 49c-38 0 -58 -11 -67 -22c7 -8 11 -17 11 -28c0 -22 -17 -39 -39 -39c-23 0 -40 18 -40 43c0 54 64 103 142 103c73 0 128 -40 128 -105c0 -64 -62 -101 -131 -137c-64 -33 -109 -64 -136 -111h163l15 64h54l-27 -117h-273z" />
    <glyph glyph-name="onethird" unicode="&#x2153;" horiz-adv-x="885" 
d="M200 -15l-37 31c50 57 199 231 298 349c99 117 245 297 290 353l37 -31c-49 -57 -198 -231 -298 -349c-99 -117 -245 -297 -290 -353zM76 308l13 57h107l64 278l-104 -23l-3 57l152 35l31 -14l-77 -333h105l-13 -57h-275zM648 -6c-67 0 -141 33 -141 94c0 24 18 44 41 44
c22 0 38 -17 38 -38c0 -10 -5 -20 -11 -25c9 -11 33 -21 73 -21c55 0 88 27 88 66c0 28 -30 62 -90 62h-25l14 58h24c63 0 105 26 105 63c0 33 -34 53 -76 53c-20 0 -36 -5 -47 -12c4 -4 7 -11 7 -17c0 -22 -18 -38 -39 -38c-22 0 -39 17 -39 41c0 38 43 80 127 80
c85 0 135 -49 135 -100c0 -61 -48 -96 -117 -102c58 -15 86 -49 86 -92c0 -78 -77 -116 -153 -116z" />
    <glyph glyph-name="twothirds" unicode="&#x2154;" horiz-adv-x="885" 
d="M206 -15l-37 31c50 57 199 231 298 349c99 117 245 297 290 353l37 -31c-49 -57 -198 -231 -298 -349c-99 -117 -245 -297 -290 -353zM83 308l-12 29c37 92 117 144 192 182c58 30 89 54 89 89c0 30 -27 49 -69 49c-38 0 -58 -11 -67 -22c7 -8 11 -17 11 -28
c0 -22 -17 -39 -39 -39c-23 0 -40 18 -40 43c0 54 64 103 142 103c73 0 128 -40 128 -105c0 -64 -62 -101 -131 -137c-64 -33 -109 -64 -136 -111h163l15 64h54l-27 -117h-273zM652 -6c-67 0 -141 33 -141 94c0 24 18 44 41 44c22 0 38 -17 38 -38c0 -10 -5 -20 -11 -25
c9 -11 33 -21 73 -21c55 0 88 27 88 66c0 28 -30 62 -90 62h-25l14 58h24c63 0 105 26 105 63c0 33 -34 53 -76 53c-20 0 -36 -5 -47 -12c4 -4 7 -11 7 -17c0 -22 -18 -38 -39 -38c-22 0 -39 17 -39 41c0 38 43 80 127 80c85 0 135 -49 135 -100c0 -61 -48 -96 -117 -102
c58 -15 86 -49 86 -92c0 -78 -77 -116 -153 -116z" />
    <glyph glyph-name="onequarter" unicode="&#xbc;" horiz-adv-x="885" 
d="M207 -15l-37 31c50 57 199 231 298 349c99 117 245 297 290 353l37 -31c-49 -57 -198 -231 -298 -349c-99 -117 -245 -297 -290 -353zM77 308l13 57h107l64 278l-104 -23l-3 57l152 35l31 -14l-77 -333h105l-13 -57h-275zM662 50l16 67h-180l-8 30l260 265l39 -36
l-212 -211h113l18 69l63 24l-21 -89h65l-13 -52h-64l-15 -67h50l-12 -50h-180l12 50h69z" />
    <glyph glyph-name="threequarters" unicode="&#xbe;" horiz-adv-x="885" 
d="M205 -15l-37 31c50 57 199 231 298 349c99 117 245 297 290 353l37 -31c-49 -57 -198 -231 -298 -349c-99 -117 -245 -297 -290 -353zM234 302c-67 0 -141 33 -141 94c0 24 18 44 41 44c22 0 38 -17 38 -38c0 -10 -5 -20 -11 -25c9 -11 33 -21 73 -21c55 0 88 27 88 66
c0 28 -30 62 -90 62h-25l14 58h24c63 0 105 26 105 63c0 33 -34 53 -76 53c-20 0 -36 -5 -47 -12c4 -4 7 -11 7 -17c0 -22 -18 -38 -39 -38c-22 0 -39 17 -39 41c0 38 43 80 127 80c85 0 135 -49 135 -100c0 -61 -48 -96 -117 -102c58 -15 86 -49 86 -92
c0 -78 -77 -116 -153 -116zM661 50l16 67h-180l-8 30l260 265l39 -36l-212 -211h113l18 69l63 24l-21 -89h65l-13 -52h-64l-15 -67h50l-12 -50h-180l12 50h69z" />
    <glyph glyph-name="onefifth" unicode="&#x2155;" horiz-adv-x="885" 
d="M196 -15l-37 31c50 57 199 231 298 349c99 117 245 297 290 353l37 -31c-49 -57 -198 -231 -298 -349c-99 -117 -245 -297 -290 -353zM76 308l13 57h107l64 278l-104 -23l-3 57l152 35l31 -14l-77 -333h105l-13 -57h-275zM627 -8c-73 0 -126 41 -126 81c0 23 15 43 40 43
c22 0 39 -16 39 -38c0 -6 -1 -12 -4 -17c9 -7 26 -13 55 -13c61 0 109 40 109 89c0 41 -28 65 -75 65c-31 0 -59 -8 -82 -18l-34 23l61 191h225l-13 -59h-173l-33 -100c18 7 40 14 73 14c61 0 113 -43 113 -111c0 -84 -82 -150 -175 -150z" />
    <glyph glyph-name="twofifths" unicode="&#x2156;" horiz-adv-x="885" 
d="M214 -15l-37 31c50 57 199 231 298 349c99 117 245 297 290 353l37 -31c-49 -57 -198 -231 -298 -349c-99 -117 -245 -297 -290 -353zM99 308l-12 29c37 92 117 144 192 182c58 30 89 54 89 89c0 30 -27 49 -69 49c-38 0 -58 -11 -67 -22c7 -8 11 -17 11 -28
c0 -22 -17 -39 -39 -39c-23 0 -40 18 -40 43c0 54 64 103 142 103c73 0 128 -40 128 -105c0 -64 -62 -101 -131 -137c-64 -33 -109 -64 -136 -111h163l15 64h54l-27 -117h-273zM635 -8c-73 0 -126 41 -126 81c0 23 15 43 40 43c22 0 39 -16 39 -38c0 -6 -1 -12 -4 -17
c9 -7 26 -13 55 -13c61 0 109 40 109 89c0 41 -28 65 -75 65c-31 0 -59 -8 -82 -18l-34 23l61 191h225l-13 -59h-173l-33 -100c18 7 40 14 73 14c61 0 113 -43 113 -111c0 -84 -82 -150 -175 -150z" />
    <glyph glyph-name="threefifths" unicode="&#x2157;" horiz-adv-x="885" 
d="M194 -15l-37 31c50 57 199 231 298 349c99 117 245 297 290 353l37 -31c-49 -57 -198 -231 -298 -349c-99 -117 -245 -297 -290 -353zM237 302c-67 0 -141 33 -141 94c0 24 18 44 41 44c22 0 38 -17 38 -38c0 -10 -5 -20 -11 -25c9 -11 33 -21 73 -21c55 0 88 27 88 66
c0 28 -30 62 -90 62h-25l14 58h24c63 0 105 26 105 63c0 33 -34 53 -76 53c-20 0 -36 -5 -47 -12c4 -4 7 -11 7 -17c0 -22 -18 -38 -39 -38c-22 0 -39 17 -39 41c0 38 43 80 127 80c85 0 135 -49 135 -100c0 -61 -48 -96 -117 -102c58 -15 86 -49 86 -92
c0 -78 -77 -116 -153 -116zM628 -8c-73 0 -126 41 -126 81c0 23 15 43 40 43c22 0 39 -16 39 -38c0 -6 -1 -12 -4 -17c9 -7 26 -13 55 -13c61 0 109 40 109 89c0 41 -28 65 -75 65c-31 0 -59 -8 -82 -18l-34 23l61 191h225l-13 -59h-173l-33 -100c18 7 40 14 73 14
c61 0 113 -43 113 -111c0 -84 -82 -150 -175 -150z" />
    <glyph glyph-name="fourfifths" unicode="&#x2158;" horiz-adv-x="885" 
d="M261 358l16 67h-180l-8 30l260 265l39 -36l-212 -211h113l18 69l63 24l-21 -89h65l-13 -52h-64l-15 -67h50l-12 -50h-180l12 50h69zM203 -15l-37 31c50 57 199 231 298 349c99 117 245 297 290 353l37 -31c-49 -57 -198 -231 -298 -349c-99 -117 -245 -297 -290 -353z
M634 -8c-73 0 -126 41 -126 81c0 23 15 43 40 43c22 0 39 -16 39 -38c0 -6 -1 -12 -4 -17c9 -7 26 -13 55 -13c61 0 109 40 109 89c0 41 -28 65 -75 65c-31 0 -59 -8 -82 -18l-34 23l61 191h225l-13 -59h-173l-33 -100c18 7 40 14 73 14c61 0 113 -43 113 -111
c0 -84 -82 -150 -175 -150z" />
    <glyph glyph-name="onesixth" unicode="&#x2159;" horiz-adv-x="885" 
d="M191 -15l-37 31c50 57 199 231 298 349c99 117 245 297 290 353l37 -31c-49 -57 -198 -231 -298 -349c-99 -117 -245 -297 -290 -353zM70 308l13 57h107l64 278l-104 -23l-3 57l152 35l31 -14l-77 -333h105l-13 -57h-275zM545 29c-25 25 -38 61 -38 110
c0 80 32 163 90 216c35 31 74 51 124 51c59 0 105 -34 105 -74c0 -24 -18 -42 -40 -42c-19 0 -37 16 -37 38c0 6 2 12 6 17c-7 4 -16 8 -34 8c-28 0 -60 -12 -87 -37c-29 -27 -53 -73 -63 -117c26 33 65 53 106 53c71 0 122 -47 122 -112c0 -83 -72 -148 -158 -148
c-41 0 -74 15 -96 37zM640 48c57 0 95 41 95 87c0 37 -27 66 -70 66c-53 0 -96 -44 -96 -87c0 -18 7 -34 19 -46c13 -13 31 -20 52 -20z" />
    <glyph glyph-name="fivesixths" unicode="&#x215a;" horiz-adv-x="885" 
d="M187 -15l-37 31c50 57 199 231 298 349c99 117 245 297 290 353l37 -31c-49 -57 -198 -231 -298 -349c-99 -117 -245 -297 -290 -353zM216 300c-73 0 -126 41 -126 81c0 23 15 43 40 43c22 0 39 -16 39 -38c0 -6 -1 -12 -4 -17c9 -7 26 -13 55 -13c61 0 109 40 109 89
c0 41 -28 65 -75 65c-31 0 -59 -8 -82 -18l-34 23l61 191h225l-13 -59h-173l-33 -100c18 7 40 14 73 14c61 0 113 -43 113 -111c0 -84 -82 -150 -175 -150zM543 29c-25 25 -38 61 -38 110c0 80 32 163 90 216c35 31 74 51 124 51c59 0 105 -34 105 -74
c0 -24 -18 -42 -40 -42c-19 0 -37 16 -37 38c0 6 2 12 6 17c-7 4 -16 8 -34 8c-28 0 -60 -12 -87 -37c-29 -27 -53 -73 -63 -117c26 33 65 53 106 53c71 0 122 -47 122 -112c0 -83 -72 -148 -158 -148c-41 0 -74 15 -96 37zM638 48c57 0 95 41 95 87c0 37 -27 66 -70 66
c-53 0 -96 -44 -96 -87c0 -18 7 -34 19 -46c13 -13 31 -20 52 -20z" />
    <glyph glyph-name="oneeighth" unicode="&#x215b;" horiz-adv-x="885" 
d="M186 -15l-37 31c50 57 199 231 298 349c99 117 245 297 290 353l37 -31c-49 -57 -198 -231 -298 -349c-99 -117 -245 -297 -290 -353zM73 308l13 57h107l64 278l-104 -23l-3 57l152 35l31 -14l-77 -333h105l-13 -57h-275zM648 -7c-87 0 -146 50 -146 110
c0 58 41 97 104 110c-43 20 -58 52 -58 83c0 52 53 108 144 108c79 0 136 -46 136 -108c0 -49 -35 -83 -91 -96c38 -17 63 -48 63 -87c0 -63 -54 -120 -152 -120zM685 229c45 0 78 27 78 64c0 32 -29 58 -72 58c-45 0 -79 -26 -79 -62c0 -34 33 -60 73 -60zM648 48
c51 0 87 28 87 68c0 33 -28 63 -79 63c-54 0 -89 -29 -89 -69c0 -35 32 -62 81 -62z" />
    <glyph glyph-name="threeeighths" unicode="&#x215c;" horiz-adv-x="885" 
d="M187 -15l-37 31c50 57 199 231 298 349c99 117 245 297 290 353l37 -31c-49 -57 -198 -231 -298 -349c-99 -117 -245 -297 -290 -353zM235 302c-67 0 -141 33 -141 94c0 24 18 44 41 44c22 0 38 -17 38 -38c0 -10 -5 -20 -11 -25c9 -11 33 -21 73 -21c55 0 88 27 88 66
c0 28 -30 62 -90 62h-25l14 58h24c63 0 105 26 105 63c0 33 -34 53 -76 53c-20 0 -36 -5 -47 -12c4 -4 7 -11 7 -17c0 -22 -18 -38 -39 -38c-22 0 -39 17 -39 41c0 38 43 80 127 80c85 0 135 -49 135 -100c0 -61 -48 -96 -117 -102c58 -15 86 -49 86 -92
c0 -78 -77 -116 -153 -116zM653 -7c-87 0 -146 50 -146 110c0 58 41 97 104 110c-43 20 -58 52 -58 83c0 52 53 108 144 108c79 0 136 -46 136 -108c0 -49 -35 -83 -91 -96c38 -17 63 -48 63 -87c0 -63 -54 -120 -152 -120zM690 229c45 0 78 27 78 64c0 32 -29 58 -72 58
c-45 0 -79 -26 -79 -62c0 -34 33 -60 73 -60zM653 48c51 0 87 28 87 68c0 33 -28 63 -79 63c-54 0 -89 -29 -89 -69c0 -35 32 -62 81 -62z" />
    <glyph glyph-name="fiveeighths" unicode="&#x215d;" horiz-adv-x="885" 
d="M178 -15l-37 31c50 57 199 231 298 349c99 117 245 297 290 353l37 -31c-49 -57 -198 -231 -298 -349c-99 -117 -245 -297 -290 -353zM216 300c-73 0 -126 41 -126 81c0 23 15 43 40 43c22 0 39 -16 39 -38c0 -6 -1 -12 -4 -17c9 -7 26 -13 55 -13c61 0 109 40 109 89
c0 41 -28 65 -75 65c-31 0 -59 -8 -82 -18l-34 23l61 191h225l-13 -59h-173l-33 -100c18 7 40 14 73 14c61 0 113 -43 113 -111c0 -84 -82 -150 -175 -150zM642 -7c-87 0 -146 50 -146 110c0 58 41 97 104 110c-43 20 -58 52 -58 83c0 52 53 108 144 108
c79 0 136 -46 136 -108c0 -49 -35 -83 -91 -96c38 -17 63 -48 63 -87c0 -63 -54 -120 -152 -120zM679 229c45 0 78 27 78 64c0 32 -29 58 -72 58c-45 0 -79 -26 -79 -62c0 -34 33 -60 73 -60zM642 48c51 0 87 28 87 68c0 33 -28 63 -79 63c-54 0 -89 -29 -89 -69
c0 -35 32 -62 81 -62z" />
    <glyph glyph-name="seveneighths" unicode="&#x215e;" horiz-adv-x="885" 
d="M151 -15l-37 31c50 57 199 231 298 349c99 117 245 297 290 353l37 -31c-49 -57 -198 -231 -298 -349c-99 -117 -245 -297 -290 -353zM152 308l238 345h-161l-17 -72h-57l29 125h268l17 -34l-245 -364h-72zM638 -7c-87 0 -146 50 -146 110c0 58 41 97 104 110
c-43 20 -58 52 -58 83c0 52 53 108 144 108c79 0 136 -46 136 -108c0 -49 -35 -83 -91 -96c38 -17 63 -48 63 -87c0 -63 -54 -120 -152 -120zM675 229c45 0 78 27 78 64c0 32 -29 58 -72 58c-45 0 -79 -26 -79 -62c0 -34 33 -60 73 -60zM638 48c51 0 87 28 87 68
c0 33 -28 63 -79 63c-54 0 -89 -29 -89 -69c0 -35 32 -62 81 -62z" />
    <glyph glyph-name="zero.sup" unicode="&#x2070;" horiz-adv-x="423" 
d="M279 474c-81 0 -130 60 -130 159c0 136 79 253 184 253c81 0 129 -60 129 -158c0 -136 -78 -254 -183 -254zM282 531c68 0 116 100 116 198c0 61 -22 100 -68 100c-68 0 -117 -100 -117 -197c0 -61 22 -101 69 -101z" />
    <glyph glyph-name="one.sup" unicode="&#xb9;" horiz-adv-x="423" 
d="M134 482l13 57h107l64 278l-104 -23l-3 57l152 35l31 -14l-77 -333h105l-13 -57h-275z" />
    <glyph glyph-name="two.sup" unicode="&#xb2;" horiz-adv-x="423" 
d="M132 482l-12 29c37 92 117 144 192 182c58 30 89 54 89 89c0 30 -27 49 -69 49c-38 0 -58 -11 -67 -22c7 -8 11 -17 11 -28c0 -22 -17 -39 -39 -39c-23 0 -40 18 -40 43c0 54 64 103 142 103c73 0 128 -40 128 -105c0 -64 -62 -101 -131 -137c-64 -33 -109 -64 -136 -111
h163l15 64h54l-27 -117h-273z" />
    <glyph glyph-name="three.sup" unicode="&#xb3;" horiz-adv-x="423" 
d="M280 476c-67 0 -141 33 -141 94c0 24 18 44 41 44c22 0 38 -17 38 -38c0 -10 -5 -20 -11 -25c9 -11 33 -21 73 -21c55 0 88 27 88 66c0 28 -30 62 -90 62h-25l14 58h24c63 0 105 26 105 63c0 33 -34 53 -76 53c-20 0 -36 -5 -47 -12c4 -4 7 -11 7 -17
c0 -22 -18 -38 -39 -38c-22 0 -39 17 -39 41c0 38 43 80 127 80c85 0 135 -49 135 -100c0 -61 -48 -96 -117 -102c58 -15 86 -49 86 -92c0 -78 -77 -116 -153 -116z" />
    <glyph glyph-name="four.sup" unicode="&#x2074;" horiz-adv-x="423" 
d="M303 532l16 67h-180l-8 30l260 265l39 -36l-212 -211h113l18 69l63 24l-21 -89h65l-13 -52h-64l-15 -67h50l-12 -50h-180l12 50h69z" />
    <glyph glyph-name="five.sup" unicode="&#x2075;" horiz-adv-x="423" 
d="M261 474c-73 0 -126 41 -126 81c0 23 15 43 40 43c22 0 39 -16 39 -38c0 -6 -1 -12 -4 -17c9 -7 26 -13 55 -13c61 0 109 40 109 89c0 41 -28 65 -75 65c-31 0 -59 -8 -82 -18l-34 23l61 191h225l-13 -59h-173l-33 -100c18 7 40 14 73 14c61 0 113 -43 113 -111
c0 -84 -82 -150 -175 -150z" />
    <glyph glyph-name="six.sup" unicode="&#x2076;" horiz-adv-x="423" 
d="M190 511c-25 25 -38 61 -38 110c0 80 32 163 90 216c35 31 74 51 124 51c59 0 105 -34 105 -74c0 -24 -18 -42 -40 -42c-19 0 -37 16 -37 38c0 6 2 12 6 17c-7 4 -16 8 -34 8c-28 0 -60 -12 -87 -37c-29 -27 -53 -73 -63 -117c26 33 65 53 106 53c71 0 122 -47 122 -112
c0 -83 -72 -148 -158 -148c-41 0 -74 15 -96 37zM285 530c57 0 95 41 95 87c0 37 -27 66 -70 66c-53 0 -96 -44 -96 -87c0 -18 7 -34 19 -46c13 -13 31 -20 52 -20z" />
    <glyph glyph-name="seven.sup" unicode="&#x2077;" horiz-adv-x="423" 
d="M184 482l238 345h-161l-17 -72h-57l29 125h268l17 -34l-245 -364h-72z" />
    <glyph glyph-name="eight.sup" unicode="&#x2078;" horiz-adv-x="423" 
d="M289 475c-87 0 -146 50 -146 110c0 58 41 97 104 110c-43 20 -58 52 -58 83c0 52 53 108 144 108c79 0 136 -46 136 -108c0 -49 -35 -83 -91 -96c38 -17 63 -48 63 -87c0 -63 -54 -120 -152 -120zM326 711c45 0 78 27 78 64c0 32 -29 58 -72 58c-45 0 -79 -26 -79 -62
c0 -34 33 -60 73 -60zM289 530c51 0 87 28 87 68c0 33 -28 63 -79 63c-54 0 -89 -29 -89 -69c0 -35 32 -62 81 -62z" />
    <glyph glyph-name="nine.sup" unicode="&#x2079;" horiz-adv-x="423" 
d="M334 832c-56 0 -95 -40 -95 -87c0 -37 27 -65 70 -65c54 0 96 43 96 86c0 18 -7 34 -19 46c-12 13 -30 20 -52 20zM175 740c0 83 73 148 158 148c41 0 74 -15 96 -37c25 -25 38 -60 38 -110c0 -80 -32 -163 -90 -216c-35 -31 -74 -51 -124 -51c-59 0 -105 34 -105 75
c0 23 18 41 40 41c20 0 37 -16 37 -38c0 -6 -2 -12 -6 -17c7 -4 17 -8 34 -8c28 0 60 12 88 38c27 26 51 70 61 115c-26 -32 -64 -52 -105 -52c-71 0 -122 48 -122 112z" />
    <glyph glyph-name="zero.inf" unicode="&#x2080;" horiz-adv-x="423" 
d="M125 -187c-81 0 -130 60 -130 159c0 136 79 253 184 253c81 0 129 -60 129 -158c0 -136 -78 -254 -183 -254zM128 -130c68 0 116 100 116 198c0 61 -22 100 -68 100c-68 0 -117 -100 -117 -197c0 -61 22 -101 69 -101z" />
    <glyph glyph-name="one.inf" unicode="&#x2081;" horiz-adv-x="423" 
d="M-20 -179l13 57h107l64 278l-104 -23l-3 57l152 35l31 -14l-77 -333h105l-13 -57h-275z" />
    <glyph glyph-name="two.inf" unicode="&#x2082;" horiz-adv-x="423" 
d="M-22 -179l-12 29c37 92 117 144 192 182c58 30 89 54 89 89c0 30 -27 49 -69 49c-38 0 -58 -11 -67 -22c7 -8 11 -17 11 -28c0 -22 -17 -39 -39 -39c-23 0 -40 18 -40 43c0 54 64 103 142 103c73 0 128 -40 128 -105c0 -64 -62 -101 -131 -137
c-64 -33 -109 -64 -136 -111h163l15 64h54l-27 -117h-273z" />
    <glyph glyph-name="three.inf" unicode="&#x2083;" horiz-adv-x="423" 
d="M126 -185c-67 0 -141 33 -141 94c0 24 18 44 41 44c22 0 38 -17 38 -38c0 -10 -5 -20 -11 -25c9 -11 33 -21 73 -21c55 0 88 27 88 66c0 28 -30 62 -90 62h-25l14 58h24c63 0 105 26 105 63c0 33 -34 53 -76 53c-20 0 -36 -5 -47 -12c4 -4 7 -11 7 -17
c0 -22 -18 -38 -39 -38c-22 0 -39 17 -39 41c0 38 43 80 127 80c85 0 135 -49 135 -100c0 -61 -48 -96 -117 -102c58 -15 86 -49 86 -92c0 -78 -77 -116 -153 -116z" />
    <glyph glyph-name="four.inf" unicode="&#x2084;" horiz-adv-x="423" 
d="M149 -129l16 67h-180l-8 30l260 265l39 -36l-212 -211h113l18 69l63 24l-21 -89h65l-13 -52h-64l-15 -67h50l-12 -50h-180l12 50h69z" />
    <glyph glyph-name="five.inf" unicode="&#x2085;" horiz-adv-x="423" 
d="M107 -187c-73 0 -126 41 -126 81c0 23 15 43 40 43c22 0 39 -16 39 -38c0 -6 -1 -12 -4 -17c9 -7 26 -13 55 -13c61 0 109 40 109 89c0 41 -28 65 -75 65c-31 0 -59 -8 -82 -18l-34 23l61 191h225l-13 -59h-173l-33 -100c18 7 40 14 73 14c61 0 113 -43 113 -111
c0 -84 -82 -150 -175 -150z" />
    <glyph glyph-name="six.inf" unicode="&#x2086;" horiz-adv-x="423" 
d="M36 -150c-25 25 -38 61 -38 110c0 80 32 163 90 216c35 31 74 51 124 51c59 0 105 -34 105 -74c0 -24 -18 -42 -40 -42c-19 0 -37 16 -37 38c0 6 2 12 6 17c-7 4 -16 8 -34 8c-28 0 -60 -12 -87 -37c-29 -27 -53 -73 -63 -117c26 33 65 53 106 53c71 0 122 -47 122 -112
c0 -83 -72 -148 -158 -148c-41 0 -74 15 -96 37zM131 -131c57 0 95 41 95 87c0 37 -27 66 -70 66c-53 0 -96 -44 -96 -87c0 -18 7 -34 19 -46c13 -13 31 -20 52 -20z" />
    <glyph glyph-name="seven.inf" unicode="&#x2087;" horiz-adv-x="423" 
d="M30 -179l238 345h-161l-17 -72h-57l29 125h268l17 -34l-245 -364h-72z" />
    <glyph glyph-name="eight.inf" unicode="&#x2088;" horiz-adv-x="423" 
d="M135 -186c-87 0 -146 50 -146 110c0 58 41 97 104 110c-43 20 -58 52 -58 83c0 52 53 108 144 108c79 0 136 -46 136 -108c0 -49 -35 -83 -91 -96c38 -17 63 -48 63 -87c0 -63 -54 -120 -152 -120zM172 50c45 0 78 27 78 64c0 32 -29 58 -72 58c-45 0 -79 -26 -79 -62
c0 -34 33 -60 73 -60zM135 -131c51 0 87 28 87 68c0 33 -28 63 -79 63c-54 0 -89 -29 -89 -69c0 -35 32 -62 81 -62z" />
    <glyph glyph-name="nine.inf" unicode="&#x2089;" horiz-adv-x="423" 
d="M180 171c-56 0 -95 -40 -95 -87c0 -37 27 -65 70 -65c54 0 96 43 96 86c0 18 -7 34 -19 46c-12 13 -30 20 -52 20zM21 79c0 83 73 148 158 148c41 0 74 -15 96 -37c25 -25 38 -60 38 -110c0 -80 -32 -163 -90 -216c-35 -31 -74 -51 -124 -51c-59 0 -105 34 -105 75
c0 23 18 41 40 41c20 0 37 -16 37 -38c0 -6 -2 -12 -6 -17c7 -4 17 -8 34 -8c28 0 60 12 88 38c27 26 51 70 61 115c-26 -32 -64 -52 -105 -52c-71 0 -122 48 -122 112z" />
    <glyph glyph-name="zero.tab" 
d="M584 472c0 -260 -142 -486 -317 -486c-125 0 -199 100 -199 266c0 260 142 485 317 485c126 0 199 -100 199 -265zM165 254c0 -108 38 -181 112 -181c118 0 210 207 210 396c0 108 -38 181 -112 181c-118 0 -210 -207 -210 -396z" />
    <glyph glyph-name="one.tab" 
d="M33 1l20 83h174l128 546l-170 -40l-5 84l242 60l45 -21l-146 -629h171l-19 -83h-440z" />
    <glyph glyph-name="two.tab" 
d="M133 80h283l26 115h84l-46 -195h-450c-2 0 -17 43 -17 43c59 155 168 243 318 327c108 62 162 112 162 182c0 59 -48 103 -122 103s-114 -32 -130 -56c17 -16 25 -32 25 -51c0 -35 -27 -62 -63 -62c-38 0 -65 28 -65 74c0 76 87 177 240 177c124 0 211 -72 211 -183
c0 -115 -90 -180 -218 -254c-119 -69 -196 -132 -238 -220z" />
    <glyph glyph-name="three.tab" 
d="M386 370c86 -26 145 -85 145 -170c0 -135 -129 -210 -263 -210c-141 0 -234 76 -234 155c0 44 26 79 68 79c36 0 58 -27 58 -57c0 -20 -12 -40 -29 -49c21 -23 65 -47 142 -47c98 0 161 56 161 135c0 74 -64 126 -172 126h-36l20 84h34c127 0 200 57 200 131
c0 71 -64 107 -137 107c-45 0 -80 -16 -97 -33c10 -8 18 -23 18 -38c0 -33 -29 -58 -61 -58c-36 0 -64 28 -64 69c0 67 79 141 220 141c128 0 220 -76 220 -179c0 -108 -84 -168 -193 -186z" />
    <glyph glyph-name="four.tab" 
d="M499 469l-42 -180h113l-18 -79h-113l-30 -131h89l-18 -79h-306l18 77h128l31 134h-308l-10 42l446 492l61 -57l-366 -401h194l33 142z" />
    <glyph glyph-name="five.tab" 
d="M245 -13c-117 0 -214 64 -214 136c0 41 29 71 65 71c34 0 60 -26 60 -60c0 -12 -4 -25 -14 -34c17 -15 54 -32 111 -32c121 0 199 81 199 181c0 79 -57 128 -143 128c-49 0 -90 -9 -139 -29l-47 34l112 342h375l-20 -88h-299l-68 -204c31 13 68 22 112 22
c118 0 211 -76 211 -200c0 -148 -121 -267 -301 -267z" />
    <glyph glyph-name="six.tab" 
d="M542 541c-30 0 -59 24 -59 59c0 11 4 26 16 37c-11 11 -35 22 -72 22c-49 0 -98 -22 -141 -65c-52 -53 -98 -145 -114 -238c33 47 97 101 183 101c121 0 203 -88 203 -202c0 -144 -120 -268 -262 -268c-70 0 -123 29 -156 64c-46 49 -66 112 -66 209
c0 136 56 300 162 396c53 49 119 81 197 81c98 0 173 -59 173 -127c0 -41 -29 -69 -64 -69zM297 69c92 0 165 83 165 180c0 75 -48 129 -122 129c-96 0 -171 -88 -171 -175c0 -37 13 -71 35 -96c22 -23 53 -38 93 -38z" />
    <glyph glyph-name="seven.tab" 
d="M86 0l441 644h-305l-29 -124h-86l47 204h472l24 -45l-456 -679h-108z" />
    <glyph glyph-name="eight.tab" 
d="M542 202c0 -115 -98 -213 -249 -213c-140 0 -237 85 -237 198c0 108 78 179 179 201c-65 33 -98 95 -98 153c0 99 86 194 233 194c125 0 221 -82 221 -190c0 -95 -65 -155 -159 -179c62 -27 110 -89 110 -164zM494 540c0 62 -49 113 -124 113c-80 0 -139 -53 -139 -126
c0 -66 56 -117 124 -117c80 0 139 56 139 130zM446 208c0 71 -57 127 -140 127c-92 0 -154 -60 -154 -139c0 -67 55 -125 142 -125c85 0 152 59 152 137z" />
    <glyph glyph-name="nine.tab" 
d="M362 655c-92 0 -165 -83 -165 -180c0 -75 47 -129 124 -129c93 0 168 88 168 175c0 36 -12 71 -35 96c-22 23 -52 38 -92 38zM116 183c31 0 60 -24 60 -60c0 -11 -5 -25 -16 -36c11 -11 34 -22 72 -22c49 0 97 22 140 65c52 52 99 145 114 238
c-33 -47 -97 -101 -182 -101c-121 0 -203 88 -203 202c0 143 120 268 262 268c69 0 123 -29 155 -64c47 -49 66 -113 66 -209c0 -136 -56 -300 -161 -396c-54 -49 -119 -81 -198 -81c-97 0 -172 59 -172 127c0 41 28 69 63 69z" />
    <glyph glyph-name="period.tab" horiz-adv-x="295" 
d="M126 -10c-42 0 -75 34 -75 77s33 77 75 77c43 0 76 -34 76 -77s-33 -77 -76 -77z" />
    <glyph glyph-name="comma.tab" horiz-adv-x="295" 
d="M-18 -165l-19 37c98 51 135 107 138 131c-33 11 -50 44 -50 65c0 42 33 75 75 75s78 -33 78 -84c0 -78 -83 -174 -222 -224z" />
    <glyph glyph-name="colon.tab" horiz-adv-x="295" 
d="M192 279c-42 0 -74 34 -74 76s32 76 74 76s75 -34 75 -76s-33 -76 -75 -76zM126 -10c-42 0 -74 34 -74 76s32 75 74 75s75 -33 75 -75s-33 -76 -75 -76z" />
    <glyph glyph-name="semicolon.tab" horiz-adv-x="295" 
d="M192 279c-42 0 -74 34 -74 76s32 76 74 76s75 -34 75 -76s-33 -76 -75 -76zM-16 -162l-19 37c96 49 133 104 136 128c-32 11 -49 42 -49 64c0 41 32 73 73 73c42 0 77 -32 77 -83c0 -75 -81 -170 -218 -219z" />
    <glyph glyph-name="twodotleader.tab" 
d="M420 -10c-43 0 -76 34 -76 77s33 77 76 77c42 0 76 -34 76 -77s-34 -77 -76 -77zM128 -10c-42 0 -75 34 -75 77s33 77 75 77c43 0 76 -34 76 -77s-33 -77 -76 -77z" />
    <glyph glyph-name="periodcentered.tab" horiz-adv-x="295" 
d="M164 218c-42 0 -75 34 -75 77s33 77 75 77c43 0 76 -34 76 -77s-33 -77 -76 -77z" />
    <glyph glyph-name="slash.tab" 
d="M-14 -233l-68 43l694 1009l67 -45z" />
    <glyph glyph-name="bar.tab" horiz-adv-x="295" 
d="M109 -220v1025h79v-1025h-79z" />
    <glyph glyph-name="underscore.tab" 
d="M-71 -169l21 85h615l-19 -85h-617z" />
    <glyph glyph-name="dollar.tab" 
d="M240 537c0 -49 33 -81 81 -110l66 220h-7c-82 -1 -140 -43 -140 -110zM443 190c0 57 -37 88 -93 119l-69 -232h14c84 0 148 41 148 113zM33 167c0 49 31 82 71 82c36 0 62 -30 62 -61c0 -21 -10 -42 -30 -56c13 -18 43 -35 82 -45l76 251c-73 38 -146 93 -146 194
c0 105 91 192 239 192c6 0 13 0 20 -1l30 103l70 -20l-28 -96c79 -25 136 -79 136 -134c0 -48 -29 -82 -69 -82c-35 0 -62 28 -62 62c0 16 8 35 28 51c-14 14 -37 24 -62 31l-72 -243c84 -43 159 -90 159 -197c0 -114 -95 -198 -248 -198c-9 0 -18 0 -27 1l-34 -117l-71 20
l32 111c-91 27 -156 89 -156 152z" />
    <glyph glyph-name="sterling.tab" 
d="M279 488c0 -47 11 -92 15 -143h176l-16 -74h-160c-6 -61 -28 -118 -85 -161c32 -1 51 -7 75 -15c36 -12 63 -25 106 -25c30 0 62 11 105 49l45 -49c-49 -66 -109 -83 -158 -83c-56 0 -98 19 -141 35c-27 11 -54 19 -90 21c-26 -36 -71 -57 -99 -57c-36 0 -60 21 -60 49
c0 42 49 78 135 75c60 53 76 104 80 161h-123l17 74h105c-5 51 -15 95 -15 143c0 144 88 249 229 249c96 0 174 -62 174 -136c0 -47 -29 -74 -63 -74c-33 0 -60 26 -60 59c0 16 8 33 18 42c-5 15 -36 29 -72 29c-92 0 -138 -75 -138 -169z" />
    <glyph glyph-name="Euro.tab" 
d="M381 403h-148c-7 -30 -12 -61 -15 -92h140l-17 -74h-126c5 -103 46 -164 113 -164c50 0 96 37 137 96l60 -54c-56 -78 -125 -129 -208 -129c-116 0 -191 89 -198 247h-82l18 78h68c2 31 7 61 14 91h-60l17 78h64c54 150 159 257 277 257c102 0 166 -76 166 -165
c0 -53 -30 -87 -70 -87c-37 0 -60 28 -60 62c0 21 12 42 31 53c-8 21 -29 51 -76 51c-69 0 -132 -75 -170 -174h142z" />
    <glyph glyph-name="yen.tab" 
d="M87 298l16 72h133l-76 275h-70l18 79h242l-19 -79h-80l67 -267l194 267h-85l19 79h249l-19 -79h-64l-212 -275h125l-16 -72h-167l-16 -72h167l-16 -72h-168l-18 -80h103l-17 -74h-290l17 74h98l18 80h-164l16 72h165l16 72h-166z" />
    <glyph glyph-name="cent.tab" 
d="M176 344c0 -57 30 -100 75 -122l96 322c-90 -16 -171 -93 -171 -200zM512 265l-2 -81c-48 -34 -117 -53 -187 -53c-13 0 -24 0 -36 2l-47 -156l-63 16l46 154c-82 30 -138 98 -138 192c0 146 128 274 284 282l35 118l62 -17l-32 -106c82 -16 138 -68 138 -124
c0 -37 -25 -70 -63 -70c-28 0 -54 21 -54 55c0 14 8 32 21 42c-12 13 -38 24 -68 27l-102 -340c8 -1 16 -1 24 -1c63 0 132 21 182 60z" />
    <glyph glyph-name="numbersign.tab" 
d="M283 446l-51 -180h120l50 180h-119zM560 723l-56 -199h109l-21 -81h-111l-49 -174h111l-21 -81h-112l-53 -188h-82l52 188h-114l-52 -188h-83l53 188h-109l22 81h109l49 174h-110l21 81h112l56 199h82l-56 -199h114l56 199h83z" />
    <glyph glyph-name="paragraph.tab" 
d="M240 84l40 170h-6c-116 0 -200 78 -200 202c0 164 129 268 304 268h289l-18 -84h-77l-128 -556h76l-19 -84h-370l18 84h91zM313 79h52l131 566h-52z" />
    <glyph glyph-name="section.tab" 
d="M355 443c-13 4 -25 9 -36 14c-91 -17 -142 -46 -142 -87c0 -39 53 -61 124 -89l36 -14c89 17 142 45 142 88c0 39 -55 62 -124 88zM84 362c0 67 69 111 166 130c-41 27 -63 58 -63 102c0 78 79 143 207 143c83 0 139 -25 170 -58c19 -20 28 -43 28 -64
c0 -32 -23 -59 -55 -59s-54 25 -54 53c0 12 4 24 13 35c-6 4 -13 8 -22 11c-20 7 -50 12 -81 12c-64 0 -115 -24 -115 -59c0 -41 49 -62 128 -94c84 -34 166 -70 166 -151c0 -69 -69 -111 -167 -131c40 -26 64 -58 64 -102c0 -78 -79 -143 -207 -143c-85 0 -141 26 -172 59
c-18 20 -27 43 -27 63c0 32 24 59 56 59s54 -25 54 -53c0 -11 -4 -24 -12 -34c3 -3 9 -7 18 -10c21 -8 52 -14 84 -14c63 0 114 24 114 60c0 41 -48 61 -127 93c-84 34 -166 70 -166 152z" />
    <glyph glyph-name="degree.tab" 
d="M336 420c-105 0 -166 74 -166 166c0 116 96 230 224 230c104 0 166 -74 166 -166c0 -116 -98 -230 -224 -230zM341 479c86 0 154 81 154 167c0 68 -45 111 -107 111c-85 0 -154 -81 -154 -166c0 -68 43 -112 107 -112z" />
    <glyph glyph-name="percent.tab" 
d="M67 -9l-42 35l286 352l280 356l40 -35l-283 -350zM199 404c-58 0 -98 44 -98 117c0 113 63 209 146 209c57 0 97 -44 97 -116c0 -113 -63 -210 -145 -210zM205 465c44 0 73 90 73 149c0 34 -12 56 -39 56c-44 0 -74 -90 -74 -149c0 -34 13 -56 40 -56zM412 -8
c-58 0 -99 44 -99 116c0 113 64 210 147 210c57 0 97 -44 97 -117c0 -113 -63 -209 -145 -209zM418 52c44 0 73 90 73 149c0 34 -12 56 -39 56c-44 0 -74 -90 -74 -148c0 -35 13 -57 40 -57z" />
    <glyph glyph-name="quotedbl.tab" 
d="M418 461l27 276c5 45 34 68 66 68c35 0 59 -25 59 -59c0 -10 -4 -25 -8 -35l-107 -250h-37zM197 461l28 276c4 45 33 68 65 68c36 0 59 -25 59 -59c0 -10 -3 -25 -8 -35l-107 -250h-37z" />
    <glyph glyph-name="quotesingle.tab" horiz-adv-x="295" 
d="M158 461l28 276c4 45 33 68 65 68c36 0 60 -25 60 -59c0 -10 -4 -25 -9 -35l-106 -250h-38z" />
    <glyph glyph-name="plus.tab" 
d="M420 577l-40 -168h171l-18 -78h-171l-41 -178h-78l41 178h-170l19 78h169l40 168h78z" />
    <glyph glyph-name="minus.tab" 
d="M110 331l19 78h418l-18 -78h-419z" />
    <glyph glyph-name="divide.tab" 
d="M370 488c-32 0 -59 27 -59 59c0 33 28 60 60 60c31 0 58 -27 58 -60c0 -32 -28 -59 -59 -59zM110 331l19 78h418l-18 -78h-419zM287 133c-32 0 -59 27 -59 60c0 32 28 59 60 59s59 -27 59 -59c0 -33 -28 -60 -60 -60z" />
    <glyph glyph-name="equal.tab" 
d="M141 429l18 79h387l-18 -79h-387zM94 222l18 79h387l-18 -79h-387z" />
    <glyph glyph-name="multiply.tab" 
d="M210 576l110 -147l160 134l47 -60l-161 -135l110 -147l-65 -51l-108 145l-163 -137l-47 60l164 138l-111 149z" />
    <glyph glyph-name="less.tab" 
d="M393 127l-275 222l8 33l371 219l35 -56l-307 -185l217 -178z" />
    <glyph glyph-name="greater.tab" 
d="M261 606l274 -222l-7 -33l-371 -219l-36 56l307 185l-216 177z" />
    <glyph glyph-name="plusminus.tab" 
d="M432 660l-40 -170h171l-18 -78h-171l-39 -170h-79l39 170h-169l18 78h169l40 170h79zM47 73l17 77h418l-18 -77h-417z" />
    <glyph glyph-name="zero.idx_P2D" horiz-adv-x="1224" 
d="M612 877c307 0 541 -248 541 -547s-234 -547 -541 -547s-541 248 -541 547s234 547 541 547zM612 818c-270 0 -475 -221 -475 -488s205 -488 475 -488s475 221 475 488s-205 488 -475 488zM611 70c-117 0 -214 109 -214 267c0 160 98 267 216 267
c116 0 214 -108 214 -266c0 -160 -98 -268 -216 -268zM611 145c82 0 133 81 133 192c0 112 -51 192 -133 192c-80 0 -131 -79 -131 -191s51 -193 131 -193z" />
    <glyph glyph-name="one.idx_P2D" horiz-adv-x="1224" 
d="M612 877c307 0 541 -248 541 -547s-234 -547 -541 -547s-541 248 -541 547s234 547 541 547zM612 818c-270 0 -475 -221 -475 -488s205 -488 475 -488s475 221 475 488s-205 488 -475 488zM769 81h-307v72h115v359l-109 -22l-15 69l164 37h40v-443h112v-72z" />
    <glyph glyph-name="two.idx_P2D" horiz-adv-x="1224" 
d="M612 877c307 0 541 -248 541 -547s-234 -547 -541 -547s-541 248 -541 547s234 547 541 547zM612 818c-270 0 -475 -221 -475 -488s205 -488 475 -488s475 221 475 488s-205 488 -475 488zM433 472c0 20 6 39 17 56c27 45 85 76 164 76c94 0 174 -60 174 -149
c0 -83 -62 -125 -125 -166c-53 -34 -116 -81 -146 -141h214v85h68v-153h-357c-2 0 -23 37 -23 37c44 116 129 179 194 223c53 36 93 64 93 116c0 44 -42 77 -99 77c-41 0 -76 -14 -93 -32c16 -9 25 -28 25 -44c0 -28 -23 -50 -50 -50c-38 0 -56 30 -56 65z" />
    <glyph glyph-name="three.idx_P2D" horiz-adv-x="1224" 
d="M612 877c307 0 541 -248 541 -547s-234 -547 -541 -547s-541 248 -541 547s234 547 541 547zM612 818c-270 0 -475 -221 -475 -488s205 -488 475 -488s475 221 475 488s-205 488 -475 488zM425 192c0 31 22 57 53 57c28 0 50 -22 50 -49c0 -12 -5 -25 -14 -33
c16 -15 55 -26 96 -26c60 0 110 32 110 81c0 33 -17 60 -55 75c-22 10 -51 15 -88 15h-25v67h28c35 0 66 7 88 21c25 16 39 38 39 67c0 45 -45 66 -96 66c-38 0 -64 -8 -76 -20c6 -8 12 -20 12 -31c0 -27 -23 -49 -51 -49c-27 0 -52 23 -52 59c0 14 6 33 19 49
c26 32 76 61 151 61c99 0 175 -55 175 -133c0 -41 -22 -77 -56 -99c-14 -10 -31 -18 -51 -22c17 -4 34 -10 49 -19c39 -22 70 -58 70 -111c0 -89 -85 -145 -191 -145c-67 0 -127 24 -159 60c-16 17 -26 38 -26 59z" />
    <glyph glyph-name="four.idx_P2D" horiz-adv-x="1224" 
d="M612 877c307 0 541 -248 541 -547s-234 -547 -541 -547s-541 248 -541 547s234 547 541 547zM612 818c-270 0 -475 -221 -475 -488s205 -488 475 -488s475 221 475 488s-205 488 -475 488zM544 80v65h91v85h-238l-19 36l277 345l59 -45l-224 -275h145v91l76 31v-120h83
v-66h-83v-81h64v-66h-231z" />
    <glyph glyph-name="five.idx_P2D" horiz-adv-x="1224" 
d="M612 877c307 0 541 -248 541 -547s-234 -547 -541 -547s-541 248 -541 547s234 547 541 547zM612 818c-270 0 -475 -221 -475 -488s205 -488 475 -488s475 221 475 488s-205 488 -475 488zM607 70c-109 0 -175 53 -175 101c0 30 20 54 52 54c31 0 51 -25 51 -50
c0 -8 -3 -17 -6 -21c10 -6 40 -14 72 -14c71 0 110 46 110 107c0 53 -36 95 -110 95c-32 0 -83 -8 -112 -23l-35 20l24 255h280v-74h-215l-11 -116c16 4 53 10 81 10c98 0 177 -64 177 -166c0 -107 -79 -178 -183 -178z" />
    <glyph glyph-name="six.idx_P2D" horiz-adv-x="1224" 
d="M612 877c307 0 541 -248 541 -547s-234 -547 -541 -547s-541 248 -541 547s234 547 541 547zM612 818c-270 0 -475 -221 -475 -488s205 -488 475 -488s475 221 475 488s-205 488 -475 488zM726 457c-34 0 -50 25 -50 48c0 8 0 14 2 22c-12 4 -31 7 -46 7
c-76 0 -137 -75 -141 -187c28 31 77 55 128 55c104 0 181 -70 181 -163c0 -94 -80 -169 -188 -169c-58 0 -104 21 -138 55c-42 42 -60 104 -60 190c0 188 100 289 218 289c38 0 73 -9 98 -25c28 -17 45 -41 45 -69c0 -37 -23 -53 -49 -53zM498 241c0 -27 13 -53 34 -71
c21 -19 50 -30 82 -30c59 0 104 43 104 98c0 56 -45 94 -111 94c-61 0 -109 -38 -109 -91z" />
    <glyph glyph-name="seven.idx_P2D" horiz-adv-x="1224" 
d="M612 877c307 0 541 -248 541 -547s-234 -547 -541 -547s-541 248 -541 547s234 547 541 547zM612 818c-270 0 -475 -221 -475 -488s205 -488 475 -488s475 221 475 488s-205 488 -475 488zM589 80h-86l216 447h-201v-95h-72v162h346l19 -42z" />
    <glyph glyph-name="eight.idx_P2D" horiz-adv-x="1224" 
d="M612 877c307 0 541 -248 541 -547s-234 -547 -541 -547s-541 248 -541 547s234 547 541 547zM612 818c-270 0 -475 -221 -475 -488s205 -488 475 -488s475 221 475 488s-205 488 -475 488zM611 73c-119 0 -191 65 -191 146c0 58 43 111 106 127c-62 17 -95 64 -95 112
c0 84 76 144 180 144s181 -60 181 -144c0 -48 -35 -95 -96 -112c64 -16 107 -69 107 -127c0 -81 -73 -146 -192 -146zM611 373c53 0 98 36 98 81c0 47 -43 80 -98 80s-97 -33 -97 -80c0 -45 45 -81 97 -81zM611 141c65 0 110 39 110 85s-46 87 -110 87
c-63 0 -109 -41 -109 -87s44 -85 109 -85z" />
    <glyph glyph-name="nine.idx_P2D" horiz-adv-x="1224" 
d="M612 877c307 0 541 -248 541 -547s-234 -547 -541 -547s-541 248 -541 547s234 547 541 547zM612 818c-270 0 -475 -221 -475 -488s205 -488 475 -488s475 221 475 488s-205 488 -475 488zM727 433c0 28 -13 54 -33 72c-21 19 -50 30 -82 30c-59 0 -105 -44 -105 -98
c0 -58 45 -96 111 -96c61 0 109 39 109 92zM449 165c0 37 24 52 50 52c32 0 50 -24 50 -48c0 -8 -2 -15 -4 -20c12 -6 30 -8 49 -8c75 0 136 73 139 184c-28 -30 -77 -53 -127 -53c-103 0 -180 69 -180 162c0 96 80 170 188 170c57 0 103 -22 136 -55
c43 -43 62 -105 62 -190c0 -188 -99 -289 -219 -289c-50 0 -96 17 -122 44c-14 15 -22 32 -22 51z" />
    <glyph glyph-name="space" unicode=" " horiz-adv-x="250" 
 />
    <glyph glyph-name="uni00A0" unicode="&#xa0;" horiz-adv-x="250" 
 />
    <glyph glyph-name="emspace" unicode="&#x2003;" horiz-adv-x="1000" 
 />
    <glyph glyph-name="enspace" unicode="&#x2002;" horiz-adv-x="500" 
 />
    <glyph glyph-name="threeperemspace" unicode="&#x2004;" horiz-adv-x="333" 
 />
    <glyph glyph-name="fourperemspace" unicode="&#x2005;" horiz-adv-x="250" 
 />
    <glyph glyph-name="thinspace" unicode="&#x2009;" horiz-adv-x="133" 
 />
    <glyph glyph-name="hairspace" unicode="&#x200a;" horiz-adv-x="75" 
 />
    <glyph glyph-name="space.tab" horiz-adv-x="306" 
 />
    <glyph glyph-name="figurespace" unicode="&#x2007;" horiz-adv-x="597" 
 />
    <glyph glyph-name="NUL" horiz-adv-x="0" 
 />
    <glyph glyph-name="i.dot" horiz-adv-x="364" 
d="M246 587c-35 0 -64 28 -64 64c0 35 29 63 64 63c34 0 63 -28 63 -63c0 -36 -29 -64 -63 -64zM184 -8c-64 0 -102 39 -102 97c0 15 4 37 9 55l73 274h-95l21 79h188l-95 -356c-5 -19 -8 -39 -8 -49c0 -23 13 -36 32 -36c23 0 44 18 68 80l43 -16
c-29 -92 -75 -128 -134 -128z" />
    <glyph glyph-name="fraction" unicode="&#x2044;" horiz-adv-x="564" 
d="M3 -15l-37 31c50 57 199 231 298 349c99 117 245 297 290 353l37 -31c-49 -57 -198 -231 -298 -349c-99 -117 -245 -297 -290 -353z" />
    <glyph glyph-name="zero.num" horiz-adv-x="402" 
d="M207 300c-81 0 -130 60 -130 159c0 136 79 253 184 253c81 0 129 -60 129 -158c0 -136 -78 -254 -183 -254zM210 357c68 0 116 100 116 198c0 61 -22 100 -68 100c-68 0 -117 -100 -117 -197c0 -61 22 -101 69 -101z" />
    <glyph glyph-name="one.num" horiz-adv-x="402" 
d="M62 308l13 57h107l64 278l-104 -23l-3 57l152 35l31 -14l-77 -333h105l-13 -57h-275z" />
    <glyph glyph-name="two.num" horiz-adv-x="402" 
d="M60 308l-12 29c37 92 117 144 192 182c58 30 89 54 89 89c0 30 -27 49 -69 49c-38 0 -58 -11 -67 -22c7 -8 11 -17 11 -28c0 -22 -17 -39 -39 -39c-23 0 -40 18 -40 43c0 54 64 103 142 103c73 0 128 -40 128 -105c0 -64 -62 -101 -131 -137c-64 -33 -109 -64 -136 -111
h163l15 64h54l-27 -117h-273z" />
    <glyph glyph-name="three.num" horiz-adv-x="402" 
d="M208 302c-67 0 -141 33 -141 94c0 24 18 44 41 44c22 0 38 -17 38 -38c0 -10 -5 -20 -11 -25c9 -11 33 -21 73 -21c55 0 88 27 88 66c0 28 -30 62 -90 62h-25l14 58h24c63 0 105 26 105 63c0 33 -34 53 -76 53c-20 0 -36 -5 -47 -12c4 -4 7 -11 7 -17
c0 -22 -18 -38 -39 -38c-22 0 -39 17 -39 41c0 38 43 80 127 80c85 0 135 -49 135 -100c0 -61 -48 -96 -117 -102c58 -15 86 -49 86 -92c0 -78 -77 -116 -153 -116z" />
    <glyph glyph-name="four.num" horiz-adv-x="402" 
d="M231 358l16 67h-180l-8 30l260 265l39 -36l-212 -211h113l18 69l63 24l-21 -89h65l-13 -52h-64l-15 -67h50l-12 -50h-180l12 50h69z" />
    <glyph glyph-name="five.num" horiz-adv-x="402" 
d="M189 300c-73 0 -126 41 -126 81c0 23 15 43 40 43c22 0 39 -16 39 -38c0 -6 -1 -12 -4 -17c9 -7 26 -13 55 -13c61 0 109 40 109 89c0 41 -28 65 -75 65c-31 0 -59 -8 -82 -18l-34 23l61 191h225l-13 -59h-173l-33 -100c18 7 40 14 73 14c61 0 113 -43 113 -111
c0 -84 -82 -150 -175 -150z" />
    <glyph glyph-name="six.num" horiz-adv-x="402" 
d="M118 337c-25 25 -38 61 -38 110c0 80 32 163 90 216c35 31 74 51 124 51c59 0 105 -34 105 -74c0 -24 -18 -42 -40 -42c-19 0 -37 16 -37 38c0 6 2 12 6 17c-7 4 -16 8 -34 8c-28 0 -60 -12 -87 -37c-29 -27 -53 -73 -63 -117c26 33 65 53 106 53c71 0 122 -47 122 -112
c0 -83 -72 -148 -158 -148c-41 0 -74 15 -96 37zM213 356c57 0 95 41 95 87c0 37 -27 66 -70 66c-53 0 -96 -44 -96 -87c0 -18 7 -34 19 -46c13 -13 31 -20 52 -20z" />
    <glyph glyph-name="seven.num" horiz-adv-x="402" 
d="M112 308l238 345h-161l-17 -72h-57l29 125h268l17 -34l-245 -364h-72z" />
    <glyph glyph-name="eight.num" horiz-adv-x="402" 
d="M217 301c-87 0 -146 50 -146 110c0 58 41 97 104 110c-43 20 -58 52 -58 83c0 52 53 108 144 108c79 0 136 -46 136 -108c0 -49 -35 -83 -91 -96c38 -17 63 -48 63 -87c0 -63 -54 -120 -152 -120zM254 537c45 0 78 27 78 64c0 32 -29 58 -72 58c-45 0 -79 -26 -79 -62
c0 -34 33 -60 73 -60zM217 356c51 0 87 28 87 68c0 33 -28 63 -79 63c-54 0 -89 -29 -89 -69c0 -35 32 -62 81 -62z" />
    <glyph glyph-name="nine.num" horiz-adv-x="402" 
d="M262 658c-56 0 -95 -40 -95 -87c0 -37 27 -65 70 -65c54 0 96 43 96 86c0 18 -7 34 -19 46c-12 13 -30 20 -52 20zM103 566c0 83 73 148 158 148c41 0 74 -15 96 -37c25 -25 38 -60 38 -110c0 -80 -32 -163 -90 -216c-35 -31 -74 -51 -124 -51c-59 0 -105 34 -105 75
c0 23 18 41 40 41c20 0 37 -16 37 -38c0 -6 -2 -12 -6 -17c7 -4 17 -8 34 -8c28 0 60 12 88 38c27 26 51 70 61 115c-26 -32 -64 -52 -105 -52c-71 0 -122 48 -122 112z" />
    <glyph glyph-name="zero.den" horiz-adv-x="402" 
d="M135 -8c-81 0 -130 60 -130 159c0 136 79 253 184 253c81 0 129 -60 129 -158c0 -136 -78 -254 -183 -254zM138 49c68 0 116 100 116 198c0 61 -22 100 -68 100c-68 0 -117 -100 -117 -197c0 -61 22 -101 69 -101z" />
    <glyph glyph-name="one.den" horiz-adv-x="402" 
d="M-10 0l13 57h107l64 278l-104 -23l-3 57l152 35l31 -14l-77 -333h105l-13 -57h-275z" />
    <glyph glyph-name="two.den" horiz-adv-x="402" 
d="M-12 0l-12 29c37 92 117 144 192 182c58 30 89 54 89 89c0 30 -27 49 -69 49c-38 0 -58 -11 -67 -22c7 -8 11 -17 11 -28c0 -22 -17 -39 -39 -39c-23 0 -40 18 -40 43c0 54 64 103 142 103c73 0 128 -40 128 -105c0 -64 -62 -101 -131 -137c-64 -33 -109 -64 -136 -111
h163l15 64h54l-27 -117h-273z" />
    <glyph glyph-name="three.den" horiz-adv-x="402" 
d="M136 -6c-67 0 -141 33 -141 94c0 24 18 44 41 44c22 0 38 -17 38 -38c0 -10 -5 -20 -11 -25c9 -11 33 -21 73 -21c55 0 88 27 88 66c0 28 -30 62 -90 62h-25l14 58h24c63 0 105 26 105 63c0 33 -34 53 -76 53c-20 0 -36 -5 -47 -12c4 -4 7 -11 7 -17
c0 -22 -18 -38 -39 -38c-22 0 -39 17 -39 41c0 38 43 80 127 80c85 0 135 -49 135 -100c0 -61 -48 -96 -117 -102c58 -15 86 -49 86 -92c0 -78 -77 -116 -153 -116z" />
    <glyph glyph-name="four.den" horiz-adv-x="402" 
d="M159 50l16 67h-180l-8 30l260 265l39 -36l-212 -211h113l18 69l63 24l-21 -89h65l-13 -52h-64l-15 -67h50l-12 -50h-180l12 50h69z" />
    <glyph glyph-name="five.den" horiz-adv-x="402" 
d="M117 -8c-73 0 -126 41 -126 81c0 23 15 43 40 43c22 0 39 -16 39 -38c0 -6 -1 -12 -4 -17c9 -7 26 -13 55 -13c61 0 109 40 109 89c0 41 -28 65 -75 65c-31 0 -59 -8 -82 -18l-34 23l61 191h225l-13 -59h-173l-33 -100c18 7 40 14 73 14c61 0 113 -43 113 -111
c0 -84 -82 -150 -175 -150z" />
    <glyph glyph-name="six.den" horiz-adv-x="402" 
d="M46 29c-25 25 -38 61 -38 110c0 80 32 163 90 216c35 31 74 51 124 51c59 0 105 -34 105 -74c0 -24 -18 -42 -40 -42c-19 0 -37 16 -37 38c0 6 2 12 6 17c-7 4 -16 8 -34 8c-28 0 -60 -12 -87 -37c-29 -27 -53 -73 -63 -117c26 33 65 53 106 53c71 0 122 -47 122 -112
c0 -83 -72 -148 -158 -148c-41 0 -74 15 -96 37zM141 48c57 0 95 41 95 87c0 37 -27 66 -70 66c-53 0 -96 -44 -96 -87c0 -18 7 -34 19 -46c13 -13 31 -20 52 -20z" />
    <glyph glyph-name="seven.den" horiz-adv-x="402" 
d="M40 0l238 345h-161l-17 -72h-57l29 125h268l17 -34l-245 -364h-72z" />
    <glyph glyph-name="eight.den" horiz-adv-x="402" 
d="M145 -7c-87 0 -146 50 -146 110c0 58 41 97 104 110c-43 20 -58 52 -58 83c0 52 53 108 144 108c79 0 136 -46 136 -108c0 -49 -35 -83 -91 -96c38 -17 63 -48 63 -87c0 -63 -54 -120 -152 -120zM182 229c45 0 78 27 78 64c0 32 -29 58 -72 58c-45 0 -79 -26 -79 -62
c0 -34 33 -60 73 -60zM145 48c51 0 87 28 87 68c0 33 -28 63 -79 63c-54 0 -89 -29 -89 -69c0 -35 32 -62 81 -62z" />
    <glyph glyph-name="nine.den" horiz-adv-x="402" 
d="M190 350c-56 0 -95 -40 -95 -87c0 -37 27 -65 70 -65c54 0 96 43 96 86c0 18 -7 34 -19 46c-12 13 -30 20 -52 20zM31 258c0 83 73 148 158 148c41 0 74 -15 96 -37c25 -25 38 -60 38 -110c0 -80 -32 -163 -90 -216c-35 -31 -74 -51 -124 -51c-59 0 -105 34 -105 75
c0 23 18 41 40 41c20 0 37 -16 37 -38c0 -6 -2 -12 -6 -17c7 -4 17 -8 34 -8c28 0 60 12 88 38c27 26 51 70 61 115c-26 -32 -64 -52 -105 -52c-71 0 -122 48 -122 112z" />
    <glyph glyph-name="acute" unicode="&#xb4;" horiz-adv-x="594" 
d="M279 582l-24 31l168 150c17 16 34 24 53 24c26 0 48 -22 48 -48s-18 -46 -43 -58z" />
    <glyph glyph-name="hungarumlaut" unicode="&#x2dd;" horiz-adv-x="594" 
d="M180 583l-24 32l144 146c16 17 34 27 53 27c26 0 47 -20 47 -49c0 -20 -16 -41 -41 -56zM405 586l-23 32l149 142c17 16 35 25 53 25c27 0 46 -22 46 -49c0 -21 -15 -43 -43 -57z" />
    <glyph glyph-name="caron.alt" horiz-adv-x="594" 
d="M210 554l-26 24c44 49 60 82 69 119c8 33 2 64 11 99c7 28 25 48 57 48s52 -21 52 -54c0 -42 -21 -80 -52 -123c-33 -44 -74 -80 -111 -113z" />
    <glyph glyph-name="grave" unicode="`" horiz-adv-x="688" 
d="M464 573l-135 109c-21 18 -29 35 -29 53c0 30 24 53 51 53c25 0 41 -13 57 -40l87 -151z" />
    <glyph glyph-name="circumflex" unicode="&#x2c6;" horiz-adv-x="594" 
d="M236 580l-36 48l225 177l135 -184l-45 -40l-108 108z" />
    <glyph glyph-name="caron" unicode="&#x2c7;" horiz-adv-x="594" 
d="M373 577l-135 184l45 40l108 -108l171 109l36 -48z" />
    <glyph glyph-name="breve" unicode="&#x2d8;" horiz-adv-x="594" 
d="M378 587c-91 0 -149 67 -156 176l59 19c16 -71 51 -109 111 -109c52 0 100 29 149 107l52 -26c-49 -109 -135 -167 -215 -167z" />
    <glyph glyph-name="tilde" unicode="&#x2dc;" horiz-adv-x="594" 
d="M471 582c-44 0 -72 24 -96 48s-38 34 -58 34c-29 0 -51 -20 -75 -75l-56 22c22 87 82 145 137 145c44 0 72 -24 96 -48s38 -34 58 -34c29 0 51 21 75 75l56 -21c-22 -88 -82 -146 -137 -146z" />
    <glyph glyph-name="macron" unicode="&#xaf;" horiz-adv-x="594" 
d="M205 618l19 80h357l-18 -80h-358z" />
    <glyph glyph-name="dieresis" unicode="&#xa8;" horiz-adv-x="594" 
d="M291 601c-38 0 -69 32 -69 71s32 71 70 71c39 0 70 -32 70 -71s-32 -71 -71 -71zM502 601c-38 0 -69 32 -69 71s32 71 70 71c39 0 70 -32 70 -71s-32 -71 -71 -71z" />
    <glyph glyph-name="dotaccent" unicode="&#x2d9;" horiz-adv-x="594" 
d="M392 600c-39 0 -71 32 -71 72s33 72 72 72c40 0 71 -32 71 -72s-33 -72 -72 -72z" />
    <glyph glyph-name="ring" unicode="&#x2da;" horiz-adv-x="594" 
d="M387 579c-72 0 -114 52 -114 115c0 81 63 154 147 154c72 0 114 -52 114 -115c0 -80 -62 -154 -147 -154zM393 642c41 0 72 40 72 86c0 32 -20 58 -50 58c-42 0 -72 -41 -72 -87c0 -31 19 -57 50 -57z" />
    <glyph glyph-name="commaaccent" unicode="&#x326;" horiz-adv-x="256" 
d="M29 -330l-17 32c87 45 121 95 124 116c-29 11 -43 40 -43 58c0 36 27 65 64 65s68 -29 68 -74c0 -68 -71 -152 -196 -197z" />
    <glyph glyph-name="commaaccent.rot" horiz-adv-x="256" 
d="M362 871l17 -32c-87 -45 -121 -95 -124 -116c29 -11 43 -40 43 -58c0 -36 -27 -65 -64 -65s-68 29 -68 74c0 68 71 152 196 197z" />
    <glyph glyph-name="cedilla" unicode="&#xb8;" horiz-adv-x="594" 
d="M206 -231c-55 0 -108 25 -138 49l23 34c28 -18 72 -32 110 -32c29 0 47 15 47 35c0 19 -22 38 -74 31l-17 22l68 118l35 -10l-23 -74c63 -8 96 -43 96 -84c0 -56 -56 -89 -127 -89z" />
    <glyph glyph-name="ogonek" unicode="&#x2db;" horiz-adv-x="595" 
d="M328 63l31 -23c-77 -48 -144 -104 -144 -157c0 -26 18 -41 50 -41c23 0 45 5 60 10l-15 -63c-15 -11 -43 -22 -81 -22c-57 0 -98 32 -98 88c0 82 90 155 197 208z" />
    <glyph glyph-name="acute.cap" horiz-adv-x="564" 
d="M265 552l-23 30l158 143c16 15 32 23 51 23c25 0 45 -22 45 -46c0 -25 -16 -44 -40 -56z" />
    <glyph glyph-name="hungarumlaut.cap" horiz-adv-x="564" 
d="M172 553l-24 30l137 140c15 16 32 26 50 26c25 0 46 -19 46 -47c0 -19 -16 -40 -39 -54zM386 555l-23 31l141 135c16 16 33 25 51 25c26 0 44 -21 44 -47c0 -21 -15 -41 -40 -54z" />
    <glyph glyph-name="caron.alt.cap" horiz-adv-x="564" 
d="M198 523l-24 23c41 47 56 79 65 113c7 32 2 62 11 96c6 27 24 46 54 46c31 0 50 -21 50 -53c0 -41 -20 -77 -50 -117c-31 -42 -71 -77 -106 -108z" />
    <glyph glyph-name="grave.cap" horiz-adv-x="659" 
d="M440 543l-128 105c-20 16 -27 33 -27 50c0 28 23 50 48 50s39 -12 55 -38l82 -144z" />
    <glyph glyph-name="circumflex.cap" horiz-adv-x="564" 
d="M224 549l-35 47l215 169l129 -176l-44 -38l-103 102z" />
    <glyph glyph-name="caron.cap" horiz-adv-x="564" 
d="M354 546l-129 176l44 39l102 -103l163 104l35 -46z" />
    <glyph glyph-name="breve.cap" horiz-adv-x="564" 
d="M358 556c-86 0 -141 64 -148 169l57 19c16 -68 48 -105 105 -105c49 0 95 28 142 103l51 -25c-48 -105 -130 -161 -207 -161z" />
    <glyph glyph-name="tilde.cap" horiz-adv-x="564" 
d="M448 552c-43 0 -69 22 -92 45s-37 33 -55 33c-28 0 -49 -19 -71 -71l-55 20c22 85 79 139 131 139c43 0 69 -22 92 -45c23 -22 36 -32 55 -32c28 0 49 19 71 71l54 -21c-21 -84 -78 -139 -130 -139z" />
    <glyph glyph-name="macron.cap" horiz-adv-x="564" 
d="M194 586l18 76h340l-17 -76h-341z" />
    <glyph glyph-name="dieresis.cap" horiz-adv-x="564" 
d="M276 570c-37 0 -67 30 -67 68c0 37 31 67 68 67s67 -30 67 -67c0 -38 -31 -68 -68 -68zM478 570c-37 0 -67 30 -67 68c0 37 31 67 68 67s66 -30 66 -67c0 -38 -31 -68 -67 -68z" />
    <glyph glyph-name="dotaccent.cap" horiz-adv-x="564" 
d="M372 569c-37 0 -68 30 -68 69c0 38 32 68 69 68c38 0 68 -30 68 -68c0 -39 -31 -69 -69 -69z" />
    <glyph glyph-name="ring.cap" horiz-adv-x="564" 
d="M368 550c-69 0 -109 49 -109 109c0 77 60 147 140 147c69 0 110 -49 110 -109c0 -77 -61 -147 -141 -147zM373 610c39 0 69 38 69 82c0 29 -19 54 -48 54c-39 0 -68 -38 -68 -82c0 -29 18 -54 47 -54z" />
    <glyph glyph-name="commaaccent.cap" horiz-adv-x="243" 
d="M27 -314l-16 31c83 43 115 90 118 110c-28 11 -41 38 -41 55c0 35 26 63 61 63s65 -28 65 -71c0 -66 -68 -145 -187 -188z" />
    <glyph glyph-name="cedilla.cap" horiz-adv-x="564" 
d="M195 -219c-52 0 -102 24 -131 46l22 33c27 -17 68 -30 104 -30c27 0 45 14 45 32c0 19 -21 36 -71 30l-16 21l65 111l33 -9l-21 -69c60 -8 91 -42 91 -81c0 -53 -53 -84 -121 -84z" />
    <glyph glyph-name="ogonek.cap" horiz-adv-x="565" 
d="M313 61l29 -22c-74 -47 -137 -99 -137 -149c0 -24 17 -39 47 -39c23 0 43 5 58 10l-15 -61c-14 -10 -42 -21 -78 -21c-53 0 -93 31 -93 84c0 78 87 148 189 198z" />
    <glyph glyph-name="hcoslug" horiz-adv-x="694" 
d="M644 700v-800h-594v800h594zM247 428c0 17 11 29 27 29c17 0 29 -15 29 -38c0 -17 -7 -33 -18 -50c-23 22 -38 36 -38 59zM312 342c19 13 33 24 42 34c23 -23 18 -47 -1 -80c-13 15 -25 30 -41 46zM261 219c-30 0 -52 23 -52 54c0 15 5 29 16 40c18 -17 46 -47 74 -82
c-11 -9 -23 -12 -38 -12zM382 264c15 20 31 33 46 42c9 -15 25 -25 43 -25c28 0 50 23 50 54s-22 52 -50 52c-25 0 -44 -14 -60 -38c-2 27 -22 38 -49 37c6 10 9 21 9 34c0 35 -33 74 -95 74c-67 0 -109 -42 -109 -85c0 -29 10 -47 31 -69c-53 -18 -82 -49 -82 -91
c0 -53 49 -93 109 -93c42 0 76 14 104 45c33 -34 55 -45 85 -45c43 0 78 36 80 94l-7 2c-10 -17 -22 -29 -43 -29c-20 0 -37 12 -62 41zM286 124l-12 -2v-9h-7v-7h7v-20c0 -8 4 -13 12 -13s12 4 14 13l-5 2c-1 -5 -3 -7 -5 -7c-3 0 -4 2 -4 5v20h13v7h-13v11zM174 94
c0 -13 9 -21 21 -21s21 9 21 21s-9 20 -21 20s-21 -8 -21 -20zM203 94c0 -12 -3 -16 -8 -16s-8 4 -8 16c0 11 3 15 8 15s8 -4 8 -15zM219 81v-7h22v7h-4v15c0 6 3 10 7 10s6 -3 6 -7v-18h-4v-7h22v7h-6v19c0 8 -3 14 -12 14c-7 0 -11 -4 -14 -11v10h-17v-7h6v-25h-6zM379 93
c0 -8 -2 -13 -7 -13c-6 0 -8 5 -8 13c0 7 2 13 8 13c5 0 7 -5 7 -13zM125 81v-7h30v7h-10v16h4c5 0 5 -1 6 -8h7v23h-7c-1 -7 -1 -8 -6 -8h-4v18h12c7 0 9 -2 11 -13h8v20h-51v-7h7v-41h-7zM302 88v-14h7l1 4c3 -2 6 -5 13 -5c9 0 14 6 14 13c0 16 -24 10 -24 18
c0 2 2 4 5 4c4 0 7 -3 10 -7h7v13h-6l-2 -5c-2 3 -6 5 -11 5c-9 0 -14 -6 -14 -12c0 -16 24 -11 24 -19c0 -2 -2 -4 -5 -4c-5 0 -8 3 -12 9h-7zM352 125v-52h6l4 8c3 -5 7 -8 14 -8c12 0 16 12 16 21c0 12 -6 20 -15 20c-6 0 -11 -3 -13 -9v27h-18v-7h6zM405 65
c3 3 2 10 -5 10c-4 0 -7 -3 -7 -7c0 -5 4 -9 11 -9c9 0 14 6 18 16l13 31h5v7h-17v-7h5l-8 -20l-9 20h6v7h-25v-7h5s12 -23 16 -33c-1 -5 -4 -8 -8 -8zM294 39v3c0 10 3 12 6 12c2 0 3 -1 3 -1s-1 -1 -1 -3c0 -4 3 -6 6 -6v-5h-14zM464 33h-18v-7h6c-1 -3 -4 -7 -6 -9
c-4 4 -7 8 -12 13c7 3 11 6 11 12s-5 12 -14 12c-10 0 -17 -7 -17 -14c0 -5 2 -8 6 -12c-7 -2 -13 -7 -13 -15s6 -14 18 -14c6 0 11 2 15 6c4 -5 7 -6 12 -6c8 0 11 5 13 12l-5 1c-1 -4 -2 -5 -4 -5s-4 2 -6 5c3 4 6 8 9 14h5v7zM469 27c0 -17 11 -28 29 -28
c15 0 23 9 24 23h-8c-1 -9 -6 -16 -14 -16c-10 0 -16 7 -16 22c0 16 6 22 14 22s11 -4 15 -16h8v22h-8l-1 -6c-4 4 -9 7 -16 7c-14 0 -27 -12 -27 -30zM431 33c-4 4 -6 7 -6 10s2 5 5 5c4 0 6 -3 6 -6c0 -4 -2 -7 -5 -9zM340 18h26c1 13 -5 22 -19 22c-11 0 -20 -9 -20 -21
s8 -20 21 -20c11 0 16 6 18 14h-7c-1 -5 -4 -7 -9 -7c-7 0 -10 3 -10 12zM525 20c0 -13 9 -21 21 -21s21 9 21 21s-9 20 -21 20s-21 -8 -21 -20zM189 20c0 -13 9 -21 21 -21s21 9 21 21s-9 20 -21 20s-21 -8 -21 -20zM247 18h26c1 13 -5 22 -19 22c-11 0 -20 -9 -20 -21
s8 -20 21 -20c11 0 16 6 18 14h-7c-1 -5 -4 -7 -9 -7c-7 0 -10 3 -10 12zM340 23c0 9 3 12 7 12c5 0 7 -4 7 -12h-14zM554 20c0 -12 -3 -16 -8 -16s-8 4 -8 16c0 11 3 15 8 15s8 -4 8 -15zM218 20c0 -12 -3 -16 -8 -16s-8 4 -8 16c0 11 3 15 8 15s8 -4 8 -15zM247 23
c0 9 3 12 7 12c5 0 7 -4 7 -12h-14zM368 7v-7h26v7h-8v16c2 5 5 9 7 9v-1c0 -4 3 -6 6 -6c4 0 7 3 7 7c0 5 -3 8 -8 8s-9 -3 -12 -11v10h-18v-7h6v-25h-6zM276 7v-7h23v7h-5v25h14v-25h-5v-7h23v7h-6v52l-10 -2c-2 1 -6 2 -9 2c-10 0 -19 -6 -19 -19v-1h-7v-7h7v-25h-6z
M124 7v-7h29v7h-8v18h22v-18h-8v-7h29v7h-8v41h8v7h-29v-7h8v-16h-22v16h8v7h-29v-7h8v-41h-8zM437 9c-3 -2 -6 -3 -8 -3c-6 0 -10 4 -10 10c0 4 2 7 4 9c5 -5 9 -10 14 -16zM583 6c0 4 -3 7 -7 7s-7 -3 -7 -7s3 -7 7 -7s7 3 7 7z" />
    </font>
</defs>
</svg>
