<?xml version="1.0" standalone="no"?>
<!DOCTYPE svg PUBLIC "-//W3C//DTD SVG 1.1//EN" "http://www.w3.org/Graphics/SVG/1.1/DTD/svg11.dtd" >
<svg xmlns="http://www.w3.org/2000/svg" xmlns:xlink="http://www.w3.org/1999/xlink" version="1.1">
<metadata>
Created by FontForge 20170924 at Mon Apr 21 19:19:10 2014
 By www-data
Copyright C 2010, 2014 Hoefler &#38; Co. http:www.typography.com
</metadata>
<defs>
<font id="ArcherSSm-Semibold" horiz-adv-x="590" >
  <font-face 
    font-family="Archer SSm"
    font-weight="375"
    font-stretch="normal"
    units-per-em="1000"
    panose-1="0 0 0 0 0 0 0 0 0 0"
    ascent="800"
    descent="-200"
    x-height="497"
    cap-height="724"
    bbox="-55 -340 1679 1180"
    underline-thickness="50"
    underline-position="-100"
    stemh="83"
    stemv="96"
    unicode-range="U+0020-FB04"
  />
<missing-glyph horiz-adv-x="500" 
d="M0 -200v1000h500v-1000h-500zM71 750l179 -390l179 390h-358zM450 676l-172 -376l172 -376v752zM50 -76l172 376l-172 376v-752zM250 240l-179 -390h358z" />
    <glyph glyph-name="f_b" unicode="fb" horiz-adv-x="1013" 
d="M469 -1v419h-246v-340h94v-78h-264v78h79v340h-88v79h88v126c0 75 20 134 58 174c39 40 92 61 158 61c54 0 99 -15 133 -46l20 41h59v-419c41 41 89 73 164 73c130 0 236 -105 236 -258c0 -143 -104 -258 -247 -258c-64 0 -118 24 -160 60l-26 -52h-58zM422 702
c0 14 4 28 12 39c-14 18 -45 37 -88 37c-35 0 -65 -12 -86 -34c-25 -25 -37 -65 -37 -112v-135h246v143c-27 6 -47 32 -47 62zM704 71c89 0 161 68 161 178c0 108 -68 177 -158 177c-60 0 -108 -28 -147 -67v-237c37 -28 84 -51 144 -51z" />
    <glyph glyph-name="f_f" unicode="ff" horiz-adv-x="718" 
d="M223 497h249v136c0 83 15 138 55 178c31 30 69 47 120 47c56 0 96 -27 96 -71c0 -36 -25 -58 -55 -58c-34 0 -53 21 -64 48c-14 -3 -26 -11 -35 -23c-17 -21 -26 -53 -26 -102v-155h129v-79h-129v-340h97v-78h-264v78h76v340h-249v-340h94v-78h-264v78h79v340h-88v79h88
v113c0 81 18 143 55 180c30 30 64 45 114 45c56 0 96 -27 96 -71c0 -36 -25 -58 -55 -58c-32 0 -52 18 -63 48c-11 -3 -21 -9 -30 -19c-17 -21 -26 -56 -26 -106v-132z" />
    <glyph glyph-name="f_h" unicode="fh" horiz-adv-x="1008" 
d="M422 702c0 14 4 28 12 39c-14 18 -45 37 -88 37c-35 0 -65 -12 -86 -34c-25 -25 -37 -65 -37 -112v-135h246v143c-27 6 -47 32 -47 62zM469 78v340h-246v-340h94v-78h-264v78h79v340h-88v79h88v126c0 75 20 134 58 174c39 40 92 61 158 61c54 0 99 -15 133 -46l20 41h59
v-441c48 52 109 95 180 95c58 0 99 -20 125 -54c22 -29 33 -68 33 -114v-261h79v-78h-246v78h76v242c0 33 -7 56 -21 73c-15 20 -40 29 -71 29c-58 0 -112 -35 -155 -80v-264h76v-78h-245v78h78z" />
    <glyph glyph-name="fi" unicode="fi" horiz-adv-x="682" 
d="M557 497v-419h82v-78h-251v78h78v340h-243v-340h93v-78h-263v78h79v340h-88v79h88v122c0 85 23 149 64 188c34 33 80 51 131 51c77 0 120 -42 120 -88c0 -34 -27 -62 -61 -62c-37 0 -64 33 -61 69c-4 1 -7 1 -9 1c-19 0 -43 -8 -62 -32c-18 -23 -31 -58 -31 -109v-140
h334z" />
    <glyph glyph-name="f_j" unicode="fj" horiz-adv-x="645" 
d="M466 418h-243v-340h93v-78h-263v78h79v340h-88v79h88v122c0 85 23 149 64 188c34 33 80 51 131 51c77 0 120 -42 120 -88c0 -34 -27 -62 -61 -62c-37 0 -64 33 -61 69c-4 1 -7 1 -9 1c-19 0 -43 -8 -62 -32c-18 -23 -31 -58 -31 -109v-140h334v-486
c0 -58 -8 -104 -23 -140c-30 -71 -86 -103 -154 -103c-72 0 -109 39 -109 80c0 30 23 58 56 58s55 -25 55 -58c0 -1 0 -4 -1 -7h2c35 0 58 25 71 65c8 27 12 59 12 96v416z" />
    <glyph glyph-name="f_k" unicode="fk" horiz-adv-x="975" 
d="M223 632v-135h246v143c-27 6 -47 32 -47 62c0 14 4 28 12 39c-14 18 -45 37 -88 37c-35 0 -65 -12 -86 -34c-25 -25 -37 -65 -37 -112zM560 853v-597l192 166h-90v75h285v-79h-90l-146 -125l147 -214h89v-79h-142l-161 242l-84 -71v-94h76v-77h-245v78h78v340h-246v-340
h94v-78h-264v78h79v340h-88v79h88v126c0 75 20 134 58 174c39 40 92 61 158 61c54 0 99 -15 133 -46l20 41h59z" />
    <glyph glyph-name="fl" unicode="fl" horiz-adv-x="682" 
d="M346 778c-35 0 -65 -12 -86 -34c-25 -25 -37 -65 -37 -112v-135h246v143c-27 6 -47 32 -47 62c0 14 4 28 12 39c-14 18 -45 37 -88 37zM389 78h80v340h-246v-340h94v-78h-264v78h79v340h-88v79h88v126c0 75 20 134 58 174c39 40 92 61 158 61c54 0 99 -15 133 -46l20 41
h59v-775h81v-78h-252v78z" />
    <glyph glyph-name="f_f_b" unicode="ffb" horiz-adv-x="1350" 
d="M758 702c0 14 4 28 12 39c-14 18 -45 37 -88 37c-35 0 -65 -12 -86 -34c-24 -25 -37 -65 -37 -112v-135h246v143c-27 6 -47 32 -47 62zM805 -1v419h-246v-340h97v-78h-264v78h77v340h-246v-340h94v-78h-264v78h79v340h-88v79h88v121c0 66 14 121 53 161
c33 35 76 56 140 56c26 0 50 -4 69 -13c35 -14 56 -40 56 -74s-23 -55 -55 -55c-33 0 -58 24 -61 61c-3 1 -7 1 -10 1c-33 0 -58 -11 -74 -31c-20 -26 -27 -59 -27 -99v-128h246v126c0 75 19 134 58 174s92 61 157 61c56 0 100 -15 133 -46l21 41h59v-419
c40 41 88 73 164 73c130 0 236 -105 236 -258c0 -143 -104 -258 -248 -258c-63 0 -118 24 -160 60l-25 -52h-59zM1041 71c89 0 161 68 161 178c0 108 -68 177 -159 177c-60 0 -107 -28 -146 -67v-237c36 -28 83 -51 144 -51z" />
    <glyph glyph-name="f_f_h" unicode="ffh" horiz-adv-x="1344" 
d="M559 632v-135h246v143c-27 6 -47 32 -47 62c0 14 4 28 12 39c-14 18 -45 37 -88 37c-35 0 -65 -12 -86 -34c-24 -25 -37 -65 -37 -112zM897 853v-441c47 52 109 95 180 95c57 0 99 -20 125 -54c22 -29 33 -68 33 -114v-261h78v-78h-245v78h75v242c0 33 -7 56 -20 73
c-16 20 -41 29 -72 29c-57 0 -111 -35 -154 -80v-264h75v-78h-244v78h77v340h-246v-340h94v-78h-261v78h77v340h-246v-340h94v-78h-264v78h79v340h-88v79h88v121c0 66 14 121 53 161c33 35 76 56 140 56c26 0 50 -4 69 -13c35 -14 56 -40 56 -74s-23 -55 -55 -55
c-33 0 -58 24 -61 61c-3 1 -7 1 -10 1c-33 0 -58 -11 -74 -31c-20 -26 -27 -59 -27 -99v-128h246v126c0 75 19 134 58 174s92 61 157 61c56 0 100 -15 133 -46l21 41h59z" />
    <glyph glyph-name="f_f_i" unicode="ffi" horiz-adv-x="1018" 
d="M783 770c0 -34 -26 -62 -61 -62c-38 0 -63 34 -61 69c-4 1 -8 1 -11 1c-17 0 -38 -7 -56 -27c-18 -21 -35 -58 -35 -114v-140h335v-419h81v-78h-251v78h78v340h-243v-340h93v-78h-260v78h77v340h-246v-340h94v-78h-264v78h79v340h-88v79h88v121c0 66 14 121 53 161
c33 35 76 56 140 56c26 0 50 -4 69 -13c35 -14 56 -40 56 -74s-23 -55 -55 -55c-33 0 -58 24 -61 61c-3 1 -7 1 -10 1c-33 0 -58 -11 -74 -31c-20 -26 -27 -59 -27 -99v-128h246v122c0 85 22 149 64 188c34 33 79 51 131 51c76 0 119 -42 119 -88z" />
    <glyph glyph-name="f_f_j" unicode="ffj" horiz-adv-x="981" 
d="M894 497v-486c0 -58 -9 -104 -24 -140c-29 -71 -86 -103 -153 -103c-72 0 -110 39 -110 80c0 30 24 58 57 58c32 0 54 -25 54 -58v-7h1c35 0 59 25 71 65c9 27 12 59 12 96v416h-243v-340h93v-78h-260v78h77v340h-246v-340h94v-78h-264v78h79v340h-88v79h88v121
c0 66 14 121 53 161c33 35 76 56 140 56c26 0 50 -4 69 -13c35 -14 56 -40 56 -74s-23 -55 -55 -55c-33 0 -58 24 -61 61c-3 1 -7 1 -10 1c-33 0 -58 -11 -74 -31c-20 -26 -27 -59 -27 -99v-128h246v122c0 85 22 149 64 188c34 33 79 51 131 51c76 0 119 -42 119 -88
c0 -34 -26 -62 -61 -62c-38 0 -63 34 -61 69c-4 1 -8 1 -11 1c-17 0 -38 -7 -56 -27c-18 -21 -35 -58 -35 -114v-140h335z" />
    <glyph glyph-name="f_f_k" unicode="ffk" horiz-adv-x="1312" 
d="M559 632v-135h246v143c-27 6 -47 32 -47 62c0 14 4 28 12 39c-14 18 -45 37 -88 37c-35 0 -65 -12 -86 -34c-24 -25 -37 -65 -37 -112zM897 853v-597l191 166h-90v75h285v-79h-89l-147 -125l147 -214h89v-79h-142l-161 242l-83 -71v-94h75v-77h-244v78h77v340h-246v-340
h94v-78h-261v78h77v340h-246v-340h94v-78h-264v78h79v340h-88v79h88v121c0 66 14 121 53 161c33 35 76 56 140 56c26 0 50 -4 69 -13c35 -14 56 -40 56 -74s-23 -55 -55 -55c-33 0 -58 24 -61 61c-3 1 -7 1 -10 1c-33 0 -58 -11 -74 -31c-20 -26 -27 -59 -27 -99v-128h246
v126c0 75 19 134 58 174s92 61 157 61c56 0 100 -15 133 -46l21 41h59z" />
    <glyph glyph-name="f_f_l" unicode="ffl" horiz-adv-x="1018" 
d="M559 632v-135h246v143c-27 6 -47 32 -47 62c0 14 4 28 12 39c-14 18 -45 37 -88 37c-35 0 -65 -12 -86 -34c-24 -25 -37 -65 -37 -112zM223 625v-128h246v126c0 75 19 134 58 174s92 61 157 61c56 0 100 -15 133 -46l21 41h59v-775h81v-78h-253v78h80v340h-246v-340h94
v-78h-261v78h77v340h-246v-340h94v-78h-264v78h79v340h-88v79h88v121c0 66 14 121 53 161c33 35 76 56 140 56c26 0 50 -4 69 -13c35 -14 56 -40 56 -74s-23 -55 -55 -55c-33 0 -58 24 -61 61c-3 1 -7 1 -10 1c-33 0 -58 -11 -74 -31c-20 -26 -27 -59 -27 -99z" />
    <glyph glyph-name=".notdef" horiz-adv-x="500" 
d="M0 -200v1000h500v-1000h-500zM71 750l179 -390l179 390h-358zM450 676l-172 -376l172 -376v752zM50 -76l172 376l-172 376v-752zM250 240l-179 -390h358z" />
    <glyph glyph-name="A" unicode="A" horiz-adv-x="781" 
d="M272 323h234l-117 322zM22 0v84h68l205 557h-81v83h353v-83h-81l206 -557h67v-84h-252v83h84l-58 161h-289l-57 -161h88v-83h-253z" />
    <glyph glyph-name="B" unicode="B" horiz-adv-x="671" 
d="M53 0v84h89v556h-89v84h290c173 0 249 -85 249 -186c0 -85 -54 -143 -130 -167c95 -26 151 -79 151 -172c0 -115 -94 -199 -258 -199h-302zM236 407h100c106 0 161 48 161 122c0 71 -56 112 -157 112h-104v-234zM236 82h121c101 0 161 49 161 123c0 82 -66 125 -177 125
h-105v-248z" />
    <glyph glyph-name="C" unicode="C" horiz-adv-x="780" 
d="M437 -13c-223 0 -375 166 -375 372c0 222 172 378 372 378c157 0 273 -91 273 -178c0 -44 -29 -76 -68 -76s-67 27 -67 64c0 19 10 36 21 43c-20 26 -76 61 -161 61c-158 0 -273 -131 -273 -291c0 -152 113 -287 278 -287c86 0 158 34 219 94l59 -66
c-72 -74 -174 -114 -278 -114z" />
    <glyph glyph-name="D" unicode="D" horiz-adv-x="803" 
d="M53 0v84h89v556h-89v84h272c255 0 416 -139 416 -355c0 -219 -151 -369 -422 -369h-266zM236 84h95c208 0 313 115 313 286c0 169 -125 270 -322 270h-86v-556z" />
    <glyph glyph-name="E" unicode="E" horiz-adv-x="651" 
d="M53 0v84h89v556h-89v84h530v-186h-91v103h-256v-232h232v-81h-232v-245h257v103h90v-186h-530z" />
    <glyph glyph-name="F" unicode="F" horiz-adv-x="629" 
d="M53 0v84h89v556h-89v84h522v-186h-90v103h-249v-245h227v-82h-227v-230h99v-84h-282z" />
    <glyph glyph-name="G" unicode="G" horiz-adv-x="815" 
d="M413 -13c-181 0 -351 139 -351 370c0 228 173 380 377 380c165 0 274 -90 274 -170c0 -44 -28 -74 -66 -74c-39 0 -67 27 -67 65c0 17 6 31 16 40c-26 26 -82 53 -160 53c-162 0 -277 -126 -277 -293c0 -173 124 -287 266 -287c80 0 145 22 203 62v146h-195v80h287v-359
h-90v60c-59 -45 -128 -73 -217 -73z" />
    <glyph glyph-name="H" unicode="H" horiz-adv-x="855" 
d="M53 0v84h89v556h-89v84h277v-84h-94v-229h382v229h-93v84h277v-84h-90v-556h90v-84h-277v84h93v244h-382v-244h94v-84h-277z" />
    <glyph glyph-name="I" unicode="I" horiz-adv-x="391" 
d="M53 0v84h95v556h-95v84h284v-84h-95v-556h95v-84h-284z" />
    <glyph glyph-name="J" unicode="J" horiz-adv-x="593" 
d="M247 -13c-116 0 -211 78 -211 179c0 51 30 87 73 87c32 0 61 -26 61 -61c0 -24 -15 -46 -36 -52c6 -29 44 -67 113 -67c35 0 67 11 89 34c28 27 40 74 40 137v396h-111v84h288v-84h-84v-397c0 -85 -22 -154 -64 -197c-40 -39 -93 -59 -158 -59z" />
    <glyph glyph-name="K" unicode="K" horiz-adv-x="752" 
d="M53 0v84h89v556h-89v84h277v-83h-94v-295l294 295h-93v83h291v-84h-80l-226 -224l217 -332h93v-84h-153l-227 353l-116 -114v-155h94v-84h-277z" />
    <glyph glyph-name="L" unicode="L" horiz-adv-x="616" 
d="M53 0v84h89v556h-89v84h282v-84h-99v-557h236v108h91v-191h-510z" />
    <glyph glyph-name="M" unicode="M" horiz-adv-x="972" 
d="M47 0v84h92l25 556h-95v84h183l233 -466l233 466h181v-84h-95l25 -556h92v-84h-276v84h91l-17 467l-226 -443h-20l-226 443l-17 -467h91v-84h-274z" />
    <glyph glyph-name="N" unicode="N" horiz-adv-x="841" 
d="M663 -3l-430 560v-473h94v-84h-274v84h89v556h-89v84h170l400 -523v439h-93v84h270v-84h-86v-642z" />
    <glyph glyph-name="O" unicode="O" horiz-adv-x="860" 
d="M427 -13c-213 0 -365 164 -365 374c0 213 155 376 370 376c213 0 366 -164 366 -375c0 -212 -155 -375 -371 -375zM430 74c158 0 271 123 271 287c0 165 -113 289 -271 289s-271 -123 -271 -288c0 -164 113 -288 271 -288z" />
    <glyph glyph-name="P" unicode="P" horiz-adv-x="647" 
d="M336 337c107 0 172 60 172 156c0 92 -75 147 -175 147h-97v-300c20 -2 53 -3 100 -3zM53 0v84h89v556h-89v84h282c153 0 269 -89 269 -231c0 -153 -111 -238 -275 -238c-37 0 -73 0 -93 2v-173h97v-84h-280z" />
    <glyph glyph-name="Q" unicode="Q" horiz-adv-x="860" 
d="M718 -152c-100 0 -175 67 -236 105c-32 20 -67 32 -104 38c-81 13 -149 45 -204 97c-68 62 -112 162 -112 273c0 213 155 376 370 376c213 0 366 -164 366 -375c0 -182 -110 -315 -260 -351c18 -6 39 -17 56 -28c46 -29 75 -46 118 -46c30 0 54 6 92 32l45 -75
c-43 -39 -90 -46 -131 -46zM430 74c158 0 271 123 271 287c0 165 -113 289 -271 289s-271 -123 -271 -288c0 -87 32 -164 86 -216c47 -45 111 -72 185 -72z" />
    <glyph glyph-name="Q.alt" horiz-adv-x="860" 
d="M651 -122l-86 134c-42 -16 -89 -25 -138 -25c-213 0 -365 164 -365 374c0 213 155 376 370 376c213 0 366 -164 366 -375c0 -129 -61 -243 -158 -310l83 -130zM430 73c31 0 61 4 88 13l-79 125l72 45l83 -131c67 50 107 134 107 236c0 165 -113 289 -271 289
s-271 -123 -271 -288c0 -164 113 -289 271 -289z" />
    <glyph glyph-name="R" unicode="R" horiz-adv-x="688" 
d="M320 369c105 0 182 50 182 140c0 86 -69 131 -178 131h-88v-269c20 -1 47 -2 84 -2zM53 0v84h89v556h-89v84h276c162 0 270 -78 270 -213c0 -97 -62 -167 -150 -198l140 -229h85v-84h-150l-168 290c-14 -1 -29 -2 -43 -2c-27 0 -57 0 -77 2v-206h94v-84h-277z" />
    <glyph glyph-name="S" unicode="S" horiz-adv-x="614" 
d="M305 -13c-141 0 -245 80 -245 156c0 44 27 74 63 74c39 0 64 -29 64 -59c0 -19 -7 -34 -16 -47c25 -23 75 -41 136 -41c91 0 148 45 148 119c0 70 -67 102 -146 132c-128 48 -222 92 -222 220c0 112 90 196 228 196c124 0 223 -68 223 -147c0 -44 -28 -69 -62 -69
c-40 0 -65 30 -65 62c0 17 7 29 14 39c-20 19 -66 33 -111 33c-83 0 -133 -45 -133 -107c0 -72 66 -102 152 -135c122 -46 215 -91 215 -217c0 -131 -103 -209 -243 -209z" />
    <glyph glyph-name="T" unicode="T" horiz-adv-x="697" 
d="M206 0v84h96v559h-168v-116h-90v197h610v-197h-90v116h-168v-559h96v-84h-286z" />
    <glyph glyph-name="U" unicode="U" horiz-adv-x="783" 
d="M391 -13c-164 0 -265 93 -265 267v386h-87v84h273v-84h-93v-380c0 -124 64 -187 173 -187s173 59 173 183v384h-92v84h272v-84h-88v-383c0 -177 -104 -270 -266 -270z" />
    <glyph glyph-name="V" unicode="V" horiz-adv-x="771" 
d="M359 -10l-267 650h-70v84h256v-84h-80l190 -486l189 486h-84v84h256v-84h-70l-266 -650h-54z" />
    <glyph glyph-name="W" unicode="W" horiz-adv-x="1107" 
d="M313 -10l-203 650h-82v84h275v-84h-93l142 -470l181 472h51l182 -472l137 470h-96v84h274v-84h-82l-200 -650h-53l-189 483l-190 -483h-54z" />
    <glyph glyph-name="X" unicode="X" horiz-adv-x="796" 
d="M43 0v84h76l225 287l-208 269h-79v84h266v-82h-78l157 -217l158 217h-84v82h266v-84h-79l-208 -268l222 -288h77v-84h-264v81h79l-171 238l-176 -238h84v-81h-263z" />
    <glyph glyph-name="Y" unicode="Y" horiz-adv-x="715" 
d="M211 0v84h99v202l-212 354h-75v84h252v-84h-71l155 -274l157 274h-76v84h253v-84h-77l-211 -354v-202h99v-84h-293z" />
    <glyph glyph-name="Z" unicode="Z" horiz-adv-x="680" 
d="M53 0v49l433 596h-326v-117h-84v196h544v-49l-433 -596h358v116h82v-195h-574z" />
    <glyph glyph-name="a" unicode="a" horiz-adv-x="584" 
d="M243 62c56 0 105 28 143 63v81c-34 10 -80 19 -126 19c-74 0 -114 -35 -114 -85c0 -46 35 -78 97 -78zM217 -9c-93 0 -164 54 -164 142c0 91 81 150 194 150c53 0 114 -12 139 -21v61c0 29 -8 53 -22 70c-21 26 -56 39 -105 39c-35 0 -55 -8 -70 -17c3 -8 6 -19 6 -29
c0 -31 -23 -54 -55 -54c-33 0 -56 23 -56 57c0 58 65 118 188 118c76 0 131 -22 165 -61c25 -29 38 -68 38 -111v-257h78v-78h-165v61c-40 -38 -104 -70 -171 -70z" />
    <glyph glyph-name="b" unicode="b" horiz-adv-x="641" 
d="M340 -9c-63 0 -118 24 -160 60l-25 -52h-59v771h-79v79h170v-414c41 40 89 72 164 72c131 0 237 -105 237 -258c0 -143 -104 -258 -248 -258zM332 71c88 0 161 68 161 178c0 108 -69 177 -159 177c-60 0 -108 -28 -147 -67v-238c37 -28 84 -50 145 -50z" />
    <glyph glyph-name="c" unicode="c" horiz-adv-x="564" 
d="M318 -9c-153 0 -267 108 -267 258c0 136 108 258 249 258c119 0 209 -78 209 -154c0 -41 -29 -71 -67 -71c-30 0 -59 22 -59 59c0 16 8 31 22 41c-12 26 -57 48 -106 48c-69 0 -155 -59 -155 -183c0 -104 76 -177 183 -177c57 0 109 18 169 54l-8 -86
c-51 -33 -112 -47 -170 -47z" />
    <glyph glyph-name="d" unicode="d" horiz-adv-x="649" 
d="M302 71c60 0 106 28 145 67v237c-36 29 -81 51 -141 51c-91 0 -159 -72 -159 -179c-1 -107 67 -176 155 -176zM287 -9c-132 0 -235 103 -235 255c0 142 99 261 245 261c62 0 114 -24 150 -56v319h-89v79h181v-771h78v-78h-169v66c-40 -44 -90 -75 -161 -75z" />
    <glyph glyph-name="e" unicode="e" horiz-adv-x="575" 
d="M522 221h-377c12 -102 83 -151 185 -151c65 0 117 21 176 54l-8 -86c-52 -32 -115 -47 -181 -47c-160 0 -268 104 -268 256c0 139 95 260 247 260c150 0 231 -110 231 -236c0 -19 -2 -36 -5 -50zM292 430c-70 0 -134 -47 -147 -140h290c-5 83 -54 140 -143 140z" />
    <glyph glyph-name="f" unicode="f" horiz-adv-x="384" 
d="M349 729c-34 0 -52 21 -63 48c-14 -3 -26 -11 -35 -23c-17 -21 -26 -53 -26 -102v-155h129v-79h-129v-340h96v-78h-266v78h79v340h-88v79h88v136c0 83 14 138 55 178c30 30 68 47 119 47c57 0 96 -27 96 -71c0 -36 -25 -58 -55 -58z" />
    <glyph glyph-name="g" unicode="g" horiz-adv-x="653" 
d="M307 426c-95 0 -160 -72 -160 -173s66 -169 157 -169c58 0 104 28 142 67v224c-35 29 -80 51 -139 51zM538 418v-431c0 -62 -16 -110 -46 -146c-42 -51 -111 -73 -189 -73c-80 0 -144 25 -175 56c-18 18 -26 38 -26 59c0 35 24 63 60 63c31 0 54 -24 54 -54
c0 -10 -3 -21 -8 -30c16 -8 47 -17 91 -17c49 0 92 13 120 47c17 23 27 53 27 94v91c-40 -42 -87 -72 -160 -72c-129 0 -234 101 -234 247c0 136 99 255 243 255c66 0 117 -26 155 -61v51h166v-79h-78z" />
    <glyph glyph-name="h" unicode="h" horiz-adv-x="656" 
d="M117 770h-79v79h170v-437c48 52 110 95 180 95c58 0 100 -20 126 -54c22 -29 33 -68 33 -114v-261h78v-78h-245v78h75v242c0 33 -7 56 -20 73c-16 20 -41 29 -72 29c-57 0 -112 -35 -155 -80v-264h76v-78h-246v78h79v692z" />
    <glyph glyph-name="i" unicode="i" horiz-adv-x="349" 
d="M167 612c-37 0 -69 31 -69 69s33 69 70 69s68 -31 68 -69s-32 -69 -69 -69zM51 0v78h82v340h-82v79h173v-419h82v-78h-255z" />
    <glyph glyph-name="j" unicode="j" horiz-adv-x="319" 
d="M170 612c-38 0 -69 31 -69 69s32 69 70 69c37 0 68 -31 68 -69s-33 -69 -69 -69zM-55 -152c0 30 23 58 56 58s55 -25 55 -58c0 -1 0 -4 -1 -7h2c35 0 58 25 71 65c8 27 12 59 12 96v416h-95v79h186v-486c0 -58 -8 -104 -23 -140c-30 -71 -86 -103 -154 -103
c-72 0 -109 39 -109 80z" />
    <glyph glyph-name="k" unicode="k" horiz-adv-x="624" 
d="M38 0v78h79v692h-79v79h170v-593l192 166h-90v75h285v-79h-89l-147 -125l147 -214h89v-79h-142l-161 242l-84 -71v-94h76v-77h-246z" />
    <glyph glyph-name="l" unicode="l" horiz-adv-x="336" 
d="M40 0v78h83v692h-83v79h174v-771h82v-78h-256z" />
    <glyph glyph-name="m" unicode="m" horiz-adv-x="974" 
d="M48 0v78h79v340h-79v79h167v-88c42 50 105 98 177 98c59 0 99 -22 122 -58c7 -11 12 -23 16 -36c52 53 114 94 178 94c72 0 115 -27 138 -72c12 -26 18 -59 18 -95v-262h79v-78h-245v78h75v243c0 24 -3 44 -10 59c-12 29 -36 42 -73 42c-55 0 -103 -32 -149 -78v-266h75
v-78h-242v78h76v243c0 24 -3 44 -9 59c-13 29 -36 42 -74 42c-56 0 -106 -35 -149 -79v-265h75v-78h-245z" />
    <glyph glyph-name="n" unicode="n" horiz-adv-x="663" 
d="M215 497v-89c47 53 112 99 183 99c63 0 106 -24 131 -64c17 -28 25 -63 25 -104v-261h78v-78h-245v78h75v242c0 25 -3 46 -11 62c-14 27 -40 40 -78 40c-57 0 -112 -35 -155 -80v-264h76v-78h-246v78h79v340h-79v79h167z" />
    <glyph glyph-name="o" unicode="o" horiz-adv-x="620" 
d="M310 -9c-157 0 -258 117 -258 258c0 139 102 258 258 258c157 0 258 -117 258 -258c0 -140 -102 -258 -258 -258zM310 69c96 0 163 74 163 180c0 104 -67 179 -163 179s-163 -75 -163 -179c0 -106 67 -180 163 -180z" />
    <glyph glyph-name="p" unicode="p" horiz-adv-x="653" 
d="M349 71c89 0 156 72 156 179c1 107 -65 176 -153 176c-60 0 -105 -28 -144 -67v-238c36 -29 81 -50 141 -50zM38 -227v77h79v568h-79v79h167v-67c41 45 89 77 162 77c131 0 233 -104 233 -255c0 -142 -99 -261 -243 -261c-57 0 -109 21 -149 54v-195h92v-77h-262z" />
    <glyph glyph-name="q" unicode="q" horiz-adv-x="625" 
d="M356 -227v79h96v210c-41 -40 -89 -71 -164 -71c-130 0 -236 104 -236 257c0 143 104 259 247 259c64 0 118 -24 160 -60l26 52h59v-647h79v-79h-267zM306 71c59 0 107 28 146 67v238c-37 28 -84 50 -144 50c-89 0 -161 -68 -161 -177s68 -178 159 -178z" />
    <glyph glyph-name="r" unicode="r" horiz-adv-x="464" 
d="M368 507c52 0 79 -33 79 -70c0 -34 -27 -63 -61 -63c-32 0 -54 20 -63 42c-37 -12 -81 -54 -105 -102v-236h92v-78h-262v78h79v340h-79v79h167v-112c39 68 97 122 153 122z" />
    <glyph glyph-name="s" unicode="s" horiz-adv-x="521" 
d="M448 396c0 -34 -21 -57 -51 -57c-33 0 -57 21 -57 53c0 9 1 18 4 26c-18 11 -49 17 -82 17c-66 0 -103 -33 -103 -67c0 -39 41 -54 122 -75c105 -27 186 -55 186 -151c0 -97 -94 -152 -202 -152c-74 0 -149 24 -183 58c-18 18 -27 39 -27 64c0 31 22 57 54 57
s57 -21 57 -54c0 -10 -3 -19 -7 -28c18 -12 57 -25 106 -25c63 0 113 26 113 71c0 40 -40 57 -112 76c-125 31 -195 61 -195 151c0 76 68 147 192 147c65 0 128 -21 159 -53c18 -17 26 -36 26 -58z" />
    <glyph glyph-name="t" unicode="t" horiz-adv-x="405" 
d="M244 -9c-54 0 -95 19 -116 61c-10 18 -14 43 -14 71v295h-94v79h94v117l91 37v-154h152v-79h-152v-280c0 -17 2 -28 7 -39c9 -17 28 -25 57 -25c30 0 66 14 94 29l-9 -84c-29 -14 -64 -28 -110 -28z" />
    <glyph glyph-name="u" unicode="u" horiz-adv-x="653" 
d="M265 -9c-64 0 -108 25 -132 66c-16 27 -24 61 -24 101v260h-78v79h170v-319c0 -27 5 -47 13 -64c14 -26 39 -39 76 -39c58 0 110 36 155 80v263h-80v79h171v-419h79v-78h-167v89c-47 -53 -111 -98 -183 -98z" />
    <glyph glyph-name="v" unicode="v" horiz-adv-x="618" 
d="M282 -15l-207 433h-63v79h237v-76h-78l140 -311l140 311h-81v76h237v-79h-64l-206 -433h-55z" />
    <glyph glyph-name="w" unicode="w" horiz-adv-x="824" 
d="M218 -20l-133 438h-73v79h236v-76h-77l85 -297l133 319h53l133 -319l84 297h-83v76h236v-79h-74l-132 -438h-55l-139 330l-139 -330h-55z" />
    <glyph glyph-name="x" unicode="x" horiz-adv-x="601" 
d="M25 0v79h67l158 173l-150 166h-66v79h226v-74h-63l105 -128l104 128h-65v74h224v-79h-67l-147 -163l159 -176h66v-79h-230v74h67l-115 138l-115 -138h69v-74h-227z" />
    <glyph glyph-name="y" unicode="y" horiz-adv-x="608" 
d="M257 -153c-37 -50 -80 -78 -129 -78c-53 0 -92 29 -92 68c0 35 24 55 52 55c30 0 48 -21 54 -43c17 6 35 20 54 50c11 16 22 37 34 62l32 66l-185 391h-66v79h238v-76h-77s135 -305 134 -305l136 305h-80v76h235v-79h-65l-235 -502c-13 -26 -26 -49 -40 -69z" />
    <glyph glyph-name="z" unicode="z" horiz-adv-x="534" 
d="M44 0v45l314 378h-214v-96h-80v170h421v-45l-314 -377h239v96h80v-171h-446z" />
    <glyph glyph-name="a.sc" horiz-adv-x="688" 
d="M342 522l-91 -251h182zM169 595h350v-79h-85l163 -438h69v-78h-252v77h90l-43 117h-237l-42 -117h89v-77h-250v78h71l162 438h-85v79z" />
    <glyph glyph-name="b.sc" horiz-adv-x="627" 
d="M348 0h-295v78h98v438h-98v79h285c150 0 212 -69 212 -153c0 -72 -45 -118 -109 -137c78 -20 126 -64 126 -141c0 -97 -74 -164 -219 -164zM243 336h93c80 0 121 37 121 94c0 55 -42 87 -121 87h-93v-181zM243 77h108c78 0 122 37 122 95c0 63 -47 95 -132 95h-98v-190z
" />
    <glyph glyph-name="c.sc" horiz-adv-x="658" 
d="M544 151l56 -62c-60 -64 -147 -102 -239 -102c-185 0 -307 137 -307 310c0 178 132 313 313 313c132 0 228 -79 228 -153c0 -43 -26 -73 -65 -73c-38 0 -64 24 -64 61c0 17 8 32 17 39c-18 19 -59 43 -120 43c-124 0 -214 -95 -214 -229c0 -135 92 -227 212 -227
c74 0 134 30 183 80z" />
    <glyph glyph-name="d.sc" horiz-adv-x="709" 
d="M308 0h-255v78h98v438h-98v79h261c211 0 342 -113 342 -292c0 -181 -123 -303 -348 -303zM243 78h78c161 0 241 91 241 225s-95 213 -248 213h-71v-438z" />
    <glyph glyph-name="e.sc" horiz-adv-x="606" 
d="M539 0h-486v78h98v438h-98v79h485v-185h-86v107h-209v-181h187v-76h-187v-183h210v105h86v-182z" />
    <glyph glyph-name="f.sc" horiz-adv-x="581" 
d="M345 0h-292v78h98v438h-98v79h483v-185h-87v107h-206v-188h183v-75h-183v-176h102v-78z" />
    <glyph glyph-name="g.sc" horiz-adv-x="692" 
d="M366 527c-128 0 -217 -97 -217 -230c0 -135 96 -228 211 -228c61 0 114 15 157 46v111h-156v76h246v-302h-88v44c-43 -32 -100 -57 -175 -57c-150 0 -290 117 -290 308c0 189 140 315 317 315c140 0 232 -78 232 -149c0 -43 -26 -71 -64 -71s-64 23 -64 59
c0 16 7 31 15 39c-21 18 -65 39 -124 39z" />
    <glyph glyph-name="h.sc" horiz-adv-x="784" 
d="M53 0v78h98v438h-98v79h289v-79h-99v-179h298v179h-99v79h289v-79h-98v-438h98v-78h-289v78h99v180h-298v-180h99v-78h-289z" />
    <glyph glyph-name="i.sc" horiz-adv-x="399" 
d="M346 0h-293v78h100v438h-100v79h293v-79h-100v-438h100v-78z" />
    <glyph glyph-name="j.sc" horiz-adv-x="536" 
d="M218 71c28 0 54 8 72 27c21 24 31 60 31 111v307h-101v79h283v-79h-91v-309c0 -73 -19 -132 -55 -168c-35 -35 -82 -52 -138 -52c-103 0 -186 69 -186 155c0 47 28 78 68 78c33 0 61 -25 61 -58c0 -21 -12 -41 -30 -48c8 -18 37 -43 86 -43z" />
    <glyph glyph-name="k.sc" horiz-adv-x="695" 
d="M588 516l-189 -186l173 -252h95v-78h-153l-182 270l-88 -86v-106h95l1 -78h-287v78h99v438h-99v79h277v-78h-86v-234l238 234h-83v78h260v-79h-71z" />
    <glyph glyph-name="l.sc" horiz-adv-x="572" 
d="M448 78v113h86v-191h-481v78h98v438h-98v79h291v-79h-101v-438h205z" />
    <glyph glyph-name="m.sc" horiz-adv-x="872" 
d="M621 595h186v-79h-97l21 -438h97v-78h-287v78h97l-13 363l-179 -346h-22l-181 346l-13 -363h100v-78h-286v78h98l19 438h-97v79h188l186 -360z" />
    <glyph glyph-name="n.sc" horiz-adv-x="769" 
d="M230 595l318 -415v336h-96v79h281v-79h-97v-519h-61l-336 442v-361h94v-78h-280v78h98v438h-98v79h177z" />
    <glyph glyph-name="o.sc" horiz-adv-x="722" 
d="M361 610c184 0 308 -138 308 -310c0 -175 -123 -313 -308 -313s-307 138 -307 313c0 172 123 310 307 310zM361 71c123 0 213 91 213 227c0 134 -89 227 -213 227c-123 0 -212 -92 -212 -227c0 -136 89 -227 212 -227z" />
    <glyph glyph-name="p.sc" horiz-adv-x="591" 
d="M321 281c83 0 134 47 134 121c0 70 -58 114 -136 114h-76v-233c15 -1 47 -2 78 -2zM53 595h267c128 0 228 -74 228 -192c0 -130 -95 -199 -235 -199c-26 0 -54 0 -70 1v-127h99v-78h-289v78h98v438h-98v79z" />
    <glyph glyph-name="q.sc" horiz-adv-x="722" 
d="M588 -131c-89 0 -144 53 -195 87c-29 19 -50 26 -84 34c-66 14 -121 38 -167 84c-56 55 -88 136 -88 226c0 172 123 310 307 310s308 -138 308 -310c0 -141 -82 -256 -209 -293c9 -4 22 -11 34 -18c31 -21 55 -35 88 -35c26 0 49 8 80 31l44 -71
c-37 -33 -75 -45 -118 -45zM361 71c121 0 213 95 213 227c0 134 -89 227 -213 227c-123 0 -212 -92 -212 -227c0 -68 24 -126 62 -166c37 -38 90 -61 150 -61z" />
    <glyph glyph-name="q.sc_alt" horiz-adv-x="722" 
d="M669 300c0 -107 -46 -200 -124 -256l63 -99l-69 -44l-67 105c-34 -12 -71 -19 -111 -19c-185 0 -307 138 -307 313c0 172 123 310 307 310s308 -138 308 -310zM574 298c0 134 -89 227 -213 227c-123 0 -212 -92 -212 -227c0 -136 89 -227 212 -227c22 0 44 3 64 9l-61 95
l70 45l64 -101c47 40 76 102 76 179z" />
    <glyph glyph-name="r.sc" horiz-adv-x="646" 
d="M322 516h-79v-206c19 -2 50 -3 79 -3c86 0 143 40 143 108c0 64 -55 101 -143 101zM243 231v-153h94v-78h-284v78h98v438h-98v79h274c138 0 231 -63 231 -179c0 -77 -48 -135 -117 -163l99 -175h88v-78h-154l-124 231c-20 -2 -33 -2 -42 -2c-18 0 -46 0 -65 2z" />
    <glyph glyph-name="s.sc" horiz-adv-x="564" 
d="M372 472c0 15 5 27 11 35c-16 13 -55 25 -99 25c-69 0 -115 -32 -115 -83c0 -56 69 -78 130 -101c105 -37 205 -73 205 -184c0 -116 -95 -177 -224 -177c-127 0 -224 67 -224 140c0 42 23 69 61 69s65 -27 65 -58c0 -16 -5 -30 -12 -41c19 -17 60 -32 113 -32
c80 0 130 32 130 91c0 56 -70 80 -130 102c-111 39 -207 72 -207 183c0 99 85 169 213 169c118 0 207 -59 207 -133c0 -39 -26 -64 -58 -64c-43 0 -66 29 -66 59z" />
    <glyph glyph-name="t.sc" horiz-adv-x="632" 
d="M170 0v78h100v440h-140v-114h-86v191h544v-191h-86v114h-140v-440h100v-78h-292z" />
    <glyph glyph-name="u.sc" horiz-adv-x="723" 
d="M219 516v-295c0 -98 55 -155 143 -155s143 54 143 153v297h-95v79h278v-79h-92v-292c0 -156 -92 -237 -235 -237c-145 0 -234 79 -234 234v295h-92v79h280v-79h-96z" />
    <glyph glyph-name="v.sc" horiz-adv-x="666" 
d="M302 -9l-216 525h-70v79h255v-79h-87l152 -389l152 389h-88v79h251v-79h-71l-216 -525h-62z" />
    <glyph glyph-name="w.sc" horiz-adv-x="927" 
d="M259 -11l-161 527h-81v79h270v-79h-91l108 -369l141 371h44l142 -371l108 369h-93v79h264v-79h-80l-162 -527h-62l-143 373l-141 -373h-63z" />
    <glyph glyph-name="x.sc" horiz-adv-x="683" 
d="M652 80v-80h-261v77h81l-135 177l-133 -177h88v-77h-262v80h77l177 224l-167 212h-77v79h260v-78h-78l122 -163l121 163h-78v78h256v-79h-82l-165 -212l180 -224h76z" />
    <glyph glyph-name="y.sc" horiz-adv-x="626" 
d="M615 595v-79h-74l-182 -294v-144h99v-78h-291v78h100v144l-183 294h-73v79h257v-78h-85l132 -222l133 222h-88v78h255z" />
    <glyph glyph-name="z.sc" horiz-adv-x="594" 
d="M54 0v52l358 466h-261v-110h-81v187h471v-52l-357 -466h276v109h82v-186h-488z" />
    <glyph glyph-name="Aacute" unicode="&#xc1;" horiz-adv-x="781" 
d="M364 789l-26 29l129 146c16 17 33 28 51 28c25 0 47 -20 47 -50c0 -17 -13 -37 -36 -52zM272 323h234l-117 322zM22 0v84h68l205 557h-81v83h353v-83h-81l206 -557h67v-84h-252v83h84l-58 161h-289l-57 -161h88v-83h-253z" />
    <glyph glyph-name="aacute" unicode="&#xe1;" horiz-adv-x="584" 
d="M258 580l-27 30l137 153c16 18 35 29 54 29c26 0 49 -20 49 -51c0 -18 -14 -39 -39 -55zM243 62c56 0 105 28 143 63v81c-34 10 -80 19 -126 19c-74 0 -114 -35 -114 -85c0 -46 35 -78 97 -78zM217 -9c-93 0 -164 54 -164 142c0 91 81 150 194 150c53 0 114 -12 139 -21
v61c0 29 -8 53 -22 70c-21 26 -56 39 -105 39c-35 0 -55 -8 -70 -17c3 -8 6 -19 6 -29c0 -31 -23 -54 -55 -54c-33 0 -56 23 -56 57c0 58 65 118 188 118c76 0 131 -22 165 -61c25 -29 38 -68 38 -111v-257h78v-78h-165v61c-40 -38 -104 -70 -171 -70z" />
    <glyph glyph-name="aacute.sc" horiz-adv-x="688" 
d="M316 669l-27 30l137 153c16 18 35 29 54 29c26 0 49 -20 49 -51c0 -18 -14 -39 -39 -55zM342 522l-91 -251h182zM169 595h350v-79h-85l163 -438h69v-78h-252v77h90l-43 117h-237l-42 -117h89v-77h-250v78h71l162 438h-85v79z" />
    <glyph glyph-name="Abreve" unicode="&#x102;" horiz-adv-x="781" 
d="M389 797c-82 0 -152 57 -183 161l61 26c26 -68 73 -102 122 -102c52 0 97 38 123 102l60 -26c-30 -104 -101 -161 -183 -161zM272 323h234l-117 322zM22 0v84h68l205 557h-81v83h353v-83h-81l206 -557h67v-84h-252v83h84l-58 161h-289l-57 -161h88v-83h-253z" />
    <glyph glyph-name="abreve" unicode="&#x103;" horiz-adv-x="584" 
d="M285 588c-87 0 -160 61 -192 169l62 26c28 -70 78 -106 130 -106c54 0 102 40 129 106l62 -26c-31 -108 -105 -169 -191 -169zM243 62c56 0 105 28 143 63v81c-34 10 -80 19 -126 19c-74 0 -114 -35 -114 -85c0 -46 35 -78 97 -78zM217 -9c-93 0 -164 54 -164 142
c0 91 81 150 194 150c53 0 114 -12 139 -21v61c0 29 -8 53 -22 70c-21 26 -56 39 -105 39c-35 0 -55 -8 -70 -17c3 -8 6 -19 6 -29c0 -31 -23 -54 -55 -54c-33 0 -56 23 -56 57c0 58 65 118 188 118c76 0 131 -22 165 -61c25 -29 38 -68 38 -111v-257h78v-78h-165v61
c-40 -38 -104 -70 -171 -70z" />
    <glyph glyph-name="abreve.sc" horiz-adv-x="688" 
d="M343 677c-87 0 -160 61 -192 169l62 26c28 -70 78 -106 130 -106c54 0 102 40 129 106l62 -26c-31 -108 -105 -169 -191 -169zM342 522l-91 -251h182zM169 595h350v-79h-85l163 -438h69v-78h-252v77h90l-43 117h-237l-42 -117h89v-77h-250v78h71l162 438h-85v79z" />
    <glyph glyph-name="Acircumflex" unicode="&#xc2;" horiz-adv-x="781" 
d="M253 787l-39 46l176 171l177 -171l-39 -46l-138 103zM272 323h234l-117 322zM22 0v84h68l205 557h-81v83h353v-83h-81l206 -557h67v-84h-252v83h84l-58 161h-289l-57 -161h88v-83h-253z" />
    <glyph glyph-name="acircumflex" unicode="&#xe2;" horiz-adv-x="584" 
d="M141 578l-41 48l186 179l185 -179l-41 -48l-144 109zM243 62c56 0 105 28 143 63v81c-34 10 -80 19 -126 19c-74 0 -114 -35 -114 -85c0 -46 35 -78 97 -78zM217 -9c-93 0 -164 54 -164 142c0 91 81 150 194 150c53 0 114 -12 139 -21v61c0 29 -8 53 -22 70
c-21 26 -56 39 -105 39c-35 0 -55 -8 -70 -17c3 -8 6 -19 6 -29c0 -31 -23 -54 -55 -54c-33 0 -56 23 -56 57c0 58 65 118 188 118c76 0 131 -22 165 -61c25 -29 38 -68 38 -111v-257h78v-78h-165v61c-40 -38 -104 -70 -171 -70z" />
    <glyph glyph-name="acircumflex.sc" horiz-adv-x="688" 
d="M199 667l-41 48l186 179l185 -179l-41 -48l-144 109zM342 522l-91 -251h182zM169 595h350v-79h-85l163 -438h69v-78h-252v77h90l-43 117h-237l-42 -117h89v-77h-250v78h71l162 438h-85v79z" />
    <glyph glyph-name="Adieresis" unicode="&#xc4;" horiz-adv-x="781" 
d="M288 805c-37 0 -66 31 -66 68c0 38 31 68 68 68s66 -30 66 -68c0 -37 -31 -68 -68 -68zM490 805c-37 0 -67 31 -67 68c0 38 31 68 68 68s67 -30 67 -68c0 -37 -31 -68 -68 -68zM272 323h234l-117 322zM22 0v84h68l205 557h-81v83h353v-83h-81l206 -557h67v-84h-252v83h84
l-58 161h-289l-57 -161h88v-83h-253z" />
    <glyph glyph-name="adieresis" unicode="&#xe4;" horiz-adv-x="584" 
d="M180 598c-39 0 -70 32 -70 71s32 71 71 71s70 -32 70 -71s-32 -71 -71 -71zM391 598c-38 0 -69 32 -69 71s32 71 70 71c39 0 70 -32 70 -71s-32 -71 -71 -71zM243 62c56 0 105 28 143 63v81c-34 10 -80 19 -126 19c-74 0 -114 -35 -114 -85c0 -46 35 -78 97 -78zM217 -9
c-93 0 -164 54 -164 142c0 91 81 150 194 150c53 0 114 -12 139 -21v61c0 29 -8 53 -22 70c-21 26 -56 39 -105 39c-35 0 -55 -8 -70 -17c3 -8 6 -19 6 -29c0 -31 -23 -54 -55 -54c-33 0 -56 23 -56 57c0 58 65 118 188 118c76 0 131 -22 165 -61c25 -29 38 -68 38 -111
v-257h78v-78h-165v61c-40 -38 -104 -70 -171 -70z" />
    <glyph glyph-name="adieresis.sc" horiz-adv-x="688" 
d="M238 687c-39 0 -70 32 -70 71s32 71 71 71s70 -32 70 -71s-32 -71 -71 -71zM449 687c-38 0 -69 32 -69 71s32 71 70 71c39 0 70 -32 70 -71s-32 -71 -71 -71zM342 522l-91 -251h182zM169 595h350v-79h-85l163 -438h69v-78h-252v77h90l-43 117h-237l-42 -117h89v-77h-250
v78h71l162 438h-85v79z" />
    <glyph glyph-name="AE" unicode="&#xc6;" horiz-adv-x="992" 
d="M298 323h185v319h-30zM1 0v84h88l274 556h-83v84h644v-186h-91v103h-256v-232h232v-81h-232v-245h257v103h90v-186h-525v84h84v160h-223l-79 -161h78v-83h-258z" />
    <glyph glyph-name="ae" unicode="&#xe6;" horiz-adv-x="896" 
d="M614 430c-70 0 -134 -47 -147 -140h290c-5 83 -54 140 -143 140zM259 431c-35 0 -55 -7 -70 -16c3 -8 6 -19 6 -29c0 -31 -23 -54 -55 -54c-33 0 -56 23 -56 57c0 58 65 118 188 118c67 0 115 -23 145 -60c9 -11 16 -23 21 -36c39 58 102 96 185 96
c145 0 226 -110 226 -236c0 -19 -2 -36 -5 -50h-377c12 -103 82 -151 185 -151c65 0 118 21 176 54l-8 -86c-52 -32 -115 -47 -175 -47c-96 0 -170 36 -214 97c-64 -67 -147 -97 -208 -97c-99 0 -170 54 -170 142c0 91 81 150 194 150c53 0 114 -12 139 -21v58
c0 29 -8 54 -22 71c-22 27 -58 40 -105 40zM245 62c49 0 103 21 160 73c-9 22 -16 47 -19 73c-47 11 -89 17 -126 17c-74 0 -114 -35 -114 -85c0 -46 35 -78 99 -78z" />
    <glyph glyph-name="ae.sc" horiz-adv-x="843" 
d="M373 516l-124 -243h139v243h-15zM293 0v77h95v120h-178l-61 -120h85v-77h-239v78h63l228 438h-79v79h569v-185h-86v107h-210v-181h188v-76h-188v-183h211v105h86v-182h-484z" />
    <glyph glyph-name="AEacute" unicode="&#x1fc;" horiz-adv-x="992" 
d="M524 789l-26 29l129 146c16 17 33 28 51 28c25 0 47 -20 47 -50c0 -17 -13 -37 -36 -52zM298 323h185v319h-30zM1 0v84h88l274 556h-83v84h644v-186h-91v103h-256v-232h232v-81h-232v-245h257v103h90v-186h-525v84h84v160h-223l-79 -161h78v-83h-258z" />
    <glyph glyph-name="aeacute" unicode="&#x1fd;" horiz-adv-x="896" 
d="M422 580l-27 30l137 153c16 18 35 29 54 29c26 0 49 -20 49 -51c0 -18 -14 -39 -39 -55zM614 430c-70 0 -134 -47 -147 -140h290c-5 83 -54 140 -143 140zM259 431c-35 0 -55 -7 -70 -16c3 -8 6 -19 6 -29c0 -31 -23 -54 -55 -54c-33 0 -56 23 -56 57
c0 58 65 118 188 118c67 0 115 -23 145 -60c9 -11 16 -23 21 -36c39 58 102 96 185 96c145 0 226 -110 226 -236c0 -19 -2 -36 -5 -50h-377c12 -103 82 -151 185 -151c65 0 118 21 176 54l-8 -86c-52 -32 -115 -47 -175 -47c-96 0 -170 36 -214 97
c-64 -67 -147 -97 -208 -97c-99 0 -170 54 -170 142c0 91 81 150 194 150c53 0 114 -12 139 -21v58c0 29 -8 54 -22 71c-22 27 -58 40 -105 40zM245 62c49 0 103 21 160 73c-9 22 -16 47 -19 73c-47 11 -89 17 -126 17c-74 0 -114 -35 -114 -85c0 -46 35 -78 99 -78z" />
    <glyph glyph-name="aeacute.sc" horiz-adv-x="843" 
d="M399 669l-27 30l137 153c16 18 35 29 54 29c26 0 49 -20 49 -51c0 -18 -14 -39 -39 -55zM373 516l-124 -243h139v243h-15zM293 0v77h95v120h-178l-61 -120h85v-77h-239v78h63l228 438h-79v79h569v-185h-86v107h-210v-181h188v-76h-188v-183h211v105h86v-182h-484z" />
    <glyph glyph-name="Agrave" unicode="&#xc0;" horiz-adv-x="781" 
d="M416 789l-165 101c-23 15 -37 35 -37 52c0 30 22 50 47 50c19 0 36 -11 52 -28l129 -146zM272 323h234l-117 322zM22 0v84h68l205 557h-81v83h353v-83h-81l206 -557h67v-84h-252v83h84l-58 161h-289l-57 -161h88v-83h-253z" />
    <glyph glyph-name="agrave" unicode="&#xe0;" horiz-adv-x="584" 
d="M314 580l-174 106c-25 16 -39 37 -39 55c0 31 23 51 49 51c19 0 38 -11 54 -29l136 -153zM243 62c56 0 105 28 143 63v81c-34 10 -80 19 -126 19c-74 0 -114 -35 -114 -85c0 -46 35 -78 97 -78zM217 -9c-93 0 -164 54 -164 142c0 91 81 150 194 150c53 0 114 -12 139 -21
v61c0 29 -8 53 -22 70c-21 26 -56 39 -105 39c-35 0 -55 -8 -70 -17c3 -8 6 -19 6 -29c0 -31 -23 -54 -55 -54c-33 0 -56 23 -56 57c0 58 65 118 188 118c76 0 131 -22 165 -61c25 -29 38 -68 38 -111v-257h78v-78h-165v61c-40 -38 -104 -70 -171 -70z" />
    <glyph glyph-name="agrave.sc" horiz-adv-x="688" 
d="M372 669l-174 106c-25 16 -39 37 -39 55c0 31 23 51 49 51c19 0 38 -11 54 -29l136 -153zM342 522l-91 -251h182zM169 595h350v-79h-85l163 -438h69v-78h-252v77h90l-43 117h-237l-42 -117h89v-77h-250v78h71l162 438h-85v79z" />
    <glyph glyph-name="Amacron" unicode="&#x100;" horiz-adv-x="781" 
d="M218 824v78h344v-78h-344zM272 323h234l-117 322zM22 0v84h68l205 557h-81v83h353v-83h-81l206 -557h67v-84h-252v83h84l-58 161h-289l-57 -161h88v-83h-253z" />
    <glyph glyph-name="amacron" unicode="&#x101;" horiz-adv-x="584" 
d="M106 617v81h361v-81h-361zM243 62c56 0 105 28 143 63v81c-34 10 -80 19 -126 19c-74 0 -114 -35 -114 -85c0 -46 35 -78 97 -78zM217 -9c-93 0 -164 54 -164 142c0 91 81 150 194 150c53 0 114 -12 139 -21v61c0 29 -8 53 -22 70c-21 26 -56 39 -105 39
c-35 0 -55 -8 -70 -17c3 -8 6 -19 6 -29c0 -31 -23 -54 -55 -54c-33 0 -56 23 -56 57c0 58 65 118 188 118c76 0 131 -22 165 -61c25 -29 38 -68 38 -111v-257h78v-78h-165v61c-40 -38 -104 -70 -171 -70z" />
    <glyph glyph-name="amacron.sc" horiz-adv-x="688" 
d="M164 706v81h361v-81h-361zM342 522l-91 -251h182zM169 595h350v-79h-85l163 -438h69v-78h-252v77h90l-43 117h-237l-42 -117h89v-77h-250v78h71l162 438h-85v79z" />
    <glyph glyph-name="Aogonek" unicode="&#x104;" horiz-adv-x="781" 
d="M640 -221c-78 0 -119 43 -119 106c0 47 27 86 66 115h-80v83h84l-58 161h-289l-57 -161h88v-83h-253v84h68l205 557h-81v83h353v-83h-81l206 -557h67v-84h-89c-43 -24 -71 -57 -71 -95c0 -34 20 -55 60 -55c31 0 59 8 83 21l-5 -67c-17 -12 -55 -25 -97 -25zM272 323h234
l-117 322z" />
    <glyph glyph-name="aogonek" unicode="&#x105;" horiz-adv-x="584" 
d="M441 -233c-83 0 -125 45 -125 111c0 52 29 93 72 123v60c-40 -38 -104 -70 -171 -70c-93 0 -164 54 -164 142c0 91 81 150 194 150c53 0 114 -12 139 -21v61c0 29 -8 53 -22 70c-21 26 -56 39 -105 39c-35 0 -55 -8 -70 -17c3 -8 6 -19 6 -29c0 -31 -23 -54 -55 -54
c-33 0 -56 23 -56 57c0 58 65 118 188 118c76 0 131 -22 165 -61c25 -29 38 -68 38 -111v-257h78v-78h-79c-46 -25 -77 -60 -77 -101c0 -37 20 -58 63 -58c33 0 63 9 88 21l-5 -69c-18 -12 -58 -26 -102 -26zM243 62c56 0 105 28 143 63v81c-34 10 -80 19 -126 19
c-74 0 -114 -35 -114 -85c0 -46 35 -78 97 -78z" />
    <glyph glyph-name="aogonek.sc" horiz-adv-x="688" 
d="M556 -233c-83 0 -125 45 -125 111c0 51 29 92 70 122h-87v77h90l-43 117h-237l-42 -117h89v-77h-250v78h71l162 438h-85v79h350v-79h-85l163 -438h69v-78h-77c-46 -25 -77 -60 -77 -101c0 -37 20 -58 63 -58c33 0 63 9 88 21l-5 -69c-18 -12 -58 -26 -102 -26zM342 522
l-91 -251h182z" />
    <glyph glyph-name="Aring" unicode="&#xc5;" horiz-adv-x="781" 
d="M390 736c35 0 60 30 60 66s-25 66 -60 66s-60 -30 -60 -66s25 -66 60 -66zM272 323h234l-117 322zM519 809c0 -32 -14 -63 -38 -85h86v-83h-81l206 -557h67v-84h-252v83h84l-58 161h-289l-57 -161h88v-83h-253v84h68l205 557h-81v83h86c-24 22 -39 54 -39 85
c0 66 57 121 129 121s129 -55 129 -121z" />
    <glyph glyph-name="aring" unicode="&#xe5;" horiz-adv-x="584" 
d="M287 571c-75 0 -135 59 -135 134s60 134 135 134c74 0 134 -59 134 -134s-60 -134 -134 -134zM287 635c37 0 63 32 63 70s-26 70 -63 70c-38 0 -64 -32 -64 -70s26 -70 64 -70zM243 62c56 0 105 28 143 63v81c-34 10 -80 19 -126 19c-74 0 -114 -35 -114 -85
c0 -46 35 -78 97 -78zM217 -9c-93 0 -164 54 -164 142c0 91 81 150 194 150c53 0 114 -12 139 -21v61c0 29 -8 53 -22 70c-21 26 -56 39 -105 39c-35 0 -55 -8 -70 -17c3 -8 6 -19 6 -29c0 -31 -23 -54 -55 -54c-33 0 -56 23 -56 57c0 58 65 118 188 118
c76 0 131 -22 165 -61c25 -29 38 -68 38 -111v-257h78v-78h-165v61c-40 -38 -104 -70 -171 -70z" />
    <glyph glyph-name="aring.sc" horiz-adv-x="688" 
d="M342 598c38 0 64 32 64 70c0 37 -26 69 -64 69c-37 0 -63 -32 -63 -69c0 -38 26 -70 63 -70zM342 522l-91 -251h182zM271 0h-250v78h71l162 438h-85v79h64c-16 20 -25 45 -25 73c0 75 60 134 134 134c75 0 135 -59 135 -134c0 -28 -10 -53 -25 -73h67v-79h-85l163 -438
h69v-78h-252v77h90l-43 117h-237l-42 -117h89v-77z" />
    <glyph glyph-name="Aringacute" unicode="&#x1fa;" horiz-adv-x="781" 
d="M369 977l-26 29l129 146c16 17 33 28 51 28c25 0 47 -20 47 -50c0 -17 -13 -37 -36 -52zM390 736c35 0 60 30 60 66s-25 66 -60 66s-60 -30 -60 -66s25 -66 60 -66zM272 323h234l-117 322zM519 809c0 -32 -14 -63 -38 -85h86v-83h-81l206 -557h67v-84h-252v83h84l-58 161
h-289l-57 -161h88v-83h-253v84h68l205 557h-81v83h86c-24 22 -39 54 -39 85c0 66 57 121 129 121s129 -55 129 -121z" />
    <glyph glyph-name="aringacute" unicode="&#x1fb;" horiz-adv-x="584" 
d="M268 894l-27 30l137 153c16 18 35 29 54 29c26 0 49 -20 49 -51c0 -18 -14 -39 -39 -55zM292 571c-75 0 -135 59 -135 134s60 134 135 134c74 0 134 -59 134 -134s-60 -134 -134 -134zM292 635c37 0 63 32 63 70s-26 70 -63 70c-38 0 -64 -32 -64 -70s26 -70 64 -70z
M243 62c56 0 105 28 143 63v81c-34 10 -80 19 -126 19c-74 0 -114 -35 -114 -85c0 -46 35 -78 97 -78zM217 -9c-93 0 -164 54 -164 142c0 91 81 150 194 150c53 0 114 -12 139 -21v61c0 29 -8 53 -22 70c-21 26 -56 39 -105 39c-35 0 -55 -8 -70 -17c3 -8 6 -19 6 -29
c0 -31 -23 -54 -55 -54c-33 0 -56 23 -56 57c0 58 65 118 188 118c76 0 131 -22 165 -61c25 -29 38 -68 38 -111v-257h78v-78h-165v61c-40 -38 -104 -70 -171 -70z" />
    <glyph glyph-name="aringacute.sc" horiz-adv-x="688" 
d="M314 847l-27 30l137 153c16 18 35 29 54 29c26 0 49 -20 49 -51c0 -18 -14 -39 -39 -55zM342 598c38 0 64 32 64 70c0 37 -26 69 -64 69c-37 0 -63 -32 -63 -69c0 -38 26 -70 63 -70zM342 522l-91 -251h182zM271 0h-250v78h71l162 438h-85v79h64c-16 20 -25 45 -25 73
c0 75 60 134 134 134c75 0 135 -59 135 -134c0 -28 -10 -53 -25 -73h67v-79h-85l163 -438h69v-78h-252v77h90l-43 117h-237l-42 -117h89v-77z" />
    <glyph glyph-name="Atilde" unicode="&#xc3;" horiz-adv-x="781" 
d="M474 798c-43 0 -72 20 -98 42s-43 32 -59 32c-26 0 -43 -23 -52 -68l-66 16c7 84 59 140 113 140c43 0 72 -20 97 -42c27 -22 43 -32 59 -32c26 0 44 23 52 67l66 -15c-7 -85 -58 -140 -112 -140zM272 323h234l-117 322zM22 0v84h68l205 557h-81v83h353v-83h-81l206 -557
h67v-84h-252v83h84l-58 161h-289l-57 -161h88v-83h-253z" />
    <glyph glyph-name="atilde" unicode="&#xe3;" horiz-adv-x="584" 
d="M374 589c-45 0 -76 21 -103 44c-27 24 -45 34 -62 34c-27 0 -45 -24 -54 -71l-69 16c8 88 61 147 118 147c45 0 76 -21 102 -45c28 -23 45 -33 62 -33c27 0 46 24 55 71l68 -16c-7 -88 -61 -147 -117 -147zM243 62c56 0 105 28 143 63v81c-34 10 -80 19 -126 19
c-74 0 -114 -35 -114 -85c0 -46 35 -78 97 -78zM217 -9c-93 0 -164 54 -164 142c0 91 81 150 194 150c53 0 114 -12 139 -21v61c0 29 -8 53 -22 70c-21 26 -56 39 -105 39c-35 0 -55 -8 -70 -17c3 -8 6 -19 6 -29c0 -31 -23 -54 -55 -54c-33 0 -56 23 -56 57
c0 58 65 118 188 118c76 0 131 -22 165 -61c25 -29 38 -68 38 -111v-257h78v-78h-165v61c-40 -38 -104 -70 -171 -70z" />
    <glyph glyph-name="atilde.sc" horiz-adv-x="688" 
d="M432 678c-45 0 -76 21 -103 44c-27 24 -45 34 -62 34c-27 0 -45 -24 -54 -71l-69 16c8 88 61 147 118 147c45 0 76 -21 102 -45c28 -23 45 -33 62 -33c27 0 46 24 55 71l68 -16c-7 -88 -61 -147 -117 -147zM342 522l-91 -251h182zM169 595h350v-79h-85l163 -438h69v-78
h-252v77h90l-43 117h-237l-42 -117h89v-77h-250v78h71l162 438h-85v79z" />
    <glyph glyph-name="Cacute" unicode="&#x106;" horiz-adv-x="780" 
d="M406 789l-26 29l129 146c16 17 33 28 51 28c25 0 47 -20 47 -50c0 -17 -13 -37 -36 -52zM437 -13c-223 0 -375 166 -375 372c0 222 172 378 372 378c157 0 273 -91 273 -178c0 -44 -29 -76 -68 -76s-67 27 -67 64c0 19 10 36 21 43c-20 26 -76 61 -161 61
c-158 0 -273 -131 -273 -291c0 -152 113 -287 278 -287c86 0 158 34 219 94l59 -66c-72 -74 -174 -114 -278 -114z" />
    <glyph glyph-name="cacute" unicode="&#x107;" horiz-adv-x="564" 
d="M270 580l-27 30l137 153c16 18 35 29 54 29c26 0 49 -20 49 -51c0 -18 -14 -39 -39 -55zM318 -9c-153 0 -267 108 -267 258c0 136 108 258 249 258c119 0 209 -78 209 -154c0 -41 -29 -71 -67 -71c-30 0 -59 22 -59 59c0 16 8 31 22 41c-12 26 -57 48 -106 48
c-69 0 -155 -59 -155 -183c0 -104 76 -177 183 -177c57 0 109 18 169 54l-8 -86c-51 -33 -112 -47 -170 -47z" />
    <glyph glyph-name="cacute.sc" horiz-adv-x="658" 
d="M313 669l-27 30l137 153c16 18 35 29 54 29c26 0 49 -20 49 -51c0 -18 -14 -39 -39 -55zM544 151l56 -62c-60 -64 -147 -102 -239 -102c-185 0 -307 137 -307 310c0 178 132 313 313 313c132 0 228 -79 228 -153c0 -43 -26 -73 -65 -73c-38 0 -64 24 -64 61
c0 17 8 32 17 39c-18 19 -59 43 -120 43c-124 0 -214 -95 -214 -229c0 -135 92 -227 212 -227c74 0 134 30 183 80z" />
    <glyph glyph-name="Ccaron" unicode="&#x10c;" horiz-adv-x="780" 
d="M568 1002l39 -46l-177 -171l-176 171l39 46l137 -103zM437 -13c-223 0 -375 166 -375 372c0 222 172 378 372 378c157 0 273 -91 273 -178c0 -44 -29 -76 -68 -76s-67 27 -67 64c0 19 10 36 21 43c-20 26 -76 61 -161 61c-158 0 -273 -131 -273 -291
c0 -152 113 -287 278 -287c86 0 158 34 219 94l59 -66c-72 -74 -174 -114 -278 -114z" />
    <glyph glyph-name="ccaron" unicode="&#x10d;" horiz-adv-x="564" 
d="M442 803l41 -47l-185 -179l-186 179l41 47l145 -108zM318 -9c-153 0 -267 108 -267 258c0 136 108 258 249 258c119 0 209 -78 209 -154c0 -41 -29 -71 -67 -71c-30 0 -59 22 -59 59c0 16 8 31 22 41c-12 26 -57 48 -106 48c-69 0 -155 -59 -155 -183
c0 -104 76 -177 183 -177c57 0 109 18 169 54l-8 -86c-51 -33 -112 -47 -170 -47z" />
    <glyph glyph-name="ccaron.sc" horiz-adv-x="658" 
d="M485 892l41 -47l-185 -179l-186 179l41 47l145 -108zM544 151l56 -62c-60 -64 -147 -102 -239 -102c-185 0 -307 137 -307 310c0 178 132 313 313 313c132 0 228 -79 228 -153c0 -43 -26 -73 -65 -73c-38 0 -64 24 -64 61c0 17 8 32 17 39c-18 19 -59 43 -120 43
c-124 0 -214 -95 -214 -229c0 -135 92 -227 212 -227c74 0 134 30 183 80z" />
    <glyph glyph-name="Ccedilla" unicode="&#xc7;" horiz-adv-x="780" 
d="M425 -219c-43 0 -91 12 -127 33l17 35c32 -13 70 -22 96 -22c28 0 46 12 46 32c0 16 -15 32 -60 32c-6 0 -17 -2 -18 -2l-21 20l27 81c-194 23 -323 179 -323 369c0 222 172 378 372 378c157 0 273 -91 273 -178c0 -44 -29 -76 -68 -76s-67 27 -67 64c0 19 10 36 21 43
c-20 26 -76 61 -161 61c-158 0 -273 -131 -273 -291c0 -152 113 -287 278 -287c86 0 158 34 219 94l59 -66c-72 -74 -174 -114 -278 -114h-6v-39c68 -5 107 -39 107 -84c0 -44 -40 -83 -113 -83z" />
    <glyph glyph-name="ccedilla" unicode="&#xe7;" horiz-adv-x="587" 
d="M306 -231c-45 0 -95 13 -133 34l18 38c32 -14 73 -23 101 -23c29 0 48 13 48 33c0 18 -16 34 -63 34c-5 0 -17 -1 -19 -2l-22 21l30 91c-126 21 -215 121 -215 254c0 136 108 258 249 258c119 0 209 -78 209 -154c0 -41 -29 -71 -67 -71c-30 0 -59 22 -59 59
c0 16 8 31 22 41c-12 26 -57 48 -106 48c-69 0 -155 -59 -155 -183c0 -104 76 -177 183 -177c57 0 109 18 169 54l-8 -86c-51 -33 -112 -47 -170 -47h-6v-46c72 -5 113 -41 113 -89c0 -46 -42 -87 -119 -87z" />
    <glyph glyph-name="ccedilla.sc" horiz-adv-x="661" 
d="M349 -231c-45 0 -95 13 -133 34l18 38c32 -14 73 -23 101 -23c29 0 48 13 48 33c0 18 -16 34 -63 34c-5 0 -17 -1 -19 -2l-22 21l29 87c-155 23 -254 150 -254 306c0 178 132 313 313 313c132 0 228 -79 228 -153c0 -43 -26 -73 -65 -73c-38 0 -64 24 -64 61
c0 17 8 32 17 39c-18 19 -59 43 -120 43c-124 0 -214 -95 -214 -229c0 -135 92 -227 212 -227c74 0 134 30 183 80l56 -62c-60 -64 -147 -102 -239 -102h-6v-42c72 -5 113 -41 113 -89c0 -46 -42 -87 -119 -87z" />
    <glyph glyph-name="Cdotaccent" unicode="&#x10a;" horiz-adv-x="780" 
d="M430 799c-37 0 -68 30 -68 69c0 38 32 69 69 69c38 0 68 -31 68 -69c0 -39 -31 -69 -69 -69zM437 -13c-223 0 -375 166 -375 372c0 222 172 378 372 378c157 0 273 -91 273 -178c0 -44 -29 -76 -68 -76s-67 27 -67 64c0 19 10 36 21 43c-20 26 -76 61 -161 61
c-158 0 -273 -131 -273 -291c0 -152 113 -287 278 -287c86 0 158 34 219 94l59 -66c-72 -74 -174 -114 -278 -114z" />
    <glyph glyph-name="cdotaccent" unicode="&#x10b;" horiz-adv-x="564" 
d="M298 591c-39 0 -71 32 -71 72s33 72 72 72s71 -32 71 -72s-33 -72 -72 -72zM318 -9c-153 0 -267 108 -267 258c0 136 108 258 249 258c119 0 209 -78 209 -154c0 -41 -29 -71 -67 -71c-30 0 -59 22 -59 59c0 16 8 31 22 41c-12 26 -57 48 -106 48
c-69 0 -155 -59 -155 -183c0 -104 76 -177 183 -177c57 0 109 18 169 54l-8 -86c-51 -33 -112 -47 -170 -47z" />
    <glyph glyph-name="cdotaccent.sc" horiz-adv-x="658" 
d="M341 680c-39 0 -71 32 -71 72s33 72 72 72s71 -32 71 -72s-33 -72 -72 -72zM544 151l56 -62c-60 -64 -147 -102 -239 -102c-185 0 -307 137 -307 310c0 178 132 313 313 313c132 0 228 -79 228 -153c0 -43 -26 -73 -65 -73c-38 0 -64 24 -64 61c0 17 8 32 17 39
c-18 19 -59 43 -120 43c-124 0 -214 -95 -214 -229c0 -135 92 -227 212 -227c74 0 134 30 183 80z" />
    <glyph glyph-name="Dcaron" unicode="&#x10e;" horiz-adv-x="803" 
d="M513 1002l39 -46l-177 -171l-176 171l39 46l137 -103zM53 0v84h89v556h-89v84h272c255 0 416 -139 416 -355c0 -219 -151 -369 -422 -369h-266zM236 84h95c208 0 313 115 313 286c0 169 -125 270 -322 270h-86v-556z" />
    <glyph glyph-name="dcaron" unicode="&#x10f;" horiz-adv-x="649" 
d="M606 577l-31 23c32 45 44 85 44 122c0 36 -13 51 -13 85c0 32 19 59 57 59c36 0 56 -25 56 -63c0 -79 -53 -163 -113 -226zM302 71c60 0 106 28 145 67v237c-36 29 -81 51 -141 51c-91 0 -159 -72 -159 -179c-1 -107 67 -176 155 -176zM287 -9c-132 0 -235 103 -235 255
c0 142 99 261 245 261c62 0 114 -24 150 -56v319h-89v79h181v-771h78v-78h-169v66c-40 -44 -90 -75 -161 -75z" />
    <glyph glyph-name="dcaron.sc" horiz-adv-x="711" 
d="M491 892l41 -47l-185 -179l-186 179l41 47l145 -108zM310 0h-255v78h98v438h-98v79h261c211 0 342 -113 342 -292c0 -181 -123 -303 -348 -303zM245 78h78c161 0 241 91 241 225s-95 213 -248 213h-71v-438z" />
    <glyph glyph-name="Dcroat" unicode="&#x110;" horiz-adv-x="811" 
d="M151 331h-85v78h85v231h-90v84h272c252 0 416 -142 416 -355c0 -219 -151 -369 -416 -369h-272v84h90v247zM245 84h94c208 0 313 115 313 286c0 169 -124 270 -322 270h-85v-231h160v-78h-160v-247z" />
    <glyph glyph-name="dcroat" unicode="&#x111;" horiz-adv-x="649" 
d="M302 71c60 0 106 28 145 67v237c-36 29 -81 51 -141 51c-91 0 -159 -72 -159 -179c-1 -107 67 -176 155 -176zM271 598v73h176v99h-89v79h181v-178h78v-73h-78v-520h78v-78h-169v66c-40 -44 -90 -75 -161 -75c-132 0 -235 103 -235 255c0 142 99 261 245 261
c62 0 114 -24 150 -56v147h-176z" />
    <glyph glyph-name="dcroat.sc" horiz-adv-x="711" 
d="M310 0h-255v78h97v183h-78v79h78v176h-97v79h260c212 0 342 -113 342 -292c0 -181 -122 -303 -347 -303zM244 78h78c162 0 242 91 242 225s-95 213 -249 213h-71v-176h132v-79h-132v-183z" />
    <glyph glyph-name="Eacute" unicode="&#xc9;" horiz-adv-x="651" 
d="M297 789l-26 29l129 146c16 17 33 28 51 28c25 0 47 -20 47 -50c0 -17 -13 -37 -36 -52zM53 0v84h89v556h-89v84h530v-186h-91v103h-256v-232h232v-81h-232v-245h257v103h90v-186h-530z" />
    <glyph glyph-name="eacute" unicode="&#xe9;" horiz-adv-x="575" 
d="M264 580l-27 30l137 153c16 18 35 29 54 29c26 0 49 -20 49 -51c0 -18 -14 -39 -39 -55zM522 221h-377c12 -102 83 -151 185 -151c65 0 117 21 176 54l-8 -86c-52 -32 -115 -47 -181 -47c-160 0 -268 104 -268 256c0 139 95 260 247 260c150 0 231 -110 231 -236
c0 -19 -2 -36 -5 -50zM292 430c-70 0 -134 -47 -147 -140h290c-5 83 -54 140 -143 140z" />
    <glyph glyph-name="eacute.sc" horiz-adv-x="607" 
d="M274 669l-27 30l137 153c16 18 35 29 54 29c26 0 49 -20 49 -51c0 -18 -14 -39 -39 -55zM541 0h-486v78h98v438h-98v79h485v-185h-86v107h-209v-181h187v-76h-187v-183h210v105h86v-182z" />
    <glyph glyph-name="Ebreve" unicode="&#x114;" horiz-adv-x="651" 
d="M322 797c-82 0 -152 57 -183 161l61 26c26 -68 73 -102 122 -102c52 0 97 38 123 102l60 -26c-30 -104 -101 -161 -183 -161zM53 0v84h89v556h-89v84h530v-186h-91v103h-256v-232h232v-81h-232v-245h257v103h90v-186h-530z" />
    <glyph glyph-name="ebreve" unicode="&#x115;" horiz-adv-x="575" 
d="M292 588c-87 0 -160 61 -192 169l62 26c28 -70 78 -106 130 -106c54 0 102 40 129 106l62 -26c-31 -108 -105 -169 -191 -169zM522 221h-377c12 -102 83 -151 185 -151c65 0 117 21 176 54l-8 -86c-52 -32 -115 -47 -181 -47c-160 0 -268 104 -268 256
c0 139 95 260 247 260c150 0 231 -110 231 -236c0 -19 -2 -36 -5 -50zM292 430c-70 0 -134 -47 -147 -140h290c-5 83 -54 140 -143 140z" />
    <glyph glyph-name="ebreve.sc" horiz-adv-x="607" 
d="M302 677c-87 0 -160 61 -192 169l62 26c28 -70 78 -106 130 -106c54 0 102 40 129 106l62 -26c-31 -108 -105 -169 -191 -169zM541 0h-486v78h98v438h-98v79h485v-185h-86v107h-209v-181h187v-76h-187v-183h210v105h86v-182z" />
    <glyph glyph-name="Ecaron" unicode="&#x11a;" horiz-adv-x="651" 
d="M460 1002l39 -46l-177 -171l-176 171l39 46l137 -103zM53 0v84h89v556h-89v84h530v-186h-91v103h-256v-232h232v-81h-232v-245h257v103h90v-186h-530z" />
    <glyph glyph-name="ecaron" unicode="&#x11b;" horiz-adv-x="575" 
d="M436 803l41 -47l-185 -179l-186 179l41 47l145 -108zM522 221h-377c12 -102 83 -151 185 -151c65 0 117 21 176 54l-8 -86c-52 -32 -115 -47 -181 -47c-160 0 -268 104 -268 256c0 139 95 260 247 260c150 0 231 -110 231 -236c0 -19 -2 -36 -5 -50zM292 430
c-70 0 -134 -47 -147 -140h290c-5 83 -54 140 -143 140z" />
    <glyph glyph-name="ecaron.sc" horiz-adv-x="607" 
d="M446 892l41 -47l-185 -179l-186 179l41 47l145 -108zM541 0h-486v78h98v438h-98v79h485v-185h-86v107h-209v-181h187v-76h-187v-183h210v105h86v-182z" />
    <glyph glyph-name="Ecircumflex" unicode="&#xca;" horiz-adv-x="651" 
d="M186 787l-39 46l176 171l177 -171l-39 -46l-138 103zM53 0v84h89v556h-89v84h530v-186h-91v103h-256v-232h232v-81h-232v-245h257v103h90v-186h-530z" />
    <glyph glyph-name="ecircumflex" unicode="&#xea;" horiz-adv-x="575" 
d="M148 578l-41 48l186 179l185 -179l-41 -48l-144 109zM522 221h-377c12 -102 83 -151 185 -151c65 0 117 21 176 54l-8 -86c-52 -32 -115 -47 -181 -47c-160 0 -268 104 -268 256c0 139 95 260 247 260c150 0 231 -110 231 -236c0 -19 -2 -36 -5 -50zM292 430
c-70 0 -134 -47 -147 -140h290c-5 83 -54 140 -143 140z" />
    <glyph glyph-name="ecircumflex.sc" horiz-adv-x="607" 
d="M158 667l-41 48l186 179l185 -179l-41 -48l-144 109zM541 0h-486v78h98v438h-98v79h485v-185h-86v107h-209v-181h187v-76h-187v-183h210v105h86v-182z" />
    <glyph glyph-name="Edieresis" unicode="&#xcb;" horiz-adv-x="651" 
d="M221 805c-37 0 -66 31 -66 68c0 38 31 68 68 68s66 -30 66 -68c0 -37 -31 -68 -68 -68zM423 805c-37 0 -67 31 -67 68c0 38 31 68 68 68s67 -30 67 -68c0 -37 -31 -68 -68 -68zM53 0v84h89v556h-89v84h530v-186h-91v103h-256v-232h232v-81h-232v-245h257v103h90v-186
h-530z" />
    <glyph glyph-name="edieresis" unicode="&#xeb;" horiz-adv-x="575" 
d="M186 598c-39 0 -70 32 -70 71s32 71 71 71s70 -32 70 -71s-32 -71 -71 -71zM397 598c-38 0 -69 32 -69 71s32 71 70 71c39 0 70 -32 70 -71s-32 -71 -71 -71zM522 221h-377c12 -102 83 -151 185 -151c65 0 117 21 176 54l-8 -86c-52 -32 -115 -47 -181 -47
c-160 0 -268 104 -268 256c0 139 95 260 247 260c150 0 231 -110 231 -236c0 -19 -2 -36 -5 -50zM292 430c-70 0 -134 -47 -147 -140h290c-5 83 -54 140 -143 140z" />
    <glyph glyph-name="edieresis.sc" horiz-adv-x="607" 
d="M196 687c-39 0 -70 32 -70 71s32 71 71 71s70 -32 70 -71s-32 -71 -71 -71zM407 687c-38 0 -69 32 -69 71s32 71 70 71c39 0 70 -32 70 -71s-32 -71 -71 -71zM541 0h-486v78h98v438h-98v79h485v-185h-86v107h-209v-181h187v-76h-187v-183h210v105h86v-182z" />
    <glyph glyph-name="Edotaccent" unicode="&#x116;" horiz-adv-x="651" 
d="M322 799c-37 0 -68 30 -68 69c0 38 32 69 69 69c38 0 68 -31 68 -69c0 -39 -31 -69 -69 -69zM53 0v84h89v556h-89v84h530v-186h-91v103h-256v-232h232v-81h-232v-245h257v103h90v-186h-530z" />
    <glyph glyph-name="edotaccent" unicode="&#x117;" horiz-adv-x="575" 
d="M292 591c-39 0 -71 32 -71 72s33 72 72 72s71 -32 71 -72s-33 -72 -72 -72zM522 221h-377c12 -102 83 -151 185 -151c65 0 117 21 176 54l-8 -86c-52 -32 -115 -47 -181 -47c-160 0 -268 104 -268 256c0 139 95 260 247 260c150 0 231 -110 231 -236c0 -19 -2 -36 -5 -50
zM292 430c-70 0 -134 -47 -147 -140h290c-5 83 -54 140 -143 140z" />
    <glyph glyph-name="edotaccent.sc" horiz-adv-x="607" 
d="M302 680c-39 0 -71 32 -71 72s33 72 72 72s71 -32 71 -72s-33 -72 -72 -72zM541 0h-486v78h98v438h-98v79h485v-185h-86v107h-209v-181h187v-76h-187v-183h210v105h86v-182z" />
    <glyph glyph-name="Egrave" unicode="&#xc8;" horiz-adv-x="651" 
d="M349 789l-165 101c-23 15 -37 35 -37 52c0 30 22 50 47 50c19 0 36 -11 52 -28l129 -146zM53 0v84h89v556h-89v84h530v-186h-91v103h-256v-232h232v-81h-232v-245h257v103h90v-186h-530z" />
    <glyph glyph-name="egrave" unicode="&#xe8;" horiz-adv-x="575" 
d="M321 580l-174 106c-25 16 -39 37 -39 55c0 31 23 51 49 51c19 0 38 -11 54 -29l136 -153zM522 221h-377c12 -102 83 -151 185 -151c65 0 117 21 176 54l-8 -86c-52 -32 -115 -47 -181 -47c-160 0 -268 104 -268 256c0 139 95 260 247 260c150 0 231 -110 231 -236
c0 -19 -2 -36 -5 -50zM292 430c-70 0 -134 -47 -147 -140h290c-5 83 -54 140 -143 140z" />
    <glyph glyph-name="egrave.sc" horiz-adv-x="607" 
d="M330 669l-174 106c-25 16 -39 37 -39 55c0 31 23 51 49 51c19 0 38 -11 54 -29l136 -153zM541 0h-486v78h98v438h-98v79h485v-185h-86v107h-209v-181h187v-76h-187v-183h210v105h86v-182z" />
    <glyph glyph-name="Emacron" unicode="&#x112;" horiz-adv-x="651" 
d="M151 824v78h344v-78h-344zM53 0v84h89v556h-89v84h530v-186h-91v103h-256v-232h232v-81h-232v-245h257v103h90v-186h-530z" />
    <glyph glyph-name="emacron" unicode="&#x113;" horiz-adv-x="575" 
d="M112 617v81h361v-81h-361zM522 221h-377c12 -102 83 -151 185 -151c65 0 117 21 176 54l-8 -86c-52 -32 -115 -47 -181 -47c-160 0 -268 104 -268 256c0 139 95 260 247 260c150 0 231 -110 231 -236c0 -19 -2 -36 -5 -50zM292 430c-70 0 -134 -47 -147 -140h290
c-5 83 -54 140 -143 140z" />
    <glyph glyph-name="emacron.sc" horiz-adv-x="607" 
d="M122 706v81h361v-81h-361zM541 0h-486v78h98v438h-98v79h485v-185h-86v107h-209v-181h187v-76h-187v-183h210v105h86v-182z" />
    <glyph glyph-name="Eogonek" unicode="&#x118;" horiz-adv-x="651" 
d="M53 0v84h89v556h-89v84h530v-186h-91v103h-256v-232h232v-81h-232v-245h257v103h90v-186h-72c-43 -24 -71 -57 -71 -95c0 -34 20 -55 60 -55c31 0 59 8 83 21l-5 -67c-17 -12 -55 -25 -97 -25c-78 0 -119 43 -119 106c0 47 27 86 66 115h-375z" />
    <glyph glyph-name="eogonek" unicode="&#x119;" horiz-adv-x="575" 
d="M522 221h-377c12 -102 83 -151 185 -151c65 0 117 21 176 54l-8 -86c-78 -37 -158 -77 -158 -140c0 -36 21 -57 64 -57c33 0 63 9 88 21l-5 -69c-19 -12 -58 -26 -102 -26c-83 0 -125 45 -125 111c0 47 23 84 57 113h-1c-158 0 -268 104 -267 256c0 139 95 260 247 260
c150 0 231 -110 231 -236c0 -19 -2 -36 -5 -50zM292 430c-70 0 -134 -47 -147 -140h290c-5 83 -54 140 -143 140z" />
    <glyph glyph-name="eogonek.sc" horiz-adv-x="607" 
d="M541 0h-74c-46 -25 -77 -60 -77 -101c0 -37 20 -58 63 -58c33 0 63 9 88 21l-5 -69c-18 -12 -58 -26 -102 -26c-83 0 -125 45 -125 111c0 51 29 92 70 122h-324v78h98v438h-98v79h485v-185h-86v107h-209v-181h187v-76h-187v-183h210v105h86v-182z" />
    <glyph glyph-name="Eth" unicode="&#xd0;" horiz-adv-x="811" 
d="M151 331h-85v78h85v231h-90v84h272c252 0 416 -142 416 -355c0 -219 -151 -369 -416 -369h-272v84h90v247zM245 84h94c208 0 313 115 313 286c0 169 -124 270 -322 270h-85v-231h160v-78h-160v-247z" />
    <glyph glyph-name="eth" unicode="&#xf0;" horiz-adv-x="625" 
d="M235 538l-49 58l123 109c-42 36 -86 60 -122 69c-6 -24 -26 -47 -59 -47c-31 0 -58 24 -58 62c0 39 35 69 85 69c29 0 61 -8 95 -23c40 -18 82 -45 122 -82l113 99l50 -57l-110 -97c83 -100 148 -241 148 -408c0 -105 -31 -184 -84 -235c-45 -43 -106 -64 -176 -64
c-156 0 -261 110 -261 245c0 137 105 247 258 247c64 0 129 -32 169 -80c-14 96 -60 182 -116 248zM483 242c0 90 -70 162 -170 162s-171 -72 -171 -168s71 -167 171 -167c49 0 88 17 118 46c34 34 52 80 52 127z" />
    <glyph glyph-name="eth.sc" horiz-adv-x="711" 
d="M310 0h-255v78h97v183h-78v79h78v176h-97v79h260c212 0 342 -113 342 -292c0 -181 -122 -303 -347 -303zM244 78h78c162 0 242 91 242 225s-95 213 -249 213h-71v-176h132v-79h-132v-183z" />
    <glyph glyph-name="Gbreve" unicode="&#x11e;" horiz-adv-x="815" 
d="M423 797c-82 0 -152 57 -183 161l61 26c26 -68 73 -102 122 -102c52 0 97 38 123 102l60 -26c-30 -104 -101 -161 -183 -161zM413 -13c-181 0 -351 139 -351 370c0 228 173 380 377 380c165 0 274 -90 274 -170c0 -44 -28 -74 -66 -74c-39 0 -67 27 -67 65
c0 17 6 31 16 40c-26 26 -82 53 -160 53c-162 0 -277 -126 -277 -293c0 -173 124 -287 266 -287c80 0 145 22 203 62v146h-195v80h287v-359h-90v60c-59 -45 -128 -73 -217 -73z" />
    <glyph glyph-name="gbreve" unicode="&#x11f;" horiz-adv-x="653" 
d="M333 588c-87 0 -160 61 -192 169l62 26c28 -70 78 -106 130 -106c54 0 102 40 129 106l62 -26c-31 -108 -105 -169 -191 -169zM307 426c-95 0 -160 -72 -160 -173s66 -169 157 -169c58 0 104 28 142 67v224c-35 29 -80 51 -139 51zM538 418v-431c0 -62 -16 -110 -46 -146
c-42 -51 -111 -73 -189 -73c-80 0 -144 25 -175 56c-18 18 -26 38 -26 59c0 35 24 63 60 63c31 0 54 -24 54 -54c0 -10 -3 -21 -8 -30c16 -8 47 -17 91 -17c49 0 92 13 120 47c17 23 27 53 27 94v91c-40 -42 -87 -72 -160 -72c-129 0 -234 101 -234 247
c0 136 99 255 243 255c66 0 117 -26 155 -61v51h166v-79h-78z" />
    <glyph glyph-name="gbreve.sc" horiz-adv-x="692" 
d="M342 677c-87 0 -160 61 -192 169l62 26c28 -70 78 -106 130 -106c54 0 102 40 129 106l62 -26c-31 -108 -105 -169 -191 -169zM366 527c-128 0 -217 -97 -217 -230c0 -135 96 -228 211 -228c61 0 114 15 157 46v111h-156v76h246v-302h-88v44c-43 -32 -100 -57 -175 -57
c-150 0 -290 117 -290 308c0 189 140 315 317 315c140 0 232 -78 232 -149c0 -43 -26 -71 -64 -71s-64 23 -64 59c0 16 7 31 15 39c-21 18 -65 39 -124 39z" />
    <glyph glyph-name="Gcommaaccent" unicode="&#x122;" horiz-adv-x="815" 
d="M413 -13c-181 0 -351 139 -351 370c0 228 173 380 377 380c165 0 274 -90 274 -170c0 -44 -28 -74 -66 -74c-39 0 -67 27 -67 65c0 17 6 31 16 40c-26 26 -82 53 -160 53c-162 0 -277 -126 -277 -293c0 -173 124 -287 266 -287c80 0 145 22 203 62v146h-195v80h287v-359
h-90v60c-59 -45 -128 -73 -217 -73zM347 -317l-20 28c61 47 84 91 86 116c-29 6 -50 29 -50 60c0 32 27 58 60 58c35 0 65 -27 65 -77c0 -52 -36 -127 -141 -185z" />
    <glyph glyph-name="gcommaaccent" unicode="&#x123;" horiz-adv-x="653" 
d="M402 871l21 -29c-65 -49 -89 -95 -90 -122c29 -6 51 -30 51 -62c0 -33 -28 -60 -62 -60c-37 0 -68 27 -68 80c0 54 37 133 148 193zM307 426c-95 0 -160 -72 -160 -173s66 -169 157 -169c58 0 104 28 142 67v224c-35 29 -80 51 -139 51zM538 418v-431
c0 -62 -16 -110 -46 -146c-42 -51 -111 -73 -189 -73c-80 0 -144 25 -175 56c-18 18 -26 38 -26 59c0 35 24 63 60 63c31 0 54 -24 54 -54c0 -10 -3 -21 -8 -30c16 -8 47 -17 91 -17c49 0 92 13 120 47c17 23 27 53 27 94v91c-40 -42 -87 -72 -160 -72
c-129 0 -234 101 -234 247c0 136 99 255 243 255c66 0 117 -26 155 -61v51h166v-79h-78z" />
    <glyph glyph-name="gcommaaccent.sc" horiz-adv-x="692" 
d="M366 527c-128 0 -217 -97 -217 -230c0 -135 96 -228 211 -228c61 0 114 15 157 46v111h-156v76h246v-302h-88v44c-43 -32 -100 -57 -175 -57c-150 0 -290 117 -290 308c0 189 140 315 317 315c140 0 232 -78 232 -149c0 -43 -26 -71 -64 -71s-64 23 -64 59
c0 16 7 31 15 39c-21 18 -65 39 -124 39zM262 -340l-21 29c65 49 89 95 90 122c-30 6 -52 30 -52 62c0 33 29 60 63 60c37 0 68 -28 68 -80c0 -54 -38 -133 -148 -193z" />
    <glyph glyph-name="Gdotaccent" unicode="&#x120;" horiz-adv-x="815" 
d="M423 799c-37 0 -68 30 -68 69c0 38 32 69 69 69c38 0 68 -31 68 -69c0 -39 -31 -69 -69 -69zM413 -13c-181 0 -351 139 -351 370c0 228 173 380 377 380c165 0 274 -90 274 -170c0 -44 -28 -74 -66 -74c-39 0 -67 27 -67 65c0 17 6 31 16 40c-26 26 -82 53 -160 53
c-162 0 -277 -126 -277 -293c0 -173 124 -287 266 -287c80 0 145 22 203 62v146h-195v80h287v-359h-90v60c-59 -45 -128 -73 -217 -73z" />
    <glyph glyph-name="gdotaccent" unicode="&#x121;" horiz-adv-x="653" 
d="M328 591c-39 0 -71 32 -71 72s33 72 72 72s71 -32 71 -72s-33 -72 -72 -72zM307 426c-95 0 -160 -72 -160 -173s66 -169 157 -169c58 0 104 28 142 67v224c-35 29 -80 51 -139 51zM538 418v-431c0 -62 -16 -110 -46 -146c-42 -51 -111 -73 -189 -73
c-80 0 -144 25 -175 56c-18 18 -26 38 -26 59c0 35 24 63 60 63c31 0 54 -24 54 -54c0 -10 -3 -21 -8 -30c16 -8 47 -17 91 -17c49 0 92 13 120 47c17 23 27 53 27 94v91c-40 -42 -87 -72 -160 -72c-129 0 -234 101 -234 247c0 136 99 255 243 255c66 0 117 -26 155 -61v51
h166v-79h-78z" />
    <glyph glyph-name="gdotaccent.sc" horiz-adv-x="692" 
d="M342 680c-39 0 -71 32 -71 72s33 72 72 72s71 -32 71 -72s-33 -72 -72 -72zM366 527c-128 0 -217 -97 -217 -230c0 -135 96 -228 211 -228c61 0 114 15 157 46v111h-156v76h246v-302h-88v44c-43 -32 -100 -57 -175 -57c-150 0 -290 117 -290 308c0 189 140 315 317 315
c140 0 232 -78 232 -149c0 -43 -26 -71 -64 -71s-64 23 -64 59c0 16 7 31 15 39c-21 18 -65 39 -124 39z" />
    <glyph glyph-name="Hbar" unicode="&#x126;" horiz-adv-x="855" 
d="M236 399h382v89h-382v-89zM74 488v72h68v85h-89v79h277v-79h-94v-85h382v85h-93v79h277v-79h-90v-85h68v-72h-68v-404h90v-84h-277v84h93v232h-382v-232h94v-84h-277v84h89v404h-68z" />
    <glyph glyph-name="hbar" unicode="&#x127;" horiz-adv-x="656" 
d="M117 770h-79v79h170v-178h177v-73h-177v-186c48 52 110 95 180 95c58 0 100 -20 126 -54c22 -29 33 -68 33 -114v-261h78v-78h-245v78h75v242c0 33 -7 56 -20 73c-16 20 -41 29 -72 29c-57 0 -112 -35 -155 -80v-264h76v-78h-246v78h79v520h-79v73h79v99z" />
    <glyph glyph-name="hbar.sc" horiz-adv-x="788" 
d="M244 326h299v62h-299v-62zM708 456v-69h-73v-309h97v-78h-288v78h99v176h-299v-176h99v-78h-288v78h97v309h-72v69h72v60h-97v79h288v-77h-99v-65h299v65h-99v77h288v-79h-97v-60h73z" />
    <glyph glyph-name="Iacute" unicode="&#xcd;" horiz-adv-x="391" 
d="M169 789l-26 29l129 146c16 17 33 28 51 28c25 0 47 -20 47 -50c0 -17 -13 -37 -36 -52zM53 0v84h95v556h-95v84h284v-84h-95v-556h95v-84h-284z" />
    <glyph glyph-name="iacute" unicode="&#xed;" horiz-adv-x="349" 
d="M142 580l-27 30l137 153c16 18 35 29 54 29c26 0 49 -20 49 -51c0 -18 -14 -39 -39 -55zM51 0v78h82v340h-82v79h173v-419h82v-78h-255z" />
    <glyph glyph-name="iacute.sc" horiz-adv-x="403" 
d="M173 669l-27 30l137 153c16 18 35 29 54 29c26 0 49 -20 49 -51c0 -18 -14 -39 -39 -55zM348 0h-293v78h100v438h-100v79h293v-79h-100v-438h100v-78z" />
    <glyph glyph-name="Ibreve" unicode="&#x12c;" horiz-adv-x="391" 
d="M193 797c-82 0 -152 57 -183 161l61 26c26 -68 73 -102 122 -102c52 0 97 38 123 102l60 -26c-30 -104 -101 -161 -183 -161zM53 0v84h95v556h-95v84h284v-84h-95v-556h95v-84h-284z" />
    <glyph glyph-name="ibreve" unicode="&#x12d;" horiz-adv-x="349" 
d="M169 588c-87 0 -160 61 -192 169l62 26c28 -70 78 -106 130 -106c54 0 102 40 129 106l62 -26c-31 -108 -105 -169 -191 -169zM51 0v78h82v340h-82v79h173v-419h82v-78h-255z" />
    <glyph glyph-name="ibreve.sc" horiz-adv-x="403" 
d="M200 677c-87 0 -160 61 -192 169l62 26c28 -70 78 -106 130 -106c54 0 102 40 129 106l62 -26c-31 -108 -105 -169 -191 -169zM348 0h-293v78h100v438h-100v79h293v-79h-100v-438h100v-78z" />
    <glyph glyph-name="Icircumflex" unicode="&#xce;" horiz-adv-x="391" 
d="M57 787l-39 46l176 171l177 -171l-39 -46l-138 103zM53 0v84h95v556h-95v84h284v-84h-95v-556h95v-84h-284z" />
    <glyph glyph-name="icircumflex" unicode="&#xee;" horiz-adv-x="349" 
d="M25 578l-41 48l186 179l185 -179l-41 -48l-144 109zM51 0v78h82v340h-82v79h173v-419h82v-78h-255z" />
    <glyph glyph-name="icircumflex.sc" horiz-adv-x="403" 
d="M56 667l-41 48l186 179l185 -179l-41 -48l-144 109zM348 0h-293v78h100v438h-100v79h293v-79h-100v-438h100v-78z" />
    <glyph glyph-name="Idieresis" unicode="&#xcf;" horiz-adv-x="391" 
d="M93 805c-37 0 -66 31 -66 68c0 38 31 68 68 68s66 -30 66 -68c0 -37 -31 -68 -68 -68zM295 805c-37 0 -67 31 -67 68c0 38 31 68 68 68s67 -30 67 -68c0 -37 -31 -68 -68 -68zM53 0v84h95v556h-95v84h284v-84h-95v-556h95v-84h-284z" />
    <glyph glyph-name="idieresis" unicode="&#xef;" horiz-adv-x="349" 
d="M64 598c-39 0 -70 32 -70 71s32 71 71 71s70 -32 70 -71s-32 -71 -71 -71zM275 598c-38 0 -69 32 -69 71s32 71 70 71c39 0 70 -32 70 -71s-32 -71 -71 -71zM51 0v78h82v340h-82v79h173v-419h82v-78h-255z" />
    <glyph glyph-name="idieresis.sc" horiz-adv-x="403" 
d="M95 687c-39 0 -70 32 -70 71s32 71 71 71s70 -32 70 -71s-32 -71 -71 -71zM306 687c-38 0 -69 32 -69 71s32 71 70 71c39 0 70 -32 70 -71s-32 -71 -71 -71zM348 0h-293v78h100v438h-100v79h293v-79h-100v-438h100v-78z" />
    <glyph glyph-name="Idotaccent" unicode="&#x130;" horiz-adv-x="391" 
d="M194 799c-37 0 -68 30 -68 69c0 38 32 69 69 69c38 0 68 -31 68 -69c0 -39 -31 -69 -69 -69zM53 0v84h95v556h-95v84h284v-84h-95v-556h95v-84h-284z" />
    <glyph glyph-name="idotaccent.sc" horiz-adv-x="403" 
d="M200 680c-39 0 -71 32 -71 72s33 72 72 72s71 -32 71 -72s-33 -72 -72 -72zM348 0h-293v78h100v438h-100v79h293v-79h-100v-438h100v-78z" />
    <glyph glyph-name="dotlessi" unicode="&#x131;" horiz-adv-x="349" 
d="M51 0v78h82v340h-82v79h173v-419h82v-78h-255z" />
    <glyph glyph-name="dotlessi.sc" horiz-adv-x="403" 
d="M348 0h-293v78h100v438h-100v79h293v-79h-100v-438h100v-78z" />
    <glyph glyph-name="Igrave" unicode="&#xcc;" horiz-adv-x="391" 
d="M221 789l-165 101c-23 15 -37 35 -37 52c0 30 22 50 47 50c19 0 36 -11 52 -28l129 -146zM53 0v84h95v556h-95v84h284v-84h-95v-556h95v-84h-284z" />
    <glyph glyph-name="igrave" unicode="&#xec;" horiz-adv-x="349" 
d="M198 580l-174 106c-25 16 -39 37 -39 55c0 31 23 51 49 51c19 0 38 -11 54 -29l136 -153zM51 0v78h82v340h-82v79h173v-419h82v-78h-255z" />
    <glyph glyph-name="igrave.sc" horiz-adv-x="403" 
d="M229 669l-174 106c-25 16 -39 37 -39 55c0 31 23 51 49 51c19 0 38 -11 54 -29l136 -153zM348 0h-293v78h100v438h-100v79h293v-79h-100v-438h100v-78z" />
    <glyph glyph-name="Imacron" unicode="&#x12a;" horiz-adv-x="391" 
d="M23 824v78h344v-78h-344zM53 0v84h95v556h-95v84h284v-84h-95v-556h95v-84h-284z" />
    <glyph glyph-name="imacron" unicode="&#x12b;" horiz-adv-x="349" 
d="M-10 617v81h361v-81h-361zM51 0v78h82v340h-82v79h173v-419h82v-78h-255z" />
    <glyph glyph-name="imacron.sc" horiz-adv-x="403" 
d="M21 706v81h361v-81h-361zM348 0h-293v78h100v438h-100v79h293v-79h-100v-438h100v-78z" />
    <glyph glyph-name="Iogonek" unicode="&#x12e;" horiz-adv-x="391" 
d="M53 0v84h95v556h-95v84h284v-84h-95v-556h95v-84h-95c-43 -24 -71 -57 -71 -95c0 -34 20 -55 60 -55c31 0 59 8 83 21l-5 -67c-17 -12 -55 -25 -97 -25c-78 0 -119 43 -119 106c0 47 27 86 66 115h-106z" />
    <glyph glyph-name="iogonek" unicode="&#x12f;" horiz-adv-x="349" 
d="M167 612c-37 0 -69 31 -69 69s33 69 70 69s68 -31 68 -69s-32 -69 -69 -69zM51 0v78h82v340h-82v79h173v-419h82v-78h-94c-46 -25 -77 -60 -77 -101c0 -37 21 -58 64 -58c33 0 63 9 88 21l-5 -69c-18 -12 -58 -26 -102 -26c-83 0 -125 45 -125 111c0 51 29 92 70 122h-74
z" />
    <glyph glyph-name="iogonek.sc" horiz-adv-x="403" 
d="M205 -233c-83 0 -125 45 -125 111c0 51 29 92 70 122h-95v78h100v438h-100v79h293v-79h-100v-438h100v-78h-110c-46 -25 -77 -60 -77 -101c0 -37 20 -58 63 -58c33 0 63 9 88 21l-5 -69c-18 -12 -58 -26 -102 -26z" />
    <glyph glyph-name="Kcommaaccent" unicode="&#x136;" horiz-adv-x="752" 
d="M53 0v84h89v556h-89v84h277v-83h-94v-295l294 295h-93v83h291v-84h-80l-226 -224l217 -332h93v-84h-153l-227 353l-116 -114v-155h94v-84h-277zM316 -317l-20 28c61 47 84 91 86 116c-29 6 -50 29 -50 60c0 32 27 58 60 58c35 0 65 -27 65 -77c0 -52 -36 -127 -141 -185z
" />
    <glyph glyph-name="kcommaaccent" unicode="&#x137;" horiz-adv-x="624" 
d="M38 0v78h79v692h-79v79h170v-593l192 166h-90v75h285v-79h-89l-147 -125l147 -214h89v-79h-142l-161 242l-84 -71v-94h76v-77h-246zM236 -332l-21 29c65 49 89 95 90 122c-30 6 -52 30 -52 62c0 33 29 60 63 60c37 0 68 -28 68 -80c0 -54 -38 -133 -148 -193z" />
    <glyph glyph-name="kcommaaccent.sc" horiz-adv-x="697" 
d="M590 516l-189 -186l173 -252h95v-78h-153l-182 270l-88 -86v-106h95l1 -78h-287v78h99v438h-99v79h277v-78h-86v-234l238 234h-83v78h260v-79h-71zM281 -340l-21 29c65 49 89 95 90 122c-30 6 -52 30 -52 62c0 33 29 60 63 60c37 0 68 -28 68 -80
c0 -54 -38 -133 -148 -193z" />
    <glyph glyph-name="Lacute" unicode="&#x139;" horiz-adv-x="616" 
d="M199 798l-26 29l129 146c16 17 33 28 51 28c25 0 47 -20 47 -50c0 -17 -13 -37 -36 -52zM53 0v84h89v556h-89v84h282v-84h-99v-557h236v108h91v-191h-510z" />
    <glyph glyph-name="lacute" unicode="&#x13a;" horiz-adv-x="336" 
d="M156 901l-27 30l137 153c16 18 35 29 54 29c26 0 49 -20 49 -51c0 -18 -14 -39 -39 -55zM40 0v78h83v692h-83v79h174v-771h82v-78h-256z" />
    <glyph glyph-name="lacute.sc" horiz-adv-x="574" 
d="M184 664l-27 30l137 153c16 18 35 29 54 29c26 0 49 -20 49 -51c0 -18 -14 -39 -39 -55zM450 78v113h86v-191h-481v78h98v438h-98v79h291v-79h-101v-438h205z" />
    <glyph glyph-name="Lcaron" unicode="&#x13d;" horiz-adv-x="616" 
d="M405 450l-29 22c30 43 42 81 42 116c0 34 -14 49 -14 82c0 30 19 57 56 57c34 0 53 -25 53 -62c0 -75 -51 -156 -108 -215zM53 0v84h89v556h-89v84h282v-84h-99v-557h236v108h91v-191h-510z" />
    <glyph glyph-name="lcaron" unicode="&#x13e;" horiz-adv-x="336" 
d="M281 577l-31 23c32 45 44 85 44 122c0 36 -13 51 -13 85c0 32 19 59 57 59c36 0 56 -25 56 -63c0 -79 -53 -163 -113 -226zM40 0v78h83v692h-83v79h174v-771h82v-78h-256z" />
    <glyph glyph-name="lcaron.sc" horiz-adv-x="574" 
d="M404 327l-31 23c32 45 44 85 44 122c0 36 -13 51 -13 85c0 32 19 59 57 59c36 0 56 -25 56 -63c0 -79 -53 -163 -113 -226zM450 78v113h86v-191h-481v78h98v438h-98v79h291v-79h-101v-438h205z" />
    <glyph glyph-name="Lcommaaccent" unicode="&#x13b;" horiz-adv-x="616" 
d="M53 0v84h89v556h-89v84h282v-84h-99v-557h236v108h91v-191h-510zM231 -317l-20 28c61 47 84 91 86 116c-29 6 -50 29 -50 60c0 32 27 58 60 58c35 0 65 -27 65 -77c0 -52 -36 -127 -141 -185z" />
    <glyph glyph-name="lcommaaccent" unicode="&#x13c;" horiz-adv-x="336" 
d="M40 0v78h83v692h-83v79h174v-771h82v-78h-256zM87 -332l-21 29c65 49 89 95 90 122c-30 6 -52 30 -52 62c0 33 29 60 63 60c37 0 68 -28 68 -80c0 -54 -38 -133 -148 -193z" />
    <glyph glyph-name="lcommaaccent.sc" horiz-adv-x="574" 
d="M450 78v113h86v-191h-481v78h98v438h-98v79h291v-79h-101v-438h205zM215 -340l-21 29c65 49 89 95 90 122c-30 6 -52 30 -52 62c0 33 29 60 63 60c37 0 68 -28 68 -80c0 -54 -38 -133 -148 -193z" />
    <glyph glyph-name="Ldot" unicode="&#x13f;" horiz-adv-x="616" 
d="M53 0v84h89v556h-89v84h282v-84h-99v-557h236v108h91v-191h-510zM493 329c-37 0 -68 30 -68 69c0 38 32 69 69 69c38 0 68 -31 68 -69c0 -39 -31 -69 -69 -69z" />
    <glyph glyph-name="ldot" unicode="&#x140;" horiz-adv-x="391" 
d="M40 0v78h83v692h-83v79h174v-771h82v-78h-256zM359 324c-39 0 -71 32 -71 72s33 72 72 72s71 -32 71 -72s-33 -72 -72 -72z" />
    <glyph glyph-name="ldot.sc" horiz-adv-x="574" 
d="M450 78v113h86v-191h-481v78h98v438h-98v79h291v-79h-101v-438h205zM481 269c-39 0 -71 32 -71 72s33 72 72 72s71 -32 71 -72s-33 -72 -72 -72z" />
    <glyph glyph-name="Lslash" unicode="&#x141;" horiz-adv-x="621" 
d="M58 0v84h89v202l-89 -51l-39 66l128 73v266h-89v84h282v-84h-99v-213l146 84l38 -66l-184 -105v-257h236v108h91v-191h-510z" />
    <glyph glyph-name="lslash" unicode="&#x142;" horiz-adv-x="348" 
d="M46 0v78h83v330l-94 -55l-38 66l132 77v274h-83v79h174v-304l88 51l38 -65l-126 -74v-379h82v-78h-256z" />
    <glyph glyph-name="lslash.sc" horiz-adv-x="580" 
d="M455 78v113h86v-191h-481v78h98v150l-93 -47l-35 66l128 64v205h-98v79h291v-79h-101v-158l135 68l34 -67l-169 -85v-196h205z" />
    <glyph glyph-name="Nacute" unicode="&#x143;" horiz-adv-x="841" 
d="M394 789l-26 29l129 146c16 17 33 28 51 28c25 0 47 -20 47 -50c0 -17 -13 -37 -36 -52zM663 -3l-430 560v-473h94v-84h-274v84h89v556h-89v84h170l400 -523v439h-93v84h270v-84h-86v-642z" />
    <glyph glyph-name="nacute" unicode="&#x144;" horiz-adv-x="663" 
d="M312 580l-27 30l137 153c16 18 35 29 54 29c26 0 49 -20 49 -51c0 -18 -14 -39 -39 -55zM215 497v-89c47 53 112 99 183 99c63 0 106 -24 131 -64c17 -28 25 -63 25 -104v-261h78v-78h-245v78h75v242c0 25 -3 46 -11 62c-14 27 -40 40 -78 40c-57 0 -112 -35 -155 -80
v-264h76v-78h-246v78h79v340h-79v79h167z" />
    <glyph glyph-name="nacute.sc" horiz-adv-x="771" 
d="M361 669l-27 30l137 153c16 18 35 29 54 29c26 0 49 -20 49 -51c0 -18 -14 -39 -39 -55zM231 595l318 -415v336h-96v79h281v-79h-97v-519h-61l-336 442v-361h94v-78h-280v78h98v438h-98v79h177z" />
    <glyph glyph-name="Ncaron" unicode="&#x147;" horiz-adv-x="841" 
d="M557 1002l39 -46l-177 -171l-176 171l39 46l137 -103zM663 -3l-430 560v-473h94v-84h-274v84h89v556h-89v84h170l400 -523v439h-93v84h270v-84h-86v-642z" />
    <glyph glyph-name="ncaron" unicode="&#x148;" horiz-adv-x="663" 
d="M484 803l41 -47l-185 -179l-186 179l41 47l145 -108zM215 497v-89c47 53 112 99 183 99c63 0 106 -24 131 -64c17 -28 25 -63 25 -104v-261h78v-78h-245v78h75v242c0 25 -3 46 -11 62c-14 27 -40 40 -78 40c-57 0 -112 -35 -155 -80v-264h76v-78h-246v78h79v340h-79v79
h167z" />
    <glyph glyph-name="ncaron.sc" horiz-adv-x="771" 
d="M533 892l41 -47l-185 -179l-186 179l41 47l145 -108zM231 595l318 -415v336h-96v79h281v-79h-97v-519h-61l-336 442v-361h94v-78h-280v78h98v438h-98v79h177z" />
    <glyph glyph-name="Ncommaaccent" unicode="&#x145;" horiz-adv-x="841" 
d="M663 -3l-430 560v-473h94v-84h-274v84h89v556h-89v84h170l400 -523v439h-93v84h270v-84h-86v-642zM349 -313l-20 28c61 47 84 91 86 116c-29 6 -50 29 -50 60c0 32 27 58 60 58c35 0 65 -27 65 -77c0 -52 -36 -127 -141 -185z" />
    <glyph glyph-name="ncommaaccent" unicode="&#x146;" horiz-adv-x="663" 
d="M215 497v-89c47 53 112 99 183 99c63 0 106 -24 131 -64c17 -28 25 -63 25 -104v-261h78v-78h-245v78h75v242c0 25 -3 46 -11 62c-14 27 -40 40 -78 40c-57 0 -112 -35 -155 -80v-264h76v-78h-246v78h79v340h-79v79h167zM260 -332l-21 29c65 49 89 95 90 122
c-30 6 -52 30 -52 62c0 33 29 60 63 60c37 0 68 -28 68 -80c0 -54 -38 -133 -148 -193z" />
    <glyph glyph-name="ncommaaccent.sc" horiz-adv-x="771" 
d="M231 595l318 -415v336h-96v79h281v-79h-97v-519h-61l-336 442v-361h94v-78h-280v78h98v438h-98v79h177zM309 -340l-21 29c65 49 89 95 90 122c-30 6 -52 30 -52 62c0 33 29 60 63 60c37 0 68 -28 68 -80c0 -54 -38 -133 -148 -193z" />
    <glyph glyph-name="Ntilde" unicode="&#xd1;" horiz-adv-x="841" 
d="M503 798c-43 0 -72 20 -98 42s-43 32 -59 32c-26 0 -43 -23 -52 -68l-66 16c7 84 59 140 113 140c43 0 72 -20 97 -42c27 -22 43 -32 59 -32c26 0 44 23 52 67l66 -15c-7 -85 -58 -140 -112 -140zM663 -3l-430 560v-473h94v-84h-274v84h89v556h-89v84h170l400 -523v439
h-93v84h270v-84h-86v-642z" />
    <glyph glyph-name="ntilde" unicode="&#xf1;" horiz-adv-x="663" 
d="M428 589c-45 0 -76 21 -103 44c-27 24 -45 34 -62 34c-27 0 -45 -24 -54 -71l-69 16c8 88 61 147 118 147c45 0 76 -21 102 -45c28 -23 45 -33 62 -33c27 0 46 24 55 71l68 -16c-7 -88 -61 -147 -117 -147zM215 497v-89c47 53 112 99 183 99c63 0 106 -24 131 -64
c17 -28 25 -63 25 -104v-261h78v-78h-245v78h75v242c0 25 -3 46 -11 62c-14 27 -40 40 -78 40c-57 0 -112 -35 -155 -80v-264h76v-78h-246v78h79v340h-79v79h167z" />
    <glyph glyph-name="ntilde.sc" horiz-adv-x="771" 
d="M477 678c-45 0 -76 21 -103 44c-27 24 -45 34 -62 34c-27 0 -45 -24 -54 -71l-69 16c8 88 61 147 118 147c45 0 76 -21 102 -45c28 -23 45 -33 62 -33c27 0 46 24 55 71l68 -16c-7 -88 -61 -147 -117 -147zM231 595l318 -415v336h-96v79h281v-79h-97v-519h-61l-336 442
v-361h94v-78h-280v78h98v438h-98v79h177z" />
    <glyph glyph-name="Oacute" unicode="&#xd3;" horiz-adv-x="860" 
d="M404 789l-26 29l129 146c16 17 33 28 51 28c25 0 47 -20 47 -50c0 -17 -13 -37 -36 -52zM427 -13c-213 0 -365 164 -365 374c0 213 155 376 370 376c213 0 366 -164 366 -375c0 -212 -155 -375 -371 -375zM430 74c158 0 271 123 271 287c0 165 -113 289 -271 289
s-271 -123 -271 -288c0 -164 113 -288 271 -288z" />
    <glyph glyph-name="oacute" unicode="&#xf3;" horiz-adv-x="620" 
d="M282 580l-27 30l137 153c16 18 35 29 54 29c26 0 49 -20 49 -51c0 -18 -14 -39 -39 -55zM310 -9c-157 0 -258 117 -258 258c0 139 102 258 258 258c157 0 258 -117 258 -258c0 -140 -102 -258 -258 -258zM310 69c96 0 163 74 163 180c0 104 -67 179 -163 179
s-163 -75 -163 -179c0 -106 67 -180 163 -180z" />
    <glyph glyph-name="oacute.sc" horiz-adv-x="722" 
d="M333 669l-27 30l137 153c16 18 35 29 54 29c26 0 49 -20 49 -51c0 -18 -14 -39 -39 -55zM361 610c184 0 308 -138 308 -310c0 -175 -123 -313 -308 -313s-307 138 -307 313c0 172 123 310 307 310zM361 71c123 0 213 91 213 227c0 134 -89 227 -213 227
c-123 0 -212 -92 -212 -227c0 -136 89 -227 212 -227z" />
    <glyph glyph-name="Obreve" unicode="&#x14e;" horiz-adv-x="860" 
d="M428 797c-82 0 -152 57 -183 161l61 26c26 -68 73 -102 122 -102c52 0 97 38 123 102l60 -26c-30 -104 -101 -161 -183 -161zM427 -13c-213 0 -365 164 -365 374c0 213 155 376 370 376c213 0 366 -164 366 -375c0 -212 -155 -375 -371 -375zM430 74
c158 0 271 123 271 287c0 165 -113 289 -271 289s-271 -123 -271 -288c0 -164 113 -288 271 -288z" />
    <glyph glyph-name="obreve" unicode="&#x14f;" horiz-adv-x="620" 
d="M309 588c-87 0 -160 61 -192 169l62 26c28 -70 78 -106 130 -106c54 0 102 40 129 106l62 -26c-31 -108 -105 -169 -191 -169zM310 -9c-157 0 -258 117 -258 258c0 139 102 258 258 258c157 0 258 -117 258 -258c0 -140 -102 -258 -258 -258zM310 69c96 0 163 74 163 180
c0 104 -67 179 -163 179s-163 -75 -163 -179c0 -106 67 -180 163 -180z" />
    <glyph glyph-name="obreve.sc" horiz-adv-x="722" 
d="M360 677c-87 0 -160 61 -192 169l62 26c28 -70 78 -106 130 -106c54 0 102 40 129 106l62 -26c-31 -108 -105 -169 -191 -169zM361 610c184 0 308 -138 308 -310c0 -175 -123 -313 -308 -313s-307 138 -307 313c0 172 123 310 307 310zM361 71c123 0 213 91 213 227
c0 134 -89 227 -213 227c-123 0 -212 -92 -212 -227c0 -136 89 -227 212 -227z" />
    <glyph glyph-name="Ocircumflex" unicode="&#xd4;" horiz-adv-x="860" 
d="M292 787l-39 46l176 171l177 -171l-39 -46l-138 103zM427 -13c-213 0 -365 164 -365 374c0 213 155 376 370 376c213 0 366 -164 366 -375c0 -212 -155 -375 -371 -375zM430 74c158 0 271 123 271 287c0 165 -113 289 -271 289s-271 -123 -271 -288
c0 -164 113 -288 271 -288z" />
    <glyph glyph-name="ocircumflex" unicode="&#xf4;" horiz-adv-x="620" 
d="M165 578l-41 48l186 179l185 -179l-41 -48l-144 109zM310 -9c-157 0 -258 117 -258 258c0 139 102 258 258 258c157 0 258 -117 258 -258c0 -140 -102 -258 -258 -258zM310 69c96 0 163 74 163 180c0 104 -67 179 -163 179s-163 -75 -163 -179c0 -106 67 -180 163 -180z
" />
    <glyph glyph-name="ocircumflex.sc" horiz-adv-x="722" 
d="M216 667l-41 48l186 179l185 -179l-41 -48l-144 109zM361 610c184 0 308 -138 308 -310c0 -175 -123 -313 -308 -313s-307 138 -307 313c0 172 123 310 307 310zM361 71c123 0 213 91 213 227c0 134 -89 227 -213 227c-123 0 -212 -92 -212 -227c0 -136 89 -227 212 -227
z" />
    <glyph glyph-name="Odieresis" unicode="&#xd6;" horiz-adv-x="860" 
d="M328 805c-37 0 -66 31 -66 68c0 38 31 68 68 68s66 -30 66 -68c0 -37 -31 -68 -68 -68zM530 805c-37 0 -67 31 -67 68c0 38 31 68 68 68s67 -30 67 -68c0 -37 -31 -68 -68 -68zM427 -13c-213 0 -365 164 -365 374c0 213 155 376 370 376c213 0 366 -164 366 -375
c0 -212 -155 -375 -371 -375zM430 74c158 0 271 123 271 287c0 165 -113 289 -271 289s-271 -123 -271 -288c0 -164 113 -288 271 -288z" />
    <glyph glyph-name="odieresis" unicode="&#xf6;" horiz-adv-x="620" 
d="M204 598c-39 0 -70 32 -70 71s32 71 71 71s70 -32 70 -71s-32 -71 -71 -71zM415 598c-38 0 -69 32 -69 71s32 71 70 71c39 0 70 -32 70 -71s-32 -71 -71 -71zM310 -9c-157 0 -258 117 -258 258c0 139 102 258 258 258c157 0 258 -117 258 -258
c0 -140 -102 -258 -258 -258zM310 69c96 0 163 74 163 180c0 104 -67 179 -163 179s-163 -75 -163 -179c0 -106 67 -180 163 -180z" />
    <glyph glyph-name="odieresis.sc" horiz-adv-x="722" 
d="M255 687c-39 0 -70 32 -70 71s32 71 71 71s70 -32 70 -71s-32 -71 -71 -71zM466 687c-38 0 -69 32 -69 71s32 71 70 71c39 0 70 -32 70 -71s-32 -71 -71 -71zM361 610c184 0 308 -138 308 -310c0 -175 -123 -313 -308 -313s-307 138 -307 313c0 172 123 310 307 310z
M361 71c123 0 213 91 213 227c0 134 -89 227 -213 227c-123 0 -212 -92 -212 -227c0 -136 89 -227 212 -227z" />
    <glyph glyph-name="OE" unicode="&#x152;" horiz-adv-x="1032" 
d="M468 0c-242 0 -406 141 -406 355c0 219 151 369 406 369h495v-186h-90v103h-256v-232h232v-81h-232v-245h257v103h90v-186h-496zM471 84h52v556h-61c-198 0 -303 -116 -303 -286c0 -169 125 -270 312 -270z" />
    <glyph glyph-name="oe" unicode="&#x153;" horiz-adv-x="986" 
d="M749 70c65 0 118 21 176 54l-8 -86c-51 -32 -115 -47 -178 -47c-102 0 -185 50 -222 121c-37 -72 -113 -121 -210 -121c-154 0 -255 117 -255 258c0 139 102 258 255 258c98 0 174 -51 210 -122c39 74 113 122 200 122c149 0 229 -110 229 -236c0 -19 -2 -36 -5 -50h-377
c12 -102 83 -151 185 -151zM711 430c-70 0 -134 -47 -147 -140h290c-5 83 -54 140 -143 140zM310 69c96 0 163 74 163 180c0 104 -67 179 -163 179s-163 -75 -163 -179c0 -106 67 -180 163 -180z" />
    <glyph glyph-name="oe.sc" horiz-adv-x="897" 
d="M397 595h432v-185h-86v107h-209v-181h187v-76h-187v-183h210v105h86v-182h-439c-209 0 -336 118 -336 298s127 297 342 297zM442 78v438h-54c-150 0 -239 -85 -239 -217c0 -134 86 -221 239 -221h54z" />
    <glyph glyph-name="Ograve" unicode="&#xd2;" horiz-adv-x="860" 
d="M456 789l-165 101c-23 15 -37 35 -37 52c0 30 22 50 47 50c19 0 36 -11 52 -28l129 -146zM427 -13c-213 0 -365 164 -365 374c0 213 155 376 370 376c213 0 366 -164 366 -375c0 -212 -155 -375 -371 -375zM430 74c158 0 271 123 271 287c0 165 -113 289 -271 289
s-271 -123 -271 -288c0 -164 113 -288 271 -288z" />
    <glyph glyph-name="ograve" unicode="&#xf2;" horiz-adv-x="620" 
d="M338 580l-174 106c-25 16 -39 37 -39 55c0 31 23 51 49 51c19 0 38 -11 54 -29l136 -153zM310 -9c-157 0 -258 117 -258 258c0 139 102 258 258 258c157 0 258 -117 258 -258c0 -140 -102 -258 -258 -258zM310 69c96 0 163 74 163 180c0 104 -67 179 -163 179
s-163 -75 -163 -179c0 -106 67 -180 163 -180z" />
    <glyph glyph-name="ograve.sc" horiz-adv-x="722" 
d="M389 669l-174 106c-25 16 -39 37 -39 55c0 31 23 51 49 51c19 0 38 -11 54 -29l136 -153zM361 610c184 0 308 -138 308 -310c0 -175 -123 -313 -308 -313s-307 138 -307 313c0 172 123 310 307 310zM361 71c123 0 213 91 213 227c0 134 -89 227 -213 227
c-123 0 -212 -92 -212 -227c0 -136 89 -227 212 -227z" />
    <glyph glyph-name="Ohungarumlaut" unicode="&#x150;" horiz-adv-x="860" 
d="M285 791l-20 30l150 142c17 17 34 27 50 27c27 0 48 -20 48 -48c0 -19 -14 -41 -44 -56zM504 794l-18 31l164 138c18 16 35 23 50 23c27 0 46 -22 46 -48c0 -21 -15 -41 -46 -55zM427 -13c-213 0 -365 164 -365 374c0 213 155 376 370 376c213 0 366 -164 366 -375
c0 -212 -155 -375 -371 -375zM430 74c158 0 271 123 271 287c0 165 -113 289 -271 289s-271 -123 -271 -288c0 -164 113 -288 271 -288z" />
    <glyph glyph-name="ohungarumlaut" unicode="&#x151;" horiz-adv-x="620" 
d="M159 583l-21 31l157 149c19 17 36 27 53 27c28 0 50 -20 50 -50c0 -19 -15 -42 -46 -58zM388 586l-18 32l172 145c19 16 36 23 52 23c28 0 47 -22 47 -50c0 -21 -15 -43 -48 -57zM310 -9c-157 0 -258 117 -258 258c0 139 102 258 258 258c157 0 258 -117 258 -258
c0 -140 -102 -258 -258 -258zM310 69c96 0 163 74 163 180c0 104 -67 179 -163 179s-163 -75 -163 -179c0 -106 67 -180 163 -180z" />
    <glyph glyph-name="ohungarumlaut.sc" horiz-adv-x="722" 
d="M210 672l-21 31l157 149c19 17 36 27 53 27c28 0 50 -20 50 -50c0 -19 -15 -42 -46 -58zM439 675l-18 32l172 145c19 16 36 23 52 23c28 0 47 -22 47 -50c0 -21 -15 -43 -48 -57zM361 610c184 0 308 -138 308 -310c0 -175 -123 -313 -308 -313s-307 138 -307 313
c0 172 123 310 307 310zM361 71c123 0 213 91 213 227c0 134 -89 227 -213 227c-123 0 -212 -92 -212 -227c0 -136 89 -227 212 -227z" />
    <glyph glyph-name="Omacron" unicode="&#x14c;" horiz-adv-x="860" 
d="M258 824v78h344v-78h-344zM427 -13c-213 0 -365 164 -365 374c0 213 155 376 370 376c213 0 366 -164 366 -375c0 -212 -155 -375 -371 -375zM430 74c158 0 271 123 271 287c0 165 -113 289 -271 289s-271 -123 -271 -288c0 -164 113 -288 271 -288z" />
    <glyph glyph-name="omacron" unicode="&#x14d;" horiz-adv-x="620" 
d="M130 617v81h361v-81h-361zM310 -9c-157 0 -258 117 -258 258c0 139 102 258 258 258c157 0 258 -117 258 -258c0 -140 -102 -258 -258 -258zM310 69c96 0 163 74 163 180c0 104 -67 179 -163 179s-163 -75 -163 -179c0 -106 67 -180 163 -180z" />
    <glyph glyph-name="omacron.sc" horiz-adv-x="722" 
d="M181 706v81h361v-81h-361zM361 610c184 0 308 -138 308 -310c0 -175 -123 -313 -308 -313s-307 138 -307 313c0 172 123 310 307 310zM361 71c123 0 213 91 213 227c0 134 -89 227 -213 227c-123 0 -212 -92 -212 -227c0 -136 89 -227 212 -227z" />
    <glyph glyph-name="Oslash" unicode="&#xd8;" horiz-adv-x="860" 
d="M159 362c0 -77 22 -143 61 -193l370 432c-43 31 -98 49 -160 49c-158 0 -271 -123 -271 -288zM430 74c158 0 271 123 271 287c0 76 -22 142 -61 192l-370 -431c43 -31 97 -48 160 -48zM427 -13c-81 0 -154 25 -213 67l-88 -101l-59 52l88 102c-59 66 -93 156 -93 254
c0 213 155 376 370 376c82 0 155 -25 214 -68l87 102l60 -53l-89 -102c59 -67 94 -156 94 -254c0 -212 -155 -375 -371 -375z" />
    <glyph glyph-name="oslash" unicode="&#xf8;" horiz-adv-x="620" 
d="M147 249c0 -46 11 -85 30 -114l223 267c-25 17 -56 26 -90 26c-96 0 -163 -75 -163 -179zM310 69c96 0 163 74 163 180c0 42 -11 79 -29 108l-222 -266c25 -15 54 -22 88 -22zM310 -9c-52 0 -98 13 -136 36l-57 -67l-59 48l58 68c-41 47 -64 108 -64 173
c0 139 102 258 258 258c53 0 101 -15 140 -40l58 69l59 -49l-59 -71c38 -46 60 -105 60 -167c0 -140 -102 -258 -258 -258z" />
    <glyph glyph-name="oslash.sc" horiz-adv-x="726" 
d="M150 298c0 -57 16 -106 43 -144l292 333c-34 24 -76 38 -122 38c-124 0 -213 -92 -213 -227zM362 71c124 0 214 91 214 227c0 55 -16 104 -43 142l-293 -333c34 -23 76 -36 122 -36zM362 -13c-69 0 -129 19 -177 52l-71 -81l-60 52l73 82c-46 55 -72 127 -72 208
c0 172 124 310 308 310c69 0 130 -20 179 -54l74 84l60 -53l-76 -84c45 -54 70 -125 70 -203c0 -175 -122 -313 -308 -313z" />
    <glyph glyph-name="Oslashacute" unicode="&#x1fe;" horiz-adv-x="860" 
d="M406 789l-26 29l129 146c16 17 33 28 51 28c25 0 47 -20 47 -50c0 -17 -13 -37 -36 -52zM159 362c0 -77 22 -143 61 -193l370 432c-43 31 -98 49 -160 49c-158 0 -271 -123 -271 -288zM430 74c158 0 271 123 271 287c0 76 -22 142 -61 192l-370 -431
c43 -31 97 -48 160 -48zM427 -13c-81 0 -154 25 -213 67l-88 -101l-59 52l88 102c-59 66 -93 156 -93 254c0 213 155 376 370 376c82 0 155 -25 214 -68l87 102l60 -53l-89 -102c59 -67 94 -156 94 -254c0 -212 -155 -375 -371 -375z" />
    <glyph glyph-name="oslashacute" unicode="&#x1ff;" horiz-adv-x="620" 
d="M282 580l-27 30l137 153c16 18 35 29 54 29c26 0 49 -20 49 -51c0 -18 -14 -39 -39 -55zM147 249c0 -46 11 -85 30 -114l223 267c-25 17 -56 26 -90 26c-96 0 -163 -75 -163 -179zM310 69c96 0 163 74 163 180c0 42 -11 79 -29 108l-222 -266c25 -15 54 -22 88 -22z
M310 -9c-52 0 -98 13 -136 36l-57 -67l-59 48l58 68c-41 47 -64 108 -64 173c0 139 102 258 258 258c53 0 101 -15 140 -40l58 69l59 -49l-59 -71c38 -46 60 -105 60 -167c0 -140 -102 -258 -258 -258z" />
    <glyph glyph-name="oslashacute.sc" horiz-adv-x="726" 
d="M338 669l-27 30l137 153c16 18 35 29 54 29c26 0 49 -20 49 -51c0 -18 -14 -39 -39 -55zM150 298c0 -57 16 -106 43 -144l292 333c-34 24 -76 38 -122 38c-124 0 -213 -92 -213 -227zM362 71c124 0 214 91 214 227c0 55 -16 104 -43 142l-293 -333c34 -23 76 -36 122 -36
zM362 -13c-69 0 -129 19 -177 52l-71 -81l-60 52l73 82c-46 55 -72 127 -72 208c0 172 124 310 308 310c69 0 130 -20 179 -54l74 84l60 -53l-76 -84c45 -54 70 -125 70 -203c0 -175 -122 -313 -308 -313z" />
    <glyph glyph-name="Otilde" unicode="&#xd5;" horiz-adv-x="860" 
d="M513 798c-43 0 -72 20 -98 42s-43 32 -59 32c-26 0 -43 -23 -52 -68l-66 16c7 84 59 140 113 140c43 0 72 -20 97 -42c27 -22 43 -32 59 -32c26 0 44 23 52 67l66 -15c-7 -85 -58 -140 -112 -140zM427 -13c-213 0 -365 164 -365 374c0 213 155 376 370 376
c213 0 366 -164 366 -375c0 -212 -155 -375 -371 -375zM430 74c158 0 271 123 271 287c0 165 -113 289 -271 289s-271 -123 -271 -288c0 -164 113 -288 271 -288z" />
    <glyph glyph-name="otilde" unicode="&#xf5;" horiz-adv-x="620" 
d="M398 589c-45 0 -76 21 -103 44c-27 24 -45 34 -62 34c-27 0 -45 -24 -54 -71l-69 16c8 88 61 147 118 147c45 0 76 -21 102 -45c28 -23 45 -33 62 -33c27 0 46 24 55 71l68 -16c-7 -88 -61 -147 -117 -147zM310 -9c-157 0 -258 117 -258 258c0 139 102 258 258 258
c157 0 258 -117 258 -258c0 -140 -102 -258 -258 -258zM310 69c96 0 163 74 163 180c0 104 -67 179 -163 179s-163 -75 -163 -179c0 -106 67 -180 163 -180z" />
    <glyph glyph-name="otilde.sc" horiz-adv-x="722" 
d="M449 678c-45 0 -76 21 -103 44c-27 24 -45 34 -62 34c-27 0 -45 -24 -54 -71l-69 16c8 88 61 147 118 147c45 0 76 -21 102 -45c28 -23 45 -33 62 -33c27 0 46 24 55 71l68 -16c-7 -88 -61 -147 -117 -147zM361 610c184 0 308 -138 308 -310c0 -175 -123 -313 -308 -313
s-307 138 -307 313c0 172 123 310 307 310zM361 71c123 0 213 91 213 227c0 134 -89 227 -213 227c-123 0 -212 -92 -212 -227c0 -136 89 -227 212 -227z" />
    <glyph glyph-name="Racute" unicode="&#x154;" horiz-adv-x="688" 
d="M314 789l-26 29l129 146c16 17 33 28 51 28c25 0 47 -20 47 -50c0 -17 -13 -37 -36 -52zM320 369c105 0 182 50 182 140c0 86 -69 131 -178 131h-88v-269c20 -1 47 -2 84 -2zM53 0v84h89v556h-89v84h276c162 0 270 -78 270 -213c0 -97 -62 -167 -150 -198l140 -229h85
v-84h-150l-168 290c-14 -1 -29 -2 -43 -2c-27 0 -57 0 -77 2v-206h94v-84h-277z" />
    <glyph glyph-name="racute" unicode="&#x155;" horiz-adv-x="464" 
d="M219 580l-27 30l137 153c16 18 35 29 54 29c26 0 49 -20 49 -51c0 -18 -14 -39 -39 -55zM368 507c52 0 79 -33 79 -70c0 -34 -27 -63 -61 -63c-32 0 -54 20 -63 42c-37 -12 -81 -54 -105 -102v-236h92v-78h-262v78h79v340h-79v79h167v-112c39 68 97 122 153 122z" />
    <glyph glyph-name="racute.sc" horiz-adv-x="648" 
d="M303 669l-27 30l137 153c16 18 35 29 54 29c26 0 49 -20 49 -51c0 -18 -14 -39 -39 -55zM324 516h-79v-206c19 -2 50 -3 79 -3c86 0 143 40 143 108c0 64 -55 101 -143 101zM245 231v-153h94v-78h-284v78h98v438h-98v79h274c138 0 231 -63 231 -179
c0 -77 -48 -135 -117 -163l99 -175h88v-78h-154l-124 231c-20 -2 -33 -2 -42 -2c-18 0 -46 0 -65 2z" />
    <glyph glyph-name="Rcaron" unicode="&#x158;" horiz-adv-x="688" 
d="M477 1002l39 -46l-177 -171l-176 171l39 46l137 -103zM320 369c105 0 182 50 182 140c0 86 -69 131 -178 131h-88v-269c20 -1 47 -2 84 -2zM53 0v84h89v556h-89v84h276c162 0 270 -78 270 -213c0 -97 -62 -167 -150 -198l140 -229h85v-84h-150l-168 290
c-14 -1 -29 -2 -43 -2c-27 0 -57 0 -77 2v-206h94v-84h-277z" />
    <glyph glyph-name="rcaron" unicode="&#x159;" horiz-adv-x="464" 
d="M391 803l41 -47l-185 -179l-186 179l41 47l145 -108zM368 507c52 0 79 -33 79 -70c0 -34 -27 -63 -61 -63c-32 0 -54 20 -63 42c-37 -12 -81 -54 -105 -102v-236h92v-78h-262v78h79v340h-79v79h167v-112c39 68 97 122 153 122z" />
    <glyph glyph-name="rcaron.sc" horiz-adv-x="648" 
d="M474 892l41 -47l-185 -179l-186 179l41 47l145 -108zM324 516h-79v-206c19 -2 50 -3 79 -3c86 0 143 40 143 108c0 64 -55 101 -143 101zM245 231v-153h94v-78h-284v78h98v438h-98v79h274c138 0 231 -63 231 -179c0 -77 -48 -135 -117 -163l99 -175h88v-78h-154l-124 231
c-20 -2 -33 -2 -42 -2c-18 0 -46 0 -65 2z" />
    <glyph glyph-name="Rcommaaccent" unicode="&#x156;" horiz-adv-x="688" 
d="M320 369c105 0 182 50 182 140c0 86 -69 131 -178 131h-88v-269c20 -1 47 -2 84 -2zM53 0v84h89v556h-89v84h276c162 0 270 -78 270 -213c0 -97 -62 -167 -150 -198l140 -229h85v-84h-150l-168 290c-14 -1 -29 -2 -43 -2c-27 0 -57 0 -77 2v-206h94v-84h-277zM263 -317
l-20 28c61 47 84 91 86 116c-29 6 -50 29 -50 60c0 32 27 58 60 58c35 0 65 -27 65 -77c0 -52 -36 -127 -141 -185z" />
    <glyph glyph-name="rcommaaccent" unicode="&#x157;" horiz-adv-x="464" 
d="M368 507c52 0 79 -33 79 -70c0 -34 -27 -63 -61 -63c-32 0 -54 20 -63 42c-37 -12 -81 -54 -105 -102v-236h92v-78h-262v78h79v340h-79v79h167v-112c39 68 97 122 153 122zM93 -332l-21 29c65 49 89 95 90 122c-30 6 -52 30 -52 62c0 33 29 60 63 60c37 0 68 -28 68 -80
c0 -54 -38 -133 -148 -193z" />
    <glyph glyph-name="rcommaaccent.sc" horiz-adv-x="648" 
d="M324 516h-79v-206c19 -2 50 -3 79 -3c86 0 143 40 143 108c0 64 -55 101 -143 101zM245 231v-153h94v-78h-284v78h98v438h-98v79h274c138 0 231 -63 231 -179c0 -77 -48 -135 -117 -163l99 -175h88v-78h-154l-124 231c-20 -2 -33 -2 -42 -2c-18 0 -46 0 -65 2zM256 -340
l-21 29c65 49 89 95 90 122c-30 6 -52 30 -52 62c0 33 29 60 63 60c37 0 68 -28 68 -80c0 -54 -38 -133 -148 -193z" />
    <glyph glyph-name="Sacute" unicode="&#x15a;" horiz-adv-x="614" 
d="M288 789l-26 29l129 146c16 17 33 28 51 28c25 0 47 -20 47 -50c0 -17 -13 -37 -36 -52zM305 -13c-141 0 -245 80 -245 156c0 44 27 74 63 74c39 0 64 -29 64 -59c0 -19 -7 -34 -16 -47c25 -23 75 -41 136 -41c91 0 148 45 148 119c0 70 -67 102 -146 132
c-128 48 -222 92 -222 220c0 112 90 196 228 196c124 0 223 -68 223 -147c0 -44 -28 -69 -62 -69c-40 0 -65 30 -65 62c0 17 7 29 14 39c-20 19 -66 33 -111 33c-83 0 -133 -45 -133 -107c0 -72 66 -102 152 -135c122 -46 215 -91 215 -217c0 -131 -103 -209 -243 -209z" />
    <glyph glyph-name="sacute" unicode="&#x15b;" horiz-adv-x="521" 
d="M233 580l-27 30l137 153c16 18 35 29 54 29c26 0 49 -20 49 -51c0 -18 -14 -39 -39 -55zM448 396c0 -34 -21 -57 -51 -57c-33 0 -57 21 -57 53c0 9 1 18 4 26c-18 11 -49 17 -82 17c-66 0 -103 -33 -103 -67c0 -39 41 -54 122 -75c105 -27 186 -55 186 -151
c0 -97 -94 -152 -202 -152c-74 0 -149 24 -183 58c-18 18 -27 39 -27 64c0 31 22 57 54 57s57 -21 57 -54c0 -10 -3 -19 -7 -28c18 -12 57 -25 106 -25c63 0 113 26 113 71c0 40 -40 57 -112 76c-125 31 -195 61 -195 151c0 76 68 147 192 147c65 0 128 -21 159 -53
c18 -17 26 -36 26 -58z" />
    <glyph glyph-name="sacute.sc" horiz-adv-x="564" 
d="M261 669l-27 30l137 153c16 18 35 29 54 29c26 0 49 -20 49 -51c0 -18 -14 -39 -39 -55zM372 472c0 15 5 27 11 35c-16 13 -55 25 -99 25c-69 0 -115 -32 -115 -83c0 -56 69 -78 130 -101c105 -37 205 -73 205 -184c0 -116 -95 -177 -224 -177c-127 0 -224 67 -224 140
c0 42 23 69 61 69s65 -27 65 -58c0 -16 -5 -30 -12 -41c19 -17 60 -32 113 -32c80 0 130 32 130 91c0 56 -70 80 -130 102c-111 39 -207 72 -207 183c0 99 85 169 213 169c118 0 207 -59 207 -133c0 -39 -26 -64 -58 -64c-43 0 -66 29 -66 59z" />
    <glyph glyph-name="Scaron" unicode="&#x160;" horiz-adv-x="614" 
d="M451 1002l39 -46l-177 -171l-176 171l39 46l137 -103zM305 -13c-141 0 -245 80 -245 156c0 44 27 74 63 74c39 0 64 -29 64 -59c0 -19 -7 -34 -16 -47c25 -23 75 -41 136 -41c91 0 148 45 148 119c0 70 -67 102 -146 132c-128 48 -222 92 -222 220c0 112 90 196 228 196
c124 0 223 -68 223 -147c0 -44 -28 -69 -62 -69c-40 0 -65 30 -65 62c0 17 7 29 14 39c-20 19 -66 33 -111 33c-83 0 -133 -45 -133 -107c0 -72 66 -102 152 -135c122 -46 215 -91 215 -217c0 -131 -103 -209 -243 -209z" />
    <glyph glyph-name="scaron" unicode="&#x161;" horiz-adv-x="521" 
d="M404 803l41 -47l-185 -179l-186 179l41 47l145 -108zM448 396c0 -34 -21 -57 -51 -57c-33 0 -57 21 -57 53c0 9 1 18 4 26c-18 11 -49 17 -82 17c-66 0 -103 -33 -103 -67c0 -39 41 -54 122 -75c105 -27 186 -55 186 -151c0 -97 -94 -152 -202 -152
c-74 0 -149 24 -183 58c-18 18 -27 39 -27 64c0 31 22 57 54 57s57 -21 57 -54c0 -10 -3 -19 -7 -28c18 -12 57 -25 106 -25c63 0 113 26 113 71c0 40 -40 57 -112 76c-125 31 -195 61 -195 151c0 76 68 147 192 147c65 0 128 -21 159 -53c18 -17 26 -36 26 -58z" />
    <glyph glyph-name="scaron.sc" horiz-adv-x="564" 
d="M433 892l41 -47l-185 -179l-186 179l41 47l145 -108zM372 472c0 15 5 27 11 35c-16 13 -55 25 -99 25c-69 0 -115 -32 -115 -83c0 -56 69 -78 130 -101c105 -37 205 -73 205 -184c0 -116 -95 -177 -224 -177c-127 0 -224 67 -224 140c0 42 23 69 61 69s65 -27 65 -58
c0 -16 -5 -30 -12 -41c19 -17 60 -32 113 -32c80 0 130 32 130 91c0 56 -70 80 -130 102c-111 39 -207 72 -207 183c0 99 85 169 213 169c118 0 207 -59 207 -133c0 -39 -26 -64 -58 -64c-43 0 -66 29 -66 59z" />
    <glyph glyph-name="Scedilla" unicode="&#x15e;" horiz-adv-x="614" 
d="M315 -219c-43 0 -91 12 -127 33l17 35c32 -13 70 -22 96 -22c28 0 46 12 46 32c0 16 -15 32 -60 32c-6 0 -17 -2 -18 -2l-21 20l27 80c-126 10 -215 83 -215 154c0 44 27 74 63 74c39 0 64 -29 64 -59c0 -19 -7 -34 -16 -47c25 -23 75 -41 136 -41c91 0 148 45 148 119
c0 70 -67 102 -146 132c-128 48 -222 92 -222 220c0 112 90 196 228 196c124 0 223 -68 223 -147c0 -44 -28 -69 -62 -69c-40 0 -65 30 -65 62c0 17 7 29 14 39c-20 19 -66 33 -111 33c-83 0 -133 -45 -133 -107c0 -72 66 -102 152 -135c122 -46 215 -91 215 -217
s-96 -202 -227 -208v-40c68 -5 107 -39 107 -84c0 -44 -40 -83 -113 -83z" />
    <glyph glyph-name="scedilla" unicode="&#x15f;" horiz-adv-x="521" 
d="M268 -231c-45 0 -95 13 -133 34l18 38c32 -14 73 -23 101 -23c29 0 48 13 48 33c0 18 -16 34 -63 34c-5 0 -17 -1 -19 -2l-22 21l29 88c-60 7 -117 28 -145 56c-18 18 -27 39 -27 64c0 31 22 57 54 57s57 -21 57 -54c0 -10 -3 -19 -7 -28c18 -12 57 -25 106 -25
c63 0 113 26 113 71c0 40 -40 57 -112 76c-125 31 -195 61 -195 151c0 76 68 147 192 147c65 0 128 -21 159 -53c18 -17 26 -36 26 -58c0 -34 -21 -57 -51 -57c-33 0 -57 21 -57 53c0 9 1 18 4 26c-18 11 -49 17 -82 17c-66 0 -103 -33 -103 -67c0 -39 41 -54 122 -75
c105 -27 186 -55 186 -151c0 -94 -89 -149 -193 -152v-45c72 -5 113 -41 113 -89c0 -46 -42 -87 -119 -87z" />
    <glyph glyph-name="scedilla.sc" horiz-adv-x="574" 
d="M293 -231c-45 0 -95 13 -133 34l18 38c32 -14 73 -23 101 -23c29 0 48 13 48 33c0 18 -16 34 -63 34c-5 0 -17 -1 -19 -2l-22 21l28 85c-109 11 -189 72 -189 138c0 42 23 69 61 69s65 -27 65 -58c0 -16 -5 -30 -12 -41c19 -17 60 -32 113 -32c80 0 130 32 130 91
c0 56 -70 80 -130 102c-111 39 -207 72 -207 183c0 99 85 169 213 169c118 0 207 -59 207 -133c0 -39 -26 -64 -58 -64c-43 0 -66 29 -66 59c0 15 5 27 11 35c-16 13 -55 25 -99 25c-69 0 -115 -32 -115 -83c0 -56 69 -78 130 -101c105 -37 205 -73 205 -184
c0 -112 -89 -173 -211 -177v-42c72 -5 113 -41 113 -89c0 -46 -42 -87 -119 -87z" />
    <glyph glyph-name="Scommaaccent" unicode="&#x218;" horiz-adv-x="614" 
d="M305 -13c-141 0 -245 80 -245 156c0 44 27 74 63 74c39 0 64 -29 64 -59c0 -19 -7 -34 -16 -47c25 -23 75 -41 136 -41c91 0 148 45 148 119c0 70 -67 102 -146 132c-128 48 -222 92 -222 220c0 112 90 196 228 196c124 0 223 -68 223 -147c0 -44 -28 -69 -62 -69
c-40 0 -65 30 -65 62c0 17 7 29 14 39c-20 19 -66 33 -111 33c-83 0 -133 -45 -133 -107c0 -72 66 -102 152 -135c122 -46 215 -91 215 -217c0 -131 -103 -209 -243 -209zM237 -317l-20 28c61 47 84 91 86 116c-29 6 -50 29 -50 60c0 32 27 58 60 58c35 0 65 -27 65 -77
c0 -52 -36 -127 -141 -185z" />
    <glyph glyph-name="scommaaccent" unicode="&#x219;" horiz-adv-x="521" 
d="M448 396c0 -34 -21 -57 -51 -57c-33 0 -57 21 -57 53c0 9 1 18 4 26c-18 11 -49 17 -82 17c-66 0 -103 -33 -103 -67c0 -39 41 -54 122 -75c105 -27 186 -55 186 -151c0 -97 -94 -152 -202 -152c-74 0 -149 24 -183 58c-18 18 -27 39 -27 64c0 31 22 57 54 57
s57 -21 57 -54c0 -10 -3 -19 -7 -28c18 -12 57 -25 106 -25c63 0 113 26 113 71c0 40 -40 57 -112 76c-125 31 -195 61 -195 151c0 76 68 147 192 147c65 0 128 -21 159 -53c18 -17 26 -36 26 -58zM180 -332l-21 29c65 49 89 95 90 122c-30 6 -52 30 -52 62
c0 33 29 60 63 60c37 0 68 -28 68 -80c0 -54 -38 -133 -148 -193z" />
    <glyph glyph-name="scommaaccent.sc" horiz-adv-x="564" 
d="M372 472c0 15 5 27 11 35c-16 13 -55 25 -99 25c-69 0 -115 -32 -115 -83c0 -56 69 -78 130 -101c105 -37 205 -73 205 -184c0 -116 -95 -177 -224 -177c-127 0 -224 67 -224 140c0 42 23 69 61 69s65 -27 65 -58c0 -16 -5 -30 -12 -41c19 -17 60 -32 113 -32
c80 0 130 32 130 91c0 56 -70 80 -130 102c-111 39 -207 72 -207 183c0 99 85 169 213 169c118 0 207 -59 207 -133c0 -39 -26 -64 -58 -64c-43 0 -66 29 -66 59zM209 -340l-21 29c65 49 89 95 90 122c-30 6 -52 30 -52 62c0 33 29 60 63 60c37 0 68 -28 68 -80
c0 -54 -38 -133 -148 -193z" />
    <glyph glyph-name="Tcaron" unicode="&#x164;" horiz-adv-x="697" 
d="M485 1002l39 -46l-177 -171l-176 171l39 46l137 -103zM206 0v84h96v559h-168v-116h-90v197h610v-197h-90v116h-168v-559h96v-84h-286z" />
    <glyph glyph-name="tcaron" unicode="&#x165;" horiz-adv-x="405" 
d="M279 554l-31 23c32 45 44 85 44 122c0 36 -13 51 -13 85c0 32 19 59 57 59c36 0 56 -25 56 -63c0 -79 -53 -163 -113 -226zM244 -9c-54 0 -95 19 -116 61c-10 18 -14 43 -14 71v295h-94v79h94v117l91 37v-154h152v-79h-152v-280c0 -17 2 -28 7 -39c9 -17 28 -25 57 -25
c30 0 66 14 94 29l-9 -84c-29 -14 -64 -28 -110 -28z" />
    <glyph glyph-name="tcaron.sc" horiz-adv-x="632" 
d="M459 892l41 -47l-185 -179l-186 179l41 47l145 -108zM170 0v78h100v440h-140v-114h-86v191h544v-191h-86v114h-140v-440h100v-78h-292z" />
    <glyph glyph-name="Tcommaaccent" unicode="&#x162;" horiz-adv-x="697" 
d="M206 0v84h96v559h-168v-116h-90v197h610v-197h-90v116h-168v-559h96v-84h-286zM271 -317l-20 28c61 47 84 91 86 116c-29 6 -50 29 -50 60c0 32 27 58 60 58c35 0 65 -27 65 -77c0 -52 -36 -127 -141 -185z" />
    <glyph glyph-name="tcommaaccent" unicode="&#x163;" horiz-adv-x="405" 
d="M244 -9c-54 0 -95 19 -116 61c-10 18 -14 43 -14 71v295h-94v79h94v117l91 37v-154h152v-79h-152v-280c0 -17 2 -28 7 -39c9 -17 28 -25 57 -25c30 0 66 14 94 29l-9 -84c-29 -14 -64 -28 -110 -28zM140 -332l-21 29c65 49 89 95 90 122c-30 6 -52 30 -52 62
c0 33 29 60 63 60c37 0 68 -28 68 -80c0 -54 -38 -133 -148 -193z" />
    <glyph glyph-name="tcommaaccent.sc" horiz-adv-x="632" 
d="M170 0v78h100v440h-140v-114h-86v191h544v-191h-86v114h-140v-440h100v-78h-292zM235 -340l-21 29c65 49 89 95 90 122c-30 6 -52 30 -52 62c0 33 29 60 63 60c37 0 68 -28 68 -80c0 -54 -38 -133 -148 -193z" />
    <glyph glyph-name="Thorn" unicode="&#xde;" horiz-adv-x="655" 
d="M356 243c88 0 152 42 152 124c0 85 -69 122 -152 122c-57 0 -103 -1 -120 -2v-242c20 -1 64 -2 120 -2zM53 0v84h89v556h-89v84h276v-81h-93v-77c17 1 63 2 115 2c144 0 253 -69 253 -198c0 -136 -106 -206 -255 -206c-47 0 -93 0 -113 1v-84h95v-81h-278z" />
    <glyph glyph-name="thorn" unicode="&#xfe;" horiz-adv-x="620" 
d="M314 71c89 0 156 72 157 179c0 107 -66 176 -154 176c-60 0 -105 -28 -144 -67v-236c37 -29 81 -52 141 -52zM4 -227v77h78v920h-80v79h171v-415c39 40 87 72 159 72c131 0 233 -103 233 -254c0 -142 -98 -261 -243 -261c-57 0 -108 21 -149 53v-194h92v-77h-261z" />
    <glyph glyph-name="thorn.sc" horiz-adv-x="587" 
d="M244 211c26 -1 52 -1 91 -1c68 0 120 33 120 89c0 58 -52 91 -120 91c-34 0 -62 0 -91 -1v-178zM244 464c32 1 56 1 88 1c122 0 213 -55 213 -164c0 -111 -92 -166 -216 -166c-26 0 -53 0 -85 1v-59h100v-77h-289v78h97v438h-97v79h289v-78h-100v-53z" />
    <glyph glyph-name="Uacute" unicode="&#xda;" horiz-adv-x="783" 
d="M366 789l-26 29l129 146c16 17 33 28 51 28c25 0 47 -20 47 -50c0 -17 -13 -37 -36 -52zM391 -13c-164 0 -265 93 -265 267v386h-87v84h273v-84h-93v-380c0 -124 64 -187 173 -187s173 59 173 183v384h-92v84h272v-84h-88v-383c0 -177 -104 -270 -266 -270z" />
    <glyph glyph-name="uacute" unicode="&#xfa;" horiz-adv-x="653" 
d="M287 580l-27 30l137 153c16 18 35 29 54 29c26 0 49 -20 49 -51c0 -18 -14 -39 -39 -55zM265 -9c-64 0 -108 25 -132 66c-16 27 -24 61 -24 101v260h-78v79h170v-319c0 -27 5 -47 13 -64c14 -26 39 -39 76 -39c58 0 110 36 155 80v263h-80v79h171v-419h79v-78h-167v89
c-47 -53 -111 -98 -183 -98z" />
    <glyph glyph-name="uacute.sc" horiz-adv-x="723" 
d="M334 669l-27 30l137 153c16 18 35 29 54 29c26 0 49 -20 49 -51c0 -18 -14 -39 -39 -55zM219 516v-295c0 -98 55 -155 143 -155s143 54 143 153v297h-95v79h278v-79h-92v-292c0 -156 -92 -237 -235 -237c-145 0 -234 79 -234 234v295h-92v79h280v-79h-96z" />
    <glyph glyph-name="Ubreve" unicode="&#x16c;" horiz-adv-x="783" 
d="M390 797c-82 0 -152 57 -183 161l61 26c26 -68 73 -102 122 -102c52 0 97 38 123 102l60 -26c-30 -104 -101 -161 -183 -161zM391 -13c-164 0 -265 93 -265 267v386h-87v84h273v-84h-93v-380c0 -124 64 -187 173 -187s173 59 173 183v384h-92v84h272v-84h-88v-383
c0 -177 -104 -270 -266 -270z" />
    <glyph glyph-name="ubreve" unicode="&#x16d;" horiz-adv-x="653" 
d="M315 588c-87 0 -160 61 -192 169l62 26c28 -70 78 -106 130 -106c54 0 102 40 129 106l62 -26c-31 -108 -105 -169 -191 -169zM265 -9c-64 0 -108 25 -132 66c-16 27 -24 61 -24 101v260h-78v79h170v-319c0 -27 5 -47 13 -64c14 -26 39 -39 76 -39c58 0 110 36 155 80
v263h-80v79h171v-419h79v-78h-167v89c-47 -53 -111 -98 -183 -98z" />
    <glyph glyph-name="ubreve.sc" horiz-adv-x="723" 
d="M361 677c-87 0 -160 61 -192 169l62 26c28 -70 78 -106 130 -106c54 0 102 40 129 106l62 -26c-31 -108 -105 -169 -191 -169zM219 516v-295c0 -98 55 -155 143 -155s143 54 143 153v297h-95v79h278v-79h-92v-292c0 -156 -92 -237 -235 -237c-145 0 -234 79 -234 234v295
h-92v79h280v-79h-96z" />
    <glyph glyph-name="Ucircumflex" unicode="&#xdb;" horiz-adv-x="783" 
d="M254 787l-39 46l176 171l177 -171l-39 -46l-138 103zM391 -13c-164 0 -265 93 -265 267v386h-87v84h273v-84h-93v-380c0 -124 64 -187 173 -187s173 59 173 183v384h-92v84h272v-84h-88v-383c0 -177 -104 -270 -266 -270z" />
    <glyph glyph-name="ucircumflex" unicode="&#xfb;" horiz-adv-x="653" 
d="M171 578l-41 48l186 179l185 -179l-41 -48l-144 109zM265 -9c-64 0 -108 25 -132 66c-16 27 -24 61 -24 101v260h-78v79h170v-319c0 -27 5 -47 13 -64c14 -26 39 -39 76 -39c58 0 110 36 155 80v263h-80v79h171v-419h79v-78h-167v89c-47 -53 -111 -98 -183 -98z" />
    <glyph glyph-name="ucircumflex.sc" horiz-adv-x="723" 
d="M217 667l-41 48l186 179l185 -179l-41 -48l-144 109zM219 516v-295c0 -98 55 -155 143 -155s143 54 143 153v297h-95v79h278v-79h-92v-292c0 -156 -92 -237 -235 -237c-145 0 -234 79 -234 234v295h-92v79h280v-79h-96z" />
    <glyph glyph-name="Udieresis" unicode="&#xdc;" horiz-adv-x="783" 
d="M290 805c-37 0 -66 31 -66 68c0 38 31 68 68 68s66 -30 66 -68c0 -37 -31 -68 -68 -68zM492 805c-37 0 -67 31 -67 68c0 38 31 68 68 68s67 -30 67 -68c0 -37 -31 -68 -68 -68zM391 -13c-164 0 -265 93 -265 267v386h-87v84h273v-84h-93v-380c0 -124 64 -187 173 -187
s173 59 173 183v384h-92v84h272v-84h-88v-383c0 -177 -104 -270 -266 -270z" />
    <glyph glyph-name="udieresis" unicode="&#xfc;" horiz-adv-x="653" 
d="M209 598c-39 0 -70 32 -70 71s32 71 71 71s70 -32 70 -71s-32 -71 -71 -71zM420 598c-38 0 -69 32 -69 71s32 71 70 71c39 0 70 -32 70 -71s-32 -71 -71 -71zM265 -9c-64 0 -108 25 -132 66c-16 27 -24 61 -24 101v260h-78v79h170v-319c0 -27 5 -47 13 -64
c14 -26 39 -39 76 -39c58 0 110 36 155 80v263h-80v79h171v-419h79v-78h-167v89c-47 -53 -111 -98 -183 -98z" />
    <glyph glyph-name="udieresis.sc" horiz-adv-x="723" 
d="M256 687c-39 0 -70 32 -70 71s32 71 71 71s70 -32 70 -71s-32 -71 -71 -71zM467 687c-38 0 -69 32 -69 71s32 71 70 71c39 0 70 -32 70 -71s-32 -71 -71 -71zM219 516v-295c0 -98 55 -155 143 -155s143 54 143 153v297h-95v79h278v-79h-92v-292
c0 -156 -92 -237 -235 -237c-145 0 -234 79 -234 234v295h-92v79h280v-79h-96z" />
    <glyph glyph-name="Ugrave" unicode="&#xd9;" horiz-adv-x="783" 
d="M418 789l-165 101c-23 15 -37 35 -37 52c0 30 22 50 47 50c19 0 36 -11 52 -28l129 -146zM391 -13c-164 0 -265 93 -265 267v386h-87v84h273v-84h-93v-380c0 -124 64 -187 173 -187s173 59 173 183v384h-92v84h272v-84h-88v-383c0 -177 -104 -270 -266 -270z" />
    <glyph glyph-name="ugrave" unicode="&#xf9;" horiz-adv-x="653" 
d="M344 580l-174 106c-25 16 -39 37 -39 55c0 31 23 51 49 51c19 0 38 -11 54 -29l136 -153zM265 -9c-64 0 -108 25 -132 66c-16 27 -24 61 -24 101v260h-78v79h170v-319c0 -27 5 -47 13 -64c14 -26 39 -39 76 -39c58 0 110 36 155 80v263h-80v79h171v-419h79v-78h-167v89
c-47 -53 -111 -98 -183 -98z" />
    <glyph glyph-name="ugrave.sc" horiz-adv-x="723" 
d="M390 669l-174 106c-25 16 -39 37 -39 55c0 31 23 51 49 51c19 0 38 -11 54 -29l136 -153zM219 516v-295c0 -98 55 -155 143 -155s143 54 143 153v297h-95v79h278v-79h-92v-292c0 -156 -92 -237 -235 -237c-145 0 -234 79 -234 234v295h-92v79h280v-79h-96z" />
    <glyph glyph-name="Uhungarumlaut" unicode="&#x170;" horiz-adv-x="783" 
d="M247 791l-20 30l150 142c17 17 34 27 50 27c27 0 48 -20 48 -48c0 -19 -14 -41 -44 -56zM466 794l-18 31l164 138c18 16 35 23 50 23c27 0 46 -22 46 -48c0 -21 -15 -41 -46 -55zM391 -13c-164 0 -265 93 -265 267v386h-87v84h273v-84h-93v-380c0 -124 64 -187 173 -187
s173 59 173 183v384h-92v84h272v-84h-88v-383c0 -177 -104 -270 -266 -270z" />
    <glyph glyph-name="uhungarumlaut" unicode="&#x171;" horiz-adv-x="653" 
d="M164 583l-21 31l157 149c19 17 36 27 53 27c28 0 50 -20 50 -50c0 -19 -15 -42 -46 -58zM393 586l-18 32l172 145c19 16 36 23 52 23c28 0 47 -22 47 -50c0 -21 -15 -43 -48 -57zM265 -9c-64 0 -108 25 -132 66c-16 27 -24 61 -24 101v260h-78v79h170v-319
c0 -27 5 -47 13 -64c14 -26 39 -39 76 -39c58 0 110 36 155 80v263h-80v79h171v-419h79v-78h-167v89c-47 -53 -111 -98 -183 -98z" />
    <glyph glyph-name="uhungarumlaut.sc" horiz-adv-x="723" 
d="M211 672l-21 31l157 149c19 17 36 27 53 27c28 0 50 -20 50 -50c0 -19 -15 -42 -46 -58zM440 675l-18 32l172 145c19 16 36 23 52 23c28 0 47 -22 47 -50c0 -21 -15 -43 -48 -57zM219 516v-295c0 -98 55 -155 143 -155s143 54 143 153v297h-95v79h278v-79h-92v-292
c0 -156 -92 -237 -235 -237c-145 0 -234 79 -234 234v295h-92v79h280v-79h-96z" />
    <glyph glyph-name="Umacron" unicode="&#x16a;" horiz-adv-x="783" 
d="M220 824v78h344v-78h-344zM391 -13c-164 0 -265 93 -265 267v386h-87v84h273v-84h-93v-380c0 -124 64 -187 173 -187s173 59 173 183v384h-92v84h272v-84h-88v-383c0 -177 -104 -270 -266 -270z" />
    <glyph glyph-name="umacron" unicode="&#x16b;" horiz-adv-x="653" 
d="M135 617v81h361v-81h-361zM265 -9c-64 0 -108 25 -132 66c-16 27 -24 61 -24 101v260h-78v79h170v-319c0 -27 5 -47 13 -64c14 -26 39 -39 76 -39c58 0 110 36 155 80v263h-80v79h171v-419h79v-78h-167v89c-47 -53 -111 -98 -183 -98z" />
    <glyph glyph-name="umacron.sc" horiz-adv-x="723" 
d="M182 706v81h361v-81h-361zM219 516v-295c0 -98 55 -155 143 -155s143 54 143 153v297h-95v79h278v-79h-92v-292c0 -156 -92 -237 -235 -237c-145 0 -234 79 -234 234v295h-92v79h280v-79h-96z" />
    <glyph glyph-name="Uogonek" unicode="&#x172;" horiz-adv-x="783" 
d="M422 -221c-78 0 -118 43 -118 106c0 42 21 76 52 104c-144 12 -230 103 -230 265v386h-87v84h273v-84h-93v-380c0 -124 64 -187 173 -187s173 59 173 183v384h-92v84h272v-84h-88v-383c0 -160 -85 -251 -221 -267c-33 -23 -54 -52 -54 -85c0 -34 19 -55 59 -55
c32 0 60 8 83 21l-4 -67c-18 -12 -56 -25 -98 -25z" />
    <glyph glyph-name="uogonek" unicode="&#x173;" horiz-adv-x="653" 
d="M265 -9c-64 0 -108 25 -132 66c-16 27 -24 61 -24 101v260h-78v79h170v-319c0 -27 5 -47 13 -64c14 -26 39 -39 76 -39c58 0 110 36 155 80v263h-80v79h171v-419h79v-78h-82c-46 -25 -77 -60 -77 -101c0 -37 20 -58 63 -58c33 0 63 9 88 21l-5 -69
c-18 -12 -58 -26 -102 -26c-83 0 -125 45 -125 111c0 52 30 93 73 124v87c-47 -53 -111 -98 -183 -98z" />
    <glyph glyph-name="uogonek.sc" horiz-adv-x="723" 
d="M219 516v-295c0 -98 55 -155 143 -155s143 54 143 153v297h-95v79h278v-79h-92v-292c0 -145 -80 -225 -206 -235c-35 -24 -58 -55 -58 -90c0 -37 21 -58 64 -58c33 0 63 9 88 21l-5 -69c-18 -12 -58 -26 -102 -26c-83 0 -125 45 -125 111c0 46 23 83 57 113
c-114 16 -182 94 -182 230v295h-92v79h280v-79h-96z" />
    <glyph glyph-name="Uring" unicode="&#x16e;" horiz-adv-x="783" 
d="M391 780c-72 0 -128 56 -128 128s56 128 128 128s129 -56 129 -128s-57 -128 -129 -128zM391 842c35 0 60 30 60 66s-25 66 -60 66s-60 -30 -60 -66s25 -66 60 -66zM391 -13c-164 0 -265 93 -265 267v386h-87v84h273v-84h-93v-380c0 -124 64 -187 173 -187
s173 59 173 183v384h-92v84h272v-84h-88v-383c0 -177 -104 -270 -266 -270z" />
    <glyph glyph-name="uring" unicode="&#x16f;" horiz-adv-x="653" 
d="M316 571c-75 0 -135 59 -135 134s60 134 135 134c74 0 134 -59 134 -134s-60 -134 -134 -134zM316 635c37 0 63 32 63 70s-26 70 -63 70c-38 0 -64 -32 -64 -70s26 -70 64 -70zM265 -9c-64 0 -108 25 -132 66c-16 27 -24 61 -24 101v260h-78v79h170v-319
c0 -27 5 -47 13 -64c14 -26 39 -39 76 -39c58 0 110 36 155 80v263h-80v79h171v-419h79v-78h-167v89c-47 -53 -111 -98 -183 -98z" />
    <glyph glyph-name="uring.sc" horiz-adv-x="723" 
d="M362 660c-75 0 -135 59 -135 134s60 134 135 134c74 0 134 -59 134 -134s-60 -134 -134 -134zM362 724c37 0 63 32 63 70s-26 70 -63 70c-38 0 -64 -32 -64 -70s26 -70 64 -70zM219 516v-295c0 -98 55 -155 143 -155s143 54 143 153v297h-95v79h278v-79h-92v-292
c0 -156 -92 -237 -235 -237c-145 0 -234 79 -234 234v295h-92v79h280v-79h-96z" />
    <glyph glyph-name="Wacute" unicode="&#x1e82;" horiz-adv-x="1107" 
d="M529 789l-26 29l129 146c16 17 33 28 51 28c25 0 47 -20 47 -50c0 -17 -13 -37 -36 -52zM313 -10l-203 650h-82v84h275v-84h-93l142 -470l181 472h51l182 -472l137 470h-96v84h274v-84h-82l-200 -650h-53l-189 483l-190 -483h-54z" />
    <glyph glyph-name="wacute" unicode="&#x1e83;" horiz-adv-x="824" 
d="M384 580l-27 30l137 153c16 18 35 29 54 29c26 0 49 -20 49 -51c0 -18 -14 -39 -39 -55zM218 -20l-133 438h-73v79h236v-76h-77l85 -297l133 319h53l133 -319l84 297h-83v76h236v-79h-74l-132 -438h-55l-139 330l-139 -330h-55z" />
    <glyph glyph-name="wacute.sc" horiz-adv-x="927" 
d="M436 669l-27 30l137 153c16 18 35 29 54 29c26 0 49 -20 49 -51c0 -18 -14 -39 -39 -55zM259 -11l-161 527h-81v79h270v-79h-91l108 -369l141 371h44l142 -371l108 369h-93v79h264v-79h-80l-162 -527h-62l-143 373l-141 -373h-63z" />
    <glyph glyph-name="Wcircumflex" unicode="&#x174;" horiz-adv-x="1107" 
d="M417 787l-39 46l176 171l177 -171l-39 -46l-138 103zM313 -10l-203 650h-82v84h275v-84h-93l142 -470l181 472h51l182 -472l137 470h-96v84h274v-84h-82l-200 -650h-53l-189 483l-190 -483h-54z" />
    <glyph glyph-name="wcircumflex" unicode="&#x175;" horiz-adv-x="824" 
d="M267 578l-41 48l186 179l185 -179l-41 -48l-144 109zM218 -20l-133 438h-73v79h236v-76h-77l85 -297l133 319h53l133 -319l84 297h-83v76h236v-79h-74l-132 -438h-55l-139 330l-139 -330h-55z" />
    <glyph glyph-name="wcircumflex.sc" horiz-adv-x="927" 
d="M319 667l-41 48l186 179l185 -179l-41 -48l-144 109zM259 -11l-161 527h-81v79h270v-79h-91l108 -369l141 371h44l142 -371l108 369h-93v79h264v-79h-80l-162 -527h-62l-143 373l-141 -373h-63z" />
    <glyph glyph-name="Wdieresis" unicode="&#x1e84;" horiz-adv-x="1107" 
d="M452 805c-37 0 -66 31 -66 68c0 38 31 68 68 68s66 -30 66 -68c0 -37 -31 -68 -68 -68zM654 805c-37 0 -67 31 -67 68c0 38 31 68 68 68s67 -30 67 -68c0 -37 -31 -68 -68 -68zM313 -10l-203 650h-82v84h275v-84h-93l142 -470l181 472h51l182 -472l137 470h-96v84h274
v-84h-82l-200 -650h-53l-189 483l-190 -483h-54z" />
    <glyph glyph-name="wdieresis" unicode="&#x1e85;" horiz-adv-x="824" 
d="M306 598c-39 0 -70 32 -70 71s32 71 71 71s70 -32 70 -71s-32 -71 -71 -71zM517 598c-38 0 -69 32 -69 71s32 71 70 71c39 0 70 -32 70 -71s-32 -71 -71 -71zM218 -20l-133 438h-73v79h236v-76h-77l85 -297l133 319h53l133 -319l84 297h-83v76h236v-79h-74l-132 -438h-55
l-139 330l-139 -330h-55z" />
    <glyph glyph-name="wdieresis.sc" horiz-adv-x="927" 
d="M358 687c-39 0 -70 32 -70 71s32 71 71 71s70 -32 70 -71s-32 -71 -71 -71zM569 687c-38 0 -69 32 -69 71s32 71 70 71c39 0 70 -32 70 -71s-32 -71 -71 -71zM259 -11l-161 527h-81v79h270v-79h-91l108 -369l141 371h44l142 -371l108 369h-93v79h264v-79h-80l-162 -527
h-62l-143 373l-141 -373h-63z" />
    <glyph glyph-name="Wgrave" unicode="&#x1e80;" horiz-adv-x="1107" 
d="M580 789l-165 101c-23 15 -37 35 -37 52c0 30 22 50 47 50c19 0 36 -11 52 -28l129 -146zM313 -10l-203 650h-82v84h275v-84h-93l142 -470l181 472h51l182 -472l137 470h-96v84h274v-84h-82l-200 -650h-53l-189 483l-190 -483h-54z" />
    <glyph glyph-name="wgrave" unicode="&#x1e81;" horiz-adv-x="824" 
d="M440 580l-174 106c-25 16 -39 37 -39 55c0 31 23 51 49 51c19 0 38 -11 54 -29l136 -153zM218 -20l-133 438h-73v79h236v-76h-77l85 -297l133 319h53l133 -319l84 297h-83v76h236v-79h-74l-132 -438h-55l-139 330l-139 -330h-55z" />
    <glyph glyph-name="wgrave.sc" horiz-adv-x="927" 
d="M492 669l-174 106c-25 16 -39 37 -39 55c0 31 23 51 49 51c19 0 38 -11 54 -29l136 -153zM259 -11l-161 527h-81v79h270v-79h-91l108 -369l141 371h44l142 -371l108 369h-93v79h264v-79h-80l-162 -527h-62l-143 373l-141 -373h-63z" />
    <glyph glyph-name="Yacute" unicode="&#xdd;" horiz-adv-x="715" 
d="M331 789l-26 29l129 146c16 17 33 28 51 28c25 0 47 -20 47 -50c0 -17 -13 -37 -36 -52zM211 0v84h99v202l-212 354h-75v84h252v-84h-71l155 -274l157 274h-76v84h253v-84h-77l-211 -354v-202h99v-84h-293z" />
    <glyph glyph-name="yacute" unicode="&#xfd;" horiz-adv-x="608" 
d="M276 580l-27 30l137 153c16 18 35 29 54 29c26 0 49 -20 49 -51c0 -18 -14 -39 -39 -55zM257 -153c-37 -50 -80 -78 -129 -78c-53 0 -92 29 -92 68c0 35 24 55 52 55c30 0 48 -21 54 -43c17 6 35 20 54 50c11 16 22 37 34 62l32 66l-185 391h-66v79h238v-76h-77
s135 -305 134 -305l136 305h-80v76h235v-79h-65l-235 -502c-13 -26 -26 -49 -40 -69z" />
    <glyph glyph-name="yacute.sc" horiz-adv-x="626" 
d="M286 669l-27 30l137 153c16 18 35 29 54 29c26 0 49 -20 49 -51c0 -18 -14 -39 -39 -55zM615 595v-79h-74l-182 -294v-144h99v-78h-291v78h100v144l-183 294h-73v79h257v-78h-85l132 -222l133 222h-88v78h255z" />
    <glyph glyph-name="Ycircumflex" unicode="&#x176;" horiz-adv-x="715" 
d="M220 787l-39 46l176 171l177 -171l-39 -46l-138 103zM211 0v84h99v202l-212 354h-75v84h252v-84h-71l155 -274l157 274h-76v84h253v-84h-77l-211 -354v-202h99v-84h-293z" />
    <glyph glyph-name="ycircumflex" unicode="&#x177;" horiz-adv-x="608" 
d="M159 578l-41 48l186 179l185 -179l-41 -48l-144 109zM257 -153c-37 -50 -80 -78 -129 -78c-53 0 -92 29 -92 68c0 35 24 55 52 55c30 0 48 -21 54 -43c17 6 35 20 54 50c11 16 22 37 34 62l32 66l-185 391h-66v79h238v-76h-77s135 -305 134 -305l136 305h-80v76h235v-79
h-65l-235 -502c-13 -26 -26 -49 -40 -69z" />
    <glyph glyph-name="ycircumflex.sc" horiz-adv-x="626" 
d="M169 667l-41 48l186 179l185 -179l-41 -48l-144 109zM615 595v-79h-74l-182 -294v-144h99v-78h-291v78h100v144l-183 294h-73v79h257v-78h-85l132 -222l133 222h-88v78h255z" />
    <glyph glyph-name="Ydieresis" unicode="&#x178;" horiz-adv-x="715" 
d="M255 805c-37 0 -66 31 -66 68c0 38 31 68 68 68s66 -30 66 -68c0 -37 -31 -68 -68 -68zM457 805c-37 0 -67 31 -67 68c0 38 31 68 68 68s67 -30 67 -68c0 -37 -31 -68 -68 -68zM211 0v84h99v202l-212 354h-75v84h252v-84h-71l155 -274l157 274h-76v84h253v-84h-77
l-211 -354v-202h99v-84h-293z" />
    <glyph glyph-name="ydieresis" unicode="&#xff;" horiz-adv-x="608" 
d="M198 598c-39 0 -70 32 -70 71s32 71 71 71s70 -32 70 -71s-32 -71 -71 -71zM409 598c-38 0 -69 32 -69 71s32 71 70 71c39 0 70 -32 70 -71s-32 -71 -71 -71zM257 -153c-37 -50 -80 -78 -129 -78c-53 0 -92 29 -92 68c0 35 24 55 52 55c30 0 48 -21 54 -43
c17 6 35 20 54 50c11 16 22 37 34 62l32 66l-185 391h-66v79h238v-76h-77s135 -305 134 -305l136 305h-80v76h235v-79h-65l-235 -502c-13 -26 -26 -49 -40 -69z" />
    <glyph glyph-name="ydieresis.sc" horiz-adv-x="626" 
d="M207 687c-39 0 -70 32 -70 71s32 71 71 71s70 -32 70 -71s-32 -71 -71 -71zM418 687c-38 0 -69 32 -69 71s32 71 70 71c39 0 70 -32 70 -71s-32 -71 -71 -71zM615 595v-79h-74l-182 -294v-144h99v-78h-291v78h100v144l-183 294h-73v79h257v-78h-85l132 -222l133 222h-88
v78h255z" />
    <glyph glyph-name="Ygrave" unicode="&#x1ef2;" horiz-adv-x="715" 
d="M383 789l-165 101c-23 15 -37 35 -37 52c0 30 22 50 47 50c19 0 36 -11 52 -28l129 -146zM211 0v84h99v202l-212 354h-75v84h252v-84h-71l155 -274l157 274h-76v84h253v-84h-77l-211 -354v-202h99v-84h-293z" />
    <glyph glyph-name="ygrave" unicode="&#x1ef3;" horiz-adv-x="608" 
d="M332 580l-174 106c-25 16 -39 37 -39 55c0 31 23 51 49 51c19 0 38 -11 54 -29l136 -153zM257 -153c-37 -50 -80 -78 -129 -78c-53 0 -92 29 -92 68c0 35 24 55 52 55c30 0 48 -21 54 -43c17 6 35 20 54 50c11 16 22 37 34 62l32 66l-185 391h-66v79h238v-76h-77
s135 -305 134 -305l136 305h-80v76h235v-79h-65l-235 -502c-13 -26 -26 -49 -40 -69z" />
    <glyph glyph-name="ygrave.sc" horiz-adv-x="626" 
d="M342 669l-174 106c-25 16 -39 37 -39 55c0 31 23 51 49 51c19 0 38 -11 54 -29l136 -153zM615 595v-79h-74l-182 -294v-144h99v-78h-291v78h100v144l-183 294h-73v79h257v-78h-85l132 -222l133 222h-88v78h255z" />
    <glyph glyph-name="Zacute" unicode="&#x179;" horiz-adv-x="680" 
d="M314 789l-26 29l129 146c16 17 33 28 51 28c25 0 47 -20 47 -50c0 -17 -13 -37 -36 -52zM53 0v49l433 596h-326v-117h-84v196h544v-49l-433 -596h358v116h82v-195h-574z" />
    <glyph glyph-name="zacute" unicode="&#x17a;" horiz-adv-x="534" 
d="M239 580l-27 30l137 153c16 18 35 29 54 29c26 0 49 -20 49 -51c0 -18 -14 -39 -39 -55zM44 0v45l314 378h-214v-96h-80v170h421v-45l-314 -377h239v96h80v-171h-446z" />
    <glyph glyph-name="zacute.sc" horiz-adv-x="594" 
d="M270 669l-27 30l137 153c16 18 35 29 54 29c26 0 49 -20 49 -51c0 -18 -14 -39 -39 -55zM54 0v52l358 466h-261v-110h-81v187h471v-52l-357 -466h276v109h82v-186h-488z" />
    <glyph glyph-name="Zcaron" unicode="&#x17d;" horiz-adv-x="680" 
d="M477 1002l39 -46l-177 -171l-176 171l39 46l137 -103zM53 0v49l433 596h-326v-117h-84v196h544v-49l-433 -596h358v116h82v-195h-574z" />
    <glyph glyph-name="zcaron" unicode="&#x17e;" horiz-adv-x="534" 
d="M410 803l41 -47l-185 -179l-186 179l41 47l145 -108zM44 0v45l314 378h-214v-96h-80v170h421v-45l-314 -377h239v96h80v-171h-446z" />
    <glyph glyph-name="zcaron.sc" horiz-adv-x="594" 
d="M442 892l41 -47l-185 -179l-186 179l41 47l145 -108zM54 0v52l358 466h-261v-110h-81v187h471v-52l-357 -466h276v109h82v-186h-488z" />
    <glyph glyph-name="Zdotaccent" unicode="&#x17b;" horiz-adv-x="680" 
d="M339 799c-37 0 -68 30 -68 69c0 38 32 69 69 69c38 0 68 -31 68 -69c0 -39 -31 -69 -69 -69zM53 0v49l433 596h-326v-117h-84v196h544v-49l-433 -596h358v116h82v-195h-574z" />
    <glyph glyph-name="zdotaccent" unicode="&#x17c;" horiz-adv-x="534" 
d="M266 591c-39 0 -71 32 -71 72s33 72 72 72s71 -32 71 -72s-33 -72 -72 -72zM44 0v45l314 378h-214v-96h-80v170h421v-45l-314 -377h239v96h80v-171h-446z" />
    <glyph glyph-name="zdotaccent.sc" horiz-adv-x="594" 
d="M298 680c-39 0 -71 32 -71 72s33 72 72 72s71 -32 71 -72s-33 -72 -72 -72zM54 0v52l358 466h-261v-110h-81v187h471v-52l-357 -466h276v109h82v-186h-488z" />
    <glyph glyph-name="schwa" unicode="&#x259;" horiz-adv-x="575" 
d="M279 -9c-151 0 -231 109 -231 235c0 19 2 37 4 50h377c-13 102 -83 151 -184 151c-65 0 -118 -20 -176 -54l8 86c51 32 115 48 181 48c160 0 267 -105 267 -257c0 -139 -94 -259 -246 -259zM283 67c69 0 133 48 145 140h-288c5 -83 54 -140 143 -140z" />
    <glyph glyph-name="germandbls" unicode="&#xdf;" horiz-adv-x="671" 
d="M449 -9c-103 0 -149 59 -149 104c0 33 24 57 55 57c28 0 55 -21 55 -51c0 -11 -4 -23 -8 -30c7 -4 28 -8 41 -8c58 0 101 33 101 95c0 54 -36 84 -96 118c-72 39 -126 76 -126 155c0 51 24 88 66 130c39 38 56 72 56 116c0 56 -48 102 -111 102c-42 0 -74 -20 -92 -57
c-12 -22 -18 -52 -18 -84v-638h-170v78h79v340h-88v79h88v128c0 57 12 106 35 145c34 56 93 88 173 88c114 0 195 -75 195 -178c0 -70 -31 -115 -76 -158c-38 -36 -52 -59 -52 -88c0 -32 28 -53 83 -85c78 -44 143 -94 143 -188c0 -111 -82 -170 -184 -170z" />
    <glyph glyph-name="zero" unicode="0" horiz-adv-x="659" 
d="M329 -9c-159 0 -273 131 -273 306c0 176 114 307 273 307s274 -132 274 -307s-114 -306 -274 -306zM329 70c106 0 178 95 178 227c0 131 -72 227 -178 227c-105 0 -177 -95 -177 -227s72 -227 177 -227z" />
    <glyph glyph-name="one" unicode="1" horiz-adv-x="491" 
d="M75 0v78h139v420l-122 -31l-21 78l194 51h42v-518h137v-78h-369z" />
    <glyph glyph-name="two" unicode="2" horiz-adv-x="593" 
d="M283 524c-54 0 -97 -18 -118 -43v-1c12 -10 25 -28 24 -45c0 -34 -27 -62 -61 -62c-36 0 -65 30 -65 76c0 21 9 43 23 64c36 50 111 91 201 91c143 0 221 -85 221 -172c0 -98 -82 -152 -178 -211c-76 -45 -134 -87 -169 -145h287v100h79v-176h-469l-13 46
c45 108 138 178 235 238c76 48 134 86 134 146c0 55 -51 94 -131 94z" />
    <glyph glyph-name="three" unicode="3" horiz-adv-x="582" 
d="M40 13c0 41 29 75 66 75c34 0 60 -28 60 -59c0 -19 -9 -38 -27 -49v-1c28 -28 81 -46 140 -45c93 0 158 54 158 130c0 52 -28 94 -82 118c-34 15 -77 24 -129 24h-28v76h32c49 0 95 11 131 31c42 24 69 59 69 103c0 70 -61 108 -143 108c-61 0 -101 -17 -121 -41v-1
c13 -9 27 -26 27 -47c0 -34 -29 -59 -61 -59c-34 0 -65 30 -65 75c0 20 7 42 22 64c33 48 101 89 202 89c137 0 232 -83 232 -186c0 -60 -40 -114 -95 -145c-23 -12 -48 -22 -75 -26c25 -4 49 -13 70 -24c62 -31 107 -86 107 -161c0 -126 -110 -208 -252 -208
c-97 0 -179 38 -216 92c-14 21 -22 44 -22 67z" />
    <glyph glyph-name="four" unicode="4" horiz-adv-x="619" 
d="M377 -139v203h-332l-19 41l377 504l68 -52l-311 -416h217v156l90 36v-192h125v-77h-125v-203h-90z" />
    <glyph glyph-name="five" unicode="5" horiz-adv-x="579" 
d="M51 -14c0 39 28 72 66 72c33 0 61 -26 61 -60c0 -14 -7 -30 -19 -40v-1c23 -16 62 -24 110 -24c99 0 164 68 164 158c0 87 -59 149 -164 149c-56 0 -110 -12 -152 -33l-42 24l44 364h368v-87h-297l-24 -204c31 10 72 16 114 16c141 0 247 -87 247 -229
c0 -139 -110 -238 -253 -238c-86 0 -151 23 -188 58c-23 21 -35 48 -35 75z" />
    <glyph glyph-name="six" unicode="6" horiz-adv-x="634" 
d="M352 665c-95 0 -194 -105 -200 -304c32 53 103 96 184 96c142 0 245 -101 245 -225c0 -135 -107 -241 -256 -241c-74 0 -135 24 -182 71c-55 56 -81 143 -81 254c0 299 149 429 299 429c61 0 122 -21 156 -56c19 -19 31 -43 31 -69c0 -44 -32 -72 -65 -72
c-39 0 -64 28 -64 62c0 15 5 25 12 34c-18 13 -45 21 -79 21zM325 70c97 0 162 70 162 162c0 81 -61 146 -156 146c-99 0 -170 -73 -170 -157c0 -40 17 -78 46 -106s69 -45 118 -45z" />
    <glyph glyph-name="seven" unicode="7" horiz-adv-x="570" 
d="M197 -142l-80 39l299 621h-292v-120h-84v197h469l20 -45z" />
    <glyph glyph-name="eight" unicode="8" horiz-adv-x="603" 
d="M301 -9c-148 0 -248 91 -248 207c0 82 57 150 136 179c-74 33 -120 102 -120 165c0 118 101 203 232 203c132 0 232 -85 232 -203c0 -67 -48 -132 -120 -165c78 -29 137 -97 137 -179c0 -116 -101 -207 -249 -207zM301 412c76 0 138 55 138 125c0 75 -58 128 -138 128
s-138 -53 -138 -128c0 -70 62 -125 138 -125zM301 70c90 0 152 59 152 134c0 77 -63 136 -152 136c-88 0 -152 -59 -152 -136c0 -75 63 -134 152 -134z" />
    <glyph glyph-name="nine" unicode="9" horiz-adv-x="634" 
d="M427 480c-29 27 -69 45 -118 45c-97 0 -162 -71 -162 -163c0 -82 61 -144 156 -144c99 0 170 71 170 155c0 40 -17 78 -46 107zM268 -146c-63 0 -124 21 -159 58c-17 19 -28 42 -28 67c0 44 32 72 65 72c39 0 64 -28 64 -62c0 -15 -5 -25 -13 -34c19 -13 45 -21 80 -21
c102 0 198 102 204 298c-31 -52 -104 -93 -183 -93c-142 0 -245 99 -245 223c0 135 107 242 256 242c73 0 134 -24 179 -69c57 -56 84 -145 84 -258c0 -300 -154 -423 -304 -423z" />
    <glyph glyph-name="zero.lin" horiz-adv-x="716" 
d="M356 -13c-161 0 -291 151 -291 374c0 226 131 376 295 376c160 0 291 -151 291 -374c0 -226 -131 -376 -295 -376zM357 74c120 0 197 118 197 287c0 170 -77 289 -197 289c-118 0 -195 -118 -195 -287c0 -170 77 -289 195 -289z" />
    <glyph glyph-name="one.lin" horiz-adv-x="477" 
d="M62 0v84h142v541l-132 -33l-21 83l201 52h46v-643h138v-84h-374z" />
    <glyph glyph-name="two.lin" horiz-adv-x="631" 
d="M72 561c0 25 8 50 22 73c36 58 114 103 220 103c127 0 236 -82 236 -204c0 -116 -81 -174 -180 -240c-84 -57 -168 -128 -203 -213h314v115h82v-195h-485c-2 0 -26 43 -26 43c52 156 165 245 261 312c82 57 139 100 139 179c0 68 -65 119 -144 119
c-67 0 -120 -25 -139 -55v-1c21 -9 36 -31 36 -56c0 -35 -29 -63 -63 -63c-46 0 -70 34 -70 83z" />
    <glyph glyph-name="three.lin" horiz-adv-x="602" 
d="M287 69c95 0 163 56 163 126c0 53 -28 93 -82 116c-33 14 -75 21 -127 21h-34v84h38c49 0 91 10 124 30c39 23 64 58 64 103c0 70 -63 105 -144 105c-59 0 -101 -16 -121 -35v-1c13 -10 24 -24 24 -45c0 -34 -28 -61 -62 -61s-66 29 -66 75c0 19 8 41 23 62
c33 47 102 88 206 88c132 0 235 -74 235 -186c0 -63 -35 -115 -88 -146c-20 -12 -44 -22 -68 -27c24 -5 48 -13 70 -24c59 -31 103 -86 103 -161c0 -123 -112 -206 -259 -206c-95 0 -181 38 -222 93c-14 20 -23 43 -23 67c0 41 27 75 65 75c35 0 62 -28 62 -62
c0 -19 -9 -36 -23 -46v-1c26 -26 83 -45 142 -44z" />
    <glyph glyph-name="four.lin" horiz-adv-x="626" 
d="M246 0v79h127v132h-333l-20 42l384 492l69 -53l-319 -405h219v142l94 40v-180h119v-79h-119v-130h94v-80h-315z" />
    <glyph glyph-name="five.lin" horiz-adv-x="588" 
d="M277 70c103 0 168 69 168 163c0 79 -59 145 -166 145c-51 0 -111 -15 -149 -34l-42 22l35 358h372v-89h-295l-19 -189c24 8 62 17 110 17c135 0 247 -86 247 -230c0 -151 -115 -246 -258 -246c-85 0 -149 25 -187 60c-24 23 -36 49 -36 75c0 37 25 68 65 68
c38 0 63 -29 63 -62c0 -12 -4 -24 -11 -33v-1c21 -16 58 -24 103 -24z" />
    <glyph glyph-name="six.lin" horiz-adv-x="644" 
d="M555 609c0 -45 -30 -67 -63 -67c-40 0 -63 30 -63 61c0 13 3 24 9 32c-18 11 -45 18 -76 18c-115 0 -202 -122 -207 -296c9 13 21 25 35 36c41 35 99 55 152 55c146 0 249 -97 249 -227c0 -131 -109 -234 -255 -234c-79 0 -142 28 -188 74c-58 57 -84 144 -84 260
c0 284 146 416 300 416c59 0 110 -16 145 -43c28 -23 46 -52 46 -85zM337 69c90 0 159 65 159 149c0 88 -69 148 -164 148c-93 0 -166 -63 -166 -145c0 -41 20 -79 51 -107c31 -27 74 -45 120 -45z" />
    <glyph glyph-name="seven.lin" horiz-adv-x="560" 
d="M121 0l295 644h-292v-124h-86v204h471l20 -44l-307 -680h-101z" />
    <glyph glyph-name="eight.lin" horiz-adv-x="630" 
d="M314 -13c-155 0 -259 88 -259 208c0 86 66 160 146 180c-79 27 -130 91 -130 163c0 122 107 199 243 199c137 0 245 -77 245 -199c0 -72 -53 -136 -131 -163c80 -20 147 -94 147 -180c0 -120 -105 -208 -261 -208zM314 411c80 0 147 53 147 122c0 72 -62 122 -147 122
s-146 -50 -146 -122c0 -69 66 -122 146 -122zM314 70c96 0 163 56 163 131c0 72 -70 134 -163 134c-92 0 -162 -62 -162 -134c0 -75 66 -131 162 -131z" />
    <glyph glyph-name="nine.lin" horiz-adv-x="644" 
d="M313 354c93 0 166 61 166 144c0 43 -19 81 -49 110c-32 29 -75 47 -122 47c-89 0 -158 -65 -158 -152c0 -90 68 -149 163 -149zM283 -13c-56 0 -110 16 -147 44c-30 22 -49 52 -49 84c0 45 29 67 62 67c40 0 63 -31 63 -61c0 -14 -4 -25 -9 -34v-1c17 -10 45 -17 82 -17
c109 0 202 109 205 291c-41 -53 -114 -90 -187 -89c-146 0 -249 95 -249 229c0 135 109 237 255 237c78 0 142 -28 186 -73c59 -58 86 -146 86 -264c0 -284 -137 -413 -298 -413z" />
    <glyph glyph-name="period" unicode="." horiz-adv-x="262" 
d="M131 -9c-43 0 -77 35 -77 78c0 44 34 79 77 79s77 -35 77 -79c0 -43 -34 -78 -77 -78z" />
    <glyph glyph-name="comma" unicode="," horiz-adv-x="262" 
d="M32 -181l-26 35c77 59 107 114 109 146c-35 7 -63 37 -63 75c0 39 35 72 76 72c44 0 81 -33 81 -96c0 -66 -45 -160 -177 -232z" />
    <glyph glyph-name="colon" unicode=":" horiz-adv-x="284" 
d="M142 299c-42 0 -76 34 -76 77c0 42 34 77 76 77c43 0 76 -35 76 -77c0 -43 -33 -77 -76 -77zM142 -9c-42 0 -76 34 -76 77c0 42 34 77 76 77c43 0 76 -35 76 -77c0 -43 -33 -77 -76 -77z" />
    <glyph glyph-name="semicolon" unicode=";" horiz-adv-x="284" 
d="M142 299c-42 0 -76 34 -76 77c0 42 34 77 76 77c43 0 76 -35 76 -77c0 -43 -33 -77 -76 -77zM45 -179l-25 35c76 58 105 112 107 144c-35 7 -62 37 -62 73c0 39 34 71 74 71c44 0 81 -32 81 -94c0 -64 -45 -157 -175 -229z" />
    <glyph glyph-name="ellipsis" unicode="&#x2026;" horiz-adv-x="746" 
d="M128 -9c-42 0 -74 33 -74 75s32 76 74 76s74 -34 74 -76s-32 -75 -74 -75zM373 -9c-42 0 -74 33 -74 75s32 76 74 76s74 -34 74 -76s-32 -75 -74 -75zM618 -9c-42 0 -74 33 -74 75s32 76 74 76s74 -34 74 -76s-32 -75 -74 -75z" />
    <glyph glyph-name="periodcentered" unicode="&#xb7;" horiz-adv-x="310" 
d="M155 218c-43 0 -77 36 -77 79s34 78 77 78s77 -35 77 -78s-34 -79 -77 -79z" />
    <glyph glyph-name="bullet" unicode="&#x2022;" horiz-adv-x="343" 
d="M172 182c-66 0 -117 53 -117 119s51 120 117 120c65 0 116 -54 116 -120s-51 -119 -116 -119z" />
    <glyph glyph-name="bullet.alt" horiz-adv-x="743" 
d="M371 -56c-189 0 -309 141 -309 310c0 168 122 310 309 310c189 0 310 -141 310 -310c0 -167 -122 -310 -310 -310z" />
    <glyph glyph-name="ampersand" unicode="&#x26;" horiz-adv-x="706" 
d="M675 295h-65c-18 -58 -40 -108 -67 -150c41 -37 106 -94 113 -99l-53 -60c-7 6 -71 62 -110 98c-60 -61 -139 -94 -227 -94c-152 0 -230 84 -230 183c0 88 58 151 149 200c-61 71 -73 112 -73 160c0 77 64 166 181 166c99 0 171 -61 171 -150c0 -76 -50 -130 -154 -188
c16 -17 35 -35 57 -55c0 0 78 -72 120 -111c20 31 36 66 48 102h-60v74h200v-76zM203 530c0 -30 8 -63 59 -122c81 48 111 86 111 141c0 43 -32 77 -80 77c-54 0 -90 -45 -90 -96zM266 68c68 0 123 25 168 68c-42 40 -122 114 -122 114c-30 28 -56 53 -78 75
c-69 -41 -105 -86 -105 -148c0 -53 47 -109 137 -109z" />
    <glyph glyph-name="exclam" unicode="!" horiz-adv-x="295" 
d="M123 205l-32 518h114l-33 -518h-49zM148 -9c-38 0 -69 31 -69 69s31 70 69 70s68 -32 68 -70s-30 -69 -68 -69z" />
    <glyph glyph-name="exclamdown" unicode="&#xa1;" horiz-adv-x="295" 
d="M148 592c-38 0 -69 32 -69 70c0 39 31 70 69 70s68 -31 68 -70c0 -38 -30 -70 -68 -70zM91 0l32 517h49l33 -517h-114z" />
    <glyph glyph-name="question" unicode="?" horiz-adv-x="512" 
d="M28 577c0 28 10 55 28 79c36 47 105 81 187 81c142 0 232 -86 232 -198c0 -99 -70 -183 -203 -213l-11 -121h-57l-18 178c133 23 193 83 193 154c0 70 -52 120 -138 120c-53 0 -93 -16 -114 -45l-4 -5c19 -7 31 -27 31 -47c0 -32 -22 -58 -56 -58c-36 0 -70 30 -70 75z
M234 -9c-38 0 -69 31 -69 69s31 70 69 70s68 -32 68 -70s-30 -69 -68 -69z" />
    <glyph glyph-name="questiondown" unicode="&#xbf;" horiz-adv-x="512" 
d="M279 733c38 0 68 -31 68 -69s-30 -71 -68 -71s-69 33 -69 71s31 69 69 69zM485 146c0 -28 -10 -54 -28 -78c-37 -48 -106 -81 -188 -81c-142 0 -231 86 -231 197c0 100 70 184 203 214l11 120h56l19 -177c-133 -23 -194 -83 -194 -154c0 -70 52 -120 139 -120
c52 0 92 16 114 45l3 4c-18 7 -30 27 -30 48c0 32 21 58 56 58s70 -30 70 -76z" />
    <glyph glyph-name="quotedblleft" unicode="&#x201c;" horiz-adv-x="493" 
d="M122 463c-43 0 -80 32 -80 95c0 65 45 165 173 235l25 -35c-75 -56 -104 -118 -105 -150c34 -7 62 -37 62 -73c0 -39 -34 -72 -75 -72zM357 463c-44 0 -81 32 -81 95c0 65 45 165 174 235l24 -35c-75 -56 -103 -118 -105 -150c34 -7 62 -37 62 -73c0 -39 -34 -72 -74 -72
z" />
    <glyph glyph-name="quotedblright" unicode="&#x201d;" horiz-adv-x="493" 
d="M44 453l-25 34c76 56 104 118 105 150c-34 8 -62 37 -62 74c0 39 35 72 75 72c43 0 80 -33 80 -96c0 -64 -45 -165 -173 -234zM278 453l-25 34c76 56 104 118 106 150c-35 8 -63 37 -63 74c0 39 35 72 75 72c43 0 81 -33 81 -96c0 -64 -46 -165 -174 -234z" />
    <glyph glyph-name="quoteleft" unicode="&#x2018;" horiz-adv-x="259" 
d="M122 463c-43 0 -80 32 -80 95c0 65 45 165 173 235l25 -35c-75 -56 -104 -118 -105 -150c34 -7 62 -37 62 -73c0 -39 -34 -72 -75 -72z" />
    <glyph glyph-name="quoteright" unicode="&#x2019;" horiz-adv-x="259" 
d="M44 453l-25 34c76 56 104 118 105 150c-34 8 -62 37 -62 74c0 39 35 72 75 72c43 0 80 -33 80 -96c0 -64 -45 -165 -173 -234z" />
    <glyph glyph-name="quotedblbase" unicode="&#x201e;" horiz-adv-x="501" 
d="M36 -177l-25 34c75 57 104 111 106 142c-34 7 -61 36 -61 72c0 38 33 70 73 70c42 0 79 -32 79 -93c0 -65 -41 -149 -172 -225zM271 -177l-25 34c75 57 104 111 105 142c-34 7 -60 36 -60 72c0 38 33 70 73 70c42 0 79 -32 79 -93c0 -65 -42 -149 -172 -225z" />
    <glyph glyph-name="quotesinglbase" unicode="&#x201a;" horiz-adv-x="267" 
d="M35 -181l-26 35c77 59 107 114 109 146c-35 7 -63 37 -63 75c0 39 35 72 76 72c43 0 81 -33 81 -96c0 -66 -45 -160 -177 -232z" />
    <glyph glyph-name="guillemotleft" unicode="&#xab;" horiz-adv-x="595" 
d="M245 119l-208 202l208 202l56 -55l-144 -147l144 -147zM481 119l-207 202l207 202l56 -55l-143 -147l143 -147z" />
    <glyph glyph-name="guillemotright" unicode="&#xbb;" horiz-adv-x="595" 
d="M113 119l-56 55l144 147l-144 147l56 55l208 -202zM350 119l-56 55l143 147l-143 147l56 55l207 -202z" />
    <glyph glyph-name="guilsinglleft" unicode="&#x2039;" horiz-adv-x="358" 
d="M245 119l-208 202l208 202l56 -55l-144 -147l144 -147z" />
    <glyph glyph-name="guilsinglright" unicode="&#x203a;" horiz-adv-x="358" 
d="M113 119l-56 55l144 147l-144 147l56 55l208 -202z" />
    <glyph glyph-name="hyphen" unicode="-" horiz-adv-x="382" 
d="M47 277v94h288v-94h-288z" />
    <glyph glyph-name="endash" unicode="&#x2013;" horiz-adv-x="581" 
d="M30 280v88h521v-88h-521z" />
    <glyph glyph-name="emdash" unicode="&#x2014;" horiz-adv-x="912" 
d="M30 280v88h852v-88h-852z" />
    <glyph glyph-name="hyphen.lin" horiz-adv-x="366" 
d="M47 338v94h288v-94h-288z" />
    <glyph glyph-name="endash.lin" horiz-adv-x="556" 
d="M30 341v88h521v-88h-521z" />
    <glyph glyph-name="emdash.lin" horiz-adv-x="870" 
d="M30 341v88h852v-88h-852z" />
    <glyph glyph-name="underscore" unicode="_" horiz-adv-x="637" 
d="M-3 -177v88h644v-88h-644z" />
    <glyph glyph-name="slash" unicode="/" horiz-adv-x="560" 
d="M65 -243l-78 34l475 1071l78 -35z" />
    <glyph glyph-name="backslash" unicode="\" horiz-adv-x="560" 
d="M495 -243l-475 1070l79 35l475 -1071z" />
    <glyph glyph-name="bar" unicode="|" horiz-adv-x="325" 
d="M122 -232v1081h81v-1081h-81z" />
    <glyph glyph-name="parenleft" unicode="(" horiz-adv-x="452" 
d="M420 -263c-172 97 -335 300 -335 565s163 469 335 565l46 -68c-158 -98 -285 -266 -285 -497c0 -230 127 -399 285 -497z" />
    <glyph glyph-name="parenright" unicode=")" horiz-adv-x="452" 
d="M32 -263l-46 68c158 98 285 266 285 497c0 230 -127 399 -285 497l46 68c172 -96 335 -300 335 -565s-163 -468 -335 -565z" />
    <glyph glyph-name="parenleft.lin" horiz-adv-x="433" 
d="M400 -183c-160 89 -320 282 -320 536c0 253 160 446 320 535l45 -65c-149 -93 -268 -250 -268 -470c0 -221 119 -378 268 -471z" />
    <glyph glyph-name="parenright.lin" horiz-adv-x="433" 
d="M33 -183l-45 65c148 93 267 250 267 471c0 220 -119 377 -267 470l45 65c160 -89 319 -282 319 -535c0 -254 -159 -447 -319 -536z" />
    <glyph glyph-name="bracketleft" unicode="[" horiz-adv-x="426" 
d="M119 -232v1081h274v-82h-183v-916h183v-83h-274z" />
    <glyph glyph-name="bracketright" unicode="]" horiz-adv-x="426" 
d="M33 -232v83h183v916h-183v82h274v-1081h-274z" />
    <glyph glyph-name="bracketleft.lin" horiz-adv-x="406" 
d="M112 -154v1025h262v-79h-177v-866h177v-80h-262z" />
    <glyph glyph-name="bracketright.lin" horiz-adv-x="406" 
d="M32 -154v80h177v866h-177v79h261v-1025h-261z" />
    <glyph glyph-name="braceleft" unicode="{" horiz-adv-x="422" 
d="M360 -252c-190 5 -277 81 -277 183c0 68 37 108 91 160c31 30 54 54 54 88c0 52 -56 87 -137 87h-25v80h25c81 0 137 35 137 87c0 34 -23 59 -54 88c-54 52 -91 92 -91 160c0 102 87 179 277 183v-72c-141 -7 -188 -60 -188 -111c0 -33 29 -67 70 -110
c43 -45 81 -88 81 -139c0 -53 -42 -107 -137 -126c95 -19 137 -72 137 -125c0 -51 -38 -94 -81 -139c-41 -43 -70 -77 -70 -110c0 -51 47 -104 188 -112v-72z" />
    <glyph glyph-name="braceright" unicode="}" horiz-adv-x="422" 
d="M62 -252v72c141 8 188 61 188 112c0 33 -29 67 -70 110c-44 45 -81 88 -81 139c0 53 42 106 137 125c-95 19 -137 73 -137 126c0 51 37 94 81 139c41 43 70 77 70 110c0 51 -47 104 -188 111v72c189 -4 277 -81 277 -183c0 -68 -37 -108 -91 -160
c-31 -29 -54 -54 -54 -88c0 -52 55 -87 137 -87h24v-80h-24c-82 0 -137 -35 -137 -87c0 -34 23 -58 54 -88c54 -52 91 -92 91 -160c0 -102 -88 -178 -277 -183z" />
    <glyph glyph-name="braceleft.lin" horiz-adv-x="402" 
d="M360 -186c-190 5 -277 81 -277 183c0 68 37 108 91 160c31 30 54 54 54 88c0 52 -56 87 -137 87h-25v80h25c81 0 137 35 137 87c0 34 -23 59 -54 88c-54 52 -91 92 -91 160c0 102 87 179 277 183v-72c-141 -7 -188 -60 -188 -111c0 -33 29 -67 70 -110
c43 -45 81 -88 81 -139c0 -53 -42 -107 -137 -126c95 -19 137 -72 137 -125c0 -51 -38 -94 -81 -139c-41 -43 -70 -77 -70 -110c0 -51 47 -104 188 -112v-72z" />
    <glyph glyph-name="braceright.lin" horiz-adv-x="402" 
d="M62 -186v72c141 8 188 61 188 112c0 33 -29 67 -70 110c-44 45 -81 88 -81 139c0 53 42 106 137 125c-95 19 -137 73 -137 126c0 51 37 94 81 139c41 43 70 77 70 110c0 51 -47 104 -188 111v72c189 -4 277 -81 277 -183c0 -68 -37 -108 -91 -160
c-31 -29 -54 -54 -54 -88c0 -52 55 -87 137 -87h24v-80h-24c-82 0 -137 -35 -137 -87c0 -34 23 -58 54 -88c54 -52 91 -92 91 -160c0 -102 -88 -178 -277 -183z" />
    <glyph glyph-name="at" unicode="@" horiz-adv-x="944" 
d="M399 -205c-203 0 -344 151 -344 361c0 307 224 552 493 552c209 0 345 -137 345 -335c0 -184 -99 -333 -230 -333c-76 0 -115 45 -115 98c-34 -60 -90 -98 -152 -98c-79 0 -138 63 -138 160c0 137 97 257 211 257c63 0 105 -40 122 -93l27 86h85l-66 -261
c-15 -57 0 -88 43 -88c84 0 156 126 156 271c0 161 -109 286 -288 286c-242 0 -437 -226 -437 -503c0 -175 117 -309 290 -309c66 0 128 16 185 47l23 -44c-64 -36 -135 -54 -210 -54zM435 119c74 0 138 77 138 165c0 57 -32 90 -88 90c-73 0 -131 -77 -131 -163
c0 -53 27 -92 81 -92z" />
    <glyph glyph-name="copyright" unicode="&#xa9;" horiz-adv-x="678" 
d="M333 -9c-163 0 -286 129 -286 291s123 291 286 291c164 0 287 -129 287 -291c0 -161 -124 -291 -287 -291zM333 34c135 0 238 111 238 248c0 139 -102 249 -238 249c-135 0 -237 -110 -237 -249c0 -138 102 -248 237 -248zM342 392c-56 0 -99 -45 -99 -104
c0 -58 41 -106 103 -106c31 0 58 13 82 36l26 -30c-25 -31 -67 -48 -110 -48c-86 0 -148 60 -148 146s68 147 146 147c67 0 109 -37 109 -69c0 -18 -13 -32 -30 -32c-15 0 -28 12 -28 28c0 6 2 11 5 15c-9 8 -26 17 -56 17z" />
    <glyph glyph-name="published" unicode="&#x2117;" horiz-adv-x="678" 
d="M333 -9c-163 0 -286 129 -286 291s123 291 286 291c164 0 287 -129 287 -291c0 -161 -124 -291 -287 -291zM333 34c135 0 238 111 238 248c0 139 -102 249 -238 249c-135 0 -237 -110 -237 -249c0 -138 102 -248 237 -248zM349 234h-33v-60h37v-39h-115v39h34v212h-34v39
h115c61 0 108 -36 108 -94c0 -64 -45 -97 -112 -97zM352 272c40 0 64 23 64 59c0 34 -27 55 -66 55h-34v-112c6 -1 16 -2 36 -2z" />
    <glyph glyph-name="registered.alt" horiz-adv-x="678" 
d="M333 -9c-163 0 -286 129 -286 291s123 291 286 291c164 0 287 -129 287 -291c0 -161 -124 -291 -287 -291zM333 34c135 0 238 111 238 248c0 139 -102 249 -238 249c-135 0 -237 -110 -237 -249c0 -138 102 -248 237 -248zM330 393h-32v-100h31c41 0 69 19 69 51
c0 33 -27 49 -68 49zM335 143h-115v39h35v211h-35v39h111c67 0 112 -30 112 -86c0 -38 -24 -66 -58 -79l51 -85h33v-39h-63l-63 112h-45v-73h37v-39z" />
    <glyph glyph-name="registered" unicode="&#xae;" horiz-adv-x="467" 
d="M233 390c-116 0 -207 91 -207 206c0 117 91 208 207 208s208 -91 208 -208c0 -115 -93 -206 -208 -206zM233 765c-91 0 -164 -72 -164 -169c0 -95 73 -168 164 -168c90 0 165 74 165 168c0 97 -73 169 -165 169zM213 607h19c25 0 40 10 40 29c0 20 -15 29 -41 29h-18v-58
zM155 502v33h21v130h-21v33h78c45 0 79 -20 79 -59c0 -25 -16 -44 -36 -54l27 -50h22v-33h-48l-38 73h-26v-40h23v-33h-81z" />
    <glyph glyph-name="copyright.lin" horiz-adv-x="868" 
d="M434 -13c-207 0 -367 168 -367 375s160 375 367 375s368 -168 368 -375s-161 -375 -368 -375zM434 32c180 0 317 148 317 330c0 181 -137 330 -317 330s-317 -149 -317 -330c0 -182 137 -330 317 -330zM443 500c-70 0 -125 -57 -125 -131c0 -72 52 -131 125 -131
c47 0 78 16 108 47l38 -41c-33 -40 -84 -63 -146 -63c-104 0 -188 77 -188 187c0 108 88 188 189 188c86 0 143 -48 143 -90c0 -25 -19 -44 -41 -44s-39 16 -39 38c0 8 4 15 7 17c-10 11 -37 23 -71 23z" />
    <glyph glyph-name="published.lin" horiz-adv-x="868" 
d="M434 -13c-207 0 -367 168 -367 375s160 375 367 375s368 -168 368 -375s-161 -375 -368 -375zM434 32c180 0 317 148 317 330c0 181 -137 330 -317 330s-317 -149 -317 -330c0 -182 137 -330 317 -330zM446 302h-37v-69h46v-53h-147v53h41v256h-41v53h145
c77 0 136 -45 136 -118c0 -82 -58 -122 -143 -122zM451 352c48 0 76 28 76 72c0 39 -32 65 -78 65h-40v-136c5 0 17 -1 42 -1z" />
    <glyph glyph-name="registered.lin" horiz-adv-x="868" 
d="M434 -13c-207 0 -367 168 -367 375s160 375 367 375s368 -168 368 -375s-161 -375 -368 -375zM434 32c180 0 317 148 317 330c0 181 -137 330 -317 330s-317 -149 -317 -330c0 -182 137 -330 317 -330zM394 376h41c45 0 78 22 78 62s-30 60 -79 60h-40v-122zM394 327v-85
h46v-53h-147v53h43v256h-43v53h140c83 0 141 -37 141 -109c0 -49 -27 -83 -69 -99l58 -101h41v-53h-80l-74 138h-56z" />
    <glyph glyph-name="servicemark" unicode="&#x2120;" horiz-adv-x="677" 
d="M275 474v46h39l10 197h-43v46h107l76 -169l74 169h107v-46h-43l9 -197h40v-46h-126v46h36l-7 168l-79 -172h-25l-80 172l-6 -168h36v-46h-125zM128 468c-62 0 -106 32 -106 68c0 19 13 33 31 33c21 0 31 -14 31 -26c0 -8 -1 -12 -4 -17c10 -8 27 -14 47 -14
c33 0 54 14 54 39c0 23 -24 36 -55 47c-54 18 -93 37 -93 90c0 46 40 81 99 81c58 0 99 -27 99 -62c0 -20 -15 -32 -31 -32c-21 0 -31 12 -31 26c0 7 2 10 5 13c-9 6 -24 10 -41 10c-30 0 -49 -13 -49 -34c0 -25 28 -35 58 -45c51 -18 92 -39 92 -92c0 -54 -45 -85 -106 -85
z" />
    <glyph glyph-name="trademark" unicode="&#x2122;" horiz-adv-x="732" 
d="M90 474v46h41v198h-62v-46h-47v91h273v-91h-48v46h-62v-198h41v-46h-136zM330 474v46h39l10 197h-43v46h107l76 -169l74 169h107v-46h-43l9 -197h40v-46h-127v46h36l-6 168l-79 -172h-25l-80 172l-6 -168h36v-46h-125z" />
    <glyph glyph-name="asterisk" unicode="*" horiz-adv-x="493" 
d="M391 608l-123 -9l92 -79c32 -26 36 -63 8 -83c-29 -20 -61 -4 -76 33l-45 112l-46 -112c-15 -37 -46 -53 -76 -33c-28 20 -23 57 8 83l92 79l-122 9c-41 3 -65 31 -54 64c10 30 47 37 80 16l104 -62l-28 119c-10 38 7 70 42 70s51 -32 42 -70l-29 -119l104 62
c34 21 70 14 80 -16c11 -33 -12 -61 -53 -64z" />
    <glyph glyph-name="dagger" unicode="&#x2020;" horiz-adv-x="562" 
d="M258 -2l-20 446l-92 11c-1 -40 -30 -66 -61 -66c-35 0 -59 29 -59 61c0 40 32 71 82 71c11 0 26 -3 37 -5l113 -24l-31 174c-9 47 18 79 54 79s63 -32 54 -79l-31 -174l113 24c11 2 26 5 37 5c50 0 82 -31 82 -71c0 -32 -24 -61 -59 -61c-31 0 -60 26 -61 66l-92 -11
l-20 -446h-46z" />
    <glyph glyph-name="daggerdbl" unicode="&#x2021;" horiz-adv-x="579" 
d="M289 -145c-37 0 -61 33 -51 83l29 146l-100 -21c-12 -2 -24 -4 -34 -4c-47 0 -83 26 -83 67c0 31 24 57 58 57c30 0 59 -22 59 -63l78 8l22 172l-22 172l-78 9c0 -41 -29 -64 -59 -64c-34 0 -58 26 -58 57c0 41 36 67 83 67c10 0 22 -2 34 -4l100 -21l-29 146
c-10 51 14 83 51 83s62 -33 52 -83l-29 -146l100 21c12 2 23 4 34 4c46 0 83 -26 83 -67c0 -31 -24 -57 -59 -57c-30 0 -59 23 -59 64l-78 -9l-21 -172l21 -172l78 -8c0 41 29 63 59 63c35 0 59 -26 59 -57c0 -41 -37 -67 -83 -67c-11 0 -22 2 -34 4l-100 21l29 -146
c10 -50 -15 -83 -52 -83z" />
    <glyph glyph-name="asciicircum" unicode="^" horiz-adv-x="530" 
d="M122 404l-43 50l186 178l185 -178l-42 -50l-143 102z" />
    <glyph glyph-name="asciitilde" unicode="~" horiz-adv-x="517" 
d="M343 219c-45 0 -76 22 -102 45c-28 24 -45 34 -62 34c-27 0 -45 -23 -55 -70l-68 17c7 88 62 145 118 145c46 0 76 -22 102 -45c28 -24 45 -34 62 -34c27 0 46 23 56 70l68 -17c-8 -87 -62 -145 -119 -145z" />
    <glyph glyph-name="dollar" unicode="$" horiz-adv-x="567" 
d="M164 438c0 -42 36 -61 96 -79l13 164c-63 -5 -109 -34 -109 -85zM422 164c0 47 -43 71 -111 91l-14 -183c68 2 125 31 125 92zM353 668l-6 -78c82 -11 158 -49 158 -114c0 -36 -23 -60 -55 -60c-35 0 -59 24 -59 57c0 9 2 21 6 31c-11 6 -35 12 -61 16l-15 -178
c93 -28 191 -66 191 -172c0 -115 -102 -167 -218 -170l-10 -123l-71 6l9 121c-85 13 -174 52 -174 126c0 34 24 61 58 61s59 -24 59 -56c0 -11 -3 -23 -8 -34c13 -10 43 -20 78 -25l15 195c-89 25 -176 62 -176 161c0 90 82 155 202 161l6 81z" />
    <glyph glyph-name="dollar.lin" horiz-adv-x="647" 
d="M179 536c0 -60 46 -90 115 -113l19 222c-80 -5 -134 -50 -134 -109zM490 198c0 63 -49 94 -140 121l-22 -241c96 3 162 47 162 120zM317 -113l-76 6l9 112c-118 18 -198 85 -198 147c0 44 30 74 66 74c35 0 60 -28 60 -58c0 -19 -6 -34 -16 -47c18 -17 57 -32 101 -39
l22 255c-106 32 -199 80 -199 194c0 107 89 188 230 193l9 99l77 -6l-9 -98c103 -17 178 -73 178 -139c0 -43 -27 -68 -61 -68c-39 0 -64 29 -64 61c0 18 6 30 13 39c-14 13 -45 24 -79 30l-21 -239c124 -36 224 -82 224 -200c0 -129 -109 -200 -257 -203z" />
    <glyph glyph-name="sterling" unicode="&#xa3;" horiz-adv-x="583" 
d="M442 138h-191v-16c0 -59 -21 -105 -54 -141c39 -2 79 -12 107 -21c57 -18 85 -22 111 -22c48 0 70 18 97 67l62 -35c-32 -82 -79 -115 -156 -115c-42 0 -82 8 -138 30c-37 14 -68 24 -115 24c-5 0 -9 1 -13 0c-26 -38 -67 -54 -96 -54c-35 0 -59 22 -59 48
c0 42 42 80 120 80c32 37 51 88 51 137c0 6 0 12 -1 18h-123v73h111l-11 31c-17 47 -31 92 -31 145c0 115 81 216 219 216c104 0 189 -60 189 -131c0 -49 -31 -72 -61 -72c-32 0 -56 25 -56 57c0 16 8 31 14 39c-13 15 -40 29 -88 29c-85 0 -130 -69 -130 -137
c0 -52 10 -89 27 -136l13 -41h202v-73z" />
    <glyph glyph-name="sterling.lin" horiz-adv-x="639" 
d="M36 40c0 36 30 75 128 69c33 40 44 87 44 138c0 7 -1 15 -1 22h-131v77h115l-10 30c-16 44 -34 91 -34 148c0 119 99 212 223 212c110 0 193 -64 193 -136c0 -37 -25 -70 -64 -70c-38 0 -63 27 -63 58c0 16 7 30 15 40c-13 16 -42 29 -84 29c-70 0 -131 -55 -131 -133
c0 -53 13 -95 27 -135c5 -14 10 -28 14 -43h199v-77h-186c1 -7 1 -14 1 -21c0 -63 -14 -110 -43 -137c35 -1 67 -9 97 -17c57 -17 80 -23 108 -23c50 0 69 20 94 71l64 -32c-26 -86 -72 -122 -155 -122c-48 0 -78 9 -135 29c-40 13 -74 22 -125 23h-1
c-26 -34 -66 -55 -98 -54c-40 0 -61 22 -61 54z" />
    <glyph glyph-name="Euro" unicode="&#x20ac;" horiz-adv-x="720" 
d="M55 335v72h91c43 119 155 196 284 196c135 0 227 -81 227 -154c0 -43 -32 -71 -67 -71c-34 0 -59 25 -59 59c0 20 11 38 20 43c-14 19 -57 44 -122 44c-87 0 -157 -48 -192 -120h201v-69h-223c-2 -13 -2 -25 -2 -38c0 -14 1 -27 3 -40h222v-68h-200
c35 -70 104 -120 194 -120c67 0 124 28 173 77l54 -61c-58 -60 -141 -95 -227 -95c-141 0 -247 80 -287 196h-90v71h74c-2 12 -2 25 -2 38s1 27 2 40h-74z" />
    <glyph glyph-name="Euro.lin" horiz-adv-x="794" 
d="M45 406v78h109c43 159 171 252 324 252c143 0 248 -98 248 -187c0 -42 -26 -78 -69 -78c-36 0 -62 30 -62 63c0 22 11 43 27 53c-17 29 -76 63 -147 63c-116 0 -196 -63 -229 -168h258v-75h-273c-1 -16 -2 -32 -2 -48c0 -19 1 -36 3 -53h272v-74h-256
c33 -96 106 -158 216 -158c81 0 141 28 204 89l56 -62c-63 -71 -156 -114 -261 -114c-154 0 -266 96 -308 242h-110v78h97c-2 16 -3 34 -3 52c0 15 1 31 2 47h-96z" />
    <glyph glyph-name="yen" unicode="&#xa5;" horiz-adv-x="600" 
d="M93 277v71h115l-110 173h-73v74h223v-73h-65l117 -191l117 191h-69v73h224v-74h-74l-111 -173h117v-71h-160l-6 -9v-55h166v-72h-166v-70h95v-71h-269v71h95v70h-166v72h166v55l-5 9h-161z" />
    <glyph glyph-name="yen.lin" horiz-adv-x="715" 
d="M211 0v73h100v81h-181v72h181v72h-181v72h134l-168 275h-73v79h252v-79h-74l159 -278l157 278h-77v79h253v-79h-74l-169 -275h134v-72h-180v-72h180v-72h-180v-81h100v-73h-293z" />
    <glyph glyph-name="cent" unicode="&#xa2;" horiz-adv-x="604" 
d="M148 298c0 -77 42 -141 115 -168l31 349c-77 -13 -146 -75 -146 -181zM543 404c0 -39 -30 -69 -65 -69c-29 0 -57 21 -57 57c0 10 7 30 23 43c-13 20 -46 37 -84 44l-32 -363h20c65 0 122 17 182 54l-7 -83c-51 -33 -118 -47 -182 -47h-17l-15 -163l-71 6l15 168
c-121 33 -197 133 -197 248c0 126 104 242 243 255l11 121l71 -7l-10 -117c98 -17 172 -83 172 -147z" />
    <glyph glyph-name="cent.lin" horiz-adv-x="568" 
d="M141 378c0 -70 38 -130 105 -156l30 325c-74 -12 -135 -67 -135 -169zM221 -17l15 161c-115 31 -186 124 -186 236c0 122 97 229 231 241l11 119l70 -6l-11 -116c93 -17 163 -80 163 -140c0 -38 -28 -69 -63 -69c-28 0 -55 22 -55 56c0 10 6 29 21 42
c-12 19 -41 34 -75 40l-31 -340h19c56 0 111 17 171 52l-7 -81c-48 -31 -110 -45 -172 -45h-16l-14 -156z" />
    <glyph glyph-name="numbersign" unicode="#" horiz-adv-x="627" 
d="M252 380l-25 -157h147l24 157h-146zM67 378v76h115l22 141h84l-23 -141h143l22 141h83l-22 -141h106v-76h-118l-23 -153h104v-77h-116l-23 -148h-84l23 148h-142l-22 -148h-84l23 148h-105v77h117l23 153h-103z" />
    <glyph glyph-name="numbersign.lin" horiz-adv-x="665" 
d="M277 448l-28 -183h137l28 183h-137zM69 445v79h135l30 199h88l-30 -199h130l32 199h88l-31 -199h128v-79h-140l-27 -177h124l-4 -79h-132l-29 -189h-88l28 189h-130l-29 -189h-88l29 189h-127v79h139l27 177h-123z" />
    <glyph glyph-name="paragraph" unicode="&#xb6;" horiz-adv-x="685" 
d="M230 0v78h93v146c-20 -1 -42 -1 -76 -1c-118 0 -205 69 -205 182c0 103 90 176 209 176h387v-80h-94v-420h94v-81h-408zM400 77h67v427h-67v-427z" />
    <glyph glyph-name="paragraph.lin" horiz-adv-x="787" 
d="M272 0v84h108v171c-12 0 -31 -1 -64 -1c-164 0 -275 86 -275 239c0 142 116 231 269 231h427v-84h-90v-556h90v-84h-465zM472 79h83v566h-83v-566z" />
    <glyph glyph-name="section" unicode="&#xa7;" horiz-adv-x="539" 
d="M268 239c13 -4 26 -7 39 -10c41 12 73 31 73 58c0 32 -43 48 -112 66c-14 3 -27 7 -40 11c-39 -12 -73 -34 -73 -60c0 -31 41 -47 113 -65zM275 603c94 0 172 -39 172 -99c0 -29 -20 -52 -51 -52c-32 0 -53 21 -53 49c0 9 1 14 3 19c-12 8 -46 17 -74 17
c-54 0 -82 -20 -82 -46c0 -34 51 -50 124 -71c90 -27 155 -53 155 -120c0 -50 -39 -81 -89 -100c35 -20 57 -48 57 -90c0 -65 -66 -121 -176 -121c-88 0 -173 35 -173 99c0 27 20 51 52 51c31 0 54 -19 54 -48c0 -8 -2 -15 -4 -19c12 -10 46 -17 73 -17c56 0 83 20 83 47
c0 33 -46 46 -126 69c-85 24 -155 53 -155 119c0 49 38 84 91 102c-38 21 -59 48 -59 90c0 62 68 121 178 121z" />
    <glyph glyph-name="section.lin" horiz-adv-x="597" 
d="M297 440c-19 4 -36 9 -52 13c-48 -17 -91 -45 -91 -84c0 -37 35 -59 145 -86l51 -13c52 18 93 46 93 84c0 37 -37 60 -146 86zM139 160c36 0 62 -23 62 -57c0 -7 -1 -14 -5 -24c16 -11 62 -20 91 -20c79 0 116 29 116 64c0 39 -36 55 -143 84c-118 32 -203 68 -203 148
c0 64 50 105 111 128c-48 25 -73 58 -73 111c0 69 78 143 214 143c51 0 100 -10 137 -29c41 -20 67 -50 67 -87c0 -32 -23 -58 -56 -58c-36 0 -61 23 -61 57c0 9 0 18 3 26l-6 3c-21 10 -60 15 -84 15c-78 0 -116 -28 -116 -64c0 -39 36 -54 144 -83
c118 -32 203 -69 203 -149c0 -65 -50 -104 -111 -128c45 -23 72 -55 72 -109c0 -72 -77 -145 -213 -145c-70 0 -135 19 -172 51c-21 19 -33 41 -33 65c0 32 23 58 56 58z" />
    <glyph glyph-name="ordfeminine" unicode="&#xaa;" horiz-adv-x="411" 
d="M161 516c31 0 60 14 83 34v48c-20 5 -46 10 -72 10c-42 0 -65 -20 -65 -49c0 -27 20 -43 54 -43zM143 469c-54 0 -97 32 -97 85c0 55 48 90 116 90c32 0 66 -6 82 -11v33c0 23 -8 38 -21 49c-14 10 -32 14 -54 14c-18 0 -31 -4 -39 -8c3 -5 4 -11 4 -17
c0 -20 -15 -34 -35 -34s-34 14 -34 35c0 36 38 72 114 72c34 0 62 -7 82 -20c27 -18 41 -49 41 -85v-147h46v-50h-103v36c-24 -22 -62 -42 -102 -42zM56 341v56h292v-56h-292z" />
    <glyph glyph-name="ordmasculine" unicode="&#xba;" horiz-adv-x="414" 
d="M208 469c-96 0 -157 71 -157 155c0 83 62 154 157 154s155 -70 155 -154c0 -83 -61 -155 -155 -155zM208 519c55 0 93 44 93 105c0 60 -38 104 -93 104c-56 0 -95 -44 -95 -104c0 -61 39 -105 95 -105zM66 341v56h282v-56h-282z" />
    <glyph glyph-name="ordfeminine.lin" horiz-adv-x="390" 
d="M161 583c31 0 60 14 83 34v48c-20 5 -46 10 -72 10c-42 0 -65 -20 -65 -49c0 -27 20 -43 54 -43zM143 536c-54 0 -97 32 -97 85c0 55 48 90 116 90c32 0 66 -6 82 -11v33c0 23 -8 38 -21 49c-14 10 -32 14 -54 14c-18 0 -31 -4 -39 -8c3 -5 4 -11 4 -17
c0 -20 -15 -34 -35 -34s-34 14 -34 35c0 36 38 72 114 72c34 0 62 -7 82 -20c27 -18 41 -49 41 -85v-147h46v-50h-103v36c-24 -22 -62 -42 -102 -42zM56 408v56h292v-56h-292z" />
    <glyph glyph-name="ordmasculine.lin" horiz-adv-x="393" 
d="M208 536c-96 0 -157 71 -157 155c0 83 62 154 157 154s155 -70 155 -154c0 -83 -61 -155 -155 -155zM208 586c55 0 93 44 93 105c0 60 -38 104 -93 104c-56 0 -95 -44 -95 -104c0 -61 39 -105 95 -105zM66 408v56h282v-56h-282z" />
    <glyph glyph-name="degree" unicode="&#xb0;" horiz-adv-x="360" 
d="M180 473c-87 0 -152 69 -152 152c0 84 65 153 152 153c86 0 150 -69 150 -153c0 -83 -64 -152 -150 -152zM180 532c51 0 88 41 88 93c0 53 -37 94 -88 94c-52 0 -89 -41 -89 -94c0 -52 37 -93 89 -93z" />
    <glyph glyph-name="degree.lin" horiz-adv-x="342" 
d="M180 540c-87 0 -152 69 -152 152c0 84 65 153 152 153c86 0 150 -69 150 -153c0 -83 -64 -152 -150 -152zM180 599c51 0 88 41 88 93c0 53 -37 94 -88 94c-52 0 -89 -41 -89 -94c0 -52 37 -93 89 -93z" />
    <glyph glyph-name="percent" unicode="%" horiz-adv-x="774" 
d="M155 -23l-43 38c31 33 161 184 253 292c91 108 219 263 248 299l44 -38c-31 -33 -162 -185 -255 -294c-91 -107 -219 -264 -247 -297zM205 317c-79 0 -144 65 -144 144s65 143 144 143c80 0 144 -64 144 -143s-64 -144 -144 -144zM205 380c43 0 73 35 73 80
s-30 81 -73 81c-42 0 -72 -36 -72 -81s30 -80 72 -80zM568 278c80 0 144 -64 144 -144c0 -79 -64 -143 -144 -143s-144 64 -144 143c0 80 64 144 144 144zM568 214c-43 0 -73 -36 -73 -81s30 -80 73 -80s73 35 73 80s-30 81 -73 81z" />
    <glyph glyph-name="perthousand" unicode="&#x2030;" horiz-adv-x="1102" 
d="M155 -23l-43 38c31 33 161 184 253 292c91 108 219 263 248 299l44 -38c-31 -33 -162 -185 -255 -294c-91 -107 -219 -264 -247 -297zM205 317c-79 0 -144 65 -144 144s65 143 144 143c80 0 144 -64 144 -143s-64 -144 -144 -144zM205 380c43 0 73 35 73 80
s-30 81 -73 81c-42 0 -72 -36 -72 -81s30 -80 72 -80zM568 -9c-80 0 -144 64 -144 143c0 80 64 144 144 144s144 -64 144 -144c0 -79 -64 -143 -144 -143zM896 -9c-80 0 -144 64 -144 143c0 80 64 144 144 144s144 -64 144 -144c0 -79 -64 -143 -144 -143zM896 53
c43 0 73 35 73 80s-30 81 -73 81c-42 0 -73 -36 -73 -81s31 -80 73 -80zM568 53c43 0 73 35 73 80s-30 81 -73 81s-73 -36 -73 -81s30 -80 73 -80z" />
    <glyph glyph-name="percent.lin" horiz-adv-x="724" 
d="M130 -13l-44 31c14 19 159 223 254 358c96 134 240 339 255 361l44 -30l-257 -362c-95 -134 -240 -339 -252 -358zM39 576c0 88 70 161 159 161s159 -73 159 -161c0 -89 -70 -162 -159 -162s-159 73 -159 162zM100 576c0 -59 43 -108 98 -108s98 49 98 108
c0 58 -43 107 -98 107s-98 -49 -98 -107zM367 148c0 89 70 162 159 162s160 -73 160 -162s-71 -161 -160 -161s-159 72 -159 161zM428 148c0 -58 43 -107 98 -107s98 49 98 107c0 59 -43 108 -98 108s-98 -49 -98 -108z" />
    <glyph glyph-name="perthousand.lin" horiz-adv-x="1101" 
d="M130 -13l-44 31c14 19 159 223 254 358c96 134 240 339 255 361l44 -30l-257 -362c-95 -134 -240 -339 -252 -358zM39 576c0 88 70 161 159 161s159 -73 159 -161c0 -89 -70 -162 -159 -162s-159 73 -159 162zM100 576c0 -59 43 -108 98 -108s98 49 98 108
c0 58 -43 107 -98 107s-98 -49 -98 -107zM367 148c0 89 70 162 159 162s160 -73 160 -162s-71 -161 -160 -161s-159 72 -159 161zM744 148c0 89 70 162 159 162s160 -73 160 -162s-71 -161 -160 -161s-159 72 -159 161zM805 148c0 -58 43 -107 98 -107c56 0 99 49 99 107
c0 59 -43 108 -99 108c-55 0 -98 -49 -98 -108zM428 148c0 -58 43 -107 98 -107s98 49 98 107c0 59 -43 108 -98 108s-98 -49 -98 -108z" />
    <glyph glyph-name="quotedbl" unicode="&#x22;" horiz-adv-x="424" 
d="M87 474l-41 214c-11 54 19 89 61 89c41 0 71 -34 60 -89l-42 -214h-38zM297 474l-41 214c-11 54 19 89 61 89s71 -34 61 -89l-43 -214h-38z" />
    <glyph glyph-name="quotesingle" unicode="'" horiz-adv-x="214" 
d="M87 474l-41 214c-11 54 19 89 61 89c41 0 71 -34 60 -89l-42 -214h-38z" />
    <glyph glyph-name="quotedbl.lin" horiz-adv-x="407" 
d="M87 541l-41 214c-11 54 19 89 61 89c41 0 71 -34 60 -89l-42 -214h-38zM297 541l-41 214c-11 54 19 89 61 89s71 -34 61 -89l-43 -214h-38z" />
    <glyph glyph-name="quotesingle.lin" horiz-adv-x="206" 
d="M87 541l-41 214c-11 54 19 89 61 89c41 0 71 -34 60 -89l-42 -214h-38z" />
    <glyph glyph-name="plus" unicode="+" horiz-adv-x="504" 
d="M211 121v156h-156v81h156v156h82v-156h156v-81h-156v-156h-82z" />
    <glyph glyph-name="plus.lin" horiz-adv-x="481" 
d="M211 188v156h-156v81h156v156h82v-156h156v-81h-156v-156h-82z" />
    <glyph glyph-name="minus" unicode="&#x2212;" horiz-adv-x="504" 
d="M55 277v81h394v-81h-394z" />
    <glyph glyph-name="minus.lin" horiz-adv-x="481" 
d="M55 344v81h394v-81h-394z" />
    <glyph glyph-name="divide" unicode="&#xf7;" horiz-adv-x="504" 
d="M252 418c-33 0 -62 29 -62 63c0 33 30 62 63 62s61 -29 61 -62c0 -34 -29 -63 -62 -63zM449 277h-394v81h394v-81zM252 92c-33 0 -62 28 -62 62s30 62 63 62s61 -28 61 -62s-29 -62 -62 -62z" />
    <glyph glyph-name="divide.lin" horiz-adv-x="481" 
d="M252 485c-33 0 -62 29 -62 63c0 33 30 62 63 62s61 -29 61 -62c0 -34 -29 -63 -62 -63zM449 344h-394v81h394v-81zM252 159c-33 0 -62 28 -62 62s30 62 63 62s61 -28 61 -62s-29 -62 -62 -62z" />
    <glyph glyph-name="equal" unicode="=" horiz-adv-x="504" 
d="M55 369v80h394v-80h-394zM55 174v81h394v-81h-394z" />
    <glyph glyph-name="equal.lin" horiz-adv-x="481" 
d="M55 436v80h394v-80h-394zM55 241v81h394v-81h-394z" />
    <glyph glyph-name="multiply" unicode="&#xd7;" horiz-adv-x="504" 
d="M372 133l-121 127l-119 -126l-58 58l120 125l-121 126l59 58l120 -126l120 125l57 -57l-120 -126l121 -125z" />
    <glyph glyph-name="multiply.lin" horiz-adv-x="481" 
d="M372 200l-121 127l-119 -126l-58 58l120 125l-121 126l59 58l120 -126l120 125l57 -57l-120 -126l121 -125z" />
    <glyph glyph-name="less" unicode="&#x3c;" horiz-adv-x="470" 
d="M347 89l-293 201v46l293 202l44 -62l-237 -163l237 -163z" />
    <glyph glyph-name="less.lin" horiz-adv-x="447" 
d="M347 156l-293 201v46l293 202l44 -62l-237 -163l237 -163z" />
    <glyph glyph-name="greater" unicode="&#x3e;" horiz-adv-x="470" 
d="M122 89l-44 61l237 163l-237 163l44 62l294 -202v-46z" />
    <glyph glyph-name="greater.lin" horiz-adv-x="447" 
d="M122 156l-44 61l237 163l-237 163l44 62l294 -202v-46z" />
    <glyph glyph-name="plusminus" unicode="&#xb1;" horiz-adv-x="504" 
d="M211 193v156h-156v80h156v157h82v-157h156v-80h-156v-156h-82zM55 20v81h394v-81h-394z" />
    <glyph glyph-name="plusminus.lin" horiz-adv-x="481" 
d="M211 260v156h-156v80h156v157h82v-157h156v-80h-156v-156h-82zM55 87v81h394v-81h-394z" />
    <glyph glyph-name="onehalf" unicode="&#xbd;" horiz-adv-x="885" 
d="M255 -15l-45 28l218 352c75 123 183 306 210 353l45 -28c-31 -50 -140 -224 -216 -348c-77 -126 -185 -310 -212 -357zM56 309v57h103v275l-96 -24l-14 54l141 38h32v-343h102v-57h-268zM553 -1c-3 0 -19 29 -19 29c35 90 101 139 150 173c40 28 70 49 70 88
c0 36 -31 61 -74 61c-37 0 -66 -17 -71 -27c11 -5 19 -19 19 -34c0 -21 -18 -39 -39 -39c-30 0 -43 24 -43 51c0 55 54 103 138 103c74 0 135 -46 135 -116c0 -64 -48 -96 -95 -127c-41 -26 -88 -62 -113 -109h163v66h54v-119h-275z" />
    <glyph glyph-name="onethird" unicode="&#x2153;" horiz-adv-x="885" 
d="M252 -15l-45 28l218 352c75 123 183 306 210 353l45 -28c-31 -50 -140 -224 -216 -348c-77 -126 -185 -310 -212 -357zM57 309v57h103v275l-96 -24l-14 54l141 38h32v-343h102v-57h-268zM681 -9c-80 0 -145 40 -145 93c0 25 18 46 42 46c23 0 39 -17 39 -40
c0 -9 -3 -19 -9 -25c8 -7 34 -22 73 -22c46 0 83 25 83 65c0 36 -29 69 -103 69h-24v52h25c58 0 94 26 94 68c0 35 -34 53 -74 53c-30 0 -51 -10 -58 -17c4 -6 8 -16 8 -25c0 -21 -17 -39 -38 -39c-22 0 -42 19 -42 47c0 34 44 86 132 86c78 0 137 -45 137 -103
c0 -46 -40 -84 -87 -95c46 -10 96 -46 96 -100c0 -69 -68 -113 -149 -113z" />
    <glyph glyph-name="twothirds" unicode="&#x2154;" horiz-adv-x="885" 
d="M271 -15l-45 28l218 352c75 123 183 306 210 353l45 -28c-31 -50 -140 -224 -216 -348c-77 -126 -185 -310 -212 -357zM65 309c-3 0 -19 29 -19 29c35 90 101 139 150 173c40 28 70 49 70 88c0 36 -31 61 -74 61c-37 0 -66 -17 -71 -27c11 -5 19 -19 19 -34
c0 -21 -18 -39 -39 -39c-30 0 -43 24 -43 51c0 55 54 103 138 103c74 0 135 -46 135 -116c0 -64 -48 -96 -95 -127c-41 -26 -88 -62 -113 -109h163v66h54v-119h-275zM684 -9c-80 0 -145 40 -145 93c0 25 18 46 42 46c23 0 39 -17 39 -40c0 -9 -3 -19 -9 -25
c8 -7 34 -22 73 -22c46 0 83 25 83 65c0 36 -29 69 -103 69h-24v52h25c58 0 94 26 94 68c0 35 -34 53 -74 53c-30 0 -51 -10 -58 -17c4 -6 8 -16 8 -25c0 -21 -17 -39 -38 -39c-22 0 -42 19 -42 47c0 34 44 86 132 86c78 0 137 -45 137 -103c0 -46 -40 -84 -87 -95
c46 -10 96 -46 96 -100c0 -69 -68 -113 -149 -113z" />
    <glyph glyph-name="onequarter" unicode="&#xbc;" horiz-adv-x="885" 
d="M268 -15l-45 28l218 352c75 123 183 306 210 353l45 -28c-31 -50 -140 -224 -216 -348c-77 -126 -185 -310 -212 -357zM61 309v57h103v275l-96 -24l-14 54l141 38h32v-343h102v-57h-268zM627 0v49h74v66h-182l-18 34l212 263l46 -37l-179 -213h121v73l56 23v-93h63v-52
h-63v-63h49v-50h-179z" />
    <glyph glyph-name="threequarters" unicode="&#xbe;" horiz-adv-x="885" 
d="M274 -15l-45 28l218 352c75 123 183 306 210 353l45 -28c-31 -50 -140 -224 -216 -348c-77 -126 -185 -310 -212 -357zM209 301c-80 0 -145 40 -145 93c0 25 18 46 42 46c23 0 39 -17 39 -40c0 -9 -3 -19 -9 -25c8 -7 34 -22 73 -22c46 0 83 25 83 65
c0 36 -29 69 -103 69h-24v52h25c58 0 94 26 94 68c0 35 -34 53 -74 53c-30 0 -51 -10 -58 -17c4 -6 8 -16 8 -25c0 -21 -17 -39 -38 -39c-22 0 -42 19 -42 47c0 34 44 86 132 86c78 0 137 -45 137 -103c0 -46 -40 -84 -87 -95c46 -10 96 -46 96 -100
c0 -69 -68 -113 -149 -113zM627 0v49h74v66h-182l-18 34l212 263l46 -37l-179 -213h121v73l56 23v-93h63v-52h-63v-63h49v-50h-179z" />
    <glyph glyph-name="onefifth" unicode="&#x2155;" horiz-adv-x="885" 
d="M257 -15l-45 28l218 352c75 123 183 306 210 353l45 -28c-31 -50 -140 -224 -216 -348c-77 -126 -185 -310 -212 -357zM59 309v57h103v275l-96 -24l-14 54l141 38h32v-343h102v-57h-268zM688 -9c-91 0 -137 42 -137 79c0 24 16 42 42 42s41 -19 41 -39
c0 -6 -2 -13 -5 -17c8 -4 29 -10 54 -10c60 0 94 34 94 82c0 42 -30 73 -89 73c-34 0 -65 -8 -89 -19l-30 16l20 199h225v-59h-173l-8 -89c13 4 34 8 59 8c84 0 148 -49 148 -129c0 -81 -66 -137 -152 -137z" />
    <glyph glyph-name="twofifths" unicode="&#x2156;" horiz-adv-x="885" 
d="M279 -15l-45 28l218 352c75 123 183 306 210 353l45 -28c-31 -50 -140 -224 -216 -348c-77 -126 -185 -310 -212 -357zM67 309c-3 0 -19 29 -19 29c35 90 101 139 150 173c40 28 70 49 70 88c0 36 -31 61 -74 61c-37 0 -66 -17 -71 -27c11 -5 19 -19 19 -34
c0 -21 -18 -39 -39 -39c-30 0 -43 24 -43 51c0 55 54 103 138 103c74 0 135 -46 135 -116c0 -64 -48 -96 -95 -127c-41 -26 -88 -62 -113 -109h163v66h54v-119h-275zM694 -9c-91 0 -137 42 -137 79c0 24 16 42 42 42s41 -19 41 -39c0 -6 -2 -13 -5 -17c8 -4 29 -10 54 -10
c60 0 94 34 94 82c0 42 -30 73 -89 73c-34 0 -65 -8 -89 -19l-30 16l20 199h225v-59h-173l-8 -89c13 4 34 8 59 8c84 0 148 -49 148 -129c0 -81 -66 -137 -152 -137z" />
    <glyph glyph-name="threefifths" unicode="&#x2157;" horiz-adv-x="885" 
d="M257 -15l-45 28l218 352c75 123 183 306 210 353l45 -28c-31 -50 -140 -224 -216 -348c-77 -126 -185 -310 -212 -357zM199 301c-80 0 -145 40 -145 93c0 25 18 46 42 46c23 0 39 -17 39 -40c0 -9 -3 -19 -9 -25c8 -7 34 -22 73 -22c46 0 83 25 83 65
c0 36 -29 69 -103 69h-24v52h25c58 0 94 26 94 68c0 35 -34 53 -74 53c-30 0 -51 -10 -58 -17c4 -6 8 -16 8 -25c0 -21 -17 -39 -38 -39c-22 0 -42 19 -42 47c0 34 44 86 132 86c78 0 137 -45 137 -103c0 -46 -40 -84 -87 -95c46 -10 96 -46 96 -100
c0 -69 -68 -113 -149 -113zM686 -9c-91 0 -137 42 -137 79c0 24 16 42 42 42s41 -19 41 -39c0 -6 -2 -13 -5 -17c8 -4 29 -10 54 -10c60 0 94 34 94 82c0 42 -30 73 -89 73c-34 0 -65 -8 -89 -19l-30 16l20 199h225v-59h-173l-8 -89c13 4 34 8 59 8c84 0 148 -49 148 -129
c0 -81 -66 -137 -152 -137z" />
    <glyph glyph-name="fourfifths" unicode="&#x2158;" horiz-adv-x="885" 
d="M166 310v49h74v66h-182l-18 34l212 263l46 -37l-179 -213h121v73l56 23v-93h63v-52h-63v-63h49v-50h-179zM282 -15l-45 28l218 352c75 123 183 306 210 353l45 -28c-31 -50 -140 -224 -216 -348c-77 -126 -185 -310 -212 -357zM692 -9c-91 0 -137 42 -137 79
c0 24 16 42 42 42s41 -19 41 -39c0 -6 -2 -13 -5 -17c8 -4 29 -10 54 -10c60 0 94 34 94 82c0 42 -30 73 -89 73c-34 0 -65 -8 -89 -19l-30 16l20 199h225v-59h-173l-8 -89c13 4 34 8 59 8c84 0 148 -49 148 -129c0 -81 -66 -137 -152 -137z" />
    <glyph glyph-name="onesixth" unicode="&#x2159;" horiz-adv-x="885" 
d="M256 -15l-45 28l218 352c75 123 183 306 210 353l45 -28c-31 -50 -140 -224 -216 -348c-77 -126 -185 -310 -212 -357zM58 309v57h103v275l-96 -24l-14 54l141 38h32v-343h102v-57h-268zM810 330c0 -26 -17 -41 -40 -41c-27 0 -39 19 -39 38c0 6 1 11 3 15
c-7 4 -20 8 -33 8c-58 0 -105 -62 -108 -144c24 27 61 42 99 42c81 0 137 -54 137 -126c0 -73 -59 -131 -145 -131c-46 0 -82 18 -107 43c-34 35 -46 81 -46 147c0 141 77 223 171 223c41 0 70 -12 88 -30c13 -14 20 -27 20 -44zM685 46c47 0 81 34 81 75
c0 42 -30 72 -82 72c-49 0 -85 -31 -85 -71c0 -22 8 -40 24 -55c15 -13 36 -21 62 -21z" />
    <glyph glyph-name="fivesixths" unicode="&#x215a;" horiz-adv-x="885" 
d="M256 -15l-45 28l218 352c75 123 183 306 210 353l45 -28c-31 -50 -140 -224 -216 -348c-77 -126 -185 -310 -212 -357zM193 301c-91 0 -137 42 -137 79c0 24 16 42 42 42s41 -19 41 -39c0 -6 -2 -13 -5 -17c8 -4 29 -10 54 -10c60 0 94 34 94 82c0 42 -30 73 -89 73
c-34 0 -65 -8 -89 -19l-30 16l20 199h225v-59h-173l-8 -89c13 4 34 8 59 8c84 0 148 -49 148 -129c0 -81 -66 -137 -152 -137zM810 330c0 -26 -17 -41 -40 -41c-27 0 -39 19 -39 38c0 6 1 11 3 15c-7 4 -20 8 -33 8c-58 0 -105 -62 -108 -144c24 27 61 42 99 42
c81 0 137 -54 137 -126c0 -73 -59 -131 -145 -131c-46 0 -82 18 -107 43c-34 35 -46 81 -46 147c0 141 77 223 171 223c41 0 70 -12 88 -30c13 -14 20 -27 20 -44zM685 46c47 0 81 34 81 75c0 42 -30 72 -82 72c-49 0 -85 -31 -85 -71c0 -22 8 -40 24 -55
c15 -13 36 -21 62 -21z" />
    <glyph glyph-name="oneeighth" unicode="&#x215b;" horiz-adv-x="885" 
d="M248 -15l-45 28l218 352c75 123 183 306 210 353l45 -28c-31 -50 -140 -224 -216 -348c-77 -126 -185 -310 -212 -357zM54 309v57h103v275l-96 -24l-14 54l141 38h32v-343h102v-57h-268zM683 -8c-93 0 -150 52 -150 109c0 43 32 86 92 103c-58 17 -82 52 -82 93
c0 58 58 105 140 105c81 0 141 -47 141 -105c0 -41 -26 -76 -83 -93c60 -17 92 -60 92 -103c0 -57 -58 -109 -150 -109zM683 227c40 0 74 26 74 61c0 36 -32 60 -74 60c-43 0 -74 -24 -74 -60c0 -35 34 -61 74 -61zM683 48c50 0 83 29 83 64s-35 66 -83 66
c-49 0 -83 -31 -83 -66s33 -64 83 -64z" />
    <glyph glyph-name="threeeighths" unicode="&#x215c;" horiz-adv-x="885" 
d="M251 -15l-45 28l218 352c75 123 183 306 210 353l45 -28c-31 -50 -140 -224 -216 -348c-77 -126 -185 -310 -212 -357zM198 301c-80 0 -145 40 -145 93c0 25 18 46 42 46c23 0 39 -17 39 -40c0 -9 -3 -19 -9 -25c8 -7 34 -22 73 -22c46 0 83 25 83 65
c0 36 -29 69 -103 69h-24v52h25c58 0 94 26 94 68c0 35 -34 53 -74 53c-30 0 -51 -10 -58 -17c4 -6 8 -16 8 -25c0 -21 -17 -39 -38 -39c-22 0 -42 19 -42 47c0 34 44 86 132 86c78 0 137 -45 137 -103c0 -46 -40 -84 -87 -95c46 -10 96 -46 96 -100
c0 -69 -68 -113 -149 -113zM681 -8c-93 0 -150 52 -150 109c0 43 32 86 92 103c-58 17 -82 52 -82 93c0 58 58 105 140 105c81 0 141 -47 141 -105c0 -41 -26 -76 -83 -93c60 -17 92 -60 92 -103c0 -57 -58 -109 -150 -109zM681 227c40 0 74 26 74 61c0 36 -32 60 -74 60
c-43 0 -74 -24 -74 -60c0 -35 34 -61 74 -61zM681 48c50 0 83 29 83 64s-35 66 -83 66c-49 0 -83 -31 -83 -66s33 -64 83 -64z" />
    <glyph glyph-name="fiveeighths" unicode="&#x215d;" horiz-adv-x="885" 
d="M243 -15l-45 28l218 352c75 123 183 306 210 353l45 -28c-31 -50 -140 -224 -216 -348c-77 -126 -185 -310 -212 -357zM187 301c-91 0 -137 42 -137 79c0 24 16 42 42 42s41 -19 41 -39c0 -6 -2 -13 -5 -17c8 -4 29 -10 54 -10c60 0 94 34 94 82c0 42 -30 73 -89 73
c-34 0 -65 -8 -89 -19l-30 16l20 199h225v-59h-173l-8 -89c13 4 34 8 59 8c84 0 148 -49 148 -129c0 -81 -66 -137 -152 -137zM677 -8c-93 0 -150 52 -150 109c0 43 32 86 92 103c-58 17 -82 52 -82 93c0 58 58 105 140 105c81 0 141 -47 141 -105c0 -41 -26 -76 -83 -93
c60 -17 92 -60 92 -103c0 -57 -58 -109 -150 -109zM677 227c40 0 74 26 74 61c0 36 -32 60 -74 60c-43 0 -74 -24 -74 -60c0 -35 34 -61 74 -61zM677 48c50 0 83 29 83 64s-35 66 -83 66c-49 0 -83 -31 -83 -66s33 -64 83 -64z" />
    <glyph glyph-name="seveneighths" unicode="&#x215e;" horiz-adv-x="885" 
d="M211 -15l-45 28l218 352c75 123 183 306 210 353l45 -28c-31 -50 -140 -224 -216 -348c-77 -126 -185 -310 -212 -357zM132 309l164 345h-159v-75h-57v128h274l15 -34l-167 -364h-70zM658 -8c-93 0 -150 52 -150 109c0 43 32 86 92 103c-58 17 -82 52 -82 93
c0 58 58 105 140 105c81 0 141 -47 141 -105c0 -41 -26 -76 -83 -93c60 -17 92 -60 92 -103c0 -57 -58 -109 -150 -109zM658 227c40 0 74 26 74 61c0 36 -32 60 -74 60c-43 0 -74 -24 -74 -60c0 -35 34 -61 74 -61zM658 48c50 0 83 29 83 64s-35 66 -83 66
c-49 0 -83 -31 -83 -66s33 -64 83 -64z" />
    <glyph glyph-name="zero.sup" unicode="&#x2070;" horiz-adv-x="417" 
d="M198 475c-93 0 -157 83 -157 204c0 125 65 207 158 207c92 0 156 -82 156 -205c0 -125 -64 -206 -157 -206zM198 533c56 0 91 61 91 146c0 87 -35 148 -91 148c-55 0 -90 -61 -90 -146c0 -86 35 -148 90 -148z" />
    <glyph glyph-name="one.sup" unicode="&#xb9;" horiz-adv-x="417" 
d="M72 483v57h103v275l-96 -24l-14 54l141 38h32v-343h102v-57h-268z" />
    <glyph glyph-name="two.sup" unicode="&#xb2;" horiz-adv-x="417" 
d="M67 483c-3 0 -19 29 -19 29c35 90 101 139 150 173c40 28 70 49 70 88c0 36 -31 61 -74 61c-37 0 -66 -17 -71 -27c11 -5 19 -19 19 -34c0 -21 -18 -39 -39 -39c-30 0 -43 24 -43 51c0 55 54 103 138 103c74 0 135 -46 135 -116c0 -64 -48 -96 -95 -127
c-41 -26 -88 -62 -113 -109h163v66h54v-119h-275z" />
    <glyph glyph-name="three.sup" unicode="&#xb3;" horiz-adv-x="417" 
d="M192 475c-80 0 -145 40 -145 93c0 25 18 46 42 46c23 0 39 -17 39 -40c0 -9 -3 -19 -9 -25c8 -7 34 -22 73 -22c46 0 83 25 83 65c0 36 -29 69 -103 69h-24v52h25c58 0 94 26 94 68c0 35 -34 53 -74 53c-30 0 -51 -10 -58 -17c4 -6 8 -16 8 -25c0 -21 -17 -39 -38 -39
c-22 0 -42 19 -42 47c0 34 44 86 132 86c78 0 137 -45 137 -103c0 -46 -40 -84 -87 -95c46 -10 96 -46 96 -100c0 -69 -68 -113 -149 -113z" />
    <glyph glyph-name="four.sup" unicode="&#x2074;" horiz-adv-x="417" 
d="M160 484v49h74v66h-182l-18 34l212 263l46 -37l-179 -213h121v73l56 23v-93h63v-52h-63v-63h49v-50h-179z" />
    <glyph glyph-name="five.sup" unicode="&#x2075;" horiz-adv-x="417" 
d="M189 475c-91 0 -137 42 -137 79c0 24 16 42 42 42s41 -19 41 -39c0 -6 -2 -13 -5 -17c8 -4 29 -10 54 -10c60 0 94 34 94 82c0 42 -30 73 -89 73c-34 0 -65 -8 -89 -19l-30 16l20 199h225v-59h-173l-8 -89c13 4 34 8 59 8c84 0 148 -49 148 -129
c0 -81 -66 -137 -152 -137z" />
    <glyph glyph-name="six.sup" unicode="&#x2076;" horiz-adv-x="417" 
d="M328 814c0 -26 -17 -41 -40 -41c-27 0 -39 19 -39 38c0 6 1 11 3 15c-7 4 -20 8 -33 8c-58 0 -105 -62 -108 -144c24 27 61 42 99 42c81 0 137 -54 137 -126c0 -73 -59 -131 -145 -131c-46 0 -82 18 -107 43c-34 35 -46 81 -46 147c0 141 77 223 171 223
c41 0 70 -12 88 -30c13 -14 20 -27 20 -44zM203 530c47 0 81 34 81 75c0 42 -30 72 -82 72c-49 0 -85 -31 -85 -71c0 -22 8 -40 24 -55c15 -13 36 -21 62 -21z" />
    <glyph glyph-name="seven.sup" unicode="&#x2077;" horiz-adv-x="417" 
d="M114 483l164 345h-159v-75h-57v128h274l15 -34l-167 -364h-70z" />
    <glyph glyph-name="eight.sup" unicode="&#x2078;" horiz-adv-x="417" 
d="M198 476c-93 0 -150 52 -150 109c0 43 32 86 92 103c-58 17 -82 52 -82 93c0 58 58 105 140 105c81 0 141 -47 141 -105c0 -41 -26 -76 -83 -93c60 -17 92 -60 92 -103c0 -57 -58 -109 -150 -109zM198 711c40 0 74 26 74 61c0 36 -32 60 -74 60c-43 0 -74 -24 -74 -60
c0 -35 34 -61 74 -61zM198 532c50 0 83 29 83 64s-35 66 -83 66c-49 0 -83 -31 -83 -66s33 -64 83 -64z" />
    <glyph glyph-name="nine.sup" unicode="&#x2079;" horiz-adv-x="417" 
d="M193 833c-47 0 -80 -33 -80 -74c0 -43 29 -73 81 -73c49 0 85 31 85 71c0 22 -8 41 -24 55c-15 13 -35 21 -62 21zM69 550c0 25 16 40 39 40c28 0 39 -19 39 -38c0 -6 -2 -11 -4 -15c8 -4 21 -7 34 -7c59 0 105 61 108 143c-26 -28 -61 -41 -98 -41
c-82 0 -138 53 -138 125c0 73 59 131 145 131c46 0 82 -18 107 -43c35 -35 46 -80 46 -146c0 -142 -77 -224 -170 -224c-42 0 -70 13 -88 30c-14 14 -20 28 -20 45z" />
    <glyph glyph-name="zero.inf" unicode="&#x2080;" horiz-adv-x="417" 
d="M198 -186c-93 0 -157 83 -157 204c0 125 65 207 158 207c92 0 156 -82 156 -205c0 -125 -64 -206 -157 -206zM198 -128c56 0 91 61 91 146c0 87 -35 148 -91 148c-55 0 -90 -61 -90 -146c0 -86 35 -148 90 -148z" />
    <glyph glyph-name="one.inf" unicode="&#x2081;" horiz-adv-x="417" 
d="M72 -178v57h103v275l-96 -24l-14 54l141 38h32v-343h102v-57h-268z" />
    <glyph glyph-name="two.inf" unicode="&#x2082;" horiz-adv-x="417" 
d="M67 -178c-3 0 -19 29 -19 29c35 90 101 139 150 173c40 28 70 49 70 88c0 36 -31 61 -74 61c-37 0 -66 -17 -71 -27c11 -5 19 -19 19 -34c0 -21 -18 -39 -39 -39c-30 0 -43 24 -43 51c0 55 54 103 138 103c74 0 135 -46 135 -116c0 -64 -48 -96 -95 -127
c-41 -26 -88 -62 -113 -109h163v66h54v-119h-275z" />
    <glyph glyph-name="three.inf" unicode="&#x2083;" horiz-adv-x="417" 
d="M192 -186c-80 0 -145 40 -145 93c0 25 18 46 42 46c23 0 39 -17 39 -40c0 -9 -3 -19 -9 -25c8 -7 34 -22 73 -22c46 0 83 25 83 65c0 36 -29 69 -103 69h-24v52h25c58 0 94 26 94 68c0 35 -34 53 -74 53c-30 0 -51 -10 -58 -17c4 -6 8 -16 8 -25c0 -21 -17 -39 -38 -39
c-22 0 -42 19 -42 47c0 34 44 86 132 86c78 0 137 -45 137 -103c0 -46 -40 -84 -87 -95c46 -10 96 -46 96 -100c0 -69 -68 -113 -149 -113z" />
    <glyph glyph-name="four.inf" unicode="&#x2084;" horiz-adv-x="417" 
d="M160 -177v49h74v66h-182l-18 34l212 263l46 -37l-179 -213h121v73l56 23v-93h63v-52h-63v-63h49v-50h-179z" />
    <glyph glyph-name="five.inf" unicode="&#x2085;" horiz-adv-x="417" 
d="M189 -186c-91 0 -137 42 -137 79c0 24 16 42 42 42s41 -19 41 -39c0 -6 -2 -13 -5 -17c8 -4 29 -10 54 -10c60 0 94 34 94 82c0 42 -30 73 -89 73c-34 0 -65 -8 -89 -19l-30 16l20 199h225v-59h-173l-8 -89c13 4 34 8 59 8c84 0 148 -49 148 -129
c0 -81 -66 -137 -152 -137z" />
    <glyph glyph-name="six.inf" unicode="&#x2086;" horiz-adv-x="417" 
d="M328 153c0 -26 -17 -41 -40 -41c-27 0 -39 19 -39 38c0 6 1 11 3 15c-7 4 -20 8 -33 8c-58 0 -105 -62 -108 -144c24 27 61 42 99 42c81 0 137 -54 137 -126c0 -73 -59 -131 -145 -131c-46 0 -82 18 -107 43c-34 35 -46 81 -46 147c0 141 77 223 171 223
c41 0 70 -12 88 -30c13 -14 20 -27 20 -44zM203 -131c47 0 81 34 81 75c0 42 -30 72 -82 72c-49 0 -85 -31 -85 -71c0 -22 8 -40 24 -55c15 -13 36 -21 62 -21z" />
    <glyph glyph-name="seven.inf" unicode="&#x2087;" horiz-adv-x="417" 
d="M114 -178l164 345h-159v-75h-57v128h274l15 -34l-167 -364h-70z" />
    <glyph glyph-name="eight.inf" unicode="&#x2088;" horiz-adv-x="417" 
d="M198 -185c-93 0 -150 52 -150 109c0 43 32 86 92 103c-58 17 -82 52 -82 93c0 58 58 105 140 105c81 0 141 -47 141 -105c0 -41 -26 -76 -83 -93c60 -17 92 -60 92 -103c0 -57 -58 -109 -150 -109zM198 50c40 0 74 26 74 61c0 36 -32 60 -74 60c-43 0 -74 -24 -74 -60
c0 -35 34 -61 74 -61zM198 -129c50 0 83 29 83 64s-35 66 -83 66c-49 0 -83 -31 -83 -66s33 -64 83 -64z" />
    <glyph glyph-name="nine.inf" unicode="&#x2089;" horiz-adv-x="417" 
d="M193 172c-47 0 -80 -33 -80 -74c0 -43 29 -73 81 -73c49 0 85 31 85 71c0 22 -8 41 -24 55c-15 13 -35 21 -62 21zM69 -111c0 25 16 40 39 40c28 0 39 -19 39 -38c0 -6 -2 -11 -4 -15c8 -4 21 -7 34 -7c59 0 105 61 108 143c-26 -28 -61 -41 -98 -41
c-82 0 -138 53 -138 125c0 73 59 131 145 131c46 0 82 -18 107 -43c35 -35 46 -80 46 -146c0 -142 -77 -224 -170 -224c-42 0 -70 13 -88 30c-14 14 -20 28 -20 45z" />
    <glyph glyph-name="zero.tab" 
d="M295 -13c-147 0 -247 147 -247 374c0 231 99 376 247 376s247 -145 247 -376c0 -227 -100 -374 -247 -374zM295 649c-97 0 -150 -116 -150 -286c0 -171 53 -288 150 -288s150 117 150 288c0 170 -53 286 -150 286z" />
    <glyph glyph-name="one.tab" 
d="M85 0v84h175v542l-165 -43l-21 82l230 62h50v-643h171v-84h-440z" />
    <glyph glyph-name="two.tab" 
d="M517 533c0 -116 -77 -173 -168 -240c-88 -64 -159 -131 -188 -213h283v114h83v-194h-454l-27 44c44 150 150 241 242 311c76 56 133 100 133 179c0 69 -61 119 -134 119c-63 0 -108 -23 -129 -56v-1c22 -9 36 -31 36 -56c0 -34 -28 -63 -63 -63c-45 0 -69 35 -69 83
c0 25 7 51 21 74c34 58 108 103 211 103c121 0 223 -80 223 -204z" />
    <glyph glyph-name="three.tab" 
d="M280 -13c-92 0 -177 40 -216 96c-16 20 -24 45 -24 69c0 41 28 75 66 75c35 0 62 -28 62 -62c0 -19 -10 -37 -24 -47v-1c24 -27 79 -50 136 -49c92 0 157 57 157 127c0 53 -28 93 -82 116c-33 14 -72 21 -122 21h-35v84h39c48 0 88 10 120 29c39 23 63 59 63 104
c0 70 -60 106 -139 106c-57 0 -98 -20 -117 -41v-1c13 -10 24 -25 24 -45c0 -34 -27 -62 -62 -62c-33 0 -65 29 -65 74c0 21 7 43 22 65c33 47 101 92 202 92c130 0 231 -73 231 -186c0 -63 -36 -114 -92 -146c-21 -11 -47 -22 -72 -27c25 -5 50 -13 72 -24
c62 -31 108 -86 108 -161c0 -123 -110 -206 -252 -206z" />
    <glyph glyph-name="four.tab" 
d="M226 0v77h121v132h-312l-20 42l358 494l69 -53l-295 -407h200v144l94 40v-183h114v-78h-114v-129h89v-79h-304z" />
    <glyph glyph-name="five.tab" 
d="M280 -13c-85 0 -149 25 -187 60c-25 23 -37 49 -37 75c0 37 25 68 65 68c37 0 63 -29 63 -62c0 -14 -4 -24 -11 -33v-1c22 -16 59 -24 104 -24c105 0 170 69 170 163c0 79 -59 145 -167 145c-53 0 -113 -15 -151 -34l-42 22l35 358h375v-89h-298l-19 -189
c25 8 63 17 111 17c137 0 249 -86 249 -230c0 -151 -115 -246 -260 -246z" />
    <glyph glyph-name="six.tab" 
d="M451 542c-40 0 -63 30 -63 61c0 15 4 26 10 35c-16 10 -41 17 -69 17c-101 0 -177 -118 -185 -287c7 8 14 16 22 23c39 37 97 57 148 57c138 0 230 -96 230 -227s-101 -234 -237 -234c-74 0 -134 28 -176 74c-54 57 -78 144 -78 260c0 284 137 416 282 416
c55 0 102 -16 135 -43c27 -23 43 -52 43 -85c0 -45 -29 -67 -62 -67zM308 69c80 0 141 65 141 149c0 88 -61 149 -146 149c-82 0 -146 -64 -146 -146c0 -41 17 -80 44 -107c27 -28 65 -45 107 -45z" />
    <glyph glyph-name="seven.tab" 
d="M141 0l297 644h-302v-124h-86v204h482l20 -44l-309 -680h-102z" />
    <glyph glyph-name="eight.tab" 
d="M295 737c127 0 229 -77 229 -199c0 -72 -50 -136 -130 -163c81 -20 146 -94 146 -180c0 -120 -100 -208 -245 -208c-146 0 -246 88 -246 208c0 86 65 160 146 180c-80 27 -130 91 -130 163c0 122 102 199 230 199zM295 411c72 0 132 53 132 121c0 73 -57 123 -132 123
c-76 0 -133 -50 -133 -123c0 -68 60 -121 133 -121zM295 70c86 0 148 56 148 131c0 72 -64 134 -148 134c-85 0 -149 -62 -149 -134c0 -75 62 -131 149 -131z" />
    <glyph glyph-name="nine.tab" 
d="M281 655c-80 0 -142 -66 -142 -152c0 -89 62 -151 146 -151c83 0 147 65 147 148c0 42 -17 81 -44 109c-27 27 -66 46 -107 46zM535 403c0 -284 -135 -416 -278 -416c-53 0 -102 16 -138 43c-28 22 -46 52 -46 85c0 44 30 66 63 66c39 0 63 -30 63 -61
c0 -16 -5 -25 -11 -34v-1c14 -11 42 -17 75 -17c97 0 171 115 180 281c-6 -7 -13 -15 -20 -21c-40 -37 -98 -57 -148 -57c-139 0 -231 96 -231 229s101 237 238 237c73 0 134 -28 176 -74c54 -58 77 -144 77 -260z" />
    <glyph glyph-name="period.tab" horiz-adv-x="295" 
d="M147 -10c-42 0 -75 34 -75 77s33 77 75 77c43 0 76 -34 76 -77s-33 -77 -76 -77z" />
    <glyph glyph-name="comma.tab" horiz-adv-x="295" 
d="M52 -177l-25 34c74 57 104 111 105 142c-34 7 -61 36 -61 73c0 38 34 71 74 71c43 0 80 -32 80 -94c0 -64 -44 -156 -173 -226z" />
    <glyph glyph-name="colon.tab" horiz-adv-x="295" 
d="M147 282c-42 0 -74 33 -74 75s32 76 74 76s75 -34 75 -76s-33 -75 -75 -75zM147 -10c-42 0 -74 34 -74 76s32 75 74 75s75 -33 75 -75s-33 -76 -75 -76z" />
    <glyph glyph-name="semicolon.tab" horiz-adv-x="295" 
d="M147 282c-42 0 -74 33 -74 75s32 76 74 76s75 -34 75 -76s-33 -75 -75 -75zM54 -175l-25 35c73 56 102 108 104 139c-34 7 -60 36 -60 71c0 38 33 70 72 70c42 0 79 -32 79 -92c0 -63 -43 -153 -170 -223z" />
    <glyph glyph-name="twodotleader.tab" 
d="M441 -10c-43 0 -76 34 -76 77s33 77 76 77c42 0 75 -34 75 -77s-33 -77 -75 -77zM149 -10c-42 0 -75 34 -75 77s33 77 75 77c43 0 76 -34 76 -77s-33 -77 -76 -77z" />
    <glyph glyph-name="periodcentered.tab" horiz-adv-x="295" 
d="M147 205c-42 0 -75 34 -75 77s33 77 75 77c43 0 76 -34 76 -77s-33 -77 -76 -77z" />
    <glyph glyph-name="slash.tab" 
d="M77 -233l-73 37l480 1016l73 -37z" />
    <glyph glyph-name="bar.tab" horiz-adv-x="295" 
d="M108 -220v1025h79v-1025h-79z" />
    <glyph glyph-name="underscore.tab" 
d="M-4 -169v85h597v-85h-597z" />
    <glyph glyph-name="dollar.tab" 
d="M167 540c0 -57 40 -89 97 -113l20 218c-68 -6 -117 -49 -117 -105zM443 194c0 63 -44 94 -121 121l-21 -237c82 3 142 46 142 116zM155 123c15 -16 45 -31 79 -39l23 252c-95 34 -178 86 -178 196c0 105 81 186 209 192l9 99l75 -6l-8 -99c100 -17 168 -75 167 -142
c0 -43 -27 -68 -61 -68c-39 0 -64 30 -64 61c0 18 6 30 14 40c-13 13 -38 25 -69 31l-21 -236c109 -36 202 -87 202 -202c0 -126 -101 -199 -234 -202l-11 -113l-75 6l11 113c-107 20 -179 86 -179 149c0 44 30 74 66 74s61 -29 61 -58c0 -20 -7 -35 -16 -48z" />
    <glyph glyph-name="sterling.tab" 
d="M30 40c0 33 27 72 118 69c33 40 43 91 43 142c0 6 0 12 -1 18h-120v77h105l-10 32c-16 44 -32 94 -32 152c0 118 86 206 206 206c103 0 180 -64 180 -136c0 -37 -26 -70 -64 -70c-39 0 -63 27 -63 58c0 16 6 30 14 40c-11 16 -35 29 -72 29c-65 0 -113 -51 -113 -127
c0 -54 14 -98 26 -138c4 -15 9 -30 13 -46h179v-77h-168c1 -6 1 -11 1 -17c0 -64 -18 -113 -42 -141c32 0 63 -8 93 -18c51 -15 72 -22 96 -22c45 0 62 19 84 70l65 -30c-25 -86 -67 -123 -145 -123c-41 0 -68 9 -120 29c-36 13 -68 22 -112 23h-1c-27 -34 -66 -55 -99 -54
c-40 0 -61 22 -61 54z" />
    <glyph glyph-name="Euro.tab" 
d="M421 555c0 23 11 43 29 54c-15 20 -48 47 -98 47c-83 0 -138 -70 -159 -182h175v-74h-184c-1 -14 -1 -27 -1 -41c0 -16 0 -32 1 -47h184v-76h-173c23 -100 75 -165 157 -165c56 0 99 29 145 85l56 -56c-53 -73 -123 -114 -205 -114c-127 0 -214 100 -245 247h-71v78h60
c-1 15 -1 31 -1 48c0 13 0 27 1 40h-60v78h70c32 162 132 261 257 261c111 0 194 -86 194 -167c0 -42 -27 -78 -70 -78c-35 0 -62 29 -62 62z" />
    <glyph glyph-name="yen.tab" 
d="M153 0v73h96v81h-158v71h158v66h-158v72h130l-153 282h-65v79h239v-78h-79l134 -257l133 257h-82v78h239v-79h-69l-150 -282h130v-72h-158v-66h158v-71h-158v-81h97v-73h-284z" />
    <glyph glyph-name="cent.tab" 
d="M150 378c0 -71 39 -131 107 -158l30 329c-75 -12 -137 -67 -137 -171zM514 258l-7 -82c-49 -31 -112 -46 -175 -46h-16l-14 -153l-70 6l15 158c-116 31 -188 126 -188 239c0 125 98 231 232 243l12 117l70 -6l-11 -114c94 -17 165 -80 165 -142c0 -39 -28 -69 -63 -69
c-28 0 -55 23 -55 55c0 15 6 30 21 43c-13 20 -42 36 -77 42l-32 -343c6 -1 13 -1 20 -1c56 0 112 17 173 53z" />
    <glyph glyph-name="numbersign.tab" 
d="M251 451l-28 -189h115l27 189h-114zM62 448v75h121l29 200h82l-30 -200h108l29 200h82l-29 -200h117v-75h-128l-26 -183h111l-4 -76h-118l-27 -189h-83l27 189h-107l-27 -189h-82l27 189h-116v76h127l27 183h-110z" />
    <glyph glyph-name="paragraph.tab" 
d="M27 493c0 142 104 231 253 231h277v-84h-76v-556h76v-84h-371v84h90v171c-8 -1 -3 -1 -16 -1c-128 0 -233 86 -233 239zM351 79h52v566h-52v-566z" />
    <glyph glyph-name="section.tab" 
d="M294 440c-19 4 -36 8 -52 13c-48 -17 -90 -45 -90 -84c0 -37 34 -59 144 -86l51 -13c51 18 91 46 91 84c0 37 -35 60 -144 86zM137 160c36 0 62 -23 62 -57c0 -7 -1 -14 -5 -24c16 -11 61 -20 90 -20c79 0 115 29 115 64c0 39 -35 55 -143 84c-117 32 -202 68 -202 148
c0 64 51 105 112 128c-48 25 -73 58 -73 111c0 69 76 143 212 143c52 0 100 -10 136 -29c42 -20 68 -50 68 -87c0 -32 -23 -58 -56 -58c-36 0 -62 23 -62 57c0 10 1 18 4 26l-7 3c-20 10 -58 15 -82 15c-79 0 -115 -28 -115 -64c0 -39 35 -54 143 -83
c117 -32 202 -69 202 -149c0 -65 -51 -104 -111 -127c45 -23 72 -55 72 -110c0 -72 -76 -144 -212 -144c-70 0 -134 18 -171 50c-21 19 -33 41 -33 65c0 32 23 58 56 58z" />
    <glyph glyph-name="degree.tab" 
d="M292 420c-117 0 -194 90 -194 198s77 198 194 198c118 0 195 -90 195 -198s-77 -198 -195 -198zM292 757c-79 0 -132 -62 -132 -139s53 -139 132 -139c80 0 133 62 133 139s-53 139 -133 139z" />
    <glyph glyph-name="percent.tab" 
d="M30 576c0 92 53 161 130 161c76 0 130 -69 130 -161s-54 -162 -130 -162c-77 0 -130 70 -130 162zM100 -12l-44 27c4 7 176 286 219 358c42 72 212 354 216 362l44 -27c-5 -8 -177 -288 -220 -361c-42 -72 -212 -353 -215 -359zM88 576c0 -62 29 -110 72 -110
s71 48 71 110c0 61 -28 109 -71 109s-72 -48 -72 -109zM299 149c0 91 55 161 130 161s130 -70 130 -161c0 -92 -55 -162 -130 -162s-130 70 -130 162zM360 149c0 -62 28 -109 69 -109c42 0 70 47 70 109c0 61 -28 107 -70 107c-41 0 -69 -46 -69 -107z" />
    <glyph glyph-name="quotedbl.tab" 
d="M391 460l-40 254c-10 56 17 90 59 90s69 -33 60 -90l-41 -254h-38zM159 460l-41 254c-9 56 18 90 60 90s69 -33 60 -90l-42 -254h-37z" />
    <glyph glyph-name="quotesingle.tab" horiz-adv-x="295" 
d="M127 460l-41 254c-9 56 18 90 60 90s69 -33 60 -90l-42 -254h-37z" />
    <glyph glyph-name="plus.tab" 
d="M255 160v170h-170v78h170v170h79v-170h170v-78h-170v-170h-79z" />
    <glyph glyph-name="minus.tab" 
d="M85 330v78h419v-78h-419z" />
    <glyph glyph-name="divide.tab" 
d="M295 486c-33 0 -61 27 -61 60s29 61 62 61c32 0 59 -28 59 -61s-28 -60 -60 -60zM504 330h-419v78h419v-78zM295 131c-33 0 -61 28 -61 61s29 60 62 60c32 0 59 -27 59 -60s-28 -61 -60 -61z" />
    <glyph glyph-name="equal.tab" 
d="M85 430v78h419v-78h-419zM85 220v78h419v-78h-419z" />
    <glyph glyph-name="multiply.tab" 
d="M430 171l-136 142l-135 -141l-56 56l136 140l-137 142l57 56l136 -142l135 142l56 -56l-136 -141l136 -141z" />
    <glyph glyph-name="less.tab" 
d="M423 129l-322 220v33l322 219l42 -59l-260 -177l260 -176z" />
    <glyph glyph-name="greater.tab" 
d="M166 601l322 -219v-33l-322 -220l-42 60l260 176l-260 177z" />
    <glyph glyph-name="plusminus.tab" 
d="M255 242v170h-170v78h170v170h79v-170h170v-78h-170v-170h-79zM85 73v77h419v-77h-419z" />
    <glyph glyph-name="zero.idx_P2D" horiz-adv-x="1218" 
d="M609 877c307 0 541 -248 541 -547s-234 -547 -541 -547s-541 248 -541 547s234 547 541 547zM609 818c-270 0 -475 -221 -475 -488s205 -488 475 -488s475 221 475 488s-205 488 -475 488zM608 70c-117 0 -214 109 -214 267c0 160 98 267 216 267
c116 0 214 -108 214 -266c0 -160 -98 -268 -216 -268zM608 145c82 0 133 81 133 192c0 112 -51 192 -133 192c-80 0 -131 -79 -131 -191s51 -193 131 -193z" />
    <glyph glyph-name="one.idx_P2D" horiz-adv-x="1218" 
d="M609 877c307 0 541 -248 541 -547s-234 -547 -541 -547s-541 248 -541 547s234 547 541 547zM609 818c-270 0 -475 -221 -475 -488s205 -488 475 -488s475 221 475 488s-205 488 -475 488zM766 81h-307v72h115v359l-109 -22l-15 69l164 37h40v-443h112v-72z" />
    <glyph glyph-name="two.idx_P2D" horiz-adv-x="1218" 
d="M609 877c307 0 541 -248 541 -547s-234 -547 -541 -547s-541 248 -541 547s234 547 541 547zM609 818c-270 0 -475 -221 -475 -488s205 -488 475 -488s475 221 475 488s-205 488 -475 488zM430 472c0 20 6 39 17 56c27 45 85 76 164 76c94 0 174 -60 174 -149
c0 -83 -62 -125 -125 -166c-53 -34 -115 -80 -145 -141h213v85h68v-152h-357l-23 36c44 116 129 179 194 223c53 36 93 64 93 116c0 44 -42 77 -99 77c-41 0 -76 -14 -90 -30l-3 -2c16 -9 25 -28 25 -44c0 -28 -23 -50 -50 -50c-38 0 -56 30 -56 65z" />
    <glyph glyph-name="three.idx_P2D" horiz-adv-x="1218" 
d="M609 877c307 0 541 -248 541 -547s-234 -547 -541 -547s-541 248 -541 547s234 547 541 547zM609 818c-270 0 -475 -221 -475 -488s205 -488 475 -488s475 221 475 488s-205 488 -475 488zM422 190c0 32 22 58 53 58c28 0 50 -22 50 -49c0 -13 -5 -25 -14 -33
c16 -15 55 -26 96 -26c60 0 110 32 110 81c0 34 -17 61 -55 76c-22 10 -51 15 -88 15h-25v67h28c35 0 66 7 88 21c25 16 39 38 39 67c0 47 -45 67 -96 67c-38 0 -64 -8 -76 -20c6 -8 12 -20 12 -31c0 -27 -23 -49 -51 -49c-27 0 -52 23 -52 59c0 15 6 33 19 49
c26 32 76 61 151 61c99 0 175 -55 175 -133c0 -42 -22 -78 -56 -100c-14 -10 -31 -18 -51 -22c17 -4 34 -10 49 -19c39 -22 70 -58 70 -112c0 -90 -85 -146 -191 -146c-67 0 -127 25 -159 61c-16 17 -26 38 -26 58z" />
    <glyph glyph-name="four.idx_P2D" horiz-adv-x="1218" 
d="M609 877c307 0 541 -248 541 -547s-234 -547 -541 -547s-541 248 -541 547s234 547 541 547zM609 818c-270 0 -475 -221 -475 -488s205 -488 475 -488s475 221 475 488s-205 488 -475 488zM541 81v65h91v84h-238l-19 36l277 345l59 -45l-224 -275h145v91l76 31v-120h83
v-66h-83v-80h64v-66h-231z" />
    <glyph glyph-name="five.idx_P2D" horiz-adv-x="1218" 
d="M609 877c307 0 541 -248 541 -547s-234 -547 -541 -547s-541 248 -541 547s234 547 541 547zM609 818c-270 0 -475 -221 -475 -488s205 -488 475 -488s475 221 475 488s-205 488 -475 488zM604 70c-109 0 -175 53 -175 101c0 30 20 54 52 54c31 0 51 -25 51 -50
c0 -8 -3 -17 -6 -21c10 -6 40 -14 72 -14c71 0 110 46 110 107c0 53 -36 95 -110 95c-32 0 -83 -8 -112 -23l-35 20l24 255h280v-74h-215l-11 -116c16 4 53 10 81 10c98 0 177 -64 177 -166c0 -107 -79 -178 -183 -178z" />
    <glyph glyph-name="six.idx_P2D" horiz-adv-x="1218" 
d="M609 877c307 0 541 -248 541 -547s-234 -547 -541 -547s-541 248 -541 547s234 547 541 547zM609 818c-270 0 -475 -221 -475 -488s205 -488 475 -488s475 221 475 488s-205 488 -475 488zM772 510c0 -37 -23 -53 -49 -53c-34 0 -50 25 -50 48c0 8 0 14 2 22
c-12 4 -31 7 -46 7c-76 0 -137 -75 -141 -187c28 31 77 55 128 55c104 0 181 -70 181 -163c0 -94 -80 -169 -188 -169c-58 0 -104 21 -138 55c-42 42 -60 104 -60 190c0 188 100 289 218 289c38 0 73 -9 98 -25c28 -17 45 -41 45 -69zM495 241c0 -27 13 -53 34 -71
c21 -19 50 -30 82 -30c59 0 104 43 104 98c0 56 -45 94 -111 94c-61 0 -109 -38 -109 -91z" />
    <glyph glyph-name="seven.idx_P2D" horiz-adv-x="1218" 
d="M609 877c307 0 541 -248 541 -547s-234 -547 -541 -547s-541 248 -541 547s234 547 541 547zM609 818c-270 0 -475 -221 -475 -488s205 -488 475 -488s475 221 475 488s-205 488 -475 488zM587 81h-87l216 446h-201v-95h-72v162h346l19 -42z" />
    <glyph glyph-name="eight.idx_P2D" horiz-adv-x="1218" 
d="M609 877c307 0 541 -248 541 -547s-234 -547 -541 -547s-541 248 -541 547s234 547 541 547zM609 818c-270 0 -475 -221 -475 -488s205 -488 475 -488s475 221 475 488s-205 488 -475 488zM608 71c-119 0 -191 66 -191 148c0 58 43 111 106 127c-62 17 -95 64 -95 113
c0 84 76 144 180 144s181 -60 181 -144c0 -49 -35 -96 -96 -113c64 -16 107 -69 107 -127c0 -82 -73 -148 -192 -148zM608 373c53 0 98 36 98 82c0 48 -43 80 -98 80s-97 -32 -97 -80c0 -46 45 -82 97 -82zM608 140c65 0 110 38 110 86c0 46 -46 87 -110 87
c-63 0 -109 -41 -109 -87c0 -48 44 -86 109 -86z" />
    <glyph glyph-name="nine.idx_P2D" horiz-adv-x="1218" 
d="M609 877c307 0 541 -248 541 -547s-234 -547 -541 -547s-541 248 -541 547s234 547 541 547zM609 818c-270 0 -475 -221 -475 -488s205 -488 475 -488s475 221 475 488s-205 488 -475 488zM724 433c0 28 -13 54 -33 72c-21 19 -50 30 -82 30c-59 0 -105 -44 -105 -98
c0 -58 45 -96 111 -96c61 0 109 39 109 92zM446 165c0 37 24 52 50 52c32 0 50 -24 50 -48c0 -8 -2 -15 -4 -20c12 -6 30 -8 49 -8c75 0 136 73 139 184c-28 -30 -77 -53 -127 -53c-103 0 -180 69 -180 162c0 96 80 170 188 170c57 0 103 -22 136 -55
c43 -43 62 -105 62 -190c0 -188 -99 -289 -219 -289c-50 0 -96 17 -122 44c-14 15 -22 32 -22 51z" />
    <glyph glyph-name="space" unicode=" " horiz-adv-x="262" 
 />
    <glyph glyph-name="uni00A0" unicode="&#xa0;" horiz-adv-x="262" 
 />
    <glyph glyph-name="emspace" unicode="&#x2003;" horiz-adv-x="1000" 
 />
    <glyph glyph-name="enspace" unicode="&#x2002;" horiz-adv-x="500" 
 />
    <glyph glyph-name="threeperemspace" unicode="&#x2004;" horiz-adv-x="333" 
 />
    <glyph glyph-name="fourperemspace" unicode="&#x2005;" horiz-adv-x="250" 
 />
    <glyph glyph-name="thinspace" unicode="&#x2009;" horiz-adv-x="133" 
 />
    <glyph glyph-name="hairspace" unicode="&#x200a;" horiz-adv-x="75" 
 />
    <glyph glyph-name="space.tab" horiz-adv-x="295" 
 />
    <glyph glyph-name="figurespace" unicode="&#x2007;" 
 />
    <glyph glyph-name="NUL" horiz-adv-x="0" 
 />
    <glyph glyph-name="A.sc" horiz-adv-x="688" 
d="M342 522l-91 -251h182zM169 595h350v-79h-85l163 -438h69v-78h-252v77h90l-43 117h-237l-42 -117h89v-77h-250v78h71l162 438h-85v79z" />
    <glyph glyph-name="B.sc" horiz-adv-x="627" 
d="M348 0h-295v78h98v438h-98v79h285c150 0 212 -69 212 -153c0 -72 -45 -118 -109 -137c78 -20 126 -64 126 -141c0 -97 -74 -164 -219 -164zM243 336h93c80 0 121 37 121 94c0 55 -42 87 -121 87h-93v-181zM243 77h108c78 0 122 37 122 95c0 63 -47 95 -132 95h-98v-190z
" />
    <glyph glyph-name="C.sc" horiz-adv-x="658" 
d="M544 151l56 -62c-60 -64 -147 -102 -239 -102c-185 0 -307 137 -307 310c0 178 132 313 313 313c132 0 228 -79 228 -153c0 -43 -26 -73 -65 -73c-38 0 -64 24 -64 61c0 17 8 32 17 39c-18 19 -59 43 -120 43c-124 0 -214 -95 -214 -229c0 -135 92 -227 212 -227
c74 0 134 30 183 80z" />
    <glyph glyph-name="D.sc" horiz-adv-x="709" 
d="M308 0h-255v78h98v438h-98v79h261c211 0 342 -113 342 -292c0 -181 -123 -303 -348 -303zM243 78h78c161 0 241 91 241 225s-95 213 -248 213h-71v-438z" />
    <glyph glyph-name="E.sc" horiz-adv-x="606" 
d="M539 0h-486v78h98v438h-98v79h485v-185h-86v107h-209v-181h187v-76h-187v-183h210v105h86v-182z" />
    <glyph glyph-name="F.sc" horiz-adv-x="581" 
d="M345 0h-292v78h98v438h-98v79h483v-185h-87v107h-206v-188h183v-75h-183v-176h102v-78z" />
    <glyph glyph-name="G.sc" horiz-adv-x="692" 
d="M366 527c-128 0 -217 -97 -217 -230c0 -135 96 -228 211 -228c61 0 114 15 157 46v111h-156v76h246v-302h-88v44c-43 -32 -100 -57 -175 -57c-150 0 -290 117 -290 308c0 189 140 315 317 315c140 0 232 -78 232 -149c0 -43 -26 -71 -64 -71s-64 23 -64 59
c0 16 7 31 15 39c-21 18 -65 39 -124 39z" />
    <glyph glyph-name="H.sc" horiz-adv-x="784" 
d="M53 0v78h98v438h-98v79h289v-79h-99v-179h298v179h-99v79h289v-79h-98v-438h98v-78h-289v78h99v180h-298v-180h99v-78h-289z" />
    <glyph glyph-name="I.sc" horiz-adv-x="399" 
d="M346 0h-293v78h100v438h-100v79h293v-79h-100v-438h100v-78z" />
    <glyph glyph-name="J.sc" horiz-adv-x="536" 
d="M218 71c28 0 54 8 72 27c21 24 31 60 31 111v307h-101v79h283v-79h-91v-309c0 -73 -19 -132 -55 -168c-35 -35 -82 -52 -138 -52c-103 0 -186 69 -186 155c0 47 28 78 68 78c33 0 61 -25 61 -58c0 -21 -12 -41 -30 -48c8 -18 37 -43 86 -43z" />
    <glyph glyph-name="K.sc" horiz-adv-x="695" 
d="M588 516l-189 -186l173 -252h95v-78h-153l-182 270l-88 -86v-106h95l1 -78h-287v78h99v438h-99v79h277v-78h-86v-234l238 234h-83v78h260v-79h-71z" />
    <glyph glyph-name="L.sc" horiz-adv-x="572" 
d="M448 78v113h86v-191h-481v78h98v438h-98v79h291v-79h-101v-438h205z" />
    <glyph glyph-name="M.sc" horiz-adv-x="872" 
d="M621 595h186v-79h-97l21 -438h97v-78h-287v78h97l-13 363l-179 -346h-22l-181 346l-13 -363h100v-78h-286v78h98l19 438h-97v79h188l186 -360z" />
    <glyph glyph-name="N.sc" horiz-adv-x="769" 
d="M230 595l318 -415v336h-96v79h281v-79h-97v-519h-61l-336 442v-361h94v-78h-280v78h98v438h-98v79h177z" />
    <glyph glyph-name="O.sc" horiz-adv-x="722" 
d="M361 610c184 0 308 -138 308 -310c0 -175 -123 -313 -308 -313s-307 138 -307 313c0 172 123 310 307 310zM361 71c123 0 213 91 213 227c0 134 -89 227 -213 227c-123 0 -212 -92 -212 -227c0 -136 89 -227 212 -227z" />
    <glyph glyph-name="P.sc" horiz-adv-x="591" 
d="M321 281c83 0 134 47 134 121c0 70 -58 114 -136 114h-76v-233c15 -1 47 -2 78 -2zM53 595h267c128 0 228 -74 228 -192c0 -130 -95 -199 -235 -199c-26 0 -54 0 -70 1v-127h99v-78h-289v78h98v438h-98v79z" />
    <glyph glyph-name="Q.sc" horiz-adv-x="722" 
d="M588 -131c-89 0 -144 53 -195 87c-29 19 -50 26 -84 34c-66 14 -121 38 -167 84c-56 55 -88 136 -88 226c0 172 123 310 307 310s308 -138 308 -310c0 -141 -82 -256 -209 -293c9 -4 22 -11 34 -18c31 -21 55 -35 88 -35c26 0 49 8 80 31l44 -71
c-37 -33 -75 -45 -118 -45zM361 71c121 0 213 95 213 227c0 134 -89 227 -213 227c-123 0 -212 -92 -212 -227c0 -68 24 -126 62 -166c37 -38 90 -61 150 -61z" />
    <glyph glyph-name="Q.sc_alt" horiz-adv-x="722" 
d="M669 300c0 -107 -46 -200 -124 -256l63 -99l-69 -44l-67 105c-34 -12 -71 -19 -111 -19c-185 0 -307 138 -307 313c0 172 123 310 307 310s308 -138 308 -310zM574 298c0 134 -89 227 -213 227c-123 0 -212 -92 -212 -227c0 -136 89 -227 212 -227c22 0 44 3 64 9l-61 95
l70 45l64 -101c47 40 76 102 76 179z" />
    <glyph glyph-name="R.sc" horiz-adv-x="646" 
d="M322 516h-79v-206c19 -2 50 -3 79 -3c86 0 143 40 143 108c0 64 -55 101 -143 101zM243 231v-153h94v-78h-284v78h98v438h-98v79h274c138 0 231 -63 231 -179c0 -77 -48 -135 -117 -163l99 -175h88v-78h-154l-124 231c-20 -2 -33 -2 -42 -2c-18 0 -46 0 -65 2z" />
    <glyph glyph-name="S.sc" horiz-adv-x="564" 
d="M372 472c0 15 5 27 11 35c-16 13 -55 25 -99 25c-69 0 -115 -32 -115 -83c0 -56 69 -78 130 -101c105 -37 205 -73 205 -184c0 -116 -95 -177 -224 -177c-127 0 -224 67 -224 140c0 42 23 69 61 69s65 -27 65 -58c0 -16 -5 -30 -12 -41c19 -17 60 -32 113 -32
c80 0 130 32 130 91c0 56 -70 80 -130 102c-111 39 -207 72 -207 183c0 99 85 169 213 169c118 0 207 -59 207 -133c0 -39 -26 -64 -58 -64c-43 0 -66 29 -66 59z" />
    <glyph glyph-name="T.sc" horiz-adv-x="632" 
d="M170 0v78h100v440h-140v-114h-86v191h544v-191h-86v114h-140v-440h100v-78h-292z" />
    <glyph glyph-name="U.sc" horiz-adv-x="723" 
d="M219 516v-295c0 -98 55 -155 143 -155s143 54 143 153v297h-95v79h278v-79h-92v-292c0 -156 -92 -237 -235 -237c-145 0 -234 79 -234 234v295h-92v79h280v-79h-96z" />
    <glyph glyph-name="V.sc" horiz-adv-x="666" 
d="M302 -9l-216 525h-70v79h255v-79h-87l152 -389l152 389h-88v79h251v-79h-71l-216 -525h-62z" />
    <glyph glyph-name="W.sc" horiz-adv-x="927" 
d="M259 -11l-161 527h-81v79h270v-79h-91l108 -369l141 371h44l142 -371l108 369h-93v79h264v-79h-80l-162 -527h-62l-143 373l-141 -373h-63z" />
    <glyph glyph-name="X.sc" horiz-adv-x="683" 
d="M652 80v-80h-261v77h81l-135 177l-133 -177h88v-77h-262v80h77l177 224l-167 212h-77v79h260v-78h-78l122 -163l121 163h-78v78h256v-79h-82l-165 -212l180 -224h76z" />
    <glyph glyph-name="Y.sc" horiz-adv-x="626" 
d="M615 595v-79h-74l-182 -294v-144h99v-78h-291v78h100v144l-183 294h-73v79h257v-78h-85l132 -222l133 222h-88v78h255z" />
    <glyph glyph-name="Z.sc" horiz-adv-x="594" 
d="M54 0v52l358 466h-261v-110h-81v187h471v-52l-357 -466h276v109h82v-186h-488z" />
    <glyph glyph-name="Aacute.sc" horiz-adv-x="688" 
d="M315 669l-27 30l137 153c16 18 35 29 54 29c26 0 49 -20 49 -51c0 -18 -14 -39 -39 -55zM342 522l-91 -251h182zM169 595h350v-79h-85l163 -438h69v-78h-252v77h90l-43 117h-237l-42 -117h89v-77h-250v78h71l162 438h-85v79z" />
    <glyph glyph-name="Abreve.sc" horiz-adv-x="688" 
d="M342 677c-87 0 -160 61 -192 169l62 26c28 -70 78 -106 130 -106c54 0 102 40 129 106l62 -26c-31 -108 -105 -169 -191 -169zM342 522l-91 -251h182zM169 595h350v-79h-85l163 -438h69v-78h-252v77h90l-43 117h-237l-42 -117h89v-77h-250v78h71l162 438h-85v79z" />
    <glyph glyph-name="Acircumflex.sc" horiz-adv-x="688" 
d="M198 667l-41 48l186 179l185 -179l-41 -48l-144 109zM342 522l-91 -251h182zM169 595h350v-79h-85l163 -438h69v-78h-252v77h90l-43 117h-237l-42 -117h89v-77h-250v78h71l162 438h-85v79z" />
    <glyph glyph-name="Adieresis.sc" horiz-adv-x="688" 
d="M237 687c-39 0 -70 32 -70 71s32 71 71 71s70 -32 70 -71s-32 -71 -71 -71zM448 687c-38 0 -69 32 -69 71s32 71 70 71c39 0 70 -32 70 -71s-32 -71 -71 -71zM342 522l-91 -251h182zM169 595h350v-79h-85l163 -438h69v-78h-252v77h90l-43 117h-237l-42 -117h89v-77h-250
v78h71l162 438h-85v79z" />
    <glyph glyph-name="AE.sc" horiz-adv-x="843" 
d="M373 516l-124 -243h139v243h-15zM293 0v77h95v120h-178l-61 -120h85v-77h-239v78h63l228 438h-79v79h569v-185h-86v107h-210v-181h188v-76h-188v-183h211v105h86v-182h-484z" />
    <glyph glyph-name="AEacute.sc" horiz-adv-x="843" 
d="M429 669l-27 30l137 153c16 18 35 29 54 29c26 0 49 -20 49 -51c0 -18 -14 -39 -39 -55zM373 516l-124 -243h139v243h-15zM293 0v77h95v120h-178l-61 -120h85v-77h-239v78h63l228 438h-79v79h569v-185h-86v107h-210v-181h188v-76h-188v-183h211v105h86v-182h-484z" />
    </font>
</defs>
</svg>
