<?xml version="1.0" standalone="no"?>
<!DOCTYPE svg PUBLIC "-//W3C//DTD SVG 1.1//EN" "http://www.w3.org/Graphics/SVG/1.1/DTD/svg11.dtd" >
<svg xmlns="http://www.w3.org/2000/svg" xmlns:xlink="http://www.w3.org/1999/xlink" version="1.1">
<metadata>
Created by FontForge 20170924 at Mon Apr 21 19:17:08 2014
 By www-data
Copyright C 2010, 2014 Hoefler &#38; Co. http:www.typography.com
</metadata>
<defs>
<font id="ArcherSSm-BookItalic" horiz-adv-x="590" >
  <font-face 
    font-family="Archer SSm"
    font-weight="325"
    font-style="italic"
    font-stretch="normal"
    units-per-em="1000"
    panose-1="0 0 0 0 0 0 0 0 0 0"
    ascent="800"
    descent="-200"
    x-height="486"
    cap-height="724"
    bbox="-121 -305 1201 1144"
    underline-thickness="50"
    underline-position="-100"
    slope="-12"
    stemh="54"
    stemv="61"
    unicode-range="U+0020-FB04"
  />
<missing-glyph horiz-adv-x="506" 
d="M3 -200v1000h500v-1000h-500zM74 750l179 -390l179 390h-358zM453 676l-172 -376l172 -376v752zM53 -76l172 376l-172 376v-752zM253 240l-179 -390h358z" />
    <glyph glyph-name="f_b" unicode="fb" horiz-adv-x="943" 
d="M75 0l101 436h-88l12 50h88l46 196c8 37 22 69 43 95c36 47 90 76 155 76c59 0 101 -27 123 -69l35 65h35l-107 -459c39 57 98 105 176 105c105 0 187 -79 187 -204c0 -169 -124 -300 -259 -300c-86 0 -150 51 -167 127l-28 -118h-57l101 436h-238l-100 -436h-58z
M493 711c0 18 8 33 21 41c-17 31 -48 49 -86 49c-42 0 -77 -18 -102 -47c-19 -20 -31 -48 -38 -80l-43 -188h238l42 183c-19 6 -32 24 -32 42zM621 43c116 0 198 120 198 241c0 98 -51 160 -135 160c-118 0 -210 -140 -210 -254c0 -86 56 -147 147 -147z" />
    <glyph glyph-name="f_f" unicode="ff" horiz-adv-x="669" 
d="M435 725c-30 0 -49 18 -49 53c-19 -3 -38 -12 -54 -28c-24 -22 -41 -63 -52 -111l-35 -153h245l44 188c15 66 36 102 69 135c24 25 63 44 110 44c49 0 79 -23 79 -58c0 -26 -22 -45 -44 -45c-30 0 -49 19 -49 53c-20 -2 -41 -10 -59 -28c-24 -23 -41 -64 -52 -111
l-41 -178h127l-12 -50h-127l-100 -436h-57l101 436h-246l-100 -436h-58l101 436h-88l12 50h88l38 163c15 68 36 103 68 136c25 24 65 43 106 43c49 0 79 -23 79 -57c0 -27 -22 -46 -44 -46z" />
    <glyph glyph-name="f_h" unicode="fh" horiz-adv-x="938" 
d="M370 0l101 436h-238l-100 -436h-58l101 436h-88l12 50h88l46 196c8 37 22 69 43 95c36 47 90 76 155 76c59 0 101 -27 123 -69l35 65h35l-111 -474c37 62 95 119 172 119c81 0 139 -53 140 -125c0 -25 -5 -51 -12 -78l-46 -168c-5 -19 -7 -39 -7 -49c0 -23 15 -39 36 -39
c26 0 46 23 67 77l35 -11c-23 -69 -56 -108 -108 -108c-51 0 -88 33 -88 81c0 14 4 36 9 55l46 170c7 26 10 47 10 68c-1 45 -38 78 -89 78c-75 0 -167 -79 -199 -215l-53 -230h-57zM493 711c0 18 8 33 21 41c-17 31 -48 49 -86 49c-42 0 -77 -18 -102 -47
c-19 -20 -31 -48 -38 -80l-43 -188h238l42 183c-19 6 -32 24 -32 42z" />
    <glyph glyph-name="fi" unicode="fi" horiz-adv-x="639" 
d="M483 436h-250l-100 -436h-58l102 436h-89l12 50h88l38 160c10 43 23 79 40 109c36 63 88 98 168 98c70 0 107 -36 107 -72c0 -30 -19 -51 -47 -51c-31 0 -46 23 -46 47c0 7 2 14 5 20c-8 2 -18 4 -28 4c-49 0 -85 -26 -111 -70c-15 -27 -27 -58 -35 -95l-35 -150h311
l-102 -363c-5 -18 -9 -39 -9 -49c0 -23 15 -39 37 -39c26 0 46 23 68 77l34 -11c-23 -69 -57 -108 -110 -108c-50 0 -86 33 -86 81c0 14 4 37 10 55z" />
    <glyph glyph-name="f_j" unicode="fj" horiz-adv-x="598" 
d="M551 486l-124 -535c-15 -68 -34 -106 -67 -139c-24 -24 -65 -44 -112 -44c-40 0 -74 22 -74 54c0 29 21 45 45 45c27 0 47 -24 42 -50c21 3 40 10 56 25c24 22 43 60 56 119l110 475h-250l-100 -436h-58l102 436h-89l12 50h88l38 160c10 43 23 79 40 109
c36 63 88 98 168 98c70 0 107 -36 107 -72c0 -30 -19 -51 -47 -51c-31 0 -46 23 -46 47c0 7 2 14 5 20c-8 2 -18 4 -28 4c-49 0 -85 -26 -111 -70c-15 -27 -27 -58 -35 -95l-35 -150h307z" />
    <glyph glyph-name="f_k" unicode="fk" horiz-adv-x="864" 
d="M370 0l101 436h-238l-100 -436h-58l101 436h-88l12 50h88l46 196c8 37 22 69 43 95c36 47 90 76 155 76c59 0 101 -27 123 -69l35 65h35l-143 -611c153 68 242 132 260 163c-15 7 -27 27 -27 42c0 30 22 52 51 52c27 0 50 -20 50 -54c0 -66 -108 -139 -214 -194l55 -135
c13 -33 21 -51 31 -61c10 -12 20 -14 31 -14c20 0 40 19 56 90l37 -12c-21 -93 -56 -122 -99 -122c-24 0 -44 6 -63 24c-15 14 -29 36 -42 68l-57 141c-30 -14 -57 -27 -80 -37l-44 -189h-57zM493 711c0 18 8 33 21 41c-17 31 -48 49 -86 49c-42 0 -77 -18 -102 -47
c-19 -20 -31 -48 -38 -80l-43 -188h238l42 183c-19 6 -32 24 -32 42z" />
    <glyph glyph-name="fl" unicode="fl" horiz-adv-x="637" 
d="M100 486h88l46 196c8 37 22 69 43 95c36 47 90 76 155 76c59 0 101 -27 123 -69l35 65h32l-169 -724c-4 -20 -8 -41 -8 -51c0 -24 15 -39 36 -39c26 0 46 23 68 77l35 -11c-24 -69 -58 -108 -110 -108c-50 0 -87 33 -87 81c0 13 5 33 9 51l74 311h-237l-100 -436h-58
l101 436h-88zM288 674l-43 -188h237l43 183c-19 6 -32 24 -32 42s8 33 21 41c-17 31 -48 49 -86 49c-42 0 -77 -18 -102 -47c-19 -20 -31 -48 -38 -80z" />
    <glyph glyph-name="f_f_b" unicode="ffb" horiz-adv-x="1245" 
d="M795 711c0 18 8 33 21 41c-17 31 -48 49 -86 49c-42 0 -76 -17 -102 -46c-18 -21 -31 -49 -38 -81l-43 -188h238l43 183c-20 5 -33 23 -33 42zM100 486h88l40 171c8 36 23 69 43 95c36 47 90 75 155 75c38 0 98 -13 98 -62c0 -29 -22 -46 -44 -46c-32 0 -49 24 -49 56h-9
c-41 0 -76 -17 -101 -46c-18 -21 -32 -49 -39 -80l-38 -163h246l46 196c8 37 23 70 44 96c36 46 89 75 154 75c60 0 101 -27 123 -69l35 65h36l-108 -458c39 56 98 104 176 104c105 0 187 -79 187 -204c0 -169 -124 -300 -259 -300c-86 0 -149 50 -167 125l-28 -116h-57
l101 436h-238l-100 -436h-57l101 436h-246l-100 -436h-58l101 436h-88zM923 43c117 0 198 120 198 241c0 98 -50 160 -135 160c-117 0 -209 -140 -209 -254c0 -86 55 -147 146 -147z" />
    <glyph glyph-name="f_f_h" unicode="ffh" horiz-adv-x="1240" 
d="M795 711c0 18 8 33 21 41c-17 31 -48 49 -86 49c-42 0 -76 -17 -102 -46c-18 -21 -31 -49 -38 -81l-43 -188h238l43 183c-20 5 -33 23 -33 42zM672 0l101 436h-238l-100 -436h-57l101 436h-246l-100 -436h-58l101 436h-88l12 50h88l40 171c8 36 23 69 43 95
c36 47 90 75 155 75c38 0 98 -13 98 -62c0 -29 -22 -46 -44 -46c-32 0 -49 24 -49 56h-9c-41 0 -76 -17 -101 -46c-18 -21 -32 -49 -39 -80l-38 -163h246l46 196c8 37 23 70 44 96c36 46 89 75 154 75c60 0 101 -27 123 -69l35 65h36l-112 -473c37 61 96 118 173 118
c80 0 139 -53 140 -125c0 -25 -5 -51 -13 -78l-45 -168c-5 -19 -8 -39 -8 -49c0 -23 15 -39 37 -39c26 0 45 23 67 77l34 -11c-22 -69 -55 -108 -108 -108c-50 0 -87 33 -87 81c0 14 3 36 8 55l46 170c7 26 10 47 10 68c-1 45 -38 78 -89 78c-74 0 -167 -79 -199 -215
l-53 -230h-57z" />
    <glyph glyph-name="f_f_i" unicode="ffi" horiz-adv-x="942" 
d="M378 0l101 436h-246l-100 -436h-58l101 436h-88l12 50h88l40 170c8 37 24 72 46 98c36 46 89 73 152 73c38 0 98 -13 98 -61c0 -29 -22 -47 -45 -47c-31 0 -48 24 -48 56h-9c-40 0 -74 -16 -100 -45c-19 -21 -33 -50 -40 -83l-37 -161h245l38 160c11 43 24 80 41 110
c36 62 88 97 167 97c71 0 108 -36 108 -72c0 -30 -19 -51 -48 -51c-30 0 -45 23 -45 47c0 7 1 14 4 20c-8 2 -18 4 -27 4c-49 0 -86 -26 -111 -70c-16 -27 -27 -57 -35 -95l-35 -150h310l-102 -363c-5 -18 -9 -39 -9 -49c0 -23 16 -39 37 -39c26 0 46 23 68 77l35 -11
c-24 -69 -58 -108 -110 -108c-51 0 -87 33 -87 81c0 14 5 37 10 55l86 307h-249l-101 -436h-57z" />
    <glyph glyph-name="f_f_j" unicode="ffj" horiz-adv-x="901" 
d="M75 0l101 436h-88l12 50h88l40 170c8 37 24 72 46 98c36 46 89 73 152 73c38 0 98 -13 98 -61c0 -29 -22 -47 -45 -47c-31 0 -48 24 -48 56h-9c-40 0 -74 -16 -100 -45c-19 -21 -33 -50 -40 -83l-37 -161h245l38 160c11 43 24 80 41 110c36 62 88 97 167 97
c71 0 108 -36 108 -72c0 -30 -19 -51 -48 -51c-30 0 -45 23 -45 47c0 7 1 14 4 20c-8 2 -18 4 -27 4c-49 0 -86 -26 -111 -70c-16 -27 -27 -57 -35 -95l-35 -150h307l-124 -535c-16 -68 -35 -106 -67 -139c-25 -24 -66 -44 -112 -44c-41 0 -75 22 -75 54c0 29 22 45 45 45
c27 0 47 -24 42 -50c21 3 40 10 56 25c25 22 43 60 57 119l109 475h-249l-101 -436h-57l101 436h-246l-100 -436h-58z" />
    <glyph glyph-name="f_f_k" unicode="ffk" horiz-adv-x="1166" 
d="M795 711c0 18 8 33 21 41c-17 31 -48 49 -86 49c-42 0 -76 -17 -102 -46c-18 -21 -31 -49 -38 -81l-43 -188h238l43 183c-20 5 -33 23 -33 42zM672 0l101 436h-238l-100 -436h-57l101 436h-246l-100 -436h-58l101 436h-88l12 50h88l40 171c8 36 23 69 43 95
c36 47 90 75 155 75c38 0 98 -13 98 -62c0 -29 -22 -46 -44 -46c-32 0 -49 24 -49 56h-9c-41 0 -76 -17 -101 -46c-18 -21 -32 -49 -39 -80l-38 -163h246l46 196c8 37 23 70 44 96c36 46 89 75 154 75c60 0 101 -27 123 -69l35 65h36l-144 -611c153 68 242 132 260 163
c-15 7 -26 27 -26 42c0 30 21 52 51 52c27 0 49 -20 49 -54c0 -66 -107 -139 -213 -194l54 -135c13 -33 22 -51 31 -61c11 -12 20 -14 31 -14c20 0 40 19 57 90l36 -12c-21 -93 -56 -122 -99 -122c-24 0 -43 6 -63 24c-15 14 -29 36 -42 68l-57 141l-80 -38l-44 -188h-57z
" />
    <glyph glyph-name="f_f_l" unicode="ffl" horiz-adv-x="939" 
d="M590 674l-43 -188h237l44 183c-20 5 -33 23 -33 42c0 18 8 33 21 41c-17 31 -48 49 -86 49c-42 0 -76 -17 -102 -46c-18 -21 -31 -49 -38 -81zM88 436l12 50h88l40 171c8 36 23 69 43 95c36 47 90 75 155 75c38 0 98 -13 98 -62c0 -29 -22 -46 -44 -46
c-32 0 -49 24 -49 56h-9c-41 0 -76 -17 -101 -46c-18 -21 -32 -49 -39 -80l-38 -163h246l46 196c8 37 23 70 44 96c36 46 89 75 154 75c60 0 101 -27 123 -69l35 65h32l-169 -724c-4 -20 -8 -41 -8 -51c0 -24 15 -39 37 -39c25 0 45 23 68 77l34 -11
c-23 -69 -58 -108 -110 -108c-50 0 -86 33 -86 81c0 13 4 33 8 51l74 311h-237l-100 -436h-57l101 436h-246l-100 -436h-58l101 436h-88z" />
    <glyph glyph-name=".notdef" horiz-adv-x="506" 
d="M3 -200v1000h500v-1000h-500zM74 750l179 -390l179 390h-358zM453 676l-172 -376l172 -376v752zM53 -76l172 376l-172 376v-752zM253 240l-179 -390h358z" />
    <glyph glyph-name="A" unicode="A" horiz-adv-x="793" 
d="M280 314h264l-48 362zM-19 0l13 53h67l370 618h-87l13 53h296l-13 -53h-84l84 -618h78l-13 -53h-221l13 53h82l-27 208h-304l-123 -208h95l-13 -53h-226z" />
    <glyph glyph-name="B" unicode="B" horiz-adv-x="680" 
d="M17 0l13 53h92l143 618h-103l12 53h263c53 0 99 -11 136 -32c49 -28 78 -77 78 -135c0 -99 -78 -172 -189 -188c75 -20 137 -76 137 -159c0 -55 -22 -102 -62 -138c-31 -30 -74 -51 -122 -62c-28 -7 -60 -10 -91 -10h-307zM263 399h102c133 0 225 58 225 156
c0 39 -18 74 -58 95c-26 13 -62 21 -106 21h-101zM182 53h149c28 0 55 3 79 10c38 10 66 26 89 50c26 25 40 59 40 97c0 72 -65 139 -202 139h-86z" />
    <glyph glyph-name="C" unicode="C" horiz-adv-x="777" 
d="M400 -13c-170 0 -309 116 -309 318c0 228 185 432 406 432c177 0 258 -112 258 -174c0 -45 -28 -70 -56 -70c-31 0 -49 18 -49 44c0 20 15 40 36 51c-11 40 -75 95 -192 95c-206 0 -340 -199 -340 -371c0 -171 102 -270 252 -270c92 0 172 38 240 103l34 -38
c-80 -78 -176 -120 -280 -120z" />
    <glyph glyph-name="D" unicode="D" horiz-adv-x="802" 
d="M17 0l13 53h92l143 618h-103l12 53h226c142 0 225 -33 293 -101c45 -45 74 -116 74 -194c0 -116 -40 -216 -113 -289c-92 -92 -221 -140 -389 -140h-248zM182 53h94c142 0 253 43 325 115c68 67 101 154 101 258c0 67 -23 125 -59 161c-52 52 -118 84 -248 84h-70z" />
    <glyph glyph-name="E" unicode="E" horiz-adv-x="663" 
d="M17 0l13 53h92l143 618h-103l12 53h518l-38 -163h-58l25 110h-296l-63 -275h241l-12 -53h-241l-68 -290h296l26 110h58l-37 -163h-508z" />
    <glyph glyph-name="F" unicode="F" horiz-adv-x="638" 
d="M17 0l13 53h92l143 618h-103l12 53h509l-38 -163h-58l25 110h-287l-67 -288h237l-11 -53h-237l-65 -277h108l-12 -53h-261z" />
    <glyph glyph-name="G" unicode="G" horiz-adv-x="807" 
d="M590 0l14 65c-60 -46 -143 -78 -231 -78c-163 0 -282 116 -282 295c0 233 181 455 423 455c91 0 171 -33 213 -74c24 -22 42 -50 42 -85c0 -40 -28 -64 -56 -64c-30 0 -49 18 -49 44c0 20 14 39 36 51c-4 8 -13 17 -23 26c-34 25 -92 48 -166 48
c-222 0 -357 -211 -357 -399c0 -139 82 -244 230 -244c86 0 167 31 234 86l40 163h-212l13 52h269l-81 -341h-57z" />
    <glyph glyph-name="H" unicode="H" horiz-adv-x="869" 
d="M17 0l13 53h92l143 618h-103l12 53h256l-13 -53h-92l-62 -272h423l61 272h-103l13 53h255l-13 -53h-92l-142 -618h102l-12 -53h-255l12 53h92l69 292h-423l-68 -292h103l-13 -53h-255z" />
    <glyph glyph-name="I" unicode="I" horiz-adv-x="399" 
d="M14 0l13 53h102l142 618h-103l13 53h266l-13 -53h-103l-141 -618h102l-12 -53h-266z" />
    <glyph glyph-name="J" unicode="J" horiz-adv-x="630" 
d="M230 -13c-100 0 -189 60 -189 168c0 49 33 88 72 88c27 0 46 -19 46 -42c0 -29 -23 -55 -63 -49c-5 -64 53 -112 139 -112c57 0 99 22 129 60c29 35 48 85 60 141l98 430h-124l12 53h277l-13 -53h-92l-101 -439c-15 -68 -38 -126 -73 -168c-41 -48 -98 -77 -178 -77z" />
    <glyph glyph-name="K" unicode="K" horiz-adv-x="733" 
d="M711 671l-305 -259l171 -359h98l-12 -53h-128l-177 375l-127 -108l-49 -214h103l-13 -53h-255l13 53h92l143 618h-103l12 53h256l-13 -53h-92l-78 -334l391 334h-104l12 53h260l-12 -53h-83z" />
    <glyph glyph-name="L" unicode="L" horiz-adv-x="622" 
d="M17 0l13 53h92l143 618h-103l12 53h261l-13 -53h-97l-143 -618h271l28 116h58l-40 -169h-482z" />
    <glyph glyph-name="M" unicode="M" horiz-adv-x="975" 
d="M12 0l13 53h93l170 618h-107l13 53h167l115 -538l365 538h160l-12 -53h-95l-116 -618h104l-13 -53h-251l13 53h89l111 571l-370 -540h-13l-121 540l-152 -571h101l-13 -53h-251z" />
    <glyph glyph-name="N" unicode="N" horiz-adv-x="852" 
d="M623 -3l-311 629l-132 -573h103l-13 -53h-253l13 53h92l143 618h-103l12 53h154l297 -603l126 550h-103l12 53h249l-12 -53h-89l-156 -674h-29z" />
    <glyph glyph-name="O" unicode="O" horiz-adv-x="824" 
d="M390 -13c-191 0 -299 135 -299 306c0 216 170 444 403 444c190 0 299 -136 299 -306c0 -216 -170 -444 -403 -444zM396 42c191 0 335 193 335 387c0 135 -76 253 -243 253c-191 0 -335 -194 -335 -387c0 -136 76 -253 243 -253z" />
    <glyph glyph-name="P" unicode="P" horiz-adv-x="632" 
d="M357 325c156 0 227 100 227 199c0 67 -34 118 -109 138c-22 6 -48 9 -77 9h-73l-79 -344c27 -1 68 -2 111 -2zM17 0l13 53h92l143 618h-103l12 53h233c33 0 63 -3 88 -10c102 -25 149 -98 149 -185c0 -139 -107 -257 -296 -257c-41 0 -89 1 -114 2l-52 -221h103l-13 -53
h-255z" />
    <glyph glyph-name="Q" unicode="Q" horiz-adv-x="824" 
d="M793 431c0 -197 -141 -404 -343 -439c35 -55 99 -96 175 -96c27 0 46 5 72 19l19 -52c-32 -16 -60 -23 -92 -23c-114 0 -199 72 -245 148c-184 5 -288 137 -288 305c0 216 170 444 403 444c190 0 299 -136 299 -306zM396 42c191 0 335 193 335 387
c0 135 -76 253 -243 253c-191 0 -335 -194 -335 -387c0 -136 76 -253 243 -253z" />
    <glyph glyph-name="Q.alt" horiz-adv-x="824" 
d="M390 -13c-191 0 -299 135 -299 306c0 216 170 444 403 444c190 0 299 -136 299 -306c0 -154 -86 -313 -219 -393l53 -144l-51 -16l-48 137c-43 -17 -89 -28 -138 -28zM396 42c40 0 78 8 113 23l-53 146l51 16l48 -136c106 69 176 203 176 338s-76 253 -243 253
c-191 0 -335 -194 -335 -387c0 -136 76 -253 243 -253z" />
    <glyph glyph-name="R" unicode="R" horiz-adv-x="678" 
d="M351 358c145 0 233 73 233 175c0 36 -11 66 -35 90c-32 32 -89 48 -162 48h-62l-72 -311c26 -1 53 -2 98 -2zM17 0l13 53h92l143 618h-103l12 53h217c93 0 162 -22 206 -66c32 -32 48 -74 48 -123c0 -108 -79 -195 -215 -222l124 -260h85l-13 -53h-114l-143 306
c-14 -1 -29 -1 -44 -1c-31 0 -60 1 -84 2l-59 -254h103l-13 -53h-255z" />
    <glyph glyph-name="S" unicode="S" horiz-adv-x="613" 
d="M298 -13c-144 0 -244 89 -244 156c0 39 25 64 57 64c28 0 47 -23 47 -43c0 -23 -13 -41 -33 -53c21 -34 82 -71 178 -71c88 0 168 60 168 143c0 70 -58 112 -126 154c-92 58 -168 108 -168 208c0 104 97 192 223 192c113 0 210 -66 210 -138c0 -41 -27 -62 -53 -62
c-28 0 -47 20 -47 46c0 15 10 33 31 46c-21 26 -70 55 -145 55c-91 0 -158 -57 -158 -135c0 -70 51 -106 138 -159c81 -51 156 -103 156 -203c0 -117 -106 -200 -234 -200z" />
    <glyph glyph-name="T" unicode="T" horiz-adv-x="711" 
d="M176 0l12 53h97l142 618h-204l-26 -116h-59l40 169h584l-39 -169h-58l27 116h-204l-142 -618h108l-13 -53h-265z" />
    <glyph glyph-name="U" unicode="U" horiz-adv-x="811" 
d="M383 -13c-151 0 -232 84 -232 208c0 25 4 53 11 81l91 395h-103l13 53h255l-12 -53h-93l-91 -398c-6 -26 -9 -52 -9 -76c0 -92 50 -157 175 -157c122 0 191 84 216 195l99 436h-103l13 53h255l-13 -53h-92l-102 -445c-32 -139 -118 -239 -278 -239z" />
    <glyph glyph-name="V" unicode="V" horiz-adv-x="775" 
d="M313 -12l-107 683h-80l13 53h221l-12 -53h-81l86 -590l355 590h-88l12 53h221l-13 -53h-68l-423 -683h-36z" />
    <glyph glyph-name="W" unicode="W" horiz-adv-x="1041" 
d="M240 -12l-25 683h-78l13 53h222l-13 -53h-91l16 -574l301 532h26l60 -533l303 575h-89l12 53h221l-12 -53h-74l-363 -683h-34l-63 518l-298 -518h-34z" />
    <glyph glyph-name="X" unicode="X" horiz-adv-x="794" 
d="M-4 0l12 53h85l306 323l-141 295h-95l13 53h254l-13 -53h-94l118 -261l244 261h-93l12 53h254l-12 -53h-92l-288 -304l153 -314h91l-13 -53h-254l13 53h98l-127 282l-264 -282h99l-12 -53h-254z" />
    <glyph glyph-name="Y" unicode="Y" horiz-adv-x="704" 
d="M145 0l13 53h106l60 244l-126 374h-79l14 53h227l-12 -53h-88l107 -326l266 326h-84l14 53h227l-11 -53h-76l-322 -385l-55 -233h106l-12 -53h-275z" />
    <glyph glyph-name="Z" unicode="Z" horiz-adv-x="682" 
d="M17 0v25l608 649h-385l-26 -113h-58l37 163h528v-26l-607 -648h402l27 113h58l-37 -163h-547z" />
    <glyph glyph-name="a" unicode="a" horiz-adv-x="656" 
d="M252 43c127 0 207 142 207 253c0 88 -47 148 -136 148c-118 0 -200 -124 -200 -251c0 -92 45 -150 129 -150zM240 -9c-104 0 -179 76 -179 201c0 164 119 303 260 303c89 0 147 -50 161 -129l29 126h58l-90 -370c-5 -19 -9 -38 -9 -48c0 -23 15 -39 37 -39
c26 0 45 23 68 77l34 -11c-23 -69 -57 -108 -110 -108c-50 0 -84 32 -84 77c0 9 0 16 1 22c-43 -57 -104 -101 -176 -101z" />
    <glyph glyph-name="b" unicode="b" horiz-adv-x="624" 
d="M50 0l187 798h-94l12 51h151l-107 -457c40 56 98 103 175 103c106 0 187 -79 187 -204c0 -169 -123 -300 -258 -300c-86 0 -150 51 -167 127l-28 -118h-58zM301 43c117 0 199 120 199 241c0 98 -51 160 -135 160c-118 0 -210 -140 -210 -254c0 -86 56 -147 146 -147z" />
    <glyph glyph-name="c" unicode="c" horiz-adv-x="542" 
d="M268 -9c-116 0 -208 77 -208 206c0 152 123 298 272 298c122 0 174 -73 174 -122c0 -33 -24 -59 -53 -59c-17 0 -38 11 -38 42c0 10 9 32 27 37c-18 31 -53 51 -111 51c-115 0 -212 -119 -212 -246c0 -91 59 -155 158 -155c55 0 113 24 161 68l-3 -60
c-48 -38 -104 -60 -167 -60z" />
    <glyph glyph-name="d" unicode="d" horiz-adv-x="660" 
d="M258 43c124 0 205 136 205 250c0 91 -52 151 -141 151c-118 0 -198 -122 -198 -249c0 -93 50 -152 134 -152zM62 194c0 168 121 301 256 301c84 0 153 -48 166 -128l100 431h-94l12 51h151l-170 -726c-5 -21 -9 -39 -9 -49c0 -23 14 -39 36 -39c27 0 47 23 69 77l34 -11
c-23 -69 -57 -108 -109 -108c-49 0 -84 32 -84 80c0 5 0 12 1 18c-42 -56 -101 -100 -175 -100c-105 0 -184 77 -184 203z" />
    <glyph glyph-name="e" unicode="e" horiz-adv-x="562" 
d="M488 229h-370c-2 -11 -2 -23 -2 -34c0 -101 82 -153 166 -153c57 0 98 11 160 45l-14 -60c-50 -25 -92 -36 -156 -36c-112 0 -213 73 -213 204c0 163 127 300 272 300c109 0 176 -68 176 -172c0 -29 -7 -60 -19 -94zM326 444c-88 0 -168 -71 -198 -167h316
c5 18 9 37 9 56c0 58 -39 111 -127 111z" />
    <glyph glyph-name="f" unicode="f" horiz-adv-x="367" 
d="M75 0l101 436h-88l12 50h88l44 188c15 66 36 102 68 135c25 25 64 44 111 44c49 0 79 -23 79 -58c0 -26 -22 -45 -45 -45c-29 0 -48 19 -48 53c-20 -2 -41 -10 -59 -28c-24 -24 -42 -64 -52 -111l-41 -178h127l-12 -50h-127l-100 -436h-58z" />
    <glyph glyph-name="g" unicode="g" horiz-adv-x="623" 
d="M263 52c124 0 203 131 203 245c0 89 -53 147 -142 147c-118 0 -200 -115 -200 -241c0 -92 54 -151 139 -151zM212 -232c-64 0 -134 27 -160 53c-18 18 -24 33 -24 49c0 30 18 53 48 53s46 -25 46 -49c0 -11 -4 -22 -11 -31c23 -15 58 -26 104 -26c54 0 92 14 125 47
c28 28 50 73 64 132c0 2 15 68 25 108c-42 -68 -108 -104 -177 -104c-106 0 -190 76 -190 201c0 164 121 294 262 294c92 0 150 -53 164 -126c11 46 29 121 29 122h58l-117 -502c-16 -71 -38 -120 -76 -159c-43 -42 -98 -62 -170 -62z" />
    <glyph glyph-name="h" unicode="h" horiz-adv-x="619" 
d="M50 0l187 798h-94l12 51h151l-111 -474c37 62 95 120 172 120c80 0 139 -53 140 -125c0 -25 -5 -52 -12 -79l-46 -168c-5 -19 -8 -39 -8 -49c0 -23 16 -39 37 -39c26 0 46 23 67 77l35 -11c-23 -69 -56 -108 -108 -108c-51 0 -88 33 -88 81c0 14 4 36 9 55l46 170
c7 26 10 48 10 69c-2 45 -39 78 -90 78c-74 0 -167 -80 -198 -216l-53 -230h-58z" />
    <glyph glyph-name="i" unicode="i" horiz-adv-x="344" 
d="M241 595c-26 0 -47 23 -47 49c0 27 21 49 47 49s47 -22 47 -49c0 -26 -21 -49 -47 -49zM172 -7c-50 0 -86 33 -86 81c0 14 5 37 10 55l86 307h-98l13 50h157l-102 -363c-5 -18 -9 -39 -9 -49c0 -23 15 -39 37 -39c26 0 46 23 68 77l34 -11c-23 -69 -57 -108 -110 -108z
" />
    <glyph glyph-name="j" unicode="j" horiz-adv-x="303" 
d="M243 595c-27 0 -48 23 -48 49c0 27 21 49 48 49c26 0 47 -22 47 -49c0 -26 -21 -49 -47 -49zM-47 -232c-41 0 -74 22 -74 54c0 29 21 45 45 45c23 0 47 -20 42 -50c21 3 40 10 56 25c24 22 43 60 56 119l110 475h-102l13 50h157l-124 -535c-15 -68 -34 -106 -67 -139
c-24 -24 -66 -44 -112 -44z" />
    <glyph glyph-name="k" unicode="k" horiz-adv-x="545" 
d="M108 0h-58l187 798h-94l12 51h151l-143 -611c153 68 242 132 259 163c-15 7 -26 27 -26 42c0 30 21 52 51 52c27 0 49 -20 49 -54c0 -66 -107 -139 -213 -194l55 -135c13 -33 21 -51 31 -61c10 -12 20 -14 30 -14c21 0 40 19 57 90l37 -12c-21 -93 -56 -122 -99 -122
c-24 0 -44 6 -63 24c-15 14 -29 36 -42 68l-58 141c-29 -14 -56 -27 -79 -37z" />
    <glyph glyph-name="l" unicode="l" horiz-adv-x="323" 
d="M160 -7c-50 0 -87 33 -87 81c0 13 5 32 9 52l157 672h-92l12 51h149l-169 -724c-4 -20 -8 -41 -8 -51c0 -23 15 -39 36 -39c26 0 46 23 68 77l35 -11c-24 -69 -58 -108 -110 -108z" />
    <glyph glyph-name="m" unicode="m" horiz-adv-x="922" 
d="M64 0l109 436h-93l13 50h148l-32 -120c48 79 109 129 176 129c74 0 124 -45 125 -122c48 75 112 122 177 122c76 0 127 -53 127 -124c0 -26 -7 -53 -14 -80l-49 -167c-5 -18 -9 -40 -9 -50c0 -23 15 -39 37 -39c25 0 45 23 68 77l34 -11c-23 -69 -57 -108 -110 -108
c-50 0 -86 33 -86 81c0 14 4 38 9 56l49 169c8 26 13 48 13 69c0 45 -29 78 -78 78c-72 0 -159 -78 -195 -217l-60 -229h-57l77 299c7 26 12 47 12 69c0 46 -31 78 -79 78c-70 0 -163 -80 -197 -216l-58 -230h-57z" />
    <glyph glyph-name="n" unicode="n" horiz-adv-x="632" 
d="M481 -7c-50 0 -87 33 -87 81c0 14 5 38 10 56l49 169c8 26 13 48 13 69c0 45 -35 78 -86 78c-74 0 -166 -78 -201 -216l-58 -230h-57l109 436h-93l13 50h148l-31 -120c48 79 108 129 179 129c80 0 135 -53 135 -125c0 -25 -7 -52 -14 -79l-50 -167c-5 -18 -8 -40 -8 -50
c0 -23 15 -39 36 -39c26 0 46 23 69 77l34 -11c-24 -69 -58 -108 -110 -108z" />
    <glyph glyph-name="o" unicode="o" horiz-adv-x="599" 
d="M264 -9c-127 0 -204 93 -204 209c0 153 118 295 274 295c128 0 204 -93 204 -208c0 -154 -118 -296 -274 -296zM267 43c120 0 213 114 213 245c0 94 -64 156 -149 156c-119 0 -212 -115 -212 -245c0 -95 63 -156 148 -156z" />
    <glyph glyph-name="p" unicode="p" horiz-adv-x="641" 
d="M319 43c117 0 198 120 198 241c0 98 -50 160 -135 160c-117 0 -209 -139 -209 -253c0 -86 55 -148 146 -148zM-61 -227l12 50h75l146 613h-93l12 50h148l-23 -96c39 57 98 105 176 105c105 0 187 -79 187 -204c0 -169 -124 -300 -259 -300c-82 0 -149 47 -169 120
l-67 -288h106l-12 -50h-239z" />
    <glyph glyph-name="q" unicode="q" horiz-adv-x="625" 
d="M245 -9c-105 0 -184 78 -184 204c0 164 122 300 263 300c84 0 148 -49 163 -127l28 118h57l-154 -663h105l-12 -50h-164l76 318c-42 -57 -105 -100 -178 -100zM257 43c127 0 209 140 209 250c0 89 -50 151 -138 151c-119 0 -205 -121 -205 -248c0 -93 50 -153 134 -153z
" />
    <glyph glyph-name="r" unicode="r" horiz-adv-x="433" 
d="M64 0l110 436h-94l13 50h148l-34 -136c64 93 120 145 165 145c37 0 58 -21 58 -49c0 -30 -25 -54 -53 -54c-26 0 -44 16 -49 39c-39 -21 -125 -102 -153 -219l-53 -212h-58z" />
    <glyph glyph-name="s" unicode="s" horiz-adv-x="491" 
d="M236 -9c-66 0 -131 27 -166 63c-18 18 -27 37 -27 57c0 27 19 53 47 53s41 -20 41 -41c0 -16 -6 -26 -18 -39c4 -6 11 -11 20 -17c24 -15 63 -28 108 -28c59 0 105 33 105 83c0 49 -46 75 -100 101c-73 36 -135 69 -135 139c0 77 67 133 166 133c62 0 115 -21 145 -51
c17 -16 26 -35 26 -56c0 -31 -21 -51 -44 -51c-25 0 -43 17 -43 40c0 13 5 27 15 40c-2 3 -7 7 -19 13c-18 9 -49 17 -84 17c-65 0 -105 -34 -105 -77c0 -42 44 -66 103 -96c70 -34 133 -70 133 -144c0 -90 -81 -139 -168 -139z" />
    <glyph glyph-name="t" unicode="t" horiz-adv-x="391" 
d="M378 436h-150l-77 -314c-3 -15 -6 -29 -6 -43c0 -18 15 -37 42 -37s58 17 106 49l24 -35c-56 -41 -98 -65 -142 -65c-54 0 -90 34 -90 81c0 14 3 32 8 51l78 313h-86l13 50h85l30 120l62 18l-34 -138h150z" />
    <glyph glyph-name="u" unicode="u" horiz-adv-x="632" 
d="M87 486h151l-81 -311c-6 -21 -9 -42 -9 -63c0 -41 31 -71 82 -71c74 0 167 80 201 215l57 230h58l-92 -364c-4 -19 -8 -38 -8 -48c0 -23 15 -39 37 -39c26 0 45 23 68 77l34 -11c-23 -69 -57 -108 -110 -108c-49 0 -82 31 -82 81c0 13 3 28 7 45
c-43 -72 -104 -128 -178 -128c-78 0 -133 47 -133 119c0 24 6 47 12 69l66 257h-93z" />
    <glyph glyph-name="v" unicode="v" horiz-adv-x="546" 
d="M206 -20l-79 456h-92l13 50h133l63 -425c99 112 181 247 202 331c-23 4 -45 22 -45 51s21 52 51 52s55 -22 55 -66c0 -86 -133 -296 -279 -449h-22z" />
    <glyph glyph-name="w" unicode="w" horiz-adv-x="770" 
d="M171 -20l-39 456h-89l13 50h126l29 -399l200 335h19l78 -349c80 118 145 237 154 318c-24 4 -47 22 -47 52c0 29 21 52 50 52c31 0 56 -24 56 -61c0 -100 -86 -262 -222 -454h-20l-75 345l-212 -345h-21z" />
    <glyph glyph-name="x" unicode="x" horiz-adv-x="619" 
d="M79 -7c-39 0 -60 26 -60 53s22 48 46 48c26 0 42 -19 47 -42c26 8 52 41 96 100c0 1 76 104 77 105l-69 179h-99l13 50h123l66 -190c0 1 60 86 60 87c46 65 92 112 143 112c44 0 66 -25 66 -53c0 -26 -22 -47 -46 -47c-28 0 -43 19 -48 40c-21 -5 -46 -32 -85 -86
c0 -1 -69 -95 -69 -96l58 -142c27 -66 40 -76 56 -76s37 22 53 76l33 -10c-22 -78 -54 -108 -94 -108c-45 0 -68 25 -93 92l-47 130l-77 -110c-55 -79 -97 -112 -150 -112z" />
    <glyph glyph-name="y" unicode="y" horiz-adv-x="566" 
d="M-13 -232c-34 0 -68 24 -68 56c0 26 19 50 47 50c29 0 47 -21 48 -53c38 3 98 47 206 180l-87 435h-90l12 50h130l78 -430c95 121 188 256 204 335c-23 7 -46 27 -46 57c0 24 21 47 50 47c30 0 55 -22 55 -66c0 -85 -75 -206 -249 -427c-146 -186 -223 -234 -290 -234z
" />
    <glyph glyph-name="z" unicode="z" horiz-adv-x="555" 
d="M39 -8l-21 26l421 420h-263l-24 -96h-53l36 144h380l15 -24l-409 -408c23 9 47 13 73 13c59 0 107 -25 159 -25c46 0 63 23 88 98l35 -7c-26 -97 -47 -142 -125 -142c-64 0 -125 32 -190 32c-55 0 -86 -11 -122 -31z" />
    <glyph glyph-name="Aacute" unicode="&#xc1;" horiz-adv-x="793" 
d="M478 787l-12 20l180 130c15 12 26 16 41 16c19 0 36 -17 36 -36c0 -23 -17 -37 -40 -46zM280 314h264l-48 362zM-19 0l13 53h67l370 618h-87l13 53h296l-13 -53h-84l84 -618h78l-13 -53h-221l13 53h82l-27 208h-304l-123 -208h95l-13 -53h-226z" />
    <glyph glyph-name="aacute" unicode="&#xe1;" horiz-adv-x="656" 
d="M341 585l-12 21l188 136c16 13 28 18 44 18c20 0 37 -18 37 -38c0 -25 -17 -39 -41 -48zM252 43c127 0 207 142 207 253c0 88 -47 148 -136 148c-118 0 -200 -124 -200 -251c0 -92 45 -150 129 -150zM240 -9c-104 0 -179 76 -179 201c0 164 119 303 260 303
c89 0 147 -50 161 -129l29 126h58l-90 -370c-5 -19 -9 -38 -9 -48c0 -23 15 -39 37 -39c26 0 45 23 68 77l34 -11c-23 -69 -57 -108 -110 -108c-50 0 -84 32 -84 77c0 9 0 16 1 22c-43 -57 -104 -101 -176 -101z" />
    <glyph glyph-name="Abreve" unicode="&#x102;" horiz-adv-x="793" 
d="M531 791c-81 0 -124 61 -135 135l39 13c11 -56 47 -89 104 -89c52 0 100 28 137 88l35 -21c-38 -72 -108 -126 -180 -126zM280 314h264l-48 362zM-19 0l13 53h67l370 618h-87l13 53h296l-13 -53h-84l84 -618h78l-13 -53h-221l13 53h82l-27 208h-304l-123 -208h95l-13 -53
h-226z" />
    <glyph glyph-name="abreve" unicode="&#x103;" horiz-adv-x="656" 
d="M397 589c-85 0 -131 65 -142 142l41 14c12 -59 50 -94 110 -94c54 0 105 30 144 93l37 -22c-40 -76 -114 -133 -190 -133zM252 43c127 0 207 142 207 253c0 88 -47 148 -136 148c-118 0 -200 -124 -200 -251c0 -92 45 -150 129 -150zM240 -9c-104 0 -179 76 -179 201
c0 164 119 303 260 303c89 0 147 -50 161 -129l29 126h58l-90 -370c-5 -19 -9 -38 -9 -48c0 -23 15 -39 37 -39c26 0 45 23 68 77l34 -11c-23 -69 -57 -108 -110 -108c-50 0 -84 32 -84 77c0 9 0 16 1 22c-43 -57 -104 -101 -176 -101z" />
    <glyph glyph-name="Acircumflex" unicode="&#xc2;" horiz-adv-x="793" 
d="M392 785l-24 32l191 145l116 -152l-27 -25l-100 95zM280 314h264l-48 362zM-19 0l13 53h67l370 618h-87l13 53h296l-13 -53h-84l84 -618h78l-13 -53h-221l13 53h82l-27 208h-304l-123 -208h95l-13 -53h-226z" />
    <glyph glyph-name="acircumflex" unicode="&#xe2;" horiz-adv-x="656" 
d="M251 583l-25 33l201 153l122 -160l-28 -26l-106 100zM252 43c127 0 207 142 207 253c0 88 -47 148 -136 148c-118 0 -200 -124 -200 -251c0 -92 45 -150 129 -150zM240 -9c-104 0 -179 76 -179 201c0 164 119 303 260 303c89 0 147 -50 161 -129l29 126h58l-90 -370
c-5 -19 -9 -38 -9 -48c0 -23 15 -39 37 -39c26 0 45 23 68 77l34 -11c-23 -69 -57 -108 -110 -108c-50 0 -84 32 -84 77c0 9 0 16 1 22c-43 -57 -104 -101 -176 -101z" />
    <glyph glyph-name="Adieresis" unicode="&#xc4;" horiz-adv-x="793" 
d="M454 809c-30 0 -52 24 -52 54s22 54 52 54c29 0 52 -24 52 -54s-23 -54 -52 -54zM626 809c-30 0 -52 24 -52 54s22 54 52 54s52 -24 52 -54s-22 -54 -52 -54zM280 314h264l-48 362zM-19 0l13 53h67l370 618h-87l13 53h296l-13 -53h-84l84 -618h78l-13 -53h-221l13 53h82
l-27 208h-304l-123 -208h95l-13 -53h-226z" />
    <glyph glyph-name="adieresis" unicode="&#xe4;" horiz-adv-x="656" 
d="M315 608c-31 0 -54 25 -54 56c0 32 23 57 54 57c32 0 55 -25 55 -57c0 -31 -23 -56 -55 -56zM496 608c-31 0 -54 25 -54 56c0 32 23 57 54 57s55 -25 55 -57c0 -31 -24 -56 -55 -56zM252 43c127 0 207 142 207 253c0 88 -47 148 -136 148c-118 0 -200 -124 -200 -251
c0 -92 45 -150 129 -150zM240 -9c-104 0 -179 76 -179 201c0 164 119 303 260 303c89 0 147 -50 161 -129l29 126h58l-90 -370c-5 -19 -9 -38 -9 -48c0 -23 15 -39 37 -39c26 0 45 23 68 77l34 -11c-23 -69 -57 -108 -110 -108c-50 0 -84 32 -84 77c0 9 0 16 1 22
c-43 -57 -104 -101 -176 -101z" />
    <glyph glyph-name="AE" unicode="&#xc6;" horiz-adv-x="1007" 
d="M325 313h212l84 361h-21zM-39 0l13 53h90l470 618h-97l12 53h588l-39 -163h-58l26 110h-286l-63 -275h230l-11 -53h-231l-68 -290h286l26 110h58l-38 -163h-496l12 53h92l48 208h-239l-158 -208h106l-13 -53h-260z" />
    <glyph glyph-name="ae" unicode="&#xe6;" horiz-adv-x="923" 
d="M850 229h-370c-1 -11 -2 -23 -2 -34c0 -102 82 -153 166 -153c56 0 98 11 159 45l-13 -60c-50 -25 -92 -36 -156 -36c-109 0 -177 68 -198 153c-41 -91 -136 -153 -238 -153c-109 0 -150 68 -150 120c0 107 102 165 266 165h119c-1 90 -44 168 -149 168
c-24 0 -41 -3 -53 -8c-8 -2 -15 -7 -19 -11c7 -9 12 -18 12 -30c0 -24 -20 -46 -45 -46s-46 22 -46 51c0 28 22 59 59 77c23 11 53 18 88 18c111 0 168 -58 187 -152c50 97 138 152 226 152c108 0 176 -68 176 -172c0 -29 -7 -60 -19 -94zM688 444c-90 0 -168 -73 -198 -167
h315c6 18 9 37 9 56c0 58 -38 111 -126 111zM199 43c100 0 208 77 230 188h-100c-158 0 -222 -45 -222 -119c0 -38 34 -69 92 -69z" />
    <glyph glyph-name="AEacute" unicode="&#x1fc;" horiz-adv-x="1007" 
d="M673 787l-12 20l180 130c15 12 26 16 41 16c19 0 36 -17 36 -36c0 -23 -17 -37 -40 -46zM325 313h212l84 361h-21zM-39 0l13 53h90l470 618h-97l12 53h588l-39 -163h-58l26 110h-286l-63 -275h230l-11 -53h-231l-68 -290h286l26 110h58l-38 -163h-496l12 53h92l48 208
h-239l-158 -208h106l-13 -53h-260z" />
    <glyph glyph-name="aeacute" unicode="&#x1fd;" horiz-adv-x="923" 
d="M490 585l-12 21l188 136c16 13 28 18 44 18c20 0 37 -18 37 -38c0 -25 -17 -39 -41 -48zM850 229h-370c-1 -11 -2 -23 -2 -34c0 -102 82 -153 166 -153c56 0 98 11 159 45l-13 -60c-50 -25 -92 -36 -156 -36c-109 0 -177 68 -198 153c-41 -91 -136 -153 -238 -153
c-109 0 -150 68 -150 120c0 107 102 165 266 165h119c-1 90 -44 168 -149 168c-24 0 -41 -3 -53 -8c-8 -2 -15 -7 -19 -11c7 -9 12 -18 12 -30c0 -24 -20 -46 -45 -46s-46 22 -46 51c0 28 22 59 59 77c23 11 53 18 88 18c111 0 168 -58 187 -152c50 97 138 152 226 152
c108 0 176 -68 176 -172c0 -29 -7 -60 -19 -94zM688 444c-90 0 -168 -73 -198 -167h315c6 18 9 37 9 56c0 58 -38 111 -126 111zM199 43c100 0 208 77 230 188h-100c-158 0 -222 -45 -222 -119c0 -38 34 -69 92 -69z" />
    <glyph glyph-name="Agrave" unicode="&#xc0;" horiz-adv-x="793" 
d="M567 786l-129 83c-23 15 -31 29 -31 45c0 21 18 39 40 39c16 0 27 -5 45 -28l92 -122zM280 314h264l-48 362zM-19 0l13 53h67l370 618h-87l13 53h296l-13 -53h-84l84 -618h78l-13 -53h-221l13 53h82l-27 208h-304l-123 -208h95l-13 -53h-226z" />
    <glyph glyph-name="agrave" unicode="&#xe0;" horiz-adv-x="656" 
d="M436 584l-137 88c-23 15 -31 30 -31 47c0 22 18 41 40 41c17 0 29 -6 48 -30l97 -128zM252 43c127 0 207 142 207 253c0 88 -47 148 -136 148c-118 0 -200 -124 -200 -251c0 -92 45 -150 129 -150zM240 -9c-104 0 -179 76 -179 201c0 164 119 303 260 303
c89 0 147 -50 161 -129l29 126h58l-90 -370c-5 -19 -9 -38 -9 -48c0 -23 15 -39 37 -39c26 0 45 23 68 77l34 -11c-23 -69 -57 -108 -110 -108c-50 0 -84 32 -84 77c0 9 0 16 1 22c-43 -57 -104 -101 -176 -101z" />
    <glyph glyph-name="Amacron" unicode="&#x100;" horiz-adv-x="793" 
d="M373 825l13 55h315l-12 -55h-316zM280 314h264l-48 362zM-19 0l13 53h67l370 618h-87l13 53h296l-13 -53h-84l84 -618h78l-13 -53h-221l13 53h82l-27 208h-304l-123 -208h95l-13 -53h-226z" />
    <glyph glyph-name="amacron" unicode="&#x101;" horiz-adv-x="656" 
d="M232 625l14 58h331l-12 -58h-333zM252 43c127 0 207 142 207 253c0 88 -47 148 -136 148c-118 0 -200 -124 -200 -251c0 -92 45 -150 129 -150zM240 -9c-104 0 -179 76 -179 201c0 164 119 303 260 303c89 0 147 -50 161 -129l29 126h58l-90 -370c-5 -19 -9 -38 -9 -48
c0 -23 15 -39 37 -39c26 0 45 23 68 77l34 -11c-23 -69 -57 -108 -110 -108c-50 0 -84 32 -84 77c0 9 0 16 1 22c-43 -57 -104 -101 -176 -101z" />
    <glyph glyph-name="Aogonek" unicode="&#x104;" horiz-adv-x="793" 
d="M-19 0l13 53h67l370 618h-87l13 53h296l-13 -53h-84l84 -618h78l-13 -53h-81c-52 -38 -95 -84 -95 -129c0 -28 19 -44 51 -44c23 0 40 5 54 10l-9 -44c-11 -7 -31 -14 -60 -14c-58 0 -88 30 -88 77c0 52 40 102 98 144h-91l13 53h82l-27 208h-304l-123 -208h95l-13 -53
h-226zM280 314h264l-48 362z" />
    <glyph glyph-name="aogonek" unicode="&#x105;" horiz-adv-x="656" 
d="M415 74c0 6 1 12 2 19c-44 -58 -105 -102 -177 -102c-104 0 -179 76 -179 201c0 164 119 303 260 303c89 0 147 -49 161 -128l29 125h58l-90 -370c-5 -19 -9 -38 -9 -48c0 -23 15 -39 37 -39c26 0 45 23 68 77l34 -11c-8 -25 -22 -53 -41 -73c-45 -50 -126 -96 -126 -164
c0 -30 20 -47 54 -47c24 0 42 5 57 11l-10 -47c-12 -6 -33 -14 -63 -14c-61 0 -93 32 -93 81c0 53 41 104 99 147c-42 6 -71 30 -71 79zM252 43c127 0 207 142 207 254c0 88 -47 147 -136 147c-118 0 -200 -124 -200 -251c0 -92 45 -150 129 -150z" />
    <glyph glyph-name="Aring" unicode="&#xc5;" horiz-adv-x="793" 
d="M507 735c41 0 72 39 72 84c0 31 -21 55 -51 55c-41 0 -72 -39 -72 -84c0 -31 21 -55 51 -55zM280 314h264l-48 362zM-19 0l13 53h67l370 618h-87l13 53h94c-25 17 -36 43 -36 72c0 58 50 119 118 119c57 0 89 -40 89 -92c0 -45 -26 -85 -60 -99h91l-13 -53h-84l84 -618
h78l-13 -53h-221l13 53h82l-27 208h-304l-123 -208h95l-13 -53h-226z" />
    <glyph glyph-name="aring" unicode="&#xe5;" horiz-adv-x="656" 
d="M399 576c-60 0 -94 42 -94 97c0 72 52 136 124 136c60 0 94 -43 94 -97c0 -72 -52 -136 -124 -136zM403 619c43 0 75 41 75 88c0 33 -22 59 -53 59c-43 0 -76 -41 -76 -89c0 -33 22 -58 54 -58zM252 43c127 0 207 142 207 253c0 88 -47 148 -136 148
c-118 0 -200 -124 -200 -251c0 -92 45 -150 129 -150zM240 -9c-104 0 -179 76 -179 201c0 164 119 303 260 303c89 0 147 -50 161 -129l29 126h58l-90 -370c-5 -19 -9 -38 -9 -48c0 -23 15 -39 37 -39c26 0 45 23 68 77l34 -11c-23 -69 -57 -108 -110 -108
c-50 0 -84 32 -84 77c0 9 0 16 1 22c-43 -57 -104 -101 -176 -101z" />
    <glyph glyph-name="Aringacute" unicode="&#x1fa;" horiz-adv-x="793" 
d="M529 978l-12 20l180 130c15 12 26 16 41 16c19 0 36 -17 36 -36c0 -23 -17 -37 -40 -46zM507 735c41 0 72 39 72 84c0 31 -21 55 -51 55c-41 0 -72 -39 -72 -84c0 -31 21 -55 51 -55zM280 314h264l-48 362zM-19 0l13 53h67l370 618h-87l13 53h94c-25 17 -36 43 -36 72
c0 58 50 119 118 119c57 0 89 -40 89 -92c0 -45 -26 -85 -60 -99h91l-13 -53h-84l84 -618h78l-13 -53h-221l13 53h82l-27 208h-304l-123 -208h95l-13 -53h-226z" />
    <glyph glyph-name="aringacute" unicode="&#x1fb;" horiz-adv-x="656" 
d="M426 887l-12 21l188 136c16 13 28 18 44 18c20 0 37 -18 37 -38c0 -25 -17 -39 -41 -48zM399 576c-60 0 -94 42 -94 97c0 72 52 136 124 136c60 0 94 -43 94 -97c0 -72 -52 -136 -124 -136zM403 619c43 0 75 41 75 88c0 33 -22 59 -53 59c-43 0 -76 -41 -76 -89
c0 -33 22 -58 54 -58zM252 43c127 0 207 142 207 253c0 88 -47 148 -136 148c-118 0 -200 -124 -200 -251c0 -92 45 -150 129 -150zM240 -9c-104 0 -179 76 -179 201c0 164 119 303 260 303c89 0 147 -50 161 -129l29 126h58l-90 -370c-5 -19 -9 -38 -9 -48
c0 -23 15 -39 37 -39c26 0 45 23 68 77l34 -11c-23 -69 -57 -108 -110 -108c-50 0 -84 32 -84 77c0 9 0 16 1 22c-43 -57 -104 -101 -176 -101z" />
    <glyph glyph-name="Atilde" unicode="&#xc3;" horiz-adv-x="793" 
d="M598 786c-40 0 -65 21 -88 44c-20 20 -34 30 -54 30c-28 0 -47 -24 -63 -67l-39 12c13 62 61 112 107 112c40 0 65 -21 87 -44c20 -20 34 -30 54 -30c28 0 48 24 63 67l39 -12c-13 -62 -60 -112 -106 -112zM280 314h264l-48 362zM-19 0l13 53h67l370 618h-87l13 53h296
l-13 -53h-84l84 -618h78l-13 -53h-221l13 53h82l-27 208h-304l-123 -208h95l-13 -53h-226z" />
    <glyph glyph-name="atilde" unicode="&#xe3;" horiz-adv-x="656" 
d="M469 584c-42 0 -69 22 -93 46c-22 22 -36 32 -57 32c-29 0 -50 -25 -66 -71l-41 13c14 65 63 118 112 118c42 0 68 -22 92 -46c21 -22 36 -32 57 -32c30 0 50 25 67 71l41 -13c-14 -66 -64 -118 -112 -118zM252 43c127 0 207 142 207 253c0 88 -47 148 -136 148
c-118 0 -200 -124 -200 -251c0 -92 45 -150 129 -150zM240 -9c-104 0 -179 76 -179 201c0 164 119 303 260 303c89 0 147 -50 161 -129l29 126h58l-90 -370c-5 -19 -9 -38 -9 -48c0 -23 15 -39 37 -39c26 0 45 23 68 77l34 -11c-23 -69 -57 -108 -110 -108
c-50 0 -84 32 -84 77c0 9 0 16 1 22c-43 -57 -104 -101 -176 -101z" />
    <glyph glyph-name="Cacute" unicode="&#x106;" horiz-adv-x="777" 
d="M477 787l-12 20l180 130c15 12 26 16 41 16c19 0 36 -17 36 -36c0 -23 -17 -37 -40 -46zM400 -13c-170 0 -309 116 -309 318c0 228 185 432 406 432c177 0 258 -112 258 -174c0 -45 -28 -70 -56 -70c-31 0 -49 18 -49 44c0 20 15 40 36 51c-11 40 -75 95 -192 95
c-206 0 -340 -199 -340 -371c0 -171 102 -270 252 -270c92 0 172 38 240 103l34 -38c-80 -78 -176 -120 -280 -120z" />
    <glyph glyph-name="cacute" unicode="&#x107;" horiz-adv-x="542" 
d="M325 585l-12 21l188 136c16 13 28 18 44 18c20 0 37 -18 37 -38c0 -25 -17 -39 -41 -48zM268 -9c-116 0 -208 77 -208 206c0 152 123 298 272 298c122 0 174 -73 174 -122c0 -33 -24 -59 -53 -59c-17 0 -38 11 -38 42c0 10 9 32 27 37c-18 31 -53 51 -111 51
c-115 0 -212 -119 -212 -246c0 -91 59 -155 158 -155c55 0 113 24 161 68l-3 -60c-48 -38 -104 -60 -167 -60z" />
    <glyph glyph-name="Ccaron" unicode="&#x10c;" horiz-adv-x="777" 
d="M524 790l-116 152l27 24l100 -95l155 95l25 -31zM400 -13c-170 0 -309 116 -309 318c0 228 185 432 406 432c177 0 258 -112 258 -174c0 -45 -28 -70 -56 -70c-31 0 -49 18 -49 44c0 20 15 40 36 51c-11 40 -75 95 -192 95c-206 0 -340 -199 -340 -371
c0 -171 102 -270 252 -270c92 0 172 38 240 103l34 -38c-80 -78 -176 -120 -280 -120z" />
    <glyph glyph-name="ccaron" unicode="&#x10d;" horiz-adv-x="542" 
d="M375 588l-123 160l29 25l106 -100l163 100l26 -33zM268 -9c-116 0 -208 77 -208 206c0 152 123 298 272 298c122 0 174 -73 174 -122c0 -33 -24 -59 -53 -59c-17 0 -38 11 -38 42c0 10 9 32 27 37c-18 31 -53 51 -111 51c-115 0 -212 -119 -212 -246
c0 -91 59 -155 158 -155c55 0 113 24 161 68l-3 -60c-48 -38 -104 -60 -167 -60z" />
    <glyph glyph-name="Ccedilla" unicode="&#xc7;" horiz-adv-x="777" 
d="M327 -219c-51 0 -101 25 -126 45l22 30c20 -14 66 -30 101 -30c34 0 51 16 51 38c0 21 -26 41 -72 33l-14 15l43 82c-138 26 -241 137 -241 311c0 228 185 432 406 432c177 0 258 -112 258 -174c0 -45 -28 -70 -56 -70c-31 0 -49 18 -49 44c0 20 15 40 36 51
c-11 40 -75 95 -192 95c-206 0 -340 -199 -340 -371c0 -171 102 -270 252 -270c92 0 172 38 240 103l34 -38c-80 -78 -176 -120 -280 -120c-11 0 -21 1 -31 2l-18 -48c56 -7 80 -42 80 -74c0 -55 -49 -86 -104 -86z" />
    <glyph glyph-name="ccedilla" unicode="&#xe7;" horiz-adv-x="542" 
d="M202 -231c-54 0 -106 27 -132 48l22 31c22 -16 70 -33 107 -33c36 0 54 18 54 42c0 22 -27 43 -76 35l-15 15l48 91c-88 21 -150 92 -150 199c0 152 123 298 272 298c122 0 174 -73 174 -122c0 -33 -24 -59 -53 -59c-17 0 -38 11 -38 42c0 10 9 32 27 37
c-18 31 -53 51 -111 51c-115 0 -212 -119 -212 -246c0 -91 59 -155 158 -155c55 0 113 24 161 68l-3 -60c-48 -38 -104 -60 -167 -60c-7 0 -14 1 -20 1l-21 -55c59 -7 84 -43 84 -77c0 -58 -51 -91 -109 -91z" />
    <glyph glyph-name="Cdotaccent" unicode="&#x10a;" horiz-adv-x="777" 
d="M539 807c-31 0 -54 25 -54 56s23 57 54 57s54 -26 54 -57s-23 -56 -54 -56zM400 -13c-170 0 -309 116 -309 318c0 228 185 432 406 432c177 0 258 -112 258 -174c0 -45 -28 -70 -56 -70c-31 0 -49 18 -49 44c0 20 15 40 36 51c-11 40 -75 95 -192 95
c-206 0 -340 -199 -340 -371c0 -171 102 -270 252 -270c92 0 172 38 240 103l34 -38c-80 -78 -176 -120 -280 -120z" />
    <glyph glyph-name="cdotaccent" unicode="&#x10b;" horiz-adv-x="542" 
d="M390 606c-32 0 -57 27 -57 59s25 59 57 59s57 -27 57 -59s-25 -59 -57 -59zM268 -9c-116 0 -208 77 -208 206c0 152 123 298 272 298c122 0 174 -73 174 -122c0 -33 -24 -59 -53 -59c-17 0 -38 11 -38 42c0 10 9 32 27 37c-18 31 -53 51 -111 51
c-115 0 -212 -119 -212 -246c0 -91 59 -155 158 -155c55 0 113 24 161 68l-3 -60c-48 -38 -104 -60 -167 -60z" />
    <glyph glyph-name="Dcaron" unicode="&#x10e;" horiz-adv-x="802" 
d="M492 790l-116 152l27 24l100 -95l155 95l25 -31zM17 0l13 53h92l143 618h-103l12 53h226c142 0 225 -33 293 -101c45 -45 74 -116 74 -194c0 -116 -40 -216 -113 -289c-92 -92 -221 -140 -389 -140h-248zM182 53h94c142 0 253 43 325 115c68 67 101 154 101 258
c0 67 -23 125 -59 161c-52 52 -118 84 -248 84h-70z" />
    <glyph glyph-name="dcaron" unicode="&#x10f;" horiz-adv-x="660" 
d="M660 606l-17 17c36 40 56 68 67 110c7 26 4 51 7 74c4 25 16 42 43 42c21 0 36 -12 36 -38c0 -30 -13 -63 -35 -98c-26 -40 -65 -77 -101 -107zM258 43c124 0 205 136 205 250c0 91 -52 151 -141 151c-118 0 -198 -122 -198 -249c0 -93 50 -152 134 -152zM62 194
c0 168 121 301 256 301c84 0 153 -48 166 -128l100 431h-94l12 51h151l-170 -726c-5 -21 -9 -39 -9 -49c0 -23 14 -39 36 -39c27 0 47 23 69 77l34 -11c-23 -69 -57 -108 -109 -108c-49 0 -84 32 -84 80c0 5 0 12 1 18c-42 -56 -101 -100 -175 -100c-105 0 -184 77 -184 203
z" />
    <glyph glyph-name="Dcroat" unicode="&#x110;" horiz-adv-x="802" 
d="M17 0l13 53h92l67 291h-95l13 53h94l64 274h-103l12 53h226c142 0 225 -33 293 -101c45 -45 74 -116 74 -194c0 -116 -40 -216 -113 -289c-92 -92 -221 -140 -389 -140h-248zM182 53h94c142 0 253 43 325 115c68 67 101 154 101 258c0 67 -23 125 -59 161
c-52 52 -118 84 -248 84h-70l-64 -274h151l-13 -53h-150z" />
    <glyph glyph-name="dcroat" unicode="&#x111;" horiz-adv-x="660" 
d="M258 43c124 0 205 136 205 250c0 91 -52 151 -141 151c-118 0 -198 -122 -198 -249c0 -93 50 -152 134 -152zM357 619l11 51h186l30 128h-94l12 51h151l-42 -179h90l-11 -51h-91l-116 -496c-5 -21 -9 -39 -9 -49c0 -23 14 -39 36 -39c27 0 47 23 69 77l34 -11
c-23 -69 -57 -108 -109 -108c-49 0 -84 32 -84 80c0 5 0 12 1 18c-42 -56 -101 -100 -175 -100c-105 0 -184 77 -184 203c0 168 121 301 256 301c84 0 153 -48 166 -128l58 252h-185z" />
    <glyph glyph-name="Eacute" unicode="&#xc9;" horiz-adv-x="663" 
d="M408 787l-12 20l180 130c15 12 26 16 41 16c19 0 36 -17 36 -36c0 -23 -17 -37 -40 -46zM17 0l13 53h92l143 618h-103l12 53h518l-38 -163h-58l25 110h-296l-63 -275h241l-12 -53h-241l-68 -290h296l26 110h58l-37 -163h-508z" />
    <glyph glyph-name="eacute" unicode="&#xe9;" horiz-adv-x="562" 
d="M315 585l-12 21l188 136c16 13 28 18 44 18c20 0 37 -18 37 -38c0 -25 -17 -39 -41 -48zM488 229h-370c-2 -11 -2 -23 -2 -34c0 -101 82 -153 166 -153c57 0 98 11 160 45l-14 -60c-50 -25 -92 -36 -156 -36c-112 0 -213 73 -213 204c0 163 127 300 272 300
c109 0 176 -68 176 -172c0 -29 -7 -60 -19 -94zM326 444c-88 0 -168 -71 -198 -167h316c5 18 9 37 9 56c0 58 -39 111 -127 111z" />
    <glyph glyph-name="Ebreve" unicode="&#x114;" horiz-adv-x="663" 
d="M461 791c-81 0 -124 61 -135 135l39 13c11 -56 47 -89 104 -89c52 0 100 28 137 88l35 -21c-38 -72 -108 -126 -180 -126zM17 0l13 53h92l143 618h-103l12 53h518l-38 -163h-58l25 110h-296l-63 -275h241l-12 -53h-241l-68 -290h296l26 110h58l-37 -163h-508z" />
    <glyph glyph-name="ebreve" unicode="&#x115;" horiz-adv-x="562" 
d="M370 589c-85 0 -131 65 -142 142l41 14c12 -59 50 -94 110 -94c54 0 105 30 144 93l37 -22c-40 -76 -114 -133 -190 -133zM488 229h-370c-2 -11 -2 -23 -2 -34c0 -101 82 -153 166 -153c57 0 98 11 160 45l-14 -60c-50 -25 -92 -36 -156 -36c-112 0 -213 73 -213 204
c0 163 127 300 272 300c109 0 176 -68 176 -172c0 -29 -7 -60 -19 -94zM326 444c-88 0 -168 -71 -198 -167h316c5 18 9 37 9 56c0 58 -39 111 -127 111z" />
    <glyph glyph-name="Ecaron" unicode="&#x11a;" horiz-adv-x="663" 
d="M455 790l-116 152l27 24l100 -95l155 95l25 -31zM17 0l13 53h92l143 618h-103l12 53h518l-38 -163h-58l25 110h-296l-63 -275h241l-12 -53h-241l-68 -290h296l26 110h58l-37 -163h-508z" />
    <glyph glyph-name="ecaron" unicode="&#x11b;" horiz-adv-x="562" 
d="M365 588l-123 160l29 25l106 -100l163 100l26 -33zM488 229h-370c-2 -11 -2 -23 -2 -34c0 -101 82 -153 166 -153c57 0 98 11 160 45l-14 -60c-50 -25 -92 -36 -156 -36c-112 0 -213 73 -213 204c0 163 127 300 272 300c109 0 176 -68 176 -172c0 -29 -7 -60 -19 -94z
M326 444c-88 0 -168 -71 -198 -167h316c5 18 9 37 9 56c0 58 -39 111 -127 111z" />
    <glyph glyph-name="Ecircumflex" unicode="&#xca;" horiz-adv-x="663" 
d="M322 785l-24 32l191 145l116 -152l-27 -25l-100 95zM17 0l13 53h92l143 618h-103l12 53h518l-38 -163h-58l25 110h-296l-63 -275h241l-12 -53h-241l-68 -290h296l26 110h58l-37 -163h-508z" />
    <glyph glyph-name="ecircumflex" unicode="&#xea;" horiz-adv-x="562" 
d="M224 583l-25 33l201 153l122 -160l-28 -26l-106 100zM488 229h-370c-2 -11 -2 -23 -2 -34c0 -101 82 -153 166 -153c57 0 98 11 160 45l-14 -60c-50 -25 -92 -36 -156 -36c-112 0 -213 73 -213 204c0 163 127 300 272 300c109 0 176 -68 176 -172c0 -29 -7 -60 -19 -94z
M326 444c-88 0 -168 -71 -198 -167h316c5 18 9 37 9 56c0 58 -39 111 -127 111z" />
    <glyph glyph-name="Edieresis" unicode="&#xcb;" horiz-adv-x="663" 
d="M384 809c-30 0 -52 24 -52 54s22 54 52 54c29 0 52 -24 52 -54s-23 -54 -52 -54zM556 809c-30 0 -52 24 -52 54s22 54 52 54s52 -24 52 -54s-22 -54 -52 -54zM17 0l13 53h92l143 618h-103l12 53h518l-38 -163h-58l25 110h-296l-63 -275h241l-12 -53h-241l-68 -290h296
l26 110h58l-37 -163h-508z" />
    <glyph glyph-name="edieresis" unicode="&#xeb;" horiz-adv-x="562" 
d="M289 608c-31 0 -54 25 -54 56c0 32 23 57 54 57c32 0 55 -25 55 -57c0 -31 -23 -56 -55 -56zM470 608c-31 0 -54 25 -54 56c0 32 23 57 54 57s55 -25 55 -57c0 -31 -24 -56 -55 -56zM488 229h-370c-2 -11 -2 -23 -2 -34c0 -101 82 -153 166 -153c57 0 98 11 160 45
l-14 -60c-50 -25 -92 -36 -156 -36c-112 0 -213 73 -213 204c0 163 127 300 272 300c109 0 176 -68 176 -172c0 -29 -7 -60 -19 -94zM326 444c-88 0 -168 -71 -198 -167h316c5 18 9 37 9 56c0 58 -39 111 -127 111z" />
    <glyph glyph-name="Edotaccent" unicode="&#x116;" horiz-adv-x="663" 
d="M470 807c-31 0 -54 25 -54 56s23 57 54 57s54 -26 54 -57s-23 -56 -54 -56zM17 0l13 53h92l143 618h-103l12 53h518l-38 -163h-58l25 110h-296l-63 -275h241l-12 -53h-241l-68 -290h296l26 110h58l-37 -163h-508z" />
    <glyph glyph-name="edotaccent" unicode="&#x117;" horiz-adv-x="562" 
d="M380 606c-32 0 -57 27 -57 59s25 59 57 59s57 -27 57 -59s-25 -59 -57 -59zM488 229h-370c-2 -11 -2 -23 -2 -34c0 -101 82 -153 166 -153c57 0 98 11 160 45l-14 -60c-50 -25 -92 -36 -156 -36c-112 0 -213 73 -213 204c0 163 127 300 272 300c109 0 176 -68 176 -172
c0 -29 -7 -60 -19 -94zM326 444c-88 0 -168 -71 -198 -167h316c5 18 9 37 9 56c0 58 -39 111 -127 111z" />
    <glyph glyph-name="Egrave" unicode="&#xc8;" horiz-adv-x="663" 
d="M497 786l-129 83c-23 15 -31 29 -31 45c0 21 18 39 40 39c16 0 27 -5 45 -28l92 -122zM17 0l13 53h92l143 618h-103l12 53h518l-38 -163h-58l25 110h-296l-63 -275h241l-12 -53h-241l-68 -290h296l26 110h58l-37 -163h-508z" />
    <glyph glyph-name="egrave" unicode="&#xe8;" horiz-adv-x="562" 
d="M410 584l-137 88c-23 15 -31 30 -31 47c0 22 18 41 40 41c17 0 29 -6 48 -30l97 -128zM488 229h-370c-2 -11 -2 -23 -2 -34c0 -101 82 -153 166 -153c57 0 98 11 160 45l-14 -60c-50 -25 -92 -36 -156 -36c-112 0 -213 73 -213 204c0 163 127 300 272 300
c109 0 176 -68 176 -172c0 -29 -7 -60 -19 -94zM326 444c-88 0 -168 -71 -198 -167h316c5 18 9 37 9 56c0 58 -39 111 -127 111z" />
    <glyph glyph-name="Emacron" unicode="&#x112;" horiz-adv-x="663" 
d="M304 825l13 55h315l-12 -55h-316zM17 0l13 53h92l143 618h-103l12 53h518l-38 -163h-58l25 110h-296l-63 -275h241l-12 -53h-241l-68 -290h296l26 110h58l-37 -163h-508z" />
    <glyph glyph-name="emacron" unicode="&#x113;" horiz-adv-x="562" 
d="M205 625l14 58h331l-12 -58h-333zM488 229h-370c-2 -11 -2 -23 -2 -34c0 -101 82 -153 166 -153c57 0 98 11 160 45l-14 -60c-50 -25 -92 -36 -156 -36c-112 0 -213 73 -213 204c0 163 127 300 272 300c109 0 176 -68 176 -172c0 -29 -7 -60 -19 -94zM326 444
c-88 0 -168 -71 -198 -167h316c5 18 9 37 9 56c0 58 -39 111 -127 111z" />
    <glyph glyph-name="Eogonek" unicode="&#x118;" horiz-adv-x="663" 
d="M17 0l13 53h92l143 618h-103l12 53h518l-38 -163h-58l25 110h-296l-63 -275h241l-12 -53h-241l-68 -290h296l26 110h58l-37 -163h-46c-52 -38 -95 -84 -95 -129c0 -28 19 -44 51 -44c23 0 40 5 54 10l-9 -44c-11 -7 -31 -14 -60 -14c-58 0 -88 30 -88 77
c0 52 40 102 98 144h-413z" />
    <glyph glyph-name="eogonek" unicode="&#x119;" horiz-adv-x="562" 
d="M313 -233c-60 0 -92 32 -92 81c0 55 42 109 100 147c-15 -2 -31 -4 -49 -4c-112 0 -213 73 -213 204c0 163 127 300 272 300c109 0 176 -68 176 -172c0 -29 -7 -60 -19 -94h-370c-2 -11 -2 -23 -2 -34c0 -101 82 -153 166 -153c57 0 98 11 160 45l-14 -59
c-65 -33 -152 -96 -152 -164c0 -30 20 -47 54 -47c24 0 42 5 57 11l-10 -47c-12 -6 -33 -14 -64 -14zM326 444c-88 0 -168 -71 -198 -167h316c5 18 9 37 9 56c0 58 -39 111 -127 111z" />
    <glyph glyph-name="Eth" unicode="&#xd0;" horiz-adv-x="802" 
d="M17 0l13 53h92l67 291h-95l13 53h94l64 274h-103l12 53h226c142 0 225 -33 293 -101c45 -45 74 -116 74 -194c0 -116 -40 -216 -113 -289c-92 -92 -221 -140 -389 -140h-248zM182 53h94c142 0 253 43 325 115c68 67 101 154 101 258c0 67 -23 125 -59 161
c-52 52 -118 84 -248 84h-70l-64 -274h151l-13 -53h-150z" />
    <glyph glyph-name="eth" unicode="&#xf0;" horiz-adv-x="588" 
d="M248 -8c-121 0 -193 89 -193 199c0 145 116 280 250 280c91 0 148 -46 170 -120c3 29 4 60 4 95c0 94 -27 181 -65 239l-153 -140l-34 37l156 142c-38 40 -78 62 -120 74c-6 -26 -22 -39 -45 -39c-24 0 -45 16 -45 46c0 22 21 47 59 47c57 0 129 -32 189 -95l106 97
l33 -36l-108 -99c44 -64 78 -164 78 -270c0 -178 -33 -304 -113 -385c-43 -43 -100 -72 -169 -72zM253 45c52 0 99 23 134 61c40 42 65 103 65 168c0 88 -60 145 -145 145c-106 0 -192 -107 -192 -228c0 -90 59 -146 138 -146z" />
    <glyph glyph-name="Gbreve" unicode="&#x11e;" horiz-adv-x="807" 
d="M536 791c-81 0 -124 61 -135 135l39 13c11 -56 47 -89 104 -89c52 0 100 28 137 88l35 -21c-38 -72 -108 -126 -180 -126zM590 0l14 65c-60 -46 -143 -78 -231 -78c-163 0 -282 116 -282 295c0 233 181 455 423 455c91 0 171 -33 213 -74c24 -22 42 -50 42 -85
c0 -40 -28 -64 -56 -64c-30 0 -49 18 -49 44c0 20 14 39 36 51c-4 8 -13 17 -23 26c-34 25 -92 48 -166 48c-222 0 -357 -211 -357 -399c0 -139 82 -244 230 -244c86 0 167 31 234 86l40 163h-212l13 52h269l-81 -341h-57z" />
    <glyph glyph-name="gbreve" unicode="&#x11f;" horiz-adv-x="623" 
d="M397 589c-85 0 -131 65 -142 142l41 14c12 -59 50 -94 110 -94c54 0 105 30 144 93l37 -22c-40 -76 -114 -133 -190 -133zM263 52c124 0 203 131 203 245c0 89 -53 147 -142 147c-118 0 -200 -115 -200 -241c0 -92 54 -151 139 -151zM212 -232c-64 0 -134 27 -160 53
c-18 18 -24 33 -24 49c0 30 18 53 48 53s46 -25 46 -49c0 -11 -4 -22 -11 -31c23 -15 58 -26 104 -26c54 0 92 14 125 47c28 28 50 73 64 132c0 2 15 68 25 108c-42 -68 -108 -104 -177 -104c-106 0 -190 76 -190 201c0 164 121 294 262 294c92 0 150 -53 164 -126
c11 46 29 121 29 122h58l-117 -502c-16 -71 -38 -120 -76 -159c-43 -42 -98 -62 -170 -62z" />
    <glyph glyph-name="Gcommaaccent" unicode="&#x122;" horiz-adv-x="807" 
d="M590 0l14 65c-60 -46 -143 -78 -231 -78c-163 0 -282 116 -282 295c0 233 181 455 423 455c91 0 171 -33 213 -74c24 -22 42 -50 42 -85c0 -40 -28 -64 -56 -64c-30 0 -49 18 -49 44c0 20 14 39 36 51c-4 8 -13 17 -23 26c-34 25 -92 48 -166 48
c-222 0 -357 -211 -357 -399c0 -139 82 -244 230 -244c86 0 167 31 234 86l40 163h-212l13 52h269l-81 -341h-57zM224 -290l-11 21c72 32 109 84 112 111c-25 5 -40 28 -40 48c0 27 20 48 49 48s52 -24 52 -58c0 -60 -49 -132 -162 -170z" />
    <glyph glyph-name="gcommaaccent" unicode="&#x123;" horiz-adv-x="623" 
d="M525 855l11 -22c-75 -34 -114 -88 -117 -117c26 -5 41 -30 41 -50c0 -28 -20 -50 -50 -50c-31 0 -55 24 -55 60c0 63 51 139 170 179zM263 52c124 0 203 131 203 245c0 89 -53 147 -142 147c-118 0 -200 -115 -200 -241c0 -92 54 -151 139 -151zM212 -232
c-64 0 -134 27 -160 53c-18 18 -24 33 -24 49c0 30 18 53 48 53s46 -25 46 -49c0 -11 -4 -22 -11 -31c23 -15 58 -26 104 -26c54 0 92 14 125 47c28 28 50 73 64 132c0 2 15 68 25 108c-42 -68 -108 -104 -177 -104c-106 0 -190 76 -190 201c0 164 121 294 262 294
c92 0 150 -53 164 -126c11 46 29 121 29 122h58l-117 -502c-16 -71 -38 -120 -76 -159c-43 -42 -98 -62 -170 -62z" />
    <glyph glyph-name="Gdotaccent" unicode="&#x120;" horiz-adv-x="807" 
d="M546 807c-31 0 -54 25 -54 56s23 57 54 57s54 -26 54 -57s-23 -56 -54 -56zM590 0l14 65c-60 -46 -143 -78 -231 -78c-163 0 -282 116 -282 295c0 233 181 455 423 455c91 0 171 -33 213 -74c24 -22 42 -50 42 -85c0 -40 -28 -64 -56 -64c-30 0 -49 18 -49 44
c0 20 14 39 36 51c-4 8 -13 17 -23 26c-34 25 -92 48 -166 48c-222 0 -357 -211 -357 -399c0 -139 82 -244 230 -244c86 0 167 31 234 86l40 163h-212l13 52h269l-81 -341h-57z" />
    <glyph glyph-name="gdotaccent" unicode="&#x121;" horiz-adv-x="623" 
d="M407 606c-32 0 -57 27 -57 59s25 59 57 59s57 -27 57 -59s-25 -59 -57 -59zM263 52c124 0 203 131 203 245c0 89 -53 147 -142 147c-118 0 -200 -115 -200 -241c0 -92 54 -151 139 -151zM212 -232c-64 0 -134 27 -160 53c-18 18 -24 33 -24 49c0 30 18 53 48 53
s46 -25 46 -49c0 -11 -4 -22 -11 -31c23 -15 58 -26 104 -26c54 0 92 14 125 47c28 28 50 73 64 132c0 2 15 68 25 108c-42 -68 -108 -104 -177 -104c-106 0 -190 76 -190 201c0 164 121 294 262 294c92 0 150 -53 164 -126c11 46 29 121 29 122h58l-117 -502
c-16 -71 -38 -120 -76 -159c-43 -42 -98 -62 -170 -62z" />
    <glyph glyph-name="Hbar" unicode="&#x126;" horiz-adv-x="869" 
d="M263 399h423l26 117h-423zM863 567l-11 -51h-81l-106 -463h102l-12 -53h-255l12 53h92l69 292h-423l-68 -292h103l-13 -53h-255l13 53h92l107 463h-78l12 51h78l24 104h-103l12 53h256l-13 -53h-92l-24 -104h422l24 104h-103l13 53h255l-13 -53h-92l-24 -104h80z" />
    <glyph glyph-name="hbar" unicode="&#x127;" horiz-adv-x="619" 
d="M50 0l145 619h-90l11 51h91l30 128h-94l12 51h151l-42 -179h185l-11 -51h-186l-57 -244c37 62 95 120 172 120c80 0 139 -53 140 -125c0 -25 -5 -52 -12 -79l-46 -168c-5 -19 -8 -39 -8 -49c0 -23 16 -39 37 -39c26 0 46 23 67 77l35 -11c-23 -69 -56 -108 -108 -108
c-51 0 -88 33 -88 81c0 14 4 36 9 55l46 170c7 26 10 48 10 69c-2 45 -39 78 -90 78c-74 0 -167 -80 -198 -216l-53 -230h-58z" />
    <glyph glyph-name="Iacute" unicode="&#xcd;" horiz-adv-x="399" 
d="M284 787l-12 20l180 130c15 12 26 16 41 16c19 0 36 -17 36 -36c0 -23 -17 -37 -40 -46zM14 0l13 53h102l142 618h-103l13 53h266l-13 -53h-103l-141 -618h102l-12 -53h-266z" />
    <glyph glyph-name="iacute" unicode="&#xed;" horiz-adv-x="344" 
d="M195 585l-12 21l188 136c16 13 28 18 44 18c20 0 37 -18 37 -38c0 -25 -17 -39 -41 -48zM172 -7c-50 0 -86 33 -86 81c0 14 5 37 10 55l86 307h-98l13 50h157l-102 -363c-5 -18 -9 -39 -9 -49c0 -23 15 -39 37 -39c26 0 46 23 68 77l34 -11c-23 -69 -57 -108 -110 -108z
" />
    <glyph glyph-name="Ibreve" unicode="&#x12c;" horiz-adv-x="399" 
d="M336 791c-81 0 -124 61 -135 135l39 13c11 -56 47 -89 104 -89c52 0 100 28 137 88l35 -21c-38 -72 -108 -126 -180 -126zM14 0l13 53h102l142 618h-103l13 53h266l-13 -53h-103l-141 -618h102l-12 -53h-266z" />
    <glyph glyph-name="ibreve" unicode="&#x12d;" horiz-adv-x="344" 
d="M251 589c-85 0 -131 65 -142 142l41 14c12 -59 50 -94 110 -94c54 0 105 30 144 93l37 -22c-40 -76 -114 -133 -190 -133zM172 -7c-50 0 -86 33 -86 81c0 14 5 37 10 55l86 307h-98l13 50h157l-102 -363c-5 -18 -9 -39 -9 -49c0 -23 15 -39 37 -39c26 0 46 23 68 77
l34 -11c-23 -69 -57 -108 -110 -108z" />
    <glyph glyph-name="Icircumflex" unicode="&#xce;" horiz-adv-x="399" 
d="M198 785l-24 32l191 145l116 -152l-27 -25l-100 95zM14 0l13 53h102l142 618h-103l13 53h266l-13 -53h-103l-141 -618h102l-12 -53h-266z" />
    <glyph glyph-name="icircumflex" unicode="&#xee;" horiz-adv-x="344" 
d="M104 583l-25 33l201 153l122 -160l-28 -26l-106 100zM172 -7c-50 0 -86 33 -86 81c0 14 5 37 10 55l86 307h-98l13 50h157l-102 -363c-5 -18 -9 -39 -9 -49c0 -23 15 -39 37 -39c26 0 46 23 68 77l34 -11c-23 -69 -57 -108 -110 -108z" />
    <glyph glyph-name="Idieresis" unicode="&#xcf;" horiz-adv-x="399" 
d="M260 809c-30 0 -52 24 -52 54s22 54 52 54c29 0 52 -24 52 -54s-23 -54 -52 -54zM432 809c-30 0 -52 24 -52 54s22 54 52 54s52 -24 52 -54s-22 -54 -52 -54zM14 0l13 53h102l142 618h-103l13 53h266l-13 -53h-103l-141 -618h102l-12 -53h-266z" />
    <glyph glyph-name="idieresis" unicode="&#xef;" horiz-adv-x="344" 
d="M169 608c-31 0 -54 25 -54 56c0 32 23 57 54 57c32 0 55 -25 55 -57c0 -31 -23 -56 -55 -56zM350 608c-31 0 -54 25 -54 56c0 32 23 57 54 57s55 -25 55 -57c0 -31 -24 -56 -55 -56zM172 -7c-50 0 -86 33 -86 81c0 14 5 37 10 55l86 307h-98l13 50h157l-102 -363
c-5 -18 -9 -39 -9 -49c0 -23 15 -39 37 -39c26 0 46 23 68 77l34 -11c-23 -69 -57 -108 -110 -108z" />
    <glyph glyph-name="Idotaccent" unicode="&#x130;" horiz-adv-x="399" 
d="M346 807c-31 0 -54 25 -54 56s23 57 54 57s54 -26 54 -57s-23 -56 -54 -56zM14 0l13 53h102l142 618h-103l13 53h266l-13 -53h-103l-141 -618h102l-12 -53h-266z" />
    <glyph glyph-name="dotlessi" unicode="&#x131;" horiz-adv-x="344" 
d="M172 -7c-50 0 -86 33 -86 81c0 14 5 37 10 55l86 307h-98l13 50h157l-102 -363c-5 -18 -9 -39 -9 -49c0 -23 15 -39 37 -39c26 0 46 23 68 77l34 -11c-23 -69 -57 -108 -110 -108z" />
    <glyph glyph-name="Igrave" unicode="&#xcc;" horiz-adv-x="399" 
d="M373 786l-129 83c-23 15 -31 29 -31 45c0 21 18 39 40 39c16 0 27 -5 45 -28l92 -122zM14 0l13 53h102l142 618h-103l13 53h266l-13 -53h-103l-141 -618h102l-12 -53h-266z" />
    <glyph glyph-name="igrave" unicode="&#xec;" horiz-adv-x="344" 
d="M288 584l-137 88c-23 15 -31 30 -31 47c0 22 18 41 40 41c17 0 29 -6 48 -30l97 -128zM172 -7c-50 0 -86 33 -86 81c0 14 5 37 10 55l86 307h-98l13 50h157l-102 -363c-5 -18 -9 -39 -9 -49c0 -23 15 -39 37 -39c26 0 46 23 68 77l34 -11c-23 -69 -57 -108 -110 -108z
" />
    <glyph glyph-name="Imacron" unicode="&#x12a;" horiz-adv-x="399" 
d="M179 825l13 55h315l-12 -55h-316zM14 0l13 53h102l142 618h-103l13 53h266l-13 -53h-103l-141 -618h102l-12 -53h-266z" />
    <glyph glyph-name="imacron" unicode="&#x12b;" horiz-adv-x="344" 
d="M85 625l14 58h331l-12 -58h-333zM172 -7c-50 0 -86 33 -86 81c0 14 5 37 10 55l86 307h-98l13 50h157l-102 -363c-5 -18 -9 -39 -9 -49c0 -23 15 -39 37 -39c26 0 46 23 68 77l34 -11c-23 -69 -57 -108 -110 -108z" />
    <glyph glyph-name="Iogonek" unicode="&#x12e;" horiz-adv-x="399" 
d="M14 0l13 53h102l142 618h-103l13 53h266l-13 -53h-103l-141 -618h102l-12 -53h-109c-52 -38 -95 -84 -95 -129c0 -28 19 -44 51 -44c23 0 40 5 54 10l-9 -44c-11 -7 -31 -14 -60 -14c-58 0 -88 30 -88 77c0 52 40 102 98 144h-108z" />
    <glyph glyph-name="iogonek" unicode="&#x12f;" horiz-adv-x="344" 
d="M241 595c-26 0 -47 23 -47 49c0 27 21 49 47 49s47 -22 47 -49c0 -26 -21 -49 -47 -49zM248 112l34 -11c-8 -26 -22 -54 -41 -75c-45 -50 -126 -94 -126 -162c0 -30 20 -47 54 -47c24 0 42 5 57 11l-10 -47c-12 -6 -32 -14 -63 -14c-61 0 -92 32 -92 81
c0 53 40 103 97 146c-42 6 -72 36 -72 80c0 14 5 37 10 55l86 307h-98l13 50h157l-102 -363c-5 -18 -9 -39 -9 -49c0 -24 14 -38 36 -38c26 0 47 22 69 76z" />
    <glyph glyph-name="Kcommaaccent" unicode="&#x136;" horiz-adv-x="733" 
d="M711 671l-305 -259l171 -359h98l-12 -53h-128l-177 375l-127 -108l-49 -214h103l-13 -53h-255l13 53h92l143 618h-103l12 53h256l-13 -53h-92l-78 -334l391 334h-104l12 53h260l-12 -53h-83zM205 -290l-11 21c72 32 109 84 112 111c-25 5 -40 28 -40 48c0 27 20 48 49 48
s52 -24 52 -58c0 -60 -49 -132 -162 -170z" />
    <glyph glyph-name="kcommaaccent" unicode="&#x137;" horiz-adv-x="545" 
d="M108 0h-58l187 798h-94l12 51h151l-143 -611c153 68 242 132 259 163c-15 7 -26 27 -26 42c0 30 21 52 51 52c27 0 49 -20 49 -54c0 -66 -107 -139 -213 -194l55 -135c13 -33 21 -51 31 -61c10 -12 20 -14 30 -14c21 0 40 19 57 90l37 -12c-21 -93 -56 -122 -99 -122
c-24 0 -44 6 -63 24c-15 14 -29 36 -42 68l-58 141c-29 -14 -56 -27 -79 -37zM70 -305l-11 22c76 34 114 89 117 117c-26 5 -41 30 -41 50c0 28 20 51 50 51c31 0 55 -25 55 -61c0 -63 -51 -139 -170 -179z" />
    <glyph glyph-name="Lacute" unicode="&#x139;" horiz-adv-x="622" 
d="M307 802l-12 20l180 130c15 12 26 16 41 16c19 0 36 -17 36 -36c0 -23 -17 -37 -40 -46zM17 0l13 53h92l143 618h-103l12 53h261l-13 -53h-97l-143 -618h271l28 116h58l-40 -169h-482z" />
    <glyph glyph-name="lacute" unicode="&#x13a;" horiz-adv-x="323" 
d="M255 899l-12 21l188 136c16 13 28 18 44 18c20 0 37 -18 37 -38c0 -25 -17 -39 -41 -48zM160 -7c-50 0 -87 33 -87 81c0 13 5 32 9 52l157 672h-92l12 51h149l-169 -724c-4 -20 -8 -41 -8 -51c0 -23 15 -39 36 -39c26 0 46 23 68 77l35 -11c-24 -69 -58 -108 -110 -108z
" />
    <glyph glyph-name="Lcaron" unicode="&#x13d;" horiz-adv-x="622" 
d="M454 492l-16 17c34 38 53 64 64 104c6 24 3 49 6 70c4 24 15 41 41 41c20 0 35 -12 35 -37c0 -29 -12 -59 -34 -93c-24 -38 -62 -74 -96 -102zM17 0l13 53h92l143 618h-103l12 53h261l-13 -53h-97l-143 -618h271l28 116h58l-40 -169h-482z" />
    <glyph glyph-name="lcaron" unicode="&#x13e;" horiz-adv-x="323" 
d="M160 -7c-50 0 -87 33 -87 81c0 13 5 32 9 52l157 672h-92l12 51h149l-169 -724c-4 -20 -8 -41 -8 -51c0 -23 15 -39 36 -39c26 0 46 23 68 77l35 -11c-24 -69 -58 -108 -110 -108zM313 606l-17 17c36 40 56 68 67 110c7 26 4 51 7 74c4 25 16 42 43 42
c21 0 36 -12 36 -38c0 -30 -13 -63 -35 -98c-26 -40 -65 -77 -101 -107z" />
    <glyph glyph-name="Lcommaaccent" unicode="&#x13b;" horiz-adv-x="622" 
d="M17 0l13 53h92l143 618h-103l12 53h261l-13 -53h-97l-143 -618h271l28 116h58l-40 -169h-482zM128 -290l-11 21c72 32 109 84 112 111c-25 5 -40 28 -40 48c0 27 20 48 49 48s52 -24 52 -58c0 -60 -49 -132 -162 -170z" />
    <glyph glyph-name="lcommaaccent" unicode="&#x13c;" horiz-adv-x="323" 
d="M160 -7c-50 0 -87 33 -87 81c0 13 5 32 9 52l157 672h-92l12 51h149l-169 -724c-4 -20 -8 -41 -8 -51c0 -23 15 -39 36 -39c26 0 46 23 68 77l35 -11c-24 -69 -58 -108 -110 -108zM4 -305l-11 22c76 34 114 89 117 117c-26 5 -41 30 -41 50c0 28 20 51 50 51
c31 0 55 -25 55 -61c0 -63 -51 -139 -170 -179z" />
    <glyph glyph-name="Ldot" unicode="&#x13f;" horiz-adv-x="622" 
d="M17 0l13 53h92l143 618h-103l12 53h261l-13 -53h-97l-143 -618h271l28 116h58l-40 -169h-482zM541 326c-31 0 -54 25 -54 56s23 57 54 57s54 -26 54 -57s-23 -56 -54 -56z" />
    <glyph glyph-name="ldot" unicode="&#x140;" horiz-adv-x="374" 
d="M160 -7c-50 0 -87 33 -87 81c0 13 5 32 9 52l157 672h-92l12 51h149l-169 -724c-4 -20 -8 -41 -8 -51c0 -23 15 -39 36 -39c26 0 46 23 68 77l35 -11c-24 -69 -58 -108 -110 -108zM352 333c-32 0 -57 27 -57 59s25 59 57 59s57 -27 57 -59s-25 -59 -57 -59z" />
    <glyph glyph-name="Lslash" unicode="&#x141;" horiz-adv-x="623" 
d="M17 0l13 53h92l60 261l-106 -36l-17 47l136 46l70 300h-103l12 53h261l-13 -53h-97l-65 -278l138 46l17 -46l-168 -57l-65 -283h271l28 116h58l-40 -169h-482z" />
    <glyph glyph-name="lslash" unicode="&#x142;" horiz-adv-x="357" 
d="M176 -7c-50 0 -87 33 -87 81c0 13 5 32 9 52l72 309l-116 -47l-18 45l147 59l72 306h-92l12 51h149l-77 -328l136 57l18 -45l-168 -71l-78 -337c-4 -20 -8 -41 -8 -51c0 -23 15 -39 36 -39c26 0 46 23 68 77l35 -11c-24 -69 -58 -108 -110 -108z" />
    <glyph glyph-name="Nacute" unicode="&#x143;" horiz-adv-x="852" 
d="M507 787l-12 20l180 130c15 12 26 16 41 16c19 0 36 -17 36 -36c0 -23 -17 -37 -40 -46zM623 -3l-311 629l-132 -573h103l-13 -53h-253l13 53h92l143 618h-103l12 53h154l297 -603l126 550h-103l12 53h249l-12 -53h-89l-156 -674h-29z" />
    <glyph glyph-name="nacute" unicode="&#x144;" horiz-adv-x="632" 
d="M346 585l-12 21l188 136c16 13 28 18 44 18c20 0 37 -18 37 -38c0 -25 -17 -39 -41 -48zM481 -7c-50 0 -87 33 -87 81c0 14 5 38 10 56l49 169c8 26 13 48 13 69c0 45 -35 78 -86 78c-74 0 -166 -78 -201 -216l-58 -230h-57l109 436h-93l13 50h148l-31 -120
c48 79 108 129 179 129c80 0 135 -53 135 -125c0 -25 -7 -52 -14 -79l-50 -167c-5 -18 -8 -40 -8 -50c0 -23 15 -39 36 -39c26 0 46 23 69 77l34 -11c-24 -69 -58 -108 -110 -108z" />
    <glyph glyph-name="Ncaron" unicode="&#x147;" horiz-adv-x="852" 
d="M555 790l-116 152l27 24l100 -95l155 95l25 -31zM623 -3l-311 629l-132 -573h103l-13 -53h-253l13 53h92l143 618h-103l12 53h154l297 -603l126 550h-103l12 53h249l-12 -53h-89l-156 -674h-29z" />
    <glyph glyph-name="ncaron" unicode="&#x148;" horiz-adv-x="632" 
d="M396 588l-123 160l29 25l106 -100l163 100l26 -33zM481 -7c-50 0 -87 33 -87 81c0 14 5 38 10 56l49 169c8 26 13 48 13 69c0 45 -35 78 -86 78c-74 0 -166 -78 -201 -216l-58 -230h-57l109 436h-93l13 50h148l-31 -120c48 79 108 129 179 129c80 0 135 -53 135 -125
c0 -25 -7 -52 -14 -79l-50 -167c-5 -18 -8 -40 -8 -50c0 -23 15 -39 36 -39c26 0 46 23 69 77l34 -11c-24 -69 -58 -108 -110 -108z" />
    <glyph glyph-name="Ncommaaccent" unicode="&#x145;" horiz-adv-x="852" 
d="M623 -3l-311 629l-132 -573h103l-13 -53h-253l13 53h92l143 618h-103l12 53h154l297 -603l126 550h-103l12 53h249l-12 -53h-89l-156 -674h-29zM257 -290l-11 21c72 32 109 84 112 111c-25 5 -40 28 -40 48c0 27 20 48 49 48s52 -24 52 -58c0 -60 -49 -132 -162 -170z
" />
    <glyph glyph-name="ncommaaccent" unicode="&#x146;" horiz-adv-x="632" 
d="M481 -7c-50 0 -87 33 -87 81c0 14 5 38 10 56l49 169c8 26 13 48 13 69c0 45 -35 78 -86 78c-74 0 -166 -78 -201 -216l-58 -230h-57l109 436h-93l13 50h148l-31 -120c48 79 108 129 179 129c80 0 135 -53 135 -125c0 -25 -7 -52 -14 -79l-50 -167c-5 -18 -8 -40 -8 -50
c0 -23 15 -39 36 -39c26 0 46 23 69 77l34 -11c-24 -69 -58 -108 -110 -108zM129 -305l-11 22c76 34 114 89 117 117c-26 5 -41 30 -41 50c0 28 20 51 50 51c31 0 55 -25 55 -61c0 -63 -51 -139 -170 -179z" />
    <glyph glyph-name="Ntilde" unicode="&#xd1;" horiz-adv-x="852" 
d="M627 786c-40 0 -65 21 -88 44c-20 20 -34 30 -54 30c-28 0 -47 -24 -63 -67l-39 12c13 62 61 112 107 112c40 0 65 -21 87 -44c20 -20 34 -30 54 -30c28 0 48 24 63 67l39 -12c-13 -62 -60 -112 -106 -112zM623 -3l-311 629l-132 -573h103l-13 -53h-253l13 53h92l143 618
h-103l12 53h154l297 -603l126 550h-103l12 53h249l-12 -53h-89l-156 -674h-29z" />
    <glyph glyph-name="ntilde" unicode="&#xf1;" horiz-adv-x="632" 
d="M473 584c-42 0 -69 22 -93 46c-22 22 -36 32 -57 32c-29 0 -50 -25 -66 -71l-41 13c14 65 63 118 112 118c42 0 68 -22 92 -46c21 -22 36 -32 57 -32c30 0 50 25 67 71l41 -13c-14 -66 -64 -118 -112 -118zM481 -7c-50 0 -87 33 -87 81c0 14 5 38 10 56l49 169
c8 26 13 48 13 69c0 45 -35 78 -86 78c-74 0 -166 -78 -201 -216l-58 -230h-57l109 436h-93l13 50h148l-31 -120c48 79 108 129 179 129c80 0 135 -53 135 -125c0 -25 -7 -52 -14 -79l-50 -167c-5 -18 -8 -40 -8 -50c0 -23 15 -39 36 -39c26 0 46 23 69 77l34 -11
c-24 -69 -58 -108 -110 -108z" />
    <glyph glyph-name="Oacute" unicode="&#xd3;" horiz-adv-x="824" 
d="M496 787l-12 20l180 130c15 12 26 16 41 16c19 0 36 -17 36 -36c0 -23 -17 -37 -40 -46zM390 -13c-191 0 -299 135 -299 306c0 216 170 444 403 444c190 0 299 -136 299 -306c0 -216 -170 -444 -403 -444zM396 42c191 0 335 193 335 387c0 135 -76 253 -243 253
c-191 0 -335 -194 -335 -387c0 -136 76 -253 243 -253z" />
    <glyph glyph-name="oacute" unicode="&#xf3;" horiz-adv-x="599" 
d="M331 585l-12 21l188 136c16 13 28 18 44 18c20 0 37 -18 37 -38c0 -25 -17 -39 -41 -48zM264 -9c-127 0 -204 93 -204 209c0 153 118 295 274 295c128 0 204 -93 204 -208c0 -154 -118 -296 -274 -296zM267 43c120 0 213 114 213 245c0 94 -64 156 -149 156
c-119 0 -212 -115 -212 -245c0 -95 63 -156 148 -156z" />
    <glyph glyph-name="Obreve" unicode="&#x14e;" horiz-adv-x="824" 
d="M548 791c-81 0 -124 61 -135 135l39 13c11 -56 47 -89 104 -89c52 0 100 28 137 88l35 -21c-38 -72 -108 -126 -180 -126zM390 -13c-191 0 -299 135 -299 306c0 216 170 444 403 444c190 0 299 -136 299 -306c0 -216 -170 -444 -403 -444zM396 42c191 0 335 193 335 387
c0 135 -76 253 -243 253c-191 0 -335 -194 -335 -387c0 -136 76 -253 243 -253z" />
    <glyph glyph-name="obreve" unicode="&#x14f;" horiz-adv-x="599" 
d="M387 589c-85 0 -131 65 -142 142l41 14c12 -59 50 -94 110 -94c54 0 105 30 144 93l37 -22c-40 -76 -114 -133 -190 -133zM264 -9c-127 0 -204 93 -204 209c0 153 118 295 274 295c128 0 204 -93 204 -208c0 -154 -118 -296 -274 -296zM267 43c120 0 213 114 213 245
c0 94 -64 156 -149 156c-119 0 -212 -115 -212 -245c0 -95 63 -156 148 -156z" />
    <glyph glyph-name="Ocircumflex" unicode="&#xd4;" horiz-adv-x="824" 
d="M410 785l-24 32l191 145l116 -152l-27 -25l-100 95zM390 -13c-191 0 -299 135 -299 306c0 216 170 444 403 444c190 0 299 -136 299 -306c0 -216 -170 -444 -403 -444zM396 42c191 0 335 193 335 387c0 135 -76 253 -243 253c-191 0 -335 -194 -335 -387
c0 -136 76 -253 243 -253z" />
    <glyph glyph-name="ocircumflex" unicode="&#xf4;" horiz-adv-x="599" 
d="M240 583l-25 33l201 153l122 -160l-28 -26l-106 100zM264 -9c-127 0 -204 93 -204 209c0 153 118 295 274 295c128 0 204 -93 204 -208c0 -154 -118 -296 -274 -296zM267 43c120 0 213 114 213 245c0 94 -64 156 -149 156c-119 0 -212 -115 -212 -245
c0 -95 63 -156 148 -156z" />
    <glyph glyph-name="Odieresis" unicode="&#xd6;" horiz-adv-x="824" 
d="M472 809c-30 0 -52 24 -52 54s22 54 52 54c29 0 52 -24 52 -54s-23 -54 -52 -54zM644 809c-30 0 -52 24 -52 54s22 54 52 54s52 -24 52 -54s-22 -54 -52 -54zM390 -13c-191 0 -299 135 -299 306c0 216 170 444 403 444c190 0 299 -136 299 -306
c0 -216 -170 -444 -403 -444zM396 42c191 0 335 193 335 387c0 135 -76 253 -243 253c-191 0 -335 -194 -335 -387c0 -136 76 -253 243 -253z" />
    <glyph glyph-name="odieresis" unicode="&#xf6;" horiz-adv-x="599" 
d="M305 608c-31 0 -54 25 -54 56c0 32 23 57 54 57c32 0 55 -25 55 -57c0 -31 -23 -56 -55 -56zM486 608c-31 0 -54 25 -54 56c0 32 23 57 54 57s55 -25 55 -57c0 -31 -24 -56 -55 -56zM264 -9c-127 0 -204 93 -204 209c0 153 118 295 274 295c128 0 204 -93 204 -208
c0 -154 -118 -296 -274 -296zM267 43c120 0 213 114 213 245c0 94 -64 156 -149 156c-119 0 -212 -115 -212 -245c0 -95 63 -156 148 -156z" />
    <glyph glyph-name="OE" unicode="&#x152;" horiz-adv-x="1045" 
d="M456 53h48l143 618h-73c-141 0 -253 -43 -325 -115c-67 -68 -101 -154 -101 -258c0 -67 23 -126 59 -161c52 -52 118 -84 249 -84zM450 0c-142 0 -225 33 -292 101c-46 45 -74 115 -74 194c0 116 39 216 112 289c92 91 221 140 390 140h488l-38 -163h-58l25 110h-296
l-64 -275h242l-12 -53h-241l-68 -290h296l26 110h58l-37 -163h-457z" />
    <glyph glyph-name="oe" unicode="&#x153;" horiz-adv-x="969" 
d="M849 87l-13 -60c-51 -25 -93 -36 -157 -36c-95 0 -171 57 -193 138c-48 -79 -122 -138 -222 -138c-127 0 -204 93 -204 209c0 153 118 295 274 295c99 0 162 -55 186 -138c43 77 117 138 218 138c109 0 176 -68 176 -172c0 -29 -7 -60 -19 -94h-369c-2 -11 -2 -23 -2 -34
c0 -101 81 -153 165 -153c57 0 98 11 160 45zM734 444c-88 0 -168 -71 -198 -167h315c6 18 9 37 9 56c0 58 -39 111 -126 111zM267 43c120 0 213 114 213 245c0 94 -64 156 -149 156c-119 0 -212 -115 -212 -245c0 -95 63 -156 148 -156z" />
    <glyph glyph-name="Ograve" unicode="&#xd2;" horiz-adv-x="824" 
d="M585 786l-129 83c-23 15 -31 29 -31 45c0 21 18 39 40 39c16 0 27 -5 45 -28l92 -122zM390 -13c-191 0 -299 135 -299 306c0 216 170 444 403 444c190 0 299 -136 299 -306c0 -216 -170 -444 -403 -444zM396 42c191 0 335 193 335 387c0 135 -76 253 -243 253
c-191 0 -335 -194 -335 -387c0 -136 76 -253 243 -253z" />
    <glyph glyph-name="ograve" unicode="&#xf2;" horiz-adv-x="599" 
d="M426 584l-137 88c-23 15 -31 30 -31 47c0 22 18 41 40 41c17 0 29 -6 48 -30l97 -128zM264 -9c-127 0 -204 93 -204 209c0 153 118 295 274 295c128 0 204 -93 204 -208c0 -154 -118 -296 -274 -296zM267 43c120 0 213 114 213 245c0 94 -64 156 -149 156
c-119 0 -212 -115 -212 -245c0 -95 63 -156 148 -156z" />
    <glyph glyph-name="Ohungarumlaut" unicode="&#x150;" horiz-adv-x="824" 
d="M415 789l-13 20l138 124c14 13 27 22 41 22c19 0 36 -13 36 -39c0 -13 -15 -30 -37 -41zM610 794l-10 21l146 115c15 12 28 18 40 18c22 0 35 -16 35 -37c0 -16 -14 -32 -41 -43zM390 -13c-191 0 -299 135 -299 306c0 216 170 444 403 444c190 0 299 -136 299 -306
c0 -216 -170 -444 -403 -444zM396 42c191 0 335 193 335 387c0 135 -76 253 -243 253c-191 0 -335 -194 -335 -387c0 -136 76 -253 243 -253z" />
    <glyph glyph-name="ohungarumlaut" unicode="&#x151;" horiz-adv-x="599" 
d="M246 587l-13 21l145 131c15 13 29 22 43 22c20 0 38 -14 38 -40c0 -14 -16 -32 -40 -44zM452 593l-12 22l155 120c16 13 29 19 42 19c23 0 36 -17 36 -39c0 -17 -14 -33 -43 -44zM264 -9c-127 0 -204 93 -204 209c0 153 118 295 274 295c128 0 204 -93 204 -208
c0 -154 -118 -296 -274 -296zM267 43c120 0 213 114 213 245c0 94 -64 156 -149 156c-119 0 -212 -115 -212 -245c0 -95 63 -156 148 -156z" />
    <glyph glyph-name="Omacron" unicode="&#x14c;" horiz-adv-x="824" 
d="M391 825l13 55h315l-12 -55h-316zM390 -13c-191 0 -299 135 -299 306c0 216 170 444 403 444c190 0 299 -136 299 -306c0 -216 -170 -444 -403 -444zM396 42c191 0 335 193 335 387c0 135 -76 253 -243 253c-191 0 -335 -194 -335 -387c0 -136 76 -253 243 -253z" />
    <glyph glyph-name="omacron" unicode="&#x14d;" horiz-adv-x="599" 
d="M221 625l14 58h331l-12 -58h-333zM264 -9c-127 0 -204 93 -204 209c0 153 118 295 274 295c128 0 204 -93 204 -208c0 -154 -118 -296 -274 -296zM267 43c120 0 213 114 213 245c0 94 -64 156 -149 156c-119 0 -212 -115 -212 -245c0 -95 63 -156 148 -156z" />
    <glyph glyph-name="Oslash" unicode="&#xd8;" horiz-adv-x="824" 
d="M390 -13c-102 0 -179 38 -230 99l-113 -96l-35 42l117 100c-25 47 -38 101 -38 161c0 216 170 444 403 444c100 0 178 -39 229 -100l116 100l36 -41l-121 -104c25 -47 39 -102 39 -161c0 -216 -170 -444 -403 -444zM152 295c0 -45 8 -88 25 -125l502 430
c-40 50 -103 83 -191 83c-192 0 -336 -194 -336 -388zM396 41c192 0 336 193 336 388c0 45 -8 87 -25 125l-503 -430c40 -51 103 -83 192 -83z" />
    <glyph glyph-name="oslash" unicode="&#xf8;" horiz-adv-x="599" 
d="M272 -9c-64 0 -116 24 -151 62l-73 -62l-31 39l75 63c-17 32 -26 69 -26 108c0 154 114 294 272 294c65 0 117 -25 153 -64l74 64l32 -38l-78 -66c16 -31 25 -67 25 -105c0 -156 -117 -295 -272 -295zM124 200c0 -28 4 -53 13 -74l313 270c-26 30 -64 48 -114 48
c-119 0 -212 -111 -212 -244zM273 43c119 0 212 111 212 244c0 25 -4 48 -12 68l-312 -267c26 -29 64 -45 112 -45z" />
    <glyph glyph-name="Oslashacute" unicode="&#x1fe;" horiz-adv-x="824" 
d="M497 787l-12 20l180 130c15 12 26 16 41 16c19 0 36 -17 36 -36c0 -23 -17 -37 -40 -46zM390 -13c-102 0 -179 38 -230 99l-113 -96l-35 42l117 100c-25 47 -38 101 -38 161c0 216 170 444 403 444c100 0 178 -39 229 -100l116 100l36 -41l-121 -104
c25 -47 39 -102 39 -161c0 -216 -170 -444 -403 -444zM152 295c0 -45 8 -88 25 -125l502 430c-40 50 -103 83 -191 83c-192 0 -336 -194 -336 -388zM396 41c192 0 336 193 336 388c0 45 -8 87 -25 125l-503 -430c40 -51 103 -83 192 -83z" />
    <glyph glyph-name="oslashacute" unicode="&#x1ff;" horiz-adv-x="609" 
d="M339 585l-12 21l188 136c16 13 28 18 44 18c20 0 37 -18 37 -38c0 -25 -17 -39 -41 -48zM272 -9c-64 0 -116 24 -151 62l-73 -62l-31 39l75 63c-17 32 -26 69 -26 108c0 154 114 294 272 294c65 0 117 -25 153 -64l74 64l32 -38l-78 -66c16 -31 25 -67 25 -105
c0 -156 -117 -295 -272 -295zM124 200c0 -28 4 -53 13 -74l313 270c-26 30 -64 48 -114 48c-119 0 -212 -111 -212 -244zM273 43c119 0 212 111 212 244c0 25 -4 48 -12 68l-312 -267c26 -29 64 -45 112 -45z" />
    <glyph glyph-name="Otilde" unicode="&#xd5;" horiz-adv-x="824" 
d="M616 786c-40 0 -65 21 -88 44c-20 20 -34 30 -54 30c-28 0 -47 -24 -63 -67l-39 12c13 62 61 112 107 112c40 0 65 -21 87 -44c20 -20 34 -30 54 -30c28 0 48 24 63 67l39 -12c-13 -62 -60 -112 -106 -112zM390 -13c-191 0 -299 135 -299 306c0 216 170 444 403 444
c190 0 299 -136 299 -306c0 -216 -170 -444 -403 -444zM396 42c191 0 335 193 335 387c0 135 -76 253 -243 253c-191 0 -335 -194 -335 -387c0 -136 76 -253 243 -253z" />
    <glyph glyph-name="otilde" unicode="&#xf5;" horiz-adv-x="599" 
d="M458 584c-42 0 -69 22 -93 46c-22 22 -36 32 -57 32c-29 0 -50 -25 -66 -71l-41 13c14 65 63 118 112 118c42 0 68 -22 92 -46c21 -22 36 -32 57 -32c30 0 50 25 67 71l41 -13c-14 -66 -64 -118 -112 -118zM264 -9c-127 0 -204 93 -204 209c0 153 118 295 274 295
c128 0 204 -93 204 -208c0 -154 -118 -296 -274 -296zM267 43c120 0 213 114 213 245c0 94 -64 156 -149 156c-119 0 -212 -115 -212 -245c0 -95 63 -156 148 -156z" />
    <glyph glyph-name="Racute" unicode="&#x154;" horiz-adv-x="678" 
d="M407 787l-12 20l180 130c15 12 26 16 41 16c19 0 36 -17 36 -36c0 -23 -17 -37 -40 -46zM351 358c145 0 233 73 233 175c0 36 -11 66 -35 90c-32 32 -89 48 -162 48h-62l-72 -311c26 -1 53 -2 98 -2zM17 0l13 53h92l143 618h-103l12 53h217c93 0 162 -22 206 -66
c32 -32 48 -74 48 -123c0 -108 -79 -195 -215 -222l124 -260h85l-13 -53h-114l-143 306c-14 -1 -29 -1 -44 -1c-31 0 -60 1 -84 2l-59 -254h103l-13 -53h-255z" />
    <glyph glyph-name="racute" unicode="&#x155;" horiz-adv-x="433" 
d="M276 585l-12 21l188 136c16 13 28 18 44 18c20 0 37 -18 37 -38c0 -25 -17 -39 -41 -48zM64 0l110 436h-94l13 50h148l-34 -136c64 93 120 145 165 145c37 0 58 -21 58 -49c0 -30 -25 -54 -53 -54c-26 0 -44 16 -49 39c-39 -21 -125 -102 -153 -219l-53 -212h-58z" />
    <glyph glyph-name="Rcaron" unicode="&#x158;" horiz-adv-x="678" 
d="M454 790l-116 152l27 24l100 -95l155 95l25 -31zM351 358c145 0 233 73 233 175c0 36 -11 66 -35 90c-32 32 -89 48 -162 48h-62l-72 -311c26 -1 53 -2 98 -2zM17 0l13 53h92l143 618h-103l12 53h217c93 0 162 -22 206 -66c32 -32 48 -74 48 -123
c0 -108 -79 -195 -215 -222l124 -260h85l-13 -53h-114l-143 306c-14 -1 -29 -1 -44 -1c-31 0 -60 1 -84 2l-59 -254h103l-13 -53h-255z" />
    <glyph glyph-name="rcaron" unicode="&#x159;" horiz-adv-x="433" 
d="M326 588l-123 160l29 25l106 -100l163 100l26 -33zM64 0l110 436h-94l13 50h148l-34 -136c64 93 120 145 165 145c37 0 58 -21 58 -49c0 -30 -25 -54 -53 -54c-26 0 -44 16 -49 39c-39 -21 -125 -102 -153 -219l-53 -212h-58z" />
    <glyph glyph-name="Rcommaaccent" unicode="&#x156;" horiz-adv-x="678" 
d="M351 358c145 0 233 73 233 175c0 36 -11 66 -35 90c-32 32 -89 48 -162 48h-62l-72 -311c26 -1 53 -2 98 -2zM17 0l13 53h92l143 618h-103l12 53h217c93 0 162 -22 206 -66c32 -32 48 -74 48 -123c0 -108 -79 -195 -215 -222l124 -260h85l-13 -53h-114l-143 306
c-14 -1 -29 -1 -44 -1c-31 0 -60 1 -84 2l-59 -254h103l-13 -53h-255zM179 -290l-11 21c72 32 109 84 112 111c-25 5 -40 28 -40 48c0 27 20 48 49 48s52 -24 52 -58c0 -60 -49 -132 -162 -170z" />
    <glyph glyph-name="rcommaaccent" unicode="&#x157;" horiz-adv-x="433" 
d="M64 0l110 436h-94l13 50h148l-34 -136c64 93 120 145 165 145c37 0 58 -21 58 -49c0 -30 -25 -54 -53 -54c-26 0 -44 16 -49 39c-39 -21 -125 -102 -153 -219l-53 -212h-58zM-43 -305l-11 22c76 34 114 89 117 117c-26 5 -41 30 -41 50c0 28 20 51 50 51
c31 0 55 -25 55 -61c0 -63 -51 -139 -170 -179z" />
    <glyph glyph-name="Sacute" unicode="&#x15a;" horiz-adv-x="613" 
d="M401 787l-12 20l180 130c15 12 26 16 41 16c19 0 36 -17 36 -36c0 -23 -17 -37 -40 -46zM298 -13c-144 0 -244 89 -244 156c0 39 25 64 57 64c28 0 47 -23 47 -43c0 -23 -13 -41 -33 -53c21 -34 82 -71 178 -71c88 0 168 60 168 143c0 70 -58 112 -126 154
c-92 58 -168 108 -168 208c0 104 97 192 223 192c113 0 210 -66 210 -138c0 -41 -27 -62 -53 -62c-28 0 -47 20 -47 46c0 15 10 33 31 46c-21 26 -70 55 -145 55c-91 0 -158 -57 -158 -135c0 -70 51 -106 138 -159c81 -51 156 -103 156 -203c0 -117 -106 -200 -234 -200z
" />
    <glyph glyph-name="sacute" unicode="&#x15b;" horiz-adv-x="491" 
d="M289 585l-12 21l188 136c16 13 28 18 44 18c20 0 37 -18 37 -38c0 -25 -17 -39 -41 -48zM236 -9c-66 0 -131 27 -166 63c-18 18 -27 37 -27 57c0 27 19 53 47 53s41 -20 41 -41c0 -16 -6 -26 -18 -39c4 -6 11 -11 20 -17c24 -15 63 -28 108 -28c59 0 105 33 105 83
c0 49 -46 75 -100 101c-73 36 -135 69 -135 139c0 77 67 133 166 133c62 0 115 -21 145 -51c17 -16 26 -35 26 -56c0 -31 -21 -51 -44 -51c-25 0 -43 17 -43 40c0 13 5 27 15 40c-2 3 -7 7 -19 13c-18 9 -49 17 -84 17c-65 0 -105 -34 -105 -77c0 -42 44 -66 103 -96
c70 -34 133 -70 133 -144c0 -90 -81 -139 -168 -139z" />
    <glyph glyph-name="Scaron" unicode="&#x160;" horiz-adv-x="613" 
d="M448 790l-116 152l27 24l100 -95l155 95l25 -31zM298 -13c-144 0 -244 89 -244 156c0 39 25 64 57 64c28 0 47 -23 47 -43c0 -23 -13 -41 -33 -53c21 -34 82 -71 178 -71c88 0 168 60 168 143c0 70 -58 112 -126 154c-92 58 -168 108 -168 208c0 104 97 192 223 192
c113 0 210 -66 210 -138c0 -41 -27 -62 -53 -62c-28 0 -47 20 -47 46c0 15 10 33 31 46c-21 26 -70 55 -145 55c-91 0 -158 -57 -158 -135c0 -70 51 -106 138 -159c81 -51 156 -103 156 -203c0 -117 -106 -200 -234 -200z" />
    <glyph glyph-name="scaron" unicode="&#x161;" horiz-adv-x="491" 
d="M339 588l-123 160l29 25l106 -100l163 100l26 -33zM236 -9c-66 0 -131 27 -166 63c-18 18 -27 37 -27 57c0 27 19 53 47 53s41 -20 41 -41c0 -16 -6 -26 -18 -39c4 -6 11 -11 20 -17c24 -15 63 -28 108 -28c59 0 105 33 105 83c0 49 -46 75 -100 101
c-73 36 -135 69 -135 139c0 77 67 133 166 133c62 0 115 -21 145 -51c17 -16 26 -35 26 -56c0 -31 -21 -51 -44 -51c-25 0 -43 17 -43 40c0 13 5 27 15 40c-2 3 -7 7 -19 13c-18 9 -49 17 -84 17c-65 0 -105 -34 -105 -77c0 -42 44 -66 103 -96c70 -34 133 -70 133 -144
c0 -90 -81 -139 -168 -139z" />
    <glyph glyph-name="Scedilla" unicode="&#x15e;" horiz-adv-x="613" 
d="M269 -219c-50 0 -100 25 -125 45l21 30c21 -14 66 -30 101 -30c34 0 51 16 51 38c0 21 -25 41 -71 33l-15 15l40 76c-129 10 -217 92 -217 155c0 39 25 64 57 64c28 0 47 -23 47 -43c0 -23 -13 -41 -33 -53c21 -34 82 -71 178 -71c88 0 168 60 168 143
c0 70 -58 112 -126 154c-92 58 -168 108 -168 208c0 104 97 192 223 192c113 0 210 -66 210 -138c0 -41 -27 -62 -53 -62c-28 0 -47 20 -47 46c0 15 10 33 31 46c-21 26 -70 55 -145 55c-91 0 -158 -57 -158 -135c0 -70 51 -106 138 -159c81 -51 156 -103 156 -203
c0 -113 -99 -194 -220 -200h-1l-17 -46c55 -7 79 -42 79 -74c0 -55 -49 -86 -104 -86z" />
    <glyph glyph-name="scedilla" unicode="&#x15f;" horiz-adv-x="491" 
d="M187 -231c-54 0 -106 27 -132 48l22 31c22 -16 70 -33 107 -33c36 0 54 18 54 42c0 22 -27 43 -76 35l-15 15l46 88c-50 8 -96 31 -123 59c-18 18 -27 37 -27 57c0 27 19 53 47 53s41 -20 41 -41c0 -16 -6 -26 -18 -39c4 -6 11 -11 20 -17c24 -15 63 -28 108 -28
c59 0 105 33 105 83c0 49 -46 75 -100 101c-73 36 -135 69 -135 139c0 77 67 133 166 133c62 0 115 -21 145 -51c17 -16 26 -35 26 -56c0 -31 -21 -51 -44 -51c-25 0 -43 17 -43 40c0 13 5 27 15 40c-2 3 -7 7 -19 13c-18 9 -49 17 -84 17c-65 0 -105 -34 -105 -77
c0 -42 44 -66 103 -96c70 -34 133 -70 133 -144c0 -90 -81 -139 -168 -139h-4l-20 -54c59 -7 84 -43 84 -77c0 -58 -51 -91 -109 -91z" />
    <glyph glyph-name="Scommaaccent" unicode="&#x218;" horiz-adv-x="613" 
d="M298 -13c-144 0 -244 89 -244 156c0 39 25 64 57 64c28 0 47 -23 47 -43c0 -23 -13 -41 -33 -53c21 -34 82 -71 178 -71c88 0 168 60 168 143c0 70 -58 112 -126 154c-92 58 -168 108 -168 208c0 104 97 192 223 192c113 0 210 -66 210 -138c0 -41 -27 -62 -53 -62
c-28 0 -47 20 -47 46c0 15 10 33 31 46c-21 26 -70 55 -145 55c-91 0 -158 -57 -158 -135c0 -70 51 -106 138 -159c81 -51 156 -103 156 -203c0 -117 -106 -200 -234 -200zM137 -290l-11 21c72 32 109 84 112 111c-25 5 -40 28 -40 48c0 27 20 48 49 48s52 -24 52 -58
c0 -60 -49 -132 -162 -170z" />
    <glyph glyph-name="scommaaccent" unicode="&#x219;" horiz-adv-x="491" 
d="M236 -9c-66 0 -131 27 -166 63c-18 18 -27 37 -27 57c0 27 19 53 47 53s41 -20 41 -41c0 -16 -6 -26 -18 -39c4 -6 11 -11 20 -17c24 -15 63 -28 108 -28c59 0 105 33 105 83c0 49 -46 75 -100 101c-73 36 -135 69 -135 139c0 77 67 133 166 133c62 0 115 -21 145 -51
c17 -16 26 -35 26 -56c0 -31 -21 -51 -44 -51c-25 0 -43 17 -43 40c0 13 5 27 15 40c-2 3 -7 7 -19 13c-18 9 -49 17 -84 17c-65 0 -105 -34 -105 -77c0 -42 44 -66 103 -96c70 -34 133 -70 133 -144c0 -90 -81 -139 -168 -139zM71 -305l-11 22c76 34 114 89 117 117
c-26 5 -41 30 -41 50c0 28 20 51 50 51c31 0 55 -25 55 -61c0 -63 -51 -139 -170 -179z" />
    <glyph glyph-name="Tcaron" unicode="&#x164;" horiz-adv-x="711" 
d="M487 790l-116 152l27 24l100 -95l155 95l25 -31zM176 0l12 53h97l142 618h-204l-26 -116h-59l40 169h584l-39 -169h-58l27 116h-204l-142 -618h108l-13 -53h-265z" />
    <glyph glyph-name="tcaron" unicode="&#x165;" horiz-adv-x="391" 
d="M320 541l-17 17c36 40 56 68 67 110c7 26 4 51 7 74c4 25 16 42 43 42c21 0 36 -12 36 -38c0 -30 -13 -63 -35 -98c-26 -40 -65 -77 -101 -107zM378 436h-150l-77 -314c-3 -15 -6 -29 -6 -43c0 -18 15 -37 42 -37s58 17 106 49l24 -35c-56 -41 -98 -65 -142 -65
c-54 0 -90 34 -90 81c0 14 3 32 8 51l78 313h-86l13 50h85l30 120l62 18l-34 -138h150z" />
    <glyph glyph-name="Tcommaaccent" unicode="&#x162;" horiz-adv-x="711" 
d="M176 0l12 53h97l142 618h-204l-26 -116h-59l40 169h584l-39 -169h-58l27 116h-204l-142 -618h108l-13 -53h-265zM179 -290l-11 21c72 32 109 84 112 111c-25 5 -40 28 -40 48c0 27 20 48 49 48s52 -24 52 -58c0 -60 -49 -132 -162 -170z" />
    <glyph glyph-name="tcommaaccent" unicode="&#x163;" horiz-adv-x="391" 
d="M378 436h-150l-77 -314c-3 -15 -6 -29 -6 -43c0 -18 15 -37 42 -37s58 17 106 49l24 -35c-56 -41 -98 -65 -142 -65c-54 0 -90 34 -90 81c0 14 3 32 8 51l78 313h-86l13 50h85l30 120l62 18l-34 -138h150zM37 -305l-11 22c76 34 114 89 117 117c-26 5 -41 30 -41 50
c0 28 20 51 50 51c31 0 55 -25 55 -61c0 -63 -51 -139 -170 -179z" />
    <glyph glyph-name="Thorn" unicode="&#xde;" horiz-adv-x="643" 
d="M328 204c151 0 225 79 225 187c0 35 -10 67 -35 91c-30 30 -82 47 -158 47h-68l-74 -323c27 -1 67 -2 110 -2zM17 0l13 53h92l143 618h-103l13 53h255l-13 -53h-92l-20 -89h59c94 0 160 -22 201 -62c33 -32 48 -76 48 -127c0 -140 -110 -242 -295 -242
c-41 0 -88 1 -112 3l-24 -101h103l-13 -53h-255z" />
    <glyph glyph-name="thorn" unicode="&#xfe;" horiz-adv-x="624" 
d="M302 42c116 0 198 121 198 242c0 98 -51 160 -135 160c-118 0 -210 -140 -210 -254c0 -86 56 -148 147 -148zM-79 -227l12 50h75l232 975h-93l12 51h151l-108 -455c38 55 92 101 173 101c105 0 186 -79 186 -204c0 -169 -123 -301 -258 -301c-79 0 -149 44 -169 118
l-67 -285h106l-12 -50h-240z" />
    <glyph glyph-name="Uacute" unicode="&#xda;" horiz-adv-x="811" 
d="M480 787l-12 20l180 130c15 12 26 16 41 16c19 0 36 -17 36 -36c0 -23 -17 -37 -40 -46zM383 -13c-151 0 -232 84 -232 208c0 25 4 53 11 81l91 395h-103l13 53h255l-12 -53h-93l-91 -398c-6 -26 -9 -52 -9 -76c0 -92 50 -157 175 -157c122 0 191 84 216 195l99 436h-103
l13 53h255l-13 -53h-92l-102 -445c-32 -139 -118 -239 -278 -239z" />
    <glyph glyph-name="uacute" unicode="&#xfa;" horiz-adv-x="632" 
d="M338 585l-12 21l188 136c16 13 28 18 44 18c20 0 37 -18 37 -38c0 -25 -17 -39 -41 -48zM87 486h151l-81 -311c-6 -21 -9 -42 -9 -63c0 -41 31 -71 82 -71c74 0 167 80 201 215l57 230h58l-92 -364c-4 -19 -8 -38 -8 -48c0 -23 15 -39 37 -39c26 0 45 23 68 77l34 -11
c-23 -69 -57 -108 -110 -108c-49 0 -82 31 -82 81c0 13 3 28 7 45c-43 -72 -104 -128 -178 -128c-78 0 -133 47 -133 119c0 24 6 47 12 69l66 257h-93z" />
    <glyph glyph-name="Ubreve" unicode="&#x16c;" horiz-adv-x="811" 
d="M532 791c-81 0 -124 61 -135 135l39 13c11 -56 47 -89 104 -89c52 0 100 28 137 88l35 -21c-38 -72 -108 -126 -180 -126zM383 -13c-151 0 -232 84 -232 208c0 25 4 53 11 81l91 395h-103l13 53h255l-12 -53h-93l-91 -398c-6 -26 -9 -52 -9 -76c0 -92 50 -157 175 -157
c122 0 191 84 216 195l99 436h-103l13 53h255l-13 -53h-92l-102 -445c-32 -139 -118 -239 -278 -239z" />
    <glyph glyph-name="ubreve" unicode="&#x16d;" horiz-adv-x="632" 
d="M394 589c-85 0 -131 65 -142 142l41 14c12 -59 50 -94 110 -94c54 0 105 30 144 93l37 -22c-40 -76 -114 -133 -190 -133zM87 486h151l-81 -311c-6 -21 -9 -42 -9 -63c0 -41 31 -71 82 -71c74 0 167 80 201 215l57 230h58l-92 -364c-4 -19 -8 -38 -8 -48
c0 -23 15 -39 37 -39c26 0 45 23 68 77l34 -11c-23 -69 -57 -108 -110 -108c-49 0 -82 31 -82 81c0 13 3 28 7 45c-43 -72 -104 -128 -178 -128c-78 0 -133 47 -133 119c0 24 6 47 12 69l66 257h-93z" />
    <glyph glyph-name="Ucircumflex" unicode="&#xdb;" horiz-adv-x="811" 
d="M394 785l-24 32l191 145l116 -152l-27 -25l-100 95zM383 -13c-151 0 -232 84 -232 208c0 25 4 53 11 81l91 395h-103l13 53h255l-12 -53h-93l-91 -398c-6 -26 -9 -52 -9 -76c0 -92 50 -157 175 -157c122 0 191 84 216 195l99 436h-103l13 53h255l-13 -53h-92l-102 -445
c-32 -139 -118 -239 -278 -239z" />
    <glyph glyph-name="ucircumflex" unicode="&#xfb;" horiz-adv-x="632" 
d="M247 583l-25 33l201 153l122 -160l-28 -26l-106 100zM87 486h151l-81 -311c-6 -21 -9 -42 -9 -63c0 -41 31 -71 82 -71c74 0 167 80 201 215l57 230h58l-92 -364c-4 -19 -8 -38 -8 -48c0 -23 15 -39 37 -39c26 0 45 23 68 77l34 -11c-23 -69 -57 -108 -110 -108
c-49 0 -82 31 -82 81c0 13 3 28 7 45c-43 -72 -104 -128 -178 -128c-78 0 -133 47 -133 119c0 24 6 47 12 69l66 257h-93z" />
    <glyph glyph-name="Udieresis" unicode="&#xdc;" horiz-adv-x="811" 
d="M456 809c-30 0 -52 24 -52 54s22 54 52 54c29 0 52 -24 52 -54s-23 -54 -52 -54zM628 809c-30 0 -52 24 -52 54s22 54 52 54s52 -24 52 -54s-22 -54 -52 -54zM383 -13c-151 0 -232 84 -232 208c0 25 4 53 11 81l91 395h-103l13 53h255l-12 -53h-93l-91 -398
c-6 -26 -9 -52 -9 -76c0 -92 50 -157 175 -157c122 0 191 84 216 195l99 436h-103l13 53h255l-13 -53h-92l-102 -445c-32 -139 -118 -239 -278 -239z" />
    <glyph glyph-name="udieresis" unicode="&#xfc;" horiz-adv-x="632" 
d="M312 608c-31 0 -54 25 -54 56c0 32 23 57 54 57c32 0 55 -25 55 -57c0 -31 -23 -56 -55 -56zM493 608c-31 0 -54 25 -54 56c0 32 23 57 54 57s55 -25 55 -57c0 -31 -24 -56 -55 -56zM87 486h151l-81 -311c-6 -21 -9 -42 -9 -63c0 -41 31 -71 82 -71c74 0 167 80 201 215
l57 230h58l-92 -364c-4 -19 -8 -38 -8 -48c0 -23 15 -39 37 -39c26 0 45 23 68 77l34 -11c-23 -69 -57 -108 -110 -108c-49 0 -82 31 -82 81c0 13 3 28 7 45c-43 -72 -104 -128 -178 -128c-78 0 -133 47 -133 119c0 24 6 47 12 69l66 257h-93z" />
    <glyph glyph-name="Ugrave" unicode="&#xd9;" horiz-adv-x="811" 
d="M569 786l-129 83c-23 15 -31 29 -31 45c0 21 18 39 40 39c16 0 27 -5 45 -28l92 -122zM383 -13c-151 0 -232 84 -232 208c0 25 4 53 11 81l91 395h-103l13 53h255l-12 -53h-93l-91 -398c-6 -26 -9 -52 -9 -76c0 -92 50 -157 175 -157c122 0 191 84 216 195l99 436h-103
l13 53h255l-13 -53h-92l-102 -445c-32 -139 -118 -239 -278 -239z" />
    <glyph glyph-name="ugrave" unicode="&#xf9;" horiz-adv-x="632" 
d="M433 584l-137 88c-23 15 -31 30 -31 47c0 22 18 41 40 41c17 0 29 -6 48 -30l97 -128zM87 486h151l-81 -311c-6 -21 -9 -42 -9 -63c0 -41 31 -71 82 -71c74 0 167 80 201 215l57 230h58l-92 -364c-4 -19 -8 -38 -8 -48c0 -23 15 -39 37 -39c26 0 45 23 68 77l34 -11
c-23 -69 -57 -108 -110 -108c-49 0 -82 31 -82 81c0 13 3 28 7 45c-43 -72 -104 -128 -178 -128c-78 0 -133 47 -133 119c0 24 6 47 12 69l66 257h-93z" />
    <glyph glyph-name="Uhungarumlaut" unicode="&#x170;" horiz-adv-x="811" 
d="M400 789l-13 20l138 124c14 13 27 22 41 22c19 0 36 -13 36 -39c0 -13 -15 -30 -37 -41zM595 794l-10 21l146 115c15 12 28 18 40 18c22 0 35 -16 35 -37c0 -16 -14 -32 -41 -43zM383 -13c-151 0 -232 84 -232 208c0 25 4 53 11 81l91 395h-103l13 53h255l-12 -53h-93
l-91 -398c-6 -26 -9 -52 -9 -76c0 -92 50 -157 175 -157c122 0 191 84 216 195l99 436h-103l13 53h255l-13 -53h-92l-102 -445c-32 -139 -118 -239 -278 -239z" />
    <glyph glyph-name="uhungarumlaut" unicode="&#x171;" horiz-adv-x="632" 
d="M254 587l-13 21l145 131c15 13 29 22 43 22c20 0 38 -14 38 -40c0 -14 -16 -32 -40 -44zM460 593l-12 22l155 120c16 13 29 19 42 19c23 0 36 -17 36 -39c0 -17 -14 -33 -43 -44zM87 486h151l-81 -311c-6 -21 -9 -42 -9 -63c0 -41 31 -71 82 -71c74 0 167 80 201 215
l57 230h58l-92 -364c-4 -19 -8 -38 -8 -48c0 -23 15 -39 37 -39c26 0 45 23 68 77l34 -11c-23 -69 -57 -108 -110 -108c-49 0 -82 31 -82 81c0 13 3 28 7 45c-43 -72 -104 -128 -178 -128c-78 0 -133 47 -133 119c0 24 6 47 12 69l66 257h-93z" />
    <glyph glyph-name="Umacron" unicode="&#x16a;" horiz-adv-x="811" 
d="M376 825l13 55h315l-12 -55h-316zM383 -13c-151 0 -232 84 -232 208c0 25 4 53 11 81l91 395h-103l13 53h255l-12 -53h-93l-91 -398c-6 -26 -9 -52 -9 -76c0 -92 50 -157 175 -157c122 0 191 84 216 195l99 436h-103l13 53h255l-13 -53h-92l-102 -445
c-32 -139 -118 -239 -278 -239z" />
    <glyph glyph-name="umacron" unicode="&#x16b;" horiz-adv-x="632" 
d="M228 625l14 58h331l-12 -58h-333zM87 486h151l-81 -311c-6 -21 -9 -42 -9 -63c0 -41 31 -71 82 -71c74 0 167 80 201 215l57 230h58l-92 -364c-4 -19 -8 -38 -8 -48c0 -23 15 -39 37 -39c26 0 45 23 68 77l34 -11c-23 -69 -57 -108 -110 -108c-49 0 -82 31 -82 81
c0 13 3 28 7 45c-43 -72 -104 -128 -178 -128c-78 0 -133 47 -133 119c0 24 6 47 12 69l66 257h-93z" />
    <glyph glyph-name="Uogonek" unicode="&#x172;" horiz-adv-x="811" 
d="M281 -144c0 47 32 92 81 132c-137 7 -211 89 -211 207c0 25 4 53 11 81l91 395h-103l13 53h255l-12 -53h-93l-91 -398c-6 -26 -9 -52 -9 -76c0 -92 50 -157 175 -157c122 0 191 84 216 195l99 436h-103l13 53h255l-13 -53h-92l-102 -445c-30 -131 -108 -227 -250 -238
c-44 -35 -78 -76 -78 -117c0 -28 19 -44 51 -44c23 0 39 5 54 10l-10 -44c-11 -7 -31 -14 -60 -14c-58 0 -87 31 -87 77z" />
    <glyph glyph-name="uogonek" unicode="&#x173;" horiz-adv-x="632" 
d="M551 112l34 -11c-8 -25 -22 -54 -41 -75c-45 -50 -127 -94 -127 -162c0 -30 21 -47 55 -47c24 0 42 5 56 11l-10 -47c-11 -6 -32 -14 -63 -14c-60 0 -92 32 -92 81c0 53 40 103 97 146c-41 6 -67 36 -67 80c0 13 3 28 8 46c-43 -72 -104 -128 -178 -128
c-78 0 -132 47 -132 119c0 24 4 46 10 68l66 257h-93l13 50h151l-81 -311c-6 -21 -8 -41 -8 -62c0 -41 31 -71 82 -71c74 0 166 79 200 214l57 230h58l-92 -364c-4 -19 -8 -38 -8 -48c0 -23 14 -38 35 -38c26 0 47 22 70 76z" />
    <glyph glyph-name="Uring" unicode="&#x16e;" horiz-adv-x="811" 
d="M534 778c-57 0 -89 40 -89 92c0 69 50 130 118 130c57 0 89 -41 89 -93c0 -68 -50 -129 -118 -129zM538 819c41 0 72 39 72 84c0 31 -21 55 -51 55c-41 0 -72 -38 -72 -83c0 -31 21 -56 51 -56zM383 -13c-151 0 -232 84 -232 208c0 25 4 53 11 81l91 395h-103l13 53h255
l-12 -53h-93l-91 -398c-6 -26 -9 -52 -9 -76c0 -92 50 -157 175 -157c122 0 191 84 216 195l99 436h-103l13 53h255l-13 -53h-92l-102 -445c-32 -139 -118 -239 -278 -239z" />
    <glyph glyph-name="uring" unicode="&#x16f;" horiz-adv-x="632" 
d="M396 576c-60 0 -94 42 -94 97c0 72 52 136 124 136c60 0 94 -43 94 -97c0 -72 -52 -136 -124 -136zM400 619c43 0 75 41 75 88c0 33 -22 59 -53 59c-43 0 -76 -41 -76 -89c0 -33 22 -58 54 -58zM87 486h151l-81 -311c-6 -21 -9 -42 -9 -63c0 -41 31 -71 82 -71
c74 0 167 80 201 215l57 230h58l-92 -364c-4 -19 -8 -38 -8 -48c0 -23 15 -39 37 -39c26 0 45 23 68 77l34 -11c-23 -69 -57 -108 -110 -108c-49 0 -82 31 -82 81c0 13 3 28 7 45c-43 -72 -104 -128 -178 -128c-78 0 -133 47 -133 119c0 24 6 47 12 69l66 257h-93z" />
    <glyph glyph-name="Wacute" unicode="&#x1e82;" horiz-adv-x="1041" 
d="M595 787l-12 20l180 130c15 12 26 16 41 16c19 0 36 -17 36 -36c0 -23 -17 -37 -40 -46zM240 -12l-25 683h-78l13 53h222l-13 -53h-91l16 -574l301 532h26l60 -533l303 575h-89l12 53h221l-12 -53h-74l-363 -683h-34l-63 518l-298 -518h-34z" />
    <glyph glyph-name="wacute" unicode="&#x1e83;" horiz-adv-x="770" 
d="M416 585l-12 21l188 136c16 13 28 18 44 18c20 0 37 -18 37 -38c0 -25 -17 -39 -41 -48zM171 -20l-39 456h-89l13 50h126l29 -399l200 335h19l78 -349c80 118 145 237 154 318c-24 4 -47 22 -47 52c0 29 21 52 50 52c31 0 56 -24 56 -61c0 -100 -86 -262 -222 -454h-20
l-75 345l-212 -345h-21z" />
    <glyph glyph-name="Wcircumflex" unicode="&#x174;" horiz-adv-x="1041" 
d="M510 785l-24 32l191 145l116 -152l-27 -25l-100 95zM240 -12l-25 683h-78l13 53h222l-13 -53h-91l16 -574l301 532h26l60 -533l303 575h-89l12 53h221l-12 -53h-74l-363 -683h-34l-63 518l-298 -518h-34z" />
    <glyph glyph-name="wcircumflex" unicode="&#x175;" horiz-adv-x="770" 
d="M325 583l-25 33l201 153l122 -160l-28 -26l-106 100zM171 -20l-39 456h-89l13 50h126l29 -399l200 335h19l78 -349c80 118 145 237 154 318c-24 4 -47 22 -47 52c0 29 21 52 50 52c31 0 56 -24 56 -61c0 -100 -86 -262 -222 -454h-20l-75 345l-212 -345h-21z" />
    <glyph glyph-name="Wdieresis" unicode="&#x1e84;" horiz-adv-x="1041" 
d="M572 809c-30 0 -52 24 -52 54s22 54 52 54c29 0 52 -24 52 -54s-23 -54 -52 -54zM744 809c-30 0 -52 24 -52 54s22 54 52 54s52 -24 52 -54s-22 -54 -52 -54zM240 -12l-25 683h-78l13 53h222l-13 -53h-91l16 -574l301 532h26l60 -533l303 575h-89l12 53h221l-12 -53h-74
l-363 -683h-34l-63 518l-298 -518h-34z" />
    <glyph glyph-name="wdieresis" unicode="&#x1e85;" horiz-adv-x="770" 
d="M391 608c-31 0 -54 25 -54 56c0 32 23 57 54 57c32 0 55 -25 55 -57c0 -31 -23 -56 -55 -56zM572 608c-31 0 -54 25 -54 56c0 32 23 57 54 57s55 -25 55 -57c0 -31 -24 -56 -55 -56zM171 -20l-39 456h-89l13 50h126l29 -399l200 335h19l78 -349c80 118 145 237 154 318
c-24 4 -47 22 -47 52c0 29 21 52 50 52c31 0 56 -24 56 -61c0 -100 -86 -262 -222 -454h-20l-75 345l-212 -345h-21z" />
    <glyph glyph-name="Wgrave" unicode="&#x1e80;" horiz-adv-x="1041" 
d="M684 786l-129 83c-23 15 -31 29 -31 45c0 21 18 39 40 39c16 0 27 -5 45 -28l92 -122zM240 -12l-25 683h-78l13 53h222l-13 -53h-91l16 -574l301 532h26l60 -533l303 575h-89l12 53h221l-12 -53h-74l-363 -683h-34l-63 518l-298 -518h-34z" />
    <glyph glyph-name="wgrave" unicode="&#x1e81;" horiz-adv-x="770" 
d="M511 584l-137 88c-23 15 -31 30 -31 47c0 22 18 41 40 41c17 0 29 -6 48 -30l97 -128zM171 -20l-39 456h-89l13 50h126l29 -399l200 335h19l78 -349c80 118 145 237 154 318c-24 4 -47 22 -47 52c0 29 21 52 50 52c31 0 56 -24 56 -61c0 -100 -86 -262 -222 -454h-20
l-75 345l-212 -345h-21z" />
    <glyph glyph-name="Yacute" unicode="&#xdd;" horiz-adv-x="704" 
d="M423 787l-12 20l180 130c15 12 26 16 41 16c19 0 36 -17 36 -36c0 -23 -17 -37 -40 -46zM145 0l13 53h106l60 244l-126 374h-79l14 53h227l-12 -53h-88l107 -326l266 326h-84l14 53h227l-11 -53h-76l-322 -385l-55 -233h106l-12 -53h-275z" />
    <glyph glyph-name="yacute" unicode="&#xfd;" horiz-adv-x="566" 
d="M313 585l-12 21l188 136c16 13 28 18 44 18c20 0 37 -18 37 -38c0 -25 -17 -39 -41 -48zM-13 -232c-34 0 -68 24 -68 56c0 26 19 50 47 50c29 0 47 -21 48 -53c38 3 98 47 206 180l-87 435h-90l12 50h130l78 -430c95 121 188 256 204 335c-23 7 -46 27 -46 57
c0 24 21 47 50 47c30 0 55 -22 55 -66c0 -85 -75 -206 -249 -427c-146 -186 -223 -234 -290 -234z" />
    <glyph glyph-name="Ycircumflex" unicode="&#x176;" horiz-adv-x="704" 
d="M337 785l-24 32l191 145l116 -152l-27 -25l-100 95zM145 0l13 53h106l60 244l-126 374h-79l14 53h227l-12 -53h-88l107 -326l266 326h-84l14 53h227l-11 -53h-76l-322 -385l-55 -233h106l-12 -53h-275z" />
    <glyph glyph-name="ycircumflex" unicode="&#x177;" horiz-adv-x="566" 
d="M222 583l-25 33l201 153l122 -160l-28 -26l-106 100zM-13 -232c-34 0 -68 24 -68 56c0 26 19 50 47 50c29 0 47 -21 48 -53c38 3 98 47 206 180l-87 435h-90l12 50h130l78 -430c95 121 188 256 204 335c-23 7 -46 27 -46 57c0 24 21 47 50 47c30 0 55 -22 55 -66
c0 -85 -75 -206 -249 -427c-146 -186 -223 -234 -290 -234z" />
    <glyph glyph-name="Ydieresis" unicode="&#x178;" horiz-adv-x="704" 
d="M399 809c-30 0 -52 24 -52 54s22 54 52 54c29 0 52 -24 52 -54s-23 -54 -52 -54zM571 809c-30 0 -52 24 -52 54s22 54 52 54s52 -24 52 -54s-22 -54 -52 -54zM145 0l13 53h106l60 244l-126 374h-79l14 53h227l-12 -53h-88l107 -326l266 326h-84l14 53h227l-11 -53h-76
l-322 -385l-55 -233h106l-12 -53h-275z" />
    <glyph glyph-name="ydieresis" unicode="&#xff;" horiz-adv-x="566" 
d="M288 608c-31 0 -54 25 -54 56c0 32 23 57 54 57c32 0 55 -25 55 -57c0 -31 -23 -56 -55 -56zM469 608c-31 0 -54 25 -54 56c0 32 23 57 54 57s55 -25 55 -57c0 -31 -24 -56 -55 -56zM-13 -232c-34 0 -68 24 -68 56c0 26 19 50 47 50c29 0 47 -21 48 -53
c38 3 98 47 206 180l-87 435h-90l12 50h130l78 -430c95 121 188 256 204 335c-23 7 -46 27 -46 57c0 24 21 47 50 47c30 0 55 -22 55 -66c0 -85 -75 -206 -249 -427c-146 -186 -223 -234 -290 -234z" />
    <glyph glyph-name="Ygrave" unicode="&#x1ef2;" horiz-adv-x="704" 
d="M512 786l-129 83c-23 15 -31 29 -31 45c0 21 18 39 40 39c16 0 27 -5 45 -28l92 -122zM145 0l13 53h106l60 244l-126 374h-79l14 53h227l-12 -53h-88l107 -326l266 326h-84l14 53h227l-11 -53h-76l-322 -385l-55 -233h106l-12 -53h-275z" />
    <glyph glyph-name="ygrave" unicode="&#x1ef3;" horiz-adv-x="566" 
d="M407 584l-137 88c-23 15 -31 30 -31 47c0 22 18 41 40 41c17 0 29 -6 48 -30l97 -128zM-13 -232c-34 0 -68 24 -68 56c0 26 19 50 47 50c29 0 47 -21 48 -53c38 3 98 47 206 180l-87 435h-90l12 50h130l78 -430c95 121 188 256 204 335c-23 7 -46 27 -46 57
c0 24 21 47 50 47c30 0 55 -22 55 -66c0 -85 -75 -206 -249 -427c-146 -186 -223 -234 -290 -234z" />
    <glyph glyph-name="Zacute" unicode="&#x179;" horiz-adv-x="682" 
d="M423 787l-12 20l180 130c15 12 26 16 41 16c19 0 36 -17 36 -36c0 -23 -17 -37 -40 -46zM17 0v25l608 649h-385l-26 -113h-58l37 163h528v-26l-607 -648h402l27 113h58l-37 -163h-547z" />
    <glyph glyph-name="zacute" unicode="&#x17a;" horiz-adv-x="555" 
d="M307 585l-12 21l188 136c16 13 28 18 44 18c20 0 37 -18 37 -38c0 -25 -17 -39 -41 -48zM39 -8l-21 26l421 420h-263l-24 -96h-53l36 144h380l15 -24l-409 -408c23 9 47 13 73 13c59 0 107 -25 159 -25c46 0 63 23 88 98l35 -7c-26 -97 -47 -142 -125 -142
c-64 0 -125 32 -190 32c-55 0 -86 -11 -122 -31z" />
    <glyph glyph-name="Zcaron" unicode="&#x17d;" horiz-adv-x="682" 
d="M470 790l-116 152l27 24l100 -95l155 95l25 -31zM17 0v25l608 649h-385l-26 -113h-58l37 163h528v-26l-607 -648h402l27 113h58l-37 -163h-547z" />
    <glyph glyph-name="zcaron" unicode="&#x17e;" horiz-adv-x="555" 
d="M357 588l-123 160l29 25l106 -100l163 100l26 -33zM39 -8l-21 26l421 420h-263l-24 -96h-53l36 144h380l15 -24l-409 -408c23 9 47 13 73 13c59 0 107 -25 159 -25c46 0 63 23 88 98l35 -7c-26 -97 -47 -142 -125 -142c-64 0 -125 32 -190 32c-55 0 -86 -11 -122 -31z
" />
    <glyph glyph-name="Zdotaccent" unicode="&#x17b;" horiz-adv-x="682" 
d="M485 807c-31 0 -54 25 -54 56s23 57 54 57s54 -26 54 -57s-23 -56 -54 -56zM17 0v25l608 649h-385l-26 -113h-58l37 163h528v-26l-607 -648h402l27 113h58l-37 -163h-547z" />
    <glyph glyph-name="zdotaccent" unicode="&#x17c;" horiz-adv-x="555" 
d="M372 606c-32 0 -57 27 -57 59s25 59 57 59s57 -27 57 -59s-25 -59 -57 -59zM39 -8l-21 26l421 420h-263l-24 -96h-53l36 144h380l15 -24l-409 -408c23 9 47 13 73 13c59 0 107 -25 159 -25c46 0 63 23 88 98l35 -7c-26 -97 -47 -142 -125 -142c-64 0 -125 32 -190 32
c-55 0 -86 -11 -122 -31z" />
    <glyph glyph-name="schwa" unicode="&#x259;" horiz-adv-x="561" 
d="M55 164c0 29 6 60 19 94h369c1 11 2 22 2 33c0 102 -82 154 -166 154c-56 0 -98 -12 -159 -45l13 60c51 25 93 36 156 36c113 0 213 -73 213 -204c0 -164 -127 -301 -271 -301c-109 0 -176 69 -176 173zM235 43c87 0 167 71 197 166h-314c-6 -17 -9 -37 -9 -55
c0 -58 38 -111 126 -111z" />
    <glyph glyph-name="germandbls" unicode="&#xdf;" horiz-adv-x="630" 
d="M389 -8c-63 0 -143 41 -143 104c0 27 19 53 47 53s46 -21 46 -41c0 -16 -10 -31 -18 -39c6 -13 39 -28 71 -28c66 0 111 48 111 113c0 50 -38 90 -75 126c-46 45 -80 82 -80 136c0 64 39 101 87 134c48 35 96 72 96 149c0 57 -52 102 -105 102c-73 0 -126 -57 -146 -159
l-147 -642h-58l100 436h-87l12 50h88l37 164c30 134 104 203 204 203c89 0 159 -65 159 -154c0 -101 -57 -146 -117 -189c-41 -30 -68 -54 -68 -94c0 -30 29 -60 70 -101c41 -39 85 -91 85 -162c0 -89 -58 -161 -169 -161z" />
    <glyph glyph-name="zero" unicode="0" horiz-adv-x="660" 
d="M308 -10c-146 0 -235 117 -235 257c0 176 124 341 300 341c145 0 235 -117 235 -258c0 -176 -124 -340 -300 -340zM308 44c141 0 239 135 239 285c0 117 -75 205 -175 205c-141 0 -239 -135 -239 -286c0 -117 75 -204 175 -204z" />
    <glyph glyph-name="one" unicode="1" horiz-adv-x="447" 
d="M11 0l12 51h139l107 464l-134 -34l-1 55l187 50l21 -10l-121 -525h137l-12 -51h-335z" />
    <glyph glyph-name="two" unicode="2" horiz-adv-x="565" 
d="M13 0l-7 34c46 118 166 185 288 247c95 49 168 93 168 159c0 48 -44 97 -144 97c-67 0 -110 -24 -136 -58c18 -8 28 -23 28 -43c0 -25 -20 -45 -46 -45c-28 0 -51 21 -51 52c0 75 92 147 207 147c130 0 202 -69 202 -146c0 -101 -100 -157 -210 -211
c-137 -69 -195 -108 -233 -182h316c0 1 24 103 24 104h54l-36 -155h-424z" />
    <glyph glyph-name="three" unicode="3" horiz-adv-x="571" 
d="M220 -145c-101 0 -218 56 -218 145c0 34 22 59 52 59c28 0 44 -20 44 -40c0 -17 -14 -39 -37 -44c14 -32 70 -68 164 -68c107 0 183 66 183 154c0 87 -81 150 -194 150h-22l13 52h24c146 0 238 67 238 154c0 70 -56 120 -151 120c-67 0 -109 -21 -132 -46
c18 -7 30 -23 30 -41c0 -25 -21 -42 -45 -42c-27 0 -48 24 -48 52c0 72 102 130 196 130c134 0 210 -74 210 -167c0 -109 -91 -168 -203 -188c93 -29 144 -94 144 -171c0 -118 -111 -209 -248 -209z" />
    <glyph glyph-name="four" unicode="4" horiz-adv-x="619" 
d="M461 331l-48 -206h136l-12 -51h-135l-49 -213h-60l49 213h-329l-4 21l468 494l39 -34l-408 -430h246l42 183z" />
    <glyph glyph-name="five" unicode="5" horiz-adv-x="568" 
d="M203 -142c-106 0 -193 60 -193 122c0 28 20 53 50 53c25 0 45 -17 45 -42c0 -13 -6 -29 -21 -38c18 -23 59 -42 121 -42c116 0 206 86 206 198c0 95 -68 139 -162 139c-55 0 -96 -12 -139 -33l-23 16l116 350h338l-13 -55h-291c-1 -3 -78 -239 -78 -242
c22 10 56 18 104 18c120 0 210 -73 210 -189c0 -138 -121 -255 -270 -255z" />
    <glyph glyph-name="six" unicode="6" horiz-adv-x="623" 
d="M139 52c-45 45 -64 104 -64 189c0 144 58 305 167 410c54 51 118 86 203 86c91 0 164 -53 164 -111c0 -30 -16 -56 -51 -56c-24 0 -44 17 -44 43c0 14 6 29 22 39c-12 16 -40 34 -98 34c-57 0 -113 -26 -162 -73c-63 -61 -121 -176 -139 -285c33 57 106 124 219 124
c124 0 201 -87 201 -200c0 -137 -118 -261 -265 -261c-68 0 -116 24 -153 61zM136 201c0 -43 14 -81 41 -109c29 -30 70 -47 122 -47c110 0 196 97 196 203c0 87 -52 151 -148 151c-125 0 -211 -98 -211 -198z" />
    <glyph glyph-name="seven" unicode="7" horiz-adv-x="560" 
d="M92 -142l-46 27l439 646h-318l-28 -112h-56l38 162h432l13 -26z" />
    <glyph glyph-name="eight" unicode="8" horiz-adv-x="580" 
d="M260 -9c-120 0 -210 81 -210 185c0 110 82 184 185 209c-59 35 -89 89 -89 152c0 99 96 200 227 200c115 0 194 -78 194 -179c0 -98 -64 -167 -166 -194c61 -31 107 -82 107 -162c0 -112 -111 -211 -248 -211zM339 398c96 0 170 67 170 156c0 75 -53 131 -141 131
c-95 0 -163 -67 -163 -156c0 -71 54 -131 134 -131zM263 43c109 0 184 74 184 162c0 86 -70 144 -155 144c-111 0 -183 -81 -183 -167c0 -84 71 -139 154 -139z" />
    <glyph glyph-name="nine" unicode="9" horiz-adv-x="623" 
d="M506 380c0 43 -13 81 -41 109c-28 30 -69 47 -121 47c-110 0 -197 -98 -197 -204c0 -87 52 -151 148 -151c125 0 211 98 211 199zM202 -145c-92 0 -164 53 -164 111c0 30 16 56 50 56c25 0 45 -17 45 -43c0 -14 -6 -29 -23 -39c12 -16 40 -34 98 -34c57 0 112 25 159 68
c70 65 124 181 139 281c-33 -57 -105 -126 -220 -126c-124 0 -201 87 -201 199c0 138 119 262 266 262c68 0 115 -24 152 -61c45 -45 64 -104 64 -190c0 -152 -61 -300 -150 -389c-63 -63 -124 -95 -215 -95z" />
    <glyph glyph-name="zero.lin" horiz-adv-x="696" 
d="M323 -13c-139 0 -237 107 -237 267c0 254 153 483 348 483c138 0 236 -107 236 -267c0 -254 -153 -483 -347 -483zM328 42c162 0 279 220 279 423c0 124 -60 217 -178 217c-162 0 -279 -220 -279 -423c0 -124 60 -217 178 -217z" />
    <glyph glyph-name="one.lin" horiz-adv-x="481" 
d="M10 0l12 53h153l140 610l-155 -39v56l203 52l26 -13l-154 -666h149l-12 -53h-362z" />
    <glyph glyph-name="two.lin" horiz-adv-x="613" 
d="M27 0l-10 27c57 140 132 224 323 328c137 75 194 129 194 206c0 70 -59 121 -145 121c-94 0 -152 -42 -169 -74c16 -14 25 -28 25 -45c0 -27 -20 -48 -49 -48c-25 0 -49 22 -49 55c0 70 96 167 246 167c124 0 205 -77 205 -173c0 -110 -84 -172 -233 -255
c-161 -90 -228 -161 -271 -256h341l25 112h59l-38 -165h-454z" />
    <glyph glyph-name="three.lin" horiz-adv-x="580" 
d="M253 -9c-118 0 -224 70 -224 139c0 30 20 61 53 61c29 0 44 -21 44 -41c0 -17 -13 -37 -34 -43c17 -27 79 -62 165 -62c116 0 191 65 191 153c0 93 -91 152 -211 152h-15l12 53h20c157 0 241 71 241 154c0 78 -65 124 -154 124c-70 0 -114 -23 -133 -49
c18 -6 30 -22 30 -40c0 -25 -25 -41 -46 -41c-26 0 -49 22 -49 52c0 70 91 133 209 133c116 0 206 -75 206 -174c0 -112 -101 -173 -202 -189c85 -23 155 -84 155 -174c0 -123 -116 -208 -258 -208z" />
    <glyph glyph-name="four.lin" horiz-adv-x="612" 
d="M498 467l-46 -199h128l-11 -51h-129l-38 -164h106l-11 -53h-299l12 53h132l37 164h-333l-4 23l487 499l40 -36l-426 -435h248l40 172z" />
    <glyph glyph-name="five.lin" horiz-adv-x="578" 
d="M230 -13c-96 0 -194 58 -194 121c0 28 19 54 48 54c24 0 43 -17 43 -41c0 -12 -6 -28 -20 -36c19 -23 62 -45 129 -45c136 0 220 103 220 207c0 96 -62 147 -152 147c-57 0 -103 -11 -148 -31l-24 21l113 340h341l-13 -57h-292l-82 -242c27 12 65 23 114 23
c123 0 206 -77 206 -197c0 -129 -110 -264 -289 -264z" />
    <glyph glyph-name="six.lin" horiz-adv-x="624" 
d="M151 48c-48 48 -67 108 -67 200c0 137 58 300 168 403c53 50 119 86 202 86c93 0 167 -54 167 -113c0 -36 -26 -56 -52 -56c-20 0 -45 14 -45 45c0 11 5 27 23 39c-11 14 -40 33 -94 33c-60 0 -115 -26 -165 -72c-67 -62 -125 -175 -142 -286c35 55 110 124 218 124
c130 0 211 -88 211 -196c0 -133 -120 -268 -268 -268c-70 0 -123 28 -156 61zM311 41c105 0 201 97 201 212c0 86 -58 145 -155 145c-113 0 -208 -101 -208 -202c0 -43 16 -83 45 -112c28 -26 67 -43 117 -43z" />
    <glyph glyph-name="seven.lin" horiz-adv-x="557" 
d="M83 0l447 671h-328l-26 -111h-58l39 164h451l11 -21l-465 -703h-71z" />
    <glyph glyph-name="eight.lin" horiz-adv-x="614" 
d="M305 -11c-134 0 -238 88 -238 197c0 115 92 185 190 201c-60 27 -105 90 -105 158c0 96 90 190 231 190c123 0 223 -77 223 -182c0 -103 -77 -161 -173 -185c61 -24 118 -86 118 -168c0 -119 -105 -211 -246 -211zM371 403c98 0 174 64 174 147c0 71 -58 131 -162 131
c-97 0 -172 -60 -172 -141c0 -78 71 -137 160 -137zM304 43c102 0 188 66 188 156c0 87 -69 151 -175 151c-114 0 -189 -70 -189 -162c0 -79 69 -145 176 -145z" />
    <glyph glyph-name="nine.lin" horiz-adv-x="624" 
d="M535 528c0 43 -16 83 -45 111c-28 27 -67 44 -116 44c-106 0 -202 -97 -202 -212c0 -86 58 -145 155 -145c113 0 208 101 208 202zM109 469c0 132 120 268 268 268c70 0 123 -28 156 -62c48 -47 67 -107 67 -200c0 -137 -58 -299 -168 -402c-52 -50 -119 -86 -202 -86
c-92 0 -167 54 -167 113c0 36 26 56 52 56c20 0 45 -14 45 -45c0 -11 -5 -27 -23 -39c11 -14 40 -33 94 -33c60 0 116 25 165 72c67 62 124 174 141 284c-36 -55 -110 -122 -217 -122c-130 0 -211 87 -211 196z" />
    <glyph glyph-name="period" unicode="." horiz-adv-x="228" 
d="M86 -9c-33 0 -58 26 -58 60c0 33 25 60 58 60s58 -27 58 -60c0 -34 -25 -60 -58 -60z" />
    <glyph glyph-name="comma" unicode="," horiz-adv-x="228" 
d="M-43 -154l-12 24c83 38 125 98 129 130c-29 5 -46 33 -46 55c0 30 23 56 57 56c33 0 60 -28 60 -67c0 -69 -57 -153 -188 -198z" />
    <glyph glyph-name="colon" unicode=":" horiz-adv-x="251" 
d="M168 299c-34 0 -58 26 -58 60c0 33 24 60 58 60c33 0 58 -27 58 -60c0 -34 -25 -60 -58 -60zM97 -9c-33 0 -57 26 -57 60c0 33 24 60 57 60c34 0 58 -27 58 -60c0 -34 -24 -60 -58 -60z" />
    <glyph glyph-name="semicolon" unicode=";" horiz-adv-x="251" 
d="M168 299c-34 0 -58 26 -58 60c0 33 24 60 58 60c33 0 58 -27 58 -60c0 -34 -25 -60 -58 -60zM-32 -154l-12 24c84 38 126 98 130 130c-29 5 -46 33 -46 55c0 30 23 56 56 56c34 0 60 -28 60 -67c0 -69 -56 -153 -188 -198z" />
    <glyph glyph-name="ellipsis" unicode="&#x2026;" horiz-adv-x="663" 
d="M71 -9c-33 0 -58 26 -58 60c0 33 25 60 58 60s58 -27 58 -60c0 -34 -25 -60 -58 -60zM288 -9c-34 0 -58 26 -58 60c0 33 24 60 58 60c33 0 58 -27 58 -60c0 -34 -25 -60 -58 -60zM505 -9c-34 0 -59 26 -59 60c0 33 25 60 59 60c33 0 57 -27 57 -60c0 -34 -24 -60 -57 -60
z" />
    <glyph glyph-name="periodcentered" unicode="&#xb7;" horiz-adv-x="236" 
d="M133 254c-34 0 -58 27 -58 60c0 34 24 61 58 61c33 0 58 -27 58 -61c0 -33 -25 -60 -58 -60z" />
    <glyph glyph-name="bullet" unicode="&#x2022;" horiz-adv-x="311" 
d="M171 201c-53 0 -91 41 -91 94c0 52 38 95 91 95c52 0 90 -43 90 -95c0 -53 -38 -94 -90 -94z" />
    <glyph glyph-name="bullet.alt" horiz-adv-x="742" 
d="M372 -55c-175 0 -296 136 -296 304c0 167 121 303 296 303c176 0 297 -136 297 -303c0 -168 -121 -304 -297 -304z" />
    <glyph glyph-name="ampersand" unicode="&#x26;" horiz-adv-x="662" 
d="M18 145c0 118 94 181 200 228c-25 45 -36 85 -36 129c0 104 72 181 171 181c83 0 139 -58 139 -126c0 -105 -97 -154 -205 -205c11 -16 24 -33 41 -52l91 -111c55 80 97 132 162 132c42 0 63 -24 63 -50s-22 -46 -45 -46c-21 0 -40 15 -45 39c-32 -8 -62 -56 -103 -114
l110 -132l-38 -32l-103 128c-54 -64 -125 -127 -229 -127c-108 0 -173 73 -173 158zM235 506c0 -43 7 -76 28 -116c114 50 174 95 174 163c0 45 -33 83 -89 83c-67 0 -113 -62 -113 -130zM196 37c88 0 143 54 193 114l-100 124c-18 22 -35 42 -48 60
c-96 -47 -165 -94 -165 -187c0 -59 44 -111 120 -111z" />
    <glyph glyph-name="exclam" unicode="!" horiz-adv-x="274" 
d="M122 179l93 544h72l-140 -544h-25zM107 -9c-30 0 -54 25 -54 55s24 55 54 55s53 -25 53 -55s-23 -55 -53 -55z" />
    <glyph glyph-name="exclamdown" unicode="&#xa1;" horiz-adv-x="274" 
d="M228 622c-30 0 -54 25 -54 55s24 55 54 55c29 0 53 -25 53 -55s-24 -55 -53 -55zM47 0l140 543h26l-94 -543h-72z" />
    <glyph glyph-name="question" unicode="?" horiz-adv-x="501" 
d="M145 181l36 178c204 8 289 111 289 201c0 82 -62 124 -138 124c-67 0 -118 -32 -129 -61c15 -6 32 -22 32 -44c0 -25 -22 -46 -48 -46c-29 0 -51 25 -51 57c0 75 99 147 201 147c112 0 192 -71 192 -172c0 -119 -110 -232 -302 -251l-44 -133h-38zM136 -9
c-30 0 -53 25 -53 55s23 55 53 55s54 -25 54 -55s-24 -55 -54 -55z" />
    <glyph glyph-name="questiondown" unicode="&#xbf;" horiz-adv-x="501" 
d="M431 627c-30 0 -54 25 -54 55s24 55 54 55s53 -25 53 -55s-23 -55 -53 -55zM230 -9c-112 0 -192 71 -192 172c0 119 110 232 302 251l44 133h38l-36 -178c-204 -8 -289 -111 -289 -201c0 -82 62 -124 138 -124c67 0 118 32 129 61c-15 6 -32 22 -32 44c0 25 22 46 48 46
c29 0 51 -25 51 -57c0 -75 -99 -147 -201 -147z" />
    <glyph glyph-name="quotedblleft" unicode="&#x201c;" horiz-adv-x="447" 
d="M189 501c-36 0 -61 28 -61 68c0 75 78 166 195 214l12 -25c-85 -49 -121 -109 -129 -141c24 -9 43 -28 43 -56c0 -33 -25 -60 -60 -60zM396 501c-36 0 -60 28 -60 68c0 75 77 166 194 214l12 -25c-85 -49 -121 -109 -129 -141c25 -9 43 -28 43 -56c0 -33 -25 -60 -60 -60
z" />
    <glyph glyph-name="quotedblright" unicode="&#x201d;" horiz-adv-x="447" 
d="M98 500l-13 24c86 50 122 110 130 142c-25 8 -43 28 -43 56c0 32 25 60 60 60c36 0 60 -28 60 -69c0 -75 -77 -165 -194 -213zM305 500l-12 24c85 50 121 110 129 142c-25 8 -43 28 -43 56c0 32 25 60 60 60c36 0 60 -28 60 -69c0 -75 -77 -165 -194 -213z" />
    <glyph glyph-name="quoteleft" unicode="&#x2018;" horiz-adv-x="240" 
d="M189 501c-36 0 -61 28 -61 68c0 75 78 166 195 214l12 -25c-85 -49 -121 -109 -129 -141c24 -9 43 -28 43 -56c0 -33 -25 -60 -60 -60z" />
    <glyph glyph-name="quoteright" unicode="&#x2019;" horiz-adv-x="240" 
d="M98 500l-13 24c86 50 122 110 130 142c-25 8 -43 28 -43 56c0 32 25 60 60 60c36 0 60 -28 60 -69c0 -75 -77 -165 -194 -213z" />
    <glyph glyph-name="quotedblbase" unicode="&#x201e;" horiz-adv-x="442" 
d="M-38 -154l-12 24c84 38 126 98 130 130c-30 5 -47 33 -47 55c0 30 24 56 57 56s60 -28 60 -67c0 -69 -57 -153 -188 -198zM166 -154l-12 24c83 38 125 98 129 130c-29 5 -46 33 -46 55c0 30 23 56 57 56c33 0 60 -28 60 -67c0 -69 -57 -153 -188 -198z" />
    <glyph glyph-name="quotesinglbase" unicode="&#x201a;" horiz-adv-x="238" 
d="M-38 -154l-12 24c84 38 126 98 130 130c-30 5 -47 33 -47 55c0 30 24 56 57 56s60 -28 60 -67c0 -69 -57 -153 -188 -198z" />
    <glyph glyph-name="guillemotleft" unicode="&#xab;" horiz-adv-x="534" 
d="M211 132l-151 185l232 182l31 -35l-186 -158l110 -146zM405 132l-151 185l232 182l31 -35l-186 -158l110 -146z" />
    <glyph glyph-name="guillemotright" unicode="&#xbb;" horiz-adv-x="534" 
d="M86 131l-31 35l186 158l-110 146l37 28l151 -185zM280 131l-31 35l186 158l-110 146l36 28l151 -185z" />
    <glyph glyph-name="guilsinglleft" unicode="&#x2039;" horiz-adv-x="341" 
d="M211 132l-151 185l232 182l31 -35l-186 -158l110 -146z" />
    <glyph glyph-name="guilsinglright" unicode="&#x203a;" horiz-adv-x="341" 
d="M86 131l-31 35l186 158l-110 146l37 28l151 -185z" />
    <glyph glyph-name="hyphen" unicode="-" horiz-adv-x="299" 
d="M48 291l14 57h205l-12 -57h-207z" />
    <glyph glyph-name="endash" unicode="&#x2013;" horiz-adv-x="473" 
d="M36 291l14 57h404l-12 -57h-406z" />
    <glyph glyph-name="emdash" unicode="&#x2014;" horiz-adv-x="730" 
d="M36 291l14 57h661l-12 -57h-663z" />
    <glyph glyph-name="hyphen.lin" horiz-adv-x="285" 
d="M71 346l13 55h195l-12 -55h-196z" />
    <glyph glyph-name="endash.lin" horiz-adv-x="450" 
d="M59 346l14 55h383l-11 -55h-386z" />
    <glyph glyph-name="emdash.lin" horiz-adv-x="694" 
d="M59 346l14 55h627l-12 -55h-629z" />
    <glyph glyph-name="underscore" unicode="_" horiz-adv-x="600" 
d="M-38 -161l14 57h602l-12 -57h-604z" />
    <glyph glyph-name="slash" unicode="/" horiz-adv-x="430" 
d="M-56 -240l-51 28l592 1069l50 -28z" />
    <glyph glyph-name="backslash" unicode="\" horiz-adv-x="369" 
d="M212 -231l-75 1076l57 4l76 -1075z" />
    <glyph glyph-name="bar" unicode="|" horiz-adv-x="321" 
d="M134 -232v1081h53v-1081h-53z" />
    <glyph glyph-name="parenleft" unicode="(" horiz-adv-x="409" 
d="M321 -254c-144 119 -220 277 -220 462c0 286 173 537 410 664l28 -43c-228 -128 -376 -369 -376 -621c0 -160 59 -306 189 -422z" />
    <glyph glyph-name="parenright" unicode=")" horiz-adv-x="409" 
d="M-56 -254l-28 43c227 128 375 369 375 621c0 160 -58 306 -189 422l31 40c145 -119 221 -277 221 -462c0 -286 -173 -537 -410 -664z" />
    <glyph glyph-name="parenleft.lin" horiz-adv-x="389" 
d="M322 -188c-144 119 -220 277 -220 462c0 286 173 537 410 664l28 -43c-228 -128 -376 -369 -376 -621c0 -160 59 -306 189 -422z" />
    <glyph glyph-name="parenright.lin" horiz-adv-x="389" 
d="M-45 -188l-28 43c227 128 375 369 375 621c0 160 -58 306 -189 422l31 40c145 -119 221 -277 221 -462c0 -286 -173 -537 -410 -664z" />
    <glyph glyph-name="bracketleft" unicode="[" horiz-adv-x="400" 
d="M24 -232l251 1081h248l-12 -52h-186l-228 -977h186l-12 -52h-247z" />
    <glyph glyph-name="bracketright" unicode="]" horiz-adv-x="400" 
d="M-95 -232l12 52h186l229 977h-187l13 52h246l-251 -1081h-248z" />
    <glyph glyph-name="bracketleft.lin" horiz-adv-x="381" 
d="M44 -154l239 1025h236l-12 -50h-176l-217 -925h177l-12 -50h-235z" />
    <glyph glyph-name="bracketright.lin" horiz-adv-x="381" 
d="M-78 -154l11 50h177l216 925h-176l11 50h235l-239 -1025h-235z" />
    <glyph glyph-name="braceleft" unicode="{" horiz-adv-x="383" 
d="M225 -247c-118 15 -173 94 -173 181c0 70 47 123 91 164c37 34 71 66 71 101c0 34 -23 81 -99 81h-43l16 63h43c83 0 129 47 129 101c0 29 -12 65 -28 101c-18 38 -33 82 -33 123c0 101 87 196 279 199l-11 -45c-152 -8 -211 -86 -211 -153c0 -37 14 -76 31 -114
c16 -37 29 -76 29 -111c0 -77 -54 -125 -127 -135c59 -17 82 -62 82 -107c0 -53 -40 -98 -82 -136c-41 -38 -79 -81 -79 -129c0 -64 30 -115 126 -140z" />
    <glyph glyph-name="braceright" unicode="}" horiz-adv-x="383" 
d="M-64 -245l11 46c151 7 210 85 210 152c0 38 -14 77 -31 114c-16 38 -29 77 -29 111c0 77 54 126 127 136c-59 17 -82 62 -82 106c0 54 41 98 83 137c41 37 78 81 78 128c0 64 -30 116 -126 140l11 44c118 -14 174 -93 174 -181c0 -69 -48 -122 -92 -163
c-36 -33 -71 -66 -71 -101c0 -34 23 -81 99 -81h43l-16 -63h-43c-82 0 -129 -48 -129 -102c0 -28 12 -65 29 -100c17 -38 33 -83 33 -124c0 -101 -88 -195 -279 -199z" />
    <glyph glyph-name="braceleft.lin" horiz-adv-x="365" 
d="M247 -181c-118 15 -173 94 -173 181c0 70 47 123 91 164c37 34 71 66 71 101c0 34 -23 81 -99 81h-43l16 63h43c83 0 129 47 129 101c0 29 -12 65 -28 101c-18 38 -33 82 -33 123c0 101 87 196 279 199l-11 -45c-152 -8 -211 -86 -211 -153c0 -37 14 -76 31 -114
c16 -37 29 -76 29 -111c0 -77 -54 -125 -127 -135c59 -17 82 -62 82 -107c0 -53 -40 -98 -82 -136c-41 -38 -79 -81 -79 -129c0 -64 30 -115 126 -140z" />
    <glyph glyph-name="braceright.lin" horiz-adv-x="365" 
d="M-53 -179l11 46c151 7 210 85 210 152c0 38 -14 77 -31 114c-16 38 -29 77 -29 111c0 77 54 126 127 136c-59 17 -82 62 -82 106c0 54 41 98 83 137c41 37 78 81 78 128c0 64 -30 116 -126 140l11 44c118 -14 174 -93 174 -181c0 -69 -48 -122 -92 -163
c-36 -33 -71 -66 -71 -101c0 -34 23 -81 99 -81h43l-16 -63h-43c-82 0 -129 -48 -129 -102c0 -28 12 -65 29 -100c17 -38 33 -83 33 -124c0 -101 -88 -195 -279 -199z" />
    <glyph glyph-name="at" unicode="@" horiz-adv-x="945" 
d="M390 -202c-200 0 -326 150 -326 339c0 316 232 561 497 561c200 0 324 -130 324 -326c0 -182 -98 -328 -215 -328c-71 0 -99 51 -92 98c-31 -58 -90 -98 -156 -98c-84 0 -150 61 -150 163c0 132 102 242 215 242c81 0 122 -52 130 -101l24 97h52l-64 -256
c-16 -64 -1 -100 44 -100c93 0 167 140 167 284c0 164 -106 284 -280 284c-244 0 -450 -229 -450 -521c0 -159 108 -297 281 -297c68 0 132 17 188 47l19 -37c-62 -33 -134 -51 -208 -51zM433 93c99 0 166 105 166 194c0 71 -43 112 -111 112c-91 0 -157 -90 -157 -191
c0 -71 35 -115 102 -115z" />
    <glyph glyph-name="copyright" unicode="&#xa9;" horiz-adv-x="675" 
d="M339 -9c-161 0 -277 127 -277 284s116 285 277 285c160 0 276 -128 276 -285s-116 -284 -276 -284zM339 25c137 0 237 113 237 251s-100 251 -237 251c-138 0 -238 -113 -238 -251s100 -251 238 -251zM352 134c-87 0 -148 63 -148 145c0 88 71 148 143 148
c68 0 109 -40 109 -69c0 -16 -11 -30 -26 -30c-14 0 -25 11 -25 25c0 7 3 13 6 17c-7 11 -28 23 -64 23c-58 0 -102 -51 -102 -112c0 -59 43 -112 108 -112c33 0 60 13 85 37l22 -27c-28 -31 -68 -45 -108 -45z" />
    <glyph glyph-name="published" unicode="&#x2117;" horiz-adv-x="675" 
d="M339 -9c-161 0 -277 127 -277 284s116 285 277 285c160 0 276 -128 276 -285s-116 -284 -276 -284zM339 25c137 0 237 113 237 251s-100 251 -237 251c-138 0 -238 -113 -238 -251s100 -251 238 -251zM358 261c44 0 71 25 71 64c0 37 -30 59 -72 59h-39v-122
c8 0 22 -1 40 -1zM245 127v32h37v225h-37v33h113c62 0 108 -36 108 -92c0 -61 -44 -96 -110 -96c-15 0 -30 0 -38 1v-71h39v-32h-112z" />
    <glyph glyph-name="registered.alt" horiz-adv-x="675" 
d="M339 -9c-161 0 -277 127 -277 284s116 285 277 285c160 0 276 -128 276 -285s-116 -284 -276 -284zM339 25c137 0 237 113 237 251s-100 251 -237 251c-138 0 -238 -113 -238 -251s100 -251 238 -251zM299 283h33c45 0 75 21 75 57s-29 54 -72 54h-36v-111zM226 136v33
h37v225h-37v32h110c66 0 108 -31 108 -85c0 -38 -25 -67 -61 -79l57 -93h35v-33h-59l-68 116h-49v-83h38v-33h-111z" />
    <glyph glyph-name="registered" unicode="&#xae;" horiz-adv-x="465" 
d="M315 390c-116 0 -206 92 -206 206c0 116 90 208 206 208c115 0 206 -92 206 -208c0 -113 -92 -206 -206 -206zM315 770c-95 0 -168 -76 -168 -174c0 -97 73 -173 168 -173c93 0 168 77 168 173c0 98 -73 174 -168 174zM291 605h21c29 0 47 12 47 35c0 21 -18 32 -46 32
h-22v-67zM235 500v29h24v143h-24v29h79c45 0 78 -21 78 -60c0 -26 -16 -46 -39 -55l33 -57h23v-29h-46l-42 77h-30v-48h27v-29h-83z" />
    <glyph glyph-name="copyright.lin" horiz-adv-x="879" 
d="M442 -13c-207 0 -367 168 -367 375s160 375 367 375c206 0 367 -168 367 -375s-161 -375 -367 -375zM442 22c182 0 326 153 326 340s-144 340 -326 340c-183 0 -327 -153 -327 -340s144 -340 327 -340zM457 180c-112 0 -188 83 -188 186c0 111 86 189 186 189
c78 0 136 -46 136 -89c0 -21 -14 -37 -33 -37s-33 12 -33 31c0 10 6 17 12 21c-10 15 -39 32 -83 32c-80 0 -138 -66 -138 -146c0 -77 57 -145 141 -145c43 0 79 17 110 47l28 -32c-36 -37 -87 -57 -138 -57z" />
    <glyph glyph-name="published.lin" horiz-adv-x="879" 
d="M442 -13c-207 0 -367 168 -367 375s160 375 367 375c206 0 367 -168 367 -375s-161 -375 -367 -375zM442 22c182 0 326 153 326 340s-144 340 -326 340c-183 0 -327 -153 -327 -340s144 -340 327 -340zM318 182v40h46v281h-46v40h141c76 0 134 -45 134 -115
c0 -76 -54 -118 -137 -118h-47v-88h49v-40h-140zM460 349c54 0 87 30 87 79c0 47 -38 75 -89 75h-49v-153c10 0 28 -1 51 -1z" />
    <glyph glyph-name="registered.lin" horiz-adv-x="879" 
d="M442 -13c-207 0 -367 168 -367 375s160 375 367 375c206 0 367 -168 367 -375s-161 -375 -367 -375zM442 22c182 0 326 153 326 340s-144 340 -326 340c-183 0 -327 -153 -327 -340s144 -340 327 -340zM394 372h43c54 0 93 26 93 71c0 44 -35 67 -90 67h-46v-138z
M304 188v40h46v282h-46v40h138c81 0 134 -39 134 -105c0 -50 -31 -85 -76 -99l71 -118h43v-40h-70l-84 145h-66v-105h48v-40h-138z" />
    <glyph glyph-name="servicemark" unicode="&#x2120;" horiz-adv-x="743" 
d="M365 479l8 34h42l61 216h-43l8 34h87l41 -187l130 187h93l-7 -34h-44l-42 -216h44l-7 -34h-116l7 34h36l39 196l-135 -195h-19l-44 195l-52 -196h36l-8 -34h-115zM239 474c-58 0 -103 33 -103 71c0 22 13 36 31 36s27 -11 27 -27c0 -9 -5 -19 -12 -25
c9 -10 31 -20 59 -20c35 0 58 17 58 41c0 25 -17 38 -54 57c-36 20 -67 42 -67 84c0 38 36 77 98 77c58 0 94 -34 94 -63c0 -21 -11 -37 -30 -37c-17 0 -28 10 -28 26c0 8 6 19 12 25c-5 6 -25 15 -49 15c-34 0 -55 -19 -55 -40c0 -26 23 -39 55 -58c38 -21 66 -43 66 -82
c0 -43 -36 -80 -102 -80z" />
    <glyph glyph-name="trademark" unicode="&#x2122;" horiz-adv-x="746" 
d="M143 479l8 34h44l51 218h-74l-12 -46h-37l18 78h263l-18 -78h-39l11 46h-73l-51 -218h43l-8 -34h-126zM369 479l8 34h42l61 216h-43l7 34h88l41 -187l129 187h94l-8 -34h-44l-41 -216h44l-8 -34h-116l8 34h35l39 196l-134 -195h-19l-45 195l-52 -196h37l-8 -34h-115z" />
    <glyph glyph-name="asterisk" unicode="*" horiz-adv-x="456" 
d="M374 466c-20 0 -33 16 -38 36l-29 115l-65 -98c-12 -17 -24 -22 -37 -22c-18 0 -34 14 -34 33c0 15 10 29 23 37l98 64l-111 32c-24 7 -35 22 -35 40c0 19 16 32 36 32c15 0 22 -6 30 -13l91 -72l-3 115c0 32 18 48 36 48c25 0 43 -25 30 -59l-43 -107l110 36
c7 2 14 3 22 3c20 0 35 -15 35 -33c0 -24 -21 -38 -48 -36l-115 8l70 -94c8 -11 11 -23 11 -32c0 -18 -18 -33 -34 -33z" />
    <glyph glyph-name="dagger" unicode="&#x2020;" horiz-adv-x="537" 
d="M169 -2l99 463l-101 11c3 -38 -22 -65 -50 -65c-32 0 -49 26 -49 50c0 33 24 58 64 58c10 0 23 -2 34 -4l128 -23l13 190c3 37 18 59 46 59c44 0 47 -40 32 -79l-66 -175l127 28c13 2 22 4 32 4c37 0 57 -25 57 -58c0 -24 -17 -50 -48 -50c-28 0 -53 27 -50 65l-108 -17
l-127 -457h-33z" />
    <glyph glyph-name="daggerdbl" unicode="&#x2021;" horiz-adv-x="558" 
d="M245 74l-12 -157c-2 -37 -18 -59 -45 -59c-44 0 -47 40 -33 79l52 137l-93 -22c-12 -2 -24 -5 -34 -5c-39 0 -66 26 -66 56c0 25 19 50 50 50c28 0 54 -24 50 -62l89 12l60 197l22 193l-87 11c4 -37 -22 -61 -50 -61c-31 0 -50 25 -50 49c0 30 27 56 66 56
c10 0 22 -2 33 -4l106 -23l11 157c3 37 19 59 46 59c44 0 47 -40 32 -79l-52 -137l94 23c11 2 24 4 34 4c38 0 66 -26 66 -56c0 -25 -19 -49 -51 -49c-28 0 -53 23 -50 61l-89 -12l-59 -197l-22 -192l86 -12c-3 38 22 61 50 61c32 0 51 -24 51 -49c0 -30 -28 -56 -66 -56
c-10 0 -22 2 -34 5z" />
    <glyph glyph-name="asciicircum" unicode="^" horiz-adv-x="523" 
d="M166 439l-25 32l201 153l122 -160l-28 -25l-106 100z" />
    <glyph glyph-name="asciitilde" unicode="~" horiz-adv-x="552" 
d="M361 222c-42 0 -68 21 -92 46c-22 21 -36 32 -54 32c-26 0 -49 -26 -66 -72l-45 15c15 65 62 117 111 117c44 0 71 -24 96 -48c21 -21 35 -31 51 -31c27 0 48 24 65 73l46 -16c-19 -72 -63 -116 -112 -116z" />
    <glyph glyph-name="dollar" unicode="$" horiz-adv-x="548" 
d="M190 435c0 -45 38 -73 88 -99c18 61 40 138 58 197c-5 1 -10 1 -15 1c-67 0 -131 -34 -131 -99zM404 149c0 52 -46 83 -103 112l-63 -216c8 -1 17 -1 25 -1c70 0 141 38 141 105zM190 -122l-45 13c8 32 22 75 34 114c-80 23 -137 74 -137 123c0 32 21 59 50 59
s45 -23 45 -43c0 -18 -10 -32 -24 -45c13 -20 45 -36 82 -46l68 227c-68 33 -133 72 -133 149c0 89 85 156 195 156c8 0 17 0 26 -1l23 80l46 -12l-23 -77c70 -19 122 -63 122 -110c0 -35 -23 -57 -48 -57c-27 0 -45 19 -45 44c0 14 7 30 21 43c-11 14 -37 25 -67 32
l-62 -210c71 -35 144 -75 144 -160c0 -102 -96 -163 -199 -163c-13 0 -26 1 -38 2z" />
    <glyph glyph-name="dollar.lin" horiz-adv-x="614" 
d="M226 541c0 -66 52 -101 112 -134l80 263c-9 1 -18 1 -27 1c-90 -1 -165 -52 -165 -130zM483 191c0 70 -57 105 -124 139l-84 -276c9 -1 19 -1 29 -1c104 0 179 51 179 138zM176 -99l33 111c-98 27 -164 92 -164 144c0 39 24 64 56 64c28 0 47 -23 47 -43
c0 -23 -13 -41 -33 -53c16 -25 57 -51 114 -63l90 289c-77 40 -153 86 -153 187c0 103 96 187 233 187c12 0 24 -1 35 -2l30 102l49 -14l-29 -99c77 -22 136 -72 136 -125c0 -41 -27 -62 -53 -62c-28 0 -47 20 -47 46c0 15 10 33 31 46c-22 22 -54 37 -88 46l-85 -276
c81 -41 165 -86 165 -191c0 -120 -100 -195 -243 -195c-14 0 -28 1 -42 2l-33 -115z" />
    <glyph glyph-name="sterling" unicode="&#xa3;" horiz-adv-x="565" 
d="M541 473c0 -34 -21 -59 -49 -59c-22 0 -41 17 -41 42c0 18 9 34 22 41c-7 21 -48 41 -96 41c-107 0 -164 -84 -164 -207c0 -44 7 -88 9 -135h200l-12 -48h-188c-3 -76 -30 -144 -99 -199c28 -4 49 -11 84 -23c56 -20 83 -25 117 -25c44 0 84 13 128 46l27 -38
c-47 -42 -104 -59 -158 -59c-48 0 -76 10 -133 32c-50 19 -74 27 -104 27c-36 -39 -71 -54 -98 -54c-21 0 -38 15 -38 36c0 39 56 62 125 61c62 56 92 133 97 196h-117l12 48h105c-3 43 -11 87 -11 136c0 146 81 258 220 258c97 0 162 -64 162 -117z" />
    <glyph glyph-name="sterling.lin" horiz-adv-x="620" 
d="M454 284h-177c-2 -82 -27 -146 -100 -193c42 -7 67 -15 89 -22c40 -14 58 -26 125 -26c19 0 67 8 114 41l30 -41c-45 -40 -109 -56 -156 -56c-58 0 -93 16 -136 32c-30 11 -64 21 -111 22c-23 -34 -64 -54 -88 -54c-28 0 -44 13 -44 36c0 31 32 60 116 65
c76 59 103 117 104 196h-117l11 48h104c-4 43 -13 87 -13 137c0 153 91 268 236 268c82 0 161 -56 161 -118c0 -37 -21 -60 -51 -60c-28 0 -49 21 -49 47c0 17 10 35 21 42c-7 14 -40 34 -84 34c-113 0 -177 -101 -177 -212c0 -45 9 -91 13 -138h190z" />
    <glyph glyph-name="Euro" unicode="&#x20ac;" horiz-adv-x="671" 
d="M43 242h68c0 31 5 64 14 95h-70l11 48h78c54 115 167 203 297 203c147 0 207 -90 207 -151c0 -34 -23 -66 -56 -66c-23 0 -41 14 -41 44c0 14 13 39 33 45c-16 39 -60 75 -145 75c-100 0 -186 -65 -233 -150h230l-11 -48h-239c-11 -30 -17 -63 -17 -95h244l-11 -47h-230
c18 -100 97 -152 192 -152c65 0 129 22 187 67l30 -43c-65 -47 -134 -77 -226 -77c-118 0 -221 74 -240 205h-83z" />
    <glyph glyph-name="Euro.lin" horiz-adv-x="817" 
d="M548 415h-302c-11 -38 -17 -78 -18 -119h293l-12 -51h-279c13 -117 90 -203 222 -203c93 0 161 40 225 103l39 -38c-72 -73 -165 -120 -270 -120c-155 0 -262 110 -277 258h-120l12 51h106c1 41 7 81 18 119h-97l12 50h101c61 153 194 271 353 271
c164 0 230 -112 230 -174c0 -45 -27 -70 -55 -70c-31 0 -49 18 -49 44c0 20 16 40 35 50c-9 41 -56 96 -163 96c-130 0 -236 -91 -288 -217h296z" />
    <glyph glyph-name="yen" unicode="&#xa5;" horiz-adv-x="576" 
d="M102 256l11 48h130l-91 226h-67l12 51h199l-10 -51h-81l92 -234l198 234h-79l13 51h201l-11 -51h-63l-195 -226h123l-11 -48h-162l-16 -68h162l-11 -47h-162l-20 -90h90l-12 -51h-228l12 51h89l21 90h-160l11 47h160l16 68h-161z" />
    <glyph glyph-name="yen.lin" horiz-adv-x="704" 
d="M136 293l11 51h160l-117 327h-80l13 53h229l-13 -53h-86l113 -326l260 326h-85l12 53h229l-13 -53h-74l-268 -327h152l-11 -51h-187l-18 -80h186l-11 -50h-186l-25 -110h108l-13 -53h-276l13 53h107l25 110h-185l12 50h184l18 80h-184z" />
    <glyph glyph-name="cent" unicode="&#xa2;" horiz-adv-x="555" 
d="M130 245c0 -68 34 -118 86 -141l114 385c-110 -14 -200 -125 -200 -244zM279 38c-12 0 -24 1 -35 2l-47 -162l-45 13l47 161c-75 28 -127 97 -127 192c0 152 123 292 273 298l37 122l44 -12l-33 -113c86 -14 135 -73 135 -120c0 -33 -24 -58 -52 -58c-18 0 -39 11 -39 41
c0 11 10 32 27 38c-14 23 -44 44 -89 49l-117 -398c10 -1 20 -2 31 -2c59 0 123 24 171 69l-3 -60c-48 -38 -111 -60 -178 -60z" />
    <glyph glyph-name="cent.lin" horiz-adv-x="527" 
d="M126 330c0 -64 32 -111 81 -133l108 364c-105 -13 -189 -119 -189 -231zM266 134c-11 0 -22 0 -33 2l-45 -154l-42 12l45 153c-72 26 -122 92 -122 182c0 144 117 277 260 283l38 127l42 -12l-34 -118c81 -12 127 -69 127 -113c0 -32 -22 -56 -50 -56
c-16 0 -36 10 -36 39c0 11 9 31 25 37c-13 21 -41 40 -83 45l-111 -376c9 -2 19 -2 29 -2c56 0 117 23 163 66l-3 -58c-46 -36 -105 -57 -170 -57z" />
    <glyph glyph-name="numbersign" unicode="#" horiz-adv-x="619" 
d="M261 382l-50 -179h163l50 179h-163zM87 382l13 50h124l41 149h51l-41 -149h162l41 149h51l-41 -149h112l-14 -50h-112l-49 -179h124l-13 -51h-125l-42 -152h-51l42 152h-163l-41 -152h-51l42 152h-111l13 51h112l49 179h-123z" />
    <glyph glyph-name="numbersign.lin" horiz-adv-x="650" 
d="M310 463l-58 -211h144l59 211h-145zM582 723l-59 -211h141l-13 -49h-141l-59 -211h146l-14 -49h-146l-56 -203h-55l57 203h-145l-56 -203h-55l56 203h-140l13 49h141l58 211h-145l13 49h146l59 211h55l-59 -211h144l59 211h55z" />
    <glyph glyph-name="paragraph" unicode="&#xb6;" horiz-adv-x="663" 
d="M162 0l14 49h92s44 168 46 168c-118 0 -178 19 -219 60c-23 23 -37 55 -37 94c0 138 131 211 297 211l314 -1l-13 -51h-87l-129 -479h87l-13 -51h-352zM322 49h63l129 483h-63z" />
    <glyph glyph-name="paragraph.lin" horiz-adv-x="747" 
d="M241 0l13 53h91l50 217h-38c-171 0 -253 77 -253 200c0 147 126 254 303 254h382l-12 -53h-96l-143 -618h97l-12 -53h-382zM405 50h72l144 624h-72z" />
    <glyph glyph-name="section" unicode="&#xa7;" horiz-adv-x="497" 
d="M236 220c9 -4 18 -7 26 -11c75 13 120 39 120 76c0 33 -44 54 -98 75l-30 12c-73 -14 -116 -44 -116 -78c0 -32 43 -52 98 -74zM313 543c-54 0 -94 -24 -94 -55c0 -38 40 -57 101 -81c65 -27 124 -55 124 -114c0 -56 -54 -92 -133 -108c33 -21 52 -47 52 -83
c0 -61 -61 -112 -157 -112c-101 0 -151 52 -151 94c0 25 18 46 41 46c24 0 39 -17 39 -38c0 -10 -4 -22 -12 -28c11 -12 43 -24 84 -24c52 0 93 23 93 53c0 36 -39 55 -99 80c-67 27 -126 55 -126 116c0 52 57 92 135 106c-34 22 -53 48 -53 85c0 61 62 110 157 110
c97 0 150 -54 150 -96c0 -25 -18 -44 -40 -44c-24 0 -40 19 -40 39c0 10 4 22 12 29c-9 11 -44 25 -83 25z" />
    <glyph glyph-name="section.lin" horiz-adv-x="565" 
d="M355 457c-15 5 -28 10 -40 15c-96 -14 -166 -56 -166 -106c0 -49 61 -75 126 -99l39 -15c98 13 167 56 167 106c0 49 -63 76 -126 99zM88 367c0 69 80 113 173 131c-46 27 -70 58 -70 106c0 78 84 133 191 133c76 0 127 -25 156 -56c19 -20 29 -42 29 -60
c0 -29 -17 -54 -47 -54c-29 0 -46 22 -46 44c0 16 6 27 19 40c-3 5 -9 11 -22 17c-21 10 -53 18 -92 18c-78 0 -128 -38 -128 -78c0 -56 59 -81 134 -109c86 -32 157 -62 157 -142c0 -67 -72 -111 -172 -132c45 -27 69 -58 69 -105c0 -78 -83 -133 -191 -133
c-76 0 -130 27 -158 58c-18 19 -26 41 -26 58c0 28 17 54 46 54s46 -22 46 -44c0 -16 -5 -27 -18 -40c1 -5 8 -9 17 -15c20 -11 54 -20 96 -20c78 0 128 38 128 78c0 55 -59 81 -134 109c-86 32 -157 62 -157 142z" />
    <glyph glyph-name="ordfeminine" unicode="&#xaa;" horiz-adv-x="410" 
d="M196 514c72 0 118 78 118 141c0 48 -27 83 -78 83c-65 0 -114 -68 -114 -140c0 -51 27 -84 74 -84zM188 473c-65 0 -112 46 -112 123c0 100 75 183 160 183c52 0 84 -28 96 -65l16 62h43l-53 -218c-2 -11 -3 -21 -3 -28c0 -14 6 -20 18 -20c14 0 27 13 41 46l26 -12
c-15 -44 -40 -69 -72 -69c-37 0 -56 21 -56 55c-24 -32 -58 -57 -104 -57zM45 356l11 41h306l-11 -41h-306z" />
    <glyph glyph-name="ordmasculine" unicode="&#xba;" horiz-adv-x="402" 
d="M229 474c-79 0 -124 56 -124 127c0 94 69 177 163 177c78 0 124 -55 124 -126c0 -94 -70 -178 -163 -178zM231 515c67 0 117 62 117 135c0 51 -34 88 -82 88c-67 0 -117 -62 -117 -135c0 -51 33 -88 82 -88zM62 356l11 41h264l-10 -41h-265z" />
    <glyph glyph-name="ordfeminine.lin" horiz-adv-x="390" 
d="M215 596c72 0 118 78 118 141c0 48 -27 83 -78 83c-65 0 -114 -68 -114 -140c0 -51 27 -84 74 -84zM207 555c-65 0 -112 46 -112 123c0 100 75 183 160 183c52 0 84 -28 96 -65l16 62h43l-53 -218c-2 -11 -3 -21 -3 -28c0 -14 6 -20 18 -20c14 0 27 13 41 46l26 -12
c-15 -44 -40 -69 -72 -69c-37 0 -56 21 -56 55c-24 -32 -58 -57 -104 -57zM64 438l11 41h306l-11 -41h-306z" />
    <glyph glyph-name="ordmasculine.lin" horiz-adv-x="383" 
d="M248 556c-79 0 -124 56 -124 127c0 94 69 177 163 177c78 0 124 -55 124 -126c0 -94 -70 -178 -163 -178zM250 597c67 0 117 62 117 135c0 51 -34 88 -82 88c-67 0 -117 -62 -117 -135c0 -51 33 -88 82 -88zM81 438l11 41h264l-10 -41h-265z" />
    <glyph glyph-name="degree" unicode="&#xb0;" horiz-adv-x="391" 
d="M230 489c-73 0 -116 54 -116 120c0 84 66 169 155 169c74 0 117 -54 117 -120c0 -84 -67 -169 -156 -169zM234 532c60 0 107 61 107 121c0 49 -32 82 -75 82c-60 0 -107 -61 -107 -121c0 -49 32 -82 75 -82z" />
    <glyph glyph-name="degree.lin" horiz-adv-x="372" 
d="M249 571c-73 0 -116 54 -116 120c0 84 66 169 155 169c74 0 117 -54 117 -120c0 -84 -67 -169 -156 -169zM253 614c60 0 107 61 107 121c0 49 -32 82 -75 82c-60 0 -107 -61 -107 -121c0 -49 32 -82 75 -82z" />
    <glyph glyph-name="percent" unicode="%" horiz-adv-x="717" 
d="M202 314c-71 0 -110 51 -110 114c0 80 63 163 148 163c71 0 110 -51 110 -114c0 -81 -63 -163 -148 -163zM87 -12l-31 35c35 32 188 180 292 279c107 102 269 257 300 288l32 -35c-35 -32 -193 -184 -300 -286c-104 -99 -261 -250 -293 -281zM203 354
c50 0 100 56 100 125c0 41 -24 72 -64 72c-50 0 -100 -57 -100 -125c0 -41 25 -72 64 -72zM499 -9c-71 0 -110 51 -110 114c0 80 64 163 149 163c70 0 110 -51 110 -114c0 -80 -64 -163 -149 -163zM500 31c50 0 101 56 101 125c0 41 -25 72 -64 72c-50 0 -101 -56 -101 -125
c0 -41 25 -72 64 -72z" />
    <glyph glyph-name="perthousand" unicode="&#x2030;" horiz-adv-x="978" 
d="M202 314c-71 0 -110 51 -110 114c0 80 63 163 148 163c71 0 110 -51 110 -114c0 -81 -63 -163 -148 -163zM87 -12l-31 35c35 32 188 180 292 279c107 102 269 257 300 288l32 -35c-35 -32 -193 -184 -300 -286c-104 -99 -261 -250 -293 -281zM203 354
c50 0 100 56 100 125c0 41 -24 72 -64 72c-50 0 -100 -57 -100 -125c0 -41 25 -72 64 -72zM792 -9c-71 0 -110 51 -110 114c0 80 63 163 148 163c71 0 110 -51 110 -114c0 -80 -63 -163 -148 -163zM499 -9c-71 0 -110 51 -110 114c0 80 64 163 149 163
c70 0 110 -51 110 -114c0 -80 -64 -163 -149 -163zM793 31c50 0 100 56 100 125c0 41 -25 72 -64 72c-50 0 -101 -56 -101 -125c0 -41 25 -72 65 -72zM500 31c50 0 101 56 101 125c0 41 -25 72 -64 72c-50 0 -101 -56 -101 -125c0 -41 25 -72 64 -72z" />
    <glyph glyph-name="percent.lin" horiz-adv-x="766" 
d="M86 -10l-36 32c63 66 220 228 346 358s284 293 347 357l36 -31l-347 -358c-125 -130 -284 -293 -346 -358zM256 420c-80 0 -128 59 -128 132c0 92 73 185 170 185c80 0 127 -59 127 -132c0 -92 -72 -185 -169 -185zM259 468c66 0 116 67 116 133c0 52 -34 88 -81 88
c-65 0 -116 -66 -116 -133c0 -52 34 -88 81 -88zM531 -9c-80 0 -128 59 -128 132c0 91 73 185 170 185c80 0 127 -60 127 -132c0 -92 -72 -185 -169 -185zM534 39c66 0 116 66 116 132c0 53 -34 89 -81 89c-65 0 -116 -67 -116 -133c0 -52 34 -88 81 -88z" />
    <glyph glyph-name="perthousand.lin" horiz-adv-x="1131" 
d="M86 -10l-36 32c63 66 220 228 346 358s284 293 347 357l36 -31l-347 -358c-125 -130 -284 -293 -346 -358zM256 420c-80 0 -128 59 -128 132c0 92 73 185 170 185c80 0 127 -59 127 -132c0 -92 -72 -185 -169 -185zM259 468c66 0 116 67 116 133c0 52 -34 88 -81 88
c-65 0 -116 -66 -116 -133c0 -52 34 -88 81 -88zM896 -9c-80 0 -128 59 -128 132c0 91 73 185 170 185c80 0 127 -60 127 -132c0 -92 -72 -185 -169 -185zM531 -9c-80 0 -128 59 -128 132c0 91 73 185 170 185c80 0 127 -60 127 -132c0 -92 -72 -185 -169 -185zM899 39
c66 0 116 66 116 132c0 53 -34 89 -81 89c-65 0 -116 -67 -116 -133c0 -52 34 -88 81 -88zM534 39c66 0 116 66 116 132c0 53 -34 89 -81 89c-65 0 -116 -67 -116 -133c0 -52 34 -88 81 -88z" />
    <glyph glyph-name="quotedbl" unicode="&#x22;" horiz-adv-x="339" 
d="M109 516l30 205c6 41 28 56 48 56c26 0 42 -18 42 -41c0 -9 -2 -19 -7 -30l-92 -190h-21zM256 516l30 205c6 41 28 56 48 56c26 0 42 -18 42 -41c0 -9 -2 -19 -7 -30l-92 -190h-21z" />
    <glyph glyph-name="quotesingle" unicode="'" horiz-adv-x="193" 
d="M109 516l30 205c6 41 28 56 48 56c26 0 42 -18 42 -41c0 -9 -2 -19 -7 -30l-92 -190h-21z" />
    <glyph glyph-name="quotedbl.lin" horiz-adv-x="324" 
d="M128 598l30 205c6 41 28 56 48 56c26 0 42 -18 42 -41c0 -9 -2 -19 -7 -30l-92 -190h-21zM275 598l30 205c6 41 28 56 48 56c26 0 42 -18 42 -41c0 -9 -2 -19 -7 -30l-92 -190h-21z" />
    <glyph glyph-name="quotesingle.lin" horiz-adv-x="184" 
d="M128 598l30 205c6 41 28 56 48 56c26 0 42 -18 42 -41c0 -9 -2 -19 -7 -30l-92 -190h-21z" />
    <glyph glyph-name="plus" unicode="+" horiz-adv-x="479" 
d="M323 486l-35 -152h157l-12 -53h-157l-40 -175h-55l40 175h-156l12 53h156l35 152h55z" />
    <glyph glyph-name="plus.lin" horiz-adv-x="456" 
d="M342 568l-35 -152h157l-12 -53h-157l-40 -175h-55l40 175h-156l12 53h156l35 152h55z" />
    <glyph glyph-name="minus" unicode="&#x2212;" horiz-adv-x="479" 
d="M65 281l12 53h368l-12 -53h-368z" />
    <glyph glyph-name="minus.lin" horiz-adv-x="456" 
d="M84 363l12 53h368l-12 -53h-368z" />
    <glyph glyph-name="divide" unicode="&#xf7;" horiz-adv-x="479" 
d="M290 410c-26 0 -47 22 -47 48s21 48 47 48c25 0 46 -22 46 -48s-21 -48 -46 -48zM65 281l12 53h368l-12 -53h-368zM220 108c-26 0 -47 23 -47 48c0 26 21 49 47 49c24 0 46 -23 46 -49c0 -25 -22 -48 -46 -48z" />
    <glyph glyph-name="divide.lin" horiz-adv-x="456" 
d="M309 492c-26 0 -47 22 -47 48s21 48 47 48c25 0 46 -22 46 -48s-21 -48 -46 -48zM84 363l12 53h368l-12 -53h-368zM239 190c-26 0 -47 23 -47 48c0 26 21 49 47 49c24 0 46 -23 46 -49c0 -25 -22 -48 -46 -48z" />
    <glyph glyph-name="equal" unicode="=" horiz-adv-x="479" 
d="M106 355l12 53h326l-12 -53h-326zM66 183l12 54h326l-12 -54h-326z" />
    <glyph glyph-name="equal.lin" horiz-adv-x="456" 
d="M121 437l12 53h326l-12 -53h-326zM81 265l12 54h326l-12 -54h-326z" />
    <glyph glyph-name="multiply" unicode="&#xd7;" horiz-adv-x="479" 
d="M161 474l97 -126l148 119l35 -44l-148 -120l97 -125l-46 -38l-98 126l-146 -118l-36 44l148 119l-97 125z" />
    <glyph glyph-name="multiply.lin" horiz-adv-x="456" 
d="M167 556l97 -126l148 119l35 -44l-148 -120l97 -125l-46 -38l-98 126l-146 -118l-36 44l148 119l-97 125z" />
    <glyph glyph-name="less" unicode="&#x3c;" horiz-adv-x="477" 
d="M313 98l-244 189l5 22l322 183l27 -42l-275 -156l199 -154z" />
    <glyph glyph-name="less.lin" horiz-adv-x="454" 
d="M328 180l-244 189l5 22l322 183l27 -42l-275 -156l199 -154z" />
    <glyph glyph-name="greater" unicode="&#x3e;" horiz-adv-x="477" 
d="M106 103l-26 42l274 156l-198 153l34 42l244 -188l-5 -22z" />
    <glyph glyph-name="greater.lin" horiz-adv-x="454" 
d="M120 185l-26 42l274 156l-198 153l34 42l244 -188l-5 -22z" />
    <glyph glyph-name="plusminus" unicode="&#xb1;" horiz-adv-x="479" 
d="M342 536l-37 -158h158l-12 -53h-158l-36 -158h-55l36 158h-155l12 53h155l37 158h55zM14 24l12 53h367l-12 -53h-367z" />
    <glyph glyph-name="plusminus.lin" horiz-adv-x="456" 
d="M352 618l-37 -158h158l-12 -53h-158l-36 -158h-55l36 158h-155l12 53h155l37 158h55zM24 106l12 53h367l-12 -53h-367z" />
    <glyph glyph-name="onehalf" unicode="&#xbd;" horiz-adv-x="885" 
d="M186 -13l-29 25c43 51 192 226 296 350c104 123 249 300 291 350l29 -24c-43 -52 -192 -226 -296 -350s-249 -300 -291 -351zM72 308l10 41h112l73 311l-114 -23v42l147 33l22 -11l-81 -352h110l-10 -41h-269zM506 0c-1 0 -8 21 -8 21c34 83 94 132 185 181
c65 35 99 63 99 103c0 35 -30 58 -75 58c-48 0 -75 -18 -83 -32c8 -9 13 -18 13 -27c0 -19 -14 -32 -32 -32c-19 0 -33 15 -33 37c0 41 52 97 138 97c71 0 121 -41 121 -101c0 -61 -53 -97 -130 -138c-73 -41 -119 -77 -144 -128h178l15 64h41l-23 -103h-262z" />
    <glyph glyph-name="onethird" unicode="&#x2153;" horiz-adv-x="885" 
d="M199 -13l-29 25c43 51 192 226 296 350c104 123 249 300 291 350l29 -24c-43 -52 -192 -226 -296 -350s-249 -300 -291 -351zM86 308l10 41h112l73 311l-114 -23v42l147 33l22 -11l-81 -352h110l-10 -41h-269zM653 -5c-71 0 -129 39 -129 85c0 20 14 38 33 38
c18 0 30 -14 30 -30c0 -9 -7 -19 -16 -24c10 -14 41 -29 84 -29c61 0 99 32 99 76c0 40 -44 75 -105 75h-16l10 41h17c76 0 120 34 120 75s-36 61 -82 61c-30 0 -52 -8 -61 -20c7 -3 12 -12 12 -20c0 -18 -15 -30 -31 -30c-19 0 -33 14 -33 36c0 36 45 76 122 76
c72 0 122 -43 122 -99c0 -59 -51 -95 -112 -102c51 -13 84 -49 84 -94c0 -73 -70 -115 -148 -115z" />
    <glyph glyph-name="twothirds" unicode="&#x2154;" horiz-adv-x="885" 
d="M87 308c-1 0 -8 21 -8 21c34 83 94 132 185 181c65 35 99 63 99 103c0 35 -30 58 -75 58c-48 0 -75 -18 -83 -32c8 -9 13 -18 13 -27c0 -19 -14 -32 -32 -32c-19 0 -33 15 -33 37c0 41 52 97 138 97c71 0 121 -41 121 -101c0 -61 -53 -97 -130 -138
c-73 -41 -119 -77 -144 -128h178l15 64h41l-23 -103h-262zM199 -13l-29 25c43 51 192 226 296 350c104 123 249 300 291 350l29 -24c-43 -52 -192 -226 -296 -350s-249 -300 -291 -351zM651 -5c-71 0 -129 39 -129 85c0 20 14 38 33 38c18 0 30 -14 30 -30
c0 -9 -7 -19 -16 -24c10 -14 41 -29 84 -29c61 0 99 32 99 76c0 40 -44 75 -105 75h-16l10 41h17c76 0 120 34 120 75s-36 61 -82 61c-30 0 -52 -8 -61 -20c7 -3 12 -12 12 -20c0 -18 -15 -30 -31 -30c-19 0 -33 14 -33 36c0 36 45 76 122 76c72 0 122 -43 122 -99
c0 -59 -51 -95 -112 -102c51 -13 84 -49 84 -94c0 -73 -70 -115 -148 -115z" />
    <glyph glyph-name="onequarter" unicode="&#xbc;" horiz-adv-x="885" 
d="M204 -13l-29 25c43 51 192 226 296 350c104 123 249 300 291 350l29 -24c-43 -52 -192 -226 -296 -350s-249 -300 -291 -351zM84 308l10 41h112l73 311l-114 -23v42l147 33l22 -11l-81 -352h110l-10 -41h-269zM666 37l19 80h-183l-5 20l265 272l29 -27l-228 -229h131
l22 87l47 18l-24 -103h68l-9 -38h-68l-18 -80h54l-8 -37h-171l9 37h70z" />
    <glyph glyph-name="threequarters" unicode="&#xbe;" horiz-adv-x="885" 
d="M194 -13l-29 25c43 51 192 226 296 350c104 123 249 300 291 350l29 -24c-43 -52 -192 -226 -296 -350s-249 -300 -291 -351zM230 303c-71 0 -129 39 -129 85c0 20 14 38 33 38c18 0 30 -14 30 -30c0 -9 -7 -19 -16 -24c10 -14 41 -29 84 -29c61 0 99 32 99 76
c0 40 -44 75 -105 75h-16l10 41h17c76 0 120 34 120 75s-36 61 -82 61c-30 0 -52 -8 -61 -20c7 -3 12 -12 12 -20c0 -18 -15 -30 -31 -30c-19 0 -33 14 -33 36c0 36 45 76 122 76c72 0 122 -43 122 -99c0 -59 -51 -95 -112 -102c51 -13 84 -49 84 -94
c0 -73 -70 -115 -148 -115zM657 37l19 80h-183l-5 20l265 272l29 -27l-228 -229h131l22 87l47 18l-24 -103h68l-9 -38h-68l-18 -80h54l-8 -37h-171l9 37h70z" />
    <glyph glyph-name="onefifth" unicode="&#x2155;" horiz-adv-x="885" 
d="M194 -13l-29 25c43 51 192 226 296 350c104 123 249 300 291 350l29 -24c-43 -52 -192 -226 -296 -350s-249 -300 -291 -351zM81 308l10 41h112l73 311l-114 -23v42l147 33l22 -11l-81 -352h110l-10 -41h-269zM631 -8c-62 0 -117 36 -117 73c0 20 14 35 32 35
c17 0 30 -11 30 -28c0 -7 -2 -14 -8 -19c10 -10 32 -20 67 -20c69 0 120 50 120 104c0 45 -28 73 -80 73c-32 0 -64 -8 -88 -19l-22 17l61 190h210l-10 -43h-172l-39 -120c18 7 42 14 74 14c62 0 113 -42 113 -108c0 -78 -73 -149 -171 -149z" />
    <glyph glyph-name="twofifths" unicode="&#x2156;" horiz-adv-x="885" 
d="M107 308c-1 0 -8 21 -8 21c34 83 94 132 185 181c65 35 99 63 99 103c0 35 -30 58 -75 58c-48 0 -75 -18 -83 -32c8 -9 13 -18 13 -27c0 -19 -14 -32 -32 -32c-19 0 -33 15 -33 37c0 41 52 97 138 97c71 0 121 -41 121 -101c0 -61 -53 -97 -130 -138
c-73 -41 -119 -77 -144 -128h178l15 64h41l-23 -103h-262zM212 -13l-29 25c43 51 192 226 296 350c104 123 249 300 291 350l29 -24c-43 -52 -192 -226 -296 -350s-249 -300 -291 -351zM636 -8c-62 0 -117 36 -117 73c0 20 14 35 32 35c17 0 30 -11 30 -28
c0 -7 -2 -14 -8 -19c10 -10 32 -20 67 -20c69 0 120 50 120 104c0 45 -28 73 -80 73c-32 0 -64 -8 -88 -19l-22 17l61 190h210l-10 -43h-172l-39 -120c18 7 42 14 74 14c62 0 113 -42 113 -108c0 -78 -73 -149 -171 -149z" />
    <glyph glyph-name="threefifths" unicode="&#x2157;" horiz-adv-x="885" 
d="M188 -13l-29 25c43 51 192 226 296 350c104 123 249 300 291 350l29 -24c-43 -52 -192 -226 -296 -350s-249 -300 -291 -351zM232 303c-71 0 -129 39 -129 85c0 20 14 38 33 38c18 0 30 -14 30 -30c0 -9 -7 -19 -16 -24c10 -14 41 -29 84 -29c61 0 99 32 99 76
c0 40 -44 75 -105 75h-16l10 41h17c76 0 120 34 120 75s-36 61 -82 61c-30 0 -52 -8 -61 -20c7 -3 12 -12 12 -20c0 -18 -15 -30 -31 -30c-19 0 -33 14 -33 36c0 36 45 76 122 76c72 0 122 -43 122 -99c0 -59 -51 -95 -112 -102c51 -13 84 -49 84 -94
c0 -73 -70 -115 -148 -115zM628 -8c-62 0 -117 36 -117 73c0 20 14 35 32 35c17 0 30 -11 30 -28c0 -7 -2 -14 -8 -19c10 -10 32 -20 67 -20c69 0 120 50 120 104c0 45 -28 73 -80 73c-32 0 -64 -8 -88 -19l-22 17l61 190h210l-10 -43h-172l-39 -120c18 7 42 14 74 14
c62 0 113 -42 113 -108c0 -78 -73 -149 -171 -149z" />
    <glyph glyph-name="fourfifths" unicode="&#x2158;" horiz-adv-x="885" 
d="M263 345l19 80h-183l-5 20l265 272l29 -27l-228 -229h131l22 87l47 18l-24 -103h68l-9 -38h-68l-18 -80h54l-8 -37h-171l9 37h70zM199 -13l-29 25c43 51 192 226 296 350c104 123 249 300 291 350l29 -24c-43 -52 -192 -226 -296 -350s-249 -300 -291 -351zM638 -8
c-62 0 -117 36 -117 73c0 20 14 35 32 35c17 0 30 -11 30 -28c0 -7 -2 -14 -8 -19c10 -10 32 -20 67 -20c69 0 120 50 120 104c0 45 -28 73 -80 73c-32 0 -64 -8 -88 -19l-22 17l61 190h210l-10 -43h-172l-39 -120c18 7 42 14 74 14c62 0 113 -42 113 -108
c0 -78 -73 -149 -171 -149z" />
    <glyph glyph-name="onesixth" unicode="&#x2159;" horiz-adv-x="885" 
d="M189 -13l-29 25c43 51 192 226 296 350c104 123 249 300 291 350l29 -24c-43 -52 -192 -226 -296 -350s-249 -300 -291 -351zM75 308l10 41h112l73 311l-114 -23v42l147 33l22 -11l-81 -352h110l-10 -41h-269zM558 28c-25 25 -38 60 -38 109c0 80 34 166 88 217
c34 32 72 52 119 52c58 0 100 -33 100 -69c0 -21 -15 -36 -33 -36c-15 0 -30 12 -30 30c0 7 3 16 10 21c-7 7 -21 15 -46 15c-32 0 -64 -15 -90 -40c-34 -32 -61 -86 -71 -139c27 37 67 62 115 62c71 0 118 -48 118 -109c0 -78 -69 -149 -152 -149c-39 0 -71 17 -90 36z
M649 34c58 0 104 48 104 104c0 42 -31 73 -79 73c-58 0 -106 -50 -106 -100c0 -22 7 -40 22 -55c13 -13 33 -22 59 -22z" />
    <glyph glyph-name="fivesixths" unicode="&#x215a;" horiz-adv-x="885" 
d="M180 -13l-29 25c43 51 192 226 296 350c104 123 249 300 291 350l29 -24c-43 -52 -192 -226 -296 -350s-249 -300 -291 -351zM210 300c-62 0 -117 36 -117 73c0 20 14 35 32 35c17 0 30 -11 30 -28c0 -7 -2 -14 -8 -19c10 -10 32 -20 67 -20c69 0 120 50 120 104
c0 45 -28 73 -80 73c-32 0 -64 -8 -88 -19l-22 17l61 190h210l-10 -43h-172l-39 -120c18 7 42 14 74 14c62 0 113 -42 113 -108c0 -78 -73 -149 -171 -149zM553 28c-25 25 -38 60 -38 109c0 80 34 166 88 217c34 32 72 52 119 52c58 0 100 -33 100 -69
c0 -21 -15 -36 -33 -36c-15 0 -30 12 -30 30c0 7 3 16 10 21c-7 7 -21 15 -46 15c-32 0 -64 -15 -90 -40c-34 -32 -61 -86 -71 -139c27 37 67 62 115 62c71 0 118 -48 118 -109c0 -78 -69 -149 -152 -149c-39 0 -71 17 -90 36zM644 34c58 0 104 48 104 104
c0 42 -31 73 -79 73c-58 0 -106 -50 -106 -100c0 -22 7 -40 22 -55c13 -13 33 -22 59 -22z" />
    <glyph glyph-name="oneeighth" unicode="&#x215b;" horiz-adv-x="885" 
d="M182 -13l-29 25c43 51 192 226 296 350c104 123 249 300 291 350l29 -24c-43 -52 -192 -226 -296 -350s-249 -300 -291 -351zM79 308l10 41h112l73 311l-114 -23v42l147 33l22 -11l-81 -352h110l-10 -41h-269zM651 -6c-82 0 -138 50 -138 107c0 62 50 104 107 112
c-37 17 -56 48 -56 82c0 54 53 109 138 109c72 0 127 -42 127 -103c0 -52 -41 -88 -94 -100c33 -15 61 -46 61 -88c0 -66 -59 -119 -145 -119zM692 225c50 0 89 32 89 74c0 36 -32 65 -81 65s-89 -31 -89 -72c0 -39 36 -67 81 -67zM650 35c54 0 98 34 98 79
c0 42 -35 73 -88 73c-59 0 -100 -35 -100 -81c0 -39 35 -71 90 -71z" />
    <glyph glyph-name="threeeighths" unicode="&#x215c;" horiz-adv-x="885" 
d="M186 -13l-29 25c43 51 192 226 296 350c104 123 249 300 291 350l29 -24c-43 -52 -192 -226 -296 -350s-249 -300 -291 -351zM232 303c-71 0 -129 39 -129 85c0 20 14 38 33 38c18 0 30 -14 30 -30c0 -9 -7 -19 -16 -24c10 -14 41 -29 84 -29c61 0 99 32 99 76
c0 40 -44 75 -105 75h-16l10 41h17c76 0 120 34 120 75s-36 61 -82 61c-30 0 -52 -8 -61 -20c7 -3 12 -12 12 -20c0 -18 -15 -30 -31 -30c-19 0 -33 14 -33 36c0 36 45 76 122 76c72 0 122 -43 122 -99c0 -59 -51 -95 -112 -102c51 -13 84 -49 84 -94
c0 -73 -70 -115 -148 -115zM660 -6c-82 0 -138 50 -138 107c0 62 50 104 107 112c-37 17 -56 48 -56 82c0 54 53 109 138 109c72 0 127 -42 127 -103c0 -52 -41 -88 -94 -100c33 -15 61 -46 61 -88c0 -66 -59 -119 -145 -119zM701 225c50 0 89 32 89 74c0 36 -32 65 -81 65
s-89 -31 -89 -72c0 -39 36 -67 81 -67zM659 35c54 0 98 34 98 79c0 42 -35 73 -88 73c-59 0 -100 -35 -100 -81c0 -39 35 -71 90 -71z" />
    <glyph glyph-name="fiveeighths" unicode="&#x215d;" horiz-adv-x="885" 
d="M174 -13l-29 25c43 51 192 226 296 350c104 123 249 300 291 350l29 -24c-43 -52 -192 -226 -296 -350s-249 -300 -291 -351zM213 300c-62 0 -117 36 -117 73c0 20 14 35 32 35c17 0 30 -11 30 -28c0 -7 -2 -14 -8 -19c10 -10 32 -20 67 -20c69 0 120 50 120 104
c0 45 -28 73 -80 73c-32 0 -64 -8 -88 -19l-22 17l61 190h210l-10 -43h-172l-39 -120c18 7 42 14 74 14c62 0 113 -42 113 -108c0 -78 -73 -149 -171 -149zM644 -6c-82 0 -138 50 -138 107c0 62 50 104 107 112c-37 17 -56 48 -56 82c0 54 53 109 138 109
c72 0 127 -42 127 -103c0 -52 -41 -88 -94 -100c33 -15 61 -46 61 -88c0 -66 -59 -119 -145 -119zM685 225c50 0 89 32 89 74c0 36 -32 65 -81 65s-89 -31 -89 -72c0 -39 36 -67 81 -67zM643 35c54 0 98 34 98 79c0 42 -35 73 -88 73c-59 0 -100 -35 -100 -81
c0 -39 35 -71 90 -71z" />
    <glyph glyph-name="seveneighths" unicode="&#x215e;" horiz-adv-x="885" 
d="M146 -13l-29 25c43 51 192 226 296 350c104 123 249 300 291 350l29 -24c-43 -52 -192 -226 -296 -350s-249 -300 -291 -351zM161 308l243 359h-181l-15 -68h-44l26 107h265l11 -21l-252 -377h-53zM643 -6c-82 0 -138 50 -138 107c0 62 50 104 107 112
c-37 17 -56 48 -56 82c0 54 53 109 138 109c72 0 127 -42 127 -103c0 -52 -41 -88 -94 -100c33 -15 61 -46 61 -88c0 -66 -59 -119 -145 -119zM684 225c50 0 89 32 89 74c0 36 -32 65 -81 65s-89 -31 -89 -72c0 -39 36 -67 81 -67zM642 35c54 0 98 34 98 79
c0 42 -35 73 -88 73c-59 0 -100 -35 -100 -81c0 -39 35 -71 90 -71z" />
    <glyph glyph-name="zero.sup" unicode="&#x2070;" horiz-adv-x="427" 
d="M278 476c-78 0 -122 60 -122 150c0 135 74 261 180 261c78 0 122 -61 122 -151c0 -135 -74 -260 -180 -260zM281 517c76 0 129 114 129 216c0 67 -23 113 -77 113c-76 0 -129 -114 -129 -217c0 -67 24 -112 77 -112z" />
    <glyph glyph-name="one.sup" unicode="&#xb9;" horiz-adv-x="427" 
d="M139 482l10 41h112l73 311l-114 -23v42l147 33l22 -11l-81 -352h110l-10 -41h-269z" />
    <glyph glyph-name="two.sup" unicode="&#xb2;" horiz-adv-x="427" 
d="M137 482c-1 0 -8 21 -8 21c34 83 94 132 185 181c65 35 99 63 99 103c0 35 -30 58 -75 58c-48 0 -75 -18 -83 -32c8 -9 13 -18 13 -27c0 -19 -14 -32 -32 -32c-19 0 -33 15 -33 37c0 41 52 97 138 97c71 0 121 -41 121 -101c0 -61 -53 -97 -130 -138
c-73 -41 -119 -77 -144 -128h178l15 64h41l-23 -103h-262z" />
    <glyph glyph-name="three.sup" unicode="&#xb3;" horiz-adv-x="427" 
d="M278 477c-71 0 -129 39 -129 85c0 20 14 38 33 38c18 0 30 -14 30 -30c0 -9 -7 -19 -16 -24c10 -14 41 -29 84 -29c61 0 99 32 99 76c0 40 -44 75 -105 75h-16l10 41h17c76 0 120 34 120 75s-36 61 -82 61c-30 0 -52 -8 -61 -20c7 -3 12 -12 12 -20
c0 -18 -15 -30 -31 -30c-19 0 -33 14 -33 36c0 36 45 76 122 76c72 0 122 -43 122 -99c0 -59 -51 -95 -112 -102c51 -13 84 -49 84 -94c0 -73 -70 -115 -148 -115z" />
    <glyph glyph-name="four.sup" unicode="&#x2074;" horiz-adv-x="427" 
d="M307 519l19 80h-183l-5 20l265 272l29 -27l-228 -229h131l22 87l47 18l-24 -103h68l-9 -38h-68l-18 -80h54l-8 -37h-171l9 37h70z" />
    <glyph glyph-name="five.sup" unicode="&#x2075;" horiz-adv-x="427" 
d="M260 474c-62 0 -117 36 -117 73c0 20 14 35 32 35c17 0 30 -11 30 -28c0 -7 -2 -14 -8 -19c10 -10 32 -20 67 -20c69 0 120 50 120 104c0 45 -28 73 -80 73c-32 0 -64 -8 -88 -19l-22 17l61 190h210l-10 -43h-172l-39 -120c18 7 42 14 74 14c62 0 113 -42 113 -108
c0 -78 -73 -149 -171 -149z" />
    <glyph glyph-name="six.sup" unicode="&#x2076;" horiz-adv-x="427" 
d="M201 510c-25 25 -38 60 -38 109c0 80 34 166 88 217c34 32 72 52 119 52c58 0 100 -33 100 -69c0 -21 -15 -36 -33 -36c-15 0 -30 12 -30 30c0 7 3 16 10 21c-7 7 -21 15 -46 15c-32 0 -64 -15 -90 -40c-34 -32 -61 -86 -71 -139c27 37 67 62 115 62
c71 0 118 -48 118 -109c0 -78 -69 -149 -152 -149c-39 0 -71 17 -90 36zM292 516c58 0 104 48 104 104c0 42 -31 73 -79 73c-58 0 -106 -50 -106 -100c0 -22 7 -40 22 -55c13 -13 33 -22 59 -22z" />
    <glyph glyph-name="seven.sup" unicode="&#x2077;" horiz-adv-x="427" 
d="M195 482l243 359h-181l-15 -68h-44l26 107h265l11 -21l-252 -377h-53z" />
    <glyph glyph-name="eight.sup" unicode="&#x2078;" horiz-adv-x="427" 
d="M291 476c-82 0 -138 50 -138 107c0 62 50 104 107 112c-37 17 -56 48 -56 82c0 54 53 109 138 109c72 0 127 -42 127 -103c0 -52 -41 -88 -94 -100c33 -15 61 -46 61 -88c0 -66 -59 -119 -145 -119zM332 707c50 0 89 32 89 74c0 36 -32 65 -81 65s-89 -31 -89 -72
c0 -39 36 -67 81 -67zM290 517c54 0 98 34 98 79c0 42 -35 73 -88 73c-59 0 -100 -35 -100 -81c0 -39 35 -71 90 -71z" />
    <glyph glyph-name="nine.sup" unicode="&#x2079;" horiz-adv-x="427" 
d="M334 846c-57 0 -103 -48 -103 -103c0 -43 30 -74 79 -74c58 0 106 50 106 101c0 21 -8 40 -23 54c-13 14 -33 22 -59 22zM183 740c0 78 69 148 153 148c39 0 71 -16 89 -35c26 -25 39 -60 39 -109c0 -81 -34 -167 -89 -218c-34 -32 -72 -52 -119 -52c-57 0 -99 34 -99 69
c0 21 15 36 33 36c15 0 30 -12 30 -30c0 -6 -4 -15 -10 -21c6 -7 21 -14 45 -14c32 0 64 14 91 40c33 31 59 84 69 137c-26 -37 -66 -61 -114 -61c-71 0 -118 48 -118 110z" />
    <glyph glyph-name="zero.inf" unicode="&#x2080;" horiz-adv-x="427" 
d="M125 -185c-78 0 -122 60 -122 150c0 135 74 261 180 261c78 0 122 -61 122 -151c0 -135 -74 -260 -180 -260zM128 -144c76 0 129 114 129 216c0 67 -23 113 -77 113c-76 0 -129 -114 -129 -217c0 -67 24 -112 77 -112z" />
    <glyph glyph-name="one.inf" unicode="&#x2081;" horiz-adv-x="427" 
d="M-14 -179l10 41h112l73 311l-114 -23v42l147 33l22 -11l-81 -352h110l-10 -41h-269z" />
    <glyph glyph-name="two.inf" unicode="&#x2082;" horiz-adv-x="427" 
d="M-16 -179c-1 0 -8 21 -8 21c34 83 94 132 185 181c65 35 99 63 99 103c0 35 -30 58 -75 58c-48 0 -75 -18 -83 -32c8 -9 13 -18 13 -27c0 -19 -14 -32 -32 -32c-19 0 -33 15 -33 37c0 41 52 97 138 97c71 0 121 -41 121 -101c0 -61 -53 -97 -130 -138
c-73 -41 -119 -77 -144 -128h178l15 64h41l-23 -103h-262z" />
    <glyph glyph-name="three.inf" unicode="&#x2083;" horiz-adv-x="427" 
d="M125 -184c-71 0 -129 39 -129 85c0 20 14 38 33 38c18 0 30 -14 30 -30c0 -9 -7 -19 -16 -24c10 -14 41 -29 84 -29c61 0 99 32 99 76c0 40 -44 75 -105 75h-16l10 41h17c76 0 120 34 120 75s-36 61 -82 61c-30 0 -52 -8 -61 -20c7 -3 12 -12 12 -20
c0 -18 -15 -30 -31 -30c-19 0 -33 14 -33 36c0 36 45 76 122 76c72 0 122 -43 122 -99c0 -59 -51 -95 -112 -102c51 -13 84 -49 84 -94c0 -73 -70 -115 -148 -115z" />
    <glyph glyph-name="four.inf" unicode="&#x2084;" horiz-adv-x="427" 
d="M154 -142l19 80h-183l-5 20l265 272l29 -27l-228 -229h131l22 87l47 18l-24 -103h68l-9 -38h-68l-18 -80h54l-8 -37h-171l9 37h70z" />
    <glyph glyph-name="five.inf" unicode="&#x2085;" horiz-adv-x="427" 
d="M107 -187c-62 0 -117 36 -117 73c0 20 14 35 32 35c17 0 30 -11 30 -28c0 -7 -2 -14 -8 -19c10 -10 32 -20 67 -20c69 0 120 50 120 104c0 45 -28 73 -80 73c-32 0 -64 -8 -88 -19l-22 17l61 190h210l-10 -43h-172l-39 -120c18 7 42 14 74 14c62 0 113 -42 113 -108
c0 -78 -73 -149 -171 -149z" />
    <glyph glyph-name="six.inf" unicode="&#x2086;" horiz-adv-x="427" 
d="M48 -151c-25 25 -38 60 -38 109c0 80 34 166 88 217c34 32 72 52 119 52c58 0 100 -33 100 -69c0 -21 -15 -36 -33 -36c-15 0 -30 12 -30 30c0 7 3 16 10 21c-7 7 -21 15 -46 15c-32 0 -64 -15 -90 -40c-34 -32 -61 -86 -71 -139c27 37 67 62 115 62
c71 0 118 -48 118 -109c0 -78 -69 -149 -152 -149c-39 0 -71 17 -90 36zM139 -145c58 0 104 48 104 104c0 42 -31 73 -79 73c-58 0 -106 -50 -106 -100c0 -22 7 -40 22 -55c13 -13 33 -22 59 -22z" />
    <glyph glyph-name="seven.inf" unicode="&#x2087;" horiz-adv-x="427" 
d="M42 -179l243 359h-181l-15 -68h-44l26 107h265l11 -21l-252 -377h-53z" />
    <glyph glyph-name="eight.inf" unicode="&#x2088;" horiz-adv-x="427" 
d="M138 -185c-82 0 -138 50 -138 107c0 62 50 104 107 112c-37 17 -56 48 -56 82c0 54 53 109 138 109c72 0 127 -42 127 -103c0 -52 -41 -88 -94 -100c33 -15 61 -46 61 -88c0 -66 -59 -119 -145 -119zM179 46c50 0 89 32 89 74c0 36 -32 65 -81 65s-89 -31 -89 -72
c0 -39 36 -67 81 -67zM137 -144c54 0 98 34 98 79c0 42 -35 73 -88 73c-59 0 -100 -35 -100 -81c0 -39 35 -71 90 -71z" />
    <glyph glyph-name="nine.inf" unicode="&#x2089;" horiz-adv-x="427" 
d="M181 185c-57 0 -103 -48 -103 -103c0 -43 30 -74 79 -74c58 0 106 50 106 101c0 21 -8 40 -23 54c-13 14 -33 22 -59 22zM30 79c0 78 69 148 153 148c39 0 71 -16 89 -35c26 -25 39 -60 39 -109c0 -81 -34 -167 -89 -218c-34 -32 -72 -52 -119 -52c-57 0 -99 34 -99 69
c0 21 15 36 33 36c15 0 30 -12 30 -30c0 -6 -4 -15 -10 -21c6 -7 21 -14 45 -14c32 0 64 14 91 40c33 31 59 84 69 137c-26 -37 -66 -61 -114 -61c-71 0 -118 48 -118 110z" />
    <glyph glyph-name="zero.tab" 
d="M580 480c0 -261 -145 -494 -318 -494c-120 0 -191 103 -191 257c0 261 145 494 317 494c121 0 192 -103 192 -257zM134 249c0 -118 44 -207 136 -207c138 0 246 228 246 432c0 118 -43 207 -135 207c-138 0 -247 -228 -247 -432z" />
    <glyph glyph-name="one.tab" 
d="M31 0l12 53h186l144 610l-186 -46v55l234 60l26 -13l-157 -666h183l-13 -53h-429z" />
    <glyph glyph-name="two.tab" 
d="M99 53h327l25 112h59l-38 -165h-441l-9 26c55 140 126 225 311 329c131 74 184 129 184 205c0 71 -56 122 -138 122c-91 0 -145 -44 -162 -75c17 -15 26 -28 26 -46c0 -26 -21 -48 -49 -48c-26 0 -50 23 -50 55c0 71 92 169 238 169c122 0 199 -77 199 -173
c0 -110 -80 -172 -223 -256c-151 -88 -218 -160 -259 -255z" />
    <glyph glyph-name="three.tab" 
d="M361 373c89 -25 158 -84 158 -174c0 -123 -118 -208 -260 -208c-122 0 -226 72 -226 144c0 30 20 61 53 61c30 0 45 -21 45 -42c0 -16 -14 -36 -35 -42c19 -29 81 -67 167 -67c118 0 193 66 193 153c0 93 -84 152 -209 152h-23l12 53h28c160 0 238 71 238 154
c0 79 -71 124 -156 124c-68 0 -118 -28 -137 -53c18 -7 30 -23 30 -40c0 -26 -25 -41 -46 -41c-26 0 -48 21 -48 51c0 73 92 138 212 138c116 0 209 -75 209 -174c0 -111 -101 -170 -205 -189z" />
    <glyph glyph-name="four.tab" 
d="M485 467l-46 -199h126l-12 -51h-126l-37 -164h106l-11 -53h-299l11 53h133l37 164h-325l-4 23l475 499l40 -36l-418 -435h244l40 172z" />
    <glyph glyph-name="five.tab" 
d="M236 -13c-101 0 -198 61 -198 126c0 27 20 53 49 53c23 0 42 -16 42 -41c0 -12 -5 -27 -19 -35c20 -26 64 -50 133 -50c141 0 228 102 228 210c0 93 -63 144 -157 144c-61 0 -109 -11 -158 -31l-24 21l113 340h355l-13 -57h-306l-81 -242c28 12 68 23 119 23
c129 0 215 -78 215 -194c0 -132 -113 -267 -298 -267z" />
    <glyph glyph-name="six.tab" 
d="M547 568c-20 0 -45 14 -45 44c0 12 5 28 22 40c-9 14 -36 33 -88 33c-57 0 -110 -25 -157 -72c-63 -61 -117 -173 -135 -282c35 54 106 120 208 120c126 0 203 -87 203 -196c0 -132 -116 -268 -258 -268c-69 0 -119 28 -150 61c-47 48 -65 109 -65 201
c0 136 56 299 162 402c51 50 115 86 195 86c89 0 160 -55 160 -113c0 -36 -26 -56 -52 -56zM300 41c99 0 190 97 190 212c0 86 -55 145 -142 145c-110 0 -201 -100 -201 -203c0 -42 16 -82 43 -111c26 -26 63 -43 110 -43z" />
    <glyph glyph-name="seven.tab" 
d="M104 0l454 671h-351l-26 -110h-58l38 163h475l10 -20l-471 -704h-71z" />
    <glyph glyph-name="eight.tab" 
d="M535 200c0 -119 -103 -211 -240 -211c-138 0 -233 84 -233 197c0 115 92 185 188 201c-58 27 -103 91 -103 158c0 96 88 190 226 190c119 0 216 -77 216 -182c0 -104 -76 -161 -169 -185c59 -23 115 -86 115 -168zM529 550c0 71 -56 131 -156 131
c-95 0 -166 -60 -166 -141c0 -77 67 -137 154 -137c94 0 168 64 168 147zM476 199c0 87 -68 151 -170 151c-110 0 -183 -70 -183 -161c0 -80 64 -146 172 -146c97 0 181 67 181 156z" />
    <glyph glyph-name="nine.tab" 
d="M362 683c-100 0 -190 -97 -190 -212c0 -87 55 -145 146 -145c106 0 197 100 197 203c0 42 -16 82 -44 111c-26 26 -62 43 -109 43zM114 156c21 0 45 -14 45 -45c0 -11 -5 -27 -22 -39c10 -14 37 -33 88 -33c58 0 111 25 157 72c63 61 117 172 134 281
c-35 -54 -105 -119 -207 -119c-125 0 -203 87 -203 196c0 132 116 268 258 268c69 0 120 -28 151 -61c47 -48 64 -109 64 -201c0 -136 -56 -299 -162 -402c-50 -50 -114 -86 -194 -86c-90 0 -160 55 -160 113c0 36 25 56 51 56z" />
    <glyph glyph-name="period.tab" horiz-adv-x="295" 
d="M122 -11c-35 0 -59 27 -59 61s24 60 59 60c34 0 58 -26 58 -60s-24 -61 -58 -61z" />
    <glyph glyph-name="comma.tab" horiz-adv-x="295" 
d="M-2 -150l-12 24c81 35 121 96 124 125c-28 5 -46 30 -46 54c0 31 23 55 56 55c35 0 61 -26 61 -66c0 -66 -56 -148 -183 -192z" />
    <glyph glyph-name="colon.tab" horiz-adv-x="295" 
d="M188 279c-34 0 -58 27 -58 61s24 61 58 61s59 -27 59 -61s-25 -61 -59 -61zM122 -11c-34 0 -59 27 -59 61s25 60 59 60s58 -26 58 -60s-24 -61 -58 -61z" />
    <glyph glyph-name="semicolon.tab" horiz-adv-x="295" 
d="M188 279c-34 0 -58 27 -58 61s24 61 58 61s59 -27 59 -61s-25 -61 -59 -61zM-2 -150l-11 24c80 35 120 96 123 125c-27 5 -46 30 -46 54c0 31 24 55 57 55c34 0 60 -26 60 -66c0 -66 -55 -148 -183 -192z" />
    <glyph glyph-name="twodotleader.tab" 
d="M415 -11c-34 0 -58 27 -58 61s24 60 58 60s59 -26 59 -60s-25 -61 -59 -61zM124 -11c-35 0 -59 27 -59 61s24 60 59 60c34 0 58 -26 58 -60s-24 -61 -58 -61z" />
    <glyph glyph-name="periodcentered.tab" horiz-adv-x="295" 
d="M162 239c-34 0 -58 26 -58 60c0 35 24 61 58 61s59 -26 59 -61c0 -34 -25 -60 -59 -60z" />
    <glyph glyph-name="slash.tab" 
d="M-38 -230l-45 31l712 1015l45 -32z" />
    <glyph glyph-name="bar.tab" horiz-adv-x="295" 
d="M123 -220v1025h51v-1025h-51z" />
    <glyph glyph-name="underscore.tab" 
d="M-39 -153l14 55h604l-12 -55h-606z" />
    <glyph glyph-name="dollar.tab" 
d="M222 546c0 -66 48 -105 105 -138l81 261c-10 1 -19 2 -28 2c-86 -1 -158 -49 -158 -125zM464 186c0 71 -54 108 -116 143l-84 -275c9 -1 18 -1 28 -1c101 0 172 49 172 133zM41 157c0 38 24 64 56 64c28 0 47 -24 47 -43c0 -24 -13 -42 -33 -54c15 -24 53 -50 107 -63
l90 289c-75 41 -146 91 -146 192c0 100 93 182 226 182c12 0 24 -1 35 -3l30 103l49 -14l-29 -100c73 -23 129 -72 129 -124c0 -41 -27 -62 -53 -62c-28 0 -47 20 -47 46c0 15 10 33 31 46c-21 21 -50 36 -82 45l-84 -274c78 -42 158 -90 158 -197
c0 -117 -97 -190 -237 -190c-14 0 -28 1 -41 2l-33 -115l-49 14l33 112c-94 27 -157 91 -157 144z" />
    <glyph glyph-name="sterling.tab" 
d="M256 476c0 -45 11 -95 16 -144h178l-11 -48h-165c-2 -80 -30 -146 -101 -194c43 -6 62 -13 83 -21c40 -14 63 -26 123 -26c19 0 64 8 111 41l30 -41c-45 -40 -106 -56 -153 -56c-51 0 -91 16 -133 32c-31 11 -58 21 -106 22c-23 -34 -64 -55 -88 -55c-28 0 -44 13 -44 37
c0 31 32 59 116 64c77 59 104 117 105 197h-117l11 48h103c-5 45 -15 93 -15 143c0 153 89 262 231 262c80 0 157 -56 157 -118c0 -38 -21 -60 -51 -60c-28 0 -49 20 -49 47c0 17 10 35 21 41c-7 15 -40 35 -81 35c-110 0 -171 -95 -171 -206z" />
    <glyph glyph-name="Euro.tab" 
d="M379 414h-171c-10 -37 -15 -75 -18 -114h162l-12 -51h-152c2 -128 50 -208 139 -208c59 0 111 40 150 101l43 -35c-52 -74 -123 -121 -202 -121c-117 0 -194 96 -193 263h-84l13 51h73c2 39 8 77 16 114h-66l12 50h68c51 156 157 272 278 272c103 0 157 -77 157 -157
c0 -47 -28 -70 -56 -70c-31 0 -48 20 -48 46c0 20 16 43 40 51c-8 31 -30 75 -98 75c-90 0 -165 -95 -206 -217h167z" />
    <glyph glyph-name="yen.tab" 
d="M102 293l12 51h140l-86 327h-70l13 53h229l-13 -53h-97l80 -322l226 322h-95l12 53h229l-13 -53h-63l-238 -327h133l-11 -51h-165l-18 -80h165l-12 -50h-164l-24 -110h107l-13 -53h-275l12 53h107l25 110h-163l12 50h162l18 80h-162z" />
    <glyph glyph-name="cent.tab" 
d="M150 330c0 -66 37 -113 91 -135l109 365c-111 -14 -200 -119 -200 -230zM485 249l-3 -58c-48 -36 -113 -57 -181 -57c-11 0 -22 0 -32 2l-45 -154l-43 12l45 151c-78 26 -132 92 -132 184c0 143 122 277 271 283l38 127l42 -12l-35 -117c88 -12 139 -69 139 -114
c0 -32 -22 -56 -50 -56c-16 0 -37 10 -37 39c0 11 9 31 26 37c-16 21 -46 42 -94 45l-111 -377c8 -1 18 -1 27 -1c62 0 127 24 175 66z" />
    <glyph glyph-name="numbersign.tab" 
d="M287 463l-58 -211h131l60 211h-133zM547 723l-59 -211h126l-13 -49h-127l-59 -211h132l-13 -49h-133l-56 -203h-55l57 203h-133l-55 -203h-55l56 203h-126l13 49h127l58 211h-131l14 49h131l59 211h55l-59 -211h132l59 211h55z" />
    <glyph glyph-name="paragraph.tab" 
d="M261 53l51 217h-10c-131 0 -221 77 -221 200c0 147 127 254 304 254h275l-12 -53h-81l-143 -618h81l-11 -53h-336l11 53h92zM314 50h55l145 624h-55z" />
    <glyph glyph-name="section.tab" 
d="M370 457c-16 5 -31 10 -44 15c-102 -14 -177 -56 -177 -106c0 -49 67 -75 138 -98l44 -16c103 14 178 56 178 106c0 49 -71 76 -139 99zM87 367c0 68 83 112 181 130c-52 27 -77 59 -77 106c0 79 91 134 205 134c82 0 138 -26 169 -57c20 -19 30 -41 30 -61
c0 -27 -18 -52 -47 -52s-46 22 -46 43c0 17 7 29 20 41c-7 6 -15 12 -26 17c-22 9 -58 18 -102 18c-87 0 -143 -38 -143 -78c0 -56 64 -81 146 -109c94 -32 173 -62 173 -142c0 -66 -76 -110 -180 -131c50 -27 77 -58 77 -106c0 -78 -91 -133 -206 -133
c-83 0 -140 26 -171 58c-18 18 -27 41 -27 59c0 28 17 53 47 53c29 0 46 -22 46 -44c0 -16 -6 -27 -19 -40c2 -4 9 -9 21 -14c22 -11 60 -21 106 -21c87 0 142 38 142 78c0 56 -64 81 -147 109c-94 32 -172 62 -172 142z" />
    <glyph glyph-name="degree.tab" 
d="M336 426c-104 0 -166 75 -166 165c0 115 92 230 223 230c105 0 166 -75 166 -165c0 -115 -92 -230 -223 -230zM338 467c99 0 174 92 174 187c0 74 -51 126 -121 126c-99 0 -173 -92 -173 -187c0 -74 51 -126 120 -126z" />
    <glyph glyph-name="percent.tab" 
d="M65 -10l-36 32l280 358l281 358l36 -32l-281 -358zM210 420c-61 0 -103 48 -103 116c0 106 66 201 151 201c60 0 102 -47 102 -116c0 -106 -65 -201 -150 -201zM216 467c53 0 94 78 94 147c0 43 -18 76 -60 76c-53 0 -93 -77 -93 -146c0 -44 18 -77 59 -77zM398 -9
c-61 0 -103 47 -103 116c0 106 66 201 151 201c60 0 102 -48 102 -116c0 -106 -65 -201 -150 -201zM404 38c53 0 94 77 94 147c0 43 -18 76 -60 76c-52 0 -93 -78 -93 -146c0 -44 18 -77 59 -77z" />
    <glyph glyph-name="quotedbl.tab" 
d="M425 527l33 234c5 42 31 58 51 58c27 0 40 -17 40 -41c0 -10 -2 -20 -7 -33l-96 -218h-21zM221 527l34 234c5 42 31 58 51 58c26 0 40 -17 40 -41c0 -10 -2 -20 -7 -33l-97 -218h-21z" />
    <glyph glyph-name="quotesingle.tab" horiz-adv-x="295" 
d="M176 527l33 234c5 42 31 58 51 58c26 0 40 -17 40 -41c0 -10 -2 -20 -7 -33l-96 -218h-21z" />
    <glyph glyph-name="plus.tab" 
d="M400 565l-39 -166h171l-12 -51h-171l-43 -188h-53l43 188h-170l12 51h170l39 166h53z" />
    <glyph glyph-name="minus.tab" 
d="M126 348l12 51h394l-12 -51h-394z" />
    <glyph glyph-name="divide.tab" 
d="M368 493c-25 0 -45 21 -45 46c0 24 20 46 45 46c23 0 44 -22 44 -46c0 -25 -21 -46 -44 -46zM126 348l12 51h394l-12 -51h-394zM290 163c-24 0 -45 21 -45 45c0 25 21 46 45 46s44 -21 44 -46c0 -24 -20 -45 -44 -45z" />
    <glyph glyph-name="equal.tab" 
d="M165 430l12 51h352l-12 -51h-352zM123 245l11 51h352l-12 -51h-351z" />
    <glyph glyph-name="multiply.tab" 
d="M209 556l111 -143l164 132l34 -42l-164 -133l112 -143l-45 -36l-112 143l-163 -132l-34 43l163 132l-111 143z" />
    <glyph glyph-name="less.tab" 
d="M389 151l-269 204l3 15l359 203l26 -41l-302 -172l216 -169z" />
    <glyph glyph-name="greater.tab" 
d="M264 578l269 -204l-3 -15l-360 -202l-25 40l301 173l-215 168z" />
    <glyph glyph-name="plusminus.tab" 
d="M412 624l-40 -172h171l-11 -51h-172l-40 -172h-52l39 172h-169l12 51h169l40 172h53zM64 87l11 51h393l-11 -51h-393z" />
    <glyph glyph-name="zero.idx_P2D" horiz-adv-x="1226" 
d="M613 871c299 0 540 -242 540 -541s-241 -541 -540 -541s-540 242 -540 541s241 541 540 541zM613 835c-279 0 -499 -226 -499 -505s220 -505 499 -505s499 226 499 505s-220 505 -499 505zM612 71c-112 0 -201 107 -201 266c0 160 90 267 203 267
c112 0 202 -108 202 -266c0 -161 -90 -267 -204 -267zM613 122c89 0 145 88 145 215s-57 215 -145 215s-145 -87 -145 -214c0 -128 58 -216 145 -216z" />
    <glyph glyph-name="one.idx_P2D" horiz-adv-x="1226" 
d="M613 871c299 0 540 -242 540 -541s-241 -541 -540 -541s-540 242 -540 541s241 541 540 541zM613 835c-279 0 -499 -226 -499 -505s220 -505 499 -505s499 226 499 505s-220 505 -499 505zM762 80h-294v50h121v406l-115 -25l-11 49l155 36h26v-466h118v-50z" />
    <glyph glyph-name="two.idx_P2D" horiz-adv-x="1226" 
d="M613 871c299 0 540 -242 540 -541s-241 -541 -540 -541s-540 242 -540 541s241 541 540 541zM613 835c-279 0 -499 -226 -499 -505s220 -505 499 -505s499 226 499 505s-220 505 -499 505zM452 483c0 16 5 33 16 50c25 39 78 71 150 71c86 0 161 -58 161 -141
c0 -84 -53 -124 -129 -176c-65 -45 -122 -98 -144 -159h232v82h50v-130h-334c-1 0 -15 25 -15 25c32 107 108 171 179 221c62 43 104 77 104 137c0 53 -49 91 -107 91c-57 0 -94 -24 -103 -47c16 -8 25 -23 25 -37c0 -23 -19 -40 -40 -40c-28 0 -45 20 -45 53z" />
    <glyph glyph-name="three.idx_P2D" horiz-adv-x="1226" 
d="M613 871c299 0 540 -242 540 -541s-241 -541 -540 -541s-540 242 -540 541s241 541 540 541zM613 835c-279 0 -499 -226 -499 -505s220 -505 499 -505s499 226 499 505s-220 505 -499 505zM441 182c0 26 18 48 42 48c21 0 38 -18 38 -38c0 -14 -7 -26 -19 -32
c20 -26 71 -38 107 -38c74 0 122 45 122 97c0 39 -21 68 -59 86c-26 12 -58 17 -96 17h-20v50h23c39 0 74 10 99 29c24 17 39 41 39 70c0 53 -43 81 -107 81c-44 0 -77 -13 -94 -32c12 -5 21 -17 21 -31c0 -22 -19 -39 -40 -39c-20 0 -42 18 -42 48c0 15 6 31 18 47
c24 30 72 57 140 57c89 0 160 -51 160 -130c0 -42 -24 -78 -59 -100c-17 -11 -34 -19 -55 -23c20 -4 38 -10 55 -19c41 -22 71 -60 71 -111c0 -86 -74 -146 -176 -146c-60 0 -115 22 -145 54c-14 17 -23 35 -23 55z" />
    <glyph glyph-name="four.idx_P2D" horiz-adv-x="1226" 
d="M613 871c299 0 540 -242 540 -541s-241 -541 -540 -541s-540 242 -540 541s241 541 540 541zM613 835c-279 0 -499 -226 -499 -505s220 -505 499 -505s499 226 499 505s-220 505 -499 505zM550 80v48h94v105h-237l-12 23l268 351l43 -31l-231 -298h169v112l55 24v-136h88
v-46h-88v-104h72v-48h-221z" />
    <glyph glyph-name="five.idx_P2D" horiz-adv-x="1226" 
d="M613 871c299 0 540 -242 540 -541s-241 -541 -540 -541s-540 242 -540 541s241 541 540 541zM613 835c-279 0 -499 -226 -499 -505s220 -505 499 -505s499 226 499 505s-220 505 -499 505zM609 71c-90 0 -169 45 -169 93c0 22 15 43 42 43c21 0 38 -19 38 -39
c0 -10 -4 -20 -10 -24c11 -12 56 -24 99 -24c74 0 118 52 118 124c0 61 -37 110 -116 110c-40 0 -98 -13 -125 -25l-24 13l25 252h265v-53h-219l-16 -150c19 7 61 14 100 14c94 0 167 -59 167 -160c0 -110 -77 -174 -175 -174z" />
    <glyph glyph-name="six.idx_P2D" horiz-adv-x="1226" 
d="M613 871c299 0 540 -242 540 -541s-241 -541 -540 -541s-540 242 -540 541s241 541 540 541zM613 835c-279 0 -499 -226 -499 -505s220 -505 499 -505s499 226 499 505s-220 505 -499 505zM730 473c-25 0 -40 18 -40 38c0 10 4 18 8 24c-7 8 -30 19 -60 19
c-84 0 -150 -91 -153 -234c24 42 77 77 137 77c103 0 174 -70 174 -162s-75 -164 -176 -164c-54 0 -98 19 -130 51c-39 40 -59 100 -59 181c0 212 106 301 209 301c35 0 67 -10 89 -24c25 -17 40 -40 40 -65c0 -27 -18 -42 -39 -42zM494 235c0 -30 14 -59 37 -80
c24 -21 55 -35 90 -35c67 0 119 48 119 114s-51 113 -121 113c-71 0 -125 -49 -125 -112z" />
    <glyph glyph-name="seven.idx_P2D" horiz-adv-x="1226" 
d="M613 871c299 0 540 -242 540 -541s-241 -541 -540 -541s-540 242 -540 541s241 541 540 541zM613 835c-279 0 -499 -226 -499 -505s220 -505 499 -505s499 226 499 505s-220 505 -499 505zM581 80h-58l215 466h-229v-85h-51v132h338l10 -22z" />
    <glyph glyph-name="eight.idx_P2D" horiz-adv-x="1226" 
d="M613 871c299 0 540 -242 540 -541s-241 -541 -540 -541s-540 242 -540 541s241 541 540 541zM613 835c-279 0 -499 -226 -499 -505s220 -505 499 -505s499 226 499 505s-220 505 -499 505zM613 73c-105 0 -178 60 -178 146c0 63 52 115 105 129c-55 17 -94 64 -94 115
c0 88 75 139 167 139c91 0 167 -51 167 -139c0 -51 -40 -98 -95 -115c53 -14 106 -66 106 -129c0 -86 -74 -146 -178 -146zM613 369c61 0 110 41 110 92c0 53 -46 92 -110 92s-111 -39 -111 -92c0 -51 50 -92 111 -92zM613 122c71 0 121 41 121 100c0 54 -54 100 -121 100
c-68 0 -122 -46 -122 -100c0 -58 50 -100 122 -100z" />
    <glyph glyph-name="nine.idx_P2D" horiz-adv-x="1226" 
d="M613 871c299 0 540 -242 540 -541s-241 -541 -540 -541s-540 242 -540 541s241 541 540 541zM613 835c-279 0 -499 -226 -499 -505s220 -505 499 -505s499 226 499 505s-220 505 -499 505zM734 434c0 34 -15 64 -37 86c-23 22 -54 35 -90 35c-67 0 -119 -49 -119 -116
c0 -70 51 -116 121 -116s125 49 125 111zM456 159c0 28 18 43 38 43c24 0 40 -18 40 -39c0 -11 -3 -18 -8 -23c10 -13 34 -20 66 -20c82 0 150 82 151 230c-24 -43 -79 -76 -138 -76c-101 0 -172 66 -172 163c0 95 74 167 175 167c54 0 97 -20 128 -51
c41 -40 60 -102 60 -184c0 -212 -97 -298 -207 -298c-42 0 -85 16 -111 40c-14 15 -22 30 -22 48z" />
    <glyph glyph-name="space" unicode=" " horiz-adv-x="254" 
 />
    <glyph glyph-name="uni00A0" unicode="&#xa0;" horiz-adv-x="254" 
 />
    <glyph glyph-name="emspace" unicode="&#x2003;" horiz-adv-x="1000" 
 />
    <glyph glyph-name="enspace" unicode="&#x2002;" horiz-adv-x="500" 
 />
    <glyph glyph-name="threeperemspace" unicode="&#x2004;" horiz-adv-x="333" 
 />
    <glyph glyph-name="fourperemspace" unicode="&#x2005;" horiz-adv-x="250" 
 />
    <glyph glyph-name="thinspace" unicode="&#x2009;" horiz-adv-x="133" 
 />
    <glyph glyph-name="hairspace" unicode="&#x200a;" horiz-adv-x="75" 
 />
    <glyph glyph-name="space.tab" horiz-adv-x="295" 
 />
    <glyph glyph-name="figurespace" unicode="&#x2007;" 
 />
    <glyph glyph-name="NUL" horiz-adv-x="0" 
 />
    <glyph glyph-name="i.dot" horiz-adv-x="344" 
d="M241 595c-26 0 -47 23 -47 49c0 27 21 49 47 49s47 -22 47 -49c0 -26 -21 -49 -47 -49zM172 -7c-50 0 -86 33 -86 81c0 14 5 37 10 55l86 307h-98l13 50h157l-102 -363c-5 -18 -9 -39 -9 -49c0 -23 15 -39 37 -39c26 0 46 23 68 77l34 -11c-23 -69 -57 -108 -110 -108z
" />
    <glyph glyph-name="fraction" unicode="&#x2044;" horiz-adv-x="566" 
d="M1 -13l-29 25c43 51 192 226 296 350c104 123 249 300 291 350l29 -24c-43 -52 -192 -226 -296 -350s-249 -300 -291 -351z" />
    <glyph glyph-name="zero.num" horiz-adv-x="406" 
d="M207 302c-78 0 -122 60 -122 150c0 135 74 261 180 261c78 0 122 -61 122 -151c0 -135 -74 -260 -180 -260zM210 343c76 0 129 114 129 216c0 67 -23 113 -77 113c-76 0 -129 -114 -129 -217c0 -67 24 -112 77 -112z" />
    <glyph glyph-name="one.num" horiz-adv-x="406" 
d="M68 308l10 41h112l73 311l-114 -23v42l147 33l22 -11l-81 -352h110l-10 -41h-269z" />
    <glyph glyph-name="two.num" horiz-adv-x="406" 
d="M66 308c-1 0 -8 21 -8 21c34 83 94 132 185 181c65 35 99 63 99 103c0 35 -30 58 -75 58c-48 0 -75 -18 -83 -32c8 -9 13 -18 13 -27c0 -19 -14 -32 -32 -32c-19 0 -33 15 -33 37c0 41 52 97 138 97c71 0 121 -41 121 -101c0 -61 -53 -97 -130 -138
c-73 -41 -119 -77 -144 -128h178l15 64h41l-23 -103h-262z" />
    <glyph glyph-name="three.num" horiz-adv-x="406" 
d="M207 303c-71 0 -129 39 -129 85c0 20 14 38 33 38c18 0 30 -14 30 -30c0 -9 -7 -19 -16 -24c10 -14 41 -29 84 -29c61 0 99 32 99 76c0 40 -44 75 -105 75h-16l10 41h17c76 0 120 34 120 75s-36 61 -82 61c-30 0 -52 -8 -61 -20c7 -3 12 -12 12 -20
c0 -18 -15 -30 -31 -30c-19 0 -33 14 -33 36c0 36 45 76 122 76c72 0 122 -43 122 -99c0 -59 -51 -95 -112 -102c51 -13 84 -49 84 -94c0 -73 -70 -115 -148 -115z" />
    <glyph glyph-name="four.num" horiz-adv-x="406" 
d="M236 345l19 80h-183l-5 20l265 272l29 -27l-228 -229h131l22 87l47 18l-24 -103h68l-9 -38h-68l-18 -80h54l-8 -37h-171l9 37h70z" />
    <glyph glyph-name="five.num" horiz-adv-x="406" 
d="M189 300c-62 0 -117 36 -117 73c0 20 14 35 32 35c17 0 30 -11 30 -28c0 -7 -2 -14 -8 -19c10 -10 32 -20 67 -20c69 0 120 50 120 104c0 45 -28 73 -80 73c-32 0 -64 -8 -88 -19l-22 17l61 190h210l-10 -43h-172l-39 -120c18 7 42 14 74 14c62 0 113 -42 113 -108
c0 -78 -73 -149 -171 -149z" />
    <glyph glyph-name="six.num" horiz-adv-x="406" 
d="M130 336c-25 25 -38 60 -38 109c0 80 34 166 88 217c34 32 72 52 119 52c58 0 100 -33 100 -69c0 -21 -15 -36 -33 -36c-15 0 -30 12 -30 30c0 7 3 16 10 21c-7 7 -21 15 -46 15c-32 0 -64 -15 -90 -40c-34 -32 -61 -86 -71 -139c27 37 67 62 115 62
c71 0 118 -48 118 -109c0 -78 -69 -149 -152 -149c-39 0 -71 17 -90 36zM221 342c58 0 104 48 104 104c0 42 -31 73 -79 73c-58 0 -106 -50 -106 -100c0 -22 7 -40 22 -55c13 -13 33 -22 59 -22z" />
    <glyph glyph-name="seven.num" horiz-adv-x="406" 
d="M124 308l243 359h-181l-15 -68h-44l26 107h265l11 -21l-252 -377h-53z" />
    <glyph glyph-name="eight.num" horiz-adv-x="406" 
d="M220 302c-82 0 -138 50 -138 107c0 62 50 104 107 112c-37 17 -56 48 -56 82c0 54 53 109 138 109c72 0 127 -42 127 -103c0 -52 -41 -88 -94 -100c33 -15 61 -46 61 -88c0 -66 -59 -119 -145 -119zM261 533c50 0 89 32 89 74c0 36 -32 65 -81 65s-89 -31 -89 -72
c0 -39 36 -67 81 -67zM219 343c54 0 98 34 98 79c0 42 -35 73 -88 73c-59 0 -100 -35 -100 -81c0 -39 35 -71 90 -71z" />
    <glyph glyph-name="nine.num" horiz-adv-x="406" 
d="M263 672c-57 0 -103 -48 -103 -103c0 -43 30 -74 79 -74c58 0 106 50 106 101c0 21 -8 40 -23 54c-13 14 -33 22 -59 22zM112 566c0 78 69 148 153 148c39 0 71 -16 89 -35c26 -25 39 -60 39 -109c0 -81 -34 -167 -89 -218c-34 -32 -72 -52 -119 -52c-57 0 -99 34 -99 69
c0 21 15 36 33 36c15 0 30 -12 30 -30c0 -6 -4 -15 -10 -21c6 -7 21 -14 45 -14c32 0 64 14 91 40c33 31 59 84 69 137c-26 -37 -66 -61 -114 -61c-71 0 -118 48 -118 110z" />
    <glyph glyph-name="zero.den" horiz-adv-x="406" 
d="M135 -6c-78 0 -122 60 -122 150c0 135 74 261 180 261c78 0 122 -61 122 -151c0 -135 -74 -260 -180 -260zM138 35c76 0 129 114 129 216c0 67 -23 113 -77 113c-76 0 -129 -114 -129 -217c0 -67 24 -112 77 -112z" />
    <glyph glyph-name="one.den" horiz-adv-x="406" 
d="M-4 0l10 41h112l73 311l-114 -23v42l147 33l22 -11l-81 -352h110l-10 -41h-269z" />
    <glyph glyph-name="two.den" horiz-adv-x="406" 
d="M-6 0c-1 0 -8 21 -8 21c34 83 94 132 185 181c65 35 99 63 99 103c0 35 -30 58 -75 58c-48 0 -75 -18 -83 -32c8 -9 13 -18 13 -27c0 -19 -14 -32 -32 -32c-19 0 -33 15 -33 37c0 41 52 97 138 97c71 0 121 -41 121 -101c0 -61 -53 -97 -130 -138
c-73 -41 -119 -77 -144 -128h178l15 64h41l-23 -103h-262z" />
    <glyph glyph-name="three.den" horiz-adv-x="406" 
d="M135 -5c-71 0 -129 39 -129 85c0 20 14 38 33 38c18 0 30 -14 30 -30c0 -9 -7 -19 -16 -24c10 -14 41 -29 84 -29c61 0 99 32 99 76c0 40 -44 75 -105 75h-16l10 41h17c76 0 120 34 120 75s-36 61 -82 61c-30 0 -52 -8 -61 -20c7 -3 12 -12 12 -20c0 -18 -15 -30 -31 -30
c-19 0 -33 14 -33 36c0 36 45 76 122 76c72 0 122 -43 122 -99c0 -59 -51 -95 -112 -102c51 -13 84 -49 84 -94c0 -73 -70 -115 -148 -115z" />
    <glyph glyph-name="four.den" horiz-adv-x="406" 
d="M164 37l19 80h-183l-5 20l265 272l29 -27l-228 -229h131l22 87l47 18l-24 -103h68l-9 -38h-68l-18 -80h54l-8 -37h-171l9 37h70z" />
    <glyph glyph-name="five.den" horiz-adv-x="406" 
d="M117 -8c-62 0 -117 36 -117 73c0 20 14 35 32 35c17 0 30 -11 30 -28c0 -7 -2 -14 -8 -19c10 -10 32 -20 67 -20c69 0 120 50 120 104c0 45 -28 73 -80 73c-32 0 -64 -8 -88 -19l-22 17l61 190h210l-10 -43h-172l-39 -120c18 7 42 14 74 14c62 0 113 -42 113 -108
c0 -78 -73 -149 -171 -149z" />
    <glyph glyph-name="six.den" horiz-adv-x="406" 
d="M58 28c-25 25 -38 60 -38 109c0 80 34 166 88 217c34 32 72 52 119 52c58 0 100 -33 100 -69c0 -21 -15 -36 -33 -36c-15 0 -30 12 -30 30c0 7 3 16 10 21c-7 7 -21 15 -46 15c-32 0 -64 -15 -90 -40c-34 -32 -61 -86 -71 -139c27 37 67 62 115 62c71 0 118 -48 118 -109
c0 -78 -69 -149 -152 -149c-39 0 -71 17 -90 36zM149 34c58 0 104 48 104 104c0 42 -31 73 -79 73c-58 0 -106 -50 -106 -100c0 -22 7 -40 22 -55c13 -13 33 -22 59 -22z" />
    <glyph glyph-name="seven.den" horiz-adv-x="406" 
d="M52 0l243 359h-181l-15 -68h-44l26 107h265l11 -21l-252 -377h-53z" />
    <glyph glyph-name="eight.den" horiz-adv-x="406" 
d="M148 -6c-82 0 -138 50 -138 107c0 62 50 104 107 112c-37 17 -56 48 -56 82c0 54 53 109 138 109c72 0 127 -42 127 -103c0 -52 -41 -88 -94 -100c33 -15 61 -46 61 -88c0 -66 -59 -119 -145 -119zM189 225c50 0 89 32 89 74c0 36 -32 65 -81 65s-89 -31 -89 -72
c0 -39 36 -67 81 -67zM147 35c54 0 98 34 98 79c0 42 -35 73 -88 73c-59 0 -100 -35 -100 -81c0 -39 35 -71 90 -71z" />
    <glyph glyph-name="nine.den" horiz-adv-x="406" 
d="M191 364c-57 0 -103 -48 -103 -103c0 -43 30 -74 79 -74c58 0 106 50 106 101c0 21 -8 40 -23 54c-13 14 -33 22 -59 22zM40 258c0 78 69 148 153 148c39 0 71 -16 89 -35c26 -25 39 -60 39 -109c0 -81 -34 -167 -89 -218c-34 -32 -72 -52 -119 -52c-57 0 -99 34 -99 69
c0 21 15 36 33 36c15 0 30 -12 30 -30c0 -6 -4 -15 -10 -21c6 -7 21 -14 45 -14c32 0 64 14 91 40c33 31 59 84 69 137c-26 -37 -66 -61 -114 -61c-71 0 -118 48 -118 110z" />
    <glyph glyph-name="acute" unicode="&#xb4;" horiz-adv-x="599" 
d="M273 585l-12 21l188 136c16 13 28 18 44 18c20 0 37 -18 37 -38c0 -25 -17 -39 -41 -48z" />
    <glyph glyph-name="hungarumlaut" unicode="&#x2dd;" horiz-adv-x="599" 
d="M180 587l-13 21l145 131c15 13 29 22 43 22c20 0 38 -14 38 -40c0 -14 -16 -32 -40 -44zM386 593l-12 22l155 120c16 13 29 19 42 19c23 0 36 -17 36 -39c0 -17 -14 -33 -43 -44z" />
    <glyph glyph-name="caron.alt" horiz-adv-x="599" 
d="M231 601l-17 17c36 40 56 68 67 110c7 26 4 51 7 74c4 25 16 42 43 42c21 0 36 -12 36 -38c0 -30 -13 -63 -35 -98c-26 -40 -65 -77 -101 -107z" />
    <glyph glyph-name="grave" unicode="`" horiz-adv-x="599" 
d="M478 584l-137 88c-23 15 -31 30 -31 47c0 22 18 41 40 41c17 0 29 -6 48 -30l97 -128z" />
    <glyph glyph-name="circumflex" unicode="&#x2c6;" horiz-adv-x="599" 
d="M246 583l-25 33l201 153l122 -160l-28 -26l-106 100z" />
    <glyph glyph-name="caron" unicode="&#x2c7;" horiz-adv-x="599" 
d="M377 588l-123 160l29 25l106 -100l163 100l26 -33z" />
    <glyph glyph-name="breve" unicode="&#x2d8;" horiz-adv-x="599" 
d="M379 589c-85 0 -131 65 -142 142l41 14c12 -59 50 -94 110 -94c54 0 105 30 144 93l37 -22c-40 -76 -114 -133 -190 -133z" />
    <glyph glyph-name="tilde" unicode="&#x2dc;" horiz-adv-x="599" 
d="M471 584c-42 0 -69 22 -93 46c-22 22 -36 32 -57 32c-29 0 -50 -25 -66 -71l-41 13c14 65 63 118 112 118c42 0 68 -22 92 -46c21 -22 36 -32 57 -32c30 0 50 25 67 71l41 -13c-14 -66 -64 -118 -112 -118z" />
    <glyph glyph-name="macron" unicode="&#xaf;" horiz-adv-x="599" 
d="M222 625l14 58h331l-12 -58h-333z" />
    <glyph glyph-name="dieresis" unicode="&#xa8;" horiz-adv-x="599" 
d="M307 608c-31 0 -54 25 -54 56c0 32 23 57 54 57c32 0 55 -25 55 -57c0 -31 -23 -56 -55 -56zM488 608c-31 0 -54 25 -54 56c0 32 23 57 54 57s55 -25 55 -57c0 -31 -24 -56 -55 -56z" />
    <glyph glyph-name="dotaccent" unicode="&#x2d9;" horiz-adv-x="599" 
d="M396 606c-32 0 -57 27 -57 59s25 59 57 59s57 -27 57 -59s-25 -59 -57 -59z" />
    <glyph glyph-name="ring" unicode="&#x2da;" horiz-adv-x="599" 
d="M388 576c-60 0 -94 42 -94 97c0 72 52 136 124 136c60 0 94 -43 94 -97c0 -72 -52 -136 -124 -136zM392 619c43 0 75 41 75 88c0 33 -22 59 -53 59c-43 0 -76 -41 -76 -89c0 -33 22 -58 54 -58z" />
    <glyph glyph-name="commaaccent" unicode="&#x326;" horiz-adv-x="260" 
d="M41 -305l-11 22c76 34 114 89 117 117c-26 5 -41 30 -41 50c0 28 20 51 50 51c31 0 55 -25 55 -61c0 -63 -51 -139 -170 -179z" />
    <glyph glyph-name="commaaccent.rot" horiz-adv-x="260" 
d="M352 855l11 -22c-75 -34 -114 -88 -117 -117c26 -5 41 -30 41 -50c0 -28 -20 -50 -50 -50c-31 0 -55 24 -55 60c0 63 51 139 170 179z" />
    <glyph glyph-name="cedilla" unicode="&#xb8;" horiz-adv-x="599" 
d="M218 -231c-54 0 -106 27 -132 48l22 31c22 -16 70 -33 107 -33c36 0 54 18 54 42c0 22 -27 43 -76 35l-15 15l62 118l33 -9l-30 -79c59 -7 84 -43 84 -77c0 -58 -51 -91 -109 -91z" />
    <glyph glyph-name="ogonek" unicode="&#x2db;" horiz-adv-x="601" 
d="M313 40l35 -7c-75 -47 -149 -108 -149 -169c0 -30 20 -47 54 -47c24 0 42 5 57 11l-10 -47c-12 -6 -32 -14 -63 -14c-61 0 -92 32 -92 81c0 72 73 141 168 192z" />
    <glyph glyph-name="acute.cap" horiz-adv-x="568" 
d="M259 555l-12 20l180 130c15 12 26 16 41 16c19 0 36 -17 36 -36c0 -23 -17 -37 -40 -46z" />
    <glyph glyph-name="hungarumlaut.cap" horiz-adv-x="568" 
d="M171 557l-13 20l138 124c14 13 27 22 41 22c19 0 36 -13 36 -39c0 -13 -15 -30 -37 -41zM366 562l-10 21l146 115c15 12 28 18 40 18c22 0 35 -16 35 -37c0 -16 -14 -32 -41 -43z" />
    <glyph glyph-name="caron.alt.cap" horiz-adv-x="568" 
d="M219 569l-16 17c34 38 53 64 64 104c6 24 3 49 6 70c4 24 15 41 41 41c20 0 35 -12 35 -37c0 -29 -12 -59 -34 -93c-24 -38 -62 -74 -96 -102z" />
    <glyph glyph-name="grave.cap" horiz-adv-x="568" 
d="M453 554l-129 83c-23 15 -31 29 -31 45c0 21 18 39 40 39c16 0 27 -5 45 -28l92 -122z" />
    <glyph glyph-name="circumflex.cap" horiz-adv-x="568" 
d="M234 553l-24 32l191 145l116 -152l-27 -25l-100 95z" />
    <glyph glyph-name="caron.cap" horiz-adv-x="568" 
d="M358 558l-116 152l27 24l100 -95l155 95l25 -31z" />
    <glyph glyph-name="breve.cap" horiz-adv-x="568" 
d="M360 559c-81 0 -124 61 -135 135l39 13c11 -56 47 -89 104 -89c52 0 100 28 137 88l35 -21c-38 -72 -108 -126 -180 -126z" />
    <glyph glyph-name="tilde.cap" horiz-adv-x="568" 
d="M447 554c-40 0 -65 21 -88 44c-20 20 -34 30 -54 30c-28 0 -47 -24 -63 -67l-39 12c13 62 61 112 107 112c40 0 65 -21 87 -44c20 -20 34 -30 54 -30c28 0 48 24 63 67l39 -12c-13 -62 -60 -112 -106 -112z" />
    <glyph glyph-name="macron.cap" horiz-adv-x="568" 
d="M211 593l13 55h315l-12 -55h-316z" />
    <glyph glyph-name="dieresis.cap" horiz-adv-x="568" 
d="M292 577c-30 0 -52 24 -52 54s22 54 52 54c29 0 52 -24 52 -54s-23 -54 -52 -54zM464 577c-30 0 -52 24 -52 54s22 54 52 54s52 -24 52 -54s-22 -54 -52 -54z" />
    <glyph glyph-name="dotaccent.cap" horiz-adv-x="568" 
d="M376 575c-31 0 -54 25 -54 56s23 57 54 57s54 -26 54 -57s-23 -56 -54 -56z" />
    <glyph glyph-name="ring.cap" horiz-adv-x="568" 
d="M368 546c-57 0 -89 40 -89 92c0 69 50 130 118 130c57 0 89 -41 89 -93c0 -68 -50 -129 -118 -129zM372 587c41 0 72 39 72 84c0 31 -21 55 -51 55c-41 0 -72 -38 -72 -83c0 -31 21 -56 51 -56z" />
    <glyph glyph-name="commaaccent.cap" horiz-adv-x="248" 
d="M40 -290l-11 21c72 32 109 84 112 111c-25 5 -40 28 -40 48c0 27 20 48 49 48s52 -24 52 -58c0 -60 -49 -132 -162 -170z" />
    <glyph glyph-name="cedilla.cap" horiz-adv-x="568" 
d="M207 -219c-51 0 -101 25 -126 45l22 30c20 -14 66 -30 101 -30c34 0 51 16 51 38c0 21 -26 41 -72 33l-14 15l59 112l31 -9l-28 -74c56 -7 80 -42 80 -74c0 -55 -49 -86 -104 -86z" />
    <glyph glyph-name="ogonek.cap" horiz-adv-x="571" 
d="M297 38l34 -7c-71 -44 -142 -102 -142 -160c0 -28 19 -44 51 -44c23 0 40 5 54 10l-9 -44c-11 -7 -31 -14 -60 -14c-58 0 -88 30 -88 77c0 68 70 134 160 182z" />
    <glyph glyph-name="hcoslug" horiz-adv-x="700" 
d="M644 700v-800h-594v800h594zM247 428c0 17 11 29 27 29c17 0 29 -15 29 -38c0 -17 -7 -33 -18 -50c-23 22 -38 36 -38 59zM312 342c19 13 33 24 42 34c23 -23 18 -47 -1 -80c-13 15 -25 30 -41 46zM261 219c-30 0 -52 23 -52 54c0 15 5 29 16 40c18 -17 46 -47 74 -82
c-11 -9 -23 -12 -38 -12zM382 264c15 20 31 33 46 42c9 -15 25 -25 43 -25c28 0 50 23 50 54s-22 52 -50 52c-25 0 -44 -14 -60 -38c-2 27 -22 38 -49 37c6 10 9 21 9 34c0 35 -33 74 -95 74c-67 0 -109 -42 -109 -85c0 -29 10 -47 31 -69c-53 -18 -82 -49 -82 -91
c0 -53 49 -93 109 -93c42 0 76 14 104 45c33 -34 55 -45 85 -45c43 0 78 36 80 94l-7 2c-10 -17 -22 -29 -43 -29c-20 0 -37 12 -62 41zM286 124l-12 -2v-9h-7v-7h7v-20c0 -8 4 -13 12 -13s12 4 14 13l-5 2c-1 -5 -3 -7 -5 -7c-3 0 -4 2 -4 5v20h13v7h-13v11zM174 94
c0 -13 9 -21 21 -21s21 9 21 21s-9 20 -21 20s-21 -8 -21 -20zM203 94c0 -12 -3 -16 -8 -16s-8 4 -8 16c0 11 3 15 8 15s8 -4 8 -15zM219 81v-7h22v7h-4v15c0 6 3 10 7 10s6 -3 6 -7v-18h-4v-7h22v7h-6v19c0 8 -3 14 -12 14c-7 0 -11 -4 -14 -11v10h-17v-7h6v-25h-6zM379 93
c0 -8 -2 -13 -7 -13c-6 0 -8 5 -8 13c0 7 2 13 8 13c5 0 7 -5 7 -13zM125 81v-7h30v7h-10v16h4c5 0 5 -1 6 -8h7v23h-7c-1 -7 -1 -8 -6 -8h-4v18h12c7 0 9 -2 11 -13h8v20h-51v-7h7v-41h-7zM302 88v-14h7l1 4c3 -2 6 -5 13 -5c9 0 14 6 14 13c0 16 -24 10 -24 18
c0 2 2 4 5 4c4 0 7 -3 10 -7h7v13h-6l-2 -5c-2 3 -6 5 -11 5c-9 0 -14 -6 -14 -12c0 -16 24 -11 24 -19c0 -2 -2 -4 -5 -4c-5 0 -8 3 -12 9h-7zM352 125v-52h6l4 8c3 -5 7 -8 14 -8c12 0 16 12 16 21c0 12 -6 20 -15 20c-6 0 -11 -3 -13 -9v27h-18v-7h6zM405 65
c3 3 2 10 -5 10c-4 0 -7 -3 -7 -7c0 -5 4 -9 11 -9c9 0 14 6 18 16l13 31h5v7h-17v-7h5l-8 -20l-9 20h6v7h-25v-7h5s12 -23 16 -33c-1 -5 -4 -8 -8 -8zM294 39v3c0 10 3 12 6 12c2 0 3 -1 3 -1s-1 -1 -1 -3c0 -4 3 -6 6 -6v-5h-14zM464 33h-18v-7h6c-1 -3 -4 -7 -6 -9
c-4 4 -7 8 -12 13c7 3 11 6 11 12s-5 12 -14 12c-10 0 -17 -7 -17 -14c0 -5 2 -8 6 -12c-7 -2 -13 -7 -13 -15s6 -14 18 -14c6 0 11 2 15 6c4 -5 7 -6 12 -6c8 0 11 5 13 12l-5 1c-1 -4 -2 -5 -4 -5s-4 2 -6 5c3 4 6 8 9 14h5v7zM469 27c0 -17 11 -28 29 -28
c15 0 23 9 24 23h-8c-1 -9 -6 -16 -14 -16c-10 0 -16 7 -16 22c0 16 6 22 14 22s11 -4 15 -16h8v22h-8l-1 -6c-4 4 -9 7 -16 7c-14 0 -27 -12 -27 -30zM431 33c-4 4 -6 7 -6 10s2 5 5 5c4 0 6 -3 6 -6c0 -4 -2 -7 -5 -9zM340 18h26c1 13 -5 22 -19 22c-11 0 -20 -9 -20 -21
s8 -20 21 -20c11 0 16 6 18 14h-7c-1 -5 -4 -7 -9 -7c-7 0 -10 3 -10 12zM525 20c0 -13 9 -21 21 -21s21 9 21 21s-9 20 -21 20s-21 -8 -21 -20zM189 20c0 -13 9 -21 21 -21s21 9 21 21s-9 20 -21 20s-21 -8 -21 -20zM247 18h26c1 13 -5 22 -19 22c-11 0 -20 -9 -20 -21
s8 -20 21 -20c11 0 16 6 18 14h-7c-1 -5 -4 -7 -9 -7c-7 0 -10 3 -10 12zM340 23c0 9 3 12 7 12c5 0 7 -4 7 -12h-14zM554 20c0 -12 -3 -16 -8 -16s-8 4 -8 16c0 11 3 15 8 15s8 -4 8 -15zM218 20c0 -12 -3 -16 -8 -16s-8 4 -8 16c0 11 3 15 8 15s8 -4 8 -15zM247 23
c0 9 3 12 7 12c5 0 7 -4 7 -12h-14zM368 7v-7h26v7h-8v16c2 5 5 9 7 9v-1c0 -4 3 -6 6 -6c4 0 7 3 7 7c0 5 -3 8 -8 8s-9 -3 -12 -11v10h-18v-7h6v-25h-6zM276 7v-7h23v7h-5v25h14v-25h-5v-7h23v7h-6v52l-10 -2c-2 1 -6 2 -9 2c-10 0 -19 -6 -19 -19v-1h-7v-7h7v-25h-6z
M124 7v-7h29v7h-8v18h22v-18h-8v-7h29v7h-8v41h8v7h-29v-7h8v-16h-22v16h8v7h-29v-7h8v-41h-8zM437 9c-3 -2 -6 -3 -8 -3c-6 0 -10 4 -10 10c0 4 2 7 4 9c5 -5 9 -10 14 -16zM583 6c0 4 -3 7 -7 7s-7 -3 -7 -7s3 -7 7 -7s7 3 7 7z" />
    </font>
</defs>
</svg>
