<?xml version="1.0" standalone="no"?>
<!DOCTYPE svg PUBLIC "-//W3C//DTD SVG 1.1//EN" "http://www.w3.org/Graphics/SVG/1.1/DTD/svg11.dtd" >
<svg xmlns="http://www.w3.org/2000/svg" xmlns:xlink="http://www.w3.org/1999/xlink" version="1.1">
<metadata>
Created by FontForge 20170924 at Mon Apr 21 19:16:33 2014
 By www-data
Copyright C 2010, 2014 Hoefler &#38; Co. http:www.typography.com
</metadata>
<defs>
<font id="ArcherSSm-BoldItalic" horiz-adv-x="590" >
  <font-face 
    font-family="Archer SSm"
    font-weight="400"
    font-style="italic"
    font-stretch="normal"
    units-per-em="1000"
    panose-1="0 0 0 0 0 0 0 0 0 0"
    ascent="800"
    descent="-200"
    x-height="503"
    cap-height="724"
    bbox="-119 -342 1279 1219"
    underline-thickness="50"
    underline-position="-100"
    slope="-12"
    stemh="98"
    stemv="115"
    unicode-range="U+0020-FB04"
  />
<missing-glyph horiz-adv-x="500" 
d="M0 -200v1000h500v-1000h-500zM71 750l179 -390l179 390h-358zM450 676l-172 -376l172 -376v752zM50 -76l172 376l-172 376v-752zM250 240l-179 -390h358z" />
    <glyph glyph-name="f_b" unicode="fb" horiz-adv-x="971" 
d="M54 0l94 409h-90l25 94h86l40 170c9 39 25 73 47 101c41 51 103 83 180 83c58 0 103 -23 133 -59l34 51h70l-101 -437c38 55 101 100 165 100c119 0 183 -81 183 -201c0 -174 -119 -320 -268 -320c-70 0 -133 47 -149 110l-31 -101h-105l94 409h-204l-94 -409h-109z
M466 682c0 22 10 41 25 53c-16 18 -38 27 -62 27c-35 0 -63 -14 -84 -39c-15 -17 -25 -40 -31 -68l-35 -152h203l27 114c-27 10 -43 36 -43 65zM636 89c95 0 168 100 168 208c0 68 -38 120 -106 120c-95 0 -175 -102 -175 -212c0 -70 38 -116 113 -116z" />
    <glyph glyph-name="f_f" unicode="ff" horiz-adv-x="721" 
d="M434 690c-29 0 -53 17 -61 40c-8 -3 -16 -8 -22 -14c-20 -20 -37 -60 -52 -122l-21 -91h220l31 132c16 72 43 129 82 166c36 35 85 56 146 56c68 0 108 -36 108 -79s-33 -71 -70 -71c-34 0 -63 24 -67 54c-16 -3 -30 -12 -40 -22c-21 -21 -38 -57 -52 -114l-28 -122h133
l-24 -94h-131l-93 -409h-110l94 409h-221l-93 -409h-109l93 409h-89l25 94h86l25 109c18 77 43 129 79 165c37 38 84 57 130 57c62 0 97 -33 97 -77c0 -38 -30 -67 -66 -67z" />
    <glyph glyph-name="f_h" unicode="fh" horiz-adv-x="975" 
d="M366 0l94 409h-203l-94 -409h-109l94 409h-90l25 94h86l40 170c9 39 25 73 47 101c41 51 103 83 180 83c58 0 103 -23 133 -59l34 51h69l-103 -444c35 56 95 107 159 107c75 0 137 -53 137 -146c0 -25 -3 -52 -12 -82l-39 -143c-4 -15 -6 -28 -6 -38c0 -23 10 -36 28 -36
c20 0 41 15 66 82l47 -18c-28 -96 -78 -140 -142 -140c-73 0 -112 44 -112 106c0 17 3 37 8 56l41 146c5 18 6 33 6 47c0 44 -29 72 -74 72c-59 0 -110 -45 -132 -138l-64 -280h-114zM466 682c0 22 10 41 25 53c-16 18 -38 27 -62 27c-35 0 -63 -14 -84 -39
c-15 -17 -25 -40 -31 -68l-35 -152h203l27 114c-27 10 -43 36 -43 65z" />
    <glyph glyph-name="fi" unicode="fi" horiz-adv-x="689" 
d="M469 409h-212l-94 -409h-109l93 409h-89l25 94h86l29 127c15 63 42 114 79 152c43 48 99 75 166 75c82 0 130 -43 130 -94c0 -41 -30 -70 -68 -70c-40 0 -67 31 -67 66v1h-9c-28 0 -50 -11 -70 -32c-24 -24 -43 -63 -56 -118l-25 -107h328l-91 -350c-5 -21 -8 -40 -8 -52
c0 -22 12 -34 30 -34c22 0 43 15 68 82l47 -18c-32 -107 -84 -140 -147 -140c-72 0 -109 43 -109 106c0 17 2 37 7 56z" />
    <glyph glyph-name="f_j" unicode="fj" horiz-adv-x="642" 
d="M601 503l-101 -440c-31 -133 -62 -200 -103 -241c-32 -31 -78 -50 -124 -50c-63 0 -99 34 -99 75c0 37 29 65 65 65c27 0 52 -19 60 -42c14 2 28 12 41 37c15 29 32 79 51 163l78 339h-212l-94 -409h-109l93 409h-89l25 94h86l29 127c15 63 42 114 79 152
c43 48 99 75 166 75c82 0 130 -43 130 -94c0 -41 -30 -70 -68 -70c-40 0 -67 31 -67 66v1h-9c-28 0 -50 -11 -70 -32c-24 -24 -43 -63 -56 -118l-25 -107h323z" />
    <glyph glyph-name="f_k" unicode="fk" horiz-adv-x="922" 
d="M366 0l94 409h-203l-94 -409h-109l94 409h-90l25 94h86l40 170c9 39 25 73 47 101c41 51 103 83 180 83c58 0 103 -23 133 -59l34 51h69l-135 -582c135 45 200 86 221 120c-21 14 -33 34 -33 56c0 38 32 69 70 69c40 0 73 -31 73 -79c0 -77 -66 -144 -192 -203l48 -109
c10 -22 17 -35 24 -43s14 -10 22 -10c16 0 32 18 53 93l48 -15c-28 -128 -77 -155 -129 -155c-23 0 -46 6 -66 23c-17 14 -31 34 -43 62l-54 128c-18 -7 -38 -15 -57 -21l-42 -183h-114zM466 682c0 22 10 41 25 53c-16 18 -38 27 -62 27c-35 0 -63 -14 -84 -39
c-15 -17 -25 -40 -31 -68l-35 -152h203l27 114c-27 10 -43 36 -43 65z" />
    <glyph glyph-name="fl" unicode="fl" horiz-adv-x="690" 
d="M83 503h86l40 170c9 39 25 73 47 101c41 51 103 83 180 83c58 0 103 -23 133 -59l34 51h72l-162 -696c-4 -20 -8 -37 -8 -49c0 -25 10 -37 29 -37c22 0 43 15 68 82l47 -18c-32 -107 -84 -140 -147 -140c-72 0 -108 43 -108 107c0 17 2 35 7 54l59 257h-203l-94 -409
h-109l94 409h-90zM314 655l-35 -152h203l27 114c-27 10 -43 36 -43 65c0 22 10 41 25 53c-16 18 -38 27 -62 27c-35 0 -63 -14 -84 -39c-15 -17 -25 -40 -31 -68z" />
    <glyph glyph-name="f_f_b" unicode="ffb" horiz-adv-x="1300" 
d="M796 682c0 23 10 41 25 53c-16 18 -38 27 -62 27c-35 0 -64 -14 -84 -39c-15 -17 -25 -40 -31 -68l-35 -152h203l27 114c-27 10 -43 36 -43 65zM83 503h85l32 139c9 41 26 78 49 108c41 52 103 83 180 83c59 0 102 -30 102 -77c0 -38 -31 -68 -67 -68
c-33 0 -56 21 -64 50h-1c-22 -5 -45 -18 -59 -37c-15 -17 -26 -41 -32 -68l-30 -130h220l40 170c9 39 25 73 48 101c41 51 102 83 180 83c58 0 103 -23 133 -59l34 51h69l-101 -437c39 55 102 100 166 100c119 0 183 -81 183 -201c0 -174 -120 -320 -268 -320
c-71 0 -133 47 -149 110l-32 -101h-104l94 409h-204l-94 -409h-110l94 409h-221l-93 -409h-109l93 409h-89zM966 89c94 0 168 100 168 208c0 68 -38 120 -106 120c-95 0 -175 -102 -175 -212c0 -70 38 -116 113 -116z" />
    <glyph glyph-name="f_f_h" unicode="ffh" horiz-adv-x="1305" 
d="M796 682c0 23 10 41 25 53c-16 18 -38 27 -62 27c-35 0 -64 -14 -84 -39c-15 -17 -25 -40 -31 -68l-35 -152h203l27 114c-27 10 -43 36 -43 65zM696 0l94 409h-203l-94 -409h-110l94 409h-221l-93 -409h-109l93 409h-89l25 94h85l32 139c9 41 26 78 49 108
c41 52 103 83 180 83c59 0 102 -30 102 -77c0 -38 -31 -68 -67 -68c-33 0 -56 21 -64 50h-1c-22 -5 -45 -18 -59 -37c-15 -17 -26 -41 -32 -68l-30 -130h220l40 170c9 39 25 73 48 101c41 51 102 83 180 83c58 0 103 -23 133 -59l34 51h69l-104 -445c36 57 95 108 160 108
c75 0 137 -53 137 -146c0 -25 -4 -52 -12 -82l-40 -143c-3 -15 -6 -28 -6 -38c0 -23 11 -36 29 -36c20 0 41 15 65 82l48 -18c-28 -96 -78 -140 -143 -140c-73 0 -111 44 -111 106c0 17 3 37 8 56l40 146c6 18 7 33 7 47c0 44 -29 72 -74 72c-59 0 -110 -45 -132 -138
l-65 -280h-113z" />
    <glyph glyph-name="f_f_i" unicode="ffi" horiz-adv-x="1018" 
d="M383 0l94 409h-221l-93 -409h-109l93 409h-89l25 94h85l32 139c9 41 26 78 49 108c41 52 103 83 180 83c59 0 102 -30 102 -77c0 -38 -31 -68 -67 -68c-33 0 -56 21 -64 50h-1c-22 -5 -45 -18 -59 -37c-15 -17 -26 -41 -32 -68l-30 -130h220l30 127c15 63 42 114 79 152
c43 48 99 75 165 75c83 0 131 -43 131 -94c0 -41 -30 -70 -68 -70c-40 0 -67 31 -67 66v1h-9c-28 0 -51 -11 -70 -32c-24 -24 -43 -63 -56 -118l-25 -107h328l-91 -350c-6 -21 -8 -40 -8 -52c0 -22 11 -34 30 -34c22 0 43 15 68 82l47 -18c-32 -107 -84 -140 -147 -140
c-73 0 -110 43 -110 106c0 17 3 37 8 56l65 256h-211l-94 -409h-110z" />
    <glyph glyph-name="f_f_j" unicode="ffj" horiz-adv-x="972" 
d="M54 0l93 409h-89l25 94h85l32 139c9 41 26 78 49 108c41 52 103 83 180 83c59 0 102 -30 102 -77c0 -38 -31 -68 -67 -68c-33 0 -56 21 -64 50h-1c-22 -5 -45 -18 -59 -37c-15 -17 -26 -41 -32 -68l-30 -130h220l30 127c15 63 42 114 79 152c43 48 99 75 165 75
c83 0 131 -43 131 -94c0 -41 -30 -70 -68 -70c-40 0 -67 31 -67 66v1h-9c-28 0 -51 -11 -70 -32c-24 -24 -43 -63 -56 -118l-25 -107h323l-101 -440c-31 -133 -62 -200 -103 -241c-32 -31 -78 -50 -125 -50c-62 0 -98 34 -98 75c0 37 29 65 65 65c27 0 52 -19 60 -42
c14 2 28 12 41 37c15 29 32 79 51 163l77 339h-211l-94 -409h-110l94 409h-221l-93 -409h-109z" />
    <glyph glyph-name="f_f_k" unicode="ffk" horiz-adv-x="1252" 
d="M796 682c0 23 10 41 25 53c-16 18 -38 27 -62 27c-35 0 -64 -14 -84 -39c-15 -17 -25 -40 -31 -68l-35 -152h203l27 114c-27 10 -43 36 -43 65zM696 0l94 409h-203l-94 -409h-110l94 409h-221l-93 -409h-109l93 409h-89l25 94h85l32 139c9 41 26 78 49 108
c41 52 103 83 180 83c59 0 102 -30 102 -77c0 -38 -31 -68 -67 -68c-33 0 -56 21 -64 50h-1c-22 -5 -45 -18 -59 -37c-15 -17 -26 -41 -32 -68l-30 -130h220l40 170c9 39 25 73 48 101c41 51 102 83 180 83c58 0 103 -23 133 -59l34 51h69l-135 -582c135 45 200 86 221 120
c-22 14 -33 34 -33 56c0 38 32 69 70 69c40 0 73 -31 73 -79c0 -77 -66 -144 -192 -203l48 -109c9 -22 17 -35 24 -43s14 -10 21 -10c17 0 33 18 53 93l48 -15c-28 -128 -76 -155 -128 -155c-23 0 -46 6 -66 23c-17 14 -32 34 -44 62l-53 128c-18 -7 -38 -14 -57 -20
l-43 -184h-113z" />
    <glyph glyph-name="f_f_l" unicode="ffl" horiz-adv-x="1020" 
d="M644 655l-35 -152h203l27 114c-27 10 -43 36 -43 65c0 23 10 41 25 53c-16 18 -38 27 -62 27c-35 0 -64 -14 -84 -39c-15 -17 -25 -40 -31 -68zM58 409l25 94h85l32 139c9 41 26 78 49 108c41 52 103 83 180 83c59 0 102 -30 102 -77c0 -38 -31 -68 -67 -68
c-33 0 -56 21 -64 50h-1c-22 -5 -45 -18 -59 -37c-15 -17 -26 -41 -32 -68l-30 -130h220l40 170c9 39 25 73 48 101c41 51 102 83 180 83c58 0 103 -23 133 -59l34 51h71l-161 -696c-4 -20 -8 -37 -8 -49c0 -25 10 -37 29 -37c22 0 43 15 68 82l47 -18
c-32 -107 -84 -140 -147 -140c-72 0 -109 43 -109 107c0 17 3 35 8 54l59 257h-203l-94 -409h-110l94 409h-221l-93 -409h-109l93 409h-89z" />
    <glyph glyph-name=".notdef" horiz-adv-x="500" 
d="M0 -200v1000h500v-1000h-500zM71 750l179 -390l179 390h-358zM450 676l-172 -376l172 -376v752zM50 -76l172 376l-172 376v-752zM250 240l-179 -390h358z" />
    <glyph glyph-name="A" unicode="A" horiz-adv-x="785" 
d="M309 329h216l-37 304zM-24 0l23 100h66l309 525h-87l23 99h386l-23 -99h-81l66 -525h74l-23 -100h-260l23 99h81l-17 136h-282l-80 -136h97l-23 -99h-272z" />
    <glyph glyph-name="B" unicode="B" horiz-adv-x="665" 
d="M2 0l22 100h80l122 524h-91l23 100h242c70 0 124 -9 164 -29c57 -29 93 -83 93 -147c0 -97 -80 -167 -173 -179c73 -21 127 -82 127 -151c0 -63 -23 -114 -66 -150c-35 -30 -84 -50 -146 -60c-32 -6 -67 -8 -106 -8h-291zM289 414h60c121 0 191 43 191 120
c0 33 -17 63 -53 77c-23 10 -56 15 -101 15h-48zM215 98h95c27 0 52 3 72 7c37 7 62 19 81 38c21 20 31 47 31 81c0 64 -59 100 -151 100h-74z" />
    <glyph glyph-name="C" unicode="C" horiz-adv-x="754" 
d="M391 -13c-170 0 -311 115 -311 318c0 234 186 432 414 432c155 0 260 -93 260 -183c0 -50 -35 -91 -79 -91c-40 0 -71 31 -71 70c0 21 10 40 24 52c-14 24 -64 49 -137 49c-160 0 -294 -146 -294 -321c0 -134 78 -223 204 -223c74 0 143 31 206 95l69 -68
c-81 -90 -176 -130 -285 -130z" />
    <glyph glyph-name="D" unicode="D" horiz-adv-x="777" 
d="M2 0l22 100h80l122 524h-91l23 100h235c135 0 225 -39 287 -101c53 -53 80 -129 80 -211c0 -115 -39 -205 -115 -281c-91 -91 -217 -131 -368 -131h-275zM216 100h77c122 0 202 32 266 97c59 58 85 133 85 210c0 56 -19 110 -56 147c-43 43 -107 70 -207 70h-43z" />
    <glyph glyph-name="E" unicode="E" horiz-adv-x="644" 
d="M2 0l22 100h80l122 524h-91l23 100h538l-48 -199h-107l24 100h-227l-49 -209h221l-22 -96h-220l-52 -221h227l25 100h107l-46 -199h-527z" />
    <glyph glyph-name="F" unicode="F" horiz-adv-x="623" 
d="M2 0l22 100h80l122 524h-91l23 100h527l-48 -199h-106l23 100h-216l-52 -223h213l-22 -96h-213l-48 -205h104l-24 -101h-294z" />
    <glyph glyph-name="G" unicode="G" horiz-adv-x="797" 
d="M560 0l10 73c-67 -57 -133 -86 -216 -86c-147 0 -275 122 -275 302c0 244 193 448 437 448c104 0 177 -31 221 -75c30 -29 44 -59 44 -94c0 -51 -39 -84 -78 -84c-40 0 -71 31 -71 69c0 16 6 30 18 45l-3 3c-18 18 -67 33 -131 33c-176 0 -320 -146 -320 -339
c0 -132 85 -206 187 -206c81 0 145 24 192 58l30 126h-189l22 96h301l-87 -369h-92z" />
    <glyph glyph-name="H" unicode="H" horiz-adv-x="841" 
d="M2 0l22 100h80l122 524h-91l23 100h289l-23 -100h-86l-48 -207h347l48 207h-97l23 100h289l-23 -100h-80l-122 -524h91l-23 -100h-288l22 100h86l52 219h-347l-52 -219h97l-23 -100h-288z" />
    <glyph glyph-name="I" unicode="I" horiz-adv-x="407" 
d="M7 0l23 100h87l122 524h-96l23 100h295l-23 -100h-87l-122 -524h96l-22 -100h-296z" />
    <glyph glyph-name="J" unicode="J" horiz-adv-x="630" 
d="M232 -13c-111 0 -208 75 -208 176c0 62 37 101 85 101c36 0 65 -29 65 -64c0 -26 -14 -48 -41 -58c4 -29 42 -54 106 -54c52 0 88 20 114 53c25 31 42 76 54 128l82 355h-119l23 100h306l-23 -100h-78l-85 -369c-19 -80 -46 -142 -82 -185c-48 -57 -113 -83 -199 -83z
" />
    <glyph glyph-name="K" unicode="K" horiz-adv-x="744" 
d="M713 624l-267 -226l141 -297h103l-24 -101h-159l-147 333l-112 -94l-32 -139h96l-23 -100h-287l22 100h80l122 524h-91l23 100h277l-22 -97h-74l-62 -264l296 264h-77l22 97h291l-23 -100h-73z" />
    <glyph glyph-name="L" unicode="L" horiz-adv-x="611" 
d="M2 0l22 100h80l122 524h-91l23 100h296l-23 -100h-93l-122 -525h211l25 105h108l-48 -204h-510z" />
    <glyph glyph-name="M" unicode="M" horiz-adv-x="948" 
d="M0 0l23 100h80l146 524h-91l22 100h178l129 -432l315 432h191l-23 -100h-81l-97 -524h92l-22 -100h-289l23 100h84l80 411l-296 -398h-17l-124 398l-109 -411h97l-23 -100h-288z" />
    <glyph glyph-name="N" unicode="N" horiz-adv-x="824" 
d="M590 -2l-276 534l-100 -432h97l-23 -100h-286l22 100h80l122 524h-91l23 100h183l250 -485l90 385h-97l22 100h286l-23 -100h-79l-145 -626h-55z" />
    <glyph glyph-name="O" unicode="O" horiz-adv-x="815" 
d="M392 -13c-196 0 -313 135 -313 321c0 209 169 429 402 429c195 0 312 -135 312 -321c0 -209 -169 -429 -401 -429zM402 89c158 0 275 167 275 328c0 122 -71 218 -206 218c-158 0 -276 -167 -276 -328c0 -122 72 -218 207 -218z" />
    <glyph glyph-name="P" unicode="P" horiz-adv-x="637" 
d="M361 344c119 0 184 72 184 164c0 54 -32 92 -88 108c-20 6 -42 8 -64 8h-55l-64 -277c25 -2 57 -3 87 -3zM2 0l22 100h80l122 524h-91l23 100h246c34 0 66 -4 94 -12c104 -28 161 -104 161 -200c0 -145 -115 -267 -310 -267c-39 0 -81 1 -99 2l-34 -147h97l-23 -100h-288
z" />
    <glyph glyph-name="Q" unicode="Q" horiz-adv-x="815" 
d="M793 416c0 -187 -135 -382 -329 -421c25 -51 72 -75 126 -75c27 0 54 7 83 21l33 -82c-40 -20 -81 -31 -124 -31c-95 0 -187 53 -237 162c-168 19 -266 147 -266 318c0 209 169 429 402 429c195 0 312 -135 312 -321zM402 89c158 0 275 167 275 328
c0 122 -71 218 -206 218c-158 0 -276 -167 -276 -328c0 -122 72 -218 207 -218z" />
    <glyph glyph-name="Q.alt" horiz-adv-x="815" 
d="M392 -13c-196 0 -313 135 -313 321c0 209 169 429 402 429c195 0 312 -135 312 -321c0 -139 -75 -283 -193 -364l53 -143l-94 -33l-48 131c-37 -12 -77 -20 -119 -20zM402 89c23 0 46 3 68 10l-51 140l94 34l44 -124c74 63 120 167 120 268c0 122 -71 218 -206 218
c-158 0 -276 -167 -276 -328c0 -122 72 -218 207 -218z" />
    <glyph glyph-name="R" unicode="R" horiz-adv-x="677" 
d="M364 373c113 0 181 59 181 142c0 30 -10 54 -28 72c-25 25 -68 37 -130 37h-50l-56 -247c24 -3 49 -4 83 -4zM2 0l22 100h80l122 524h-91l23 100h232c99 0 171 -22 216 -67c35 -35 53 -80 53 -134c0 -111 -74 -198 -197 -231l88 -192h87l-23 -100h-143l-116 278h-21
c-23 0 -49 1 -74 3l-44 -181h93l-23 -100h-284z" />
    <glyph glyph-name="S" unicode="S" horiz-adv-x="632" 
d="M304 -13c-146 0 -261 85 -261 176c0 55 35 91 79 91c39 0 69 -32 69 -69c0 -20 -7 -41 -26 -55c24 -26 76 -46 145 -46c78 0 136 36 136 101c0 54 -43 86 -123 130c-86 48 -173 109 -173 221c0 105 95 201 253 201c143 0 236 -84 236 -158c0 -51 -30 -91 -77 -91
c-39 0 -69 31 -69 69c0 17 6 36 22 51c-12 15 -54 32 -111 32c-86 0 -135 -44 -135 -94c0 -60 53 -97 129 -139c87 -48 167 -109 167 -212c0 -116 -97 -208 -261 -208z" />
    <glyph glyph-name="T" unicode="T" horiz-adv-x="691" 
d="M150 0l23 100h87l123 527h-147l-26 -115h-107l50 212h616l-49 -212h-106l26 115h-145l-123 -527h98l-22 -100h-298z" />
    <glyph glyph-name="U" unicode="U" horiz-adv-x="779" 
d="M358 -13c-145 0 -233 85 -233 217c0 29 6 66 15 101l73 319h-88l23 100h284l-23 -100h-84l-74 -324c-8 -31 -13 -62 -13 -86c0 -82 47 -126 137 -126c96 0 154 63 178 166l85 370h-97l22 100h285l-23 -100h-78l-87 -380c-39 -163 -124 -257 -302 -257z" />
    <glyph glyph-name="V" unicode="V" horiz-adv-x="760" 
d="M290 -9l-113 633h-73l23 100h269l-23 -100h-73l66 -437l261 437h-82l23 100h277l-23 -100h-63l-405 -633h-64z" />
    <glyph glyph-name="W" unicode="W" horiz-adv-x="1081" 
d="M249 -8l-54 632h-78l23 100h282l-23 -100h-91l23 -418l258 443h55l87 -447l196 422h-88l23 100h282l-23 -100h-69l-318 -631h-59l-95 443l-273 -443z" />
    <glyph glyph-name="X" unicode="X" horiz-adv-x="799" 
d="M-13 0l23 100h71l288 277l-148 247h-84l23 100h291l-23 -100h-76l92 -186l174 186h-79l23 100h296l-23 -100h-73l-269 -259l160 -265h83l-23 -100h-283l22 100h78l-110 205l-196 -205h83l-23 -100h-297z" />
    <glyph glyph-name="Y" unicode="Y" horiz-adv-x="720" 
d="M145 0l23 100h88l43 184l-125 340h-71l23 100h265l-23 -100h-78l86 -260l207 260h-78l23 100h278l-22 -100h-67l-311 -361l-38 -163h97l-23 -100h-297z" />
    <glyph glyph-name="Z" unicode="Z" horiz-adv-x="700" 
d="M31 0l-9 62l544 568h-298l-27 -119h-103l50 213h539l9 -62l-545 -568h315l27 119h103l-50 -213h-555z" />
    <glyph glyph-name="a" unicode="a" horiz-adv-x="676" 
d="M217 -9c-98 0 -168 78 -168 198c0 173 118 323 264 323c72 0 128 -55 147 -116l33 108h105l-88 -351c-6 -22 -9 -41 -9 -53c0 -21 10 -33 28 -33c17 0 41 15 65 82l48 -18c-32 -107 -90 -140 -145 -140c-63 0 -100 43 -100 108v2c-42 -61 -104 -110 -180 -110zM266 86
c94 0 172 102 172 211c0 71 -36 117 -109 117c-92 0 -164 -102 -164 -211c0 -67 34 -117 101 -117z" />
    <glyph glyph-name="b" unicode="b" horiz-adv-x="632" 
d="M29 0l174 755h-94l24 94h201l-101 -437c39 55 102 100 166 100c119 0 183 -81 183 -201c0 -174 -120 -320 -268 -320c-71 0 -134 47 -150 111l-31 -102h-104zM298 89c94 0 168 100 168 208c0 68 -38 120 -107 120c-94 0 -175 -102 -175 -212c0 -70 39 -116 114 -116z" />
    <glyph glyph-name="c" unicode="c" horiz-adv-x="568" 
d="M291 -9c-136 0 -243 84 -243 225c0 161 136 296 296 296c107 0 186 -64 186 -144c0 -46 -28 -84 -72 -84c-35 0 -65 27 -65 66c0 17 8 34 20 46c-16 15 -41 23 -72 23c-84 0 -180 -68 -180 -196c0 -87 59 -139 139 -139c58 0 118 22 169 60l-1 -101
c-48 -34 -110 -52 -177 -52z" />
    <glyph glyph-name="d" unicode="d" horiz-adv-x="676" 
d="M50 189c0 174 118 323 262 323c71 0 127 -54 147 -111l82 354h-94l25 94h202l-162 -696c-6 -23 -9 -41 -9 -53c0 -21 9 -33 27 -33s41 15 66 82l48 -18c-32 -107 -91 -140 -146 -140c-62 0 -100 43 -100 109v1c-42 -61 -103 -110 -180 -110c-97 0 -168 78 -168 198z
M267 86c94 0 171 100 171 210c0 72 -37 118 -109 118c-92 0 -163 -101 -163 -210c0 -68 34 -118 101 -118z" />
    <glyph glyph-name="e" unicode="e" horiz-adv-x="575" 
d="M511 215h-354v-14c0 -67 55 -117 148 -117c52 0 102 11 166 45l-22 -103c-53 -26 -96 -35 -169 -35c-121 0 -233 76 -233 214c0 171 124 307 274 307c125 0 209 -69 209 -190c0 -32 -6 -68 -19 -107zM322 420c-69 0 -125 -50 -151 -126h247c4 14 6 28 6 40
c0 51 -34 86 -102 86z" />
    <glyph glyph-name="f" unicode="f" horiz-adv-x="393" 
d="M54 0l94 409h-89l25 94h85l29 125c18 80 46 131 82 168c42 42 99 61 152 61c70 0 104 -40 104 -79c0 -43 -32 -71 -70 -71c-34 0 -61 23 -66 53c-15 -3 -29 -12 -39 -22c-22 -22 -40 -61 -54 -121l-27 -114h132l-24 -94h-129l-94 -409h-111z" />
    <glyph glyph-name="g" unicode="g" horiz-adv-x="630" 
d="M281 103c93 0 166 92 166 198c0 69 -49 113 -116 113c-92 0 -164 -88 -164 -198c0 -69 48 -113 114 -113zM224 -232c-71 0 -148 28 -179 60c-23 22 -31 42 -31 69c0 43 30 71 67 71c38 0 67 -30 67 -66c0 -10 -3 -22 -7 -29c13 -8 42 -17 78 -17c46 0 80 12 108 40
c25 25 40 65 52 118l21 91c-43 -59 -100 -97 -169 -97c-114 0 -180 80 -180 199c0 162 109 305 265 305c83 0 132 -58 151 -110l32 102h103l-119 -516c-16 -67 -36 -118 -73 -156c-44 -43 -103 -64 -186 -64z" />
    <glyph glyph-name="h" unicode="h" horiz-adv-x="638" 
d="M29 0l174 755h-94l24 94h201l-103 -444c36 56 95 107 160 107c75 0 137 -52 137 -145c0 -26 -4 -53 -12 -83l-40 -143c-4 -15 -6 -28 -6 -38c0 -23 11 -36 29 -36c19 0 41 15 65 82l48 -18c-29 -96 -78 -140 -143 -140c-73 0 -111 44 -111 106c0 17 2 37 8 56l40 146
c5 18 7 33 7 48c-1 44 -30 72 -74 72c-59 0 -110 -46 -132 -139l-65 -280h-113z" />
    <glyph glyph-name="i" unicode="i" horiz-adv-x="375" 
d="M248 582c-39 0 -72 32 -72 72s33 71 72 71s72 -31 72 -71s-33 -72 -72 -72zM190 -9c-72 0 -109 43 -109 106c0 17 3 37 7 56l66 256h-93l24 94h206l-91 -350c-5 -21 -8 -40 -8 -52c0 -22 12 -34 30 -34c22 0 44 15 68 82l48 -18c-32 -107 -85 -140 -148 -140z" />
    <glyph glyph-name="j" unicode="j" horiz-adv-x="349" 
d="M266 582c-39 0 -71 32 -71 72s32 71 71 71s72 -31 72 -71s-33 -72 -72 -72zM-20 -228c-62 0 -99 34 -99 75c0 37 29 65 65 65c28 0 54 -19 61 -42c14 2 28 12 40 37c16 29 32 79 51 163l78 339h-97l25 94h205l-102 -440c-31 -133 -62 -200 -103 -241
c-31 -31 -78 -50 -124 -50z" />
    <glyph glyph-name="k" unicode="k" horiz-adv-x="585" 
d="M142 0h-113l174 755h-94l24 94h201l-135 -582c135 45 201 86 221 120c-21 14 -32 34 -32 56c0 38 31 69 70 69c40 0 73 -31 73 -79c0 -77 -66 -145 -193 -203l49 -109c9 -21 16 -35 24 -43c7 -8 13 -10 21 -10c16 0 33 18 53 93l48 -15c-28 -128 -76 -155 -129 -155
c-22 0 -45 6 -65 23c-17 14 -32 34 -44 62l-53 128c-18 -7 -38 -14 -57 -20z" />
    <glyph glyph-name="l" unicode="l" horiz-adv-x="357" 
d="M169 -9c-72 0 -108 43 -108 107c0 17 3 35 7 54l140 603h-94l24 94h204l-161 -696c-5 -20 -9 -37 -9 -49c0 -25 10 -37 29 -37c22 0 44 15 69 82l47 -18c-32 -107 -85 -140 -148 -140z" />
    <glyph glyph-name="m" unicode="m" horiz-adv-x="946" 
d="M52 0l103 409h-93l24 94h187l-27 -117c38 68 100 126 165 126c73 0 120 -50 127 -126c45 77 108 126 168 126c72 0 129 -52 129 -145c0 -26 -4 -53 -13 -83l-40 -143c-4 -14 -6 -28 -6 -38c0 -23 10 -36 29 -36s41 15 65 82l48 -18c-29 -96 -79 -140 -143 -140
c-74 0 -112 44 -112 106c0 17 3 38 9 56l39 140c6 20 9 38 9 54c0 45 -30 72 -67 72c-54 0 -103 -49 -126 -145l-69 -274h-114l75 291c5 21 9 43 9 58c0 40 -29 70 -68 70c-54 0 -103 -50 -127 -145l-68 -274h-113z" />
    <glyph glyph-name="n" unicode="n" horiz-adv-x="665" 
d="M493 -9c-73 0 -111 44 -111 106c0 17 3 38 9 56l41 146c5 18 7 33 7 48c0 44 -29 72 -73 72c-59 0 -108 -47 -131 -138l-70 -281h-113l103 409h-93l24 94h187l-27 -117c38 68 105 126 174 126c75 0 134 -52 134 -145c0 -26 -4 -53 -13 -83l-40 -143c-4 -14 -6 -28 -6 -38
c0 -23 10 -36 29 -36s40 15 65 82l47 -18c-28 -96 -78 -140 -143 -140z" />
    <glyph glyph-name="o" unicode="o" horiz-adv-x="612" 
d="M279 -9c-147 0 -231 105 -231 225c0 153 120 296 285 296c147 0 231 -104 231 -225c0 -153 -120 -296 -285 -296zM283 84c93 0 168 89 168 203c0 85 -55 132 -122 132c-93 0 -168 -89 -168 -203c0 -85 55 -132 122 -132z" />
    <glyph glyph-name="p" unicode="p" horiz-adv-x="658" 
d="M323 89c95 0 168 100 168 208c0 68 -38 120 -106 120c-95 0 -175 -101 -175 -211c0 -71 38 -117 113 -117zM-75 -227l24 92h74l128 544h-95l24 94h190l-25 -111c42 64 106 120 184 120c114 0 178 -81 178 -201c0 -174 -119 -320 -268 -320c-74 0 -126 51 -151 110
l-54 -236h94l-24 -92h-279z" />
    <glyph glyph-name="q" unicode="q" horiz-adv-x="630" 
d="M227 -9c-115 0 -178 80 -178 200c0 173 119 321 269 321c76 0 129 -56 148 -110l32 101h102l-146 -636h102l-24 -94h-210l72 312c-41 -53 -98 -94 -167 -94zM271 86c98 0 175 102 175 211c0 71 -37 117 -111 117c-95 0 -170 -100 -170 -209c0 -68 38 -119 106 -119z" />
    <glyph glyph-name="r" unicode="r" horiz-adv-x="489" 
d="M52 0l103 409h-93l24 94h187l-32 -143c61 101 120 152 176 152c41 0 78 -31 78 -75c0 -41 -33 -75 -74 -75c-37 0 -64 26 -70 54c-37 -15 -103 -82 -129 -189l-57 -227h-113z" />
    <glyph glyph-name="s" unicode="s" horiz-adv-x="522" 
d="M244 -9c-79 0 -147 26 -184 64c-20 20 -32 43 -32 68c0 40 26 68 62 68c33 0 58 -27 58 -59c0 -11 -4 -24 -9 -31c4 -4 10 -8 18 -12c23 -11 55 -17 89 -17c51 0 95 18 95 55c0 41 -52 60 -108 85c-68 29 -137 64 -137 146s69 154 200 154c69 0 129 -22 162 -57
c19 -19 30 -42 30 -66c0 -41 -29 -67 -62 -67c-32 0 -60 27 -60 59c0 11 2 17 9 31c-4 3 -9 6 -17 9c-16 6 -39 10 -63 10c-47 0 -89 -17 -89 -53c0 -37 52 -58 110 -84c68 -31 135 -68 135 -147c0 -100 -80 -156 -207 -156z" />
    <glyph glyph-name="t" unicode="t" horiz-adv-x="428" 
d="M418 409h-153l-60 -242c-4 -18 -8 -35 -8 -46c0 -30 17 -43 38 -43c27 0 50 9 100 42l38 -53c-67 -60 -125 -76 -174 -76c-64 0 -116 35 -116 112c0 18 4 40 9 64l60 242h-91l21 94h93l28 112l124 44l-39 -156h154z" />
    <glyph glyph-name="u" unicode="u" horiz-adv-x="666" 
d="M84 503h204l-75 -299c-4 -16 -7 -33 -7 -48c0 -45 25 -72 67 -72c64 0 111 49 133 138l70 281h113l-88 -350c-5 -22 -9 -41 -9 -53c0 -21 10 -33 28 -33s41 15 66 82l47 -18c-32 -107 -89 -140 -145 -140c-62 0 -100 43 -100 109v3c-42 -67 -103 -112 -169 -112
c-69 0 -129 51 -129 135c0 26 5 57 13 88l48 195h-92z" />
    <glyph glyph-name="v" unicode="v" horiz-adv-x="581" 
d="M197 -12l-79 421h-86l24 94h158l57 -390c87 94 148 184 167 257c-26 10 -49 34 -49 69c0 41 31 73 73 73c48 0 83 -36 83 -95c0 -111 -104 -265 -270 -429h-78z" />
    <glyph glyph-name="w" unicode="w" horiz-adv-x="817" 
d="M168 -12l-45 421h-92l24 94h165l20 -375l171 320h68l65 -327c65 99 120 192 128 253c-26 8 -51 31 -51 68c0 39 31 70 70 70c49 0 83 -35 83 -94c0 -81 -70 -220 -222 -430h-70l-64 295l-171 -295h-79z" />
    <glyph glyph-name="x" unicode="x" horiz-adv-x="630" 
d="M96 -9c-54 0 -88 34 -88 75c0 36 29 65 64 65c27 0 46 -15 55 -35c22 4 49 31 81 79l49 70l-66 164h-99l25 94h147l60 -168l38 59c50 82 106 118 159 118c51 0 86 -33 86 -74c0 -36 -30 -65 -65 -65c-27 0 -46 15 -56 34c-17 -4 -46 -34 -74 -77l-44 -67l54 -133
c24 -55 32 -61 45 -61c14 0 29 14 52 81l48 -14c-25 -108 -70 -145 -125 -145c-49 0 -82 26 -109 96l-34 87l-42 -68c-50 -82 -104 -115 -161 -115z" />
    <glyph glyph-name="y" unicode="y" horiz-adv-x="586" 
d="M-5 -232c-55 0 -92 37 -92 77s31 68 67 68c29 0 54 -19 62 -48c27 2 75 41 173 159l-79 385h-87l24 94h158l64 -391c77 99 141 189 160 258c-27 10 -50 35 -50 70c0 40 32 72 74 72c51 0 83 -37 83 -96c0 -63 -38 -163 -225 -393c-185 -225 -254 -255 -332 -255z" />
    <glyph glyph-name="z" unicode="z" horiz-adv-x="565" 
d="M49 -9l-41 62l392 362h-200l-23 -93h-96l45 181h390l32 -68l-375 -346c27 8 44 12 75 12c43 0 92 -19 123 -19c55 0 71 28 95 98l44 -10c-17 -89 -47 -179 -146 -179c-46 0 -137 29 -190 29c-51 0 -88 -11 -125 -29z" />
    <glyph glyph-name="Aacute" unicode="&#xc1;" horiz-adv-x="785" 
d="M517 793l-29 36l144 149c17 17 35 27 56 27c28 0 50 -24 50 -51c0 -25 -16 -47 -40 -61zM309 329h216l-37 304zM-24 0l23 100h66l309 525h-87l23 99h386l-23 -99h-81l66 -525h74l-23 -100h-260l23 99h81l-17 136h-282l-80 -136h97l-23 -99h-272z" />
    <glyph glyph-name="aacute" unicode="&#xe1;" horiz-adv-x="676" 
d="M379 580l-31 37l155 156c17 18 37 28 58 28c29 0 52 -25 52 -54c0 -25 -17 -48 -42 -63zM217 -9c-98 0 -168 78 -168 198c0 173 118 323 264 323c72 0 128 -55 147 -116l33 108h105l-88 -351c-6 -22 -9 -41 -9 -53c0 -21 10 -33 28 -33c17 0 41 15 65 82l48 -18
c-32 -107 -90 -140 -145 -140c-63 0 -100 43 -100 108v2c-42 -61 -104 -110 -180 -110zM266 86c94 0 172 102 172 211c0 71 -36 117 -109 117c-92 0 -164 -102 -164 -211c0 -67 34 -117 101 -117z" />
    <glyph glyph-name="Abreve" unicode="&#x102;" horiz-adv-x="785" 
d="M536 798c-90 0 -151 64 -156 187l67 22c18 -75 48 -113 106 -113c47 0 91 27 144 111l59 -28c-53 -123 -141 -179 -220 -179zM309 329h216l-37 304zM-24 0l23 100h66l309 525h-87l23 99h386l-23 -99h-81l66 -525h74l-23 -100h-260l23 99h81l-17 136h-282l-80 -136h97
l-23 -99h-272z" />
    <glyph glyph-name="abreve" unicode="&#x103;" horiz-adv-x="676" 
d="M401 584c-94 0 -158 68 -163 195l69 22c19 -77 51 -117 111 -117c51 0 97 29 152 115l61 -28c-55 -128 -147 -187 -230 -187zM217 -9c-98 0 -168 78 -168 198c0 173 118 323 264 323c72 0 128 -55 147 -116l33 108h105l-88 -351c-6 -22 -9 -41 -9 -53
c0 -21 10 -33 28 -33c17 0 41 15 65 82l48 -18c-32 -107 -90 -140 -145 -140c-63 0 -100 43 -100 108v2c-42 -61 -104 -110 -180 -110zM266 86c94 0 172 102 172 211c0 71 -36 117 -109 117c-92 0 -164 -102 -164 -211c0 -67 34 -117 101 -117z" />
    <glyph glyph-name="Acircumflex" unicode="&#xc2;" horiz-adv-x="785" 
d="M392 790l-41 55l228 182l136 -188l-53 -46l-104 107zM309 329h216l-37 304zM-24 0l23 100h66l309 525h-87l23 99h386l-23 -99h-81l66 -525h74l-23 -100h-260l23 99h81l-17 136h-282l-80 -136h97l-23 -99h-272z" />
    <glyph glyph-name="acircumflex" unicode="&#xe2;" horiz-adv-x="676" 
d="M250 577l-43 56l238 190l143 -197l-54 -47l-110 112zM217 -9c-98 0 -168 78 -168 198c0 173 118 323 264 323c72 0 128 -55 147 -116l33 108h105l-88 -351c-6 -22 -9 -41 -9 -53c0 -21 10 -33 28 -33c17 0 41 15 65 82l48 -18c-32 -107 -90 -140 -145 -140
c-63 0 -100 43 -100 108v2c-42 -61 -104 -110 -180 -110zM266 86c94 0 172 102 172 211c0 71 -36 117 -109 117c-92 0 -164 -102 -164 -211c0 -67 34 -117 101 -117z" />
    <glyph glyph-name="Adieresis" unicode="&#xc4;" horiz-adv-x="785" 
d="M439 809c-40 0 -74 33 -74 75c0 41 36 74 76 74c41 0 74 -33 74 -74c0 -42 -35 -75 -76 -75zM656 809c-41 0 -74 33 -74 75c0 41 35 74 76 74c40 0 74 -33 74 -74c0 -42 -36 -75 -76 -75zM309 329h216l-37 304zM-24 0l23 100h66l309 525h-87l23 99h386l-23 -99h-81
l66 -525h74l-23 -100h-260l23 99h81l-17 136h-282l-80 -136h97l-23 -99h-272z" />
    <glyph glyph-name="adieresis" unicode="&#xe4;" horiz-adv-x="676" 
d="M300 597c-42 0 -77 34 -77 77s36 78 78 78c43 0 78 -35 78 -78s-37 -77 -79 -77zM526 597c-42 0 -77 34 -77 77s36 78 79 78c42 0 77 -35 77 -78s-37 -77 -79 -77zM217 -9c-98 0 -168 78 -168 198c0 173 118 323 264 323c72 0 128 -55 147 -116l33 108h105l-88 -351
c-6 -22 -9 -41 -9 -53c0 -21 10 -33 28 -33c17 0 41 15 65 82l48 -18c-32 -107 -90 -140 -145 -140c-63 0 -100 43 -100 108v2c-42 -61 -104 -110 -180 -110zM266 86c94 0 172 102 172 211c0 71 -36 117 -109 117c-92 0 -164 -102 -164 -211c0 -67 34 -117 101 -117z" />
    <glyph glyph-name="AE" unicode="&#xc6;" horiz-adv-x="1034" 
d="M368 328h182l70 300h-37zM-11 0l24 100h81l379 524h-90l23 100h680l-48 -199h-106l23 100h-225l-48 -209h218l-22 -96h-218l-51 -221h224l26 100h106l-46 -199h-528l22 100h84l31 135h-225l-98 -136h89l-23 -99h-282z" />
    <glyph glyph-name="ae" unicode="&#xe6;" horiz-adv-x="943" 
d="M882 215h-354v-14c0 -67 55 -117 148 -117c52 0 103 11 166 45l-22 -103c-52 -26 -96 -35 -160 -35c-106 0 -180 55 -206 142c-50 -87 -145 -142 -249 -142c-102 0 -167 59 -167 128c0 116 105 177 257 177h128c-9 80 -66 135 -141 135c-11 0 -17 0 -26 -2l-12 -4
c3 -6 5 -11 5 -20c0 -33 -27 -61 -60 -61c-40 0 -64 30 -64 67c0 32 21 63 61 83c24 11 56 18 94 18c108 0 180 -53 203 -143c37 83 125 143 215 143c119 0 203 -69 203 -190c0 -32 -6 -68 -19 -107zM693 420c-69 0 -125 -50 -151 -126h247c4 14 6 28 6 40
c0 51 -34 86 -102 86zM216 83c82 0 173 50 200 136h-91c-137 0 -183 -37 -183 -84c0 -31 24 -52 74 -52z" />
    <glyph glyph-name="AEacute" unicode="&#x1fc;" horiz-adv-x="1034" 
d="M706 793l-29 36l144 149c17 17 35 27 56 27c28 0 50 -24 50 -51c0 -25 -16 -47 -40 -61zM368 328h182l70 300h-37zM-11 0l24 100h81l379 524h-90l23 100h680l-48 -199h-106l23 100h-225l-48 -209h218l-22 -96h-218l-51 -221h224l26 100h106l-46 -199h-528l22 100h84
l31 135h-225l-98 -136h89l-23 -99h-282z" />
    <glyph glyph-name="aeacute" unicode="&#x1fd;" horiz-adv-x="943" 
d="M537 580l-31 37l155 156c17 18 37 28 58 28c29 0 52 -25 52 -54c0 -25 -17 -48 -42 -63zM882 215h-354v-14c0 -67 55 -117 148 -117c52 0 103 11 166 45l-22 -103c-52 -26 -96 -35 -160 -35c-106 0 -180 55 -206 142c-50 -87 -145 -142 -249 -142
c-102 0 -167 59 -167 128c0 116 105 177 257 177h128c-9 80 -66 135 -141 135c-11 0 -17 0 -26 -2l-12 -4c3 -6 5 -11 5 -20c0 -33 -27 -61 -60 -61c-40 0 -64 30 -64 67c0 32 21 63 61 83c24 11 56 18 94 18c108 0 180 -53 203 -143c37 83 125 143 215 143
c119 0 203 -69 203 -190c0 -32 -6 -68 -19 -107zM693 420c-69 0 -125 -50 -151 -126h247c4 14 6 28 6 40c0 51 -34 86 -102 86zM216 83c82 0 173 50 200 136h-91c-137 0 -183 -37 -183 -84c0 -31 24 -52 74 -52z" />
    <glyph glyph-name="Agrave" unicode="&#xc0;" horiz-adv-x="785" 
d="M542 780l-127 117c-18 17 -25 35 -25 53c0 32 26 56 53 56c29 0 45 -16 59 -44l77 -156zM309 329h216l-37 304zM-24 0l23 100h66l309 525h-87l23 99h386l-23 -99h-81l66 -525h74l-23 -100h-260l23 99h81l-17 136h-282l-80 -136h97l-23 -99h-272z" />
    <glyph glyph-name="agrave" unicode="&#xe0;" horiz-adv-x="676" 
d="M408 566l-134 122c-20 18 -27 36 -27 56c0 32 27 57 55 57c30 0 47 -16 62 -45l83 -162zM217 -9c-98 0 -168 78 -168 198c0 173 118 323 264 323c72 0 128 -55 147 -116l33 108h105l-88 -351c-6 -22 -9 -41 -9 -53c0 -21 10 -33 28 -33c17 0 41 15 65 82l48 -18
c-32 -107 -90 -140 -145 -140c-63 0 -100 43 -100 108v2c-42 -61 -104 -110 -180 -110zM266 86c94 0 172 102 172 211c0 71 -36 117 -109 117c-92 0 -164 -102 -164 -211c0 -67 34 -117 101 -117z" />
    <glyph glyph-name="Amacron" unicode="&#x100;" horiz-adv-x="785" 
d="M359 825l21 88h353l-20 -88h-354zM309 329h216l-37 304zM-24 0l23 100h66l309 525h-87l23 99h386l-23 -99h-81l66 -525h74l-23 -100h-260l23 99h81l-17 136h-282l-80 -136h97l-23 -99h-272z" />
    <glyph glyph-name="amacron" unicode="&#x101;" horiz-adv-x="676" 
d="M215 613l22 91h370l-20 -91h-372zM217 -9c-98 0 -168 78 -168 198c0 173 118 323 264 323c72 0 128 -55 147 -116l33 108h105l-88 -351c-6 -22 -9 -41 -9 -53c0 -21 10 -33 28 -33c17 0 41 15 65 82l48 -18c-32 -107 -90 -140 -145 -140c-63 0 -100 43 -100 108v2
c-42 -61 -104 -110 -180 -110zM266 86c94 0 172 102 172 211c0 71 -36 117 -109 117c-92 0 -164 -102 -164 -211c0 -67 34 -117 101 -117z" />
    <glyph glyph-name="Aogonek" unicode="&#x104;" horiz-adv-x="785" 
d="M-24 0l23 100h66l309 525h-87l23 99h386l-23 -99h-81l66 -525h74l-23 -100h-87c-43 -34 -71 -68 -71 -99c0 -24 16 -37 44 -37c22 0 45 4 60 9l-17 -68c-17 -13 -48 -26 -89 -26c-50 0 -95 31 -95 88c0 50 32 94 81 133h-86l23 99h81l-17 136h-282l-80 -136h97l-23 -99
h-272zM309 329h216l-37 304z" />
    <glyph glyph-name="aogonek" unicode="&#x105;" horiz-adv-x="676" 
d="M397 100v1c-42 -61 -104 -110 -180 -110c-98 0 -168 78 -168 198c0 173 118 323 264 323c72 0 128 -55 147 -116l33 108h105l-88 -351c-6 -22 -9 -41 -9 -53c0 -20 9 -33 28 -33c17 0 41 15 65 82l48 -18c-18 -58 -38 -86 -72 -117c-46 -43 -101 -71 -101 -120
c0 -25 17 -39 47 -39c23 0 47 4 63 9l-18 -71c-17 -13 -50 -26 -92 -26c-53 0 -100 32 -100 93c0 57 39 102 90 138c-37 15 -62 44 -62 102zM266 86c94 0 172 102 172 211c0 71 -36 117 -109 117c-92 0 -164 -102 -164 -211c0 -67 34 -117 101 -117z" />
    <glyph glyph-name="Aring" unicode="&#xc5;" horiz-adv-x="785" 
d="M504 745c39 0 67 38 67 81c0 29 -17 54 -45 54c-39 0 -67 -39 -67 -81c0 -29 17 -54 45 -54zM309 329h216l-37 304zM-24 0l23 100h66l309 525h-87l23 99h111c-26 19 -38 54 -38 88c0 65 62 138 149 138c77 0 119 -57 119 -113c0 -45 -22 -89 -65 -113h110l-23 -99h-81
l66 -525h74l-23 -100h-260l23 99h81l-17 136h-282l-80 -136h97l-23 -99h-272z" />
    <glyph glyph-name="aring" unicode="&#xe5;" horiz-adv-x="676" 
d="M411 581c-79 0 -125 57 -125 124c0 86 68 164 159 164c78 0 125 -57 125 -124c0 -86 -69 -164 -159 -164zM416 653c41 0 71 41 71 86c0 31 -18 57 -48 57c-41 0 -71 -40 -71 -85c0 -31 19 -58 48 -58zM217 -9c-98 0 -168 78 -168 198c0 173 118 323 264 323
c72 0 128 -55 147 -116l33 108h105l-88 -351c-6 -22 -9 -41 -9 -53c0 -21 10 -33 28 -33c17 0 41 15 65 82l48 -18c-32 -107 -90 -140 -145 -140c-63 0 -100 43 -100 108v2c-42 -61 -104 -110 -180 -110zM266 86c94 0 172 102 172 211c0 71 -36 117 -109 117
c-92 0 -164 -102 -164 -211c0 -67 34 -117 101 -117z" />
    <glyph glyph-name="Aringacute" unicode="&#x1fa;" horiz-adv-x="785" 
d="M567 1007l-29 36l144 149c17 17 35 27 56 27c28 0 50 -24 50 -51c0 -25 -16 -47 -40 -61zM504 745c39 0 67 38 67 81c0 29 -17 54 -45 54c-39 0 -67 -39 -67 -81c0 -29 17 -54 45 -54zM309 329h216l-37 304zM-24 0l23 100h66l309 525h-87l23 99h111c-26 19 -38 54 -38 88
c0 65 62 138 149 138c77 0 119 -57 119 -113c0 -45 -22 -89 -65 -113h110l-23 -99h-81l66 -525h74l-23 -100h-260l23 99h81l-17 136h-282l-80 -136h97l-23 -99h-272z" />
    <glyph glyph-name="aringacute" unicode="&#x1fb;" horiz-adv-x="676" 
d="M480 933l-31 37l155 156c17 18 37 28 58 28c29 0 52 -25 52 -54c0 -25 -17 -48 -42 -63zM411 581c-79 0 -125 57 -125 124c0 86 68 164 159 164c78 0 125 -57 125 -124c0 -86 -69 -164 -159 -164zM416 653c41 0 71 41 71 86c0 31 -18 57 -48 57c-41 0 -71 -40 -71 -85
c0 -31 19 -58 48 -58zM217 -9c-98 0 -168 78 -168 198c0 173 118 323 264 323c72 0 128 -55 147 -116l33 108h105l-88 -351c-6 -22 -9 -41 -9 -53c0 -21 10 -33 28 -33c17 0 41 15 65 82l48 -18c-32 -107 -90 -140 -145 -140c-63 0 -100 43 -100 108v2
c-42 -61 -104 -110 -180 -110zM266 86c94 0 172 102 172 211c0 71 -36 117 -109 117c-92 0 -164 -102 -164 -211c0 -67 34 -117 101 -117z" />
    <glyph glyph-name="Atilde" unicode="&#xc3;" horiz-adv-x="785" 
d="M622 795c-43 0 -70 23 -94 46c-25 24 -38 34 -56 34c-28 0 -49 -17 -76 -74l-62 25c26 97 88 154 144 154c43 0 70 -23 94 -46c25 -24 38 -34 56 -34c28 0 49 16 76 73l62 -24c-26 -97 -88 -154 -144 -154zM309 329h216l-37 304zM-24 0l23 100h66l309 525h-87l23 99h386
l-23 -99h-81l66 -525h74l-23 -100h-260l23 99h81l-17 136h-282l-80 -136h97l-23 -99h-272z" />
    <glyph glyph-name="atilde" unicode="&#xe3;" horiz-adv-x="676" 
d="M490 581c-45 0 -74 24 -99 48c-26 26 -40 36 -59 36c-29 0 -52 -18 -79 -77l-65 25c28 101 92 160 150 160c46 0 74 -23 99 -48c26 -25 40 -35 59 -35c29 0 52 17 80 77l64 -26c-27 -100 -91 -160 -150 -160zM217 -9c-98 0 -168 78 -168 198c0 173 118 323 264 323
c72 0 128 -55 147 -116l33 108h105l-88 -351c-6 -22 -9 -41 -9 -53c0 -21 10 -33 28 -33c17 0 41 15 65 82l48 -18c-32 -107 -90 -140 -145 -140c-63 0 -100 43 -100 108v2c-42 -61 -104 -110 -180 -110zM266 86c94 0 172 102 172 211c0 71 -36 117 -109 117
c-92 0 -164 -102 -164 -211c0 -67 34 -117 101 -117z" />
    <glyph glyph-name="Cacute" unicode="&#x106;" horiz-adv-x="754" 
d="M503 793l-29 36l144 149c17 17 35 27 56 27c28 0 50 -24 50 -51c0 -25 -16 -47 -40 -61zM391 -13c-170 0 -311 115 -311 318c0 234 186 432 414 432c155 0 260 -93 260 -183c0 -50 -35 -91 -79 -91c-40 0 -71 31 -71 70c0 21 10 40 24 52c-14 24 -64 49 -137 49
c-160 0 -294 -146 -294 -321c0 -134 78 -223 204 -223c74 0 143 31 206 95l69 -68c-81 -90 -176 -130 -285 -130z" />
    <glyph glyph-name="cacute" unicode="&#x107;" horiz-adv-x="568" 
d="M362 580l-31 37l155 156c17 18 37 28 58 28c29 0 52 -25 52 -54c0 -25 -17 -48 -42 -63zM291 -9c-136 0 -243 84 -243 225c0 161 136 296 296 296c107 0 186 -64 186 -144c0 -46 -28 -84 -72 -84c-35 0 -65 27 -65 66c0 17 8 34 20 46c-16 15 -41 23 -72 23
c-84 0 -180 -68 -180 -196c0 -87 59 -139 139 -139c58 0 118 22 169 60l-1 -101c-48 -34 -110 -52 -177 -52z" />
    <glyph glyph-name="Ccaron" unicode="&#x10c;" horiz-adv-x="754" 
d="M516 783l-136 189l52 45l104 -107l167 110l41 -54zM391 -13c-170 0 -311 115 -311 318c0 234 186 432 414 432c155 0 260 -93 260 -183c0 -50 -35 -91 -79 -91c-40 0 -71 31 -71 70c0 21 10 40 24 52c-14 24 -64 49 -137 49c-160 0 -294 -146 -294 -321
c0 -134 78 -223 204 -223c74 0 143 31 206 95l69 -68c-81 -90 -176 -130 -285 -130z" />
    <glyph glyph-name="ccaron" unicode="&#x10d;" horiz-adv-x="568" 
d="M375 570l-142 197l54 47l109 -112l175 114l42 -56zM291 -9c-136 0 -243 84 -243 225c0 161 136 296 296 296c107 0 186 -64 186 -144c0 -46 -28 -84 -72 -84c-35 0 -65 27 -65 66c0 17 8 34 20 46c-16 15 -41 23 -72 23c-84 0 -180 -68 -180 -196c0 -87 59 -139 139 -139
c58 0 118 22 169 60l-1 -101c-48 -34 -110 -52 -177 -52z" />
    <glyph glyph-name="Ccedilla" unicode="&#xc7;" horiz-adv-x="754" 
d="M321 -220c-52 0 -102 23 -133 47l22 34c31 -19 69 -30 105 -30c24 0 43 13 43 29c0 18 -19 35 -72 29l-16 25l49 80c-136 28 -239 137 -239 311c0 234 186 432 414 432c155 0 260 -93 260 -183c0 -50 -35 -91 -79 -91c-40 0 -71 31 -71 70c0 21 10 40 24 52
c-14 24 -64 49 -137 49c-160 0 -294 -146 -294 -321c0 -134 78 -223 204 -223c74 0 143 31 206 95l69 -68c-81 -90 -176 -130 -285 -130c-9 0 -18 1 -27 1l-10 -40c63 -9 98 -41 98 -84c0 -51 -55 -84 -131 -84z" />
    <glyph glyph-name="ccedilla" unicode="&#xe7;" horiz-adv-x="568" 
d="M209 -232c-55 0 -108 25 -141 50l24 35c32 -19 73 -32 111 -32c26 0 45 15 45 32c0 19 -20 36 -75 30l-17 26l56 92c-96 27 -164 103 -164 215c0 161 136 296 296 296c107 0 186 -64 186 -144c0 -46 -28 -84 -72 -84c-35 0 -65 27 -65 66c0 17 8 34 20 46
c-16 15 -41 23 -72 23c-84 0 -180 -68 -180 -196c0 -87 59 -139 139 -139c58 0 118 22 169 60l-1 -101c-48 -34 -110 -52 -177 -52c-12 0 -24 1 -35 2l-12 -48c65 -9 102 -44 102 -89c0 -53 -58 -88 -137 -88z" />
    <glyph glyph-name="Cdotaccent" unicode="&#x10a;" horiz-adv-x="754" 
d="M537 809c-41 0 -75 33 -75 75c0 41 36 75 77 75c40 0 74 -34 74 -75c0 -42 -35 -75 -76 -75zM391 -13c-170 0 -311 115 -311 318c0 234 186 432 414 432c155 0 260 -93 260 -183c0 -50 -35 -91 -79 -91c-40 0 -71 31 -71 70c0 21 10 40 24 52c-14 24 -64 49 -137 49
c-160 0 -294 -146 -294 -321c0 -134 78 -223 204 -223c74 0 143 31 206 95l69 -68c-81 -90 -176 -130 -285 -130z" />
    <glyph glyph-name="cdotaccent" unicode="&#x10b;" horiz-adv-x="568" 
d="M397 596c-43 0 -78 35 -78 78c0 44 37 79 80 79c42 0 77 -35 77 -79c0 -43 -37 -78 -79 -78zM291 -9c-136 0 -243 84 -243 225c0 161 136 296 296 296c107 0 186 -64 186 -144c0 -46 -28 -84 -72 -84c-35 0 -65 27 -65 66c0 17 8 34 20 46c-16 15 -41 23 -72 23
c-84 0 -180 -68 -180 -196c0 -87 59 -139 139 -139c58 0 118 22 169 60l-1 -101c-48 -34 -110 -52 -177 -52z" />
    <glyph glyph-name="Dcaron" unicode="&#x10e;" horiz-adv-x="777" 
d="M479 783l-136 189l52 45l104 -107l167 110l41 -54zM2 0l22 100h80l122 524h-91l23 100h235c135 0 225 -39 287 -101c53 -53 80 -129 80 -211c0 -115 -39 -205 -115 -281c-91 -91 -217 -131 -368 -131h-275zM216 100h77c122 0 202 32 266 97c59 58 85 133 85 210
c0 56 -19 110 -56 147c-43 43 -107 70 -207 70h-43z" />
    <glyph glyph-name="dcaron" unicode="&#x10f;" horiz-adv-x="676" 
d="M685 565l-30 27c47 53 61 90 69 122c8 38 1 73 14 114c8 30 29 51 64 51c37 0 59 -26 59 -63c0 -49 -26 -89 -61 -136c-36 -46 -78 -81 -115 -115zM50 189c0 174 118 323 262 323c71 0 127 -54 147 -111l82 354h-94l25 94h202l-162 -696c-6 -23 -9 -41 -9 -53
c0 -21 9 -33 27 -33s41 15 66 82l48 -18c-32 -107 -91 -140 -146 -140c-62 0 -100 43 -100 109v1c-42 -61 -103 -110 -180 -110c-97 0 -168 78 -168 198zM267 86c94 0 171 100 171 210c0 72 -37 118 -109 118c-92 0 -163 -101 -163 -210c0 -68 34 -118 101 -118z" />
    <glyph glyph-name="Dcroat" unicode="&#x110;" horiz-adv-x="777" 
d="M2 0l22 100h80l52 225h-92l21 91h92l49 208h-91l23 100h235c135 0 225 -39 287 -101c53 -53 80 -129 80 -211c0 -115 -39 -205 -115 -281c-91 -91 -217 -131 -368 -131h-275zM216 100h77c122 0 202 32 266 97c59 58 85 133 85 210c0 56 -19 110 -56 147
c-43 43 -107 70 -207 70h-43l-49 -208h152l-21 -91h-152z" />
    <glyph glyph-name="dcroat" unicode="&#x111;" horiz-adv-x="676" 
d="M330 582l21 95h172l18 78h-94l25 94h202l-40 -172h88l-21 -95h-89l-100 -429c-6 -23 -9 -41 -9 -53c0 -21 9 -33 27 -33s41 15 66 82l48 -18c-32 -107 -91 -140 -146 -140c-62 0 -100 43 -100 109v1c-42 -61 -103 -110 -180 -110c-97 0 -168 78 -168 198
c0 174 118 323 262 323c71 0 127 -54 147 -111l42 181h-171zM267 86c94 0 171 100 171 210c0 72 -37 118 -109 118c-92 0 -163 -101 -163 -210c0 -68 34 -118 101 -118z" />
    <glyph glyph-name="Eacute" unicode="&#xc9;" horiz-adv-x="644" 
d="M438 793l-29 36l144 149c17 17 35 27 56 27c28 0 50 -24 50 -51c0 -25 -16 -47 -40 -61zM2 0l22 100h80l122 524h-91l23 100h538l-48 -199h-107l24 100h-227l-49 -209h221l-22 -96h-220l-52 -221h227l25 100h107l-46 -199h-527z" />
    <glyph glyph-name="eacute" unicode="&#xe9;" horiz-adv-x="575" 
d="M350 580l-31 37l155 156c17 18 37 28 58 28c29 0 52 -25 52 -54c0 -25 -17 -48 -42 -63zM511 215h-354v-14c0 -67 55 -117 148 -117c52 0 102 11 166 45l-22 -103c-53 -26 -96 -35 -169 -35c-121 0 -233 76 -233 214c0 171 124 307 274 307c125 0 209 -69 209 -190
c0 -32 -6 -68 -19 -107zM322 420c-69 0 -125 -50 -151 -126h247c4 14 6 28 6 40c0 51 -34 86 -102 86z" />
    <glyph glyph-name="Ebreve" unicode="&#x114;" horiz-adv-x="644" 
d="M457 798c-90 0 -151 64 -156 187l67 22c18 -75 48 -113 106 -113c47 0 91 27 144 111l59 -28c-53 -123 -141 -179 -220 -179zM2 0l22 100h80l122 524h-91l23 100h538l-48 -199h-107l24 100h-227l-49 -209h221l-22 -96h-220l-52 -221h227l25 100h107l-46 -199h-527z" />
    <glyph glyph-name="ebreve" unicode="&#x115;" horiz-adv-x="575" 
d="M371 584c-94 0 -158 68 -163 195l69 22c19 -77 51 -117 111 -117c51 0 97 29 152 115l61 -28c-55 -128 -147 -187 -230 -187zM511 215h-354v-14c0 -67 55 -117 148 -117c52 0 102 11 166 45l-22 -103c-53 -26 -96 -35 -169 -35c-121 0 -233 76 -233 214
c0 171 124 307 274 307c125 0 209 -69 209 -190c0 -32 -6 -68 -19 -107zM322 420c-69 0 -125 -50 -151 -126h247c4 14 6 28 6 40c0 51 -34 86 -102 86z" />
    <glyph glyph-name="Ecaron" unicode="&#x11a;" horiz-adv-x="644" 
d="M450 783l-136 189l52 45l104 -107l167 110l41 -54zM2 0l22 100h80l122 524h-91l23 100h538l-48 -199h-107l24 100h-227l-49 -209h221l-22 -96h-220l-52 -221h227l25 100h107l-46 -199h-527z" />
    <glyph glyph-name="ecaron" unicode="&#x11b;" horiz-adv-x="575" 
d="M363 570l-142 197l54 47l109 -112l175 114l42 -56zM511 215h-354v-14c0 -67 55 -117 148 -117c52 0 102 11 166 45l-22 -103c-53 -26 -96 -35 -169 -35c-121 0 -233 76 -233 214c0 171 124 307 274 307c125 0 209 -69 209 -190c0 -32 -6 -68 -19 -107zM322 420
c-69 0 -125 -50 -151 -126h247c4 14 6 28 6 40c0 51 -34 86 -102 86z" />
    <glyph glyph-name="Ecircumflex" unicode="&#xca;" horiz-adv-x="644" 
d="M313 790l-41 55l228 182l136 -188l-53 -46l-104 107zM2 0l22 100h80l122 524h-91l23 100h538l-48 -199h-107l24 100h-227l-49 -209h221l-22 -96h-220l-52 -221h227l25 100h107l-46 -199h-527z" />
    <glyph glyph-name="ecircumflex" unicode="&#xea;" horiz-adv-x="575" 
d="M221 577l-43 56l238 190l143 -197l-54 -47l-110 112zM511 215h-354v-14c0 -67 55 -117 148 -117c52 0 102 11 166 45l-22 -103c-53 -26 -96 -35 -169 -35c-121 0 -233 76 -233 214c0 171 124 307 274 307c125 0 209 -69 209 -190c0 -32 -6 -68 -19 -107zM322 420
c-69 0 -125 -50 -151 -126h247c4 14 6 28 6 40c0 51 -34 86 -102 86z" />
    <glyph glyph-name="Edieresis" unicode="&#xcb;" horiz-adv-x="644" 
d="M361 809c-40 0 -74 33 -74 75c0 41 36 74 76 74c41 0 74 -33 74 -74c0 -42 -35 -75 -76 -75zM578 809c-41 0 -74 33 -74 75c0 41 35 74 76 74c40 0 74 -33 74 -74c0 -42 -36 -75 -76 -75zM2 0l22 100h80l122 524h-91l23 100h538l-48 -199h-107l24 100h-227l-49 -209h221
l-22 -96h-220l-52 -221h227l25 100h107l-46 -199h-527z" />
    <glyph glyph-name="edieresis" unicode="&#xeb;" horiz-adv-x="575" 
d="M271 597c-42 0 -77 34 -77 77s36 78 78 78c43 0 78 -35 78 -78s-37 -77 -79 -77zM497 597c-42 0 -77 34 -77 77s36 78 79 78c42 0 77 -35 77 -78s-37 -77 -79 -77zM511 215h-354v-14c0 -67 55 -117 148 -117c52 0 102 11 166 45l-22 -103c-53 -26 -96 -35 -169 -35
c-121 0 -233 76 -233 214c0 171 124 307 274 307c125 0 209 -69 209 -190c0 -32 -6 -68 -19 -107zM322 420c-69 0 -125 -50 -151 -126h247c4 14 6 28 6 40c0 51 -34 86 -102 86z" />
    <glyph glyph-name="Edotaccent" unicode="&#x116;" horiz-adv-x="644" 
d="M471 809c-41 0 -75 33 -75 75c0 41 36 75 77 75c40 0 74 -34 74 -75c0 -42 -35 -75 -76 -75zM2 0l22 100h80l122 524h-91l23 100h538l-48 -199h-107l24 100h-227l-49 -209h221l-22 -96h-220l-52 -221h227l25 100h107l-46 -199h-527z" />
    <glyph glyph-name="edotaccent" unicode="&#x117;" horiz-adv-x="575" 
d="M385 596c-43 0 -78 35 -78 78c0 44 37 79 80 79c42 0 77 -35 77 -79c0 -43 -37 -78 -79 -78zM511 215h-354v-14c0 -67 55 -117 148 -117c52 0 102 11 166 45l-22 -103c-53 -26 -96 -35 -169 -35c-121 0 -233 76 -233 214c0 171 124 307 274 307c125 0 209 -69 209 -190
c0 -32 -6 -68 -19 -107zM322 420c-69 0 -125 -50 -151 -126h247c4 14 6 28 6 40c0 51 -34 86 -102 86z" />
    <glyph glyph-name="Egrave" unicode="&#xc8;" horiz-adv-x="644" 
d="M463 780l-127 117c-18 17 -25 35 -25 53c0 32 26 56 53 56c29 0 45 -16 59 -44l77 -156zM2 0l22 100h80l122 524h-91l23 100h538l-48 -199h-107l24 100h-227l-49 -209h221l-22 -96h-220l-52 -221h227l25 100h107l-46 -199h-527z" />
    <glyph glyph-name="egrave" unicode="&#xe8;" horiz-adv-x="575" 
d="M379 566l-134 122c-20 18 -27 36 -27 56c0 32 27 57 55 57c30 0 47 -16 62 -45l83 -162zM511 215h-354v-14c0 -67 55 -117 148 -117c52 0 102 11 166 45l-22 -103c-53 -26 -96 -35 -169 -35c-121 0 -233 76 -233 214c0 171 124 307 274 307c125 0 209 -69 209 -190
c0 -32 -6 -68 -19 -107zM322 420c-69 0 -125 -50 -151 -126h247c4 14 6 28 6 40c0 51 -34 86 -102 86z" />
    <glyph glyph-name="Emacron" unicode="&#x112;" horiz-adv-x="644" 
d="M280 825l21 88h353l-20 -88h-354zM2 0l22 100h80l122 524h-91l23 100h538l-48 -199h-107l24 100h-227l-49 -209h221l-22 -96h-220l-52 -221h227l25 100h107l-46 -199h-527z" />
    <glyph glyph-name="emacron" unicode="&#x113;" horiz-adv-x="575" 
d="M185 613l22 91h370l-20 -91h-372zM511 215h-354v-14c0 -67 55 -117 148 -117c52 0 102 11 166 45l-22 -103c-53 -26 -96 -35 -169 -35c-121 0 -233 76 -233 214c0 171 124 307 274 307c125 0 209 -69 209 -190c0 -32 -6 -68 -19 -107zM322 420c-69 0 -125 -50 -151 -126
h247c4 14 6 28 6 40c0 51 -34 86 -102 86z" />
    <glyph glyph-name="Eogonek" unicode="&#x118;" horiz-adv-x="644" 
d="M2 0l22 100h80l122 524h-91l23 100h538l-48 -199h-107l24 100h-227l-49 -209h221l-22 -96h-220l-52 -221h227l25 100h107l-46 -199h-59c-43 -34 -71 -68 -71 -99c0 -24 16 -37 44 -37c22 0 45 4 60 9l-17 -68c-17 -13 -48 -26 -89 -26c-50 0 -95 31 -95 88
c0 50 32 94 81 133h-381z" />
    <glyph glyph-name="eogonek" unicode="&#x119;" horiz-adv-x="575" 
d="M307 -233c-53 0 -100 32 -100 93c0 49 33 94 84 131h-11c-121 0 -233 76 -233 214c0 171 124 307 274 307c125 0 209 -69 209 -190c0 -32 -6 -68 -19 -107h-354v-14c0 -67 55 -117 148 -117c52 0 102 11 166 45l-22 -103c-71 -34 -142 -83 -142 -132c0 -25 17 -39 47 -39
c23 0 47 4 63 9l-18 -71c-17 -13 -50 -26 -92 -26zM322 420c-69 0 -125 -50 -151 -126h247c4 14 6 28 6 40c0 51 -34 86 -102 86z" />
    <glyph glyph-name="Eth" unicode="&#xd0;" horiz-adv-x="777" 
d="M2 0l22 100h80l52 225h-92l21 91h92l49 208h-91l23 100h235c135 0 225 -39 287 -101c53 -53 80 -129 80 -211c0 -115 -39 -205 -115 -281c-91 -91 -217 -131 -368 -131h-275zM216 100h77c122 0 202 32 266 97c59 58 85 133 85 210c0 56 -19 110 -56 147
c-43 43 -107 70 -207 70h-43l-49 -208h152l-21 -91h-152z" />
    <glyph glyph-name="eth" unicode="&#xf0;" horiz-adv-x="638" 
d="M276 -9c-136 0 -230 93 -230 223c0 138 122 274 262 274c91 0 146 -46 172 -115c2 19 3 38 3 60c0 82 -20 154 -48 206l-109 -98l-55 60l117 104c-28 31 -57 49 -84 55c-12 -33 -36 -48 -65 -48c-36 0 -67 30 -67 68c0 34 27 77 96 77c58 0 128 -27 189 -90l102 91
l55 -60l-106 -95c45 -73 73 -176 73 -293c0 -154 -39 -269 -111 -341c-49 -48 -113 -78 -194 -78zM280 84c45 0 86 18 115 46c36 35 58 83 58 131c0 81 -51 133 -127 133c-100 0 -171 -91 -171 -178c0 -81 51 -132 125 -132z" />
    <glyph glyph-name="Gbreve" unicode="&#x11e;" horiz-adv-x="797" 
d="M536 798c-90 0 -151 64 -156 187l67 22c18 -75 48 -113 106 -113c47 0 91 27 144 111l59 -28c-53 -123 -141 -179 -220 -179zM560 0l10 73c-67 -57 -133 -86 -216 -86c-147 0 -275 122 -275 302c0 244 193 448 437 448c104 0 177 -31 221 -75c30 -29 44 -59 44 -94
c0 -51 -39 -84 -78 -84c-40 0 -71 31 -71 69c0 16 6 30 18 45l-3 3c-18 18 -67 33 -131 33c-176 0 -320 -146 -320 -339c0 -132 85 -206 187 -206c81 0 145 24 192 58l30 126h-189l22 96h301l-87 -369h-92z" />
    <glyph glyph-name="gbreve" unicode="&#x11f;" horiz-adv-x="630" 
d="M403 584c-94 0 -158 68 -163 195l69 22c19 -77 51 -117 111 -117c51 0 97 29 152 115l61 -28c-55 -128 -147 -187 -230 -187zM281 103c93 0 166 92 166 198c0 69 -49 113 -116 113c-92 0 -164 -88 -164 -198c0 -69 48 -113 114 -113zM224 -232c-71 0 -148 28 -179 60
c-23 22 -31 42 -31 69c0 43 30 71 67 71c38 0 67 -30 67 -66c0 -10 -3 -22 -7 -29c13 -8 42 -17 78 -17c46 0 80 12 108 40c25 25 40 65 52 118l21 91c-43 -59 -100 -97 -169 -97c-114 0 -180 80 -180 199c0 162 109 305 265 305c83 0 132 -58 151 -110l32 102h103
l-119 -516c-16 -67 -36 -118 -73 -156c-44 -43 -103 -64 -186 -64z" />
    <glyph glyph-name="Gcommaaccent" unicode="&#x122;" horiz-adv-x="797" 
d="M560 0l10 73c-67 -57 -133 -86 -216 -86c-147 0 -275 122 -275 302c0 244 193 448 437 448c104 0 177 -31 221 -75c30 -29 44 -59 44 -94c0 -51 -39 -84 -78 -84c-40 0 -71 31 -71 69c0 16 6 30 18 45l-3 3c-18 18 -67 33 -131 33c-176 0 -320 -146 -320 -339
c0 -132 85 -206 187 -206c81 0 145 24 192 58l30 126h-189l22 96h301l-87 -369h-92zM204 -326l-19 37c88 48 117 92 121 109c-30 13 -43 42 -43 58c0 39 31 70 69 70s71 -29 71 -77c0 -68 -79 -152 -199 -197z" />
    <glyph glyph-name="gcommaaccent" unicode="&#x123;" horiz-adv-x="630" 
d="M544 877l19 -38c-91 -50 -123 -96 -126 -115c31 -14 44 -44 44 -61c0 -41 -31 -73 -71 -73s-74 31 -74 81c0 71 82 159 208 206zM281 103c93 0 166 92 166 198c0 69 -49 113 -116 113c-92 0 -164 -88 -164 -198c0 -69 48 -113 114 -113zM224 -232c-71 0 -148 28 -179 60
c-23 22 -31 42 -31 69c0 43 30 71 67 71c38 0 67 -30 67 -66c0 -10 -3 -22 -7 -29c13 -8 42 -17 78 -17c46 0 80 12 108 40c25 25 40 65 52 118l21 91c-43 -59 -100 -97 -169 -97c-114 0 -180 80 -180 199c0 162 109 305 265 305c83 0 132 -58 151 -110l32 102h103
l-119 -516c-16 -67 -36 -118 -73 -156c-44 -43 -103 -64 -186 -64z" />
    <glyph glyph-name="Gdotaccent" unicode="&#x120;" horiz-adv-x="797" 
d="M550 809c-41 0 -75 33 -75 75c0 41 36 75 77 75c40 0 74 -34 74 -75c0 -42 -35 -75 -76 -75zM560 0l10 73c-67 -57 -133 -86 -216 -86c-147 0 -275 122 -275 302c0 244 193 448 437 448c104 0 177 -31 221 -75c30 -29 44 -59 44 -94c0 -51 -39 -84 -78 -84
c-40 0 -71 31 -71 69c0 16 6 30 18 45l-3 3c-18 18 -67 33 -131 33c-176 0 -320 -146 -320 -339c0 -132 85 -206 187 -206c81 0 145 24 192 58l30 126h-189l22 96h301l-87 -369h-92z" />
    <glyph glyph-name="gdotaccent" unicode="&#x121;" horiz-adv-x="630" 
d="M417 596c-43 0 -78 35 -78 78c0 44 37 79 80 79c42 0 77 -35 77 -79c0 -43 -37 -78 -79 -78zM281 103c93 0 166 92 166 198c0 69 -49 113 -116 113c-92 0 -164 -88 -164 -198c0 -69 48 -113 114 -113zM224 -232c-71 0 -148 28 -179 60c-23 22 -31 42 -31 69
c0 43 30 71 67 71c38 0 67 -30 67 -66c0 -10 -3 -22 -7 -29c13 -8 42 -17 78 -17c46 0 80 12 108 40c25 25 40 65 52 118l21 91c-43 -59 -100 -97 -169 -97c-114 0 -180 80 -180 199c0 162 109 305 265 305c83 0 132 -58 151 -110l32 102h103l-119 -516
c-16 -67 -36 -118 -73 -156c-44 -43 -103 -64 -186 -64z" />
    <glyph glyph-name="Hbar" unicode="&#x126;" horiz-adv-x="841" 
d="M285 399h348l17 74h-348zM847 556l-19 -83h-66l-87 -373h91l-23 -100h-288l22 100h86l48 200h-348l-47 -200h97l-23 -100h-288l22 100h80l87 373h-65l19 83h65l17 72h-91l22 96h289l-22 -96h-86l-17 -72h347l17 72h-97l22 96h289l-22 -96h-80l-17 -72h66z" />
    <glyph glyph-name="hbar" unicode="&#x127;" horiz-adv-x="638" 
d="M29 0l134 582h-92l21 95h93l18 78h-94l24 94h201l-40 -172h173l-21 -95h-174l-41 -177c36 56 95 107 160 107c75 0 137 -52 137 -145c0 -26 -4 -53 -12 -83l-40 -143c-4 -15 -6 -28 -6 -38c0 -23 11 -36 29 -36c19 0 41 15 65 82l48 -18c-29 -96 -78 -140 -143 -140
c-73 0 -111 44 -111 106c0 17 2 37 8 56l40 146c5 18 7 33 7 48c-1 44 -30 72 -74 72c-59 0 -110 -46 -132 -139l-65 -280h-113z" />
    <glyph glyph-name="Iacute" unicode="&#xcd;" horiz-adv-x="407" 
d="M321 793l-29 36l144 149c17 17 35 27 56 27c28 0 50 -24 50 -51c0 -25 -16 -47 -40 -61zM7 0l23 100h87l122 524h-96l23 100h295l-23 -100h-87l-122 -524h96l-22 -100h-296z" />
    <glyph glyph-name="iacute" unicode="&#xed;" horiz-adv-x="375" 
d="M232 580l-31 37l155 156c17 18 37 28 58 28c29 0 52 -25 52 -54c0 -25 -17 -48 -42 -63zM190 -9c-72 0 -109 43 -109 106c0 17 3 37 7 56l66 256h-93l24 94h206l-91 -350c-5 -21 -8 -40 -8 -52c0 -22 12 -34 30 -34c22 0 44 15 68 82l48 -18c-32 -107 -85 -140 -148 -140
z" />
    <glyph glyph-name="Ibreve" unicode="&#x12c;" horiz-adv-x="407" 
d="M340 798c-90 0 -151 64 -156 187l67 22c18 -75 48 -113 106 -113c47 0 91 27 144 111l59 -28c-53 -123 -141 -179 -220 -179zM7 0l23 100h87l122 524h-96l23 100h295l-23 -100h-87l-122 -524h96l-22 -100h-296z" />
    <glyph glyph-name="ibreve" unicode="&#x12d;" horiz-adv-x="375" 
d="M253 584c-94 0 -158 68 -163 195l69 22c19 -77 51 -117 111 -117c51 0 97 29 152 115l61 -28c-55 -128 -147 -187 -230 -187zM190 -9c-72 0 -109 43 -109 106c0 17 3 37 7 56l66 256h-93l24 94h206l-91 -350c-5 -21 -8 -40 -8 -52c0 -22 12 -34 30 -34c22 0 44 15 68 82
l48 -18c-32 -107 -85 -140 -148 -140z" />
    <glyph glyph-name="Icircumflex" unicode="&#xce;" horiz-adv-x="407" 
d="M196 790l-41 55l228 182l136 -188l-53 -46l-104 107zM7 0l23 100h87l122 524h-96l23 100h295l-23 -100h-87l-122 -524h96l-22 -100h-296z" />
    <glyph glyph-name="icircumflex" unicode="&#xee;" horiz-adv-x="375" 
d="M102 577l-43 56l238 190l143 -197l-54 -47l-110 112zM190 -9c-72 0 -109 43 -109 106c0 17 3 37 7 56l66 256h-93l24 94h206l-91 -350c-5 -21 -8 -40 -8 -52c0 -22 12 -34 30 -34c22 0 44 15 68 82l48 -18c-32 -107 -85 -140 -148 -140z" />
    <glyph glyph-name="Idieresis" unicode="&#xcf;" horiz-adv-x="407" 
d="M243 809c-40 0 -74 33 -74 75c0 41 36 74 76 74c41 0 74 -33 74 -74c0 -42 -35 -75 -76 -75zM460 809c-41 0 -74 33 -74 75c0 41 35 74 76 74c40 0 74 -33 74 -74c0 -42 -36 -75 -76 -75zM7 0l23 100h87l122 524h-96l23 100h295l-23 -100h-87l-122 -524h96l-22 -100h-296
z" />
    <glyph glyph-name="idieresis" unicode="&#xef;" horiz-adv-x="375" 
d="M153 597c-42 0 -77 34 -77 77s36 78 78 78c43 0 78 -35 78 -78s-37 -77 -79 -77zM379 597c-42 0 -77 34 -77 77s36 78 79 78c42 0 77 -35 77 -78s-37 -77 -79 -77zM190 -9c-72 0 -109 43 -109 106c0 17 3 37 7 56l66 256h-93l24 94h206l-91 -350c-5 -21 -8 -40 -8 -52
c0 -22 12 -34 30 -34c22 0 44 15 68 82l48 -18c-32 -107 -85 -140 -148 -140z" />
    <glyph glyph-name="Idotaccent" unicode="&#x130;" horiz-adv-x="407" 
d="M354 809c-41 0 -75 33 -75 75c0 41 36 75 77 75c40 0 74 -34 74 -75c0 -42 -35 -75 -76 -75zM7 0l23 100h87l122 524h-96l23 100h295l-23 -100h-87l-122 -524h96l-22 -100h-296z" />
    <glyph glyph-name="dotlessi" unicode="&#x131;" horiz-adv-x="375" 
d="M190 -9c-72 0 -109 43 -109 106c0 17 3 37 7 56l66 256h-93l24 94h206l-91 -350c-5 -21 -8 -40 -8 -52c0 -22 12 -34 30 -34c22 0 44 15 68 82l48 -18c-32 -107 -85 -140 -148 -140z" />
    <glyph glyph-name="Igrave" unicode="&#xcc;" horiz-adv-x="407" 
d="M346 780l-127 117c-18 17 -25 35 -25 53c0 32 26 56 53 56c29 0 45 -16 59 -44l77 -156zM7 0l23 100h87l122 524h-96l23 100h295l-23 -100h-87l-122 -524h96l-22 -100h-296z" />
    <glyph glyph-name="igrave" unicode="&#xec;" horiz-adv-x="375" 
d="M261 566l-134 122c-20 18 -27 36 -27 56c0 32 27 57 55 57c30 0 47 -16 62 -45l83 -162zM190 -9c-72 0 -109 43 -109 106c0 17 3 37 7 56l66 256h-93l24 94h206l-91 -350c-5 -21 -8 -40 -8 -52c0 -22 12 -34 30 -34c22 0 44 15 68 82l48 -18c-32 -107 -85 -140 -148 -140
z" />
    <glyph glyph-name="Imacron" unicode="&#x12a;" horiz-adv-x="407" 
d="M163 825l21 88h353l-20 -88h-354zM7 0l23 100h87l122 524h-96l23 100h295l-23 -100h-87l-122 -524h96l-22 -100h-296z" />
    <glyph glyph-name="imacron" unicode="&#x12b;" horiz-adv-x="375" 
d="M67 613l22 91h370l-20 -91h-372zM190 -9c-72 0 -109 43 -109 106c0 17 3 37 7 56l66 256h-93l24 94h206l-91 -350c-5 -21 -8 -40 -8 -52c0 -22 12 -34 30 -34c22 0 44 15 68 82l48 -18c-32 -107 -85 -140 -148 -140z" />
    <glyph glyph-name="Iogonek" unicode="&#x12e;" horiz-adv-x="407" 
d="M7 0l23 100h87l122 524h-96l23 100h295l-23 -100h-87l-122 -524h96l-22 -100h-109c-43 -34 -71 -68 -71 -99c0 -24 16 -37 44 -37c22 0 45 4 60 9l-17 -68c-17 -13 -48 -26 -89 -26c-50 0 -95 31 -95 88c0 50 32 94 81 133h-100z" />
    <glyph glyph-name="iogonek" unicode="&#x12f;" horiz-adv-x="375" 
d="M248 582c-39 0 -72 32 -72 72s33 71 72 71s72 -31 72 -71s-33 -72 -72 -72zM290 149l48 -18c-18 -58 -38 -87 -72 -117c-47 -43 -102 -71 -102 -120c0 -25 17 -39 48 -39c23 0 47 4 63 9l-18 -71c-18 -13 -50 -26 -92 -26c-53 0 -101 32 -101 93c0 56 38 100 88 136
c-47 12 -71 50 -71 101c0 17 3 37 7 56l66 256h-93l24 94h206l-91 -350c-5 -21 -8 -40 -8 -52c0 -22 12 -34 30 -34c22 0 44 15 68 82z" />
    <glyph glyph-name="Kcommaaccent" unicode="&#x136;" horiz-adv-x="744" 
d="M713 624l-267 -226l141 -297h103l-24 -101h-159l-147 333l-112 -94l-32 -139h96l-23 -100h-287l22 100h80l122 524h-91l23 100h277l-22 -97h-74l-62 -264l296 264h-77l22 97h291l-23 -100h-73zM162 -326l-19 37c88 48 117 92 121 109c-30 13 -43 42 -43 58
c0 39 31 70 69 70s71 -29 71 -77c0 -68 -79 -152 -199 -197z" />
    <glyph glyph-name="kcommaaccent" unicode="&#x137;" horiz-adv-x="585" 
d="M142 0h-113l174 755h-94l24 94h201l-135 -582c135 45 201 86 221 120c-21 14 -32 34 -32 56c0 38 31 69 70 69c40 0 73 -31 73 -79c0 -77 -66 -145 -193 -203l49 -109c9 -21 16 -35 24 -43c7 -8 13 -10 21 -10c16 0 33 18 53 93l48 -15c-28 -128 -76 -155 -129 -155
c-22 0 -45 6 -65 23c-17 14 -32 34 -44 62l-53 128c-18 -7 -38 -14 -57 -20zM55 -342l-20 38c92 50 124 96 127 115c-31 14 -45 44 -45 61c0 41 32 73 72 73c39 0 74 -31 74 -81c0 -71 -82 -159 -208 -206z" />
    <glyph glyph-name="Lacute" unicode="&#x139;" horiz-adv-x="611" 
d="M309 797l-29 36l144 149c17 17 35 27 56 27c28 0 50 -24 50 -51c0 -25 -16 -47 -40 -61zM2 0l22 100h80l122 524h-91l23 100h296l-23 -100h-93l-122 -525h211l25 105h108l-48 -204h-510z" />
    <glyph glyph-name="lacute" unicode="&#x13a;" horiz-adv-x="357" 
d="M302 898l-31 37l155 156c17 18 37 28 58 28c29 0 52 -25 52 -54c0 -25 -17 -48 -42 -63zM169 -9c-72 0 -108 43 -108 107c0 17 3 35 7 54l140 603h-94l24 94h204l-161 -696c-5 -20 -9 -37 -9 -49c0 -25 10 -37 29 -37c22 0 44 15 69 82l47 -18
c-32 -107 -85 -140 -148 -140z" />
    <glyph glyph-name="Lcaron" unicode="&#x13d;" horiz-adv-x="611" 
d="M466 422l-29 26c45 52 58 87 65 117c8 36 1 69 13 110c9 29 29 49 62 49c36 0 58 -25 58 -61c0 -48 -26 -86 -60 -131c-34 -44 -74 -77 -109 -110zM2 0l22 100h80l122 524h-91l23 100h296l-23 -100h-93l-122 -525h211l25 105h108l-48 -204h-510z" />
    <glyph glyph-name="lcaron" unicode="&#x13e;" horiz-adv-x="357" 
d="M354 565l-30 27c47 53 61 90 69 122c8 38 1 73 14 114c8 30 29 51 64 51c37 0 59 -26 59 -63c0 -49 -26 -89 -61 -136c-36 -46 -78 -81 -115 -115zM169 -9c-72 0 -108 43 -108 107c0 17 3 35 7 54l140 603h-94l24 94h204l-161 -696c-5 -20 -9 -37 -9 -49
c0 -25 10 -37 29 -37c22 0 44 15 69 82l47 -18c-32 -107 -85 -140 -148 -140z" />
    <glyph glyph-name="Lcommaaccent" unicode="&#x13b;" horiz-adv-x="611" 
d="M2 0l22 100h80l122 524h-91l23 100h296l-23 -100h-93l-122 -525h211l25 105h108l-48 -204h-510zM97 -326l-19 37c88 48 117 92 121 109c-30 13 -43 42 -43 58c0 39 31 70 69 70s71 -29 71 -77c0 -68 -79 -152 -199 -197z" />
    <glyph glyph-name="lcommaaccent" unicode="&#x13c;" horiz-adv-x="357" 
d="M169 -9c-72 0 -108 43 -108 107c0 17 3 35 7 54l140 603h-94l24 94h204l-161 -696c-5 -20 -9 -37 -9 -49c0 -25 10 -37 29 -37c22 0 44 15 69 82l47 -18c-32 -107 -85 -140 -148 -140zM-11 -342l-20 38c92 50 124 96 127 115c-31 14 -45 44 -45 61c0 41 32 73 72 73
c39 0 74 -31 74 -81c0 -71 -82 -159 -208 -206z" />
    <glyph glyph-name="Ldot" unicode="&#x13f;" horiz-adv-x="611" 
d="M2 0l22 100h80l122 524h-91l23 100h296l-23 -100h-93l-122 -525h211l25 105h108l-48 -204h-510zM531 329c-41 0 -75 33 -75 75c0 41 36 75 77 75c40 0 74 -34 74 -75c0 -42 -35 -75 -76 -75z" />
    <glyph glyph-name="ldot" unicode="&#x140;" horiz-adv-x="414" 
d="M169 -9c-72 0 -108 43 -108 107c0 17 3 35 7 54l140 603h-94l24 94h204l-161 -696c-5 -20 -9 -37 -9 -49c0 -25 10 -37 29 -37c22 0 44 15 69 82l47 -18c-32 -107 -85 -140 -148 -140zM384 318c-43 0 -78 35 -78 78c0 44 37 79 80 79c42 0 77 -35 77 -79
c0 -43 -37 -78 -79 -78z" />
    <glyph glyph-name="Lslash" unicode="&#x141;" horiz-adv-x="638" 
d="M28 0l22 100h80l43 184l-99 -46l-33 74l155 74l56 238h-91l23 100h296l-23 -100h-93l-43 -185l139 65l33 -74l-196 -92l-55 -239h211l25 105h108l-48 -204h-510z" />
    <glyph glyph-name="lslash" unicode="&#x142;" horiz-adv-x="406" 
d="M193 -9c-72 0 -108 43 -108 107c0 17 3 35 7 54l57 246l-89 -40l-34 75l146 67l60 255h-94l24 94h204l-69 -298l110 52l34 -76l-167 -77l-69 -297c-5 -20 -9 -37 -9 -49c0 -25 10 -37 29 -37c22 0 44 15 69 82l47 -18c-32 -107 -85 -140 -148 -140z" />
    <glyph glyph-name="Nacute" unicode="&#x143;" horiz-adv-x="824" 
d="M536 793l-29 36l144 149c17 17 35 27 56 27c28 0 50 -24 50 -51c0 -25 -16 -47 -40 -61zM590 -2l-276 534l-100 -432h97l-23 -100h-286l22 100h80l122 524h-91l23 100h183l250 -485l90 385h-97l22 100h286l-23 -100h-79l-145 -626h-55z" />
    <glyph glyph-name="nacute" unicode="&#x144;" horiz-adv-x="665" 
d="M394 580l-31 37l155 156c17 18 37 28 58 28c29 0 52 -25 52 -54c0 -25 -17 -48 -42 -63zM493 -9c-73 0 -111 44 -111 106c0 17 3 38 9 56l41 146c5 18 7 33 7 48c0 44 -29 72 -73 72c-59 0 -108 -47 -131 -138l-70 -281h-113l103 409h-93l24 94h187l-27 -117
c38 68 105 126 174 126c75 0 134 -52 134 -145c0 -26 -4 -53 -13 -83l-40 -143c-4 -14 -6 -28 -6 -38c0 -23 10 -36 29 -36s40 15 65 82l47 -18c-28 -96 -78 -140 -143 -140z" />
    <glyph glyph-name="Ncaron" unicode="&#x147;" horiz-adv-x="824" 
d="M547 783l-136 189l52 45l104 -107l167 110l41 -54zM590 -2l-276 534l-100 -432h97l-23 -100h-286l22 100h80l122 524h-91l23 100h183l250 -485l90 385h-97l22 100h286l-23 -100h-79l-145 -626h-55z" />
    <glyph glyph-name="ncaron" unicode="&#x148;" horiz-adv-x="665" 
d="M408 570l-142 197l54 47l109 -112l175 114l42 -56zM493 -9c-73 0 -111 44 -111 106c0 17 3 38 9 56l41 146c5 18 7 33 7 48c0 44 -29 72 -73 72c-59 0 -108 -47 -131 -138l-70 -281h-113l103 409h-93l24 94h187l-27 -117c38 68 105 126 174 126c75 0 134 -52 134 -145
c0 -26 -4 -53 -13 -83l-40 -143c-4 -14 -6 -28 -6 -38c0 -23 10 -36 29 -36s40 15 65 82l47 -18c-28 -96 -78 -140 -143 -140z" />
    <glyph glyph-name="Ncommaaccent" unicode="&#x145;" horiz-adv-x="824" 
d="M590 -2l-276 534l-100 -432h97l-23 -100h-286l22 100h80l122 524h-91l23 100h183l250 -485l90 385h-97l22 100h286l-23 -100h-79l-145 -626h-55zM207 -326l-19 37c88 48 117 92 121 109c-30 13 -43 42 -43 58c0 39 31 70 69 70s71 -29 71 -77c0 -68 -79 -152 -199 -197z
" />
    <glyph glyph-name="ncommaaccent" unicode="&#x146;" horiz-adv-x="665" 
d="M493 -9c-73 0 -111 44 -111 106c0 17 3 38 9 56l41 146c5 18 7 33 7 48c0 44 -29 72 -73 72c-59 0 -108 -47 -131 -138l-70 -281h-113l103 409h-93l24 94h187l-27 -117c38 68 105 126 174 126c75 0 134 -52 134 -145c0 -26 -4 -53 -13 -83l-40 -143c-4 -14 -6 -28 -6 -38
c0 -23 10 -36 29 -36s40 15 65 82l47 -18c-28 -96 -78 -140 -143 -140zM108 -342l-20 38c92 50 124 96 127 115c-31 14 -45 44 -45 61c0 41 32 73 72 73c39 0 74 -31 74 -81c0 -71 -82 -159 -208 -206z" />
    <glyph glyph-name="Ntilde" unicode="&#xd1;" horiz-adv-x="824" 
d="M640 795c-43 0 -70 23 -94 46c-25 24 -38 34 -56 34c-28 0 -49 -17 -76 -74l-62 25c26 97 88 154 144 154c43 0 70 -23 94 -46c25 -24 38 -34 56 -34c28 0 49 16 76 73l62 -24c-26 -97 -88 -154 -144 -154zM590 -2l-276 534l-100 -432h97l-23 -100h-286l22 100h80
l122 524h-91l23 100h183l250 -485l90 385h-97l22 100h286l-23 -100h-79l-145 -626h-55z" />
    <glyph glyph-name="ntilde" unicode="&#xf1;" horiz-adv-x="665" 
d="M505 581c-45 0 -74 24 -99 48c-26 26 -40 36 -59 36c-29 0 -52 -18 -79 -77l-65 25c28 101 92 160 150 160c46 0 74 -23 99 -48c26 -25 40 -35 59 -35c29 0 52 17 80 77l64 -26c-27 -100 -91 -160 -150 -160zM493 -9c-73 0 -111 44 -111 106c0 17 3 38 9 56l41 146
c5 18 7 33 7 48c0 44 -29 72 -73 72c-59 0 -108 -47 -131 -138l-70 -281h-113l103 409h-93l24 94h187l-27 -117c38 68 105 126 174 126c75 0 134 -52 134 -145c0 -26 -4 -53 -13 -83l-40 -143c-4 -14 -6 -28 -6 -38c0 -23 10 -36 29 -36s40 15 65 82l47 -18
c-28 -96 -78 -140 -143 -140z" />
    <glyph glyph-name="Oacute" unicode="&#xd3;" horiz-adv-x="815" 
d="M522 793l-29 36l144 149c17 17 35 27 56 27c28 0 50 -24 50 -51c0 -25 -16 -47 -40 -61zM392 -13c-196 0 -313 135 -313 321c0 209 169 429 402 429c195 0 312 -135 312 -321c0 -209 -169 -429 -401 -429zM402 89c158 0 275 167 275 328c0 122 -71 218 -206 218
c-158 0 -276 -167 -276 -328c0 -122 72 -218 207 -218z" />
    <glyph glyph-name="oacute" unicode="&#xf3;" horiz-adv-x="612" 
d="M368 580l-31 37l155 156c17 18 37 28 58 28c29 0 52 -25 52 -54c0 -25 -17 -48 -42 -63zM279 -9c-147 0 -231 105 -231 225c0 153 120 296 285 296c147 0 231 -104 231 -225c0 -153 -120 -296 -285 -296zM283 84c93 0 168 89 168 203c0 85 -55 132 -122 132
c-93 0 -168 -89 -168 -203c0 -85 55 -132 122 -132z" />
    <glyph glyph-name="Obreve" unicode="&#x14e;" horiz-adv-x="815" 
d="M541 798c-90 0 -151 64 -156 187l67 22c18 -75 48 -113 106 -113c47 0 91 27 144 111l59 -28c-53 -123 -141 -179 -220 -179zM392 -13c-196 0 -313 135 -313 321c0 209 169 429 402 429c195 0 312 -135 312 -321c0 -209 -169 -429 -401 -429zM402 89
c158 0 275 167 275 328c0 122 -71 218 -206 218c-158 0 -276 -167 -276 -328c0 -122 72 -218 207 -218z" />
    <glyph glyph-name="obreve" unicode="&#x14f;" horiz-adv-x="612" 
d="M389 584c-94 0 -158 68 -163 195l69 22c19 -77 51 -117 111 -117c51 0 97 29 152 115l61 -28c-55 -128 -147 -187 -230 -187zM279 -9c-147 0 -231 105 -231 225c0 153 120 296 285 296c147 0 231 -104 231 -225c0 -153 -120 -296 -285 -296zM283 84c93 0 168 89 168 203
c0 85 -55 132 -122 132c-93 0 -168 -89 -168 -203c0 -85 55 -132 122 -132z" />
    <glyph glyph-name="Ocircumflex" unicode="&#xd4;" horiz-adv-x="815" 
d="M398 790l-41 55l228 182l136 -188l-53 -46l-104 107zM392 -13c-196 0 -313 135 -313 321c0 209 169 429 402 429c195 0 312 -135 312 -321c0 -209 -169 -429 -401 -429zM402 89c158 0 275 167 275 328c0 122 -71 218 -206 218c-158 0 -276 -167 -276 -328
c0 -122 72 -218 207 -218z" />
    <glyph glyph-name="ocircumflex" unicode="&#xf4;" horiz-adv-x="612" 
d="M239 577l-43 56l238 190l143 -197l-54 -47l-110 112zM279 -9c-147 0 -231 105 -231 225c0 153 120 296 285 296c147 0 231 -104 231 -225c0 -153 -120 -296 -285 -296zM283 84c93 0 168 89 168 203c0 85 -55 132 -122 132c-93 0 -168 -89 -168 -203
c0 -85 55 -132 122 -132z" />
    <glyph glyph-name="Odieresis" unicode="&#xd6;" horiz-adv-x="815" 
d="M445 809c-40 0 -74 33 -74 75c0 41 36 74 76 74c41 0 74 -33 74 -74c0 -42 -35 -75 -76 -75zM662 809c-41 0 -74 33 -74 75c0 41 35 74 76 74c40 0 74 -33 74 -74c0 -42 -36 -75 -76 -75zM392 -13c-196 0 -313 135 -313 321c0 209 169 429 402 429
c195 0 312 -135 312 -321c0 -209 -169 -429 -401 -429zM402 89c158 0 275 167 275 328c0 122 -71 218 -206 218c-158 0 -276 -167 -276 -328c0 -122 72 -218 207 -218z" />
    <glyph glyph-name="odieresis" unicode="&#xf6;" horiz-adv-x="612" 
d="M289 597c-42 0 -77 34 -77 77s36 78 78 78c43 0 78 -35 78 -78s-37 -77 -79 -77zM515 597c-42 0 -77 34 -77 77s36 78 79 78c42 0 77 -35 77 -78s-37 -77 -79 -77zM279 -9c-147 0 -231 105 -231 225c0 153 120 296 285 296c147 0 231 -104 231 -225
c0 -153 -120 -296 -285 -296zM283 84c93 0 168 89 168 203c0 85 -55 132 -122 132c-93 0 -168 -89 -168 -203c0 -85 55 -132 122 -132z" />
    <glyph glyph-name="OE" unicode="&#x152;" horiz-adv-x="1032" 
d="M447 0c-135 0 -225 39 -287 101c-53 53 -80 129 -80 211c0 115 38 205 115 281c90 90 217 131 368 131h521l-48 -199h-106l23 100h-226l-49 -209h220l-21 -96h-221l-51 -221h227l25 100h106l-46 -199h-470zM459 100h34l122 524h-68c-122 0 -202 -32 -267 -97
c-58 -58 -84 -133 -84 -210c0 -56 19 -111 56 -148c43 -42 107 -69 207 -69z" />
    <glyph glyph-name="oe" unicode="&#x153;" horiz-adv-x="973" 
d="M872 129l-22 -103c-53 -26 -96 -35 -160 -35c-95 0 -167 45 -198 120c-46 -70 -120 -120 -216 -120c-145 0 -228 105 -228 225c0 153 119 296 278 296c107 0 169 -54 196 -125c44 77 115 125 209 125c115 0 199 -69 199 -190c0 -32 -6 -68 -18 -107h-355v-14
c0 -67 55 -117 148 -117c53 0 103 11 167 45zM723 420c-69 0 -126 -50 -152 -126h248c4 14 5 28 5 40c0 51 -33 86 -101 86zM285 84c94 0 170 89 170 203c0 85 -56 132 -124 132c-95 0 -170 -89 -170 -203c0 -85 55 -132 124 -132z" />
    <glyph glyph-name="Ograve" unicode="&#xd2;" horiz-adv-x="815" 
d="M548 780l-127 117c-18 17 -25 35 -25 53c0 32 26 56 53 56c29 0 45 -16 59 -44l77 -156zM392 -13c-196 0 -313 135 -313 321c0 209 169 429 402 429c195 0 312 -135 312 -321c0 -209 -169 -429 -401 -429zM402 89c158 0 275 167 275 328c0 122 -71 218 -206 218
c-158 0 -276 -167 -276 -328c0 -122 72 -218 207 -218z" />
    <glyph glyph-name="ograve" unicode="&#xf2;" horiz-adv-x="612" 
d="M397 566l-134 122c-20 18 -27 36 -27 56c0 32 27 57 55 57c30 0 47 -16 62 -45l83 -162zM279 -9c-147 0 -231 105 -231 225c0 153 120 296 285 296c147 0 231 -104 231 -225c0 -153 -120 -296 -285 -296zM283 84c93 0 168 89 168 203c0 85 -55 132 -122 132
c-93 0 -168 -89 -168 -203c0 -85 55 -132 122 -132z" />
    <glyph glyph-name="Ohungarumlaut" unicode="&#x150;" horiz-adv-x="815" 
d="M412 794l-30 36l136 147c16 18 35 28 56 28c27 0 49 -22 49 -51c0 -22 -15 -45 -39 -60zM636 795l-30 36l138 146c16 17 36 27 56 27c28 0 49 -23 49 -52c0 -22 -15 -45 -40 -59zM392 -13c-196 0 -313 135 -313 321c0 209 169 429 402 429c195 0 312 -135 312 -321
c0 -209 -169 -429 -401 -429zM402 89c158 0 275 167 275 328c0 122 -71 218 -206 218c-158 0 -276 -167 -276 -328c0 -122 72 -218 207 -218z" />
    <glyph glyph-name="ohungarumlaut" unicode="&#x151;" horiz-adv-x="612" 
d="M252 580l-31 37l143 155c17 18 37 29 59 29c28 0 51 -23 51 -54c0 -23 -16 -47 -41 -62zM487 582l-31 37l146 152c17 18 37 28 58 28c30 0 52 -24 52 -53c0 -24 -16 -47 -43 -63zM279 -9c-147 0 -231 105 -231 225c0 153 120 296 285 296c147 0 231 -104 231 -225
c0 -153 -120 -296 -285 -296zM283 84c93 0 168 89 168 203c0 85 -55 132 -122 132c-93 0 -168 -89 -168 -203c0 -85 55 -132 122 -132z" />
    <glyph glyph-name="Omacron" unicode="&#x14c;" horiz-adv-x="815" 
d="M364 825l21 88h353l-20 -88h-354zM392 -13c-196 0 -313 135 -313 321c0 209 169 429 402 429c195 0 312 -135 312 -321c0 -209 -169 -429 -401 -429zM402 89c158 0 275 167 275 328c0 122 -71 218 -206 218c-158 0 -276 -167 -276 -328c0 -122 72 -218 207 -218z" />
    <glyph glyph-name="omacron" unicode="&#x14d;" horiz-adv-x="612" 
d="M203 613l22 91h370l-20 -91h-372zM279 -9c-147 0 -231 105 -231 225c0 153 120 296 285 296c147 0 231 -104 231 -225c0 -153 -120 -296 -285 -296zM283 84c93 0 168 89 168 203c0 85 -55 132 -122 132c-93 0 -168 -89 -168 -203c0 -85 55 -132 122 -132z" />
    <glyph glyph-name="Oslash" unicode="&#xd8;" horiz-adv-x="815" 
d="M200 307c0 -36 6 -70 18 -99l408 367c-34 37 -85 60 -151 60c-158 0 -275 -167 -275 -328zM406 89c158 0 276 167 276 328c0 33 -6 65 -16 93l-407 -365c34 -35 84 -56 147 -56zM399 -13c-92 0 -167 30 -221 81l-93 -82l-57 65l97 87c-27 49 -41 107 -41 172
c0 207 166 427 398 427c94 0 171 -32 225 -86l97 87l57 -66l-102 -92c25 -48 39 -105 39 -166c0 -210 -168 -427 -399 -427z" />
    <glyph glyph-name="oslash" unicode="&#xf8;" horiz-adv-x="633" 
d="M171 216c0 -20 3 -38 8 -54l245 228c-22 19 -51 29 -83 29c-93 0 -170 -88 -170 -203zM295 84c93 0 170 88 170 203c0 15 -2 30 -5 43l-241 -223c21 -15 47 -23 76 -23zM291 -9c-59 0 -107 16 -145 44l-79 -75l-56 58l81 75c-22 36 -34 79 -34 124c0 152 121 295 287 295
c62 0 113 -19 152 -50l84 80l56 -58l-89 -83c19 -34 29 -73 29 -114c0 -154 -120 -296 -286 -296z" />
    <glyph glyph-name="Oslashacute" unicode="&#x1fe;" horiz-adv-x="815" 
d="M532 793l-29 36l144 149c17 17 35 27 56 27c28 0 50 -24 50 -51c0 -25 -16 -47 -40 -61zM200 307c0 -36 6 -70 18 -99l408 367c-34 37 -85 60 -151 60c-158 0 -275 -167 -275 -328zM406 89c158 0 276 167 276 328c0 33 -6 65 -16 93l-407 -365c34 -35 84 -56 147 -56z
M399 -13c-92 0 -167 30 -221 81l-93 -82l-57 65l97 87c-27 49 -41 107 -41 172c0 207 166 427 398 427c94 0 171 -32 225 -86l97 87l57 -66l-102 -92c25 -48 39 -105 39 -166c0 -210 -168 -427 -399 -427z" />
    <glyph glyph-name="oslashacute" unicode="&#x1ff;" horiz-adv-x="636" 
d="M386 580l-31 37l155 156c17 18 37 28 58 28c29 0 52 -25 52 -54c0 -25 -17 -48 -42 -63zM171 216c0 -20 3 -38 8 -54l245 228c-22 19 -51 29 -83 29c-93 0 -170 -88 -170 -203zM295 84c93 0 170 88 170 203c0 15 -2 30 -5 43l-241 -223c21 -15 47 -23 76 -23zM291 -9
c-59 0 -107 16 -145 44l-79 -75l-56 58l81 75c-22 36 -34 79 -34 124c0 152 121 295 287 295c62 0 113 -19 152 -50l84 80l56 -58l-89 -83c19 -34 29 -73 29 -114c0 -154 -120 -296 -286 -296z" />
    <glyph glyph-name="Otilde" unicode="&#xd5;" horiz-adv-x="815" 
d="M627 795c-43 0 -70 23 -94 46c-25 24 -38 34 -56 34c-28 0 -49 -17 -76 -74l-62 25c26 97 88 154 144 154c43 0 70 -23 94 -46c25 -24 38 -34 56 -34c28 0 49 16 76 73l62 -24c-26 -97 -88 -154 -144 -154zM392 -13c-196 0 -313 135 -313 321c0 209 169 429 402 429
c195 0 312 -135 312 -321c0 -209 -169 -429 -401 -429zM402 89c158 0 275 167 275 328c0 122 -71 218 -206 218c-158 0 -276 -167 -276 -328c0 -122 72 -218 207 -218z" />
    <glyph glyph-name="otilde" unicode="&#xf5;" horiz-adv-x="612" 
d="M479 581c-45 0 -74 24 -99 48c-26 26 -40 36 -59 36c-29 0 -52 -18 -79 -77l-65 25c28 101 92 160 150 160c46 0 74 -23 99 -48c26 -25 40 -35 59 -35c29 0 52 17 80 77l64 -26c-27 -100 -91 -160 -150 -160zM279 -9c-147 0 -231 105 -231 225c0 153 120 296 285 296
c147 0 231 -104 231 -225c0 -153 -120 -296 -285 -296zM283 84c93 0 168 89 168 203c0 85 -55 132 -122 132c-93 0 -168 -89 -168 -203c0 -85 55 -132 122 -132z" />
    <glyph glyph-name="Racute" unicode="&#x154;" horiz-adv-x="677" 
d="M437 793l-29 36l144 149c17 17 35 27 56 27c28 0 50 -24 50 -51c0 -25 -16 -47 -40 -61zM364 373c113 0 181 59 181 142c0 30 -10 54 -28 72c-25 25 -68 37 -130 37h-50l-56 -247c24 -3 49 -4 83 -4zM2 0l22 100h80l122 524h-91l23 100h232c99 0 171 -22 216 -67
c35 -35 53 -80 53 -134c0 -111 -74 -198 -197 -231l88 -192h87l-23 -100h-143l-116 278h-21c-23 0 -49 1 -74 3l-44 -181h93l-23 -100h-284z" />
    <glyph glyph-name="racute" unicode="&#x155;" horiz-adv-x="489" 
d="M325 580l-31 37l155 156c17 18 37 28 58 28c29 0 52 -25 52 -54c0 -25 -17 -48 -42 -63zM52 0l103 409h-93l24 94h187l-32 -143c61 101 120 152 176 152c41 0 78 -31 78 -75c0 -41 -33 -75 -74 -75c-37 0 -64 26 -70 54c-37 -15 -103 -82 -129 -189l-57 -227h-113z" />
    <glyph glyph-name="Rcaron" unicode="&#x158;" horiz-adv-x="677" 
d="M450 783l-136 189l52 45l104 -107l167 110l41 -54zM364 373c113 0 181 59 181 142c0 30 -10 54 -28 72c-25 25 -68 37 -130 37h-50l-56 -247c24 -3 49 -4 83 -4zM2 0l22 100h80l122 524h-91l23 100h232c99 0 171 -22 216 -67c35 -35 53 -80 53 -134
c0 -111 -74 -198 -197 -231l88 -192h87l-23 -100h-143l-116 278h-21c-23 0 -49 1 -74 3l-44 -181h93l-23 -100h-284z" />
    <glyph glyph-name="rcaron" unicode="&#x159;" horiz-adv-x="489" 
d="M338 570l-142 197l54 47l109 -112l175 114l42 -56zM52 0l103 409h-93l24 94h187l-32 -143c61 101 120 152 176 152c41 0 78 -31 78 -75c0 -41 -33 -75 -74 -75c-37 0 -64 26 -70 54c-37 -15 -103 -82 -129 -189l-57 -227h-113z" />
    <glyph glyph-name="Rcommaaccent" unicode="&#x156;" horiz-adv-x="677" 
d="M364 373c113 0 181 59 181 142c0 30 -10 54 -28 72c-25 25 -68 37 -130 37h-50l-56 -247c24 -3 49 -4 83 -4zM2 0l22 100h80l122 524h-91l23 100h232c99 0 171 -22 216 -67c35 -35 53 -80 53 -134c0 -111 -74 -198 -197 -231l88 -192h87l-23 -100h-143l-116 278h-21
c-23 0 -49 1 -74 3l-44 -181h93l-23 -100h-284zM148 -326l-19 37c88 48 117 92 121 109c-30 13 -43 42 -43 58c0 39 31 70 69 70s71 -29 71 -77c0 -68 -79 -152 -199 -197z" />
    <glyph glyph-name="rcommaaccent" unicode="&#x157;" horiz-adv-x="489" 
d="M52 0l103 409h-93l24 94h187l-32 -143c61 101 120 152 176 152c41 0 78 -31 78 -75c0 -41 -33 -75 -74 -75c-37 0 -64 26 -70 54c-37 -15 -103 -82 -129 -189l-57 -227h-113zM-48 -342l-20 38c92 50 124 96 127 115c-31 14 -45 44 -45 61c0 41 32 73 72 73
c39 0 74 -31 74 -81c0 -71 -82 -159 -208 -206z" />
    <glyph glyph-name="Sacute" unicode="&#x15a;" horiz-adv-x="632" 
d="M439 793l-29 36l144 149c17 17 35 27 56 27c28 0 50 -24 50 -51c0 -25 -16 -47 -40 -61zM304 -13c-146 0 -261 85 -261 176c0 55 35 91 79 91c39 0 69 -32 69 -69c0 -20 -7 -41 -26 -55c24 -26 76 -46 145 -46c78 0 136 36 136 101c0 54 -43 86 -123 130
c-86 48 -173 109 -173 221c0 105 95 201 253 201c143 0 236 -84 236 -158c0 -51 -30 -91 -77 -91c-39 0 -69 31 -69 69c0 17 6 36 22 51c-12 15 -54 32 -111 32c-86 0 -135 -44 -135 -94c0 -60 53 -97 129 -139c87 -48 167 -109 167 -212c0 -116 -97 -208 -261 -208z" />
    <glyph glyph-name="sacute" unicode="&#x15b;" horiz-adv-x="522" 
d="M330 580l-31 37l155 156c17 18 37 28 58 28c29 0 52 -25 52 -54c0 -25 -17 -48 -42 -63zM244 -9c-79 0 -147 26 -184 64c-20 20 -32 43 -32 68c0 40 26 68 62 68c33 0 58 -27 58 -59c0 -11 -4 -24 -9 -31c4 -4 10 -8 18 -12c23 -11 55 -17 89 -17c51 0 95 18 95 55
c0 41 -52 60 -108 85c-68 29 -137 64 -137 146s69 154 200 154c69 0 129 -22 162 -57c19 -19 30 -42 30 -66c0 -41 -29 -67 -62 -67c-32 0 -60 27 -60 59c0 11 2 17 9 31c-4 3 -9 6 -17 9c-16 6 -39 10 -63 10c-47 0 -89 -17 -89 -53c0 -37 52 -58 110 -84
c68 -31 135 -68 135 -147c0 -100 -80 -156 -207 -156z" />
    <glyph glyph-name="Scaron" unicode="&#x160;" horiz-adv-x="632" 
d="M451 783l-136 189l52 45l104 -107l167 110l41 -54zM304 -13c-146 0 -261 85 -261 176c0 55 35 91 79 91c39 0 69 -32 69 -69c0 -20 -7 -41 -26 -55c24 -26 76 -46 145 -46c78 0 136 36 136 101c0 54 -43 86 -123 130c-86 48 -173 109 -173 221c0 105 95 201 253 201
c143 0 236 -84 236 -158c0 -51 -30 -91 -77 -91c-39 0 -69 31 -69 69c0 17 6 36 22 51c-12 15 -54 32 -111 32c-86 0 -135 -44 -135 -94c0 -60 53 -97 129 -139c87 -48 167 -109 167 -212c0 -116 -97 -208 -261 -208z" />
    <glyph glyph-name="scaron" unicode="&#x161;" horiz-adv-x="522" 
d="M343 570l-142 197l54 47l109 -112l175 114l42 -56zM244 -9c-79 0 -147 26 -184 64c-20 20 -32 43 -32 68c0 40 26 68 62 68c33 0 58 -27 58 -59c0 -11 -4 -24 -9 -31c4 -4 10 -8 18 -12c23 -11 55 -17 89 -17c51 0 95 18 95 55c0 41 -52 60 -108 85
c-68 29 -137 64 -137 146s69 154 200 154c69 0 129 -22 162 -57c19 -19 30 -42 30 -66c0 -41 -29 -67 -62 -67c-32 0 -60 27 -60 59c0 11 2 17 9 31c-4 3 -9 6 -17 9c-16 6 -39 10 -63 10c-47 0 -89 -17 -89 -53c0 -37 52 -58 110 -84c68 -31 135 -68 135 -147
c0 -100 -80 -156 -207 -156z" />
    <glyph glyph-name="Scedilla" unicode="&#x15e;" horiz-adv-x="632" 
d="M255 -220c-51 0 -102 23 -133 47l22 34c31 -19 69 -30 105 -30c25 0 43 13 43 29c0 18 -18 35 -71 29l-17 25l47 77c-120 17 -208 92 -208 172c0 55 35 91 79 91c39 0 69 -32 69 -69c0 -20 -7 -41 -26 -55c24 -26 76 -46 145 -46c78 0 136 36 136 101
c0 54 -43 86 -123 130c-86 48 -173 109 -173 221c0 105 95 201 253 201c143 0 236 -84 236 -158c0 -51 -30 -91 -77 -91c-39 0 -69 31 -69 69c0 17 6 36 22 51c-12 15 -54 32 -111 32c-86 0 -135 -44 -135 -94c0 -60 53 -97 129 -139c87 -48 167 -109 167 -212
c0 -116 -97 -208 -261 -208h-6l-10 -39c63 -9 98 -41 98 -84c0 -51 -55 -84 -131 -84z" />
    <glyph glyph-name="scedilla" unicode="&#x15f;" horiz-adv-x="522" 
d="M193 -232c-55 0 -108 25 -141 50l24 35c32 -19 73 -32 111 -32c26 0 45 15 45 32c0 19 -20 36 -75 30l-17 26l52 86c-57 8 -104 30 -132 60c-20 20 -32 43 -32 68c0 40 26 68 62 68c33 0 58 -27 58 -59c0 -11 -4 -24 -9 -31c4 -4 10 -8 18 -12c23 -11 55 -17 89 -17
c51 0 95 18 95 55c0 41 -52 60 -108 85c-68 29 -137 64 -137 146s69 154 200 154c69 0 129 -22 162 -57c19 -19 30 -42 30 -66c0 -41 -29 -67 -62 -67c-32 0 -60 27 -60 59c0 11 2 17 9 31c-4 3 -9 6 -17 9c-16 6 -39 10 -63 10c-47 0 -89 -17 -89 -53c0 -37 52 -58 110 -84
c68 -31 135 -68 135 -147c0 -100 -80 -156 -207 -156h-5l-11 -46c65 -9 102 -44 102 -89c0 -53 -58 -88 -137 -88z" />
    <glyph glyph-name="Scommaaccent" unicode="&#x218;" horiz-adv-x="632" 
d="M304 -13c-146 0 -261 85 -261 176c0 55 35 91 79 91c39 0 69 -32 69 -69c0 -20 -7 -41 -26 -55c24 -26 76 -46 145 -46c78 0 136 36 136 101c0 54 -43 86 -123 130c-86 48 -173 109 -173 221c0 105 95 201 253 201c143 0 236 -84 236 -158c0 -51 -30 -91 -77 -91
c-39 0 -69 31 -69 69c0 17 6 36 22 51c-12 15 -54 32 -111 32c-86 0 -135 -44 -135 -94c0 -60 53 -97 129 -139c87 -48 167 -109 167 -212c0 -116 -97 -208 -261 -208zM108 -326l-19 37c88 48 117 92 121 109c-30 13 -43 42 -43 58c0 39 31 70 69 70s71 -29 71 -77
c0 -68 -79 -152 -199 -197z" />
    <glyph glyph-name="scommaaccent" unicode="&#x219;" horiz-adv-x="522" 
d="M244 -9c-79 0 -147 26 -184 64c-20 20 -32 43 -32 68c0 40 26 68 62 68c33 0 58 -27 58 -59c0 -11 -4 -24 -9 -31c4 -4 10 -8 18 -12c23 -11 55 -17 89 -17c51 0 95 18 95 55c0 41 -52 60 -108 85c-68 29 -137 64 -137 146s69 154 200 154c69 0 129 -22 162 -57
c19 -19 30 -42 30 -66c0 -41 -29 -67 -62 -67c-32 0 -60 27 -60 59c0 11 2 17 9 31c-4 3 -9 6 -17 9c-16 6 -39 10 -63 10c-47 0 -89 -17 -89 -53c0 -37 52 -58 110 -84c68 -31 135 -68 135 -147c0 -100 -80 -156 -207 -156zM43 -342l-20 38c92 50 124 96 127 115
c-31 14 -45 44 -45 61c0 41 32 73 72 73c39 0 74 -31 74 -81c0 -71 -82 -159 -208 -206z" />
    <glyph glyph-name="Tcaron" unicode="&#x164;" horiz-adv-x="691" 
d="M476 783l-136 189l52 45l104 -107l167 110l41 -54zM150 0l23 100h87l123 527h-147l-26 -115h-107l50 212h616l-49 -212h-106l26 115h-145l-123 -527h98l-22 -100h-298z" />
    <glyph glyph-name="tcaron" unicode="&#x165;" horiz-adv-x="428" 
d="M379 551l-30 27c47 53 61 90 69 122c8 38 1 73 14 114c8 30 29 51 64 51c37 0 59 -26 59 -63c0 -49 -26 -89 -61 -136c-36 -46 -78 -81 -115 -115zM418 409h-153l-60 -242c-4 -18 -8 -35 -8 -46c0 -30 17 -43 38 -43c27 0 50 9 100 42l38 -53c-67 -60 -125 -76 -174 -76
c-64 0 -116 35 -116 112c0 18 4 40 9 64l60 242h-91l21 94h93l28 112l124 44l-39 -156h154z" />
    <glyph glyph-name="Tcommaaccent" unicode="&#x162;" horiz-adv-x="691" 
d="M150 0l23 100h87l123 527h-147l-26 -115h-107l50 212h616l-49 -212h-106l26 115h-145l-123 -527h98l-22 -100h-298zM133 -326l-19 37c88 48 117 92 121 109c-30 13 -43 42 -43 58c0 39 31 70 69 70s71 -29 71 -77c0 -68 -79 -152 -199 -197z" />
    <glyph glyph-name="tcommaaccent" unicode="&#x163;" horiz-adv-x="428" 
d="M418 409h-153l-60 -242c-4 -18 -8 -35 -8 -46c0 -30 17 -43 38 -43c27 0 50 9 100 42l38 -53c-67 -60 -125 -76 -174 -76c-64 0 -116 35 -116 112c0 18 4 40 9 64l60 242h-91l21 94h93l28 112l124 44l-39 -156h154zM9 -342l-20 38c92 50 124 96 127 115
c-31 14 -45 44 -45 61c0 41 32 73 72 73c39 0 74 -31 74 -81c0 -71 -82 -159 -208 -206z" />
    <glyph glyph-name="Thorn" unicode="&#xde;" horiz-adv-x="643" 
d="M362 264c108 0 156 47 156 113c0 24 -8 45 -24 61c-20 19 -55 30 -106 30h-87l-46 -200c31 -2 70 -4 107 -4zM2 0l22 100h80l122 524h-91l23 100h290l-23 -97h-86l-16 -67h89c78 0 138 -22 175 -60c29 -29 44 -69 44 -115c0 -131 -101 -214 -275 -214c-51 0 -94 2 -123 4
l-18 -78h97l-22 -97h-288z" />
    <glyph glyph-name="thorn" unicode="&#xfe;" horiz-adv-x="631" 
d="M297 89c94 0 168 100 168 208c0 68 -38 120 -106 120c-95 0 -175 -102 -175 -212c0 -70 38 -116 113 -116zM-101 -227l24 92h74l207 890h-95l25 94h201l-101 -435c39 52 99 98 169 98c114 0 178 -81 178 -201c0 -174 -120 -321 -268 -321c-75 0 -133 54 -151 112
l-54 -237h94l-24 -92h-279z" />
    <glyph glyph-name="Uacute" unicode="&#xda;" horiz-adv-x="779" 
d="M505 793l-29 36l144 149c17 17 35 27 56 27c28 0 50 -24 50 -51c0 -25 -16 -47 -40 -61zM358 -13c-145 0 -233 85 -233 217c0 29 6 66 15 101l73 319h-88l23 100h284l-23 -100h-84l-74 -324c-8 -31 -13 -62 -13 -86c0 -82 47 -126 137 -126c96 0 154 63 178 166l85 370
h-97l22 100h285l-23 -100h-78l-87 -380c-39 -163 -124 -257 -302 -257z" />
    <glyph glyph-name="uacute" unicode="&#xfa;" horiz-adv-x="666" 
d="M384 580l-31 37l155 156c17 18 37 28 58 28c29 0 52 -25 52 -54c0 -25 -17 -48 -42 -63zM84 503h204l-75 -299c-4 -16 -7 -33 -7 -48c0 -45 25 -72 67 -72c64 0 111 49 133 138l70 281h113l-88 -350c-5 -22 -9 -41 -9 -53c0 -21 10 -33 28 -33s41 15 66 82l47 -18
c-32 -107 -89 -140 -145 -140c-62 0 -100 43 -100 109v3c-42 -67 -103 -112 -169 -112c-69 0 -129 51 -129 135c0 26 5 57 13 88l48 195h-92z" />
    <glyph glyph-name="Ubreve" unicode="&#x16c;" horiz-adv-x="779" 
d="M524 798c-90 0 -151 64 -156 187l67 22c18 -75 48 -113 106 -113c47 0 91 27 144 111l59 -28c-53 -123 -141 -179 -220 -179zM358 -13c-145 0 -233 85 -233 217c0 29 6 66 15 101l73 319h-88l23 100h284l-23 -100h-84l-74 -324c-8 -31 -13 -62 -13 -86
c0 -82 47 -126 137 -126c96 0 154 63 178 166l85 370h-97l22 100h285l-23 -100h-78l-87 -380c-39 -163 -124 -257 -302 -257z" />
    <glyph glyph-name="ubreve" unicode="&#x16d;" horiz-adv-x="666" 
d="M405 584c-94 0 -158 68 -163 195l69 22c19 -77 51 -117 111 -117c51 0 97 29 152 115l61 -28c-55 -128 -147 -187 -230 -187zM84 503h204l-75 -299c-4 -16 -7 -33 -7 -48c0 -45 25 -72 67 -72c64 0 111 49 133 138l70 281h113l-88 -350c-5 -22 -9 -41 -9 -53
c0 -21 10 -33 28 -33s41 15 66 82l47 -18c-32 -107 -89 -140 -145 -140c-62 0 -100 43 -100 109v3c-42 -67 -103 -112 -169 -112c-69 0 -129 51 -129 135c0 26 5 57 13 88l48 195h-92z" />
    <glyph glyph-name="Ucircumflex" unicode="&#xdb;" horiz-adv-x="779" 
d="M380 790l-41 55l228 182l136 -188l-53 -46l-104 107zM358 -13c-145 0 -233 85 -233 217c0 29 6 66 15 101l73 319h-88l23 100h284l-23 -100h-84l-74 -324c-8 -31 -13 -62 -13 -86c0 -82 47 -126 137 -126c96 0 154 63 178 166l85 370h-97l22 100h285l-23 -100h-78
l-87 -380c-39 -163 -124 -257 -302 -257z" />
    <glyph glyph-name="ucircumflex" unicode="&#xfb;" horiz-adv-x="666" 
d="M254 577l-43 56l238 190l143 -197l-54 -47l-110 112zM84 503h204l-75 -299c-4 -16 -7 -33 -7 -48c0 -45 25 -72 67 -72c64 0 111 49 133 138l70 281h113l-88 -350c-5 -22 -9 -41 -9 -53c0 -21 10 -33 28 -33s41 15 66 82l47 -18c-32 -107 -89 -140 -145 -140
c-62 0 -100 43 -100 109v3c-42 -67 -103 -112 -169 -112c-69 0 -129 51 -129 135c0 26 5 57 13 88l48 195h-92z" />
    <glyph glyph-name="Udieresis" unicode="&#xdc;" horiz-adv-x="779" 
d="M428 809c-40 0 -74 33 -74 75c0 41 36 74 76 74c41 0 74 -33 74 -74c0 -42 -35 -75 -76 -75zM645 809c-41 0 -74 33 -74 75c0 41 35 74 76 74c40 0 74 -33 74 -74c0 -42 -36 -75 -76 -75zM358 -13c-145 0 -233 85 -233 217c0 29 6 66 15 101l73 319h-88l23 100h284
l-23 -100h-84l-74 -324c-8 -31 -13 -62 -13 -86c0 -82 47 -126 137 -126c96 0 154 63 178 166l85 370h-97l22 100h285l-23 -100h-78l-87 -380c-39 -163 -124 -257 -302 -257z" />
    <glyph glyph-name="udieresis" unicode="&#xfc;" horiz-adv-x="666" 
d="M305 597c-42 0 -77 34 -77 77s36 78 78 78c43 0 78 -35 78 -78s-37 -77 -79 -77zM531 597c-42 0 -77 34 -77 77s36 78 79 78c42 0 77 -35 77 -78s-37 -77 -79 -77zM84 503h204l-75 -299c-4 -16 -7 -33 -7 -48c0 -45 25 -72 67 -72c64 0 111 49 133 138l70 281h113
l-88 -350c-5 -22 -9 -41 -9 -53c0 -21 10 -33 28 -33s41 15 66 82l47 -18c-32 -107 -89 -140 -145 -140c-62 0 -100 43 -100 109v3c-42 -67 -103 -112 -169 -112c-69 0 -129 51 -129 135c0 26 5 57 13 88l48 195h-92z" />
    <glyph glyph-name="Ugrave" unicode="&#xd9;" horiz-adv-x="779" 
d="M530 780l-127 117c-18 17 -25 35 -25 53c0 32 26 56 53 56c29 0 45 -16 59 -44l77 -156zM358 -13c-145 0 -233 85 -233 217c0 29 6 66 15 101l73 319h-88l23 100h284l-23 -100h-84l-74 -324c-8 -31 -13 -62 -13 -86c0 -82 47 -126 137 -126c96 0 154 63 178 166l85 370
h-97l22 100h285l-23 -100h-78l-87 -380c-39 -163 -124 -257 -302 -257z" />
    <glyph glyph-name="ugrave" unicode="&#xf9;" horiz-adv-x="666" 
d="M413 566l-134 122c-20 18 -27 36 -27 56c0 32 27 57 55 57c30 0 47 -16 62 -45l83 -162zM84 503h204l-75 -299c-4 -16 -7 -33 -7 -48c0 -45 25 -72 67 -72c64 0 111 49 133 138l70 281h113l-88 -350c-5 -22 -9 -41 -9 -53c0 -21 10 -33 28 -33s41 15 66 82l47 -18
c-32 -107 -89 -140 -145 -140c-62 0 -100 43 -100 109v3c-42 -67 -103 -112 -169 -112c-69 0 -129 51 -129 135c0 26 5 57 13 88l48 195h-92z" />
    <glyph glyph-name="Uhungarumlaut" unicode="&#x170;" horiz-adv-x="779" 
d="M394 794l-30 36l136 147c16 18 35 28 56 28c27 0 49 -22 49 -51c0 -22 -15 -45 -39 -60zM618 795l-30 36l138 146c16 17 36 27 56 27c28 0 49 -23 49 -52c0 -22 -15 -45 -40 -59zM358 -13c-145 0 -233 85 -233 217c0 29 6 66 15 101l73 319h-88l23 100h284l-23 -100h-84
l-74 -324c-8 -31 -13 -62 -13 -86c0 -82 47 -126 137 -126c96 0 154 63 178 166l85 370h-97l22 100h285l-23 -100h-78l-87 -380c-39 -163 -124 -257 -302 -257z" />
    <glyph glyph-name="uhungarumlaut" unicode="&#x171;" horiz-adv-x="666" 
d="M268 580l-31 37l143 155c17 18 37 29 59 29c28 0 51 -23 51 -54c0 -23 -16 -47 -41 -62zM503 582l-31 37l146 152c17 18 37 28 58 28c30 0 52 -24 52 -53c0 -24 -16 -47 -43 -63zM84 503h204l-75 -299c-4 -16 -7 -33 -7 -48c0 -45 25 -72 67 -72c64 0 111 49 133 138
l70 281h113l-88 -350c-5 -22 -9 -41 -9 -53c0 -21 10 -33 28 -33s41 15 66 82l47 -18c-32 -107 -89 -140 -145 -140c-62 0 -100 43 -100 109v3c-42 -67 -103 -112 -169 -112c-69 0 -129 51 -129 135c0 26 5 57 13 88l48 195h-92z" />
    <glyph glyph-name="Umacron" unicode="&#x16a;" horiz-adv-x="779" 
d="M347 825l21 88h353l-20 -88h-354zM358 -13c-145 0 -233 85 -233 217c0 29 6 66 15 101l73 319h-88l23 100h284l-23 -100h-84l-74 -324c-8 -31 -13 -62 -13 -86c0 -82 47 -126 137 -126c96 0 154 63 178 166l85 370h-97l22 100h285l-23 -100h-78l-87 -380
c-39 -163 -124 -257 -302 -257z" />
    <glyph glyph-name="umacron" unicode="&#x16b;" horiz-adv-x="666" 
d="M219 613l22 91h370l-20 -91h-372zM84 503h204l-75 -299c-4 -16 -7 -33 -7 -48c0 -45 25 -72 67 -72c64 0 111 49 133 138l70 281h113l-88 -350c-5 -22 -9 -41 -9 -53c0 -21 10 -33 28 -33s41 15 66 82l47 -18c-32 -107 -89 -140 -145 -140c-62 0 -100 43 -100 109v3
c-42 -67 -103 -112 -169 -112c-69 0 -129 51 -129 135c0 26 5 57 13 88l48 195h-92z" />
    <glyph glyph-name="Uogonek" unicode="&#x172;" horiz-adv-x="779" 
d="M250 -133c0 45 27 86 68 122c-121 14 -193 95 -193 215c0 29 6 66 15 101l73 319h-88l23 100h284l-23 -100h-84l-74 -324c-8 -31 -13 -62 -13 -86c0 -82 47 -126 137 -126c96 0 154 63 178 166l85 370h-97l22 100h285l-23 -100h-78l-87 -380
c-36 -148 -109 -239 -254 -254c-36 -31 -59 -61 -59 -89c0 -24 16 -37 44 -37c22 0 45 4 60 9l-17 -68c-17 -13 -48 -26 -88 -26c-51 0 -96 31 -96 88z" />
    <glyph glyph-name="uogonek" unicode="&#x173;" horiz-adv-x="666" 
d="M586 149l47 -18c-17 -58 -38 -87 -72 -117c-46 -43 -101 -71 -101 -120c0 -25 17 -39 47 -39c24 0 47 4 63 9l-17 -71c-18 -13 -50 -26 -92 -26c-54 0 -101 32 -101 93c0 57 39 102 90 138c-39 13 -62 50 -62 102v3c-42 -67 -103 -112 -169 -112c-69 0 -128 51 -128 135
c0 26 4 57 12 88l48 195h-92l25 94h204l-75 -299c-4 -16 -7 -32 -7 -48c0 -45 25 -71 67 -71c64 0 111 48 133 137l70 281h113l-88 -350c-5 -22 -9 -41 -9 -53c0 -21 10 -33 28 -33s41 15 66 82z" />
    <glyph glyph-name="Uring" unicode="&#x16e;" horiz-adv-x="779" 
d="M533 795c-76 0 -120 55 -120 119c0 82 66 157 152 157c76 0 121 -55 121 -119c0 -82 -66 -157 -153 -157zM538 865c39 0 68 39 68 81c0 29 -18 54 -46 54c-39 0 -67 -38 -67 -81c0 -29 17 -54 45 -54zM358 -13c-145 0 -233 85 -233 217c0 29 6 66 15 101l73 319h-88
l23 100h284l-23 -100h-84l-74 -324c-8 -31 -13 -62 -13 -86c0 -82 47 -126 137 -126c96 0 154 63 178 166l85 370h-97l22 100h285l-23 -100h-78l-87 -380c-39 -163 -124 -257 -302 -257z" />
    <glyph glyph-name="uring" unicode="&#x16f;" horiz-adv-x="666" 
d="M415 581c-79 0 -125 57 -125 124c0 86 68 164 159 164c78 0 125 -57 125 -124c0 -86 -69 -164 -159 -164zM420 653c41 0 71 41 71 86c0 31 -18 57 -48 57c-41 0 -71 -40 -71 -85c0 -31 19 -58 48 -58zM84 503h204l-75 -299c-4 -16 -7 -33 -7 -48c0 -45 25 -72 67 -72
c64 0 111 49 133 138l70 281h113l-88 -350c-5 -22 -9 -41 -9 -53c0 -21 10 -33 28 -33s41 15 66 82l47 -18c-32 -107 -89 -140 -145 -140c-62 0 -100 43 -100 109v3c-42 -67 -103 -112 -169 -112c-69 0 -129 51 -129 135c0 26 5 57 13 88l48 195h-92z" />
    <glyph glyph-name="Wacute" unicode="&#x1e82;" horiz-adv-x="1081" 
d="M650 793l-29 36l144 149c17 17 35 27 56 27c28 0 50 -24 50 -51c0 -25 -16 -47 -40 -61zM249 -8l-54 632h-78l23 100h282l-23 -100h-91l23 -418l258 443h55l87 -447l196 422h-88l23 100h282l-23 -100h-69l-318 -631h-59l-95 443l-273 -443z" />
    <glyph glyph-name="wacute" unicode="&#x1e83;" horiz-adv-x="817" 
d="M472 580l-31 37l155 156c17 18 37 28 58 28c29 0 52 -25 52 -54c0 -25 -17 -48 -42 -63zM168 -12l-45 421h-92l24 94h165l20 -375l171 320h68l65 -327c65 99 120 192 128 253c-26 8 -51 31 -51 68c0 39 31 70 70 70c49 0 83 -35 83 -94c0 -81 -70 -220 -222 -430h-70
l-64 295l-171 -295h-79z" />
    <glyph glyph-name="Wcircumflex" unicode="&#x174;" horiz-adv-x="1081" 
d="M526 790l-41 55l228 182l136 -188l-53 -46l-104 107zM249 -8l-54 632h-78l23 100h282l-23 -100h-91l23 -418l258 443h55l87 -447l196 422h-88l23 100h282l-23 -100h-69l-318 -631h-59l-95 443l-273 -443z" />
    <glyph glyph-name="wcircumflex" unicode="&#x175;" horiz-adv-x="817" 
d="M343 577l-43 56l238 190l143 -197l-54 -47l-110 112zM168 -12l-45 421h-92l24 94h165l20 -375l171 320h68l65 -327c65 99 120 192 128 253c-26 8 -51 31 -51 68c0 39 31 70 70 70c49 0 83 -35 83 -94c0 -81 -70 -220 -222 -430h-70l-64 295l-171 -295h-79z" />
    <glyph glyph-name="Wdieresis" unicode="&#x1e84;" horiz-adv-x="1081" 
d="M573 809c-40 0 -74 33 -74 75c0 41 36 74 76 74c41 0 74 -33 74 -74c0 -42 -35 -75 -76 -75zM790 809c-41 0 -74 33 -74 75c0 41 35 74 76 74c40 0 74 -33 74 -74c0 -42 -36 -75 -76 -75zM249 -8l-54 632h-78l23 100h282l-23 -100h-91l23 -418l258 443h55l87 -447
l196 422h-88l23 100h282l-23 -100h-69l-318 -631h-59l-95 443l-273 -443z" />
    <glyph glyph-name="wdieresis" unicode="&#x1e85;" horiz-adv-x="817" 
d="M394 597c-42 0 -77 34 -77 77s36 78 78 78c43 0 78 -35 78 -78s-37 -77 -79 -77zM620 597c-42 0 -77 34 -77 77s36 78 79 78c42 0 77 -35 77 -78s-37 -77 -79 -77zM168 -12l-45 421h-92l24 94h165l20 -375l171 320h68l65 -327c65 99 120 192 128 253c-26 8 -51 31 -51 68
c0 39 31 70 70 70c49 0 83 -35 83 -94c0 -81 -70 -220 -222 -430h-70l-64 295l-171 -295h-79z" />
    <glyph glyph-name="Wgrave" unicode="&#x1e80;" horiz-adv-x="1081" 
d="M675 780l-127 117c-18 17 -25 35 -25 53c0 32 26 56 53 56c29 0 45 -16 59 -44l77 -156zM249 -8l-54 632h-78l23 100h282l-23 -100h-91l23 -418l258 443h55l87 -447l196 422h-88l23 100h282l-23 -100h-69l-318 -631h-59l-95 443l-273 -443z" />
    <glyph glyph-name="wgrave" unicode="&#x1e81;" horiz-adv-x="817" 
d="M501 566l-134 122c-20 18 -27 36 -27 56c0 32 27 57 55 57c30 0 47 -16 62 -45l83 -162zM168 -12l-45 421h-92l24 94h165l20 -375l171 320h68l65 -327c65 99 120 192 128 253c-26 8 -51 31 -51 68c0 39 31 70 70 70c49 0 83 -35 83 -94c0 -81 -70 -220 -222 -430h-70
l-64 295l-171 -295h-79z" />
    <glyph glyph-name="Yacute" unicode="&#xdd;" horiz-adv-x="720" 
d="M461 793l-29 36l144 149c17 17 35 27 56 27c28 0 50 -24 50 -51c0 -25 -16 -47 -40 -61zM145 0l23 100h88l43 184l-125 340h-71l23 100h265l-23 -100h-78l86 -260l207 260h-78l23 100h278l-22 -100h-67l-311 -361l-38 -163h97l-23 -100h-297z" />
    <glyph glyph-name="yacute" unicode="&#xfd;" horiz-adv-x="586" 
d="M340 580l-31 37l155 156c17 18 37 28 58 28c29 0 52 -25 52 -54c0 -25 -17 -48 -42 -63zM-5 -232c-55 0 -92 37 -92 77s31 68 67 68c29 0 54 -19 62 -48c27 2 75 41 173 159l-79 385h-87l24 94h158l64 -391c77 99 141 189 160 258c-27 10 -50 35 -50 70c0 40 32 72 74 72
c51 0 83 -37 83 -96c0 -63 -38 -163 -225 -393c-185 -225 -254 -255 -332 -255z" />
    <glyph glyph-name="Ycircumflex" unicode="&#x176;" horiz-adv-x="720" 
d="M336 790l-41 55l228 182l136 -188l-53 -46l-104 107zM145 0l23 100h88l43 184l-125 340h-71l23 100h265l-23 -100h-78l86 -260l207 260h-78l23 100h278l-22 -100h-67l-311 -361l-38 -163h97l-23 -100h-297z" />
    <glyph glyph-name="ycircumflex" unicode="&#x177;" horiz-adv-x="586" 
d="M210 577l-43 56l238 190l143 -197l-54 -47l-110 112zM-5 -232c-55 0 -92 37 -92 77s31 68 67 68c29 0 54 -19 62 -48c27 2 75 41 173 159l-79 385h-87l24 94h158l64 -391c77 99 141 189 160 258c-27 10 -50 35 -50 70c0 40 32 72 74 72c51 0 83 -37 83 -96
c0 -63 -38 -163 -225 -393c-185 -225 -254 -255 -332 -255z" />
    <glyph glyph-name="Ydieresis" unicode="&#x178;" horiz-adv-x="720" 
d="M383 809c-40 0 -74 33 -74 75c0 41 36 74 76 74c41 0 74 -33 74 -74c0 -42 -35 -75 -76 -75zM600 809c-41 0 -74 33 -74 75c0 41 35 74 76 74c40 0 74 -33 74 -74c0 -42 -36 -75 -76 -75zM145 0l23 100h88l43 184l-125 340h-71l23 100h265l-23 -100h-78l86 -260l207 260
h-78l23 100h278l-22 -100h-67l-311 -361l-38 -163h97l-23 -100h-297z" />
    <glyph glyph-name="ydieresis" unicode="&#xff;" horiz-adv-x="586" 
d="M261 597c-42 0 -77 34 -77 77s36 78 78 78c43 0 78 -35 78 -78s-37 -77 -79 -77zM487 597c-42 0 -77 34 -77 77s36 78 79 78c42 0 77 -35 77 -78s-37 -77 -79 -77zM-5 -232c-55 0 -92 37 -92 77s31 68 67 68c29 0 54 -19 62 -48c27 2 75 41 173 159l-79 385h-87l24 94
h158l64 -391c77 99 141 189 160 258c-27 10 -50 35 -50 70c0 40 32 72 74 72c51 0 83 -37 83 -96c0 -63 -38 -163 -225 -393c-185 -225 -254 -255 -332 -255z" />
    <glyph glyph-name="Ygrave" unicode="&#x1ef2;" horiz-adv-x="720" 
d="M486 780l-127 117c-18 17 -25 35 -25 53c0 32 26 56 53 56c29 0 45 -16 59 -44l77 -156zM145 0l23 100h88l43 184l-125 340h-71l23 100h265l-23 -100h-78l86 -260l207 260h-78l23 100h278l-22 -100h-67l-311 -361l-38 -163h97l-23 -100h-297z" />
    <glyph glyph-name="ygrave" unicode="&#x1ef3;" horiz-adv-x="586" 
d="M369 566l-134 122c-20 18 -27 36 -27 56c0 32 27 57 55 57c30 0 47 -16 62 -45l83 -162zM-5 -232c-55 0 -92 37 -92 77s31 68 67 68c29 0 54 -19 62 -48c27 2 75 41 173 159l-79 385h-87l24 94h158l64 -391c77 99 141 189 160 258c-27 10 -50 35 -50 70c0 40 32 72 74 72
c51 0 83 -37 83 -96c0 -63 -38 -163 -225 -393c-185 -225 -254 -255 -332 -255z" />
    <glyph glyph-name="Zacute" unicode="&#x179;" horiz-adv-x="700" 
d="M465 793l-29 36l144 149c17 17 35 27 56 27c28 0 50 -24 50 -51c0 -25 -16 -47 -40 -61zM31 0l-9 62l544 568h-298l-27 -119h-103l50 213h539l9 -62l-545 -568h315l27 119h103l-50 -213h-555z" />
    <glyph glyph-name="zacute" unicode="&#x17a;" horiz-adv-x="565" 
d="M340 580l-31 37l155 156c17 18 37 28 58 28c29 0 52 -25 52 -54c0 -25 -17 -48 -42 -63zM49 -9l-41 62l392 362h-200l-23 -93h-96l45 181h390l32 -68l-375 -346c27 8 44 12 75 12c43 0 92 -19 123 -19c55 0 71 28 95 98l44 -10c-17 -89 -47 -179 -146 -179
c-46 0 -137 29 -190 29c-51 0 -88 -11 -125 -29z" />
    <glyph glyph-name="Zcaron" unicode="&#x17d;" horiz-adv-x="700" 
d="M478 783l-136 189l52 45l104 -107l167 110l41 -54zM31 0l-9 62l544 568h-298l-27 -119h-103l50 213h539l9 -62l-545 -568h315l27 119h103l-50 -213h-555z" />
    <glyph glyph-name="zcaron" unicode="&#x17e;" horiz-adv-x="565" 
d="M354 570l-142 197l54 47l109 -112l175 114l42 -56zM49 -9l-41 62l392 362h-200l-23 -93h-96l45 181h390l32 -68l-375 -346c27 8 44 12 75 12c43 0 92 -19 123 -19c55 0 71 28 95 98l44 -10c-17 -89 -47 -179 -146 -179c-46 0 -137 29 -190 29c-51 0 -88 -11 -125 -29z
" />
    <glyph glyph-name="Zdotaccent" unicode="&#x17b;" horiz-adv-x="700" 
d="M498 809c-41 0 -75 33 -75 75c0 41 36 75 77 75c40 0 74 -34 74 -75c0 -42 -35 -75 -76 -75zM31 0l-9 62l544 568h-298l-27 -119h-103l50 213h539l9 -62l-545 -568h315l27 119h103l-50 -213h-555z" />
    <glyph glyph-name="zdotaccent" unicode="&#x17c;" horiz-adv-x="565" 
d="M375 596c-43 0 -78 35 -78 78c0 44 37 79 80 79c42 0 77 -35 77 -79c0 -43 -37 -78 -79 -78zM49 -9l-41 62l392 362h-200l-23 -93h-96l45 181h390l32 -68l-375 -346c27 8 44 12 75 12c43 0 92 -19 123 -19c55 0 71 28 95 98l44 -10c-17 -89 -47 -179 -146 -179
c-46 0 -137 29 -190 29c-51 0 -88 -11 -125 -29z" />
    <glyph glyph-name="schwa" unicode="&#x259;" horiz-adv-x="575" 
d="M45 181c0 32 6 68 19 107h354v14c0 67 -55 117 -148 117c-52 0 -103 -11 -166 -45l22 103c53 26 96 35 169 35c121 0 233 -76 233 -214c0 -171 -125 -307 -275 -307c-124 0 -208 69 -208 190zM253 83c68 0 125 50 150 126h-246c-4 -14 -6 -28 -6 -40
c0 -51 34 -86 102 -86z" />
    <glyph glyph-name="germandbls" unicode="&#xdf;" horiz-adv-x="675" 
d="M427 -7c-88 0 -154 53 -154 112c0 38 30 66 63 66s60 -27 60 -59c0 -11 -4 -20 -9 -29c5 -3 22 -7 39 -7c60 0 93 35 93 86c0 37 -27 65 -71 104c-44 41 -87 84 -87 151s46 102 93 135c48 35 89 65 89 124c0 46 -42 84 -97 84c-70 0 -120 -50 -140 -140l-142 -620h-110
l94 409h-89l25 94h86l29 127c27 130 105 227 252 227c122 0 201 -75 201 -183c0 -92 -59 -140 -112 -176c-40 -26 -71 -51 -71 -81c0 -26 21 -50 67 -92c44 -40 90 -89 90 -165c0 -87 -64 -167 -199 -167z" />
    <glyph glyph-name="zero" unicode="0" horiz-adv-x="691" 
d="M332 -9c-167 0 -262 122 -262 272c0 175 134 348 322 348c166 0 262 -121 262 -272c0 -174 -134 -348 -322 -348zM335 85c117 0 203 121 203 253c0 104 -61 179 -149 179c-117 0 -203 -121 -203 -253c0 -104 61 -179 149 -179z" />
    <glyph glyph-name="one" unicode="1" horiz-adv-x="497" 
d="M19 1l21 92h137l92 399l-127 -30l-4 94l213 54l51 -24l-114 -493h139l-21 -92h-387z" />
    <glyph glyph-name="two" unicode="2" horiz-adv-x="632" 
d="M26 0l-14 62c58 118 176 188 292 239c102 45 176 81 176 140c0 49 -51 75 -118 75c-49 0 -90 -13 -113 -32c11 -12 17 -26 17 -43c0 -39 -30 -68 -68 -68c-39 0 -73 30 -73 74c0 77 94 164 246 164c135 0 226 -71 226 -163c0 -110 -126 -169 -247 -221
c-115 -49 -167 -83 -206 -137h295l23 98h94l-44 -188h-486z" />
    <glyph glyph-name="three" unicode="3" horiz-adv-x="597" 
d="M241 -147c-146 0 -250 89 -250 178c0 51 31 82 70 82c37 0 66 -29 66 -64c0 -22 -13 -43 -27 -51c10 -18 59 -52 144 -52c94 0 153 62 153 130c0 73 -62 127 -166 127h-31l22 89h28c118 0 209 48 209 131c0 60 -53 95 -129 95c-58 0 -85 -11 -102 -24
c10 -11 17 -26 17 -42c0 -37 -29 -65 -66 -65c-33 0 -70 22 -70 73c0 79 96 152 227 152c143 0 238 -77 238 -184c0 -86 -64 -165 -203 -185c97 -38 138 -104 138 -172c0 -121 -108 -218 -268 -218z" />
    <glyph glyph-name="four" unicode="4" horiz-adv-x="675" 
d="M539 336l-43 -186h119l-20 -92h-120l-45 -197h-109l45 197h-336l-13 53l499 510l71 -64l-398 -407h199l33 143z" />
    <glyph glyph-name="five" unicode="5" horiz-adv-x="599" 
d="M231 -145c-137 0 -228 70 -228 144c0 48 35 79 73 79s70 -30 70 -69c0 -13 -4 -27 -11 -33c14 -12 50 -24 100 -24c115 0 186 77 186 164c0 71 -53 121 -147 121c-44 0 -84 -11 -118 -28l-68 41l119 352h385l-23 -105h-302l-62 -188c33 14 68 22 108 22
c123 0 218 -77 218 -207c0 -137 -120 -269 -300 -269z" />
    <glyph glyph-name="six" unicode="6" horiz-adv-x="650" 
d="M139 61c-45 45 -69 119 -69 196c0 140 53 311 170 411c58 49 128 80 215 80c110 0 190 -55 190 -122c0 -43 -30 -75 -70 -75c-37 0 -67 30 -67 67c0 9 2 18 8 25c-11 8 -33 16 -65 16c-51 0 -105 -19 -152 -63c-52 -47 -100 -137 -118 -222c35 49 108 102 200 102
c129 0 219 -87 219 -208c0 -151 -120 -277 -284 -277c-79 0 -134 26 -177 70zM179 216c0 -36 11 -69 35 -92c23 -25 57 -39 100 -39c96 0 172 83 172 173c0 76 -47 125 -130 125c-100 0 -177 -78 -177 -167z" />
    <glyph glyph-name="seven" unicode="7" horiz-adv-x="607" 
d="M146 -143l-88 61l424 593h-278l-29 -125h-99l50 216h483l24 -49z" />
    <glyph glyph-name="eight" unicode="8" horiz-adv-x="642" 
d="M309 -9c-149 0 -245 97 -245 199c0 98 65 170 175 201c-66 37 -95 98 -95 150c0 114 110 206 249 206c146 0 239 -90 239 -195c0 -89 -64 -157 -157 -182c72 -36 111 -100 111 -162c0 -116 -106 -217 -277 -217zM377 422c82 0 143 56 143 123c0 61 -51 109 -127 109
c-82 0 -141 -55 -141 -122c0 -60 52 -110 125 -110zM315 84c98 0 161 59 161 136c0 69 -64 119 -143 119c-94 0 -160 -65 -160 -137c0 -69 64 -118 142 -118z" />
    <glyph glyph-name="nine" unicode="9" horiz-adv-x="650" 
d="M496 386c0 35 -11 68 -34 92s-58 39 -100 39c-96 0 -172 -82 -172 -173c0 -76 46 -125 130 -125c99 0 176 78 176 167zM219 -148c-109 0 -189 55 -189 123c0 43 30 75 70 75c37 0 67 -30 67 -67c0 -9 -2 -19 -8 -26c16 -8 38 -15 69 -15c51 0 100 21 147 64
c53 47 101 139 119 222c-34 -49 -107 -101 -199 -101c-130 0 -220 86 -220 207c0 152 121 278 285 278c78 0 134 -27 177 -71c44 -45 68 -119 68 -196c0 -144 -53 -297 -149 -393c-62 -62 -140 -100 -237 -100z" />
    <glyph glyph-name="zero.lin" horiz-adv-x="729" 
d="M343 -13c-150 0 -259 107 -259 289c0 252 165 461 359 461c150 0 260 -108 260 -289c0 -252 -166 -461 -360 -461zM349 90c133 0 238 174 238 351c0 115 -55 193 -149 193c-134 0 -238 -174 -238 -352c0 -114 54 -192 149 -192z" />
    <glyph glyph-name="one.lin" horiz-adv-x="500" 
d="M23 1l23 100h134l119 512l-128 -30l-7 101l214 52l55 -26l-141 -609h132l-23 -100h-378z" />
    <glyph glyph-name="two.lin" horiz-adv-x="644" 
d="M32 0c-4 0 -21 51 -21 51c67 165 209 256 348 329c101 53 164 101 164 166c0 56 -52 92 -127 92c-79 0 -114 -24 -128 -44c16 -16 24 -33 24 -54c0 -39 -30 -69 -70 -69c-45 0 -74 31 -74 84c0 78 92 182 260 182c131 0 230 -70 230 -192c0 -115 -107 -182 -235 -248
c-109 -57 -201 -117 -250 -202h299l28 118h96l-50 -213h-494z" />
    <glyph glyph-name="three.lin" horiz-adv-x="621" 
d="M285 -11c-160 0 -252 79 -252 165c0 47 30 84 73 84c38 0 67 -31 67 -66c0 -19 -7 -37 -25 -51c19 -19 57 -36 143 -36c95 0 157 51 157 125c0 64 -61 113 -163 113h-47l23 100h43c117 0 195 49 195 119c0 67 -68 97 -144 97c-37 0 -66 -9 -84 -21c7 -10 12 -23 12 -36
c0 -38 -31 -67 -68 -67c-41 0 -72 31 -72 78c0 63 73 142 236 142c142 0 238 -80 238 -184c0 -106 -80 -166 -197 -182c89 -25 143 -87 143 -169c0 -140 -142 -211 -278 -211z" />
    <glyph glyph-name="four.lin" horiz-adv-x="648" 
d="M549 470l-40 -171h116l-22 -92h-115l-26 -112h89l-22 -95h-324l22 92h126l26 117h-329l-15 52l478 487l72 -67l-383 -383h198l29 127z" />
    <glyph glyph-name="five.lin" horiz-adv-x="592" 
d="M251 -13c-128 0 -226 67 -226 141c0 48 34 80 74 80c38 0 69 -31 69 -69c0 -11 -3 -22 -9 -31c13 -11 47 -24 100 -24c114 0 187 68 187 162c0 72 -55 122 -141 122c-43 0 -81 -8 -130 -27l-58 40l110 343h391l-24 -104h-299l-61 -184c31 13 68 22 110 22
c115 0 211 -77 211 -206c0 -155 -125 -265 -304 -265z" />
    <glyph glyph-name="six.lin" horiz-adv-x="645" 
d="M144 54c-49 49 -71 114 -71 212c0 135 60 300 173 393c59 49 131 78 214 78c110 0 192 -62 192 -135c0 -44 -30 -76 -69 -76c-36 0 -67 29 -67 67c0 11 4 24 12 36c-13 8 -38 16 -72 16c-50 0 -102 -20 -149 -62c-55 -48 -102 -134 -118 -220c34 46 103 97 190 97
c129 0 222 -89 222 -206c0 -149 -131 -267 -285 -267c-75 0 -135 30 -172 67zM315 84c102 0 174 76 174 162c0 69 -50 121 -129 121c-100 0 -176 -81 -176 -160c0 -34 13 -65 35 -88c24 -22 55 -35 96 -35z" />
    <glyph glyph-name="seven.lin" horiz-adv-x="572" 
d="M65 0l435 629h-276l-30 -132h-101l52 227h464l32 -59l-448 -665h-128z" />
    <glyph glyph-name="eight.lin" horiz-adv-x="647" 
d="M321 -11c-152 0 -265 88 -265 200c0 104 73 174 180 200c-72 36 -101 94 -101 146c0 100 93 200 259 200c143 0 251 -86 251 -196c0 -90 -62 -150 -160 -174c67 -29 113 -90 113 -162c0 -113 -101 -214 -277 -214zM377 414c89 0 151 51 151 121c0 58 -59 103 -130 103
c-89 0 -150 -49 -150 -119c0 -59 61 -105 129 -105zM319 86c96 0 163 55 163 127c0 62 -60 115 -147 115c-98 0 -163 -55 -163 -128c0 -61 59 -114 147 -114z" />
    <glyph glyph-name="nine.lin" horiz-adv-x="645" 
d="M519 517c0 33 -13 65 -37 88c-23 22 -53 35 -94 35c-103 0 -175 -76 -175 -162c0 -69 50 -121 130 -121c99 0 176 80 176 160zM101 469c0 150 132 268 286 268c75 0 135 -30 171 -67c49 -49 72 -114 72 -212c0 -135 -60 -300 -174 -393c-59 -49 -130 -78 -213 -78
c-110 0 -193 62 -193 135c0 43 30 76 70 76c36 0 67 -29 67 -68c0 -11 -4 -24 -12 -35c13 -9 37 -16 72 -16c49 0 101 20 149 62c56 50 101 134 116 218c-34 -45 -102 -95 -189 -95c-129 0 -222 89 -222 205z" />
    <glyph glyph-name="period" unicode="." horiz-adv-x="289" 
d="M124 -9c-48 0 -87 39 -87 87c0 49 39 88 87 88s86 -39 86 -88c0 -48 -38 -87 -86 -87z" />
    <glyph glyph-name="comma" unicode="," horiz-adv-x="289" 
d="M-38 -180l-24 46c112 61 149 116 153 139c-38 16 -54 53 -54 74c0 48 38 87 86 87s89 -38 89 -97c0 -86 -99 -193 -250 -249z" />
    <glyph glyph-name="colon" unicode=":" horiz-adv-x="326" 
d="M212 297c-47 0 -85 38 -85 85s38 86 85 86s85 -39 85 -86s-38 -85 -85 -85zM142 -9c-47 0 -85 38 -85 85s38 86 85 86s85 -39 85 -86s-38 -85 -85 -85z" />
    <glyph glyph-name="semicolon" unicode=";" horiz-adv-x="326" 
d="M212 297c-47 0 -85 38 -85 85s38 86 85 86s85 -39 85 -86s-38 -85 -85 -85zM-16 -176l-24 46c109 59 146 112 149 135c-36 15 -52 51 -52 72c0 48 38 85 84 85c47 0 87 -37 87 -94c0 -84 -96 -190 -244 -244z" />
    <glyph glyph-name="ellipsis" unicode="&#x2026;" horiz-adv-x="792" 
d="M106 -9c-46 0 -82 36 -82 83c0 46 36 83 82 83c47 0 83 -37 83 -83c0 -47 -36 -83 -83 -83zM362 -9c-46 0 -82 36 -82 83c0 46 36 83 82 83s83 -37 83 -83c0 -47 -37 -83 -83 -83zM618 -9c-46 0 -82 36 -82 83c0 46 36 83 82 83s83 -37 83 -83c0 -47 -37 -83 -83 -83z
" />
    <glyph glyph-name="periodcentered" unicode="&#xb7;" horiz-adv-x="289" 
d="M162 220c-48 0 -87 39 -87 87c0 49 39 88 87 88s87 -39 87 -88c0 -48 -39 -87 -87 -87z" />
    <glyph glyph-name="bullet" unicode="&#x2022;" horiz-adv-x="374" 
d="M210 171c-73 0 -131 60 -131 133c0 74 58 135 131 135s131 -61 131 -135c0 -73 -58 -133 -131 -133z" />
    <glyph glyph-name="bullet.alt" horiz-adv-x="751" 
d="M376 -56c-195 0 -317 143 -317 313c0 168 124 313 317 313c196 0 319 -144 319 -313c0 -167 -124 -313 -319 -313z" />
    <glyph glyph-name="ampersand" unicode="&#x26;" horiz-adv-x="725" 
d="M278 518c0 -36 5 -59 31 -101c84 37 140 73 140 138c0 33 -28 68 -73 68c-62 0 -98 -56 -98 -105zM236 79c61 0 111 40 157 91l-78 92c-19 21 -34 40 -47 57c-88 -42 -130 -84 -130 -146c0 -59 37 -94 98 -94zM26 164c0 117 95 183 192 223c-31 50 -44 85 -44 133
c0 103 91 188 207 188c108 0 173 -76 173 -152c0 -94 -78 -157 -195 -205c9 -11 19 -23 32 -37l65 -77c70 93 118 134 184 134c50 0 85 -37 85 -75c0 -37 -31 -67 -68 -67c-23 0 -43 11 -55 30c-19 -5 -47 -42 -82 -89l106 -120l-70 -65l-101 117
c-56 -62 -132 -117 -230 -117c-124 0 -199 72 -199 179z" />
    <glyph glyph-name="exclam" unicode="!" horiz-adv-x="299" 
d="M125 211l72 512h136l-153 -512h-55zM127 -9c-42 0 -76 34 -76 77c0 42 34 77 76 77s76 -35 76 -77c0 -43 -34 -77 -76 -77z" />
    <glyph glyph-name="exclamdown" unicode="&#xa1;" horiz-adv-x="299" 
d="M232 578c-42 0 -76 35 -76 77s34 77 76 77s76 -35 76 -77s-34 -77 -76 -77zM26 0l153 512h54l-71 -512h-136z" />
    <glyph glyph-name="question" unicode="?" horiz-adv-x="530" 
d="M164 211l24 170c182 8 253 77 253 160c0 62 -48 100 -116 100c-55 0 -86 -17 -94 -31c13 -11 21 -28 21 -46c0 -35 -28 -63 -63 -63c-36 0 -67 29 -67 74c0 100 106 162 214 162c117 0 221 -65 221 -190c0 -118 -85 -222 -283 -245l-37 -91h-73zM168 -9
c-42 0 -76 34 -76 77c0 42 34 77 76 77s76 -35 76 -77c0 -43 -34 -77 -76 -77z" />
    <glyph glyph-name="questiondown" unicode="&#xbf;" horiz-adv-x="530" 
d="M420 580c-43 0 -77 35 -77 77s34 76 77 76c42 0 76 -34 76 -76s-34 -77 -76 -77zM252 -12c-118 0 -221 65 -221 190c0 118 85 222 282 245l40 94h72l-25 -173c-182 -8 -253 -77 -253 -161c0 -62 48 -99 116 -99c55 0 85 17 94 31c-13 11 -22 27 -22 46c0 35 29 63 64 63
c36 0 67 -29 67 -74c0 -100 -107 -162 -214 -162z" />
    <glyph glyph-name="quotedblleft" unicode="&#x201c;" horiz-adv-x="563" 
d="M196 439c-47 0 -87 37 -87 95c0 85 102 192 246 247l24 -46c-109 -62 -144 -115 -149 -138c35 -16 51 -49 51 -72c0 -48 -38 -86 -85 -86zM453 439c-48 0 -87 37 -87 95c0 85 102 192 246 247l24 -46c-109 -62 -145 -115 -149 -138c35 -16 51 -49 51 -72
c0 -48 -38 -86 -85 -86z" />
    <glyph glyph-name="quotedblright" unicode="&#x201d;" horiz-adv-x="563" 
d="M101 436l-24 46c109 63 144 115 149 139c-35 15 -51 49 -51 72c0 47 38 85 85 85s87 -37 87 -94c0 -86 -102 -193 -246 -248zM358 436l-25 46c110 63 145 115 149 139c-35 15 -51 49 -51 72c0 47 38 85 85 85c48 0 87 -37 87 -94c0 -86 -102 -193 -245 -248z" />
    <glyph glyph-name="quoteleft" unicode="&#x2018;" horiz-adv-x="312" 
d="M198 432c-48 0 -89 38 -89 97c0 88 105 197 252 254l24 -47c-112 -64 -148 -118 -152 -142c36 -16 52 -51 52 -74c0 -48 -38 -88 -87 -88z" />
    <glyph glyph-name="quoteright" unicode="&#x2019;" horiz-adv-x="312" 
d="M101 427l-24 47c112 64 148 119 152 142c-36 17 -52 51 -52 74c0 49 38 88 87 88s89 -38 89 -97c0 -88 -105 -197 -252 -254z" />
    <glyph glyph-name="quotedblbase" unicode="&#x201e;" horiz-adv-x="543" 
d="M-34 -173l-22 45c106 58 143 111 146 133c-36 15 -52 50 -52 71c0 46 37 83 83 83c47 0 86 -36 86 -92c0 -83 -95 -186 -241 -240zM220 -173l-22 45c106 58 143 111 146 133c-36 15 -52 50 -52 71c0 46 37 83 83 83c47 0 86 -36 86 -92c0 -83 -95 -186 -241 -240z" />
    <glyph glyph-name="quotesinglbase" unicode="&#x201a;" horiz-adv-x="301" 
d="M-32 -180l-24 46c111 61 149 116 152 139c-37 16 -53 53 -53 74c0 48 38 87 86 87s89 -38 89 -97c0 -86 -99 -193 -250 -249z" />
    <glyph glyph-name="guillemotleft" unicode="&#xab;" horiz-adv-x="629" 
d="M230 112l-181 213l270 212l53 -62l-184 -163l104 -146zM491 112l-180 213l270 212l52 -62l-183 -163l104 -146z" />
    <glyph glyph-name="guillemotright" unicode="&#xbb;" horiz-adv-x="629" 
d="M88 112l-53 61l183 164l-103 146l62 54l181 -213zM349 112l-52 61l183 164l-104 146l62 54l181 -213z" />
    <glyph glyph-name="guilsinglleft" unicode="&#x2039;" horiz-adv-x="368" 
d="M230 112l-181 213l270 212l53 -62l-184 -163l104 -146z" />
    <glyph glyph-name="guilsinglright" unicode="&#x203a;" horiz-adv-x="368" 
d="M88 112l-53 61l183 164l-103 146l62 54l181 -213z" />
    <glyph glyph-name="hyphen" unicode="-" horiz-adv-x="433" 
d="M67 270l27 113h305l-26 -113h-306z" />
    <glyph glyph-name="endash" unicode="&#x2013;" horiz-adv-x="661" 
d="M55 274l24 105h561l-24 -105h-561z" />
    <glyph glyph-name="emdash" unicode="&#x2014;" horiz-adv-x="975" 
d="M55 274l24 105h875l-25 -105h-874z" />
    <glyph glyph-name="hyphen.lin" horiz-adv-x="353" 
d="M79 321l25 98h256l-21 -98h-260z" />
    <glyph glyph-name="endash.lin" horiz-adv-x="549" 
d="M63 325l22 91h487l-19 -91h-490z" />
    <glyph glyph-name="emdash.lin" horiz-adv-x="808" 
d="M63 325l22 91h746l-20 -91h-748z" />
    <glyph glyph-name="underscore" unicode="_" horiz-adv-x="635" 
d="M-91 -186l25 104h664l-25 -104h-664z" />
    <glyph glyph-name="slash" unicode="/" horiz-adv-x="487" 
d="M-15 -245l-84 49l611 1059l84 -49z" />
    <glyph glyph-name="backslash" unicode="\" horiz-adv-x="408" 
d="M224 -236l-78 1083l96 9l77 -1083z" />
    <glyph glyph-name="bar" unicode="|" horiz-adv-x="336" 
d="M120 -232v1081h96v-1081h-96z" />
    <glyph glyph-name="parenleft" unicode="(" horiz-adv-x="477" 
d="M343 -261c-122 94 -259 260 -259 488c0 304 191 532 455 642l40 -82c-247 -116 -380 -316 -380 -563c0 -181 104 -326 206 -416z" />
    <glyph glyph-name="parenright" unicode=")" horiz-adv-x="503" 
d="M-2 -261l-39 81c247 116 379 317 379 563c0 182 -103 326 -205 417l62 69c122 -94 259 -261 259 -488c0 -304 -191 -532 -456 -642z" />
    <glyph glyph-name="parenleft.lin" horiz-adv-x="456" 
d="M361 -195c-122 94 -259 260 -259 488c0 304 191 532 455 642l40 -82c-247 -116 -380 -316 -380 -563c0 -181 104 -326 206 -416z" />
    <glyph glyph-name="parenright.lin" horiz-adv-x="456" 
d="M0 -191l-39 81c247 116 379 317 379 563c0 182 -103 326 -205 417l62 69c122 -94 259 -261 259 -488c0 -304 -191 -532 -456 -642z" />
    <glyph glyph-name="bracketleft" unicode="[" horiz-adv-x="425" 
d="M3 -232l251 1081h289l-22 -96h-181l-206 -888h181l-23 -97h-289z" />
    <glyph glyph-name="bracketright" unicode="]" horiz-adv-x="425" 
d="M-92 -232l22 96h181l207 888h-182l23 97h289l-251 -1081h-289z" />
    <glyph glyph-name="bracketleft.lin" horiz-adv-x="405" 
d="M40 -154l239 1025h267l-19 -82h-174l-200 -861h172l-19 -82h-266z" />
    <glyph glyph-name="bracketright.lin" horiz-adv-x="405" 
d="M-60 -154l19 82h174l200 861h-172l19 82h265l-237 -1025h-268z" />
    <glyph glyph-name="braceleft" unicode="{" horiz-adv-x="434" 
d="M281 -251c-165 22 -247 95 -247 190c0 77 56 130 109 168c42 31 79 62 79 93c0 28 -35 59 -115 59h-35l24 97h36c102 0 140 46 140 89c0 28 -18 61 -40 93c-25 37 -50 82 -50 130c0 110 104 192 323 197l-4 -75c-156 -12 -215 -62 -215 -115c0 -32 22 -69 47 -106
c26 -39 50 -83 50 -119c0 -73 -54 -127 -170 -143c80 -12 120 -57 120 -112c0 -50 -48 -94 -98 -131s-96 -76 -96 -124c0 -55 55 -96 160 -117z" />
    <glyph glyph-name="braceright" unicode="}" horiz-adv-x="434" 
d="M-46 -250l5 75c155 12 215 62 215 115c0 32 -22 69 -47 106c-26 39 -50 83 -50 119c0 73 53 127 169 143c-79 12 -120 57 -120 112c0 50 49 94 99 131c49 37 96 76 96 124c0 55 -56 96 -160 117l18 74c164 -22 247 -95 247 -190c0 -77 -57 -130 -110 -168
c-42 -31 -78 -62 -78 -93c0 -28 34 -59 115 -59h34l-23 -97h-37c-101 0 -140 -46 -140 -89c0 -28 19 -61 40 -93c26 -37 50 -82 50 -130c0 -110 -103 -192 -323 -197z" />
    <glyph glyph-name="braceleft.lin" horiz-adv-x="404" 
d="M311 -182c-165 22 -247 95 -247 190c0 77 56 130 109 168c42 31 79 62 79 93c0 28 -35 59 -115 59h-35l24 97h36c102 0 140 46 140 89c0 28 -18 61 -40 93c-25 37 -50 82 -50 130c0 110 104 192 323 197l-4 -75c-156 -12 -215 -62 -215 -115c0 -32 22 -69 47 -106
c26 -39 50 -83 50 -119c0 -73 -54 -127 -170 -143c80 -12 120 -57 120 -112c0 -50 -48 -94 -98 -131s-96 -76 -96 -124c0 -55 55 -96 160 -117z" />
    <glyph glyph-name="braceright.lin" horiz-adv-x="404" 
d="M-35 -181l5 75c155 12 215 62 215 115c0 32 -22 69 -47 106c-26 39 -50 83 -50 119c0 73 53 127 169 143c-79 12 -120 57 -120 112c0 50 49 94 99 131c49 37 96 76 96 124c0 55 -56 96 -160 117l18 74c164 -22 247 -95 247 -190c0 -77 -57 -130 -110 -168
c-42 -31 -78 -62 -78 -93c0 -28 34 -59 115 -59h34l-23 -97h-37c-101 0 -140 -46 -140 -89c0 -28 19 -61 40 -93c26 -37 50 -82 50 -130c0 -110 -103 -192 -323 -197z" />
    <glyph glyph-name="at" unicode="@" horiz-adv-x="952" 
d="M408 -206c-205 0 -354 151 -354 374c0 301 219 546 491 546c214 0 355 -142 355 -339c0 -186 -98 -338 -237 -338c-78 0 -123 41 -128 98c-36 -60 -90 -98 -150 -98c-75 0 -131 64 -131 158c0 141 94 266 209 266c52 0 95 -32 118 -90l28 82h103l-67 -264
c-15 -54 0 -83 43 -83c78 0 151 120 151 265c0 160 -112 288 -293 288c-243 0 -431 -224 -431 -493c0 -186 122 -317 295 -317c66 0 126 16 184 47l25 -48c-65 -36 -135 -54 -211 -54zM440 132c61 0 123 63 123 150c0 50 -26 79 -76 79c-63 0 -117 -70 -117 -149
c0 -44 23 -80 70 -80z" />
    <glyph glyph-name="copyright" unicode="&#xa9;" horiz-adv-x="689" 
d="M345 -9c-165 0 -293 130 -293 295c0 164 128 295 293 295s292 -131 292 -295c0 -163 -129 -295 -292 -295zM345 39c132 0 239 109 239 247c0 139 -105 248 -239 248c-135 0 -239 -109 -239 -248s104 -247 239 -247zM354 143c-87 0 -149 59 -149 146c0 86 67 147 148 147
c66 0 109 -35 109 -69c0 -19 -13 -33 -31 -33c-16 0 -30 14 -30 30c0 5 1 10 4 14c-9 7 -25 14 -52 14c-55 0 -97 -42 -97 -101c0 -56 39 -102 99 -102c32 0 58 12 82 35l28 -31c-25 -31 -67 -50 -111 -50z" />
    <glyph glyph-name="published" unicode="&#x2117;" horiz-adv-x="689" 
d="M345 -9c-165 0 -293 130 -293 295c0 164 128 295 293 295s292 -131 292 -295c0 -163 -129 -295 -292 -295zM345 39c132 0 239 109 239 247c0 139 -105 248 -239 248c-135 0 -239 -109 -239 -248s104 -247 239 -247zM248 140v42h33v205h-33v42h116c61 0 108 -35 108 -94
c0 -65 -46 -98 -113 -98h-31v-55h37v-42h-117zM363 279c38 0 61 21 61 56c0 32 -26 52 -63 52h-33v-107c6 -1 14 -1 35 -1z" />
    <glyph glyph-name="registered.alt" horiz-adv-x="689" 
d="M345 -9c-165 0 -293 130 -293 295c0 164 128 295 293 295s292 -131 292 -295c0 -163 -129 -295 -292 -295zM345 39c132 0 239 109 239 247c0 139 -105 248 -239 248c-135 0 -239 -109 -239 -248s104 -247 239 -247zM311 298h30c39 0 66 18 66 49c0 32 -26 47 -67 47h-29
v-96zM231 146v43h33v205h-33v41h111c67 0 114 -29 114 -86c0 -38 -24 -66 -56 -79l47 -81h33v-43h-65l-61 111h-43v-68h37v-43h-117z" />
    <glyph glyph-name="registered" unicode="&#xae;" horiz-adv-x="477" 
d="M322 390c-116 0 -208 91 -208 206c0 117 92 208 208 208s208 -91 208 -208c0 -115 -93 -206 -208 -206zM322 763c-90 0 -164 -71 -164 -168c0 -93 74 -164 164 -164c89 0 163 71 163 164c0 97 -74 168 -163 168zM303 607h17c25 0 38 10 38 28s-14 27 -38 27h-17v-55z
M244 503v34h20v125h-20v34h78c44 0 79 -19 79 -58c0 -25 -16 -44 -35 -53l24 -48h21v-34h-49l-34 71h-25v-37h22v-34h-81z" />
    <glyph glyph-name="copyright.lin" horiz-adv-x="872" 
d="M463 -13c-207 0 -368 168 -368 375s161 375 368 375c206 0 367 -168 367 -375s-161 -375 -367 -375zM463 37c179 0 311 146 311 325s-132 325 -311 325c-180 0 -312 -146 -312 -325s132 -325 312 -325zM467 181c-99 0 -188 74 -188 188c0 107 90 187 192 187
c90 0 146 -48 146 -90c0 -27 -22 -48 -45 -48s-42 19 -42 42c0 7 3 14 5 15c-10 9 -36 18 -65 18c-65 0 -119 -52 -119 -124c0 -68 49 -123 116 -123c49 0 78 16 107 47l44 -46c-32 -41 -82 -66 -151 -66z" />
    <glyph glyph-name="published.lin" horiz-adv-x="872" 
d="M463 -13c-207 0 -368 168 -368 375s161 375 368 375c206 0 367 -168 367 -375s-161 -375 -367 -375zM463 37c179 0 311 146 311 325s-132 325 -311 325c-180 0 -312 -146 -312 -325s132 -325 312 -325zM335 180v59h40v243h-40v60h147c78 0 137 -46 137 -120
c0 -85 -60 -123 -146 -123h-32v-60h44v-59h-150zM479 353c45 0 71 27 71 69c0 35 -29 60 -73 60h-36v-128c2 0 12 -1 38 -1z" />
    <glyph glyph-name="registered.lin" horiz-adv-x="872" 
d="M463 -13c-207 0 -368 168 -368 375s161 375 368 375c206 0 367 -168 367 -375s-161 -375 -367 -375zM463 37c179 0 311 146 311 325s-132 325 -311 325c-180 0 -312 -146 -312 -325s132 -325 312 -325zM426 378h40c41 0 70 20 70 57c0 38 -27 56 -72 56h-38v-113z
M320 189v59h40v243h-40v60h141c83 0 144 -35 144 -110c0 -49 -25 -83 -65 -99l51 -94h40v-59h-85l-69 135h-51v-76h46v-59h-152z" />
    <glyph glyph-name="servicemark" unicode="&#x2120;" horiz-adv-x="762" 
d="M373 472l10 47h39l56 197h-43l11 47h106l35 -166l111 166h113l-11 -47h-42l-38 -197h41l-11 -47h-128l9 47h37l32 165l-117 -167h-25l-39 167l-45 -165h37l-10 -47h-128zM232 464c-56 0 -100 34 -100 71c0 25 14 43 37 43c22 0 33 -12 33 -29c0 -10 -4 -18 -9 -22
c7 -9 25 -15 46 -15c26 0 52 11 52 39s-33 37 -59 50c-33 17 -58 41 -58 78c0 53 49 91 112 91c58 0 98 -34 98 -67c0 -23 -14 -41 -37 -41c-20 0 -32 13 -32 30c0 7 4 14 7 17c-6 6 -25 12 -43 12c-23 0 -44 -12 -44 -33c0 -27 32 -36 57 -49c33 -16 59 -41 59 -81
c0 -59 -52 -94 -119 -94z" />
    <glyph glyph-name="trademark" unicode="&#x2122;" horiz-adv-x="780" 
d="M149 472l9 47h42l47 199h-59l-11 -49h-49l22 94h271l-22 -94h-51l14 49h-58l-48 -199h41l-11 -47h-137zM391 472l10 47h39l56 197h-43l11 47h106l35 -166l111 166h113l-11 -47h-42l-38 -197h40l-10 -47h-128l9 47h36l33 165l-117 -167h-25l-39 167l-46 -165h38l-11 -47
h-127z" />
    <glyph glyph-name="asterisk" unicode="*" horiz-adv-x="523" 
d="M392 382c-24 0 -49 25 -54 62l-15 120l-69 -99c-16 -23 -38 -34 -56 -34c-33 0 -48 26 -48 50c0 20 17 42 43 55l113 54l-120 37c-31 10 -52 30 -52 54c0 27 22 52 49 52c18 0 37 -10 52 -26l86 -90l-1 125c0 39 18 69 49 69c40 0 72 -33 41 -92l-60 -109l118 39
c10 3 21 5 31 5c32 0 52 -23 52 -50c0 -38 -30 -57 -77 -48l-123 23l74 -101c11 -14 17 -32 17 -51c0 -25 -25 -45 -50 -45z" />
    <glyph glyph-name="dagger" unicode="&#x2020;" horiz-adv-x="583" 
d="M195 -2l81 441l-83 9c-1 -40 -30 -67 -65 -67c-37 0 -68 27 -68 67c0 45 34 79 90 79c15 0 32 -3 50 -7l112 -24l9 168c2 52 22 84 67 84c52 0 72 -47 52 -91l-72 -165l110 25c15 3 28 4 40 4c49 0 83 -26 83 -71c0 -40 -29 -69 -69 -69c-35 0 -63 28 -64 64l-89 -10
l-132 -437h-52z" />
    <glyph glyph-name="daggerdbl" unicode="&#x2021;" horiz-adv-x="606" 
d="M288 78l-8 -148c-3 -47 -21 -77 -61 -77c-44 0 -67 40 -48 84l63 144l-94 -22c-13 -2 -25 -4 -36 -4c-46 0 -79 24 -79 65c0 37 27 63 63 63c32 0 59 -25 60 -58l77 8l63 170l16 169l-74 8c0 -37 -27 -62 -60 -62s-62 26 -62 62c0 41 31 71 85 71c13 0 28 -2 44 -5
l97 -22l9 147c2 48 20 77 61 77c44 0 67 -39 48 -84l-63 -144l94 22c13 3 25 5 36 5c45 0 79 -24 79 -65c0 -37 -27 -64 -63 -64c-32 0 -59 26 -60 59l-77 -8l-63 -171l-16 -168l74 -8c0 37 27 61 59 61c34 0 63 -25 63 -62c0 -41 -31 -71 -85 -71c-13 0 -28 3 -44 6z" />
    <glyph glyph-name="asciicircum" unicode="^" horiz-adv-x="534" 
d="M152 387l-45 58l240 193l145 -200l-56 -48l-112 103z" />
    <glyph glyph-name="asciitilde" unicode="~" horiz-adv-x="563" 
d="M372 213c-45 0 -74 24 -99 49c-26 25 -40 35 -58 35c-28 0 -51 -18 -79 -77l-65 26c27 100 91 160 149 160c46 0 75 -25 100 -49c26 -25 40 -35 58 -35c28 0 51 17 79 77l65 -26c-28 -102 -91 -160 -150 -160z" />
    <glyph glyph-name="dollar" unicode="$" horiz-adv-x="609" 
d="M242 446c0 -33 30 -55 70 -76l48 149h-1c-79 -1 -118 -33 -117 -73zM422 161c0 36 -34 58 -78 79l-50 -157h1c76 0 128 27 127 78zM233 -124l-77 22c2 8 24 78 37 117c-86 26 -153 82 -153 145c0 42 25 76 67 76c35 0 62 -30 62 -63c0 -18 -7 -34 -18 -44
c11 -15 39 -30 73 -38l56 175c-76 32 -156 72 -156 167c0 87 91 170 237 170c7 0 15 0 22 -1l25 79l76 -21l-22 -72c76 -24 130 -74 130 -132c0 -46 -28 -74 -67 -74c-35 0 -63 28 -63 62c0 17 6 32 18 45c-8 9 -27 17 -50 22l-54 -170c79 -36 163 -80 163 -167
c0 -99 -85 -176 -235 -176c-11 0 -22 1 -33 2z" />
    <glyph glyph-name="dollar.lin" horiz-adv-x="627" 
d="M256 531c0 -42 30 -71 79 -98l62 200h-1c-86 -1 -141 -42 -140 -102zM460 193c0 51 -33 79 -91 108l-66 -210h11c81 0 146 37 146 102zM163 -91l32 107c-92 28 -159 89 -159 156c0 55 34 91 79 91c39 0 69 -32 69 -70c0 -19 -8 -41 -28 -56c14 -14 41 -27 74 -36l72 230
c-79 36 -158 95 -158 195c0 108 96 198 259 198c6 0 12 0 18 -1l32 103l81 -24l-29 -93c87 -26 145 -82 145 -139c0 -51 -30 -91 -77 -91c-39 0 -70 31 -70 69c0 18 7 36 25 54c-12 10 -32 18 -57 23l-70 -224c96 -45 173 -91 173 -198c0 -111 -99 -203 -267 -203
c-9 0 -18 0 -27 1l-36 -116z" />
    <glyph glyph-name="sterling" unicode="&#xa3;" horiz-adv-x="632" 
d="M615 463c0 -51 -34 -81 -70 -81c-35 0 -63 28 -63 63c0 17 6 32 17 44c-10 15 -55 28 -84 28c-95 0 -139 -69 -139 -169c0 -47 10 -78 14 -129h202l-20 -86h-186c-9 -53 -34 -106 -85 -148c31 3 57 -5 103 -19c35 -11 65 -19 91 -19c49 0 75 14 122 56l52 -53
c-58 -79 -123 -99 -182 -99c-54 0 -93 14 -135 31c-45 17 -78 28 -118 29c-32 -39 -80 -59 -112 -59c-39 0 -67 27 -67 57c0 48 66 88 152 79c48 46 70 97 77 145h-133l19 86h117c-4 52 -15 84 -15 131c0 148 95 261 242 261c119 0 201 -69 201 -148z" />
    <glyph glyph-name="sterling.lin" horiz-adv-x="649" 
d="M504 265h-180c-9 -53 -33 -104 -84 -144c30 1 55 -4 84 -13c37 -10 70 -24 110 -24c42 0 69 13 116 54l52 -53c-57 -79 -122 -98 -178 -98c-67 0 -108 21 -156 37c-27 10 -58 19 -96 20c-29 -37 -77 -57 -108 -57c-41 0 -69 25 -69 55c0 47 61 88 149 81
c50 48 71 95 78 142h-133l20 86h114c-4 52 -14 83 -14 129c0 146 95 257 241 257c115 0 199 -66 199 -147c0 -51 -34 -80 -70 -80s-65 29 -65 64c0 16 7 32 16 43c-4 15 -40 27 -79 27c-93 0 -138 -72 -138 -166c0 -47 11 -78 15 -127h195z" />
    <glyph glyph-name="Euro" unicode="&#x20ac;" horiz-adv-x="731" 
d="M58 268h76c0 24 3 47 8 69h-80l20 85h87c59 118 178 189 316 189c125 0 220 -81 220 -166c0 -53 -35 -87 -78 -87c-38 0 -69 30 -69 69c0 20 10 39 23 49c-14 21 -52 36 -99 36c-81 0 -155 -30 -200 -95h184l-19 -80h-198c-6 -22 -9 -45 -9 -69h202l-19 -80h-175
c26 -74 97 -100 173 -100c64 0 123 22 181 67l54 -74c-71 -61 -153 -91 -243 -91c-121 0 -243 54 -275 194h-100z" />
    <glyph glyph-name="Euro.lin" horiz-adv-x="805" 
d="M527 404h-242c-7 -30 -12 -61 -12 -92h233l-20 -86h-206c21 -82 78 -135 170 -135c72 0 137 25 207 94l68 -66c-73 -82 -168 -131 -283 -131c-139 0 -247 86 -275 232h-130l21 93h104c1 30 5 60 11 89h-94l21 93h101c64 142 197 242 355 242c147 0 247 -88 247 -184
c0 -50 -35 -90 -80 -90c-39 0 -70 31 -70 70c0 21 10 40 24 52c-14 23 -55 49 -127 49c-97 0 -183 -57 -232 -144h229z" />
    <glyph glyph-name="yen" unicode="&#xa5;" horiz-adv-x="609" 
d="M95 281l20 84h109l-70 152h-71l20 85h237l-20 -83h-73l79 -179l163 179h-80l20 83h244l-19 -85h-66l-144 -152h105l-19 -84h-170l-11 -53h170l-20 -84h-167l-13 -62h98l-18 -82h-293l18 82h95l14 62h-168l20 84h167l12 53h-169z" />
    <glyph glyph-name="yen.lin" horiz-adv-x="720" 
d="M126 301l18 82h135l-97 248h-72l22 93h265l-22 -93h-80l84 -241l200 241h-82l22 93h279l-22 -93h-67l-223 -248h124l-18 -82h-181l-16 -68h183l-18 -83h-184l-15 -66h101l-20 -84h-297l19 84h94l15 66h-179l18 83h180l15 68h-181z" />
    <glyph glyph-name="cent" unicode="&#xa2;" horiz-adv-x="579" 
d="M172 275c0 -54 24 -95 61 -119l96 316c-81 -17 -157 -85 -157 -197zM314 42c-14 0 -27 1 -40 2l-50 -167l-76 20l50 166c-83 34 -138 105 -138 204c0 158 132 289 294 297l35 117l76 -20l-32 -105c77 -19 133 -72 133 -135c0 -42 -28 -80 -72 -80c-35 0 -65 27 -65 66
c0 17 7 34 19 46c-9 9 -27 16 -47 20l-103 -341c8 -1 16 -1 24 -1c62 0 132 22 183 60l-2 -96c-48 -34 -118 -53 -189 -53z" />
    <glyph glyph-name="cent.lin" horiz-adv-x="555" 
d="M182 352c0 -51 22 -89 56 -112l89 297c-74 -16 -145 -79 -145 -185zM315 130c-13 0 -26 0 -38 2l-48 -158l-73 19l48 157c-79 32 -132 100 -132 195c0 149 126 273 280 281l34 112l73 -19l-31 -101c72 -18 126 -68 126 -129c0 -40 -26 -76 -69 -76c-34 0 -63 26 -63 63
c0 16 7 33 19 44c-9 8 -26 14 -44 18l-96 -321c7 -1 14 -1 22 -1c59 0 125 21 174 57l-2 -93c-45 -32 -112 -50 -180 -50z" />
    <glyph glyph-name="numbersign" unicode="#" horiz-adv-x="693" 
d="M307 380l-41 -148h140l41 148h-140zM103 376l21 90h111l38 136h101l-38 -136h130l38 136h101l-38 -136h103l-21 -90h-107l-39 -139h109l-21 -91h-113l-40 -146h-101l40 146h-130l-40 -146h-101l40 146h-101l21 91h105l39 139h-107z" />
    <glyph glyph-name="numbersign.lin" horiz-adv-x="682" 
d="M314 437l-46 -163h136l45 163h-135zM625 724l-54 -193h124l-26 -98h-126l-43 -154h123l-25 -99h-126l-50 -180h-100l50 180h-126l-50 -180h-99l50 180h-124l26 99h126l43 154h-123l26 98h125l54 193h99l-54 -193h126l54 193h100z" />
    <glyph glyph-name="paragraph" unicode="&#xb6;" horiz-adv-x="704" 
d="M155 0l22 94h93s31 128 32 128c-39 -1 -68 4 -98 14c-91 5 -135 68 -135 138c0 133 123 207 271 207h387l-23 -96h-92l-94 -388h97l-23 -97h-437zM360 92h66l96 397h-66z" />
    <glyph glyph-name="paragraph.lin" horiz-adv-x="800" 
d="M199 0l22 100h108l34 145h-25c-164 0 -259 87 -259 217c0 143 128 262 330 262h458l-23 -100h-86l-121 -524h86l-23 -100h-501zM438 95h89l124 534h-89z" />
    <glyph glyph-name="section" unicode="&#xa7;" horiz-adv-x="510" 
d="M263 244l15 -7c63 15 88 25 88 54c0 22 -30 40 -91 67l-20 9c-58 -14 -85 -30 -85 -55s36 -45 93 -68zM323 539c-33 0 -71 -8 -71 -34c0 -27 45 -43 106 -74c68 -33 114 -66 114 -119c0 -61 -51 -96 -129 -111c28 -21 46 -48 46 -87c0 -63 -55 -124 -173 -124
c-112 0 -167 55 -167 106c0 30 23 53 54 53c29 0 51 -22 51 -51c0 -5 -2 -16 -5 -21c15 -8 43 -13 64 -13c35 0 69 9 69 34c0 24 -39 44 -103 74c-71 32 -117 65 -117 122s47 94 133 107c-30 23 -48 49 -48 84c0 63 54 127 174 127c107 0 165 -56 165 -106
c0 -31 -23 -53 -54 -53c-29 0 -51 22 -51 51c0 5 1 15 5 21c-12 6 -38 14 -63 14z" />
    <glyph glyph-name="section.lin" 
d="M345 436c-11 4 -21 8 -31 13c-84 -19 -119 -41 -119 -77c0 -33 43 -53 114 -83l31 -14c80 18 119 39 119 77c0 34 -44 55 -114 84zM86 359c0 67 61 110 158 129c-37 27 -57 59 -57 102c0 77 71 147 205 147c83 0 138 -25 167 -59c19 -20 28 -43 28 -66
c0 -33 -26 -61 -60 -61c-33 0 -58 26 -58 58c0 8 3 21 9 30c-4 3 -9 6 -17 8c-19 7 -46 11 -69 11c-49 0 -97 -17 -97 -50s39 -51 115 -86c76 -34 158 -75 158 -157c0 -70 -64 -110 -159 -129c36 -26 58 -58 58 -101c0 -77 -71 -147 -205 -147c-84 0 -139 26 -169 60
c-17 20 -26 43 -26 64c0 34 26 61 60 61c33 0 58 -25 58 -57c0 -9 -3 -21 -9 -30c3 -3 9 -5 16 -8c19 -7 46 -11 70 -11c49 0 97 17 97 50s-39 51 -115 85c-76 35 -158 75 -158 157z" />
    <glyph glyph-name="ordfeminine" unicode="&#xaa;" horiz-adv-x="441" 
d="M189 462c-58 0 -100 47 -100 119c0 105 72 195 157 195c42 0 76 -30 86 -68l20 63h65l-52 -210c-4 -13 -6 -25 -6 -31c0 -14 5 -19 16 -19c10 0 25 8 40 48l29 -11c-19 -66 -54 -86 -88 -86c-38 0 -60 24 -61 64c-26 -46 -69 -64 -106 -64zM218 521c54 0 100 59 100 124
c0 42 -21 69 -62 69c-53 0 -96 -60 -96 -123c0 -40 20 -70 58 -70zM51 334l15 63h337l-15 -63h-337z" />
    <glyph glyph-name="ordmasculine" unicode="&#xba;" horiz-adv-x="411" 
d="M244 465c-90 0 -139 62 -139 135c0 92 71 177 172 177c90 0 139 -62 139 -135c0 -92 -71 -177 -172 -177zM248 523c55 0 99 51 99 119c0 49 -33 78 -73 78c-56 0 -99 -52 -99 -119c0 -49 32 -78 73 -78zM58 334l15 63h291l-15 -63h-291z" />
    <glyph glyph-name="ordfeminine.lin" horiz-adv-x="420" 
d="M202 523c-58 0 -100 47 -100 119c0 105 72 195 157 195c42 0 76 -30 86 -68l20 63h65l-52 -210c-4 -13 -6 -25 -6 -31c0 -14 5 -19 16 -19c10 0 25 8 40 48l29 -11c-19 -66 -54 -86 -88 -86c-38 0 -60 24 -61 64c-26 -46 -69 -64 -106 -64zM231 582c54 0 100 59 100 124
c0 42 -21 69 -62 69c-53 0 -96 -60 -96 -123c0 -40 20 -70 58 -70zM64 395l15 63h337l-15 -63h-337z" />
    <glyph glyph-name="ordmasculine.lin" horiz-adv-x="391" 
d="M257 526c-90 0 -139 62 -139 135c0 92 71 177 172 177c90 0 139 -62 139 -135c0 -92 -71 -177 -172 -177zM261 584c55 0 99 51 99 119c0 49 -33 78 -73 78c-56 0 -99 -52 -99 -119c0 -49 32 -78 73 -78zM71 395l15 63h291l-15 -63h-291z" />
    <glyph glyph-name="degree" unicode="&#xb0;" horiz-adv-x="393" 
d="M243 468c-89 0 -137 63 -137 134c0 90 70 175 170 175c89 0 137 -62 137 -133c0 -90 -70 -176 -170 -176zM246 534c49 0 90 53 90 109c0 44 -28 69 -63 69c-48 0 -89 -53 -89 -110c0 -43 27 -68 62 -68z" />
    <glyph glyph-name="degree.lin" horiz-adv-x="373" 
d="M256 529c-89 0 -137 63 -137 134c0 90 70 175 170 175c89 0 137 -62 137 -133c0 -90 -70 -176 -170 -176zM259 595c49 0 90 53 90 109c0 44 -28 69 -63 69c-48 0 -89 -53 -89 -110c0 -43 27 -68 62 -68z" />
    <glyph glyph-name="percent" unicode="%" horiz-adv-x="783" 
d="M90 -1l-42 49c53 41 213 170 345 281c134 113 292 252 336 292l42 -48c-53 -41 -212 -170 -344 -281c-133 -112 -292 -253 -337 -293zM208 314c-78 0 -132 55 -132 132c0 88 69 166 162 166c78 0 132 -55 132 -132c0 -88 -69 -166 -162 -166zM212 381c42 0 80 46 80 99
c0 37 -21 65 -58 65c-41 0 -80 -46 -80 -99c0 -37 22 -65 58 -65zM560 -9c-78 0 -133 54 -133 131c0 88 69 167 162 167c78 0 133 -55 133 -132c0 -88 -70 -166 -162 -166zM563 57c42 0 81 47 81 100c0 37 -22 65 -59 65c-41 0 -80 -47 -80 -99c0 -37 22 -66 58 -66z" />
    <glyph glyph-name="perthousand" unicode="&#x2030;" horiz-adv-x="1100" 
d="M90 -1l-42 49c53 41 213 170 345 281c134 113 292 252 336 292l42 -48c-53 -41 -212 -170 -344 -281c-133 -112 -292 -253 -337 -293zM208 314c-78 0 -132 55 -132 132c0 88 69 166 162 166c78 0 132 -55 132 -132c0 -88 -69 -166 -162 -166zM212 381c42 0 80 46 80 99
c0 37 -21 65 -58 65c-41 0 -80 -46 -80 -99c0 -37 22 -65 58 -65zM894 -9c-77 0 -132 54 -132 131c0 88 69 167 162 167c78 0 132 -55 132 -132c0 -88 -69 -166 -162 -166zM560 -9c-78 0 -133 54 -133 131c0 88 69 167 162 167c78 0 133 -55 133 -132
c0 -88 -70 -166 -162 -166zM898 57c42 0 81 47 81 100c0 37 -22 65 -59 65c-41 0 -80 -47 -80 -99c0 -37 22 -66 58 -66zM563 57c42 0 81 47 81 100c0 37 -22 65 -59 65c-41 0 -80 -47 -80 -99c0 -37 22 -66 58 -66z" />
    <glyph glyph-name="percent.lin" horiz-adv-x="796" 
d="M87 -3l-44 43c46 38 266 249 371 341c106 91 322 308 363 346l41 -44c-46 -38 -263 -247 -366 -337c-107 -92 -325 -311 -365 -349zM248 397c-83 0 -140 61 -140 145c0 95 76 184 174 184c83 0 140 -61 140 -144c0 -97 -75 -185 -174 -185zM253 465c56 0 94 58 94 112
c0 47 -28 81 -70 81c-55 0 -93 -57 -93 -111c0 -49 27 -82 69 -82zM563 -9c-83 0 -140 61 -140 145c0 95 75 184 174 184c83 0 140 -61 140 -144c0 -97 -76 -185 -174 -185zM568 59c55 0 93 57 93 112c0 47 -28 81 -69 81c-56 0 -94 -57 -94 -111c0 -49 28 -82 70 -82z" />
    <glyph glyph-name="perthousand.lin" horiz-adv-x="1171" 
d="M87 -3l-44 43c46 38 266 249 371 341c106 91 322 308 363 346l41 -44c-46 -38 -263 -247 -366 -337c-107 -92 -325 -311 -365 -349zM248 397c-83 0 -140 60 -140 140c0 93 76 181 174 181c83 0 140 -60 140 -140c0 -95 -75 -181 -174 -181zM253 465c56 0 94 56 94 107
c0 45 -28 78 -70 78c-55 0 -93 -56 -93 -107c0 -47 27 -78 69 -78zM937 -9c-83 0 -139 60 -139 140c0 95 74 181 174 181c83 0 139 -60 139 -140c0 -93 -75 -181 -174 -181zM563 -9c-83 0 -139 60 -139 140c0 95 74 181 174 181c83 0 139 -60 139 -140
c0 -93 -75 -181 -174 -181zM943 59c55 0 94 56 94 107c0 47 -28 78 -71 78c-55 0 -93 -55 -93 -107c0 -46 27 -78 70 -78zM569 59c55 0 94 56 94 107c0 47 -29 78 -71 78c-56 0 -94 -55 -94 -107c0 -46 28 -78 71 -78z" />
    <glyph glyph-name="quotedbl" unicode="&#x22;" horiz-adv-x="475" 
d="M127 452l15 250c3 45 34 75 73 75c40 0 72 -32 72 -71c0 -11 -4 -26 -9 -35l-104 -219h-47zM351 452l15 250c4 45 35 75 73 75c40 0 72 -32 72 -71c0 -11 -4 -26 -8 -35l-105 -219h-47z" />
    <glyph glyph-name="quotesingle" unicode="'" horiz-adv-x="251" 
d="M127 452l15 250c3 45 34 75 73 75c40 0 72 -32 72 -71c0 -11 -4 -26 -9 -35l-104 -219h-47z" />
    <glyph glyph-name="quotedbl.lin" horiz-adv-x="458" 
d="M140 513l15 250c3 45 34 75 73 75c40 0 72 -32 72 -71c0 -11 -4 -26 -9 -35l-104 -219h-47zM364 513l15 250c4 45 35 75 73 75c40 0 72 -32 72 -71c0 -11 -4 -26 -8 -35l-105 -219h-47z" />
    <glyph glyph-name="quotesingle.lin" horiz-adv-x="242" 
d="M140 513l15 250c3 45 34 75 73 75c40 0 72 -32 72 -71c0 -11 -4 -26 -9 -35l-104 -219h-47z" />
    <glyph glyph-name="plus" unicode="+" horiz-adv-x="532" 
d="M382 525l-36 -154h156l-23 -95h-155l-37 -160h-95l37 160h-156l22 95h156l36 154h95z" />
    <glyph glyph-name="plus.lin" horiz-adv-x="497" 
d="M395 586l-36 -154h156l-23 -95h-155l-37 -160h-95l37 160h-156l22 95h156l36 154h95z" />
    <glyph glyph-name="minus" unicode="&#x2212;" horiz-adv-x="532" 
d="M73 276l22 95h407l-23 -95h-406z" />
    <glyph glyph-name="minus.lin" horiz-adv-x="508" 
d="M86 337l22 95h407l-23 -95h-406z" />
    <glyph glyph-name="divide" unicode="&#xf7;" horiz-adv-x="532" 
d="M327 424c-38 0 -69 31 -69 69s33 69 70 69s69 -31 69 -69s-33 -69 -70 -69zM73 276l22 95h407l-23 -95h-406zM249 84c-37 0 -69 32 -69 70s33 69 71 69c37 0 68 -31 68 -69s-33 -70 -70 -70z" />
    <glyph glyph-name="divide.lin" horiz-adv-x="508" 
d="M340 485c-38 0 -69 31 -69 69s33 69 70 69s69 -31 69 -69s-33 -69 -70 -69zM86 337l22 95h407l-23 -95h-406zM262 145c-37 0 -69 32 -69 70s33 69 71 69c37 0 68 -31 68 -69s-33 -70 -70 -70z" />
    <glyph glyph-name="equal" unicode="=" horiz-adv-x="532" 
d="M115 375l22 96h379l-21 -96h-380zM68 170l21 96h380l-22 -96h-379z" />
    <glyph glyph-name="equal.lin" horiz-adv-x="496" 
d="M105 436l22 96h379l-21 -96h-380zM58 231l21 96h380l-22 -96h-379z" />
    <glyph glyph-name="multiply" unicode="&#xd7;" horiz-adv-x="532" 
d="M211 520l92 -127l144 122l56 -72l-147 -124l95 -131l-77 -61l-93 128l-146 -123l-56 72l149 126l-94 130z" />
    <glyph glyph-name="multiply.lin" horiz-adv-x="508" 
d="M198 581l92 -127l144 122l56 -72l-147 -124l95 -131l-77 -61l-93 128l-146 -123l-56 72l149 126l-94 130z" />
    <glyph glyph-name="less" unicode="&#x3c;" horiz-adv-x="552" 
d="M325 83l-248 210l13 58l343 208l47 -71l-289 -175l193 -163z" />
    <glyph glyph-name="less.lin" horiz-adv-x="479" 
d="M337 144l-248 210l13 58l343 208l47 -71l-289 -175l193 -163z" />
    <glyph glyph-name="greater" unicode="&#x3e;" horiz-adv-x="503" 
d="M108 84l-47 72l289 175l-193 163l59 67l248 -210l-13 -58z" />
    <glyph glyph-name="greater.lin" horiz-adv-x="479" 
d="M120 145l-47 72l289 175l-193 163l59 67l248 -210l-13 -58z" />
    <glyph glyph-name="plusminus" unicode="&#xb1;" horiz-adv-x="532" 
d="M405 615l-36 -156h156l-22 -95h-156l-36 -156h-95l36 156h-155l21 95h156l36 156h95zM17 19l21 95h406l-21 -95h-406z" />
    <glyph glyph-name="plusminus.lin" horiz-adv-x="508" 
d="M411 676l-36 -156h156l-22 -95h-156l-36 -156h-95l36 156h-155l21 95h156l36 156h95zM23 80l21 95h406l-21 -95h-406z" />
    <glyph glyph-name="onehalf" unicode="&#xbd;" horiz-adv-x="885" 
d="M191 -17l-41 35c53 61 202 233 299 348c96 114 243 295 290 356l41 -35c-54 -61 -202 -233 -300 -348c-96 -115 -242 -295 -289 -356zM62 308l14 65h104l60 261l-100 -24l-4 65l154 38l36 -17l-74 -323h101l-14 -65h-277zM491 0l-14 33c38 97 131 151 195 183
c55 27 85 49 85 81c0 29 -26 45 -66 45c-33 0 -49 -8 -59 -18c5 -6 10 -16 10 -27c0 -24 -19 -43 -43 -43c-25 0 -44 20 -44 46c0 60 72 106 144 106c74 0 132 -39 132 -107c0 -66 -66 -103 -131 -136c-59 -29 -105 -57 -132 -103h156l15 65h61l-30 -125h-279z" />
    <glyph glyph-name="onethird" unicode="&#x2153;" horiz-adv-x="885" 
d="M200 -17l-41 35c53 61 202 233 299 348c96 114 243 295 290 356l41 -35c-54 -61 -202 -233 -300 -348c-96 -115 -242 -295 -289 -356zM72 308l14 65h104l60 261l-100 -24l-4 65l154 38l36 -17l-74 -323h101l-14 -65h-277zM644 -6c-64 0 -146 30 -146 99c0 26 19 46 44 46
c24 0 42 -19 42 -42c0 -10 -4 -19 -8 -24c9 -10 29 -18 68 -18c52 0 83 24 83 61c0 22 -23 56 -82 56h-30l15 65h29c55 0 97 23 97 57c0 30 -33 49 -73 49c-16 0 -29 -3 -41 -8c3 -4 4 -10 4 -15c0 -24 -19 -42 -42 -42c-24 0 -44 18 -44 44c0 38 43 82 130 82
c93 0 143 -54 143 -102c0 -61 -46 -96 -120 -101c63 -15 88 -49 88 -91c0 -80 -82 -116 -157 -116z" />
    <glyph glyph-name="twothirds" unicode="&#x2154;" horiz-adv-x="885" 
d="M210 -17l-41 35c53 61 202 233 299 348c96 114 243 295 290 356l41 -35c-54 -61 -202 -233 -300 -348c-96 -115 -242 -295 -289 -356zM82 308l-14 33c38 97 131 151 195 183c55 27 85 49 85 81c0 29 -26 45 -66 45c-33 0 -49 -8 -59 -18c5 -6 10 -16 10 -27
c0 -24 -19 -43 -43 -43c-25 0 -44 20 -44 46c0 60 72 106 144 106c74 0 132 -39 132 -107c0 -66 -66 -103 -131 -136c-59 -29 -105 -57 -132 -103h156l15 65h61l-30 -125h-279zM651 -6c-64 0 -146 30 -146 99c0 26 19 46 44 46c24 0 42 -19 42 -42c0 -10 -4 -19 -8 -24
c9 -10 29 -18 68 -18c52 0 83 24 83 61c0 22 -23 56 -82 56h-30l15 65h29c55 0 97 23 97 57c0 30 -33 49 -73 49c-16 0 -29 -3 -41 -8c3 -4 4 -10 4 -15c0 -24 -19 -42 -42 -42c-24 0 -44 18 -44 44c0 38 43 82 130 82c93 0 143 -54 143 -102c0 -61 -46 -96 -120 -101
c63 -15 88 -49 88 -91c0 -80 -82 -116 -157 -116z" />
    <glyph glyph-name="onequarter" unicode="&#xbc;" horiz-adv-x="885" 
d="M208 -17l-41 35c53 61 202 233 299 348c96 114 243 295 290 356l41 -35c-54 -61 -202 -233 -300 -348c-96 -115 -242 -295 -289 -356zM74 308l14 65h104l60 261l-100 -24l-4 65l154 38l36 -17l-74 -323h101l-14 -65h-277zM660 56l15 61h-178l-10 35l257 262l44 -42
l-204 -200h105l15 60l73 26l-20 -82h63l-15 -59h-62l-14 -61h47l-13 -56h-184l13 56h68z" />
    <glyph glyph-name="threequarters" unicode="&#xbe;" horiz-adv-x="885" 
d="M212 -17l-41 35c53 61 202 233 299 348c96 114 243 295 290 356l41 -35c-54 -61 -202 -233 -300 -348c-96 -115 -242 -295 -289 -356zM235 302c-64 0 -146 30 -146 99c0 26 19 46 44 46c24 0 42 -19 42 -42c0 -10 -4 -19 -8 -24c9 -10 29 -18 68 -18c52 0 83 24 83 61
c0 22 -23 56 -82 56h-30l15 65h29c55 0 97 23 97 57c0 30 -33 49 -73 49c-16 0 -29 -3 -41 -8c3 -4 4 -10 4 -15c0 -24 -19 -42 -42 -42c-24 0 -44 18 -44 44c0 38 43 82 130 82c93 0 143 -54 143 -102c0 -61 -46 -96 -120 -101c63 -15 88 -49 88 -91
c0 -80 -82 -116 -157 -116zM662 56l15 61h-178l-10 35l257 262l44 -42l-204 -200h105l15 60l73 26l-20 -82h63l-15 -59h-62l-14 -61h47l-13 -56h-184l13 56h68z" />
    <glyph glyph-name="onefifth" unicode="&#x2155;" horiz-adv-x="885" 
d="M197 -17l-41 35c53 61 202 233 299 348c96 114 243 295 290 356l41 -35c-54 -61 -202 -233 -300 -348c-96 -115 -242 -295 -289 -356zM74 308l14 65h104l60 261l-100 -24l-4 65l154 38l36 -17l-74 -323h101l-14 -65h-277zM623 -8c-77 0 -130 44 -130 85c0 26 16 48 45 48
c24 0 44 -19 44 -44c0 -6 -2 -10 -4 -16c9 -5 25 -10 50 -10c57 0 104 35 104 82c0 39 -29 61 -73 61c-31 0 -57 -8 -80 -17l-39 26l61 191h233l-15 -67h-174l-30 -90c18 7 40 13 73 13c61 0 114 -43 114 -111c0 -87 -87 -151 -179 -151z" />
    <glyph glyph-name="twofifths" unicode="&#x2156;" horiz-adv-x="885" 
d="M215 -17l-41 35c53 61 202 233 299 348c96 114 243 295 290 356l41 -35c-54 -61 -202 -233 -300 -348c-96 -115 -242 -295 -289 -356zM95 308l-14 33c38 97 131 151 195 183c55 27 85 49 85 81c0 29 -26 45 -66 45c-33 0 -49 -8 -59 -18c5 -6 10 -16 10 -27
c0 -24 -19 -43 -43 -43c-25 0 -44 20 -44 46c0 60 72 106 144 106c74 0 132 -39 132 -107c0 -66 -66 -103 -131 -136c-59 -29 -105 -57 -132 -103h156l15 65h61l-30 -125h-279zM633 -8c-77 0 -130 44 -130 85c0 26 16 48 45 48c24 0 44 -19 44 -44c0 -6 -2 -10 -4 -16
c9 -5 25 -10 50 -10c57 0 104 35 104 82c0 39 -29 61 -73 61c-31 0 -57 -8 -80 -17l-39 26l61 191h233l-15 -67h-174l-30 -90c18 7 40 13 73 13c61 0 114 -43 114 -111c0 -87 -87 -151 -179 -151z" />
    <glyph glyph-name="threefifths" unicode="&#x2157;" horiz-adv-x="885" 
d="M198 -17l-41 35c53 61 202 233 299 348c96 114 243 295 290 356l41 -35c-54 -61 -202 -233 -300 -348c-96 -115 -242 -295 -289 -356zM239 302c-64 0 -146 30 -146 99c0 26 19 46 44 46c24 0 42 -19 42 -42c0 -10 -4 -19 -8 -24c9 -10 29 -18 68 -18c52 0 83 24 83 61
c0 22 -23 56 -82 56h-30l15 65h29c55 0 97 23 97 57c0 30 -33 49 -73 49c-16 0 -29 -3 -41 -8c3 -4 4 -10 4 -15c0 -24 -19 -42 -42 -42c-24 0 -44 18 -44 44c0 38 43 82 130 82c93 0 143 -54 143 -102c0 -61 -46 -96 -120 -101c63 -15 88 -49 88 -91
c0 -80 -82 -116 -157 -116zM627 -8c-77 0 -130 44 -130 85c0 26 16 48 45 48c24 0 44 -19 44 -44c0 -6 -2 -10 -4 -16c9 -5 25 -10 50 -10c57 0 104 35 104 82c0 39 -29 61 -73 61c-31 0 -57 -8 -80 -17l-39 26l61 191h233l-15 -67h-174l-30 -90c18 7 40 13 73 13
c61 0 114 -43 114 -111c0 -87 -87 -151 -179 -151z" />
    <glyph glyph-name="fourfifths" unicode="&#x2158;" horiz-adv-x="885" 
d="M205 -17l-41 35c53 61 202 233 299 348c96 114 243 295 290 356l41 -35c-54 -61 -202 -233 -300 -348c-96 -115 -242 -295 -289 -356zM260 364l15 61h-178l-10 35l257 262l44 -42l-204 -200h105l15 60l73 26l-20 -82h63l-15 -59h-62l-14 -61h47l-13 -56h-184l13 56h68z
M631 -8c-77 0 -130 44 -130 85c0 26 16 48 45 48c24 0 44 -19 44 -44c0 -6 -2 -10 -4 -16c9 -5 25 -10 50 -10c57 0 104 35 104 82c0 39 -29 61 -73 61c-31 0 -57 -8 -80 -17l-39 26l61 191h233l-15 -67h-174l-30 -90c18 7 40 13 73 13c61 0 114 -43 114 -111
c0 -87 -87 -151 -179 -151z" />
    <glyph glyph-name="onesixth" unicode="&#x2159;" horiz-adv-x="885" 
d="M192 -17l-41 35c53 61 202 233 299 348c96 114 243 295 290 356l41 -35c-54 -61 -202 -233 -300 -348c-96 -115 -242 -295 -289 -356zM69 308l14 65h104l60 261l-100 -24l-4 65l154 38l36 -17l-74 -323h101l-14 -65h-277zM537 30c-24 25 -37 61 -37 110
c0 80 31 161 91 215c35 31 75 51 126 51c61 0 108 -35 108 -77c0 -26 -20 -45 -43 -45c-22 0 -41 19 -41 42c0 6 1 11 4 15c-7 3 -14 6 -29 6c-25 0 -57 -11 -85 -37c-26 -25 -48 -66 -59 -106c26 30 63 49 102 49c70 0 124 -47 124 -113c0 -86 -75 -148 -161 -148
c-42 0 -76 14 -100 38zM635 55c56 0 90 37 90 79c0 34 -25 61 -64 61c-52 0 -92 -40 -92 -79c0 -16 6 -31 17 -42c12 -12 29 -19 49 -19z" />
    <glyph glyph-name="fivesixths" unicode="&#x215a;" horiz-adv-x="885" 
d="M192 -17l-41 35c53 61 202 233 299 348c96 114 243 295 290 356l41 -35c-54 -61 -202 -233 -300 -348c-96 -115 -242 -295 -289 -356zM218 300c-77 0 -130 44 -130 85c0 26 16 48 45 48c24 0 44 -19 44 -44c0 -6 -2 -10 -4 -16c9 -5 25 -10 50 -10c57 0 104 35 104 82
c0 39 -29 61 -73 61c-31 0 -57 -8 -80 -17l-39 26l61 191h233l-15 -67h-174l-30 -90c18 7 40 13 73 13c61 0 114 -43 114 -111c0 -87 -87 -151 -179 -151zM537 30c-24 25 -37 61 -37 110c0 80 31 161 91 215c35 31 75 51 126 51c61 0 108 -35 108 -77c0 -26 -20 -45 -43 -45
c-22 0 -41 19 -41 42c0 6 1 11 4 15c-7 3 -14 6 -29 6c-25 0 -57 -11 -85 -37c-26 -25 -48 -66 -59 -106c26 30 63 49 102 49c70 0 124 -47 124 -113c0 -86 -75 -148 -161 -148c-42 0 -76 14 -100 38zM635 55c56 0 90 37 90 79c0 34 -25 61 -64 61c-52 0 -92 -40 -92 -79
c0 -16 6 -31 17 -42c12 -12 29 -19 49 -19z" />
    <glyph glyph-name="oneeighth" unicode="&#x215b;" horiz-adv-x="885" 
d="M189 -17l-41 35c53 61 202 233 299 348c96 114 243 295 290 356l41 -35c-54 -61 -202 -233 -300 -348c-96 -115 -242 -295 -289 -356zM71 308l14 65h104l60 261l-100 -24l-4 65l154 38l36 -17l-74 -323h101l-14 -65h-277zM646 -7c-89 0 -150 50 -150 111
c0 55 37 94 102 109c-45 22 -58 53 -58 84c0 51 52 107 146 107c84 0 141 -48 141 -110c0 -47 -32 -81 -90 -95c42 -18 65 -49 65 -87c0 -60 -52 -119 -156 -119zM681 232c43 0 72 24 72 58c0 30 -27 54 -67 54c-42 0 -74 -22 -74 -56c0 -32 31 -56 69 -56zM646 54
c50 0 83 25 83 62c0 29 -25 59 -76 59s-83 -26 -83 -63c0 -32 31 -58 76 -58z" />
    <glyph glyph-name="threeeighths" unicode="&#x215c;" horiz-adv-x="885" 
d="M188 -17l-41 35c53 61 202 233 299 348c96 114 243 295 290 356l41 -35c-54 -61 -202 -233 -300 -348c-96 -115 -242 -295 -289 -356zM236 302c-64 0 -146 30 -146 99c0 26 19 46 44 46c24 0 42 -19 42 -42c0 -10 -4 -19 -8 -24c9 -10 29 -18 68 -18c52 0 83 24 83 61
c0 22 -23 56 -82 56h-30l15 65h29c55 0 97 23 97 57c0 30 -33 49 -73 49c-16 0 -29 -3 -41 -8c3 -4 4 -10 4 -15c0 -24 -19 -42 -42 -42c-24 0 -44 18 -44 44c0 38 43 82 130 82c93 0 143 -54 143 -102c0 -61 -46 -96 -120 -101c63 -15 88 -49 88 -91
c0 -80 -82 -116 -157 -116zM649 -7c-89 0 -150 50 -150 111c0 55 37 94 102 109c-45 22 -58 53 -58 84c0 51 52 107 146 107c84 0 141 -48 141 -110c0 -47 -32 -81 -90 -95c42 -18 65 -49 65 -87c0 -60 -52 -119 -156 -119zM684 232c43 0 72 24 72 58c0 30 -27 54 -67 54
c-42 0 -74 -22 -74 -56c0 -32 31 -56 69 -56zM649 54c50 0 83 25 83 62c0 29 -25 59 -76 59s-83 -26 -83 -63c0 -32 31 -58 76 -58z" />
    <glyph glyph-name="fiveeighths" unicode="&#x215d;" horiz-adv-x="885" 
d="M180 -17l-41 35c53 61 202 233 299 348c96 114 243 295 290 356l41 -35c-54 -61 -202 -233 -300 -348c-96 -115 -242 -295 -289 -356zM217 300c-77 0 -130 44 -130 85c0 26 16 48 45 48c24 0 44 -19 44 -44c0 -6 -2 -10 -4 -16c9 -5 25 -10 50 -10c57 0 104 35 104 82
c0 39 -29 61 -73 61c-31 0 -57 -8 -80 -17l-39 26l61 191h233l-15 -67h-174l-30 -90c18 7 40 13 73 13c61 0 114 -43 114 -111c0 -87 -87 -151 -179 -151zM640 -7c-89 0 -150 50 -150 111c0 55 37 94 102 109c-45 22 -58 53 -58 84c0 51 52 107 146 107
c84 0 141 -48 141 -110c0 -47 -32 -81 -90 -95c42 -18 65 -49 65 -87c0 -60 -52 -119 -156 -119zM675 232c43 0 72 24 72 58c0 30 -27 54 -67 54c-42 0 -74 -22 -74 -56c0 -32 31 -56 69 -56zM640 54c50 0 83 25 83 62c0 29 -25 59 -76 59s-83 -26 -83 -63
c0 -32 31 -58 76 -58z" />
    <glyph glyph-name="seveneighths" unicode="&#x215e;" horiz-adv-x="885" 
d="M154 -17l-41 35c53 61 202 233 299 348c96 114 243 295 290 356l41 -35c-54 -61 -202 -233 -300 -348c-96 -115 -242 -295 -289 -356zM147 308l237 338h-153l-17 -75h-64l32 135h268l22 -40l-243 -358h-82zM635 -7c-89 0 -150 50 -150 111c0 55 37 94 102 109
c-45 22 -58 53 -58 84c0 51 52 107 146 107c84 0 141 -48 141 -110c0 -47 -32 -81 -90 -95c42 -18 65 -49 65 -87c0 -60 -52 -119 -156 -119zM670 232c43 0 72 24 72 58c0 30 -27 54 -67 54c-42 0 -74 -22 -74 -56c0 -32 31 -56 69 -56zM635 54c50 0 83 25 83 62
c0 29 -25 59 -76 59s-83 -26 -83 -63c0 -32 31 -58 76 -58z" />
    <glyph glyph-name="zero.sup" unicode="&#x2070;" horiz-adv-x="421" 
d="M280 474c-83 0 -134 59 -134 163c0 136 82 249 186 249c82 0 133 -60 133 -163c0 -136 -81 -249 -185 -249zM283 539c64 0 110 92 110 188c0 58 -22 94 -65 94c-64 0 -110 -92 -110 -188c0 -58 22 -94 65 -94z" />
    <glyph glyph-name="one.sup" unicode="&#xb9;" horiz-adv-x="421" 
d="M133 482l14 65h104l60 261l-100 -24l-4 65l154 38l36 -17l-74 -323h101l-14 -65h-277z" />
    <glyph glyph-name="two.sup" unicode="&#xb2;" horiz-adv-x="421" 
d="M130 482l-14 33c38 97 131 151 195 183c55 27 85 49 85 81c0 29 -26 45 -66 45c-33 0 -49 -8 -59 -18c5 -6 10 -16 10 -27c0 -24 -19 -43 -43 -43c-25 0 -44 20 -44 46c0 60 72 106 144 106c74 0 132 -39 132 -107c0 -66 -66 -103 -131 -136c-59 -29 -105 -57 -132 -103
h156l15 65h61l-30 -125h-279z" />
    <glyph glyph-name="three.sup" unicode="&#xb3;" horiz-adv-x="421" 
d="M281 476c-64 0 -146 30 -146 99c0 26 19 46 44 46c24 0 42 -19 42 -42c0 -10 -4 -19 -8 -24c9 -10 29 -18 68 -18c52 0 83 24 83 61c0 22 -23 56 -82 56h-30l15 65h29c55 0 97 23 97 57c0 30 -33 49 -73 49c-16 0 -29 -3 -41 -8c3 -4 4 -10 4 -15c0 -24 -19 -42 -42 -42
c-24 0 -44 18 -44 44c0 38 43 82 130 82c93 0 143 -54 143 -102c0 -61 -46 -96 -120 -101c63 -15 88 -49 88 -91c0 -80 -82 -116 -157 -116z" />
    <glyph glyph-name="four.sup" unicode="&#x2074;" horiz-adv-x="421" 
d="M301 538l15 61h-178l-10 35l257 262l44 -42l-204 -200h105l15 60l73 26l-20 -82h63l-15 -59h-62l-14 -61h47l-13 -56h-184l13 56h68z" />
    <glyph glyph-name="five.sup" unicode="&#x2075;" horiz-adv-x="421" 
d="M261 474c-77 0 -130 44 -130 85c0 26 16 48 45 48c24 0 44 -19 44 -44c0 -6 -2 -10 -4 -16c9 -5 25 -10 50 -10c57 0 104 35 104 82c0 39 -29 61 -73 61c-31 0 -57 -8 -80 -17l-39 26l61 191h233l-15 -67h-174l-30 -90c18 7 40 13 73 13c61 0 114 -43 114 -111
c0 -87 -87 -151 -179 -151z" />
    <glyph glyph-name="six.sup" unicode="&#x2076;" horiz-adv-x="421" 
d="M184 512c-24 25 -37 61 -37 110c0 80 31 161 91 215c35 31 75 51 126 51c61 0 108 -35 108 -77c0 -26 -20 -45 -43 -45c-22 0 -41 19 -41 42c0 6 1 11 4 15c-7 3 -14 6 -29 6c-25 0 -57 -11 -85 -37c-26 -25 -48 -66 -59 -106c26 30 63 49 102 49c70 0 124 -47 124 -113
c0 -86 -75 -148 -161 -148c-42 0 -76 14 -100 38zM282 537c56 0 90 37 90 79c0 34 -25 61 -64 61c-52 0 -92 -40 -92 -79c0 -16 6 -31 17 -42c12 -12 29 -19 49 -19z" />
    <glyph glyph-name="seven.sup" unicode="&#x2077;" horiz-adv-x="421" 
d="M178 482l237 338h-153l-17 -75h-64l32 135h268l22 -40l-243 -358h-82z" />
    <glyph glyph-name="eight.sup" unicode="&#x2078;" horiz-adv-x="421" 
d="M288 475c-89 0 -150 50 -150 111c0 55 37 94 102 109c-45 22 -58 53 -58 84c0 51 52 107 146 107c84 0 141 -48 141 -110c0 -47 -32 -81 -90 -95c42 -18 65 -49 65 -87c0 -60 -52 -119 -156 -119zM323 714c43 0 72 24 72 58c0 30 -27 54 -67 54c-42 0 -74 -22 -74 -56
c0 -32 31 -56 69 -56zM288 536c50 0 83 25 83 62c0 29 -25 59 -76 59s-83 -26 -83 -63c0 -32 31 -58 76 -58z" />
    <glyph glyph-name="nine.sup" unicode="&#x2079;" horiz-adv-x="421" 
d="M335 825c-56 0 -91 -37 -91 -79c0 -34 25 -61 65 -61c52 0 91 40 91 79c0 16 -6 32 -17 42c-12 13 -29 19 -48 19zM172 740c0 86 74 148 160 148c43 0 76 -14 100 -38c25 -24 38 -60 38 -110c0 -80 -32 -161 -92 -215c-35 -31 -75 -51 -126 -51c-60 0 -108 35 -108 78
c0 25 20 44 43 44s42 -19 42 -42c0 -5 -2 -11 -4 -14c6 -3 14 -7 28 -7c26 0 58 11 86 37c26 25 48 66 59 108c-26 -32 -64 -50 -102 -50c-71 0 -124 46 -124 112z" />
    <glyph glyph-name="zero.inf" unicode="&#x2080;" horiz-adv-x="421" 
d="M126 -187c-83 0 -134 59 -134 163c0 136 82 249 186 249c82 0 133 -60 133 -163c0 -136 -81 -249 -185 -249zM129 -122c64 0 110 92 110 188c0 58 -22 94 -65 94c-64 0 -110 -92 -110 -188c0 -58 22 -94 65 -94z" />
    <glyph glyph-name="one.inf" unicode="&#x2081;" horiz-adv-x="421" 
d="M-21 -179l14 65h104l60 261l-100 -24l-4 65l154 38l36 -17l-74 -323h101l-14 -65h-277z" />
    <glyph glyph-name="two.inf" unicode="&#x2082;" horiz-adv-x="421" 
d="M-24 -179l-14 33c38 97 131 151 195 183c55 27 85 49 85 81c0 29 -26 45 -66 45c-33 0 -49 -8 -59 -18c5 -6 10 -16 10 -27c0 -24 -19 -43 -43 -43c-25 0 -44 20 -44 46c0 60 72 106 144 106c74 0 132 -39 132 -107c0 -66 -66 -103 -131 -136c-59 -29 -105 -57 -132 -103
h156l15 65h61l-30 -125h-279z" />
    <glyph glyph-name="three.inf" unicode="&#x2083;" horiz-adv-x="421" 
d="M127 -185c-64 0 -146 30 -146 99c0 26 19 46 44 46c24 0 42 -19 42 -42c0 -10 -4 -19 -8 -24c9 -10 29 -18 68 -18c52 0 83 24 83 61c0 22 -23 56 -82 56h-30l15 65h29c55 0 97 23 97 57c0 30 -33 49 -73 49c-16 0 -29 -3 -41 -8c3 -4 4 -10 4 -15c0 -24 -19 -42 -42 -42
c-24 0 -44 18 -44 44c0 38 43 82 130 82c93 0 143 -54 143 -102c0 -61 -46 -96 -120 -101c63 -15 88 -49 88 -91c0 -80 -82 -116 -157 -116z" />
    <glyph glyph-name="four.inf" unicode="&#x2084;" horiz-adv-x="421" 
d="M147 -123l15 61h-178l-10 35l257 262l44 -42l-204 -200h105l15 60l73 26l-20 -82h63l-15 -59h-62l-14 -61h47l-13 -56h-184l13 56h68z" />
    <glyph glyph-name="five.inf" unicode="&#x2085;" horiz-adv-x="421" 
d="M107 -187c-77 0 -130 44 -130 85c0 26 16 48 45 48c24 0 44 -19 44 -44c0 -6 -2 -10 -4 -16c9 -5 25 -10 50 -10c57 0 104 35 104 82c0 39 -29 61 -73 61c-31 0 -57 -8 -80 -17l-39 26l61 191h233l-15 -67h-174l-30 -90c18 7 40 13 73 13c61 0 114 -43 114 -111
c0 -87 -87 -151 -179 -151z" />
    <glyph glyph-name="six.inf" unicode="&#x2086;" horiz-adv-x="421" 
d="M30 -149c-24 25 -37 61 -37 110c0 80 31 161 91 215c35 31 75 51 126 51c61 0 108 -35 108 -77c0 -26 -20 -45 -43 -45c-22 0 -41 19 -41 42c0 6 1 11 4 15c-7 3 -14 6 -29 6c-25 0 -57 -11 -85 -37c-26 -25 -48 -66 -59 -106c26 30 63 49 102 49c70 0 124 -47 124 -113
c0 -86 -75 -148 -161 -148c-42 0 -76 14 -100 38zM128 -124c56 0 90 37 90 79c0 34 -25 61 -64 61c-52 0 -92 -40 -92 -79c0 -16 6 -31 17 -42c12 -12 29 -19 49 -19z" />
    <glyph glyph-name="seven.inf" unicode="&#x2087;" horiz-adv-x="421" 
d="M24 -179l237 338h-153l-17 -75h-64l32 135h268l22 -40l-243 -358h-82z" />
    <glyph glyph-name="eight.inf" unicode="&#x2088;" horiz-adv-x="421" 
d="M134 -186c-89 0 -150 50 -150 111c0 55 37 94 102 109c-45 22 -58 53 -58 84c0 51 52 107 146 107c84 0 141 -48 141 -110c0 -47 -32 -81 -90 -95c42 -18 65 -49 65 -87c0 -60 -52 -119 -156 -119zM169 53c43 0 72 24 72 58c0 30 -27 54 -67 54c-42 0 -74 -22 -74 -56
c0 -32 31 -56 69 -56zM134 -125c50 0 83 25 83 62c0 29 -25 59 -76 59s-83 -26 -83 -63c0 -32 31 -58 76 -58z" />
    <glyph glyph-name="nine.inf" unicode="&#x2089;" horiz-adv-x="421" 
d="M181 164c-56 0 -91 -37 -91 -79c0 -34 25 -61 65 -61c52 0 91 40 91 79c0 16 -6 32 -17 42c-12 13 -29 19 -48 19zM18 79c0 86 74 148 160 148c43 0 76 -14 100 -38c25 -24 38 -60 38 -110c0 -80 -32 -161 -92 -215c-35 -31 -75 -51 -126 -51c-60 0 -108 35 -108 78
c0 25 20 44 43 44s42 -19 42 -42c0 -5 -2 -11 -4 -14c6 -3 14 -7 28 -7c26 0 58 11 86 37c26 25 48 66 59 108c-26 -32 -64 -50 -102 -50c-71 0 -124 46 -124 112z" />
    <glyph glyph-name="zero.tab" 
d="M587 467c0 -259 -141 -480 -317 -480c-128 0 -204 98 -204 269c0 259 141 481 318 481c128 0 203 -98 203 -270zM182 257c0 -104 35 -167 100 -167c106 0 189 196 189 376c0 104 -35 168 -100 168c-106 0 -189 -196 -189 -377z" />
    <glyph glyph-name="one.tab" 
d="M35 1l23 100h168l119 512l-160 -38l-9 100l247 61l56 -26l-141 -609h165l-23 -100h-445z" />
    <glyph glyph-name="two.tab" 
d="M150 95h261l28 118h96l-50 -213h-455c-5 0 -22 51 -22 51c62 165 195 256 322 328c94 54 150 101 150 169c0 53 -43 92 -113 92c-65 0 -97 -25 -113 -46c16 -16 24 -34 24 -54c0 -39 -30 -70 -70 -70c-44 0 -74 31 -74 85c0 79 86 182 242 182c125 0 217 -69 217 -189
c0 -117 -96 -185 -214 -252c-100 -57 -185 -116 -229 -201z" />
    <glyph glyph-name="three.tab" 
d="M400 369c85 -27 138 -87 138 -169c0 -140 -135 -211 -265 -211c-152 0 -239 79 -239 162c0 51 30 88 76 88c40 0 66 -29 66 -64c0 -23 -12 -42 -27 -53c22 -20 57 -38 130 -38c87 0 144 52 144 126c0 64 -52 113 -152 113h-43l24 100h38c108 0 178 49 178 119
c0 67 -60 98 -127 98c-32 0 -60 -11 -76 -23c7 -10 12 -23 12 -36c0 -38 -31 -67 -68 -67c-41 0 -72 31 -72 78c0 64 71 143 224 143c134 0 225 -77 225 -182c0 -106 -74 -167 -186 -184z" />
    <glyph glyph-name="four.tab" 
d="M506 470l-40 -171h107l-22 -92h-106l-27 -115h81l-21 -92h-309l20 89h125l28 120h-298l-14 52l431 487l72 -67l-339 -383h168l30 127z" />
    <glyph glyph-name="five.tab" 
d="M250 -13c-127 0 -222 66 -222 142c0 48 33 80 73 80s69 -31 69 -70c0 -12 -3 -24 -11 -33c15 -9 48 -24 100 -24c110 0 184 71 184 166c0 71 -55 120 -138 120c-41 0 -79 -8 -128 -27l-59 40l111 343h386l-24 -104h-295l-61 -184c32 13 68 22 108 22
c113 0 210 -76 210 -205c0 -156 -126 -266 -303 -266z" />
    <glyph glyph-name="six.tab" 
d="M540 526c-36 0 -67 29 -67 67c0 11 4 24 12 36c-11 8 -33 16 -64 16c-44 0 -90 -20 -131 -62c-48 -48 -90 -132 -104 -217c31 45 92 94 170 94c119 0 203 -89 203 -206c0 -149 -122 -267 -264 -267c-70 0 -125 29 -159 66c-46 49 -66 114 -66 212c0 135 56 301 161 394
c55 49 122 78 200 78c102 0 179 -62 179 -135c0 -44 -30 -76 -70 -76zM295 84c89 0 152 76 152 162c0 69 -44 121 -112 121c-88 0 -154 -81 -154 -160c0 -34 11 -65 30 -88c20 -22 48 -35 84 -35z" />
    <glyph glyph-name="seven.tab" 
d="M76 0l436 629h-282l-31 -132h-101l53 227h469l33 -59l-449 -665h-128z" />
    <glyph glyph-name="eight.tab" 
d="M546 203c0 -113 -95 -214 -255 -214c-140 0 -239 86 -239 198c0 104 71 176 175 202c-69 36 -96 97 -96 149c0 101 86 197 237 197c129 0 225 -84 225 -194c0 -90 -60 -152 -155 -176c64 -29 108 -90 108 -162zM475 535c0 58 -46 103 -107 103c-71 0 -124 -49 -124 -119
c0 -59 50 -105 107 -105c73 0 124 51 124 121zM430 213c0 62 -51 115 -124 115c-83 0 -138 -55 -138 -128c0 -61 50 -114 125 -114c80 0 137 55 137 127z" />
    <glyph glyph-name="nine.tab" 
d="M362 640c-89 0 -152 -76 -152 -162c0 -69 44 -121 113 -121c87 0 153 80 153 160c0 33 -11 65 -30 88c-20 22 -48 35 -84 35zM117 198c36 0 67 -29 67 -68c0 -11 -4 -24 -12 -35c11 -9 33 -16 64 -16c44 0 90 20 131 61c47 48 89 132 104 217c-31 -45 -93 -93 -170 -93
c-119 0 -203 89 -203 205c0 150 122 268 264 268c70 0 125 -29 159 -66c46 -49 66 -114 66 -212c0 -136 -56 -301 -161 -394c-55 -49 -122 -78 -200 -78c-102 0 -179 62 -179 135c0 43 30 76 70 76z" />
    <glyph glyph-name="period.tab" horiz-adv-x="295" 
d="M129 -9c-47 0 -84 38 -84 84c0 48 37 86 84 86s84 -38 84 -86c0 -46 -37 -84 -84 -84z" />
    <glyph glyph-name="comma.tab" horiz-adv-x="295" 
d="M-26 -173l-23 45c107 60 142 111 146 133c-36 15 -52 50 -52 71c0 47 37 85 84 85c46 0 86 -37 86 -94c0 -83 -97 -186 -241 -240z" />
    <glyph glyph-name="colon.tab" horiz-adv-x="295" 
d="M195 281c-46 0 -83 37 -83 83c0 45 37 83 83 83s82 -38 82 -83c0 -46 -36 -83 -82 -83zM129 -9c-46 0 -83 37 -83 83c0 45 37 83 83 83s82 -38 82 -83c0 -46 -36 -83 -82 -83z" />
    <glyph glyph-name="semicolon.tab" horiz-adv-x="295" 
d="M195 281c-46 0 -83 37 -83 83c0 45 37 83 83 83s82 -38 82 -83c0 -46 -36 -83 -82 -83zM-22 -169l-24 45c105 57 139 107 143 129c-35 14 -50 49 -50 69c0 46 36 82 81 82c46 0 85 -35 85 -91c0 -80 -95 -182 -235 -234z" />
    <glyph glyph-name="twodotleader.tab" 
d="M422 -9c-46 0 -84 38 -84 84c0 48 38 86 84 86c47 0 85 -38 85 -86c0 -46 -38 -84 -85 -84zM131 -9c-47 0 -84 38 -84 84c0 48 37 86 84 86s84 -38 84 -86c0 -46 -37 -84 -84 -84z" />
    <glyph glyph-name="periodcentered.tab" horiz-adv-x="295" 
d="M165 206c-46 0 -84 38 -84 85s38 85 84 85c47 0 85 -38 85 -85s-38 -85 -85 -85z" />
    <glyph glyph-name="slash.tab" 
d="M0 -235l-80 50l682 1006l79 -53z" />
    <glyph glyph-name="bar.tab" horiz-adv-x="295" 
d="M102 -220v1025h93v-1025h-93z" />
    <glyph glyph-name="underscore.tab" 
d="M-90 -178l24 101h622l-24 -101h-622z" />
    <glyph glyph-name="dollar.tab" 
d="M249 532c0 -40 26 -68 67 -95l59 197h-1c-76 -2 -126 -42 -125 -102zM432 192c0 50 -30 78 -81 106l-61 -209h6c75 0 136 37 136 103zM29 172c0 55 34 91 78 91c40 0 70 -32 70 -70c0 -19 -8 -41 -28 -56c13 -14 38 -28 68 -37l68 231c-72 37 -145 96 -145 196
c0 107 90 197 245 197h12l30 103l83 -23l-29 -94c84 -26 141 -83 141 -140c0 -51 -30 -91 -77 -91c-39 0 -70 31 -70 69c0 18 7 36 25 54c-10 10 -29 18 -51 23l-66 -224c88 -46 161 -92 161 -199c0 -112 -94 -202 -254 -202h-21l-34 -117l-82 22l32 110
c-90 28 -156 89 -156 157z" />
    <glyph glyph-name="sterling.tab" 
d="M291 495c0 -48 12 -90 16 -144h175l-19 -86h-157c-8 -52 -29 -104 -79 -144c27 1 47 -4 73 -13c33 -10 63 -24 97 -24c37 0 61 13 102 54l53 -53c-52 -79 -111 -98 -161 -98c-59 0 -102 21 -145 37c-25 10 -53 18 -83 20c-28 -37 -75 -57 -105 -57c-40 0 -67 25 -67 55
c0 47 58 88 144 81c50 48 64 95 67 142h-126l20 86h106c-4 56 -15 99 -15 145c0 138 87 241 227 241c106 0 184 -66 184 -147c0 -51 -33 -80 -69 -80s-65 29 -65 64c0 16 7 32 16 43c-3 15 -34 27 -68 27c-83 0 -121 -65 -121 -149z" />
    <glyph glyph-name="Euro.tab" 
d="M383 398h-137c-7 -27 -12 -55 -15 -82h132l-20 -86h-114c7 -89 45 -140 99 -140c45 0 89 36 131 94l69 -65c-58 -80 -126 -132 -212 -132c-114 0 -190 84 -199 238h-83l21 92h65c3 27 7 53 13 79h-57l21 92h60c57 146 162 249 278 249c102 0 171 -75 171 -169
c0 -56 -30 -95 -76 -95c-40 0 -66 31 -66 70c0 21 8 41 25 54c-9 15 -29 37 -65 37c-58 0 -114 -63 -151 -150h130z" />
    <glyph glyph-name="yen.tab" 
d="M80 301l18 82h129l-72 248h-70l22 93h249l-22 -93h-72l61 -237l177 237h-79l22 93h260l-22 -93h-65l-197 -248h119l-19 -82h-168l-16 -68h170l-18 -83h-170l-15 -66h100l-19 -84h-298l20 84h93l15 66h-166l19 83h167l15 68h-168z" />
    <glyph glyph-name="cent.tab" 
d="M190 352c0 -53 26 -93 65 -115l92 300c-80 -16 -157 -79 -157 -185zM527 273l-1 -93c-48 -32 -119 -50 -190 -50c-13 0 -26 0 -39 2l-48 -158l-73 19l47 156c-85 31 -142 100 -142 196c0 149 130 272 290 280l35 113l73 -19l-31 -100c79 -17 137 -68 137 -130
c0 -40 -27 -76 -69 -76c-35 0 -63 26 -63 63c0 16 7 33 18 44c-11 9 -31 16 -54 19l-97 -322c7 -1 14 -1 21 -1c64 0 134 21 186 57z" />
    <glyph glyph-name="numbersign.tab" 
d="M279 437l-46 -163h116l45 163h-115zM567 724l-54 -193h100l-26 -98h-102l-43 -154h99l-25 -99h-102l-50 -180h-97l50 180h-106l-50 -180h-97l50 180h-99l26 99h101l43 154h-98l25 98h101l54 193h97l-54 -193h106l54 193h97z" />
    <glyph glyph-name="paragraph.tab" 
d="M228 100l34 146h-3c-108 0 -188 78 -188 203c0 173 130 275 305 275h295l-22 -100h-74l-121 -524h74l-23 -100h-389l23 100h89zM312 95h52l123 534h-52z" />
    <glyph glyph-name="section.tab" 
d="M346 436l-32 13c-85 -18 -122 -41 -122 -77c0 -33 45 -53 118 -83l31 -14c81 18 122 39 122 77c0 34 -46 55 -117 84zM84 359c0 67 62 110 159 129c-37 27 -58 59 -58 102c0 77 72 147 207 147c84 0 140 -25 171 -59c19 -20 28 -43 28 -66c0 -33 -27 -61 -60 -61
c-34 0 -58 26 -58 58c0 8 3 21 9 30c-5 3 -11 6 -18 8c-20 7 -47 11 -71 11c-51 0 -100 -17 -100 -50s40 -51 117 -86c78 -34 162 -75 162 -157c0 -69 -65 -109 -160 -129c37 -26 59 -58 59 -101c0 -77 -73 -147 -208 -147c-85 0 -142 26 -172 60c-17 20 -26 43 -26 64
c0 34 26 61 60 61c33 0 57 -25 57 -57c0 -9 -2 -21 -9 -30c4 -3 10 -5 18 -8c19 -7 47 -11 72 -11c50 0 99 17 99 50s-40 51 -117 85c-78 35 -161 75 -161 157z" />
    <glyph glyph-name="degree.tab" 
d="M335 417c-104 0 -165 74 -165 167c0 115 98 229 224 229c105 0 166 -74 166 -167c0 -115 -101 -229 -225 -229zM343 484c78 0 144 77 144 156c0 65 -42 105 -100 105c-79 0 -145 -76 -145 -156c0 -65 40 -105 101 -105z" />
    <glyph glyph-name="percent.tab" 
d="M67 -8l-43 36l288 349l280 355l42 -37l-284 -346zM192 396c-56 0 -95 42 -95 116c0 117 62 214 144 214c55 0 94 -42 94 -116c0 -117 -62 -214 -143 -214zM198 462c40 0 63 99 63 152c0 29 -9 46 -28 46c-40 0 -64 -99 -64 -152c0 -29 9 -46 29 -46zM420 -8
c-57 0 -96 42 -96 116c0 118 63 215 144 215c55 0 94 -42 94 -116c0 -118 -62 -215 -142 -215zM426 59c40 0 63 98 63 151c0 30 -9 46 -29 46c-40 0 -64 -98 -64 -151c0 -30 10 -46 30 -46z" />
    <glyph glyph-name="quotedbl.tab" 
d="M414 424l24 301c4 45 35 73 72 73c41 0 70 -30 70 -69c0 -11 -5 -27 -8 -37l-112 -268h-46zM184 424l24 301c4 45 34 73 72 73c41 0 70 -30 70 -69c0 -11 -5 -27 -9 -37l-111 -268h-46z" />
    <glyph glyph-name="quotesingle.tab" horiz-adv-x="295" 
d="M149 424l24 301c4 45 35 73 73 73c40 0 70 -30 70 -69c0 -11 -5 -27 -9 -37l-112 -268h-46z" />
    <glyph glyph-name="plus.tab" 
d="M431 582l-40 -168h170l-22 -92h-169l-41 -173h-92l41 173h-170l22 92h169l40 168h92z" />
    <glyph glyph-name="minus.tab" 
d="M102 322l22 92h431l-22 -92h-431z" />
    <glyph glyph-name="divide.tab" 
d="M371 485c-36 0 -67 30 -67 67c0 36 33 66 69 66c35 0 66 -30 66 -66c0 -37 -33 -67 -68 -67zM102 322l22 92h431l-22 -92h-431zM286 117c-36 0 -67 30 -67 67s33 67 68 67c36 0 67 -30 67 -67s-33 -67 -68 -67z" />
    <glyph glyph-name="equal.tab" 
d="M127 428l21 94h406l-20 -94h-407zM78 210l21 93h406l-21 -93h-406z" />
    <glyph glyph-name="multiply.tab" 
d="M210 587l109 -151l159 137l54 -70l-161 -138l110 -149l-74 -58l-107 146l-164 -140l-53 69l165 142l-113 154z" />
    <glyph glyph-name="less.tab" 
d="M396 113l-277 232l10 43l376 228l42 -64l-311 -192l217 -183z" />
    <glyph glyph-name="greater.tab" 
d="M259 621l276 -232l-10 -43l-376 -228l-41 64l311 192l-217 183z" />
    <glyph glyph-name="plusminus.tab" 
d="M442 680l-40 -170h170l-20 -91h-171l-39 -170h-92l39 170h-169l21 91h169l40 170h92zM39 67l20 91h431l-21 -91h-430z" />
    <glyph glyph-name="zero.idx_P2D" horiz-adv-x="1222" 
d="M611 880c312 0 541 -251 541 -550s-229 -550 -541 -550s-541 251 -541 550s229 550 541 550zM611 808c-266 0 -461 -217 -461 -478s195 -478 461 -478s461 217 461 478s-195 478 -461 478zM610 70c-119 0 -221 110 -221 267c0 159 102 267 223 267
c118 0 220 -109 220 -266c0 -159 -102 -268 -222 -268zM610 157c78 0 126 77 126 180s-48 180 -126 180c-76 0 -125 -76 -125 -179s49 -181 125 -181z" />
    <glyph glyph-name="one.idx_P2D" horiz-adv-x="1222" 
d="M611 880c312 0 541 -251 541 -550s-229 -550 -541 -550s-541 251 -541 550s229 550 541 550zM611 808c-266 0 -461 -217 -461 -478s195 -478 461 -478s461 217 461 478s-195 478 -461 478zM773 81h-314v84h111v334l-105 -20l-17 80l168 37h47v-431h110v-84z" />
    <glyph glyph-name="two.idx_P2D" horiz-adv-x="1222" 
d="M611 880c312 0 541 -251 541 -550s-229 -550 -541 -550s-541 251 -541 550s229 550 541 550zM611 808c-266 0 -461 -217 -461 -478s195 -478 461 -478s461 217 461 478s-195 478 -461 478zM423 466c0 21 5 41 16 60c28 47 90 78 171 78c100 0 182 -62 182 -153
c0 -82 -66 -125 -122 -160c-48 -29 -113 -72 -149 -133h206v87h78v-165h-369c-4 0 -29 43 -29 43c51 121 141 183 203 225c49 32 87 57 87 104c0 39 -38 70 -94 70c-38 0 -71 -12 -86 -26c15 -10 23 -29 23 -46c0 -31 -26 -55 -56 -55c-43 0 -61 35 -61 71z" />
    <glyph glyph-name="three.idx_P2D" horiz-adv-x="1222" 
d="M611 880c312 0 541 -251 541 -550s-229 -550 -541 -550s-541 251 -541 550s229 550 541 550zM611 808c-266 0 -461 -217 -461 -478s195 -478 461 -478s461 217 461 478s-195 478 -461 478zM416 197c0 34 24 62 58 62c32 0 56 -24 56 -54c0 -12 -4 -25 -10 -33
c17 -12 53 -21 91 -21c51 0 103 25 103 72c0 30 -15 56 -53 71c-21 9 -48 13 -84 13h-28v75h31c34 0 62 6 83 18c25 14 39 36 39 65c0 41 -46 59 -91 59c-34 0 -56 -6 -68 -15c4 -9 8 -21 8 -31c0 -30 -26 -55 -56 -55s-57 26 -57 66c0 14 6 33 20 50c26 33 77 63 157 63
c104 0 183 -58 183 -134c0 -41 -21 -78 -55 -100c-14 -9 -30 -17 -49 -20c16 -5 31 -11 46 -20c37 -22 69 -57 69 -111c0 -91 -91 -144 -199 -144c-72 0 -134 26 -167 63c-17 18 -27 39 -27 61z" />
    <glyph glyph-name="four.idx_P2D" horiz-adv-x="1222" 
d="M611 880c312 0 541 -251 541 -550s-229 -550 -541 -550s-541 251 -541 550s229 550 541 550zM611 808c-266 0 -461 -217 -461 -478s195 -478 461 -478s461 217 461 478s-195 478 -461 478zM540 80v74h89v75h-239l-22 42l282 342l68 -53l-223 -262h134v81l88 34v-112h79
v-76h-79v-70h59v-75h-236z" />
    <glyph glyph-name="five.idx_P2D" horiz-adv-x="1222" 
d="M611 880c312 0 541 -251 541 -550s-229 -550 -541 -550s-541 251 -541 550s229 550 541 550zM611 808c-266 0 -461 -217 -461 -478s195 -478 461 -478s461 217 461 478s-195 478 -461 478zM605 70c-120 0 -177 57 -177 105c0 34 23 59 57 59c36 0 57 -27 57 -55
c0 -7 -2 -16 -3 -20c8 -2 30 -9 57 -9c70 0 106 43 106 99c0 48 -36 87 -107 87c-28 0 -74 -6 -104 -22l-41 24l22 256h288v-85h-212l-9 -98c15 2 49 7 70 7c101 0 183 -66 183 -169c0 -104 -79 -179 -187 -179z" />
    <glyph glyph-name="six.idx_P2D" horiz-adv-x="1222" 
d="M611 880c312 0 541 -251 541 -550s-229 -550 -541 -550s-541 251 -541 550s229 550 541 550zM611 808c-266 0 -461 -217 -461 -478s195 -478 461 -478s461 217 461 478s-195 478 -461 478zM723 450c-38 0 -55 28 -55 52c0 6 -1 11 0 17c-12 3 -27 5 -40 5
c-73 0 -132 -68 -135 -165c29 26 76 46 123 46c105 0 185 -71 185 -163c0 -96 -83 -172 -195 -172c-59 0 -107 22 -141 57c-44 44 -61 107 -61 195c0 174 97 282 223 282c40 0 77 -9 103 -25c30 -18 48 -42 48 -72c0 -42 -27 -57 -55 -57zM499 244c0 -26 12 -50 32 -67
s47 -27 77 -27c56 0 98 41 98 90c0 51 -42 85 -106 85c-56 0 -101 -32 -101 -81z" />
    <glyph glyph-name="seven.idx_P2D" horiz-adv-x="1222" 
d="M611 880c312 0 541 -251 541 -550s-229 -550 -541 -550s-541 251 -541 550s229 550 541 550zM611 808c-266 0 -461 -217 -461 -478s195 -478 461 -478s461 217 461 478s-195 478 -461 478zM593 80h-101l217 437h-187v-101h-82v178h350l23 -52z" />
    <glyph glyph-name="eight.idx_P2D" horiz-adv-x="1222" 
d="M611 880c312 0 541 -251 541 -550s-229 -550 -541 -550s-541 251 -541 550s229 550 541 550zM611 808c-266 0 -461 -217 -461 -478s195 -478 461 -478s461 217 461 478s-195 478 -461 478zM610 73c-127 0 -199 68 -199 147c0 53 38 108 108 125c-67 17 -96 63 -96 110
c0 81 76 147 187 147s188 -66 188 -147c0 -47 -32 -93 -97 -110c71 -17 108 -72 108 -125c0 -79 -72 -147 -199 -147zM610 375c48 0 91 33 91 75c0 45 -40 75 -91 75c-50 0 -90 -30 -90 -75c0 -42 43 -75 90 -75zM610 151c62 0 103 37 103 77c0 42 -41 81 -103 81
s-102 -39 -102 -81c0 -40 40 -77 102 -77z" />
    <glyph glyph-name="nine.idx_P2D" horiz-adv-x="1222" 
d="M611 880c312 0 541 -251 541 -550s-229 -550 -541 -550s-541 251 -541 550s229 550 541 550zM611 808c-266 0 -461 -217 -461 -478s195 -478 461 -478s461 217 461 478s-195 478 -461 478zM725 432c0 26 -13 49 -32 66c-20 17 -48 27 -78 27c-55 0 -98 -42 -98 -90
c0 -51 42 -85 106 -85c56 0 102 33 102 82zM446 168c0 41 27 57 55 57c37 0 56 -28 56 -53c0 -6 -1 -12 -2 -18c11 -2 26 -3 41 -3c73 0 131 70 133 166c-28 -26 -76 -46 -122 -46c-105 0 -185 71 -185 162c0 95 83 171 195 171c59 0 107 -23 141 -57
c44 -44 62 -107 62 -193c0 -176 -99 -284 -224 -284c-56 0 -102 17 -128 45c-15 15 -22 33 -22 53z" />
    <glyph glyph-name="space" unicode=" " horiz-adv-x="247" 
 />
    <glyph glyph-name="uni00A0" unicode="&#xa0;" horiz-adv-x="247" 
 />
    <glyph glyph-name="emspace" unicode="&#x2003;" horiz-adv-x="1000" 
 />
    <glyph glyph-name="enspace" unicode="&#x2002;" horiz-adv-x="500" 
 />
    <glyph glyph-name="threeperemspace" unicode="&#x2004;" horiz-adv-x="333" 
 />
    <glyph glyph-name="fourperemspace" unicode="&#x2005;" horiz-adv-x="250" 
 />
    <glyph glyph-name="thinspace" unicode="&#x2009;" horiz-adv-x="133" 
 />
    <glyph glyph-name="hairspace" unicode="&#x200a;" horiz-adv-x="75" 
 />
    <glyph glyph-name="space.tab" horiz-adv-x="304" 
 />
    <glyph glyph-name="figurespace" unicode="&#x2007;" horiz-adv-x="595" 
 />
    <glyph glyph-name="NUL" horiz-adv-x="0" 
 />
    <glyph glyph-name="i.dot" horiz-adv-x="375" 
d="M248 582c-39 0 -72 32 -72 72s33 71 72 71s72 -31 72 -71s-33 -72 -72 -72zM190 -9c-72 0 -109 43 -109 106c0 17 3 37 7 56l66 256h-93l24 94h206l-91 -350c-5 -21 -8 -40 -8 -52c0 -22 12 -34 30 -34c22 0 44 15 68 82l48 -18c-32 -107 -85 -140 -148 -140z" />
    <glyph glyph-name="fraction" unicode="&#x2044;" horiz-adv-x="562" 
d="M4 -17l-41 35c53 61 202 233 299 348c96 114 243 295 290 356l41 -35c-54 -61 -202 -233 -300 -348c-96 -115 -242 -295 -289 -356z" />
    <glyph glyph-name="zero.num" horiz-adv-x="400" 
d="M207 300c-83 0 -134 59 -134 163c0 136 82 249 186 249c82 0 133 -60 133 -163c0 -136 -81 -249 -185 -249zM210 365c64 0 110 92 110 188c0 58 -22 94 -65 94c-64 0 -110 -92 -110 -188c0 -58 22 -94 65 -94z" />
    <glyph glyph-name="one.num" horiz-adv-x="400" 
d="M60 308l14 65h104l60 261l-100 -24l-4 65l154 38l36 -17l-74 -323h101l-14 -65h-277z" />
    <glyph glyph-name="two.num" horiz-adv-x="400" 
d="M57 308l-14 33c38 97 131 151 195 183c55 27 85 49 85 81c0 29 -26 45 -66 45c-33 0 -49 -8 -59 -18c5 -6 10 -16 10 -27c0 -24 -19 -43 -43 -43c-25 0 -44 20 -44 46c0 60 72 106 144 106c74 0 132 -39 132 -107c0 -66 -66 -103 -131 -136c-59 -29 -105 -57 -132 -103
h156l15 65h61l-30 -125h-279z" />
    <glyph glyph-name="three.num" horiz-adv-x="400" 
d="M208 302c-64 0 -146 30 -146 99c0 26 19 46 44 46c24 0 42 -19 42 -42c0 -10 -4 -19 -8 -24c9 -10 29 -18 68 -18c52 0 83 24 83 61c0 22 -23 56 -82 56h-30l15 65h29c55 0 97 23 97 57c0 30 -33 49 -73 49c-16 0 -29 -3 -41 -8c3 -4 4 -10 4 -15c0 -24 -19 -42 -42 -42
c-24 0 -44 18 -44 44c0 38 43 82 130 82c93 0 143 -54 143 -102c0 -61 -46 -96 -120 -101c63 -15 88 -49 88 -91c0 -80 -82 -116 -157 -116z" />
    <glyph glyph-name="four.num" horiz-adv-x="400" 
d="M228 364l15 61h-178l-10 35l257 262l44 -42l-204 -200h105l15 60l73 26l-20 -82h63l-15 -59h-62l-14 -61h47l-13 -56h-184l13 56h68z" />
    <glyph glyph-name="five.num" horiz-adv-x="400" 
d="M188 300c-77 0 -130 44 -130 85c0 26 16 48 45 48c24 0 44 -19 44 -44c0 -6 -2 -10 -4 -16c9 -5 25 -10 50 -10c57 0 104 35 104 82c0 39 -29 61 -73 61c-31 0 -57 -8 -80 -17l-39 26l61 191h233l-15 -67h-174l-30 -90c18 7 40 13 73 13c61 0 114 -43 114 -111
c0 -87 -87 -151 -179 -151z" />
    <glyph glyph-name="six.num" horiz-adv-x="400" 
d="M111 338c-24 25 -37 61 -37 110c0 80 31 161 91 215c35 31 75 51 126 51c61 0 108 -35 108 -77c0 -26 -20 -45 -43 -45c-22 0 -41 19 -41 42c0 6 1 11 4 15c-7 3 -14 6 -29 6c-25 0 -57 -11 -85 -37c-26 -25 -48 -66 -59 -106c26 30 63 49 102 49c70 0 124 -47 124 -113
c0 -86 -75 -148 -161 -148c-42 0 -76 14 -100 38zM209 363c56 0 90 37 90 79c0 34 -25 61 -64 61c-52 0 -92 -40 -92 -79c0 -16 6 -31 17 -42c12 -12 29 -19 49 -19z" />
    <glyph glyph-name="seven.num" horiz-adv-x="400" 
d="M105 308l237 338h-153l-17 -75h-64l32 135h268l22 -40l-243 -358h-82z" />
    <glyph glyph-name="eight.num" horiz-adv-x="400" 
d="M215 301c-89 0 -150 50 -150 111c0 55 37 94 102 109c-45 22 -58 53 -58 84c0 51 52 107 146 107c84 0 141 -48 141 -110c0 -47 -32 -81 -90 -95c42 -18 65 -49 65 -87c0 -60 -52 -119 -156 -119zM250 540c43 0 72 24 72 58c0 30 -27 54 -67 54c-42 0 -74 -22 -74 -56
c0 -32 31 -56 69 -56zM215 362c50 0 83 25 83 62c0 29 -25 59 -76 59s-83 -26 -83 -63c0 -32 31 -58 76 -58z" />
    <glyph glyph-name="nine.num" horiz-adv-x="400" 
d="M262 651c-56 0 -91 -37 -91 -79c0 -34 25 -61 65 -61c52 0 91 40 91 79c0 16 -6 32 -17 42c-12 13 -29 19 -48 19zM99 566c0 86 74 148 160 148c43 0 76 -14 100 -38c25 -24 38 -60 38 -110c0 -80 -32 -161 -92 -215c-35 -31 -75 -51 -126 -51c-60 0 -108 35 -108 78
c0 25 20 44 43 44s42 -19 42 -42c0 -5 -2 -11 -4 -14c6 -3 14 -7 28 -7c26 0 58 11 86 37c26 25 48 66 59 108c-26 -32 -64 -50 -102 -50c-71 0 -124 46 -124 112z" />
    <glyph glyph-name="zero.den" horiz-adv-x="400" 
d="M135 -8c-83 0 -134 59 -134 163c0 136 82 249 186 249c82 0 133 -60 133 -163c0 -136 -81 -249 -185 -249zM138 57c64 0 110 92 110 188c0 58 -22 94 -65 94c-64 0 -110 -92 -110 -188c0 -58 22 -94 65 -94z" />
    <glyph glyph-name="one.den" horiz-adv-x="400" 
d="M-12 0l14 65h104l60 261l-100 -24l-4 65l154 38l36 -17l-74 -323h101l-14 -65h-277z" />
    <glyph glyph-name="two.den" horiz-adv-x="400" 
d="M-15 0l-14 33c38 97 131 151 195 183c55 27 85 49 85 81c0 29 -26 45 -66 45c-33 0 -49 -8 -59 -18c5 -6 10 -16 10 -27c0 -24 -19 -43 -43 -43c-25 0 -44 20 -44 46c0 60 72 106 144 106c74 0 132 -39 132 -107c0 -66 -66 -103 -131 -136c-59 -29 -105 -57 -132 -103
h156l15 65h61l-30 -125h-279z" />
    <glyph glyph-name="three.den" horiz-adv-x="400" 
d="M136 -6c-64 0 -146 30 -146 99c0 26 19 46 44 46c24 0 42 -19 42 -42c0 -10 -4 -19 -8 -24c9 -10 29 -18 68 -18c52 0 83 24 83 61c0 22 -23 56 -82 56h-30l15 65h29c55 0 97 23 97 57c0 30 -33 49 -73 49c-16 0 -29 -3 -41 -8c3 -4 4 -10 4 -15c0 -24 -19 -42 -42 -42
c-24 0 -44 18 -44 44c0 38 43 82 130 82c93 0 143 -54 143 -102c0 -61 -46 -96 -120 -101c63 -15 88 -49 88 -91c0 -80 -82 -116 -157 -116z" />
    <glyph glyph-name="four.den" horiz-adv-x="400" 
d="M156 56l15 61h-178l-10 35l257 262l44 -42l-204 -200h105l15 60l73 26l-20 -82h63l-15 -59h-62l-14 -61h47l-13 -56h-184l13 56h68z" />
    <glyph glyph-name="five.den" horiz-adv-x="400" 
d="M116 -8c-77 0 -130 44 -130 85c0 26 16 48 45 48c24 0 44 -19 44 -44c0 -6 -2 -10 -4 -16c9 -5 25 -10 50 -10c57 0 104 35 104 82c0 39 -29 61 -73 61c-31 0 -57 -8 -80 -17l-39 26l61 191h233l-15 -67h-174l-30 -90c18 7 40 13 73 13c61 0 114 -43 114 -111
c0 -87 -87 -151 -179 -151z" />
    <glyph glyph-name="six.den" horiz-adv-x="400" 
d="M39 30c-24 25 -37 61 -37 110c0 80 31 161 91 215c35 31 75 51 126 51c61 0 108 -35 108 -77c0 -26 -20 -45 -43 -45c-22 0 -41 19 -41 42c0 6 1 11 4 15c-7 3 -14 6 -29 6c-25 0 -57 -11 -85 -37c-26 -25 -48 -66 -59 -106c26 30 63 49 102 49c70 0 124 -47 124 -113
c0 -86 -75 -148 -161 -148c-42 0 -76 14 -100 38zM137 55c56 0 90 37 90 79c0 34 -25 61 -64 61c-52 0 -92 -40 -92 -79c0 -16 6 -31 17 -42c12 -12 29 -19 49 -19z" />
    <glyph glyph-name="seven.den" horiz-adv-x="400" 
d="M33 0l237 338h-153l-17 -75h-64l32 135h268l22 -40l-243 -358h-82z" />
    <glyph glyph-name="eight.den" horiz-adv-x="400" 
d="M143 -7c-89 0 -150 50 -150 111c0 55 37 94 102 109c-45 22 -58 53 -58 84c0 51 52 107 146 107c84 0 141 -48 141 -110c0 -47 -32 -81 -90 -95c42 -18 65 -49 65 -87c0 -60 -52 -119 -156 -119zM178 232c43 0 72 24 72 58c0 30 -27 54 -67 54c-42 0 -74 -22 -74 -56
c0 -32 31 -56 69 -56zM143 54c50 0 83 25 83 62c0 29 -25 59 -76 59s-83 -26 -83 -63c0 -32 31 -58 76 -58z" />
    <glyph glyph-name="nine.den" horiz-adv-x="400" 
d="M190 343c-56 0 -91 -37 -91 -79c0 -34 25 -61 65 -61c52 0 91 40 91 79c0 16 -6 32 -17 42c-12 13 -29 19 -48 19zM27 258c0 86 74 148 160 148c43 0 76 -14 100 -38c25 -24 38 -60 38 -110c0 -80 -32 -161 -92 -215c-35 -31 -75 -51 -126 -51c-60 0 -108 35 -108 78
c0 25 20 44 43 44s42 -19 42 -42c0 -5 -2 -11 -4 -14c6 -3 14 -7 28 -7c26 0 58 11 86 37c26 25 48 66 59 108c-26 -32 -64 -50 -102 -50c-71 0 -124 46 -124 112z" />
    <glyph glyph-name="acute" unicode="&#xb4;" horiz-adv-x="592" 
d="M284 580l-31 37l155 156c17 18 37 28 58 28c29 0 52 -25 52 -54c0 -25 -17 -48 -42 -63z" />
    <glyph glyph-name="hungarumlaut" unicode="&#x2dd;" horiz-adv-x="592" 
d="M182 580l-31 37l143 155c17 18 37 29 59 29c28 0 51 -23 51 -54c0 -23 -16 -47 -41 -62zM417 582l-31 37l146 152c17 18 37 28 58 28c30 0 52 -24 52 -53c0 -24 -16 -47 -43 -63z" />
    <glyph glyph-name="caron.alt" horiz-adv-x="592" 
d="M199 530l-30 27c47 53 61 90 69 122c8 38 1 73 14 114c8 30 29 51 64 51c37 0 59 -26 59 -63c0 -49 -26 -89 -61 -136c-36 -46 -78 -81 -115 -115z" />
    <glyph glyph-name="grave" unicode="`" horiz-adv-x="741" 
d="M457 566l-134 122c-20 18 -27 36 -27 56c0 32 27 57 55 57c30 0 47 -16 62 -45l83 -162z" />
    <glyph glyph-name="circumflex" unicode="&#x2c6;" horiz-adv-x="592" 
d="M231 577l-43 56l238 190l143 -197l-54 -47l-110 112z" />
    <glyph glyph-name="caron" unicode="&#x2c7;" horiz-adv-x="592" 
d="M371 570l-142 197l54 47l109 -112l175 114l42 -56z" />
    <glyph glyph-name="breve" unicode="&#x2d8;" horiz-adv-x="592" 
d="M377 584c-94 0 -158 68 -163 195l69 22c19 -77 51 -117 111 -117c51 0 97 29 152 115l61 -28c-55 -128 -147 -187 -230 -187z" />
    <glyph glyph-name="tilde" unicode="&#x2dc;" horiz-adv-x="592" 
d="M472 581c-45 0 -74 24 -99 48c-26 26 -40 36 -59 36c-29 0 -52 -18 -79 -77l-65 25c28 101 92 160 150 160c46 0 74 -23 99 -48c26 -25 40 -35 59 -35c29 0 52 17 80 77l64 -26c-27 -100 -91 -160 -150 -160z" />
    <glyph glyph-name="macron" unicode="&#xaf;" horiz-adv-x="592" 
d="M195 613l22 91h370l-20 -91h-372z" />
    <glyph glyph-name="dieresis" unicode="&#xa8;" horiz-adv-x="592" 
d="M283 597c-42 0 -77 34 -77 77s36 78 78 78c43 0 78 -35 78 -78s-37 -77 -79 -77zM509 597c-42 0 -77 34 -77 77s36 78 79 78c42 0 77 -35 77 -78s-37 -77 -79 -77z" />
    <glyph glyph-name="dotaccent" unicode="&#x2d9;" horiz-adv-x="592" 
d="M390 596c-43 0 -78 35 -78 78c0 44 37 79 80 79c42 0 77 -35 77 -79c0 -43 -37 -78 -79 -78z" />
    <glyph glyph-name="ring" unicode="&#x2da;" horiz-adv-x="592" 
d="M388 581c-79 0 -125 57 -125 124c0 86 68 164 159 164c78 0 125 -57 125 -124c0 -86 -69 -164 -159 -164zM393 653c41 0 71 41 71 86c0 31 -18 57 -48 57c-41 0 -71 -40 -71 -85c0 -31 19 -58 48 -58z" />
    <glyph glyph-name="commaaccent" unicode="&#x326;" horiz-adv-x="253" 
d="M22 -342l-20 38c92 50 124 96 127 115c-31 14 -45 44 -45 61c0 41 32 73 72 73c39 0 74 -31 74 -81c0 -71 -82 -159 -208 -206z" />
    <glyph glyph-name="commaaccent.rot" horiz-adv-x="253" 
d="M362 877l19 -38c-91 -50 -123 -96 -126 -115c31 -14 44 -44 44 -61c0 -41 -31 -73 -71 -73s-74 31 -74 81c0 71 82 159 208 206z" />
    <glyph glyph-name="cedilla" unicode="&#xb8;" horiz-adv-x="592" 
d="M199 -232c-55 0 -108 25 -141 50l24 35c32 -19 73 -32 111 -32c26 0 45 15 45 32c0 19 -20 36 -75 30l-17 26l71 117l35 -10l-18 -71c65 -9 102 -44 102 -89c0 -53 -58 -88 -137 -88z" />
    <glyph glyph-name="ogonek" unicode="&#x2db;" horiz-adv-x="593" 
d="M337 75l28 -31c-80 -50 -141 -103 -141 -150c0 -25 18 -39 48 -39c23 0 47 4 63 9l-18 -71c-18 -13 -50 -26 -92 -26c-53 0 -101 32 -101 93c0 87 100 162 213 215z" />
    <glyph glyph-name="acute.cap" horiz-adv-x="562" 
d="M270 549l-29 36l144 149c17 17 35 27 56 27c28 0 50 -24 50 -51c0 -25 -16 -47 -40 -61z" />
    <glyph glyph-name="hungarumlaut.cap" horiz-adv-x="562" 
d="M173 550l-30 36l136 147c16 18 35 28 56 28c27 0 49 -22 49 -51c0 -22 -15 -45 -39 -60zM397 551l-30 36l138 146c16 17 36 27 56 27c28 0 49 -23 49 -52c0 -22 -15 -45 -40 -59z" />
    <glyph glyph-name="caron.alt.cap" horiz-adv-x="562" 
d="M188 499l-29 26c45 52 58 87 65 117c8 36 1 69 13 110c9 29 29 49 62 49c36 0 58 -25 58 -61c0 -48 -26 -86 -60 -131c-34 -44 -74 -77 -109 -110z" />
    <glyph glyph-name="grave.cap" horiz-adv-x="711" 
d="M433 536l-127 117c-18 17 -25 35 -25 53c0 32 26 56 53 56c29 0 45 -16 59 -44l77 -156z" />
    <glyph glyph-name="circumflex.cap" horiz-adv-x="562" 
d="M218 546l-41 55l228 182l136 -188l-53 -46l-104 107z" />
    <glyph glyph-name="caron.cap" horiz-adv-x="562" 
d="M352 539l-136 189l52 45l104 -107l167 110l41 -54z" />
    <glyph glyph-name="breve.cap" horiz-adv-x="562" 
d="M358 554c-90 0 -151 64 -156 187l67 22c18 -75 48 -113 106 -113c47 0 91 27 144 111l59 -28c-53 -123 -141 -179 -220 -179z" />
    <glyph glyph-name="tilde.cap" horiz-adv-x="562" 
d="M448 551c-43 0 -70 23 -94 46c-25 24 -38 34 -56 34c-28 0 -49 -17 -76 -74l-62 25c26 97 88 154 144 154c43 0 70 -23 94 -46c25 -24 38 -34 56 -34c28 0 49 16 76 73l62 -24c-26 -97 -88 -154 -144 -154z" />
    <glyph glyph-name="macron.cap" horiz-adv-x="562" 
d="M184 581l21 88h353l-20 -88h-354z" />
    <glyph glyph-name="dieresis.cap" horiz-adv-x="562" 
d="M267 565c-40 0 -74 33 -74 75c0 41 36 74 76 74c41 0 74 -33 74 -74c0 -42 -35 -75 -76 -75zM484 565c-41 0 -74 33 -74 75c0 41 35 74 76 74c40 0 74 -33 74 -74c0 -42 -36 -75 -76 -75z" />
    <glyph glyph-name="dotaccent.cap" horiz-adv-x="562" 
d="M370 565c-41 0 -75 33 -75 75c0 41 36 75 77 75c40 0 74 -34 74 -75c0 -42 -35 -75 -76 -75z" />
    <glyph glyph-name="ring.cap" horiz-adv-x="562" 
d="M368 551c-76 0 -120 55 -120 119c0 82 66 157 152 157c76 0 121 -55 121 -119c0 -82 -66 -157 -153 -157zM373 621c39 0 68 39 68 81c0 29 -18 54 -46 54c-39 0 -67 -38 -67 -81c0 -29 17 -54 45 -54z" />
    <glyph glyph-name="commaaccent.cap" horiz-adv-x="240" 
d="M20 -326l-19 37c88 48 117 92 121 109c-30 13 -43 42 -43 58c0 39 31 70 69 70s71 -29 71 -77c0 -68 -79 -152 -199 -197z" />
    <glyph glyph-name="cedilla.cap" horiz-adv-x="562" 
d="M188 -220c-52 0 -102 23 -133 47l22 34c31 -19 69 -30 105 -30c24 0 43 13 43 29c0 18 -19 35 -72 29l-16 25l68 110l33 -9l-17 -67c63 -9 98 -41 98 -84c0 -51 -55 -84 -131 -84z" />
    <glyph glyph-name="ogonek.cap" horiz-adv-x="562" 
d="M321 73l26 -31c-76 -48 -132 -97 -132 -141c0 -24 16 -37 44 -37c22 0 45 4 60 9l-17 -68c-17 -13 -48 -26 -89 -26c-50 0 -95 31 -95 88c0 84 95 155 203 206z" />
    <glyph glyph-name="hcoslug" horiz-adv-x="694" 
d="M644 700v-800h-594v800h594zM247 428c0 17 11 29 27 29c17 0 29 -15 29 -38c0 -17 -7 -33 -18 -50c-23 22 -38 36 -38 59zM312 342c19 13 33 24 42 34c23 -23 18 -47 -1 -80c-13 15 -25 30 -41 46zM261 219c-30 0 -52 23 -52 54c0 15 5 29 16 40c18 -17 46 -47 74 -82
c-11 -9 -23 -12 -38 -12zM382 264c15 20 31 33 46 42c9 -15 25 -25 43 -25c28 0 50 23 50 54s-22 52 -50 52c-25 0 -44 -14 -60 -38c-2 27 -22 38 -49 37c6 10 9 21 9 34c0 35 -33 74 -95 74c-67 0 -109 -42 -109 -85c0 -29 10 -47 31 -69c-53 -18 -82 -49 -82 -91
c0 -53 49 -93 109 -93c42 0 76 14 104 45c33 -34 55 -45 85 -45c43 0 78 36 80 94l-7 2c-10 -17 -22 -29 -43 -29c-20 0 -37 12 -62 41zM286 124l-12 -2v-9h-7v-7h7v-20c0 -8 4 -13 12 -13s12 4 14 13l-5 2c-1 -5 -3 -7 -5 -7c-3 0 -4 2 -4 5v20h13v7h-13v11zM174 94
c0 -13 9 -21 21 -21s21 9 21 21s-9 20 -21 20s-21 -8 -21 -20zM203 94c0 -12 -3 -16 -8 -16s-8 4 -8 16c0 11 3 15 8 15s8 -4 8 -15zM219 81v-7h22v7h-4v15c0 6 3 10 7 10s6 -3 6 -7v-18h-4v-7h22v7h-6v19c0 8 -3 14 -12 14c-7 0 -11 -4 -14 -11v10h-17v-7h6v-25h-6zM379 93
c0 -8 -2 -13 -7 -13c-6 0 -8 5 -8 13c0 7 2 13 8 13c5 0 7 -5 7 -13zM125 81v-7h30v7h-10v16h4c5 0 5 -1 6 -8h7v23h-7c-1 -7 -1 -8 -6 -8h-4v18h12c7 0 9 -2 11 -13h8v20h-51v-7h7v-41h-7zM302 88v-14h7l1 4c3 -2 6 -5 13 -5c9 0 14 6 14 13c0 16 -24 10 -24 18
c0 2 2 4 5 4c4 0 7 -3 10 -7h7v13h-6l-2 -5c-2 3 -6 5 -11 5c-9 0 -14 -6 -14 -12c0 -16 24 -11 24 -19c0 -2 -2 -4 -5 -4c-5 0 -8 3 -12 9h-7zM352 125v-52h6l4 8c3 -5 7 -8 14 -8c12 0 16 12 16 21c0 12 -6 20 -15 20c-6 0 -11 -3 -13 -9v27h-18v-7h6zM405 65
c3 3 2 10 -5 10c-4 0 -7 -3 -7 -7c0 -5 4 -9 11 -9c9 0 14 6 18 16l13 31h5v7h-17v-7h5l-8 -20l-9 20h6v7h-25v-7h5s12 -23 16 -33c-1 -5 -4 -8 -8 -8zM294 39v3c0 10 3 12 6 12c2 0 3 -1 3 -1s-1 -1 -1 -3c0 -4 3 -6 6 -6v-5h-14zM464 33h-18v-7h6c-1 -3 -4 -7 -6 -9
c-4 4 -7 8 -12 13c7 3 11 6 11 12s-5 12 -14 12c-10 0 -17 -7 -17 -14c0 -5 2 -8 6 -12c-7 -2 -13 -7 -13 -15s6 -14 18 -14c6 0 11 2 15 6c4 -5 7 -6 12 -6c8 0 11 5 13 12l-5 1c-1 -4 -2 -5 -4 -5s-4 2 -6 5c3 4 6 8 9 14h5v7zM469 27c0 -17 11 -28 29 -28
c15 0 23 9 24 23h-8c-1 -9 -6 -16 -14 -16c-10 0 -16 7 -16 22c0 16 6 22 14 22s11 -4 15 -16h8v22h-8l-1 -6c-4 4 -9 7 -16 7c-14 0 -27 -12 -27 -30zM431 33c-4 4 -6 7 -6 10s2 5 5 5c4 0 6 -3 6 -6c0 -4 -2 -7 -5 -9zM340 18h26c1 13 -5 22 -19 22c-11 0 -20 -9 -20 -21
s8 -20 21 -20c11 0 16 6 18 14h-7c-1 -5 -4 -7 -9 -7c-7 0 -10 3 -10 12zM525 20c0 -13 9 -21 21 -21s21 9 21 21s-9 20 -21 20s-21 -8 -21 -20zM189 20c0 -13 9 -21 21 -21s21 9 21 21s-9 20 -21 20s-21 -8 -21 -20zM247 18h26c1 13 -5 22 -19 22c-11 0 -20 -9 -20 -21
s8 -20 21 -20c11 0 16 6 18 14h-7c-1 -5 -4 -7 -9 -7c-7 0 -10 3 -10 12zM340 23c0 9 3 12 7 12c5 0 7 -4 7 -12h-14zM554 20c0 -12 -3 -16 -8 -16s-8 4 -8 16c0 11 3 15 8 15s8 -4 8 -15zM218 20c0 -12 -3 -16 -8 -16s-8 4 -8 16c0 11 3 15 8 15s8 -4 8 -15zM247 23
c0 9 3 12 7 12c5 0 7 -4 7 -12h-14zM368 7v-7h26v7h-8v16c2 5 5 9 7 9v-1c0 -4 3 -6 6 -6c4 0 7 3 7 7c0 5 -3 8 -8 8s-9 -3 -12 -11v10h-18v-7h6v-25h-6zM276 7v-7h23v7h-5v25h14v-25h-5v-7h23v7h-6v52l-10 -2c-2 1 -6 2 -9 2c-10 0 -19 -6 -19 -19v-1h-7v-7h7v-25h-6z
M124 7v-7h29v7h-8v18h22v-18h-8v-7h29v7h-8v41h8v7h-29v-7h8v-16h-22v16h8v7h-29v-7h8v-41h-8zM437 9c-3 -2 -6 -3 -8 -3c-6 0 -10 4 -10 10c0 4 2 7 4 9c5 -5 9 -10 14 -16zM583 6c0 4 -3 7 -7 7s-7 -3 -7 -7s3 -7 7 -7s7 3 7 7z" />
    </font>
</defs>
</svg>
